<svg id="Layer_1" data-name="Layer 1" xmlns="http://www.w3.org/2000/svg" viewBox="0 0 256 256">
  <rect width="256" height="256" fill="none"/>
  <polygon points="160 28.686 160 80 211.314 80 160 28.686"/>
  <path d="M123.99414,136.00977a19.98432,19.98432,0,1,0,14.14209,5.84863A19.93593,19.93593,0,0,0,123.99414,136.00977Z"/>
  <path d="M152,96a8.00008,8.00008,0,0,1-8-8V24H55.99219a16.01833,16.01833,0,0,0-16,16V216a16.01833,16.01833,0,0,0,16,16H200a16.01833,16.01833,0,0,0,16-16V96Zm13.44971,101.65723a8.00063,8.00063,0,0,1-11.31348,0l-10.98511-10.98511a35.95132,35.95132,0,1,1,11.32093-11.307l10.97766,10.97766A8.00034,8.00034,0,0,1,165.44971,197.65723Z"/>
</svg>
