<svg id="Raw" xmlns="http://www.w3.org/2000/svg" viewBox="0 0 256 256">
  <rect width="256" height="256" fill="none"/>
  <g>
    <path d="M213.58936,82.2749,157.65723,26.34277c-.08008-.08007-.167-.15039-.25-.22656-.10791-.09912-.21289-.20166-.32618-.29492-.07519-.06152-.15576-.11524-.23291-.17432-.13085-.10009-.26025-.20166-.397-.29394-.062-.04151-.12793-.07617-.19043-.11573-.15869-.10009-.31738-.1997-.4834-.28906-.04492-.02392-.09179-.04248-.13672-.06543-.1875-.09668-.377-.18945-.57275-.271-.03027-.0127-.0625-.022-.09326-.03418-.21045-.08448-.42383-.16358-.64258-.23-.03174-.00977-.06445-.01563-.09619-.02491-.2168-.063-.436-.12109-.66064-.166-.07129-.01416-.145-.02051-.2168-.03272-.18555-.03222-.37012-.06494-.55908-.08349A7.91349,7.91349,0,0,0,152,24H55.99219a16.01833,16.01833,0,0,0-16,16V216a16.01833,16.01833,0,0,0,16,16H200a16.01833,16.01833,0,0,0,16-16V88.15479c.001-.05225.00781-.10254.00781-.15479A7.97147,7.97147,0,0,0,213.58936,82.2749ZM165.44971,189.45605a8.00061,8.00061,0,0,1-11.31348,0l-10.98511-10.9851a35.95132,35.95132,0,1,1,11.32093-11.307l10.97766,10.97766A8.00032,8.00032,0,0,1,165.44971,189.45605ZM152,88V43.31348L196.68555,88Z"/>
    <path d="M123.99414,128.00977a19.98432,19.98432,0,1,0,14.14209,5.84863A19.93593,19.93593,0,0,0,123.99414,128.00977Z"/>
  </g>
</svg>
