<svg id="Layer_1" data-name="Layer 1" xmlns="http://www.w3.org/2000/svg" viewBox="0 0 256 256">
  <rect width="256" height="256" fill="none"/>
  <path d="M232,100.12134l-3.35547,2.39233-69.36719,49.45606,66.87207,47.23535.01221.00952.01709.011,5.50635,3.92578A16.00083,16.00083,0,0,0,232,200Z"/>
  <path d="M36.64453,89.48633,113.10547,144h29.78906l76.46094-54.51367,4.49219-3.20264L132.4375,25.34375a8.00131,8.00131,0,0,0-8.875,0L32.15234,86.28369Z"/>
  <path d="M27.35547,102.51367,24,100.12134V200a16.00213,16.00213,0,0,0,.31494,3.15186l5.50733-3.92627.01709-.011.0122-.00952,66.8711-47.23535Z"/>
  <path d="M216.88965,212.25293l-.00195-.00171L142.91406,160H113.08594L39.11328,212.25122l-.002.00171L34.99561,215.187A15.913,15.913,0,0,0,40,216H216a15.91377,15.91377,0,0,0,5.00488-.813Z"/>
</svg>
