<svg id="Layer_1" data-name="Layer 1" xmlns="http://www.w3.org/2000/svg" viewBox="0 0 256 256">
  <rect width="256" height="256" fill="none"/>
  <g>
    <path d="M213.91943,210.61865l-160-176a7.99991,7.99991,0,1,0-11.83886,10.7627L64.18945,69.70117l-7.58838,75.86426a.32987.32987,0,0,1-.01416.06934,55.69488,55.69488,0,0,0-23.44433,35.0625A16.02766,16.02766,0,0,0,48.80371,200H120v40a8,8,0,0,0,16,0V200h46.64307l19.4375,21.38135a7.99991,7.99991,0,0,0,11.83886-10.7627Z"/>
    <path d="M185.92285,155.71582a7.99995,7.99995,0,0,0,13.87256-6.18555L188.68066,38.40771A15.94952,15.94952,0,0,0,172.76025,24H83.97412a8.00035,8.00035,0,0,0-5.9126,13.38965Z"/>
  </g>
</svg>
