<svg id="Raw" xmlns="http://www.w3.org/2000/svg" viewBox="0 0 256 256">
  <rect width="256" height="256" fill="none"/>
  <path d="M248,132a56.1211,56.1211,0,0,0-31.99951-50.61035L216,72a47.98283,47.98283,0,0,0-88-26.49316A47.98283,47.98283,0,0,0,40,71.99951l-.00049,9.39014A56.00268,56.00268,0,0,0,40,182.58569V184a47.98283,47.98283,0,0,0,88,26.49316A47.98283,47.98283,0,0,0,216,184v-1.41431A56.06726,56.06726,0,0,0,248,132ZM88,216a32.0433,32.0433,0,0,1-31.812-28.55664A56.1738,56.1738,0,0,0,64,188h8a8,8,0,0,0,0-16H64A40.00827,40.00827,0,0,1,50.66553,94.27393a7.99958,7.99958,0,0,0,5.33349-7.542L56,72a32,32,0,0,1,64,0v76.26147A47.80252,47.80252,0,0,0,88,136a8,8,0,0,0,0,16,32,32,0,0,1,0,64Zm104-44h-8a8,8,0,0,0,0,16h8a56.1738,56.1738,0,0,0,7.812-.55664A31.999,31.999,0,1,1,168,152a8,8,0,0,0,0-16,47.80252,47.80252,0,0,0-32,12.26147V72a32,32,0,1,1,64,.00049l.001,14.73144a7.99958,7.99958,0,0,0,5.33349,7.542A40.00827,40.00827,0,0,1,192,172ZM60,128a8,8,0,0,1,0-16A20.0226,20.0226,0,0,0,80,92V84a8,8,0,0,1,16,0v8A36.04061,36.04061,0,0,1,60,128Zm144-8a8.00008,8.00008,0,0,1-8,8,36.04061,36.04061,0,0,1-36-36V84a8,8,0,0,1,16,0v8a20.0226,20.0226,0,0,0,20,20A8.00008,8.00008,0,0,1,204,120Z"/>
</svg>
