<svg id="Raw" xmlns="http://www.w3.org/2000/svg" viewBox="0 0 256 256">
  <rect width="256" height="256" fill="none"/>
  <line x1="128" y1="176" x2="128" y2="80" fill="none" stroke="#000" stroke-linecap="round" stroke-linejoin="round" stroke-width="12"/>
  <path d="M88,144a40,40,0,1,1-40,40v-6.73323" fill="none" stroke="#000" stroke-linecap="round" stroke-linejoin="round" stroke-width="12"/>
  <path d="M168,144a40,40,0,1,0,40,40v-6.7317" fill="none" stroke="#000" stroke-linecap="round" stroke-linejoin="round" stroke-width="12"/>
  <path d="M72,180H64A48.00813,48.00813,0,0,1,47.99924,86.73156L48,72a40,40,0,0,1,80,0V184" fill="none" stroke="#000" stroke-linecap="round" stroke-linejoin="round" stroke-width="12"/>
  <path d="M184,180h8a48.00813,48.00813,0,0,0,16.00076-93.26844L208,72a40,40,0,0,0-80,0" fill="none" stroke="#000" stroke-linecap="round" stroke-linejoin="round" stroke-width="12"/>
  <path d="M88,84v8a28,28,0,0,1-28,28" fill="none" stroke="#000" stroke-linecap="round" stroke-linejoin="round" stroke-width="12"/>
  <path d="M168,84v8a28,28,0,0,0,28,28" fill="none" stroke="#000" stroke-linecap="round" stroke-linejoin="round" stroke-width="12"/>
</svg>
