<svg id="Layer_1" data-name="Layer 1" xmlns="http://www.w3.org/2000/svg" viewBox="0 0 256 256">
  <g>
    <path d="M208,40H168a8,8,0,0,0,0,16h32V88a8,8,0,0,0,16,0V48A8.00008,8.00008,0,0,0,208,40Z"/>
    <path d="M88,200H56V168a8,8,0,0,0-16,0v40a8.00039,8.00039,0,0,0,8,8H88a8,8,0,0,0,0-16Z"/>
    <path d="M208,160a8.00039,8.00039,0,0,0-8,8v32H168a8,8,0,0,0,0,16h40a8.00039,8.00039,0,0,0,8-8V168A8.00039,8.00039,0,0,0,208,160Z"/>
    <path d="M88,40H48a8.00008,8.00008,0,0,0-8,8V88a8,8,0,0,0,16,0V56H88a8,8,0,0,0,0-16Z"/>
  </g>
</svg>
