<svg id="Layer_1" data-name="Layer 1" xmlns="http://www.w3.org/2000/svg" viewBox="0 0 256 256">
  <rect width="256" height="256" fill="none"/>
  <path d="M226.9375,191.8418l4.29688,3.93945A15.33741,15.33741,0,0,0,232,191.99805V81.22363l-62.86621,57.62793Z"/>
  <path d="M216.125,203.63867l-58.832-53.93262-13.09668,12.00489a24.00408,24.00408,0,0,1-32.41406-.02051L98.708,149.70605,39.875,203.63867l-3.873,3.54981a15.37882,15.37882,0,0,0,3.998.80957H216a15.37882,15.37882,0,0,0,3.99805-.80957Z"/>
  <path d="M29.0625,191.8418l57.80469-52.99024L24,81.22363V191.99805a15.33742,15.33742,0,0,0,.76563,3.7832Z"/>
  <path d="M231.45312,53.09961A7.98664,7.98664,0,0,0,224,47.99805H32a8.00271,8.00271,0,0,0-5.40625,13.89843l96,88a8.00452,8.00452,0,0,0,10.8125,0l96-88A7.97677,7.97677,0,0,0,231.45312,53.09961Z"/>
</svg>
