<svg xmlns="http://www.w3.org/2000/svg" width="16" height="16" viewBox="0 0 16 16">
  <g fill="none" fill-rule="evenodd">
    <polygon points="0 16 16 16 16 0 0 0"/>
    <path fill="#000" d="M9.8308,9.3564 L13.5078,12.7274 L13.7498,12.9494 C13.6678,12.9714 13.5888,12.9994 13.4998,12.9994 L13.4998,12.9994 L2.4998,12.9994 C2.4108,12.9994 2.3318,12.9714 2.2498,12.9494 L2.2498,12.9494 L2.4918,12.7274 L6.1688,9.3564 L6.9868,10.1054 C7.2658,10.3604 7.6248,10.4994 7.9998,10.4994 C8.3748,10.4994 8.7348,10.3604 9.0128,10.1064 L9.0128,10.1064 L9.8308,9.3564 Z M14.4996,5.0761 L14.4996,12.0001 C14.4996,12.0841 14.4716,12.1581 14.4526,12.2361 L14.4526,12.2361 L14.1836,11.9901 L10.5716,8.6781 L14.4996,5.0761 Z M1.5004,5.0761 L5.4294,8.6781 L1.8164,11.9901 L1.5474,12.2361 C1.5284,12.1581 1.5004,12.0841 1.5004,12.0001 L1.5004,12.0001 L1.5004,5.0761 Z M13.9998,2.9997 C14.2058,2.9997 14.3918,3.1267 14.4658,3.3187 C14.5408,3.5107 14.4898,3.7297 14.3378,3.8687 L14.3378,3.8687 L8.3378,9.3687 C8.2418,9.4557 8.1208,9.4997 7.9998,9.4997 C7.8788,9.4997 7.7578,9.4557 7.6618,9.3687 L7.6618,9.3687 L1.6618,3.8687 C1.5098,3.7297 1.4588,3.5107 1.5338,3.3187 C1.6088,3.1267 1.7938,2.9997 1.9998,2.9997 L1.9998,2.9997 Z"/>
  </g>
</svg>
