<svg xmlns="http://www.w3.org/2000/svg" width="16" height="16" viewBox="0 0 16 16">
  <g fill="none" fill-rule="evenodd">
    <polygon points="0 16 16 16 16 0 0 0"/>
    <polygon fill="#000" points="14 3.5 8 9 2 3.5" opacity=".2"/>
    <path fill="#000" fill-rule="nonzero" d="M14,2.9999 L14.0232225,3.00043956 C14.0417151,3.00129903 14.0601608,3.00317914 14.0784678,3.00607592 C14.0916389,3.00811262 14.1040957,3.01058717 14.1163767,3.0135148 C14.1310651,3.01706426 14.1461374,3.02139177 14.1610122,3.02643543 C14.1739572,3.03078944 14.1867174,3.03572745 14.1992123,3.041161 C14.2134389,3.04733223 14.2274332,3.05419095 14.2411394,3.061736 C14.2551295,3.06949051 14.268966,3.07802087 14.2823348,3.0871839 C14.2912297,3.09320671 14.2998078,3.09950033 14.3082178,3.10609905 C14.3258277,3.11995445 14.3427346,3.13514563 14.3585445,3.15140877 C14.3617261,3.15467413 14.3651732,3.15832433 14.3685771,3.16203769 C14.3843065,3.17950821 14.3957483,3.19373135 14.4063985,3.20856132 L14.3685771,3.16203769 C14.391968,3.18755512 14.4122107,3.21484391 14.4293259,3.24342655 C14.4340328,3.25132885 14.4386122,3.25948219 14.4429657,3.26777276 C14.4521258,3.28521006 14.4600284,3.30272706 14.4668677,3.32054461 C14.4705958,3.33021988 14.4741342,3.34036989 14.4773488,3.35066285 C14.4827934,3.36822277 14.4871756,3.38558788 14.4906124,3.40309271 C14.4967624,3.43423763 14.5,3.46669072 14.5,3.4999 L14.4966617,3.44190364 C14.4983609,3.45656028 14.4994111,3.4712722 14.4998144,3.48599327 L14.5,3.4999 L14.5,11.9999 C14.5,12.5520424 14.0521424,12.9999 13.5,12.9999 L13.5,12.9999 L2.5,12.9999 C1.94785763,12.9999 1.5,12.5520424 1.5,11.9999 L1.5,11.9999 L1.5,3.4999 C1.5,3.49751358 1.50001672,3.49513107 1.50005004,3.49275258 C1.50031157,3.47294317 1.50178328,3.45286998 1.5044625,3.43291713 C1.50584412,3.42254702 1.50748603,3.41264168 1.50941441,3.40283914 C1.51282438,3.38558788 1.51720661,3.36822277 1.52253782,3.35107815 C1.52586581,3.34036989 1.52940416,3.33021988 1.53325433,3.32022472 C1.53997164,3.30272706 1.54787419,3.28521006 1.55684412,3.26808908 C1.56138779,3.25948219 1.56596717,3.25132885 1.57076429,3.24332091 C1.577747,3.23161471 1.58535398,3.22002383 1.59349654,3.20868761 C1.60425169,3.19373135 1.61569348,3.17950821 1.62786508,3.16595373 C1.62909468,3.16459058 1.63025488,3.16331192 1.63142293,3.16203769 L1.64145547,3.15140877 C1.65726541,3.13514563 1.67417229,3.11995445 1.69205666,3.10595467 L1.63142293,3.16203769 C1.65775933,3.13330707 1.68667921,3.10835758 1.717501,3.08721886 C1.73103401,3.07802087 1.7448705,3.06949051 1.75913155,3.06163599 C1.77256681,3.05419095 1.78656109,3.04733223 1.80079156,3.0411621 C1.81328264,3.03572745 1.82604279,3.03078944 1.83904339,3.02637177 C1.85386264,3.02139177 1.86893495,3.01706426 1.88415001,3.01345525 C1.92096534,3.00461297 1.95993228,2.9999 2,2.9999 L1.92153218,3.00607592 C1.9405009,3.00307445 1.95961844,3.00116446 1.97878273,3.00035037 L2,2.9999 L14,2.9999 L14,2.9999 Z M9.09,8.6779 L8.33786231,9.36847707 C8.17059677,9.52180382 7.92505161,9.54096967 7.73821616,9.4259746 L7.66213769,9.36847707 L6.909,8.6779 L3.285,11.9999 L12.714,11.9999 L9.09,8.6779 Z M13.5,4.6349 L9.83,7.9989 L13.5,11.3639 L13.5,4.6349 Z M2.5,4.6359 L2.5,11.3629 L6.169,7.9989 L2.5,4.6359 Z M12.715,3.9989 L3.284,3.9989 L7.999,8.322 L12.715,3.9989 Z"/>
  </g>
</svg>
