<svg id="Raw" xmlns="http://www.w3.org/2000/svg" viewBox="0 0 256 256">
  <rect width="256" height="256" fill="none"/>
  <path d="M223.938,149.14551a7.99991,7.99991,0,0,1-5.65723,9.79785l-25.05713,6.71387,6.71436,25.05664a8.00007,8.00007,0,1,1-15.45508,4.14062l-7.927-29.58374L136,141.856V188.686l21.65674,21.65673a8.00018,8.00018,0,0,1-11.31348,11.31446L128,203.31348l-18.34326,18.34375a8.00018,8.00018,0,0,1-11.31348-11.31446L120,188.686V141.856L79.44409,165.27075l-7.927,29.58374A8.00007,8.00007,0,1,1,56.062,190.71387l6.71436-25.05664-25.05713-6.71387a8.00007,8.00007,0,1,1,4.14062-15.45508L71.44458,151.415,112.00073,128,71.44458,104.585l-29.58472,7.92676a8.00007,8.00007,0,1,1-4.14062-15.45508l25.05713-6.71387L56.062,65.28613a8.00007,8.00007,0,1,1,15.45508-4.14062l7.927,29.58374L120,114.144V67.314L98.34326,45.65723a8.00018,8.00018,0,0,1,11.31348-11.31446L128,52.68652l18.34326-18.34375a8.00018,8.00018,0,1,1,11.31348,11.31446L136,67.314V114.144l40.55591-23.41479,7.927-29.58374A8.00007,8.00007,0,1,1,199.938,65.28613l-6.71436,25.05664,25.05713,6.71387a8.00007,8.00007,0,1,1-4.14062,15.45508L184.55542,104.585,143.99927,128l40.55615,23.415,29.58472-7.92676A8.00062,8.00062,0,0,1,223.938,149.14551Z"/>
</svg>
