<svg xmlns="http://www.w3.org/2000/svg" width="16" height="16" viewBox="0 0 16 16">
  <g fill="none" fill-rule="evenodd">
    <polygon points="0 16 15.999 16 15.999 0 0 0"/>
    <path fill="#000" d="M7.4996,11.9999 L7.4996,3.9999 L1.9996,3.9999 C1.7246,3.9999 1.4996,4.2239 1.4996,4.4999 L1.4996,11.4999 C1.4996,11.7759 1.7246,11.9999 1.9996,11.9999 L7.4996,11.9999 Z" opacity=".2"/>
    <path fill="#000" fill-rule="nonzero" d="M1.9996,12.4999 C1.44826669,12.4999 0.9996,12.0518522 0.9996,11.4999 L0.9996,11.4999 L0.9996,4.4999 C0.9996,3.94794784 1.44826669,3.4999 1.9996,3.4999 L1.9996,3.4999 L12.4996,3.4999 C13.0517424,3.4999 13.4996,3.94775763 13.4996,4.4999 L13.4996,4.4999 L13.4996,11.4999 C13.4996,12.0520424 13.0517424,12.4999 12.4996,12.4999 L12.4996,12.4999 Z M6.9996,4.4999 L1.9996,4.4999 L1.9996,11.4999 L6.9996,11.4999 L6.9996,4.4999 Z M12.4996,4.4999 L7.9996,4.4999 L7.9996,11.4999 L12.4996,11.4999 L12.4996,4.4999 Z M14.9996,5.4999 C15.2450599,5.4999 15.4492084,5.67677516 15.4915443,5.91002437 L15.4996,5.9999 L15.4996,9.9999 C15.4996,10.2760424 15.2757424,10.4999 14.9996,10.4999 C14.7541401,10.4999 14.5499916,10.3230248 14.5076557,10.0897756 L14.4996,9.9999 L14.4996,5.9999 C14.4996,5.72375763 14.7234576,5.4999 14.9996,5.4999 Z"/>
  </g>
</svg>
