<svg xmlns="http://www.w3.org/2000/svg" width="16" height="16" viewBox="0 0 16 16">
  <g fill="none" fill-rule="evenodd">
    <polygon points="0 16 16 16 16 0 0 0"/>
    <path fill="#000" fill-rule="nonzero" d="M12.5,3.6249 C12.9831068,3.6249 13.375,4.01679322 13.375,4.4999 L13.375,4.4999 L13.375,11.4999 C13.375,11.9830068 12.9831068,12.3749 12.5,12.3749 L12.5,12.3749 L2,12.3749 C1.51689322,12.3749 1.125,11.9830068 1.125,11.4999 L1.125,11.4999 L1.125,4.4999 C1.125,4.01679322 1.51689322,3.6249 2,3.6249 L2,3.6249 Z M7.125,5.9049 L1.875,11.1549 L1.875,11.4999 C1.875,11.5550146 1.91090834,11.6019458 1.960545,11.6185137 L2,11.6249 L3.344,11.6249 L7.125,7.8439 L7.125,5.9049 Z M12.5,4.3749 L7.875,4.3749 L7.875,11.6249 L12.5,11.6249 C12.5551146,11.6249 12.6020458,11.5889917 12.6186137,11.539355 L12.625,11.4999 L12.625,4.4999 C12.625,4.43100678 12.5688932,4.3749 12.5,4.3749 L12.5,4.3749 Z M7.125,8.9049 L4.405,11.6249 L7.125,11.6249 L7.125,8.9049 Z M15,5.6249 C15.1812184,5.6249 15.332414,5.75344325 15.3673813,5.92432442 L15.375,5.9999 L15.375,9.9999 C15.375,10.2070068 15.2071068,10.3749 15,10.3749 C14.8187816,10.3749 14.667586,10.2463568 14.6326187,10.0754756 L14.625,9.9999 L14.625,5.9999 C14.625,5.79279322 14.7928932,5.6249 15,5.6249 Z M7.125,4.3749 L5.655,4.3749 L1.875,8.1549 L1.875,10.0939 L7.125,4.8439 L7.125,4.3749 Z M4.593,4.3749 L2,4.3749 C1.93110678,4.3749 1.875,4.43100678 1.875,4.4999 L1.875,4.4999 L1.875,7.0929 L4.593,4.3749 Z"/>
  </g>
</svg>
