<svg xmlns="http://www.w3.org/2000/svg" width="16" height="16" viewBox="0 0 16 16">
  <g fill="none" fill-rule="evenodd">
    <polygon points="0 16 16 16 16 0 0 0"/>
    <path fill="#000" fill-rule="nonzero" d="M12.5,3.5 C13.0521424,3.5 13.5,3.94785763 13.5,4.5 L13.5,4.5 L13.5,11.5 C13.5,12.0521424 13.0521424,12.5 12.5,12.5 L12.5,12.5 L2,12.5 C1.44785763,12.5 1,12.0521424 1,11.5 L1,11.5 L1,4.5 C1,3.94785763 1.44785763,3.5 2,3.5 L2,3.5 Z M7,6.206 L2,11.206 L2,11.5 L3.292,11.5 L7,7.792 L7,6.206 Z M12.5,4.5 L8,4.5 L8,11.5 L12.5,11.5 L12.5,4.5 Z M7,9.206 L4.706,11.5 L7,11.5 L7,9.206 Z M15,5.5 C15.2454599,5.5 15.4496084,5.67687516 15.4919443,5.91012437 L15.5,6 L15.5,10 C15.5,10.2761424 15.2761424,10.5 15,10.5 C14.7545401,10.5 14.5503916,10.3231248 14.5080557,10.0898756 L14.5,10 L14.5,6 C14.5,5.72385763 14.7238576,5.5 15,5.5 Z M7,4.5 L5.706,4.5 L2,8.206 L2,9.792 L7,4.792 L7,4.5 Z M4.292,4.5 L2,4.5 L2,6.792 L4.292,4.5 Z"/>
  </g>
</svg>
