<svg xmlns="http://www.w3.org/2000/svg" width="16" height="16" viewBox="0 0 16 16">
  <g fill="none" fill-rule="evenodd">
    <polygon points="0 16 16 16 16 0 0 0"/>
    <path fill="#000" fill-rule="nonzero" d="M12.5,3.2499 C13.1902136,3.2499 13.75,3.80968644 13.75,4.4999 L13.75,4.4999 L13.75,11.4999 C13.75,12.1901136 13.1902136,12.7499 12.5,12.7499 L12.5,12.7499 L2,12.7499 C1.30978644,12.7499 0.75,12.1901136 0.75,11.4999 L0.75,11.4999 L0.75,4.4999 C0.75,3.80968644 1.30978644,3.2499 2,3.2499 L2,3.2499 Z M12.25,4.749 L8.25,4.7489 L8.25,11.2489 L12.25,11.249 L12.25,4.749 Z M6.75,6.8099 L2.311,11.2489 L3.19,11.2489 L6.75,7.6889 L6.75,6.8099 Z M6.75,9.8099 L5.311,11.2489 L6.75,11.2489 L6.75,9.8099 Z M15,5.2499 C15.3796958,5.2499 15.693491,5.53205388 15.7431534,5.89812944 L15.75,5.9999 L15.75,9.9999 C15.75,10.4141136 15.4142136,10.7499 15,10.7499 C14.6203042,10.7499 14.306509,10.4677461 14.2568466,10.1016706 L14.25,9.9999 L14.25,5.9999 C14.25,5.58568644 14.5857864,5.2499 15,5.2499 Z M6.69,4.7489 L5.811,4.7489 L2.25,8.3099 L2.25,9.1889 L6.69,4.7489 Z M3.689,4.7489 L2.25,4.749 L2.25,6.1879 L3.689,4.7489 Z"/>
  </g>
</svg>
