<svg xmlns="http://www.w3.org/2000/svg" width="16" height="16" viewBox="0 0 16 16">
  <g fill="none" fill-rule="evenodd">
    <polygon points="0 16 16 16 16 0 0 0"/>
    <path fill="#000" fill-rule="nonzero" d="M2,12.2499 C1.58592881,12.2499 1.25,11.9139712 1.25,11.4999 L1.25,11.4999 L1.25,4.4999 C1.25,4.08582881 1.58592881,3.7499 2,3.7499 L2,3.7499 L12.5,3.7499 C12.9140712,3.7499 13.25,4.08582881 13.25,4.4999 L13.25,4.4999 L13.25,11.4999 C13.25,11.9139712 12.9140712,12.2499 12.5,12.2499 L12.5,12.2499 Z M7.25,5.6029 L1.75,11.1029 L1.75,11.4999 C1.75,11.6181247 1.83233802,11.717352 1.94272212,11.7432899 L2,11.7499 L3.396,11.7499 L7.25,7.8959 L7.25,5.6029 Z M12.5,4.2499 L7.75,4.2499 L7.75,11.7499 L12.5,11.7499 C12.6182247,11.7499 12.717452,11.667562 12.7433899,11.5571779 L12.75,11.4999 L12.75,4.4999 C12.75,4.36197119 12.6379288,4.2499 12.5,4.2499 L12.5,4.2499 Z M7.25,8.6029 L4.103,11.7499 L7.25,11.7499 L7.25,8.6029 Z M7.25,4.2499 L5.602,4.2499 L1.75,8.1019 L1.75,10.3959 L7.25,4.8959 L7.25,4.2499 Z M15,5.7499 C15.1183467,5.7499 15.2174868,5.83213341 15.2433973,5.94257729 L15.25,5.9999 L15.25,9.9999 C15.25,10.1379712 15.1380712,10.2499 15,10.2499 C14.8816533,10.2499 14.7825132,10.1676666 14.7566027,10.0572227 L14.75,9.9999 L14.75,5.9999 C14.75,5.86182881 14.8619288,5.7499 15,5.7499 Z M4.896,4.2499 L2,4.2499 C1.86207119,4.2499 1.75,4.36197119 1.75,4.4999 L1.75,4.4999 L1.75,7.3959 L4.896,4.2499 Z"/>
  </g>
</svg>
