<svg id="Layer_1" data-name="Layer 1" xmlns="http://www.w3.org/2000/svg" viewBox="0 0 256 256">
  <rect width="256" height="256" fill="none"/>
  <g>
    <path d="M127.99414,175.99609a48.05083,48.05083,0,0,0,48-47.99218V63.99609a48,48,0,1,0-96,0v64A48.05249,48.05249,0,0,0,127.99414,175.99609Z"/>
    <path d="M200.43164,128.05078a8.07828,8.07828,0,0,0-8.82812,7.07813,64.00856,64.00856,0,0,1-127.21875-.00782,8.09865,8.09865,0,0,0-8.82813-7.07031,8.01056,8.01056,0,0,0-7.07812,8.83594A79.60051,79.60051,0,0,0,119.99414,207.251v24.74511a8,8,0,1,0,16,0V207.252a79.577,79.577,0,0,0,71.51563-70.373A8.00321,8.00321,0,0,0,200.43164,128.05078Z"/>
  </g>
</svg>
