<svg xmlns="http://www.w3.org/2000/svg" width="16" height="16" viewBox="0 0 16 16">
  <g fill="none" fill-rule="evenodd">
    <polygon points="0 16 15.999 16 15.999 0 0 0"/>
    <path fill="#000" fill-rule="nonzero" d="M12.4374292,8.12675022 L12.5133845,8.12745738 C12.7192446,8.15014773 12.867733,8.33542445 12.8450426,8.54128452 C12.5879932,10.8733861 10.6974923,12.6834054 8.37484827,12.8609002 L8.3746,14.4998 C8.3746,14.7069068 8.20670678,14.8748 7.9996,14.8748 C7.81838157,14.8748 7.66718602,14.7462568 7.63221867,14.5753756 L7.6246,14.4998 L7.62435006,12.8609245 C5.30316694,12.6835669 3.4126461,10.8734119 3.15457545,8.54144818 C3.13179471,8.3355981 3.28020173,8.1502562 3.48605182,8.12747545 C3.6919019,8.10469471 3.8772438,8.25310173 3.90002455,8.45895182 C4.12992557,10.5363707 5.89283531,12.1252 7.9993,12.1252 C10.1075979,12.1252 11.8705771,10.5365571 12.0995574,8.45911548 C12.1194114,8.27898792 12.2637457,8.14278555 12.4374292,8.12675022 Z M7.9996,1.1248 C9.58738467,1.1248 10.8746,2.41237101 10.8746,3.9998 L10.8746,3.9998 L10.8746,7.9998 C10.8746,9.5175765 9.69555247,10.7709073 8.17612738,10.8692877 L8.17612738,10.8692877 L7.9996,10.8748 C6.41217101,10.8748 5.1246,9.58758467 5.1246,7.9998 L5.1246,7.9998 L5.1246,3.9998 C5.1246,2.41269322 6.41249322,1.1248 7.9996,1.1248 Z M7.9996,1.8748 C6.82670678,1.8748 5.8746,2.82690678 5.8746,3.9998 L5.8746,3.9998 L5.8746,7.9998 C5.8746,9.17332472 6.82633819,10.1248 7.98748018,10.1249959 L7.98748018,10.1249959 L8.13972905,10.1202704 C9.25307164,10.0480381 10.1246,9.12160103 10.1246,7.9998 L10.1246,7.9998 L10.1246,3.9998 C10.1246,2.82653819 9.17312472,1.8748 7.9996,1.8748 Z"/>
  </g>
</svg>
