<svg xmlns="http://www.w3.org/2000/svg" width="16" height="16" viewBox="0 0 16 16">
  <g fill="none" fill-rule="evenodd">
    <polygon points="0 16 15.999 16 15.999 0 0 0"/>
    <path fill="#000" fill-rule="nonzero" d="M12.452561,7.75037031 L12.554469,7.75471476 C12.9661892,7.80009546 13.263166,8.17064891 13.2177852,8.58236904 C12.9537921,10.9774683 11.0908452,12.8608984 8.75001847,13.1967811 L8.7496,14.4998 C8.7496,14.9140136 8.41381356,15.2498 7.9996,15.2498 C7.61990423,15.2498 7.30610904,14.9676461 7.25644662,14.6015706 L7.2496,14.4998 L7.24907321,13.1967801 C4.90967459,12.8608923 3.04687051,10.9774518 2.78185091,8.58269637 C2.73628942,8.1709962 3.03310347,7.80031239 3.44480363,7.75475091 C3.8565038,7.70918942 4.22718761,8.00600347 4.27274909,8.41770363 C4.48168218,10.3056532 6.08450106,11.7502 7.9993,11.7502 C9.91591763,11.7502 11.5187314,10.3058842 11.7268148,8.41803096 C11.7684137,8.04062084 12.0832481,7.75962701 12.452561,7.75037031 Z M7.9996,0.7498 C9.79451465,0.7498 11.2496,2.20528742 11.2496,3.9998 L11.2496,3.9998 L11.2496,7.9998 C11.2496,9.71556424 9.91679289,11.1323419 8.1882472,11.2440918 L8.1882472,11.2440918 L7.9996,11.2498 C6.20508742,11.2498 4.7496,9.79471465 4.7496,7.9998 L4.7496,7.9998 L4.7496,3.9998 C4.7496,2.20558644 6.20538644,0.7498 7.9996,0.7498 Z M7.9996,2.2498 C7.03381356,2.2498 6.2496,3.03401356 6.2496,3.9998 L6.2496,3.9998 L6.2496,7.9998 C6.2496,8.96619474 7.03342178,9.7498 7.97536035,9.75019181 L7.97536035,9.75019181 L8.11545054,9.74605715 C9.03183122,9.68660348 9.7496,8.92361329 9.7496,7.9998 L9.7496,7.9998 L9.7496,3.9998 C9.7496,3.03362178 8.96599474,2.2498 7.9996,2.2498 Z"/>
  </g>
</svg>
