<svg xmlns="http://www.w3.org/2000/svg" width="16" height="16" viewBox="0 0 16 16">
  <g fill="none" fill-rule="evenodd">
    <polygon points="0 16 15.999 16 15.999 0 0 0"/>
    <path fill="#000" d="M7.9996,10.4998 L7.9996,10.4998 C6.6196,10.4998 5.4996,9.3808 5.4996,7.9998 L5.4996,3.9998 C5.4996,2.6198 6.6196,1.4998 7.9996,1.4998 C9.3806,1.4998 10.4996,2.6198 10.4996,3.9998 L10.4996,7.9998 C10.4996,9.3808 9.3806,10.4998 7.9996,10.4998" opacity=".2"/>
    <path fill="#000" fill-rule="nonzero" d="M12.4368622,8.00137036 L12.5270794,8.00320984 C12.8015594,8.03346364 12.999544,8.28049927 12.9692902,8.55497936 C12.7099025,10.9082952 10.8291037,12.7431595 8.49997841,12.975365 L8.4996,14.4998 C8.4996,14.7759424 8.27574237,14.9998 7.9996,14.9998 C7.75414011,14.9998 7.54999163,14.8229248 7.50765567,14.5896756 L7.4996,14.4998 L7.49921701,12.9753886 C5.17152269,12.7432798 3.29074568,10.9083158 3.03033394,8.55519758 C2.99995961,8.2807308 3.19783565,8.03360826 3.47230242,8.00323394 C3.7467692,7.97285961 3.99389174,8.17073565 4.02426606,8.44520242 C4.24717777,10.4594649 5.95672389,12.0002 7.9993,12.0002 C10.0437045,12.0002 11.7532952,10.4596661 11.9753098,8.44542064 C12.0022021,8.20143834 12.2003788,8.01789698 12.4368622,8.00137036 Z M7.9996,0.9998 C9.656428,0.9998 10.9996,2.34334314 10.9996,3.9998 L10.9996,3.9998 L10.9996,7.9998 C10.9996,9.58357242 9.76929928,10.8913855 8.18016732,10.9942224 L8.18016732,10.9942224 L7.9996,10.9998 C6.34314314,10.9998 4.9996,9.656628 4.9996,7.9998 L4.9996,7.9998 L4.9996,3.9998 C4.9996,2.34365763 6.34345763,0.9998 7.9996,0.9998 Z M7.9996,1.9998 C6.89574237,1.9998 5.9996,2.89594237 5.9996,3.9998 L5.9996,3.9998 L5.9996,7.9998 C5.9996,9.10428139 6.89536606,9.9998 7.98344024,10.0000612 L7.98344024,10.0000612 L8.13163621,9.99553265 C9.17932483,9.92755987 9.9996,9.05560512 9.9996,7.9998 L9.9996,7.9998 L9.9996,3.9998 C9.9996,2.89556606 9.10408139,1.9998 7.9996,1.9998 Z"/>
  </g>
</svg>
