<svg xmlns="http://www.w3.org/2000/svg" width="16" height="16" viewBox="0 0 16 16">
  <g fill="none" fill-rule="evenodd">
    <polygon points="0 16 15.999 16 15.999 0 0 0"/>
    <path fill="#000" fill-rule="nonzero" d="M12.4996897,8.25170492 C12.6369297,8.26683182 12.735922,8.39034964 12.7207951,8.52758968 C12.466123,10.8381228 10.5655475,12.6228263 8.25004701,12.7436709 L8.2496,14.4998 C8.2496,14.6378712 8.13767119,14.7498 7.9996,14.7498 C7.88125327,14.7498 7.78211318,14.6675666 7.75620268,14.5571227 L7.7496,14.4998 L7.74974415,12.7437228 C5.4354718,12.6233352 3.53452932,10.8383526 3.27881697,8.52769879 C3.26362981,8.3904654 3.36256782,8.26690413 3.49980121,8.25171697 C3.6370346,8.23652981 3.76059587,8.33546782 3.77578303,8.47270121 C4.01267336,10.6132765 5.82894673,12.2502 7.9993,12.2502 C10.1714914,12.2502 11.9878591,10.613448 12.2238049,8.47281032 C12.2389318,8.33557028 12.3624496,8.23657802 12.4996897,8.25170492 Z M7.9996,1.2498 C9.51834135,1.2498 10.7496,2.48139887 10.7496,3.9998 L10.7496,3.9998 L10.7496,7.9998 C10.7496,9.45158059 9.62180567,10.6504291 8.17208743,10.744353 L8.17208743,10.744353 L7.9996,10.7498 C6.48119887,10.7498 5.2496,9.51854135 5.2496,7.9998 L5.2496,7.9998 L5.2496,3.9998 C5.2496,2.48172881 6.48152881,1.2498 7.9996,1.2498 Z M7.9996,1.7498 C6.75767119,1.7498 5.7496,2.75787119 5.7496,3.9998 L5.7496,3.9998 L5.7496,7.9998 C5.7496,9.24236804 6.75731033,10.2498 7.99152012,10.2499306 L7.99152012,10.2499306 L8.14782188,10.2450082 C9.32681844,10.1685163 10.2496,9.18759694 10.2496,7.9998 L10.2496,7.9998 L10.2496,3.9998 C10.2496,2.75751033 9.24216804,1.7498 7.9996,1.7498 Z"/>
  </g>
</svg>
