<svg xmlns="http://www.w3.org/2000/svg" width="16" height="16" viewBox="0 0 16 16">
  <g fill="none" fill-rule="evenodd">
    <polygon points="0 16 15.999 16 15.999 0 0 0"/>
    <path fill="#000" d="M12.4394,8.00110439 L12.5274,8.0029 C12.8014,8.0339 12.9994,8.2809 12.9694,8.5549 C12.7084,10.9199 10.8244,12.7209 8.4994,12.9529 L8.4994,12.9529 L8.4994,14.4999 C8.4994,14.7759 8.2764,14.9999 7.9994,14.9999 C7.7234,14.9999 7.4994,14.7759 7.4994,14.4999 L7.4994,14.4999 L7.4994,12.9529 C5.1754,12.7199 3.2914,10.9199 3.0304,8.5549 C2.9994,8.2809 3.1984,8.0339 3.4724,8.0029 C3.7374,7.9739 3.9934,8.1699 4.0244,8.4449 C4.2484,10.4719 5.9574,11.9999 7.9994,11.9999 C10.0424,11.9999 11.7514,10.4719 11.9754,8.4459 C12.0054,8.1699 12.2614,7.9729 12.5274,8.0029 Z M7.9996,0.9998 C9.6536,0.9998 10.9996,2.3458 10.9996,3.9998 L10.9996,3.9998 L10.9996,7.9998 C10.9996,9.6538 9.6536,10.9998 7.9996,10.9998 C6.3456,10.9998 4.9996,9.6538 4.9996,7.9998 L4.9996,7.9998 L4.9996,3.9998 C4.9996,2.3458 6.3456,0.9998 7.9996,0.9998 Z"/>
  </g>
</svg>
