<svg id="Raw" xmlns="http://www.w3.org/2000/svg" viewBox="0 0 256 256">
  <rect width="256" height="256" fill="none"/>
  <path d="M127.99991,24H128a40,40,0,0,1,40,40v64a40,40,0,0,1-40,40h-.00008A39.99991,39.99991,0,0,1,88,128.00009V63.99991A39.99991,39.99991,0,0,1,127.99991,24Z" opacity="0.2"/>
  <path d="M127.99991,24H128a40,40,0,0,1,40,40v64a40,40,0,0,1-40,40h-.00008A39.99991,39.99991,0,0,1,88,128.00009V63.99991A39.99991,39.99991,0,0,1,127.99991,24Z" fill="none" stroke="#000" stroke-linecap="round" stroke-linejoin="round" stroke-width="16"/>
  <line x1="128" y1="200" x2="128" y2="232" fill="none" stroke="#000" stroke-linecap="round" stroke-linejoin="round" stroke-width="16"/>
  <path d="M199.56055,136.00017a72.00715,72.00715,0,0,1-143.12111-.00011" fill="none" stroke="#000" stroke-linecap="round" stroke-linejoin="round" stroke-width="16"/>
</svg>
