<svg id="Raw" xmlns="http://www.w3.org/2000/svg" viewBox="0 0 256 256">
  <rect width="256" height="256" fill="none"/>
  <g>
    <path d="M136,92h96V56a8.00008,8.00008,0,0,0-8-8H136Z"/>
    <rect x="184" y="108" width="48" height="44"/>
    <rect x="88" y="108" width="80" height="44"/>
    <rect x="24" y="108" width="48" height="44"/>
    <path d="M136,168v40h88a8.00008,8.00008,0,0,0,8-8V168Z"/>
    <path d="M120,92V48H32a8.00008,8.00008,0,0,0-8,8V92Z"/>
    <path d="M120,168H24v32a8.00008,8.00008,0,0,0,8,8h88Z"/>
  </g>
</svg>
