<svg id="Raw" xmlns="http://www.w3.org/2000/svg" viewBox="0 0 256 256">
  <rect width="256" height="256" fill="none"/>
  <path d="M148,48a7.99977,7.99977,0,0,1-8,8H116a8,8,0,0,1,0-16h24A7.99977,7.99977,0,0,1,148,48Zm-8,152H116a8,8,0,0,0,0,16h24a8,8,0,0,0,0-16ZM180,56h20V76a8,8,0,0,0,16,0V56a16.01833,16.01833,0,0,0-16-16H180a8,8,0,0,0,0,16Zm28,51.99951a7.99977,7.99977,0,0,0-8,8v24a8,8,0,0,0,16,0v-24A7.99977,7.99977,0,0,0,208,107.99951Zm-160,40a7.99977,7.99977,0,0,0,8-8v-24a8,8,0,1,0-16,0v24A7.99977,7.99977,0,0,0,48,147.99951ZM76,200H56V180a8,8,0,0,0-16,0v20a16.01833,16.01833,0,0,0,16,16H76a8,8,0,0,0,0-16ZM76,40H56A16.01833,16.01833,0,0,0,40,56V76a8,8,0,0,0,16,0V56H76a8,8,0,0,0,0-16ZM236,200H216V180a8,8,0,0,0-16,0v20H180a8,8,0,0,0,0,16h20v20a8,8,0,0,0,16,0V216h20a8,8,0,0,0,0-16Z"/>
</svg>
