<svg id="Raw" xmlns="http://www.w3.org/2000/svg" viewBox="0 0 256 256">
  <rect width="256" height="256" fill="none"/>
  <path d="M163.93962,80.09586A71.887,71.887,0,0,1,168,103.99219v.00014a71.99986,71.99986,0,0,1-71.99986,71.99986H92.098v.003a72.0298,72.0298,0,0,0,67.9019,47.997H226a6,6,0,0,0,6-6V151.992a72.00294,72.00294,0,0,0-68.06587-71.8942Z" opacity="0.2"/>
  <path d="M96.00014,175.99219H30a6,6,0,0,1-6-6V103.992A71.99985,71.99985,0,0,1,95.99986,31.99219H96a72,72,0,0,1,72,72v.00014A71.99986,71.99986,0,0,1,96.00014,175.99219Z" fill="none" stroke="#000" stroke-linecap="round" stroke-linejoin="round" stroke-width="16"/>
  <path d="M92.098,175.99521a72.0298,72.0298,0,0,0,67.9019,47.997H226a6,6,0,0,0,6-6V151.992a72.00294,72.00294,0,0,0-68.06587-71.8942" fill="none" stroke="#000" stroke-linecap="round" stroke-linejoin="round" stroke-width="16"/>
</svg>
