<svg id="Layer_1" data-name="Layer 1" xmlns="http://www.w3.org/2000/svg" viewBox="0 0 256 256">
  <rect x="0.00049" width="255.99951" height="256" fill="none"/>
  <path d="M207.99951,32h-160a16.01833,16.01833,0,0,0-16,16v58.667c0,89.45313,75.82617,119.124,91.02637,124.16406a15.48781,15.48781,0,0,0,9.94726,0c15.2002-5.04,91.02637-34.71093,91.02637-124.16406V48A16.01833,16.01833,0,0,0,207.99951,32Zm-88,56a8,8,0,1,1,16,0v40a8,8,0,0,1-16,0Zm8,88a12,12,0,1,1,12-12A12,12,0,0,1,127.99951,176Z"/>
</svg>
