<svg id="Layer_1" data-name="Layer 1" xmlns="http://www.w3.org/2000/svg" viewBox="0 0 256 256">
  <rect width="256" height="256" fill="none"/>
  <path d="M223.63476,114.18213l-167.7832-96.04a15.98949,15.98949,0,0,0-16.123.0459,15.66312,15.66312,0,0,0-7.915,13.66846v192.2871a15.66312,15.66312,0,0,0,7.915,13.66846,15.98874,15.98874,0,0,0,16.12305.0459l167.7832-96.04a15.76194,15.76194,0,0,0,0-27.63574ZM144,139.31348l18.85644,18.85644L74.666,208.64746ZM74.65478,47.34082,162.85742,97.8291,144,116.68652ZM177.24707,149.93359,155.31348,128l21.93457-21.93408L215.56738,128Z"/>
</svg>
