<svg id="Raw" xmlns="http://www.w3.org/2000/svg" viewBox="0 0 256 256">
  <rect width="256" height="256" fill="none"/>
  <g>
    <circle cx="128" cy="128" r="12"/>
    <path d="M184.56836,128l27.71582-27.71558a40,40,0,1,0-56.56836-56.5686L128,71.43164,100.28418,43.71582a39.99987,39.99987,0,1,0-56.56836,56.56836L71.43164,128,43.71582,155.71558a40,40,0,1,0,56.56836,56.5686L128,184.56836l27.71582,27.71582a39.99987,39.99987,0,1,0,56.56836-56.56836ZM128,94.05957,161.94043,128,128,161.94043,94.05957,128ZM167.03027,55.0293a23.99951,23.99951,0,1,1,33.93946,33.9414L173.25439,116.686,139.314,82.74561ZM88.96973,200.9707a23.99951,23.99951,0,1,1-33.93946-33.9414L82.74561,139.314,116.686,173.25439Z"/>
  </g>
</svg>
