<svg id="Raw" xmlns="http://www.w3.org/2000/svg" viewBox="0 0 256 256">
  <rect width="256" height="256" fill="none"/>
  <path d="M206.62744,94.62744a32,32,0,0,0-45.25488-45.25488L128,82.74512,173.25488,128Z" opacity="0.2"/>
  <path d="M49.37256,161.37256a32,32,0,0,0,45.25488,45.25488L128,173.25488,82.74512,128Z" opacity="0.2"/>
  <path d="M94.62744,49.37256A32,32,0,0,0,49.37256,94.62744L82.74512,128,128,82.74512Z" opacity="0.2"/>
  <path d="M173.25488,128,128,173.25488l33.37256,33.37256a32,32,0,0,0,45.25488-45.25488Z" opacity="0.2"/>
  <circle cx="128" cy="128" r="12"/>
  <path d="M49.37258,94.62742A32,32,0,0,1,94.62742,49.37258l112,112a32,32,0,0,1-45.25484,45.25484Z" fill="none" stroke="#000" stroke-linecap="round" stroke-linejoin="round" stroke-width="16"/>
  <path d="M161.37258,49.37258a32,32,0,0,1,45.25484,45.25484l-112,112a32,32,0,0,1-45.25484-45.25484Z" fill="none" stroke="#000" stroke-linecap="round" stroke-linejoin="round" stroke-width="16"/>
</svg>
