<svg id="Layer_1" data-name="Layer 1" xmlns="http://www.w3.org/2000/svg" viewBox="0 0 256 256">
  <circle cx="128" cy="128" r="12"/>
  <path d="M100.28418,43.71582a39.99987,39.99987,0,1,0-56.56836,56.56836l112,112a39.99987,39.99987,0,1,0,56.56836-56.56836Zm22.05859,44.68652,45.25489,45.25513-33.94043,33.94019L88.40234,122.34277Z"/>
  <path d="M65.77539,144.9707a8.00032,8.00032,0,0,0-11.31445,0L43.71582,155.71558a39.99978,39.99978,0,1,0,56.56738,56.56909l10.7461-10.74512a8,8,0,0,0,.001-11.314Z"/>
  <path d="M190.22461,111.02954a8.00091,8.00091,0,0,0,11.31445-.00024l10.74512-10.74488A39.99969,39.99969,0,1,0,155.7168,43.71558L144.9707,54.46094a8,8,0,0,0-.001,11.314Z"/>
</svg>
