<svg id="Layer_1" data-name="Layer 1" xmlns="http://www.w3.org/2000/svg" viewBox="0 0 256 256">
  <rect width="256" height="256" fill="none"/>
  <g>
    <path d="M155.50977,24.80957a7.993,7.993,0,0,0-8.42188.875L77.24414,79.99707h-45.25a16.01583,16.01583,0,0,0-16,16v64a16.01583,16.01583,0,0,0,16,16h45.25l69.84375,54.3125a7.99451,7.99451,0,0,0,12.90625-6.3125v-192A7.99374,7.99374,0,0,0,155.50977,24.80957Z"/>
    <path d="M191.99414,96a8.00039,8.00039,0,0,0-8,8v48a8,8,0,0,0,16,0V104A8.00039,8.00039,0,0,0,191.99414,96Z"/>
    <path d="M223.99414,80a8.00039,8.00039,0,0,0-8,8v80a8,8,0,0,0,16,0V88A8.00039,8.00039,0,0,0,223.99414,80Z"/>
  </g>
</svg>
