<svg id="Layer_1" data-name="Layer 1" xmlns="http://www.w3.org/2000/svg" viewBox="0 0 256 256">
  <rect width="256" height="256" fill="none"/>
  <path d="M207.99414,88h-160a8,8,0,0,0-8,8V208a8,8,0,0,0,8,8h160a8,8,0,0,0,8-8V96A8,8,0,0,0,207.99414,88Zm-80,72a20,20,0,1,1,20-20A20.00006,20.00006,0,0,1,127.99414,160Z" opacity="0.2"/>
  <circle cx="127.99414" cy="140" r="20" fill="none" stroke="#000" stroke-linecap="round" stroke-linejoin="round" stroke-width="16"/>
  <line x1="127.99414" y1="160" x2="127.99414" y2="184" fill="none" stroke="#000" stroke-linecap="round" stroke-linejoin="round" stroke-width="16"/>
  <rect x="39.99414" y="88" width="176" height="128" rx="8" stroke-width="16" stroke="#000" stroke-linecap="round" stroke-linejoin="round" fill="none"/>
  <path d="M91.99414,88V52a36,36,0,1,1,72,0" fill="none" stroke="#000" stroke-linecap="round" stroke-linejoin="round" stroke-width="16"/>
</svg>
