<svg xmlns="http://www.w3.org/2000/svg" width="16" height="16" viewBox="0 0 16 16">
  <g fill="none" fill-rule="evenodd">
    <polygon points="0 16 15.999 16 15.999 0 0 0"/>
    <polygon fill="#000" points="9.5 2 9.5 5.5 13.001 5.5" opacity=".2"/>
    <path fill="#000" fill-rule="nonzero" d="M9.4996,1.4998 C9.52856443,1.4998 9.55726975,1.50231317 9.58542442,1.50721875 L9.4996,1.4998 C9.53677995,1.4998 9.57301209,1.50385811 9.60787763,1.51155555 C9.62735202,1.51597529 9.64669994,1.52150605 9.66563209,1.52817132 C9.67637972,1.5318035 9.68718225,1.53603305 9.69779437,1.54061971 C9.71182744,1.54682228 9.72545435,1.55345924 9.7387668,1.56070986 C9.75096271,1.56725005 9.76307123,1.57453542 9.77483219,1.58230443 C9.80280797,1.60081089 9.82908156,1.62217478 9.85315339,1.64624661 L9.80465204,1.60360833 C9.81721754,1.61329761 9.82930924,1.62357131 9.84088643,1.63438875 L9.85315339,1.64624661 L13.3531534,5.14624661 C13.3553413,5.14843453 13.3575069,5.15064065 13.3596499,5.15286459 C13.3748159,5.16751791 13.388544,5.18363382 13.401222,5.20058091 C13.4036866,5.20527605 13.4067909,5.20958315 13.4098234,5.21393489 C13.422643,5.23075088 13.4336861,5.24885848 13.4435657,5.26767276 C13.4454513,5.27340077 13.4482603,5.27902009 13.4509618,5.28468899 C13.4606778,5.30265701 13.4683055,5.32145899 13.4747845,5.34078779 C13.4760049,5.34784007 13.478165,5.3547853 13.4801737,5.36177847 C13.4857612,5.37727596 13.4895559,5.39345972 13.4925443,5.40992437 L13.5006,5.4998 L13.4996,5.5098 L13.4996,13.4998 C13.4996,14.0125036 13.113437,14.4352883 12.6161948,14.4930702 L12.4996,14.4998 L3.4996,14.4998 C2.94745763,14.4998 2.4996,14.0519424 2.4996,13.4998 L2.4996,13.4998 L2.4996,2.4998 C2.4996,1.94765763 2.94745763,1.4998 3.4996,1.4998 L3.4996,1.4998 Z M8.9996,2.4988 L3.4996,2.4998 L3.4996,13.4998 L12.4996,13.4998 L12.4986,5.9998 L9.4996,5.9998 C9.25414011,5.9998 9.04999163,5.82292484 9.00765567,5.58967563 L8.9996,5.4998 L8.9996,2.4988 Z M9.9996,9.9998 C10.2757424,9.9998 10.4996,10.2236576 10.4996,10.4998 C10.4996,10.7452599 10.3227248,10.9494084 10.0894756,10.9917443 L9.9996,10.9998 L5.9996,10.9998 C5.72345763,10.9998 5.4996,10.7759424 5.4996,10.4998 C5.4996,10.2543401 5.67647516,10.0501916 5.90972437,10.0078557 L5.9996,9.9998 L9.9996,9.9998 Z M9.9996,7.9998 C10.2757424,7.9998 10.4996,8.22365763 10.4996,8.4998 C10.4996,8.74525989 10.3227248,8.94940837 10.0894756,8.99174433 L9.9996,8.9998 L5.9996,8.9998 C5.72345763,8.9998 5.4996,8.77594237 5.4996,8.4998 C5.4996,8.25434011 5.67647516,8.05019163 5.90972437,8.00785567 L5.9996,7.9998 L9.9996,7.9998 Z M9.9996,3.2068 L9.999,4.999 L11.7926,4.9998 L9.9996,3.2068 Z"/>
  </g>
</svg>
