<svg xmlns="http://www.w3.org/2000/svg" width="16" height="16" viewBox="0 0 16 16">
  <g fill="none" fill-rule="evenodd">
    <polygon points="0 16 15.999 16 15.999 0 0 0"/>
    <path fill="#000" fill-rule="nonzero" d="M9.4996,1.7498 C9.56782341,1.7498 9.6296641,1.77712767 9.6747728,1.82143374 L9.6763767,1.8230233 L13.1763767,5.3230233 C13.2115522,5.35863586 13.2336331,5.39829974 13.2439973,5.44247729 L13.2496,5.4998 L13.2496,13.4998 C13.2496,13.9138712 12.9136712,14.2498 12.4996,14.2498 L12.4996,14.2498 L3.4996,14.2498 C3.08552881,14.2498 2.7496,13.9138712 2.7496,13.4998 L2.7496,13.4998 L2.7496,2.4998 C2.7496,2.08572881 3.08552881,1.7498 3.4996,1.7498 L3.4996,1.7498 L9.4996,1.7498 Z M9.2486,2.2488 L3.4996,2.2498 C3.36167119,2.2498 3.2496,2.36187119 3.2496,2.4998 L3.2496,2.4998 L3.2496,13.4998 C3.2496,13.6377288 3.36167119,13.7498 3.4996,13.7498 L3.4996,13.7498 L12.4996,13.7498 C12.6375288,13.7498 12.7496,13.6377288 12.7496,13.4998 L12.7496,13.4998 L12.7486,5.7498 L9.4996,5.7498 C9.38125327,5.7498 9.28211318,5.66756659 9.25620268,5.55712271 L9.2496,5.4998 L9.2486,2.2488 Z M9.9996,10.2498 C10.1376712,10.2498 10.2496,10.3617288 10.2496,10.4998 C10.2496,10.6181467 10.1673666,10.7172868 10.0569227,10.7431973 L9.9996,10.7498 L5.9996,10.7498 C5.86152881,10.7498 5.7496,10.6378712 5.7496,10.4998 C5.7496,10.3814533 5.83183341,10.2823132 5.94227729,10.2564027 L5.9996,10.2498 L9.9996,10.2498 Z M9.9996,8.2498 C10.1376712,8.2498 10.2496,8.36172881 10.2496,8.4998 C10.2496,8.61814673 10.1673666,8.71728682 10.0569227,8.74319732 L9.9996,8.7498 L5.9996,8.7498 C5.86152881,8.7498 5.7496,8.63787119 5.7496,8.4998 C5.7496,8.38145327 5.83183341,8.28231318 5.94227729,8.25640268 L5.9996,8.2498 L9.9996,8.2498 Z M9.7486,2.6028 L9.749,5.249 L12.3956,5.2498 L9.7486,2.6028 Z"/>
  </g>
</svg>
