<svg xmlns="http://www.w3.org/2000/svg" width="16" height="16" viewBox="0 0 16 16">
  <g fill="none" fill-rule="evenodd">
    <polygon points="0 16 15.999 16 15.999 0 0 0"/>
    <path fill="#000" fill-rule="nonzero" d="M9.4996,1.2498 C9.53869669,1.2498 9.57709467,1.25279154 9.61457752,1.2585582 C9.61977289,1.25946144 9.62584327,1.26047244 9.63189639,1.26155721 C9.66231757,1.26688067 9.69129447,1.27391383 9.71956103,1.28257213 C9.73048016,1.28611883 9.74191343,1.28991974 9.75324558,1.29399239 C9.77689118,1.3022991 9.79928929,1.31164444 9.82110744,1.32201224 C9.83284111,1.32775576 9.8452145,1.33403379 9.85741252,1.34065495 C9.8766988,1.35099841 9.89507998,1.36206424 9.91292666,1.37387291 C9.9546319,1.40149523 9.9939231,1.43346293 10.0299301,1.46946991 L9.94929892,1.39951904 C9.97532689,1.41904906 10.0000431,1.44023239 10.0232918,1.46291317 L10.0299301,1.46946991 L13.5233368,4.9619832 C13.5525513,4.99038359 13.5794597,5.02114377 13.6037543,5.05395605 C13.6072513,5.06012078 13.6114946,5.06604565 13.6156475,5.07202648 C13.6341546,5.09704083 13.6503815,5.12370101 13.664929,5.15138175 C13.6670305,5.15763965 13.6697409,5.16297954 13.6723866,5.16835012 C13.7083351,5.23850554 13.7326481,5.31616929 13.7437534,5.39802944 L13.7506,5.4998 L13.7496,5.5138 L13.7496,13.4998 C13.7496,14.1468752 13.2576002,14.6793172 12.6273818,14.7433448 L12.4996,14.7498 L3.4996,14.7498 C2.80938644,14.7498 2.2496,14.1900136 2.2496,13.4998 L2.2496,13.4998 L2.2496,2.4998 C2.2496,1.80958644 2.80938644,1.2498 3.4996,1.2498 L3.4996,1.2498 L9.4996,1.2498 L9.4996,1.2498 Z M8.7496,2.7488 L3.749,2.749 L3.749,13.249 L12.249,13.249 L12.2486,6.2498 L9.4996,6.2498 C9.11990423,6.2498 8.80610904,5.96764612 8.75644662,5.60157056 L8.7496,5.4998 L8.7496,2.7488 Z M9.9996,9.7498 C10.4138136,9.7498 10.7496,10.0855864 10.7496,10.4998 C10.7496,10.8794958 10.4674461,11.193291 10.1013706,11.2429534 L9.9996,11.2498 L5.9996,11.2498 C5.58538644,11.2498 5.2496,10.9140136 5.2496,10.4998 C5.2496,10.1201042 5.53175388,9.80630904 5.89782944,9.75664662 L5.9996,9.7498 L9.9996,9.7498 Z M9.9996,7.7498 C10.4138136,7.7498 10.7496,8.08558644 10.7496,8.4998 C10.7496,8.87949577 10.4674461,9.19329096 10.1013706,9.24295338 L9.9996,9.2498 L5.9996,9.2498 C5.58538644,9.2498 5.2496,8.91401356 5.2496,8.4998 C5.2496,8.12010423 5.53175388,7.80630904 5.89782944,7.75664662 L5.9996,7.7498 L9.9996,7.7498 Z M10.2486,3.8098 L10.249,4.749 L11.1876,4.7488 L10.2486,3.8098 Z"/>
  </g>
</svg>
