<svg xmlns="http://www.w3.org/2000/svg" width="16" height="16" viewBox="0 0 16 16">
  <g fill="none" fill-rule="evenodd">
    <polygon points="0 16 15.999 16 15.999 0 0 0"/>
    <path fill="#000" fill-rule="nonzero" d="M9.4996,1.6248 C9.50777448,1.6248 9.51592144,1.6250669 9.52402924,1.62559588 L9.4996,1.6248 C9.54102136,1.6248 9.58087417,1.63151573 9.618129,1.64391775 C9.67257146,1.66207991 9.72307169,1.6929416 9.76476504,1.73463496 L9.76476504,1.73463496 L13.2611822,5.23012953 C13.3144796,5.28164175 13.3525493,5.34881002 13.3679813,5.42422442 L13.3736,5.4938 L13.3746,5.4998 L13.3746,13.4998 C13.3746,13.9829068 12.9827068,14.3748 12.4996,14.3748 L12.4996,14.3748 L3.4996,14.3748 C3.01649322,14.3748 2.6246,13.9829068 2.6246,13.4998 L2.6246,13.4998 L2.6246,2.4998 C2.6246,2.01669322 3.01649322,1.6248 3.4996,1.6248 L3.4996,1.6248 Z M9.1236,2.3738 L3.4996,2.3748 C3.43070678,2.3748 3.3746,2.43090678 3.3746,2.4998 L3.3746,2.4998 L3.3746,13.4998 C3.3746,13.5686932 3.43070678,13.6248 3.4996,13.6248 L3.4996,13.6248 L12.4996,13.6248 C12.5684932,13.6248 12.6246,13.5686932 12.6246,13.4998 L12.6246,13.4998 L12.6236,5.8748 L9.4996,5.8748 C9.31838157,5.8748 9.16718602,5.74625675 9.13221867,5.57537558 L9.1246,5.4998 L9.1236,2.3738 Z M9.9996,10.1248 C10.2067068,10.1248 10.3746,10.2926932 10.3746,10.4998 C10.3746,10.6810184 10.2460568,10.832214 10.0751756,10.8671813 L9.9996,10.8748 L5.9996,10.8748 C5.79249322,10.8748 5.6246,10.7069068 5.6246,10.4998 C5.6246,10.3185816 5.75314325,10.167386 5.92402442,10.1324187 L5.9996,10.1248 L9.9996,10.1248 Z M9.9996,8.1248 C10.2067068,8.1248 10.3746,8.29269322 10.3746,8.4998 C10.3746,8.68101843 10.2460568,8.83221398 10.0751756,8.86718133 L9.9996,8.8748 L5.9996,8.8748 C5.79249322,8.8748 5.6246,8.70690678 5.6246,8.4998 C5.6246,8.31858157 5.75314325,8.16738602 5.92402442,8.13241867 L5.9996,8.1248 L9.9996,8.1248 Z M9.8736,2.9038 L9.874,5.124 L12.0946,5.1248 L9.8736,2.9038 Z"/>
  </g>
</svg>
