<svg xmlns="http://www.w3.org/2000/svg" width="16" height="16" viewBox="0 0 16 16">
  <g fill="none" fill-rule="evenodd">
    <polygon points="0 16 15.999 16 15.999 0 0 0"/>
    <path fill="#000" d="M8.9996,1.4998 L8.9996,5.4998 C8.9996,5.7758 9.2236,5.9998 9.4996,5.9998 L9.4996,5.9998 L13.4996,5.9998 L13.4996,13.4998 C13.4996,14.0508 13.0516,14.4998 12.4996,14.4998 L12.4996,14.4998 L3.4996,14.4998 C2.9476,14.4998 2.4996,14.0508 2.4996,13.4998 L2.4996,13.4998 L2.4996,2.4998 C2.4996,1.9488 2.9476,1.4998 3.4996,1.4998 L3.4996,1.4998 L8.9996,1.4998 Z M9.9996,9.9998 L5.9996,9.9998 C5.7236,9.9998 5.4996,10.2238 5.4996,10.4998 C5.4996,10.7758 5.7236,10.9998 5.9996,10.9998 L5.9996,10.9998 L9.9996,10.9998 C10.2756,10.9998 10.4996,10.7758 10.4996,10.4998 C10.4996,10.2238 10.2756,9.9998 9.9996,9.9998 L9.9996,9.9998 Z M9.9996,7.9998 L5.9996,7.9998 C5.7236,7.9998 5.4996,8.2238 5.4996,8.4998 C5.4996,8.7758 5.7236,8.9998 5.9996,8.9998 L5.9996,8.9998 L9.9996,8.9998 C10.2756,8.9998 10.4996,8.7758 10.4996,8.4998 C10.4996,8.2238 10.2756,7.9998 9.9996,7.9998 L9.9996,7.9998 Z M9.9996,1.7928 L13.2066,4.9998 L9.9996,4.9998 L9.9996,1.7928 Z"/>
  </g>
</svg>
