<svg id="Layer_1" data-name="Layer 1" xmlns="http://www.w3.org/2000/svg" viewBox="0 0 256 256">
  <g>
    <path d="M204,175.99121c-18.28711,0-28.52441-8.00488-33.8916-14.7207a39.57375,39.57375,0,0,1-3.37793-4.96948A48.00646,48.00646,0,1,1,160,92.2522v-4.261a8,8,0,0,1,16,0v40c0,14.59863,4.85742,32,28,32,22.3457,0,27.64258-16.22314,27.98047-30.4823.00732-.50574.01953-1.01037.01953-1.5177a104.02588,104.02588,0,1,0-10.21875,44.9364A49.2519,49.2519,0,0,1,204,175.99121Z"/>
    <circle cx="128" cy="127.99121" r="32"/>
  </g>
</svg>
