<svg xmlns="http://www.w3.org/2000/svg" width="16" height="16" viewBox="0 0 16 16">
  <g fill="none" fill-rule="evenodd">
    <polygon points="0 16 15.999 16 15.999 0 0 0"/>
    <path fill="#000" d="M12.9996,7.4998 L2.9996,7.4998 L2.9996,9.4998 C2.9996,12.2618 5.2386,14.4998 7.9996,14.4998 C10.7616,14.4998 12.9996,12.2618 12.9996,9.4998 L12.9996,7.4998 Z" opacity=".2"/>
    <path fill="#000" d="M12.8704987,1.16448796 C13.03511,1.34656946 13.0408114,1.616623 12.8961792,1.80445025 L12.834912,1.87069868 L11.948176,2.67106236 C12.9084852,3.66125024 13.4996,5.01150961 13.4996,6.4998 L13.4996,6.4998 L13.4996,9.4998 C13.4996,12.5379424 11.0377424,14.9998 7.9996,14.9998 C4.96212769,14.9998 2.4996,12.5376125 2.4996,9.4998 L2.4996,9.4998 L2.4996,6.4998 C2.4996,5.01167127 3.09087567,3.66141514 4.05127011,2.67118852 L3.16428796,1.87069868 C2.95944627,1.68551096 2.94351359,1.36932964 3.12870132,1.16448796 C3.29331263,0.982406457 3.56142505,0.949586394 3.76284021,1.07460423 L3.83491204,1.12890132 L4.81549129,2.014932 C5.71412563,1.37571711 6.81303497,0.9998 7.9996,0.9998 C9.18642683,0.9998 10.2853934,1.37566675 11.1840003,2.01483994 L12.164288,1.12890132 C12.3691296,0.943713588 12.685311,0.95964627 12.8704987,1.16448796 Z M12.4996,7.99979605 L3.4996,7.99979605 L3.4996,9.4998 C3.4996,11.9142826 5.40089586,13.884301 7.78776938,13.9949025 L7.9996,13.9998 C10.4854576,13.9998 12.4996,11.9856576 12.4996,9.4998 L12.4996,9.4998 L12.4996,7.99979605 Z M7.9996,1.9998 C5.51474237,1.9998 3.4996,4.01494237 3.4996,6.4998 L3.4996,6.4998 L3.4996,6.99979605 L12.4996,6.99979605 L12.4996,6.4998 C12.4996,4.08558776 10.5985668,2.1153144 8.21145313,2.00469814 Z M6.2496,4.4998 C6.6646,4.4998 6.9996,4.8358 6.9996,5.2498 C6.9996,5.6648 6.6646,5.9998 6.2496,5.9998 C5.8356,5.9998 5.4996,5.6648 5.4996,5.2498 C5.4996,4.8358 5.8356,4.4998 6.2496,4.4998 Z M9.7496,4.4998 C10.1646,4.4998 10.4996,4.8358 10.4996,5.2498 C10.4996,5.6648 10.1646,5.9998 9.7496,5.9998 C9.3356,5.9998 8.9996,5.6648 8.9996,5.2498 C8.9996,4.8358 9.3356,4.4998 9.7496,4.4998 Z"/>
  </g>
</svg>
