<svg xmlns="http://www.w3.org/2000/svg" width="16" height="16" viewBox="0 0 16 16">
  <g fill="none" fill-rule="evenodd">
    <polygon points="0 16 16 16 16 0 0 0"/>
    <path fill="#000" fill-rule="nonzero" d="M8,1.75 C11.4510712,1.75 14.25,4.54892881 14.25,8 C14.25,11.4510712 11.4510712,14.25 8,14.25 C4.54892881,14.25 1.75,11.4510712 1.75,8 C1.75,4.54892881 4.54892881,1.75 8,1.75 Z M8,2.25 C4.82507119,2.25 2.25,4.82507119 2.25,8 C2.25,11.1749288 4.82507119,13.75 8,13.75 C11.1749288,13.75 13.75,11.1749288 13.75,8 C13.75,4.82507119 11.1749288,2.25 8,2.25 Z M6.8817,5.78 C6.9637,5.735 7.0617,5.741 7.1387,5.792 L7.1387,5.792 L10.1387,7.792 C10.2077,7.838 10.2497,7.917 10.2497,8 C10.2497,8.084 10.2077,8.162 10.1387,8.208 L10.1387,8.208 L7.1387,10.208 C7.0967,10.236 7.0487,10.25 6.9997,10.25 C6.9597,10.25 6.9187,10.24 6.8817,10.22 C6.8007,10.177 6.7497,10.092 6.7497,10 L6.7497,10 L6.7497,6 C6.7497,5.908 6.8007,5.823 6.8817,5.78 Z"/>
  </g>
</svg>
