<svg xmlns="http://www.w3.org/2000/svg" width="16" height="16" viewBox="0 0 16 16">
  <g fill="none" fill-rule="evenodd">
    <polygon points="0 16 16 16 16 0 0 0"/>
    <path fill="#000" fill-rule="nonzero" d="M8,1.25 C11.7272136,1.25 14.75,4.27278644 14.75,8 C14.75,11.7272136 11.7272136,14.75 8,14.75 C4.27278644,14.75 1.25,11.7272136 1.25,8 C1.25,4.27278644 4.27278644,1.25 8,1.25 Z M8,2.75 C5.10121356,2.75 2.75,5.10121356 2.75,8 C2.75,10.8987864 5.10121356,13.25 8,13.25 C10.8987864,13.25 13.25,10.8987864 13.25,8 C13.25,5.10121356 10.8987864,2.75 8,2.75 Z M6.646,5.339 C6.89,5.209 7.185,5.223 7.416,5.376 L7.416,5.376 L10.416,7.376 C10.625,7.515 10.75,7.749 10.75,8 C10.75,8.251 10.625,8.485 10.416,8.624 L10.416,8.624 L7.416,10.624 C7.291,10.708 7.145,10.75 7,10.75 C6.879,10.75 6.757,10.721 6.646,10.661 C6.402,10.531 6.25,10.276 6.25,10 L6.25,10 L6.25,6 C6.25,5.724 6.402,5.469 6.646,5.339 Z"/>
  </g>
</svg>
