<svg xmlns="http://www.w3.org/2000/svg" width="16" height="16" viewBox="0 0 16 16">
  <g fill="none" fill-rule="evenodd">
    <polygon points="0 16 16 16 16 0 0 0"/>
    <path fill="#000" d="M10.2773,8.416 L7.2773,10.416 C7.1933,10.472 7.0963,10.5 7.0003,10.5 C6.9193,10.5 6.8383,10.48 6.7633,10.441 C6.6013,10.354 6.5003,10.185 6.5003,10 L6.5003,6 C6.5003,5.815 6.6013,5.646 6.7633,5.559 C6.9253,5.472 7.1233,5.482 7.2773,5.584 L10.2773,7.584 C10.4163,7.677 10.5003,7.833 10.5003,8 C10.5003,8.167 10.4163,8.323 10.2773,8.416 M8.0003,1.5 C4.4163,1.5 1.5003,4.416 1.5003,8 C1.5003,11.584 4.4163,14.5 8.0003,14.5 C11.5843,14.5 14.5003,11.584 14.5003,8 C14.5003,4.416 11.5843,1.5 8.0003,1.5"/>
  </g>
</svg>
