<svg xmlns="http://www.w3.org/2000/svg" width="16" height="16" viewBox="0 0 16 16">
  <g fill="none" fill-rule="evenodd">
    <polygon points="0 16 16 16 16 0 0 0"/>
    <path fill="#000" d="M8,14 C4.687,14 2,11.313 2,8 C2,4.687 4.687,2 8,2 C11.313,2 14,4.687 14,8 C14,11.313 11.313,14 8,14" opacity=".2"/>
    <path fill="#000" fill-rule="nonzero" d="M8,1.5 C11.5891424,1.5 14.5,4.41085763 14.5,8 C14.5,11.5891424 11.5891424,14.5 8,14.5 C4.41085763,14.5 1.5,11.5891424 1.5,8 C1.5,4.41085763 4.41085763,1.5 8,1.5 Z M8,2.5 C4.96314237,2.5 2.5,4.96314237 2.5,8 C2.5,11.0368576 4.96314237,13.5 8,13.5 C11.0368576,13.5 13.5,11.0368576 13.5,8 C13.5,4.96314237 11.0368576,2.5 8,2.5 Z M6.5,6 C6.5,5.60065231 6.94507273,5.36245661 7.2773501,5.58397485 L7.2773501,5.58397485 L10.2773501,7.58397485 C10.5742166,7.78188588 10.5742166,8.21811412 10.2773501,8.41602515 L10.2773501,8.41602515 L7.2773501,10.4160251 C6.94507273,10.6375434 6.5,10.3993477 6.5,10 L6.5,10 Z"/>
  </g>
</svg>
