<svg xmlns="http://www.w3.org/2000/svg" width="16" height="16" viewBox="0 0 16 16">
  <g fill="none" fill-rule="evenodd">
    <polygon points="0 16 16 16 16 0 0 0"/>
    <path fill="#000" fill-rule="nonzero" d="M8,1.625 C11.5201068,1.625 14.375,4.47989322 14.375,8 C14.375,11.5201068 11.5201068,14.375 8,14.375 C4.47989322,14.375 1.625,11.5201068 1.625,8 C1.625,4.47989322 4.47989322,1.625 8,1.625 Z M8,2.375 C4.89410678,2.375 2.375,4.89410678 2.375,8 C2.375,11.1058932 4.89410678,13.625 8,13.625 C11.1058932,13.625 13.625,11.1058932 13.625,8 C13.625,4.89410678 11.1058932,2.375 8,2.375 Z M6.823,5.669 C6.945,5.604 7.094,5.61 7.208,5.688 L7.208,5.688 L10.208,7.688 C10.312,7.757 10.375,7.875 10.375,8 C10.375,8.125 10.312,8.243 10.208,8.312 L10.208,8.312 L7.208,10.312 C7.145,10.354 7.072,10.375 7,10.375 C6.939,10.375 6.879,10.36 6.823,10.331 C6.701,10.265 6.625,10.138 6.625,10 L6.625,10 L6.625,6 C6.625,5.862 6.701,5.735 6.823,5.669 Z"/>
  </g>
</svg>
