<svg id="Raw" xmlns="http://www.w3.org/2000/svg" viewBox="0 0 256 256">
  <rect width="256" height="256" fill="none"/>
  <path d="M50.34326,117.65283a7.99983,7.99983,0,0,1,11.31348-11.31347L120,164.68262V31.99609a8,8,0,0,1,16,0V164.68262l58.34326-58.34326a7.99983,7.99983,0,0,1,11.31348,11.31347l-71.99658,71.99683c-.188.188-.38575.366-.59131.53442-.08545.07031-.17578.13111-.26367.19727-.12061.09082-.23926.18432-.36524.26855-.10937.073-.22265.13623-.335.20337-.11133.0669-.2207.137-.33545.19849-.11621.062-.23584.11474-.35449.17065-.11817.05591-.23389.1145-.355.1648-.11524.0476-.23291.08593-.3501.12817-.12939.04663-.25684.096-.38916.136-.11768.03564-.23682.06152-.35547.09155-.13379.03369-.26611.071-.40283.09814-.13916.02759-.27979.04419-.41992.06421-.11817.01685-.23389.03931-.353.051-.26269.02588-.52588.03979-.78955.03979s-.52686-.01391-.78955-.03979c-.11914-.01172-.23486-.03418-.353-.051-.14013-.02-.28076-.03662-.41992-.06421-.13672-.0271-.269-.06445-.40283-.09814-.11865-.03-.2378-.05591-.35547-.09155-.13233-.04-.25977-.08936-.38916-.136-.11719-.04224-.23486-.08057-.3501-.12817-.12109-.0503-.23682-.10889-.355-.1648-.11865-.05591-.23828-.10864-.35449-.17065-.11475-.06153-.22412-.13159-.33545-.19849-.11231-.06714-.22559-.13037-.335-.20337-.126-.08423-.24463-.17773-.36524-.26855-.08789-.06616-.17822-.127-.26367-.19727q-.30834-.25269-.59033-.53369ZM216,207.99609H40a8,8,0,0,0,0,16H216a8,8,0,0,0,0-16Z"/>
</svg>
