<svg id="Layer_1" data-name="Layer 1" xmlns="http://www.w3.org/2000/svg" viewBox="0 0 256 256">
  <rect width="256" height="256" fill="none"/>
  <path d="M187.99268,104a36.04766,36.04766,0,0,0-35.77247,32h-21.748a39.89636,39.89636,0,0,1-30.72949-14.39258L82.51123,100.93005a35.99422,35.99422,0,1,0-22.52148,2.16285v49.8142a36,36,0,1,0,16,0V118.09668l11.46191,13.75293A55.84986,55.84986,0,0,0,130.47217,152h23.585a35.99769,35.99769,0,1,0,33.93555-48ZM87.98975,188a20,20,0,1,1-20-20A20.02229,20.02229,0,0,1,87.98975,188Zm100.00293-28a20,20,0,1,1,20-20A20.02229,20.02229,0,0,1,187.99268,160Z"/>
</svg>
