<svg id="Raw" xmlns="http://www.w3.org/2000/svg" viewBox="0 0 256.00098 256.00098">
  <rect width="256" height="256" fill="none"/>
  <path d="M216.001,40h-176a16.01833,16.01833,0,0,0-16,16V183.999a16.01833,16.01833,0,0,0,16,16L99.4707,200l14.81055,24.68262a16.00023,16.00023,0,0,0,27.43945,0L156.53027,200H216a16.01854,16.01854,0,0,0,16.001-16V56A16.01833,16.01833,0,0,0,216.001,40ZM80.00049,132.00049a12,12,0,1,1,12-12A12,12,0,0,1,80.00049,132.00049Zm48,0a12,12,0,1,1,12-12A12,12,0,0,1,128.00049,132.00049Zm48,0a12,12,0,1,1,12-12A12,12,0,0,1,176.00049,132.00049Z"/>
</svg>
