<svg id="Layer_1" data-name="Layer 1" xmlns="http://www.w3.org/2000/svg" viewBox="0 0 256.00098 256.00098">
  <path d="M149.67005,195.88358l-14.80962,24.68269a8,8,0,0,1-13.71989,0l-14.80963-24.68272a8,8,0,0,0-6.85994-3.884H40.00049a8,8,0,0,1-8-8V56a8,8,0,0,1,8-8h176a8,8,0,0,1,8,8V184a8,8,0,0,1-8.00006,8l-59.47038-.00041A8,8,0,0,0,149.67005,195.88358Z" fill="none" stroke="#000" stroke-linecap="round" stroke-linejoin="round" stroke-width="24"/>
  <circle cx="128.00049" cy="120.00049" r="16"/>
  <circle cx="80.00049" cy="120.00049" r="16"/>
  <circle cx="176.00049" cy="120.00049" r="16"/>
</svg>
