<svg id="Raw" xmlns="http://www.w3.org/2000/svg" viewBox="0 0 256 256">
  <rect width="256" height="256" fill="none"/>
  <path d="M96,216a16,16,0,1,1-16-16A16.00016,16.00016,0,0,1,96,216Zm88-16a16,16,0,1,0,16,16A16.00016,16.00016,0,0,0,184,200ZM228.10059,67.18262A7.99866,7.99866,0,0,0,221.71387,64H48.32031L40.207,35.604A16.06984,16.06984,0,0,0,24.82227,24H8A8,8,0,0,0,8,40H24.82227l9.73046,34.05469c.02637.09863.05372.19677.084.29443l26.35547,92.24365A24.10087,24.10087,0,0,0,84.06836,184h95.86328a24.101,24.101,0,0,0,23.07617-17.40674l26.39844-92.39551A8.00023,8.00023,0,0,0,228.10059,67.18262Z"/>
</svg>
