<svg id="Layer_1" data-name="Layer 1" xmlns="http://www.w3.org/2000/svg" viewBox="0 0 256 256">
  <rect width="256" height="256" fill="none"/>
  <circle cx="99.99951" cy="92" r="12"/>
  <path d="M208.00049,31.99963h-160a16.01833,16.01833,0,0,0-16,16V175.97369l-.001.0307.001,31.99524a16.01833,16.01833,0,0,0,16,16h160a16.01833,16.01833,0,0,0,16-16v-160A16.01834,16.01834,0,0,0,208.00049,31.99963Zm0,16,.00586,92.6922L179.314,111.99963a16.019,16.019,0,0,0-22.62792,0l-44.68555,44.68653L91.314,135.99963a16.02161,16.02161,0,0,0-22.62792,0L48.00049,156.68457V47.99963Z"/>
</svg>
