<svg id="Layer_1" data-name="Layer 1" xmlns="http://www.w3.org/2000/svg" viewBox="0 0 256 256">
  <rect width="256" height="256" fill="none"/>
  <path d="M189.81543,71.44531a63.97085,63.97085,0,1,0-61.91895,80.59131,64.36221,64.36221,0,0,0,16.667-2.208c1.30151-.34863,2.57934-.74926,3.8457-1.17382L107.2207,220a8.00044,8.00044,0,1,0,13.85742,8l62.34473-107.99072A63.58244,63.58244,0,0,0,189.81543,71.44531Zm-49.39258,62.92823A47.99971,47.99971,0,0,1,115.57715,41.645a48.25383,48.25383,0,0,1,12.501-1.65625,48.01153,48.01153,0,0,1,12.34473,94.38477Z"/>
</svg>
