<svg id="Layer_1" data-name="Layer 1" xmlns="http://www.w3.org/2000/svg" viewBox="0 0 256 256">
  <path d="M76.68066,160a7.9996,7.9996,0,0,1,5.65674,2.34326l19.31348,19.31348A7.99962,7.99962,0,0,0,107.30762,184h41.373a7.9996,7.9996,0,0,0,5.65674-2.34326l19.31348-19.31348A7.99962,7.99962,0,0,1,179.30762,160h36.68652l.00586.00439V48a7.99977,7.99977,0,0,0-8-8H48a7.99977,7.99977,0,0,0-8,8V160Z" opacity="0.2"/>
  <rect x="40" y="40" width="176" height="176" rx="8" stroke-width="16" stroke="#000" stroke-linecap="round" stroke-linejoin="round" fill="none"/>
  <path d="M39.99414,160H76.68043a8,8,0,0,1,5.65686,2.34315l19.3137,19.3137A8,8,0,0,0,107.30785,184h41.37258a8,8,0,0,0,5.65686-2.34315l19.3137-19.3137A8,8,0,0,1,179.30785,160h36.68629" fill="none" stroke="#000" stroke-linecap="round" stroke-linejoin="round" stroke-width="16"/>
</svg>
