<svg id="Raw" xmlns="http://www.w3.org/2000/svg" viewBox="0 0 256 256">
  <rect width="256" height="256" fill="none"/>
  <path d="M224.00488,39.99414a7.99977,7.99977,0,0,1-8,8h-176a8,8,0,0,1,0-16h176A7.99977,7.99977,0,0,1,224.00488,39.99414ZM192,64H152a16.01833,16.01833,0,0,0-16,16v96a16.01833,16.01833,0,0,0,16,16h40a16.01833,16.01833,0,0,0,16-16V80A16.01833,16.01833,0,0,0,192,64Zm-88,0H64A16.01833,16.01833,0,0,0,48,80V216a16.01833,16.01833,0,0,0,16,16h40a16.01833,16.01833,0,0,0,16-16V80A16.01833,16.01833,0,0,0,104,64Z"/>
</svg>
