<svg id="Layer_1" data-name="Layer 1" xmlns="http://www.w3.org/2000/svg" viewBox="0 0 256 256">
  <rect x="0.00049" width="255.99951" height="256" fill="none"/>
  <g>
    <path d="M103.999,91.99316l112-.001a8,8,0,1,0,0-16l-112,.001a8,8,0,0,0,0,16Z"/>
    <path d="M215.999,163.99219l-112,.001a8,8,0,1,0,0,16l112-.001a8,8,0,1,0,0-16Z"/>
    <path d="M43.57764,71.15527,48,68.94434v43.0498a8,8,0,1,0,16,0V56a7.99928,7.99928,0,0,0-11.57764-7.15527l-16,8a7.99984,7.99984,0,1,0,7.15528,14.31054Z"/>
    <path d="M72.23828,170.30566a22.00226,22.00226,0,1,0-38.50635-20.87109A8,8,0,1,0,48.46826,155.667a6.00233,6.00233,0,1,1,10.59717,5.55176l-25.46729,33.9834A8.00013,8.00013,0,0,0,40,208H68a8,8,0,0,0,0-16H55.99219l16.01855-21.375Q72.12867,170.46827,72.23828,170.30566Z"/>
  </g>
</svg>
