<svg id="Layer_1" data-name="Layer 1" xmlns="http://www.w3.org/2000/svg" viewBox="0 0 256 256">
  <g>
    <path d="M139.30713,173.25293,111.023,201.53711a39.99918,39.99918,0,0,1-56.56738-56.56738l28.28418-28.28418a8.00053,8.00053,0,0,0-11.31446-11.31446L43.14111,133.65527a56.00023,56.00023,0,0,0,79.19629,79.19629l28.28418-28.28418a8.00052,8.00052,0,1,0-11.31445-11.31445Z"/>
    <path d="M212.85205,43.14062a56.002,56.002,0,0,0-79.19629,0L105.37158,71.4248A8.00053,8.00053,0,1,0,116.686,82.73926l28.28417-28.28418a39.99918,39.99918,0,0,1,56.56739,56.56738l-28.28418,28.28418a8.00052,8.00052,0,0,0,11.31445,11.31445l28.28418-28.28418A56.06457,56.06457,0,0,0,212.85205,43.14062Z"/>
  </g>
</svg>
