<svg xmlns="http://www.w3.org/2000/svg" width="16" height="16" viewBox="0 0 16 16">
  <g fill="none" fill-rule="evenodd">
    <polygon points="0 16 16 16 16 0 0 0"/>
    <path fill="#000" fill-rule="nonzero" d="M3.40407118,3.40432205 C5.94235057,0.864959317 10.0580494,0.864959317 12.5963288,3.40432205 C15.1345281,5.94252133 15.1345281,10.058162 12.5963288,12.5952779 C10.0580494,15.1346407 5.94235057,15.1346407 3.40429754,12.5955043 C0.864846735,10.0582202 0.864846735,5.94246315 3.40407118,3.40432205 Z M3.77381526,4.48026517 C1.96915006,6.6409243 2.08161219,9.86033713 4.11132882,11.8883221 C6.14004895,13.917908 9.35955447,14.0303629 11.5203594,12.2255596 Z M11.7070624,3.93719854 C9.67226957,2.07706147 6.5783851,2.0223303 4.48114143,3.77312123 L12.2264317,11.5194869 C14.0302783,9.35963559 13.9178711,6.14007793 11.8891466,4.11135339 L11.8891466,4.11135339 Z"/>
  </g>
</svg>
