<svg xmlns="http://www.w3.org/2000/svg" width="16" height="16" viewBox="0 0 16 16">
  <g fill="none" fill-rule="evenodd">
    <polygon points="0 16 16 16 16 0 0 0"/>
    <path fill="#000" d="M14,8 C14,11.313 11.313,14 8,14 C4.687,14 2,11.313 2,8 C2,4.687 4.687,2 8,2 C11.313,2 14,4.687 14,8" opacity=".2"/>
    <path fill="#000" fill-rule="nonzero" d="M8,1.5 C11.5891424,1.5 14.5,4.41085763 14.5,8 C14.5,11.5891424 11.5891424,14.5 8,14.5 C4.41085763,14.5 1.5,11.5891424 1.5,8 C1.5,6.20892993 2.22487771,4.58677004 3.3971917,3.41096176 C3.39926864,3.40877652 3.40175184,3.40624108 3.40426745,3.40372577 C4.58767603,2.22447292 6.20943009,1.5 8,1.5 Z M3.77366956,4.4806767 C2.97847886,5.43449246 2.5,6.66152257 2.5,8 C2.5,11.0368576 4.96314237,13.5 8,13.5 C9.33847743,13.5 10.5655075,13.0215211 11.5193233,12.2263304 Z M8,2.5 C6.66199738,2.5 5.43536302,2.97813946 4.48169186,3.77282343 L12.2263304,11.5193233 C13.0215211,10.5655075 13.5,9.33847743 13.5,8 C13.5,4.96314237 11.0368576,2.5 8,2.5 Z"/>
  </g>
</svg>
