<svg id="Layer_1" data-name="Layer 1" xmlns="http://www.w3.org/2000/svg" viewBox="0 0 256 256">
  <rect x="0.00049" width="255.99951" height="256" fill="none"/>
  <g>
    <path d="M56.001,128.00012a71.94351,71.94351,0,0,0,116.90527,56.21973L71.78076,83.09485A71.63816,71.63816,0,0,0,56.001,128.00012Z"/>
    <path d="M128.001,56.00012A71.6326,71.6326,0,0,0,83.09521,71.78088l101.12549,101.125A71.94387,71.94387,0,0,0,128.001,56.00012Z"/>
    <path d="M128.001,24.00012a104,104,0,1,0,104,104A104.1179,104.1179,0,0,0,128.001,24.00012Zm62.81543,165.5625a8.06328,8.06328,0,0,1-.58985.6626,8.153,8.153,0,0,1-.6626.58984A87.95214,87.95214,0,0,1,65.18115,66.4425a8.08079,8.08079,0,0,1,.59326-.66748,8.17637,8.17637,0,0,1,.66748-.59375A87.95231,87.95231,0,0,1,190.81641,189.56262Z"/>
  </g>
</svg>
