<svg xmlns="http://www.w3.org/2000/svg" width="16" height="16" viewBox="0 0 16 16">
  <g fill="none" fill-rule="evenodd">
    <polygon points="0 16 16 16 16 0 0 0"/>
    <path fill="#000" fill-rule="nonzero" d="M8,1.625 C11.5201068,1.625 14.375,4.47989322 14.375,8 C14.375,11.5201068 11.5201068,14.375 8,14.375 C4.47989322,14.375 1.625,11.5201068 1.625,8 C1.625,4.47989322 4.47989322,1.625 8,1.625 Z M3.76637836,4.29678827 C2.90008964,5.28628707 2.375,6.58198784 2.375,8 C2.375,11.1058932 4.89410678,13.625 8,13.625 C9.41801216,13.625 10.7137129,13.0999104 11.7032117,12.2336216 Z M8,2.375 C6.58198784,2.375 5.28628707,2.90008964 4.29678827,3.76637836 L12.2327414,11.7042169 C13.0995547,10.7145905 13.625,9.41849236 13.625,8 C13.625,4.89410678 11.1058932,2.375 8,2.375 Z"/>
  </g>
</svg>
