<svg id="Layer_1" data-name="Layer 1" xmlns="http://www.w3.org/2000/svg" viewBox="0 0 256 256">
  <rect width="256" height="256" fill="none"/>
  <g>
    <path d="M173.25488,82.74475a64.05782,64.05782,0,0,0-84.48681-5.29053l89.77783,89.77686A64.083,64.083,0,0,0,173.25488,82.74475Z"/>
    <path d="M82.74512,173.255a64.08243,64.08243,0,0,0,84.48681,5.29053L77.4541,88.76868A64.083,64.083,0,0,0,82.74512,173.255Z"/>
    <path d="M128,32.00012a96,96,0,1,0,96,96A96.10874,96.10874,0,0,0,128,32.00012Zm56.56934,152.56836v.00049a80.00078,80.00078,0,1,1,0-113.1377A80.09361,80.09361,0,0,1,184.56934,184.56848Z"/>
  </g>
</svg>
