<svg xmlns="http://www.w3.org/2000/svg" width="16" height="16" viewBox="0 0 16 16">
  <g fill="none" fill-rule="evenodd">
    <polygon points="0 16 16 16 16 0 0 0"/>
    <path fill="#000" d="M4.8535,5.5601 L10.4395,11.1471 C9.7625,11.6731 8.9225,12.0001 7.9995,12.0001 C5.7935,12.0001 3.9995,10.2061 3.9995,8.0001 C3.9995,7.0781 4.3265,6.2381 4.8535,5.5601 M11.1465,10.4401 L5.5605,4.8531 C6.2375,4.3271 7.0775,4.0001 7.9995,4.0001 C10.2065,4.0001 11.9995,5.7941 11.9995,8.0001 C11.9995,8.9221 11.6735,9.7621 11.1465,10.4401 M12.6425,12.5441 C13.8385,11.3221 14.4995,9.7131 14.4995,8.0001 C14.4995,6.2641 13.8235,4.6311 12.5955,3.4041 C11.3685,2.1761 9.7365,1.5001 7.9995,1.5001 C6.2875,1.5001 4.6775,2.1611 3.4565,3.3571 C3.4365,3.3721 3.4145,3.3791 3.3965,3.3961 C3.3785,3.4141 3.3715,3.4361 3.3575,3.4561 C2.1615,4.6781 1.4995,6.2871 1.4995,8.0001 C1.4995,9.7361 2.1765,11.3691 3.4045,12.5961 C4.6315,13.8241 6.2635,14.5001 7.9995,14.5001 C9.7125,14.5001 11.3225,13.8391 12.5435,12.6431 C12.5635,12.6281 12.5855,12.6211 12.6035,12.6031 C12.6215,12.5861 12.6285,12.5631 12.6425,12.5441"/>
  </g>
</svg>
