<svg xmlns="http://www.w3.org/2000/svg" width="16" height="16" viewBox="0 0 16 16">
  <g fill="none" fill-rule="evenodd">
    <polygon points="0 16 16 16 16 0 0 0"/>
    <path fill="#000" fill-rule="nonzero" d="M8,1.25 C11.7272136,1.25 14.75,4.27278644 14.75,8 C14.75,11.7272136 11.7272136,14.75 8,14.75 C4.27278644,14.75 1.25,11.7272136 1.25,8 C1.25,6.13944331 2.003225,4.45441742 3.22130063,3.23329668 C3.22313176,3.23133417 3.22530826,3.22913132 3.22750117,3.22693866 C4.45441742,2.003225 6.13944331,1.25 8,1.25 Z M3.79546625,4.85611435 C3.13893808,5.73259799 2.75,6.8210092 2.75,8 C2.75,10.8987864 5.10121356,13.25 8,13.25 C9.1789908,13.25 10.267402,12.8610619 11.1438856,12.2045338 Z M8,2.75 C6.8210092,2.75 5.73259799,3.13893808 4.85611435,3.79546625 L12.2045338,11.1438856 C12.8610619,10.267402 13.25,9.1789908 13.25,8 C13.25,5.10121356 10.8987864,2.75 8,2.75 Z"/>
  </g>
</svg>
