<svg xmlns="http://www.w3.org/2000/svg" width="16" height="16" viewBox="0 0 16 16">
  <g fill="none" fill-rule="evenodd">
    <polygon points="0 16 16 16 16 0 0 0"/>
    <path fill="#000" fill-rule="nonzero" d="M8,1.75 C11.4510712,1.75 14.25,4.54892881 14.25,8 C14.25,9.72400178 13.5515112,11.2852577 12.422167,12.4161344 C12.4209622,12.4166674 12.4197717,12.4178819 12.4185663,12.4190871 C11.2843317,13.5519254 9.72349051,14.25 8,14.25 C4.54892881,14.25 1.75,11.4510712 1.75,8 C1.75,6.27599822 2.44848879,4.71474231 3.57783302,3.58386564 C3.5785929,3.58297847 3.57980559,3.58174088 3.58103372,3.58051289 C4.71566834,2.44807456 6.27650949,1.75 8,1.75 Z M3.76113065,4.11533996 C2.82278051,5.138658 2.25,6.50261497 2.25,8 C2.25,11.1749288 4.82507119,13.75 8,13.75 C9.49738503,13.75 10.861342,13.1772195 11.88466,12.2388694 Z M8,2.25 C6.50261497,2.25 5.138658,2.82278051 4.11533996,3.76113065 L12.2388694,11.88466 C13.1772195,10.861342 13.75,9.49738503 13.75,8 C13.75,4.82507119 11.1749288,2.25 8,2.25 Z"/>
  </g>
</svg>
