<svg xmlns="http://www.w3.org/2000/svg" width="16" height="16" viewBox="0 0 16 16">
  <g fill="none" fill-rule="evenodd">
    <polygon points="0 16 15.999 16 15.999 0 0 0"/>
    <path fill="#000" d="M4.9996,7.9999 C4.9996,5.2389 7.2386,2.9999 9.9996,2.9999 C12.7616,2.9999 14.9996,5.2389 14.9996,7.9999 C14.9996,10.7619 12.7616,12.9999 9.9996,12.9999 L4.4996,12.9999 C2.5666,12.9999 0.9996,11.4329 0.9996,9.4999 C0.9996,7.5669 2.5666,5.9999 4.4996,5.9999 C4.8006,5.9999 5.0916,6.0379 5.3696,6.1089" opacity=".2"/>
    <path fill="#000" fill-rule="nonzero" d="M9.9996,2.4999 C13.0374125,2.4999 15.4996,4.96242769 15.4996,7.9999 C15.4996,10.9639413 13.1563685,13.3794666 10.2208473,13.4955338 L9.9996,13.4999 L4.4996,13.4999 C2.29045763,13.4999 0.4996,11.7090424 0.4996,9.4999 C0.4996,7.29075763 2.29045763,5.4999 4.4996,5.4999 C4.66876191,5.4999 4.83650161,5.51042914 5.00229679,5.53126247 L5.078,5.543 L5.08517886,5.52807686 C5.95925102,3.79399294 7.72417505,2.5855471 9.77842237,2.50426794 L9.9996,2.4999 Z M9.9996,3.4999 C7.51474237,3.4999 5.4996,5.51504237 5.4996,7.9999 C5.4996,8.27604237 5.27574237,8.4999 4.9996,8.4999 C4.72345763,8.4999 4.4996,8.27604237 4.4996,7.9999 C4.4996,7.55544014 4.55234413,7.12327906 4.65191354,6.70933559 L4.704,6.506 L4.4996,6.4999 C2.84274237,6.4999 1.4996,7.84304237 1.4996,9.4999 C1.4996,11.0975841 2.74851683,12.4035611 4.32332688,12.4948073 L4.4996,12.4999 L9.9996,12.4999 C12.4854576,12.4999 14.4996,10.4857576 14.4996,7.9999 C14.4996,5.51468151 12.4850968,3.4999 9.9996,3.4999 Z"/>
  </g>
</svg>
