<svg xmlns="http://www.w3.org/2000/svg" width="16" height="16" viewBox="0 0 16 16">
  <g fill="none" fill-rule="evenodd">
    <polygon points="0 16 16 16 16 0 0 0"/>
    <path fill="#000" fill-rule="nonzero" d="M10,2.2499 C13.1758914,2.2499 15.75,4.82436423 15.75,7.9999 C15.75,11.1022481 13.2945326,13.6298632 10.2205941,13.7457488 L10,13.7499 L4.5,13.7499 C2.15278644,13.7499 0.25,11.8471136 0.25,9.4999 C0.25,7.15268644 2.15278644,5.2499 4.5,5.2499 C4.58981658,5.2499 4.6792674,5.25269672 4.76827976,5.2582602 L4.936,5.274 L5.00052133,5.15746758 C5.95583628,3.48075314 7.73032564,2.33132915 9.77942738,2.25405224 L10,2.2499 Z M10,3.7499 C7.65258211,3.7499 5.75,5.65274497 5.75,7.9999 C5.75,8.41411356 5.41421356,8.7499 5,8.7499 C4.58578644,8.7499 4.25,8.41411356 4.25,7.9999 C4.25,7.63065165 4.28480406,7.26953029 4.35131132,6.91963845 L4.385,6.752 L4.33247732,6.75491878 C2.94711592,6.83816561 1.83826561,7.94701592 1.75501878,9.33237732 L1.75,9.4999 C1.75,10.9624351 2.89170147,12.1583045 4.33247732,12.2448812 L4.5,12.2499 L10,12.2499 C12.3477864,12.2499 14.25,10.3476864 14.25,7.9999 C14.25,5.65274497 12.3474179,3.7499 10,3.7499 Z"/>
  </g>
</svg>
