<svg xmlns="http://www.w3.org/2000/svg" width="16" height="16" viewBox="0 0 16 16">
  <g fill="none" fill-rule="evenodd">
    <polygon points="0 16 16 16 16 0 0 0"/>
    <path fill="#000" fill-rule="nonzero" d="M10,2.7499 C12.8997336,2.7499 15.25,5.10049114 15.25,7.9999 C15.25,10.8274694 13.0160989,13.1320597 10.2164457,13.245522 L10,13.2499 L4.5,13.2499 C2.42892881,13.2499 0.75,11.5709712 0.75,9.4999 C0.75,7.42882881 2.42892881,5.7499 4.5,5.7499 C4.65869065,5.7499 4.81599993,5.75977141 4.97146482,5.77930399 L5.223,5.819 L5.2457657,5.76987197 C6.05528846,4.04696197 7.77378407,2.83576162 9.78357837,2.75427921 L10,2.7499 Z M10,3.2499 C7.37642427,3.2499 5.25,5.37661806 5.25,7.9999 C5.25,8.13797119 5.13807119,8.2499 5,8.2499 C4.86192881,8.2499 4.75,8.13797119 4.75,7.9999 C4.75,7.42001823 4.84401066,6.86208917 5.01762558,6.340527 L5.033,6.295 L4.90900088,6.27538702 C4.84159873,6.26692147 4.77378554,6.26054972 4.70560438,6.25629435 L4.5,6.2499 C2.70507119,6.2499 1.25,7.70497119 1.25,9.4999 C1.25,11.2329347 2.60645162,12.6491462 4.31557577,12.7447552 L4.5,12.7499 L10,12.7499 C12.6239288,12.7499 14.75,10.6238288 14.75,7.9999 C14.75,5.37661806 12.6235757,3.2499 10,3.2499 Z"/>
  </g>
</svg>
