<svg xmlns="http://www.w3.org/2000/svg" width="16" height="16" viewBox="0 0 16 16">
  <g fill="none" fill-rule="evenodd">
    <polygon points="0 16 16 16 16 0 0 0"/>
    <path fill="#000" fill-rule="nonzero" d="M10,2.6249 C12.968773,2.6249 15.375,5.03145942 15.375,7.9999 C15.375,10.8965895 13.0850362,13.2572043 10.2162198,13.3706331 L10,13.3749 L4.5,13.3749 C2.35989322,13.3749 0.625,11.6400068 0.625,9.4999 C0.625,7.35979322 2.35989322,5.6249 4.5,5.6249 C4.66392628,5.6249 4.82645077,5.63510028 4.9870808,5.65528323 L5.15,5.681 L5.19715089,5.58411226 C6.05121052,3.88942023 7.77583805,2.70858961 9.7838034,2.62916811 L10,2.6249 Z M10,3.3749 C7.44546373,3.3749 5.375,5.44564979 5.375,7.9999 C5.375,8.20700678 5.20710678,8.3749 5,8.3749 C4.79289322,8.3749 4.625,8.20700678 4.625,7.9999 C4.625,7.49309307 4.69513987,7.00266459 4.82624414,6.537795 L4.869,6.397 L4.69776995,6.38104862 L4.5,6.3749 C2.77410678,6.3749 1.375,7.77400678 1.375,9.4999 C1.375,11.1662797 2.67928028,12.5280213 4.322669,12.6199531 L4.5,12.6249 L10,12.6249 C12.5548932,12.6249 14.625,10.5547932 14.625,7.9999 C14.625,5.44564979 12.5545363,3.3749 10,3.3749 Z"/>
  </g>
</svg>
