<svg xmlns="http://www.w3.org/2000/svg" width="16" height="16" viewBox="0 0 16 16">
  <g fill="none" fill-rule="evenodd">
    <polygon points="0 16 15.999 16 15.999 0 0 0"/>
    <path fill="#000" d="M9.9997,2.4999 C9.7597,2.4999 9.5247,2.5209 9.2927,2.5509 C9.2287,2.5589 9.1657,2.5689 9.1027,2.5799 C8.9147,2.6109 8.7297,2.6509 8.5487,2.7009 C8.5057,2.7119 8.4607,2.7219 8.4177,2.7339 C8.2007,2.7999 7.9907,2.8779 7.7867,2.9689 C7.7367,2.9909 7.6877,3.0169 7.6387,3.0399 C7.4787,3.1169 7.3217,3.2009 7.1697,3.2929 C7.1187,3.3229 7.0667,3.3529 7.0177,3.3849 C6.8327,3.5049 6.6527,3.6339 6.4837,3.7749 C6.4587,3.7959 6.4357,3.8209 6.4097,3.8429 C6.2657,3.9669 6.1287,4.0999 5.9987,4.2379 C5.9537,4.2849 5.9107,4.3329 5.8677,4.3809 C5.7407,4.5259 5.6207,4.6769 5.5097,4.8339 C5.4917,4.8599 5.4707,4.8839 5.4527,4.9099 C5.3297,5.0919 5.2197,5.2819 5.1177,5.4779 C4.7257,6.2339 4.4997,7.0909 4.4997,7.9999 C4.4997,8.2759 4.2757,8.4999 3.9997,8.4999 C3.7237,8.4999 3.4997,8.2759 3.4997,7.9999 C3.4997,7.1339 3.6737,6.3089 3.9817,5.5519 C2.0217,5.8099 0.4997,7.4719 0.4997,9.4999 C0.4997,11.7059 2.2937,13.4999 4.4997,13.4999 L9.9997,13.4999 C13.0317,13.4999 15.4997,11.0329 15.4997,7.9999 C15.4997,4.9669 13.0317,2.4999 9.9997,2.4999"/>
  </g>
</svg>
