<svg id="Raw" xmlns="http://www.w3.org/2000/svg" viewBox="0 0 256 256">
  <rect width="256" height="256" fill="none"/>
  <path d="M71.06558,148.89719a88.00756,88.00756,0,0,1,113.86856-.00025l-50.89382,59.98395a7.93583,7.93583,0,0,1-12.14044-.0705Z" opacity="0.2"/>
  <path d="M20.20855,75.93124c63.48474-47.90809,152.098-47.90812,215.58263.00015a8.015,8.015,0,0,1,1.201,11.61025c-19.04723,22.44929-82.94714,97.76169-102.95188,121.33925a7.93583,7.93583,0,0,1-12.14044-.0705L19.03968,87.57941A8.055,8.055,0,0,1,20.20855,75.93124Z" fill="none" stroke="#000" stroke-linecap="round" stroke-linejoin="round" stroke-width="16"/>
  <path d="M71.06558,148.89719a88.00756,88.00756,0,0,1,113.86856-.00025" fill="none" stroke="#000" stroke-linecap="round" stroke-linejoin="round" stroke-width="16"/>
</svg>
