<svg id="Layer_1" data-name="Layer 1" xmlns="http://www.w3.org/2000/svg" viewBox="0 0 256 256">
  <rect width="256" height="256" fill="none"/>
  <g>
    <path d="M131.99866,157.07324a7.959,7.959,0,0,0-3.98633-1.07519,8.04344,8.04344,0,0,0-2.08252.27636,7.94232,7.94232,0,0,0-4.85547,3.72657h-.00048a7.99757,7.99757,0,1,0,10.9248-2.92774Z"/>
    <path d="M207.99964,32h-24V24a8,8,0,0,0-16,0v8h-80V24a8,8,0,0,0-16,0v8h-24a16.01833,16.01833,0,0,0-16,16V208a16.01833,16.01833,0,0,0,16,16h160a16.018,16.018,0,0,0,16-16V48A16.018,16.018,0,0,0,207.99964,32Zm-59.2168,143.99805a23.84716,23.84716,0,0,1-14.57178,11.18066,24.15165,24.15165,0,0,1-6.251.82813,23.99845,23.99845,0,0,1-20.93653-35.65076l15.9668-31.93323a8.00028,8.00028,0,0,1,14.311,7.15625l-6.29981,12.6001a24.00911,24.00911,0,0,1,17.78125,35.81885ZM47.99964,80V48h24v8a8,8,0,0,0,16,0V48h80v8a8,8,0,0,0,16,0V48h24l.00244,32Z"/>
  </g>
</svg>
