<svg id="Layer_1" data-name="Layer 1" xmlns="http://www.w3.org/2000/svg" viewBox="0 0 256 256">
  <g>
    <path d="M240,88.00781a7.99541,7.99541,0,0,0-8,8v64a8,8,0,0,0,16,0v-64A7.9954,7.9954,0,0,0,240,88.00781Z"/>
    <path d="M192,48.00781H40a24.02625,24.02625,0,0,0-24,24v112a24.02624,24.02624,0,0,0,24,24H192a24.02624,24.02624,0,0,0,24-24v-112A24.02624,24.02624,0,0,0,192,48.00781Zm8,136a8.01042,8.01042,0,0,1-8,8H40a8.01042,8.01042,0,0,1-8-8v-112a8.01042,8.01042,0,0,1,8-8H192a8.01042,8.01042,0,0,1,8,8Z"/>
    <path d="M8,72.00781H152a0,0,0,0,1,0,0v104a8,8,0,0,1-8,8H16a8,8,0,0,1-8-8v-104A0,0,0,0,1,8,72.00781Z" transform="translate(208.00781 48.00781) rotate(90)" stroke="#000" stroke-linecap="round" stroke-linejoin="round" stroke-width="16"/>
  </g>
</svg>
