<svg id="Raw" xmlns="http://www.w3.org/2000/svg" viewBox="0 0 256 256">
  <rect width="256" height="256" fill="none"/>
  <path d="M213.6377,186.938a104,104,0,1,0-171.2754,0,8.09637,8.09637,0,0,0,.44532.71387c.12011.17163.25537.32543.38623.48461a103.91407,103.91407,0,0,0,169.61279-.001c.13086-.15894.26563-.31226.38574-.48364A8.09637,8.09637,0,0,0,213.6377,186.938ZM216,128a87.46128,87.46128,0,0,1-11.63916,43.70215L136,123.8352V40.36743A88.117,88.117,0,0,1,216,128ZM120,40.36743V123.8352L51.63916,171.70215A87.96692,87.96692,0,0,1,120,40.36743Zm-59.16162,144.426L120,143.36816v72.26441A87.90216,87.90216,0,0,1,60.83838,184.79346ZM136,215.63257V143.36816l59.16162,41.4253A87.90216,87.90216,0,0,1,136,215.63257Z"/>
</svg>
