<svg id="Layer_1" data-name="Layer 1" xmlns="http://www.w3.org/2000/svg" viewBox="0 0 256 256">
  <rect width="256" height="256" fill="none"/>
  <path d="M128,24A104,104,0,1,0,232,128,104.12041,104.12041,0,0,0,128,24Zm36,72a12,12,0,1,1-12,12A12.0006,12.0006,0,0,1,164,96ZM92,96a12,12,0,1,1-12,12A12.0006,12.0006,0,0,1,92,96Zm89.65625,77.65625a7.99708,7.99708,0,0,1-11.3125,0L160,163.3125l-10.34375,10.34375a7.99708,7.99708,0,0,1-11.3125,0L128,163.3125l-10.34375,10.34375a7.99708,7.99708,0,0,1-11.3125,0L96,163.3125,85.65625,173.65625a7.99915,7.99915,0,0,1-11.3125-11.3125l16-16a7.99708,7.99708,0,0,1,11.3125,0L112,156.6875l10.34375-10.34375a7.99708,7.99708,0,0,1,11.3125,0L144,156.6875l10.34375-10.34375a7.99708,7.99708,0,0,1,11.3125,0l16,16A7.99708,7.99708,0,0,1,181.65625,173.65625Z"/>
</svg>
