<svg id="Layer_1" data-name="Layer 1" xmlns="http://www.w3.org/2000/svg" viewBox="0 0 256 256">
  <rect width="256" height="256" fill="none"/>
  <g>
    <circle cx="127.99414" cy="140" r="12"/>
    <path d="M207.99414,80h-36V52a44,44,0,1,0-88,0V80h-36a16.01833,16.01833,0,0,0-16,16V208a16.01833,16.01833,0,0,0,16,16h160a16.01833,16.01833,0,0,0,16-16V96A16.01833,16.01833,0,0,0,207.99414,80Zm-72,86.82935V184a8,8,0,1,1-16,0V166.82935a28,28,0,1,1,16,0Zm20-86.82935h-56V52a28,28,0,1,1,56,0Z"/>
  </g>
</svg>
