<svg id="Raw" xmlns="http://www.w3.org/2000/svg" viewBox="0 0 256 256">
  <rect width="256" height="256" fill="none"/>
  <g>
    <path d="M248,88a8.00008,8.00008,0,0,0-8,8v64a8,8,0,0,0,16,0V96A8.00008,8.00008,0,0,0,248,88Z"/>
    <path d="M200,48H48A24.0275,24.0275,0,0,0,24,72V184a24.0275,24.0275,0,0,0,24,24H200a24.0275,24.0275,0,0,0,24-24V72A24.0275,24.0275,0,0,0,200,48Zm8,136a8.00917,8.00917,0,0,1-8,8H48a8.00917,8.00917,0,0,1-8-8V72a8.00917,8.00917,0,0,1,8-8H200a8.00917,8.00917,0,0,1,8,8Z"/>
  </g>
</svg>
