<svg id="Raw" xmlns="http://www.w3.org/2000/svg" viewBox="0 0 256 256">
  <rect width="256" height="256" fill="none"/>
  <path d="M128,200s-40-21.81818-40-80a107.00551,107.00551,0,0,1,6.09189-36.611l.00093.00032A77.45432,77.45432,0,0,0,62.77111,68.262,8.012,8.012,0,0,0,53.467,73.6017c-2.83963,8.74013-6.23716,26.00178.41465,48.2482l.0002-.00005c-16.39783-3.88948-29.14419-2.17963-36.52582-.28778a7.95673,7.95673,0,0,0-5.68022,9.8322c3.15047,11.268,12.99793,33.2819,43.43447,50.85444C85.54411,199.8197,112,200,128,200" opacity="0.2"/>
  <path d="M128,200s40-21.81818,40-80a107.00551,107.00551,0,0,0-6.09189-36.611l-.00093.00032A77.45432,77.45432,0,0,1,193.22889,68.262a8.012,8.012,0,0,1,9.30412,5.3397c2.83963,8.74013,6.23716,26.00178-.41465,48.2482l-.0002-.00005c16.39783-3.88948,29.14419-2.17963,36.52582-.28778a7.95673,7.95673,0,0,1,5.68022,9.8322c-3.15047,11.268-12.99793,33.2819-43.43447,50.85444C170.45589,199.8197,144,200,128,200" opacity="0.2"/>
  <path d="M128,200c16,0,42.45589-.1803,72.88973-17.75129s40.28225-39.5825,43.43363-50.85144a7.95859,7.95859,0,0,0-5.67818-9.83489c-7.38178-1.89206-20.12947-3.60238-36.52927.288" fill="none" stroke="#000" stroke-linecap="round" stroke-linejoin="round" stroke-width="16"/>
  <path d="M53.88184,121.84985c-16.39872-3.88969-29.14558-2.17944-36.527-.28747a7.95859,7.95859,0,0,0-5.67818,9.83489c3.15138,11.26894,12.99979,33.28046,43.43363,50.85144S112,200,128,200" fill="none" stroke="#000" stroke-linecap="round" stroke-linejoin="round" stroke-width="16"/>
  <path d="M128,200s40-21.81818,40-80c0-45.58443-24.55378-68.84723-35.18644-76.78386a8.03282,8.03282,0,0,0-9.62712,0C112.55378,51.15277,88,74.41557,88,120,88,178.18182,128,200,128,200Z" fill="none" stroke="#000" stroke-linecap="round" stroke-linejoin="round" stroke-width="16"/>
  <path d="M128,200c11.99027-2.55021,44.33-20.78184,63.71281-54.35383S206.32158,85.26679,202.535,73.60781a7.99178,7.99178,0,0,0-9.27184-5.3531,77.437,77.437,0,0,0-31.35645,15.135" fill="none" stroke="#000" stroke-linecap="round" stroke-linejoin="round" stroke-width="16"/>
  <path d="M94.09282,83.38935a77.43686,77.43686,0,0,0-31.356-15.13464,7.99178,7.99178,0,0,0-9.27184,5.3531c-3.78659,11.659-8.56062,38.46637,10.82218,72.03836S116.00973,197.44979,128,200" fill="none" stroke="#000" stroke-linecap="round" stroke-linejoin="round" stroke-width="16"/>
</svg>
