<svg id="Raw" xmlns="http://www.w3.org/2000/svg" viewBox="0 0 256 256">
  <rect width="256" height="256" fill="none"/>
  <path d="M69.65685,218.34315a8,8,0,0,1-11.3137,0l-20.6863-20.6863a8,8,0,0,1,0-11.3137L144,80l32,32Z" opacity="0.2"/>
  <line x1="216" y1="128" x2="216" y2="176" fill="none" stroke="#000" stroke-linecap="round" stroke-linejoin="round" stroke-width="16"/>
  <line x1="192" y1="152" x2="240" y2="152" fill="none" stroke="#000" stroke-linecap="round" stroke-linejoin="round" stroke-width="16"/>
  <line x1="84" y1="40" x2="84" y2="80" fill="none" stroke="#000" stroke-linecap="round" stroke-linejoin="round" stroke-width="16"/>
  <line x1="64" y1="60" x2="104" y2="60" fill="none" stroke="#000" stroke-linecap="round" stroke-linejoin="round" stroke-width="16"/>
  <line x1="168" y1="184" x2="168" y2="216" fill="none" stroke="#000" stroke-linecap="round" stroke-linejoin="round" stroke-width="16"/>
  <line x1="152" y1="200" x2="184" y2="200" fill="none" stroke="#000" stroke-linecap="round" stroke-linejoin="round" stroke-width="16"/>
  <rect x="14.86292" y="105.37258" width="226.27417" height="45.25483" rx="8" transform="translate(-53.01934 128) rotate(-45)" stroke-width="16" stroke="#000" stroke-linecap="round" stroke-linejoin="round" fill="none"/>
  <line x1="144" y1="80" x2="176" y2="112" fill="none" stroke="#000" stroke-linecap="round" stroke-linejoin="round" stroke-width="16"/>
</svg>
