<svg id="Raw" xmlns="http://www.w3.org/2000/svg" viewBox="0 0 256 256">
  <rect width="256" height="256" fill="none"/>
  <g opacity="0.2">
    <path d="M195.88225,60.11775a96,96,0,0,1,0,135.7645l-39.598-39.598a40,40,0,0,0,0-56.56854Z"/>
  </g>
  <g opacity="0.2">
    <path d="M60.11775,195.88225a96,96,0,0,1,0-135.7645l39.598,39.598a40,40,0,0,0,0,56.56854Z"/>
  </g>
  <circle cx="128" cy="128" r="96" fill="none" stroke="#000" stroke-linecap="round" stroke-linejoin="round" stroke-width="16"/>
  <circle cx="128" cy="128" r="40" fill="none" stroke="#000" stroke-linecap="round" stroke-linejoin="round" stroke-width="16"/>
  <line x1="99.71573" y1="99.71573" x2="60.11775" y2="60.11775" fill="none" stroke="#000" stroke-linecap="round" stroke-linejoin="round" stroke-width="16"/>
  <line x1="156.28427" y1="99.71573" x2="195.88225" y2="60.11775" fill="none" stroke="#000" stroke-linecap="round" stroke-linejoin="round" stroke-width="16"/>
  <line x1="156.28427" y1="156.28427" x2="195.88225" y2="195.88225" fill="none" stroke="#000" stroke-linecap="round" stroke-linejoin="round" stroke-width="16"/>
  <line x1="99.71573" y1="156.28427" x2="60.11775" y2="195.88225" fill="none" stroke="#000" stroke-linecap="round" stroke-linejoin="round" stroke-width="16"/>
</svg>
