<svg id="Layer_1" data-name="Layer 1" xmlns="http://www.w3.org/2000/svg" viewBox="0 0 256.00098 256.00098">
  <rect width="256" height="256" fill="none"/>
  <path d="M77.98509,201.34409,45.14832,228.94793a8,8,0,0,1-13.14783-6.12372V64.00049a8,8,0,0,1,8-8h176a8,8,0,0,1,8,8v128a8,8,0,0,1-8,8H81.67142Z" opacity="0.2"/>
  <path d="M77.98509,201.34409,45.14832,228.94793a8,8,0,0,1-13.14783-6.12372V64.00049a8,8,0,0,1,8-8h176a8,8,0,0,1,8,8v128a8,8,0,0,1-8,8H81.67142Z" fill="none" stroke="#000" stroke-linecap="round" stroke-linejoin="round" stroke-width="16"/>
  <line x1="96.00049" y1="112" x2="160.00049" y2="112" fill="none" stroke="#000" stroke-linecap="round" stroke-linejoin="round" stroke-width="16"/>
  <line x1="96.00049" y1="144" x2="160.00049" y2="144" fill="none" stroke="#000" stroke-linecap="round" stroke-linejoin="round" stroke-width="16"/>
</svg>
