<svg id="Layer_1" data-name="Layer 1" xmlns="http://www.w3.org/2000/svg" viewBox="0 0 256.00098 256.00098">
  <rect width="256" height="256" fill="none"/>
  <path d="M216.002,48.002h-176a16.02085,16.02085,0,0,0-16,16V222.82227a15.8614,15.8614,0,0,0,9.25,14.50781,16.11272,16.11272,0,0,0,6.79688,1.51562,15.86972,15.86972,0,0,0,10.25-3.77343l31.75-26.69532,133.95312-.375a16.02083,16.02083,0,0,0,16-16v-128A16.02084,16.02084,0,0,0,216.002,48.002Zm-56,104h-64a8,8,0,0,1,0-16h64a8,8,0,0,1,0,16Zm0-32h-64a8,8,0,0,1,0-16h64a8,8,0,0,1,0,16Z"/>
</svg>
