<svg xmlns="http://www.w3.org/2000/svg" width="16" height="16" viewBox="0 0 16 16">
  <g fill="none" fill-rule="evenodd">
    <polygon points="0 16 16 16 16 0 0 0"/>
    <path fill="#000" d="M8,1.625 C11.5201068,1.625 14.375,4.47989322 14.375,8 C14.375,11.5201068 11.5201068,14.375 8,14.375 C4.47989322,14.375 1.625,11.5201068 1.625,8 C1.625,4.47989322 4.47989322,1.625 8,1.625 Z M8,2.375 C4.89410678,2.375 2.375,4.89410678 2.375,8 C2.375,11.1058932 4.89410678,13.625 8,13.625 C11.1058932,13.625 13.625,11.1058932 13.625,8 C13.625,4.89410678 11.1058932,2.375 8,2.375 Z M10.7864886,9.17546514 C10.9657243,9.27923315 11.0269029,9.50865295 10.9231349,9.6878886 C10.7757025,9.94254451 10.5951578,10.1767723 10.3862529,10.3856763 C10.0798339,10.693226 9.71591087,10.9390737 9.31380913,11.1093229 C8.90159195,11.2838549 8.45640531,11.375 7.9996,11.375 C7.54320822,11.375 7.09917937,11.2840338 6.68504477,11.1091761 C6.28425037,10.9390064 5.92063965,10.6933697 5.61343496,10.386165 C5.40564027,10.1783704 5.22489604,9.94323288 5.07706514,9.6878886 C4.97329713,9.50865295 5.03447575,9.27923315 5.2137114,9.17546514 C5.39294705,9.07169713 5.62236685,9.13287575 5.72613486,9.3121114 C5.84124514,9.51093824 5.98205973,9.69412964 6.14376504,9.85583496 C6.38301928,10.0950892 6.66612855,10.2863433 6.97746451,10.4185314 C7.2991247,10.5543435 7.64401678,10.625 7.9996,10.625 C8.35550719,10.625 8.7012944,10.5542054 9.02139087,10.4186771 C9.33412512,10.286266 9.61693481,10.0952143 9.85543496,9.85583496 C10.0189738,9.69229613 10.159525,9.5099535 10.2740651,9.3121114 C10.3778332,9.13287575 10.6072529,9.07169713 10.7864886,9.17546514 Z M5.7505,6.188 C6.0605,6.188 6.3125,6.439 6.3125,6.75 C6.3125,7.061 6.0605,7.312 5.7505,7.312 C5.4395,7.312 5.1875,7.061 5.1875,6.75 C5.1875,6.439 5.4395,6.188 5.7505,6.188 Z M10.2505,6.188 C10.5605,6.188 10.8125,6.439 10.8125,6.75 C10.8125,7.061 10.5605,7.312 10.2505,7.312 C9.9395,7.312 9.6875,7.061 9.6875,6.75 C9.6875,6.439 9.9395,6.188 10.2505,6.188 Z"/>
  </g>
</svg>
