<svg xmlns="http://www.w3.org/2000/svg" width="16" height="16" viewBox="0 0 16 16">
  <g fill="none" fill-rule="evenodd">
    <polygon points="0 16 16 16 16 0 0 0"/>
    <path fill="#000" d="M8,1.25 C11.7272136,1.25 14.75,4.27278644 14.75,8 C14.75,11.7272136 11.7272136,14.75 8,14.75 C4.27278644,14.75 1.25,11.7272136 1.25,8 C1.25,4.27278644 4.27278644,1.25 8,1.25 Z M8,2.75 C5.10121356,2.75 2.75,5.10121356 2.75,8 C2.75,10.8987864 5.10121356,13.25 8,13.25 C10.8987864,13.25 13.25,10.8987864 13.25,8 C13.25,5.10121356 10.8987864,2.75 8,2.75 Z M10.9743772,8.85093029 C11.3328485,9.0584663 11.4552057,9.5173059 11.2476697,9.8757772 C11.0837912,10.15884 10.8832498,10.4190104 10.6519059,10.6503525 C10.3112834,10.9922318 9.90680374,11.2654775 9.46001826,11.4546458 C9.00174073,11.6486797 8.50685438,11.75 7.9996,11.75 C7.49280395,11.75 6.99920671,11.6488789 6.53848954,11.4543523 C6.09331128,11.265338 5.68944984,10.99251 5.34826991,10.6513301 C5.11743054,10.4204907 4.91672149,10.1593802 4.75253029,9.8757772 C4.54499427,9.5173059 4.66735149,9.0584663 5.0258228,8.85093029 C5.3842941,8.64339427 5.8431337,8.76575149 6.05066971,9.1242228 C6.14941968,9.29479093 6.27026946,9.45200929 6.40893009,9.59066991 C6.6142091,9.79594893 6.85706764,9.96001167 7.12332903,10.0730628 C7.39909736,10.1894983 7.69442105,10.25 7.9996,10.25 C8.30505812,10.25 8.60114562,10.1893807 8.87518174,10.0733542 C9.14323225,9.95986211 9.38548527,9.79620842 9.59026991,9.59066991 C9.73088178,9.45005805 9.85143622,9.293658 9.94953029,9.1242228 C10.1570663,8.76575149 10.6159059,8.64339427 10.9743772,8.85093029 Z M5.75,5.625 C6.371,5.625 6.875,6.129 6.875,6.75 C6.875,7.371 6.371,7.875 5.75,7.875 C5.129,7.875 4.625,7.371 4.625,6.75 C4.625,6.129 5.129,5.625 5.75,5.625 Z M10.25,5.625 C10.871,5.625 11.375,6.129 11.375,6.75 C11.375,7.371 10.871,7.875 10.25,7.875 C9.629,7.875 9.125,7.371 9.125,6.75 C9.125,6.129 9.629,5.625 10.25,5.625 Z"/>
  </g>
</svg>
