<svg xmlns="http://www.w3.org/2000/svg" width="16" height="16" viewBox="0 0 16 16">
  <g fill="none" fill-rule="evenodd">
    <polygon points="0 16 16 16 16 0 0 0"/>
    <path fill="#000" d="M8,1.75 C11.4510712,1.75 14.25,4.54892881 14.25,8 C14.25,11.4510712 11.4510712,14.25 8,14.25 C4.54892881,14.25 1.75,11.4510712 1.75,8 C1.75,4.54892881 4.54892881,1.75 8,1.75 Z M8,2.25 C4.82507119,2.25 2.25,4.82507119 2.25,8 C2.25,11.1749288 4.82507119,13.75 8,13.75 C11.1749288,13.75 13.75,11.1749288 13.75,8 C13.75,4.82507119 11.1749288,2.25 8,2.25 Z M10.7238591,9.28364343 C10.8433495,9.3528221 10.8841352,9.50576863 10.8149566,9.62525907 C10.6730062,9.87044601 10.4991271,10.0960263 10.297702,10.2974508 C10.0026841,10.5935574 9.65227991,10.8302724 9.26507275,10.9942153 C8.86820902,11.1622467 8.43958896,11.25 7.9996,11.25 C7.56000965,11.25 7.13250359,11.1624187 6.73389651,10.9941174 C6.34789673,10.8302292 5.99770292,10.5936563 5.7018233,10.2977767 C5.50171018,10.0976636 5.32762089,9.87118377 5.18524343,9.62525907 C5.11606476,9.50576863 5.1568505,9.3528221 5.27634093,9.28364343 C5.39583137,9.21446476 5.5487779,9.2552505 5.61795657,9.37474093 C5.73852029,9.58298735 5.88598982,9.77483643 6.0553767,9.9442233 C6.30595601,10.1948026 6.60248219,10.3951205 6.92884301,10.5336876 C7.26580048,10.6759585 7.62721535,10.75 7.9996,10.75 C8.37232354,10.75 8.73467732,10.6758137 9.07012725,10.5337847 C9.39775608,10.3950672 9.69408466,10.1948829 9.9438233,9.9442233 C10.1150045,9.77304216 10.2622212,9.582052 10.3822434,9.37474093 C10.4514221,9.2552505 10.6043686,9.21446476 10.7238591,9.28364343 Z M5.75,6.375 C5.957,6.375 6.125,6.543 6.125,6.75 C6.125,6.957 5.957,7.125 5.75,7.125 C5.543,7.125 5.375,6.957 5.375,6.75 C5.375,6.543 5.543,6.375 5.75,6.375 Z M10.25,6.375 C10.457,6.375 10.625,6.543 10.625,6.75 C10.625,6.957 10.457,7.125 10.25,7.125 C10.043,7.125 9.875,6.957 9.875,6.75 C9.875,6.543 10.043,6.375 10.25,6.375 Z"/>
  </g>
</svg>
