<svg xmlns="http://www.w3.org/2000/svg" width="16" height="16" viewBox="0 0 16 16">
  <g fill="none" fill-rule="evenodd">
    <polygon points="0 16 16 16 16 0 0 0"/>
    <path fill="#000" d="M8,1.4998 C11.5891424,1.4998 14.5,4.41065763 14.5,7.9998 C14.5,11.5896099 11.5894749,14.4998 8,14.4998 C4.41052513,14.4998 1.5,11.5896099 1.5,7.9998 C1.5,4.41065763 4.41085763,1.4998 8,1.4998 Z M8,2.4998 C4.96314237,2.4998 2.5,4.96294237 2.5,7.9998 C2.5,11.0372994 4.96278411,13.4998 8,13.4998 C11.0372159,13.4998 13.5,11.0372994 13.5,7.9998 C13.5,4.96294237 11.0368576,2.4998 8,2.4998 Z M10.8491181,9.06708686 C11.088099,9.2054442 11.1696705,9.51133727 11.0313131,9.75031814 C10.8774668,10.0160528 10.6895995,10.2600745 10.4748039,10.4737017 C10.1569837,10.7926946 9.77954183,11.047675 9.36254551,11.2242305 C8.93497488,11.4052632 8.47322167,11.4998 7.9996,11.4998 C7.5264068,11.4998 7.06585515,11.4054488 6.63619303,11.2240348 C6.22060401,11.0475836 5.84357638,10.7928832 5.52504661,10.4743534 C5.30957036,10.2588771 5.12217119,10.015082 4.96888686,9.75031814 C4.83052951,9.51133727 4.91210099,9.2054442 5.15108186,9.06708686 C5.39006273,8.92872951 5.6959558,9.01030099 5.83431314,9.24928186 C5.94396999,9.43868914 6.07812964,9.61322286 6.23215339,9.76724661 C6.46008256,9.99517577 6.72977491,10.1773661 7.02608602,10.3031752 C7.33244892,10.4325284 7.6608182,10.4998 7.9996,10.4998 C8.33869083,10.4998 8.66791147,10.4323972 8.97265449,10.3033695 C9.27049417,10.1772647 9.53978496,9.99534566 9.76800604,9.76628977 C9.92200681,9.61312144 10.0560218,9.4390487 10.1658869,9.24928186 C10.3042442,9.01030099 10.6101373,8.92872951 10.8491181,9.06708686 Z M5.75,5.9998 C6.164,5.9998 6.5,6.3358 6.5,6.7498 C6.5,7.1648 6.164,7.4998 5.75,7.4998 C5.336,7.4998 5,7.1648 5,6.7498 C5,6.3358 5.336,5.9998 5.75,5.9998 Z M10.25,5.9998 C10.664,5.9998 11,6.3358 11,6.7498 C11,7.1648 10.664,7.4998 10.25,7.4998 C9.836,7.4998 9.5,7.1648 9.5,6.7498 C9.5,6.3358 9.836,5.9998 10.25,5.9998 Z"/>
  </g>
</svg>
