<svg xmlns="http://www.w3.org/2000/svg" width="16" height="16" viewBox="0 0 16 16">
  <g fill="none" fill-rule="evenodd">
    <polygon points="0 16 16 16 16 0 0 0"/>
    <path fill="#000" d="M14,8 C14,11.313 11.313,14 8,14 C4.687,14 2,11.313 2,8 C2,4.687 4.687,2 8,2 C11.313,2 14,4.687 14,8" opacity=".2"/>
    <path fill="#000" d="M8,1.5 C11.5891424,1.5 14.5,4.41085763 14.5,8 C14.5,11.5891424 11.5891424,14.5 8,14.5 C4.41085763,14.5 1.5,11.5891424 1.5,8 C1.5,4.41085763 4.41085763,1.5 8,1.5 Z M8,2.5 C4.96314237,2.5 2.5,4.96314237 2.5,8 C2.5,11.0368576 4.96314237,13.5 8,13.5 C11.0368576,13.5 13.5,11.0368576 13.5,8 C13.5,4.96314237 11.0368576,2.5 8,2.5 Z M10.8491181,9.06728686 C11.088099,9.2056442 11.1696705,9.51153727 11.0313131,9.75051814 C10.8783987,10.014643 10.6911885,10.2575183 10.4748039,10.4739017 C10.1569837,10.7928946 9.77954183,11.047875 9.36254551,11.2244305 C8.93497488,11.4054632 8.47322167,11.5 7.9996,11.5 C7.5264068,11.5 7.06585515,11.4056488 6.63619303,11.2242348 C6.22060401,11.0477836 5.84357638,10.7930832 5.52504661,10.4745534 C5.30957036,10.2590771 5.12217119,10.015282 4.96888686,9.75051814 C4.83052951,9.51153727 4.91210099,9.2056442 5.15108186,9.06728686 C5.39006273,8.92892951 5.6959558,9.01050099 5.83431314,9.24948186 C5.94396999,9.43888914 6.07812964,9.61342286 6.23215339,9.76744661 C6.46008256,9.99537577 6.72977491,10.1775661 7.02608602,10.3033752 C7.33244892,10.4327284 7.6608182,10.5 7.9996,10.5 C8.33869083,10.5 8.66791147,10.4325972 8.97265449,10.3035695 C9.27049417,10.1774647 9.53978496,9.99554566 9.76704661,9.76744661 C9.92294312,9.6115501 10.0568287,9.437855 10.1658869,9.24948186 C10.3042442,9.01050099 10.6101373,8.92892951 10.8491181,9.06728686 Z M5.75,6 C6.164,6 6.5,6.336 6.5,6.75 C6.5,7.164 6.164,7.5 5.75,7.5 C5.336,7.5 5,7.164 5,6.75 C5,6.336 5.336,6 5.75,6 Z M10.25,6 C10.664,6 11,6.336 11,6.75 C11,7.164 10.664,7.5 10.25,7.5 C9.836,7.5 9.5,7.164 9.5,6.75 C9.5,6.336 9.836,6 10.25,6 Z"/>
  </g>
</svg>
