<svg xmlns="http://www.w3.org/2000/svg" width="16" height="16" viewBox="0 0 16 16">
  <g fill="none" fill-rule="evenodd">
    <polygon points="0 16 16 16 16 0 0 0"/>
    <path fill="#000" d="M11.0312,9.7505 C10.8792,10.0135 10.6922,10.2565 10.4752,10.4745 C10.1532,10.7955 9.7792,11.0475 9.3632,11.2245 C8.9302,11.4075 8.4722,11.4995 8.0002,11.4995 C7.5272,11.4995 7.0692,11.4075 6.6372,11.2245 C6.2202,11.0475 5.8462,10.7955 5.5252,10.4745 C5.3082,10.2585 5.1222,10.0145 4.9692,9.7505 C4.8302,9.5115 4.9122,9.2055 5.1502,9.0675 C5.3862,8.9295 5.6942,9.0085 5.8342,9.2495 C5.9432,9.4385 6.0772,9.6125 6.2322,9.7675 C6.4622,9.9975 6.7292,10.1775 7.0272,10.3035 C7.6402,10.5635 8.3582,10.5635 8.9732,10.3035 C9.2702,10.1775 9.5382,9.9975 9.7672,9.7675 C9.9232,9.6115 10.0562,9.4375 10.1662,9.2495 C10.3042,9.0085 10.6112,8.9295 10.8492,9.0675 C11.0882,9.2055 11.1702,9.5115 11.0312,9.7505 M5.7502,6.0005 C6.1642,6.0005 6.5002,6.3355 6.5002,6.7505 C6.5002,7.1645 6.1642,7.5005 5.7502,7.5005 C5.3362,7.5005 5.0002,7.1645 5.0002,6.7505 C5.0002,6.3355 5.3362,6.0005 5.7502,6.0005 M10.2502,6.0005 C10.6642,6.0005 11.0002,6.3355 11.0002,6.7505 C11.0002,7.1645 10.6642,7.5005 10.2502,7.5005 C9.8362,7.5005 9.5002,7.1645 9.5002,6.7505 C9.5002,6.3355 9.8362,6.0005 10.2502,6.0005 M8.0002,1.5005 C4.4162,1.5005 1.5002,4.4165 1.5002,8.0005 C1.5002,11.5835 4.4162,14.5005 8.0002,14.5005 C11.5842,14.5005 14.5002,11.5835 14.5002,8.0005 C14.5002,4.4165 11.5842,1.5005 8.0002,1.5005"/>
  </g>
</svg>
