<svg id="Raw" xmlns="http://www.w3.org/2000/svg" viewBox="0 0 256 256">
  <rect width="256" height="256" fill="none"/>
  <path d="M32,208a16,16,0,0,0,16-16V56a8,8,0,0,1,8-8H224a8,8,0,0,1,8,8V192a16,16,0,0,1-16,16Z" opacity="0.2"/>
  <line x1="88" y1="96" x2="192" y2="96" fill="none" stroke="#000" stroke-linecap="round" stroke-linejoin="round" stroke-width="16"/>
  <line x1="88" y1="128" x2="192" y2="128" fill="none" stroke="#000" stroke-linecap="round" stroke-linejoin="round" stroke-width="16"/>
  <line x1="88" y1="160" x2="192" y2="160" fill="none" stroke="#000" stroke-linecap="round" stroke-linejoin="round" stroke-width="16"/>
  <path d="M32,208a16,16,0,0,0,16-16V56a8,8,0,0,1,8-8H224a8,8,0,0,1,8,8V192a16,16,0,0,1-16,16Z" fill="none" stroke="#000" stroke-linecap="round" stroke-linejoin="round" stroke-width="16"/>
  <path d="M32,208a16,16,0,0,1-16-16V80" fill="none" stroke="#000" stroke-linecap="round" stroke-linejoin="round" stroke-width="16"/>
</svg>
