<svg id="Layer_1" data-name="Layer 1" xmlns="http://www.w3.org/2000/svg" viewBox="0 0 256 256">
  <path d="M224,88V200.88889A7.11111,7.11111,0,0,1,216.88889,208H40a8,8,0,0,1-8-8V64a8,8,0,0,1,8-8H93.33333a8,8,0,0,1,4.8,1.6l27.73334,20.8a8,8,0,0,0,4.8,1.6H216A8,8,0,0,1,224,88Z" opacity="0.2"/>
  <line x1="103.99414" y1="144" x2="151.99414" y2="144" fill="none" stroke="#000" stroke-linecap="round" stroke-linejoin="round" stroke-width="16"/>
  <path d="M224,88V200.88889A7.11111,7.11111,0,0,1,216.88889,208H40a8,8,0,0,1-8-8V64a8,8,0,0,1,8-8H93.33333a8,8,0,0,1,4.8,1.6l27.73334,20.8a8,8,0,0,0,4.8,1.6H216A8,8,0,0,1,224,88Z" fill="none" stroke="#000" stroke-linecap="round" stroke-linejoin="round" stroke-width="16"/>
</svg>
