<svg xmlns="http://www.w3.org/2000/svg" width="16" height="16" viewBox="0 0 16 16">
  <g fill="none" fill-rule="evenodd">
    <polygon points="0 16 16 16 16 0 0 0"/>
    <path fill="#000" fill-rule="nonzero" d="M8,1.25 C11.7272136,1.25 14.75,4.27278644 14.75,8 C14.75,9.98733766 13.890626,11.7744077 12.5233111,13.0097767 C12.5193824,13.0138036 12.5141648,13.0185385 12.508871,13.0232068 C11.3131834,14.0967331 9.73271002,14.75 8,14.75 C6.26728998,14.75 4.68681663,14.0967331 3.49149931,13.0231185 C3.48543516,13.0185385 3.48021759,13.0138036 3.4750769,13.0090041 C2.10937405,11.7744077 1.25,9.98733766 1.25,8 C1.25,4.27278644 4.27278644,1.25 8,1.25 Z M8.01642945,10.7499343 L8,10.75 C7.99431153,10.75 7.98862648,10.7499854 7.98294489,10.7499562 L8.0003,10.7499 C6.78143723,10.7499 5.66680902,11.3369522 4.97154654,12.287526 C5.82711511,12.8940457 6.87210855,13.25 8,13.25 C9.12745224,13.25 10.172071,12.8943229 11.0277367,12.2890883 C10.3367341,11.3413671 9.22918468,10.7550892 8.01642945,10.7499343 Z M8,2.75 C5.10121356,2.75 2.75,5.10121356 2.75,8 C2.75,9.22745488 3.17157098,10.3567303 3.87777685,11.2508902 C4.36591462,10.6293858 4.98675338,10.129572 5.69027389,9.78471963 C5.10877908,9.19907969 4.75,8.39151787 4.75,7.5 C4.75,5.70478644 6.20478644,4.25 8,4.25 C9.79521356,4.25 11.25,5.70478644 11.25,7.5 C11.25,8.39151787 10.8912209,9.19907969 10.3101421,9.78620607 C11.0133898,10.1296 11.6341809,10.6295918 12.1232422,11.2497947 C12.828429,10.3567303 13.25,9.22745488 13.25,8 C13.25,5.10121356 10.8987864,2.75 8,2.75 Z M8.01519644,9.24993545 C8.97498042,9.24177942 9.75,8.46171588 9.75,7.5 C9.75,6.53321356 8.96678644,5.75 8,5.75 C7.03321356,5.75 6.25,6.53321356 6.25,7.5 C6.25,8.46678644 7.03321356,9.25 8,9.25 L7.98527716,9.24992125 L7.98527716,9.24992125 Z"/>
  </g>
</svg>
