<svg id="Raw" xmlns="http://www.w3.org/2000/svg" viewBox="0 0 256 256">
  <rect width="256" height="256" fill="none"/>
  <path d="M128,32A96.00088,96.00088,0,0,0,63.79883,199.375v-.001A71.99731,71.99731,0,0,1,128,160a40,40,0,1,1,40-40,40.0001,40.0001,0,0,1-40,40,71.99731,71.99731,0,0,1,64.20117,39.374A96.0002,96.0002,0,0,0,128,32Z" opacity="0.2"/>
  <circle cx="128" cy="128" r="96" fill="none" stroke="#000" stroke-linecap="round" stroke-linejoin="round" stroke-width="16"/>
  <circle cx="128" cy="120" r="40" fill="none" stroke="#000" stroke-linecap="round" stroke-linejoin="round" stroke-width="16"/>
  <path d="M63.79905,199.37405a72.02812,72.02812,0,0,1,128.40177-.00026" fill="none" stroke="#000" stroke-linecap="round" stroke-linejoin="round" stroke-width="16"/>
</svg>
