<svg xmlns="http://www.w3.org/2000/svg" width="16" height="16" viewBox="0 0 16 16">
  <g fill="none" fill-rule="evenodd">
    <polygon points="0 16 16 16 16 0 0 0"/>
    <path fill="#000" d="M7.9996,1.5004 C11.5836,1.5004 14.4996,4.4164 14.4996,8.0004 C14.4996,9.7764 13.7826,11.3864 12.6236,12.5604 L12.6236,12.5604 L12.6326,12.5764 L12.3476,12.8324 C12.3206,12.8574 12.2886,12.8734 12.2596,12.8974 C12.0126,13.1124 11.7496,13.3094 11.4716,13.4854 C11.4126,13.5234 11.3526,13.5594 11.2916,13.5944 C11.0046,13.7644 10.7056,13.9134 10.3936,14.0374 C10.3396,14.0584 10.2866,14.0774 10.2326,14.0964 C9.9086,14.2154 9.5736,14.3134 9.2266,14.3804 C9.1886,14.3874 9.1496,14.3914 9.1116,14.3984 C8.7486,14.4604 8.3796,14.5004 7.9996,14.5004 C7.6206,14.5004 7.2506,14.4604 6.8886,14.3984 C6.8506,14.3914 6.8116,14.3874 6.7736,14.3804 C6.4266,14.3134 6.0916,14.2154 5.7676,14.0964 C5.7136,14.0764 5.6606,14.0584 5.6066,14.0374 C5.2936,13.9134 4.9946,13.7644 4.7076,13.5944 C4.6476,13.5594 4.5876,13.5234 4.5286,13.4854 C4.2496,13.3094 3.9876,13.1124 3.7406,12.8974 C3.7116,12.8734 3.6796,12.8574 3.6526,12.8324 L3.6526,12.8324 L3.3676,12.5764 L3.3756,12.5604 C2.2176,11.3864 1.4996,9.7764 1.4996,8.0004 C1.4996,4.4164 4.4156,1.5004 7.9996,1.5004 Z M7.9996,2.5004 C4.9676,2.5004 2.4996,4.9674 2.4996,8.0004 C2.4996,9.4014 3.0326,10.6794 3.8986,11.6514 C4.3616,10.9894 4.9666,10.4574 5.6646,10.0884 C6.2856,10.6484 7.0996,11.0004 7.9996,11.0004 C8.9006,11.0004 9.7146,10.6484 10.3356,10.0884 C11.0336,10.4574 11.6386,10.9894 12.1016,11.6514 C12.9676,10.6794 13.4996,9.4014 13.4996,8.0004 C13.4996,4.9674 11.0326,2.5004 7.9996,2.5004 Z M8,4.5 C9.519,4.5 10.75,5.731 10.75,7.25 C10.75,8.769 9.519,10 8,10 C6.481,10 5.25,8.769 5.25,7.25 C5.25,5.731 6.481,4.5 8,4.5 Z"/>
  </g>
</svg>
