<svg xmlns="http://www.w3.org/2000/svg" width="16" height="16" viewBox="0 0 16 16">
  <g fill="none" fill-rule="evenodd">
    <polygon points="0 16 16 16 16 0 0 0"/>
    <path fill="#000" fill-rule="nonzero" d="M8,1.75 C11.4510712,1.75 14.25,4.54892881 14.25,8 C14.25,11.4510712 11.4510712,14.25 8,14.25 C6.3942635,14.25 4.92971023,13.6440559 3.82258713,12.6484145 L3.87379113,12.6836459 C3.85205774,12.6725708 3.83263748,12.6587536 3.81573702,12.6428305 C2.54778893,11.4990708 1.75,9.84247665 1.75,8 C1.75,4.54892881 4.54892881,1.75 8,1.75 Z M8.01638647,10.2499301 L8,10.25 C7.99464172,10.25 7.98928703,10.2499847 7.98393597,10.2499541 L8.0003,10.2499 C6.45093933,10.2499 5.05003495,11.0870902 4.30214419,12.4033857 C5.30182375,13.2435028 6.59191813,13.75 8,13.75 C9.40760857,13.75 10.6973089,13.2438432 11.6969706,12.4036601 L11.7895541,12.5744089 C11.0710815,11.1645029 9.62516359,10.2559489 8.01638647,10.2499301 Z M8,2.25 C4.82507119,2.25 2.25,4.82507119 2.25,8 C2.25,9.58313612 2.89026206,11.0171245 3.92589855,12.0570775 C4.5522298,11.0140335 5.55049615,10.2547825 6.70995288,9.92788363 C5.84123007,9.46717281 5.25,8.55278555 5.25,7.5 C5.25,5.98092881 6.48092881,4.75 8,4.75 C9.51907119,4.75 10.75,5.98092881 10.75,7.5 C10.75,8.55238079 10.1592245,9.46646969 9.29114461,9.92879548 C10.4495516,10.2547121 11.4473751,11.0138951 12.0733902,12.0557597 C13.1097379,11.0171245 13.75,9.58313612 13.75,8 C13.75,4.82507119 11.1749288,2.25 8,2.25 Z M8.01512136,9.74995029 C9.2510865,9.74182184 10.25,8.73788446 10.25,7.5 C10.25,6.25707119 9.24292881,5.25 8,5.25 C6.75707119,5.25 5.75,6.25707119 5.75,7.5 C5.75,8.74292881 6.75707119,9.75 8,9.75 L7.98525982,9.74992354 L7.98525982,9.74992354 Z"/>
  </g>
</svg>
