<svg xmlns="http://www.w3.org/2000/svg" width="16" height="16" viewBox="0 0 16 16">
  <g fill="none" fill-rule="evenodd">
    <polygon points="0 16 16 16 16 0 0 0"/>
    <path fill="#000" fill-rule="nonzero" d="M8,1.625 C11.5201068,1.625 14.375,4.47989322 14.375,8 C14.375,11.5201068 11.5201068,14.375 8,14.375 C4.47989322,14.375 1.625,11.5201068 1.625,8 C1.625,4.47989322 4.47989322,1.625 8,1.625 Z M8.01735626,10.3749349 L8,10.375 C7.99429463,10.375 7.98859315,10.3749834 7.9828956,10.3749502 L8.0003,10.3749 C6.53242276,10.3749 5.20186765,11.1490741 4.46396765,12.3743107 C5.43096198,13.1567589 6.66094628,13.625 8,13.625 C9.33905372,13.625 10.569038,13.1567589 11.535102,12.3751275 C10.8002883,11.1534456 9.47809175,10.3809047 8.01735626,10.3749349 Z M8,2.375 C4.89410678,2.375 2.375,4.89410678 2.375,8 C2.375,9.4914883 2.95591586,10.8476614 3.90376467,11.8545362 C4.49914062,10.9352547 5.38221051,10.2463663 6.40627456,9.89216362 C5.63363058,9.37777208 5.125,8.49841173 5.125,7.5 C5.125,5.91189322 6.41189322,4.625 8,4.625 C9.58810678,4.625 10.875,5.91189322 10.875,7.5 C10.875,8.49841173 10.3663694,9.37777208 9.5940291,9.8931602 C10.6181663,10.2464209 11.5011485,10.9356381 12.0954409,11.8548865 C13.0436948,10.84857 13.625,9.49198796 13.625,8 C13.625,4.89410678 11.1058932,2.375 8,2.375 Z M8.01519772,9.62494683 C9.1820912,9.61678012 10.125,8.66882314 10.125,7.5 C10.125,6.32610678 9.17389322,5.375 8,5.375 C6.82610678,5.375 5.875,6.32610678 5.875,7.5 C5.875,8.67389322 6.82610678,9.625 8,9.625 L7.98526517,9.62492292 L7.98526517,9.62492292 Z"/>
  </g>
</svg>
