<svg xmlns="http://www.w3.org/2000/svg" width="16" height="16" viewBox="0 0 16 16">
  <g fill="none" fill-rule="evenodd">
    <polygon points="0 16 16 16 16 0 0 0"/>
    <path fill="#000" fill-rule="nonzero" d="M8.59808153,3.59801174 L7.999,4.196 L7.53226851,3.72836186 C6.07766881,2.27493015 3.73011925,2.1216525 2.24389211,3.46016594 C0.642108807,4.90337957 0.580702066,7.3838507 2.09781174,8.90211847 L7.29298064,14.0962874 C7.68320876,14.4865155 8.31679124,14.4865155 8.70705339,14.0962534 L13.7710534,9.03225339 C15.2251003,7.57820651 15.3787393,5.23053217 14.0400341,3.74409211 C12.5972311,2.14161589 10.1166831,2.08056848 8.59808153,3.59801174 Z M13.2969192,4.41325594 C14.2676124,5.49107152 14.1534417,7.23565148 13.0639466,8.32514661 L8.00005339,13.3891466 L2.80501936,8.19511258 C1.69231958,7.08156333 1.73735005,5.26259695 2.91318843,4.20316152 C3.99075755,3.23269026 5.735422,3.34660396 6.82508868,4.43539541 L7.64573149,5.25703814 C7.84095874,5.45250318 8.1577072,5.45259958 8.35305339,5.25725339 L9.30505339,4.30525339 C10.4189752,3.19218135 12.2378167,3.23694387 13.2969192,4.41325594 Z"/>
  </g>
</svg>
