<svg xmlns="http://www.w3.org/2000/svg" width="16" height="16" viewBox="0 0 16 16">
  <g fill="none" fill-rule="evenodd">
    <polygon points="0 16 15.999 16 15.999 0 0 0"/>
    <path fill="#000" d="M14.0612,3.2444 C13.3642,2.4704 12.4082,2.0284 11.3702,2.0014 C10.3432,1.9684 9.3542,2.3634 8.6192,3.0984 L8.0202,3.6964 L7.5522,3.2284 C6.0922,1.7684 3.7222,1.6494 2.2642,2.9594 C1.4912,3.6574 1.0492,4.6134 1.0222,5.6514 C0.9952,6.6904 1.3842,7.6664 2.1192,8.4014 L7.3132,13.5964 C7.5082,13.7914 7.7642,13.8884 8.0202,13.8884 C8.2772,13.8884 8.5332,13.7914 8.7282,13.5964 L13.7922,8.5314 C15.2512,7.0724 15.3722,4.7004 14.0612,3.2444"/>
  </g>
</svg>
