<svg xmlns="http://www.w3.org/2000/svg" width="16" height="16" viewBox="0 0 16 16">
  <g fill="none" fill-rule="evenodd">
    <polygon points="0 16 15.999 16 15.999 0 0 0"/>
    <path fill="#000" fill-rule="nonzero" d="M8.42176991,2.92116991 L7.999,3.342 L7.70875277,3.05149279 C6.16443493,1.50717476 3.66496035,1.34435356 2.07721156,2.77417783 C0.36815628,4.31294015 0.30301848,6.96007865 1.92176991,8.57883009 L7.11576991,13.7728301 C7.60366313,14.2607233 8.39553687,14.2607233 8.88343009,13.7728301 L13.9474301,8.70883009 C15.4932907,7.16421022 15.656435,4.66554603 14.2254011,3.07658816 C12.6878615,1.36753003 10.0405611,1.30237876 8.42176991,2.92116991 Z M13.2196425,4.21085221 C13.9790151,5.19382039 13.8422769,6.6934297 12.8869829,7.64795706 L7.999,12.535 L2.98243009,7.51816991 C1.97051462,6.50625444 2.01122073,4.85199654 3.08093391,3.88887126 C4.05588832,3.01089014 5.65072081,3.11478098 6.64776991,4.11183009 L7.46844723,4.93350721 C7.76117945,5.22659599 8.23608735,5.22686516 8.52915162,4.9341084 L9.48215162,3.9821084 C10.4943133,2.96994686 12.1484008,3.0106547 13.11053,4.08011313 L13.2196425,4.21085221 Z"/>
  </g>
</svg>
