<svg xmlns="http://www.w3.org/2000/svg" width="16" height="16" viewBox="0 0 16 16">
  <g fill="none" fill-rule="evenodd">
    <polygon points="0 16 15.999 16 15.999 0 0 0"/>
    <path fill="#000" fill-rule="nonzero" d="M8.68693496,3.18633496 L7.999,3.873 L7.44342638,3.3164964 C6.0360064,1.90907632 3.76269234,1.76098771 2.32815578,3.05283892 C0.778922392,4.44770425 0.719892514,6.8466226 2.18693496,8.31366504 L7.38093496,13.507665 C7.72238157,13.8491117 8.27681843,13.8491117 8.61826504,13.507665 L13.682265,8.44366504 C15.0913929,7.03566819 15.2397649,4.76325104 13.9467505,3.32754408 C12.5529963,1.77831119 10.1539991,1.71927078 8.68693496,3.18633496 Z M13.389315,3.82930656 C14.4064247,4.95866106 14.2875972,6.77858412 13.1520414,7.91322853 L8.08793496,12.977335 C8.03938157,13.0258883 7.95981843,13.0258883 7.91126504,12.977335 L2.71726504,7.78333496 C1.55364058,6.6197105 1.60045462,4.71723244 2.83001696,3.61018563 C3.95815633,2.59425599 5.77914934,2.71287943 6.91293496,3.84666504 L7.73377362,4.6685036 C7.88013973,4.81504799 8.11759368,4.81518258 8.26412581,4.6688042 L9.21712581,3.7168042 C10.3808753,2.55305483 12.2832659,2.59987353 13.389315,3.82930656 Z"/>
  </g>
</svg>
