<svg xmlns="http://www.w3.org/2000/svg" width="16" height="16" viewBox="0 0 16 16">
  <g fill="none" fill-rule="evenodd">
    <polygon points="0 16 15.999 16 15.999 0 0 0"/>
    <path fill="#000" fill-rule="nonzero" d="M8.7753233,3.2747233 L7.999,4.049 L7.35498426,3.40483093 C5.99319689,2.0430435 3.79526967,1.89986575 2.41180385,3.14572594 C0.91584443,4.49262561 0.858850526,6.80880392 2.2753233,8.2252767 L7.4693233,13.4192767 C7.76195438,13.7119078 8.23724562,13.7119078 8.5298767,13.4192767 L13.5938767,8.3552767 C14.9574269,6.99282084 15.1008749,4.79581937 13.853867,3.41119605 C12.5080412,1.91523825 10.1918118,1.85823479 8.7753233,3.2747233 Z M13.4822433,3.74570438 C14.5453148,4.92609272 14.4215631,6.82143147 13.2403943,8.00165235 L8.1763233,13.0657233 C8.07895438,13.1630922 7.92024562,13.1630922 7.8228767,13.0657233 L2.6288767,7.8717233 C1.41468257,6.65752918 1.46353258,4.67231107 2.74637797,3.51729042 C3.925579,2.45537795 5.82195885,2.57891224 7.0013233,3.7582767 L7.82221574,4.58016907 C7.91979315,4.67786533 8.07809578,4.67795505 8.17578387,4.58036947 L9.12878387,3.62836947 C10.3430626,2.41409082 12.328221,2.46294648 13.4822433,3.74570438 Z"/>
  </g>
</svg>
