<svg xmlns="http://www.w3.org/2000/svg" width="16" height="16" viewBox="0 0 16 16">
  <g fill="none" fill-rule="evenodd">
    <polygon points="0 16 15.999 16 15.999 0 0 0"/>
    <path fill="#000" d="M8.3746,13.2425 L13.4386,8.1785 C14.6836,6.9335 14.8666,4.8865 13.6886,3.5785 C12.4336,2.1835 10.2826,2.1415 8.9726,3.4515 L8.0206,4.4035 L7.1986,3.5815 C5.9546,2.3375 3.9066,2.1545 2.5996,3.3315 C1.2046,4.5875 1.1626,6.7385 2.4726,8.0485 L7.6666,13.2425 C7.8616,13.4375 8.1796,13.4375 8.3746,13.2425" opacity=".2"/>
    <path fill="#000" fill-rule="nonzero" d="M8.61904661,3.09794661 L8.021,3.696 L7.55215339,3.22794661 C6.09931591,1.77510913 3.75061501,1.62210966 2.26500771,2.95995189 C0.662500355,4.40278288 0.601434503,6.88444128 2.11904661,8.40205339 L7.31304661,13.5960534 C7.70330876,13.9863155 8.33789124,13.9863155 8.72815339,13.5960534 L13.7921534,8.53205339 C15.2460284,7.07817839 15.3989632,4.73046982 14.0601341,3.24389211 C12.6184514,1.64138414 10.1366864,1.58030677 8.61904661,3.09794661 Z M13.3168867,3.91290875 C14.2879321,4.99111544 14.1742855,6.73570768 13.0850466,7.82494661 L8.02015339,12.8889466 L2.82615339,7.69494661 C1.71309859,6.58189181 1.75787665,4.76215381 2.93415594,3.70308084 C4.01123366,2.73313404 5.75683983,2.84684661 6.84504661,3.93505339 L7.66704661,4.75705339 C7.86230876,4.95231554 8.17889124,4.95231554 8.37415339,4.75705339 L9.32615339,3.80505339 C10.4391879,2.69201884 12.2588109,2.73680059 13.3168867,3.91290875 Z"/>
  </g>
</svg>
