<svg id="Layer_1" data-name="Layer 1" xmlns="http://www.w3.org/2000/svg" viewBox="0 0 256 256">
  <rect width="256" height="256" fill="none"/>
  <path d="M201.53906,54.46094a103.95314,103.95314,0,1,0,0,147.07812A104.12262,104.12262,0,0,0,201.53906,54.46094Zm-83.88281,99.88281a7.99915,7.99915,0,1,1-11.3125,11.3125l-32-32a7.99708,7.99708,0,0,1,0-11.3125l32-32a7.99915,7.99915,0,0,1,11.3125,11.3125L91.3125,128Zm56,0a7.99915,7.99915,0,1,1-11.3125,11.3125l-32-32a7.99708,7.99708,0,0,1,0-11.3125l32-32a7.99915,7.99915,0,0,1,11.3125,11.3125L147.3125,128Z"/>
</svg>
