<svg xmlns="http://www.w3.org/2000/svg" width="16" height="16" viewBox="0 0 16 16">
  <g fill="none" fill-rule="evenodd">
    <polygon points="0 16 16 16 16 0 0 0"/>
    <path fill="#000" fill-rule="nonzero" d="M4.87496939,2.9538536 C7.38660891,1.5048308 10.596448,2.36492223 12.0454238,4.87543019 C13.2166112,6.90317024 12.8808263,9.38731904 11.385286,11.0318037 L13.6768767,13.3234233 C13.7745078,13.4210544 13.7745078,13.5793456 13.6768767,13.6769767 C13.5955175,13.7583359 13.4720331,13.7718958 13.3766322,13.7176563 L13.3233233,13.6769767 L11.0320306,11.3846793 C10.7594813,11.632024 10.4565975,11.8543237 10.1248985,12.0459072 C7.61363837,13.495761 4.40358904,12.6352885 2.95441543,10.1244377 C1.50441292,7.61396994 2.36420779,4.40402578 4.87496939,2.9538536 Z M11.492628,4.92884855 C10.1311633,2.81007322 7.33051802,2.11443443 5.12493772,3.38688457 C2.85338901,4.69889158 2.07550442,7.60303322 3.38742378,9.87443019 C4.69858876,12.146166 7.60281612,12.9246611 9.87486228,11.6129154 C12.146411,10.3009084 12.9242956,7.39676678 11.6124154,5.12543772 L11.6124154,5.12543772 Z"/>
  </g>
</svg>
