<svg xmlns="http://www.w3.org/2000/svg" width="16" height="16" viewBox="0 0 16 16">
  <g fill="none" fill-rule="evenodd">
    <polygon points="0 16 16 16 16 0 0 0"/>
    <path fill="#000" fill-rule="nonzero" d="M4.81344529,2.84561433 C7.38393396,1.36201987 10.6702234,2.24268558 12.1536857,4.81294529 C13.3317948,6.85266927 13.0205075,9.34350774 11.5569864,11.0268575 L13.765165,13.235035 C13.9116117,13.3814816 13.9116117,13.6189184 13.765165,13.765365 C13.6396394,13.8908907 13.4472637,13.9088229 13.3026381,13.8191618 L13.234835,13.765365 L11.026362,11.5568361 C10.7710273,11.7783131 10.4910021,11.9788043 10.1873978,12.1541608 C7.61634393,13.638536 4.32983911,12.7575692 2.84617315,10.1869566 C1.36152083,7.61649772 2.24211304,4.33015021 4.81344529,2.84561433 Z M11.3875214,4.99651159 C10.0619304,2.93356156 7.33507589,2.2561747 5.18839778,3.49516081 C2.97584958,4.7725559 2.21818526,7.6001397 3.49568567,9.81194529 C4.77233869,12.0238854 7.60011056,12.7818862 9.81234342,11.5046731 C12.0241157,10.227192 12.7815227,7.39950096 11.5041731,5.18795658 L11.5041731,5.18795658 Z"/>
  </g>
</svg>
