<svg xmlns="http://www.w3.org/2000/svg" width="16" height="16" viewBox="0 0 16 16">
  <g fill="none" fill-rule="evenodd">
    <polygon points="0 16 16 16 16 0 0 0"/>
    <path fill="#000" d="M4.9031,8.9996 C4.0761,7.5676 4.5681,5.7296 6.0011,4.9026 C6.4571,4.6396 6.9731,4.4996 7.4961,4.4996 C8.5661,4.4996 9.5631,5.0746 10.0971,6.0006 C10.9241,7.4326 10.4311,9.2706 9.0001,10.0976 C8.5441,10.3606 8.0261,10.4996 7.5051,10.4996 C6.4341,10.4996 5.4371,9.9246 4.9031,8.9996 M14.2071,12.7926 L12.0171,10.6026 C13.1741,8.9096 13.3541,6.6416 12.2621,4.7506 C10.7461,2.1246 7.3741,1.2216 4.7511,2.7376 C3.4781,3.4726 2.5681,4.6576 2.1881,6.0766 C1.8071,7.4956 2.0031,8.9776 2.7381,10.2496 C3.7561,12.0116 5.6071,12.9986 7.5091,12.9986 C8.4421,12.9986 9.3861,12.7616 10.2501,12.2626 C10.3771,12.1896 10.4791,12.0936 10.5981,12.0116 L12.7931,14.2076 C12.9881,14.4026 13.2441,14.4996 13.5001,14.4996 C13.7561,14.4996 14.0111,14.4026 14.2071,14.2076 C14.5971,13.8166 14.5971,13.1836 14.2071,12.7926"/>
  </g>
</svg>
