<svg xmlns="http://www.w3.org/2000/svg" width="16" height="16" viewBox="0 0 16 16">
  <g fill="none" fill-rule="evenodd">
    <polygon points="0 16 15.999 16 15.999 0 0 0"/>
    <path fill="#000" d="M5.0007,3.1704 C7.3917,1.7904 10.4487,2.6094 11.8297,5.0004 C13.2097,7.3914 12.3907,10.4484 9.9997,11.8294 C7.6077,13.2104 4.5517,12.3904 3.1707,9.9994 C1.7897,7.6084 2.6087,4.5514 5.0007,3.1704" opacity=".2"/>
    <path fill="#000" fill-rule="nonzero" d="M4.75076038,2.73735244 C7.38095859,1.21929576 10.7436364,2.12034103 12.2626691,4.75032456 C13.4467229,6.80182641 13.1591751,9.2988173 11.7274681,11.0191617 L13.8534251,13.1467183 C14.0486476,13.3420201 14.0485834,13.6586026 13.8532817,13.8538251 C13.6796801,14.0273562 13.4102518,14.0465867 13.215411,13.9115512 L13.1461749,13.8536817 L11.0190045,11.7268868 C10.7820982,11.9236764 10.5253973,12.1031747 10.249697,12.2624144 C7.61897673,13.7812375 4.25705504,12.8799636 2.73773086,10.2494754 C1.21854343,7.61922406 2.11962362,4.25641593 4.75076038,2.73735244 Z M11.2796457,5.05876516 C9.98766526,3.0557596 7.33739476,2.39904685 5.25069703,3.60341441 C3.09793901,4.84629018 2.36076267,7.59741336 3.60366914,9.74932456 C4.84684965,11.9017102 7.59729679,12.6390582 9.74962456,11.3964309 C11.9014784,10.1535575 12.6386896,7.40230407 11.3966524,5.25033962 L11.3966524,5.25033962 Z"/>
  </g>
</svg>
