<svg xmlns="http://www.w3.org/2000/svg" width="16" height="16" viewBox="0 0 16 16">
  <g fill="none" fill-rule="evenodd">
    <polygon points="0 16 16 16 16 0 0 0"/>
    <path fill="#000" fill-rule="nonzero" d="M4.62589057,2.52082866 C7.37573756,0.933714967 10.8913715,1.87584084 12.4783713,4.62549057 C13.676595,6.70003994 13.4345551,9.21089865 12.0622194,11.0008278 L14.0303301,12.9698699 C14.3232233,13.2627631 14.3232233,13.7376369 14.0303301,14.0305301 C13.7640635,14.2967966 13.3473998,14.3210027 13.0537883,14.1031482 L12.9696699,14.0305301 L11.0002871,12.0616412 C10.8036331,12.2121736 10.5950124,12.3517282 10.3747956,12.4789216 C7.62436062,14.0668609 4.10848931,13.124411 2.52134629,10.3745132 C0.933088619,7.62467674 1.87514477,4.10894737 4.62589057,2.52082866 Z M11.0651588,5.1887308 C9.84454062,3.30152744 7.3446129,2.68359041 5.37579555,3.81992162 C3.34261786,4.99375874 2.64641748,7.59196068 3.82037134,9.62449057 C4.99348849,11.6570435 7.59189388,12.3535613 9.62468684,11.1799463 C11.6571298,10.0060426 12.3531041,7.40770349 11.1793463,5.37551316 L11.1793463,5.37551316 Z"/>
  </g>
</svg>
