<svg xmlns="http://www.w3.org/2000/svg" width="16" height="16" viewBox="0 0 16 16">
  <g fill="none" fill-rule="evenodd">
    <polygon points="0 16 16 16 16 0 0 0"/>
    <path fill="#000" fill-rule="nonzero" d="M4.75042456,2.73803086 C7.38046171,1.21896717 10.7433071,2.11971718 12.2624691,4.74992456 L12.2624691,4.74992456 L12.3744879,4.95373984 C13.4264506,6.96577653 13.1118417,9.35637505 11.7269736,11.0196952 L13.8537534,13.1466466 C14.0490155,13.3419088 14.0490155,13.6584912 13.8537534,13.8537534 C13.680187,14.0273197 13.4107626,14.0466049 13.2158945,13.9116088 L13.1466466,13.8537534 L11.0193665,11.7263416 C10.7823264,11.9232025 10.5254637,12.1027363 10.2495754,12.2619691 C7.61941114,13.7811063 4.25552725,12.8801692 2.73740721,10.2498612 C1.21940853,7.61866352 2.12046314,4.25595085 4.75042456,2.73803086 Z M11.3965309,5.25007544 C10.1535755,3.09807962 7.40233514,2.36115018 5.25043962,3.60404756 C3.09869947,4.84595529 2.3614976,7.59717377 3.60354756,9.75006038 C4.8454637,11.9018151 7.59757318,12.6389028 9.74956038,11.3959524 C11.9013005,10.1540447 12.6385024,7.40282623 11.3965309,5.25007544 Z"/>
  </g>
</svg>
