<svg id="Layer_1" data-name="Layer 1" xmlns="http://www.w3.org/2000/svg" viewBox="0 0 256 256">
  <rect width="256" height="256" fill="none"/>
  <path d="M20.20855,75.93124c63.48474-47.90809,152.098-47.90812,215.58263.00015a8.015,8.015,0,0,1,1.201,11.61025c-19.04723,22.44929-82.94714,97.76169-102.95188,121.33925a7.93583,7.93583,0,0,1-12.14044-.0705L19.03968,87.57941A8.055,8.055,0,0,1,20.20855,75.93124Z" opacity="0.2"/>
  <line x1="223.99635" y1="55.99421" x2="175.99635" y2="103.99421" fill="none" stroke="#000" stroke-linecap="round" stroke-linejoin="round" stroke-width="16"/>
  <line x1="223.99635" y1="103.99421" x2="175.99635" y2="55.99421" fill="none" stroke="#000" stroke-linecap="round" stroke-linejoin="round" stroke-width="16"/>
  <path d="M202.73959,127.91193c-25.42164,29.962-55.96036,65.9549-68.69927,80.969a7.93583,7.93583,0,0,1-12.14044-.0705L19.03968,87.57941a8.055,8.055,0,0,1,1.16887-11.64817A179.20728,179.20728,0,0,1,147.6789,41.073" fill="none" stroke="#000" stroke-linecap="round" stroke-linejoin="round" stroke-width="16"/>
</svg>
