<svg id="Raw" xmlns="http://www.w3.org/2000/svg" viewBox="0 0 256 256">
  <rect width="256" height="256" fill="none"/>
  <path d="M42.23414,42.98667a8,8,0,0,0-10.24,7.68V189.33333a8,8,0,0,0,10.24,7.68L136,169.665V70.335Z" opacity="0.2"/>
  <path d="M31.99414,50.66667V189.33333a8,8,0,0,0,10.24,7.68l176-51.33333a8,8,0,0,0,5.76-7.68V102a8,8,0,0,0-5.76-7.68l-176-51.33333A8,8,0,0,0,31.99414,50.66667Z" fill="none" stroke="#000" stroke-linecap="round" stroke-linejoin="round" stroke-width="16"/>
  <path d="M184,155.665V192a8,8,0,0,1-8,8H144a8,8,0,0,1-8-8V70.335" fill="none" stroke="#000" stroke-linecap="round" stroke-linejoin="round" stroke-width="16"/>
</svg>
