<svg id="Raw" xmlns="http://www.w3.org/2000/svg" viewBox="0 0 256 256">
  <rect width="256" height="256" fill="none"/>
  <path d="M240,207.9834H224V136c0-.04785-.00635-.09375-.00708-.14111-.00269-.14307-.01147-.28662-.02173-.43116-.00976-.13769-.021-.2749-.0376-.41064-.00634-.0498-.00659-.09863-.01367-.14844L208.90137,29.73633A16.08054,16.08054,0,0,0,193.06152,16h-18.123a16.08053,16.08053,0,0,0-15.83985,13.7373l-11.55908,80.91749L108.7998,81.6001A7.99978,7.99978,0,0,0,96,88v32L44.7998,81.6001A7.99978,7.99978,0,0,0,32,88V207.9834H16a8,8,0,0,0,0,16H39.6665c.11158.00439.221.0166.3335.0166s.22192-.01221.3335-.0166h175.333c.11158.00439.22095.0166.3335.0166s.22192-.01221.3335-.0166H240a8,8,0,0,0,0-16ZM100,184H72a8,8,0,0,1,0-16h28a8,8,0,0,1,0,16Zm84,0H156a8,8,0,0,1,0-16h28a8,8,0,0,1,0,16Zm-13.333-56-8.52832-6.39648L174.93848,32h18.123l13.71411,96Z"/>
</svg>
