<svg id="Raw" xmlns="http://www.w3.org/2000/svg" viewBox="0 0 256 256">
  <rect width="256" height="256" fill="none"/>
  <path d="M200,24.00781H56a16.01833,16.01833,0,0,0-16,16v176a16.01833,16.01833,0,0,0,16,16H200a16.01833,16.01833,0,0,0,16-16v-176A16.01833,16.01833,0,0,0,200,24.00781ZM88,200a12,12,0,1,1,12-12A12.01375,12.01375,0,0,1,88,200Zm0-40a12,12,0,1,1,12-12A12.01375,12.01375,0,0,1,88,160Zm40,40a12,12,0,1,1,12-12A12.01375,12.01375,0,0,1,128,200Zm0-40a12,12,0,1,1,12-12A12.01375,12.01375,0,0,1,128,160Zm40,40a12,12,0,1,1,12-12A12.01375,12.01375,0,0,1,168,200Zm0-40a12,12,0,1,1,12-12A12.01375,12.01375,0,0,1,168,160Zm16-56a7.99977,7.99977,0,0,1-8,8H80a7.99977,7.99977,0,0,1-8-8V64a7.99977,7.99977,0,0,1,8-8h96a7.99977,7.99977,0,0,1,8,8Z"/>
</svg>
