<svg id="Raw" xmlns="http://www.w3.org/2000/svg" viewBox="0 0 256 256">
  <rect width="256" height="256" fill="none"/>
  <path d="M200,24H56A16.01833,16.01833,0,0,0,40,40V216a16.01833,16.01833,0,0,0,16,16H200a16.01833,16.01833,0,0,0,16-16V40A16.01833,16.01833,0,0,0,200,24ZM88,199.99219a12,12,0,1,1,12-12A12.01375,12.01375,0,0,1,88,199.99219Zm0-40a12,12,0,1,1,12-12A12.01375,12.01375,0,0,1,88,159.99219Zm40,40a12,12,0,1,1,12-12A12.01375,12.01375,0,0,1,128,199.99219Zm0-40a12,12,0,1,1,12-12A12.01375,12.01375,0,0,1,128,159.99219Zm40,40a12,12,0,1,1,12-12A12.01375,12.01375,0,0,1,168,199.99219Zm0-40a12,12,0,1,1,12-12A12.01375,12.01375,0,0,1,168,159.99219Zm16-56a7.99977,7.99977,0,0,1-8,8H80a7.99977,7.99977,0,0,1-8-8v-40a7.99977,7.99977,0,0,1,8-8h96a7.99977,7.99977,0,0,1,8,8Z"/>
</svg>
