<svg id="Layer_1" data-name="Layer 1" xmlns="http://www.w3.org/2000/svg" viewBox="0 0 256 256">
  <rect width="256" height="256" fill="none"/>
  <path d="M222.85742,180.69727h0a55.69528,55.69528,0,0,0-23.44433-35.063.31793.31793,0,0,1-.01416-.06885L188.68066,38.40771A15.94953,15.94953,0,0,0,172.76025,24H83.23975A15.94952,15.94952,0,0,0,67.31934,38.40771L56.60107,145.56543a.31793.31793,0,0,1-.01416.06885,55.69718,55.69718,0,0,0-23.44433,35.063A16.02766,16.02766,0,0,0,48.80371,200H120v40a8,8,0,0,0,16,0V200h71.19629a16.02766,16.02766,0,0,0,15.66113-19.30273Z"/>
</svg>
