<svg id="Raw" xmlns="http://www.w3.org/2000/svg" viewBox="0 0 256 256">
  <rect width="256" height="256" fill="none"/>
  <path d="M231.999,107.31445,173.47168,165.8418c4.55664,12.67968,6.44531,33.88965-13.18945,59.98584a15.96991,15.96991,0,0,1-11.64649,6.33007q-.5625.03955-1.124.03956a16.0039,16.0039,0,0,1-11.31934-4.69141L88,179.314,53.65723,213.65674a8.00018,8.00018,0,0,1-11.31446-11.31348L76.686,168,28.2959,119.60986a16.01339,16.01339,0,0,1,1.2832-23.78613C55.00488,75.312,79.34082,79.35205,89.99316,82.69287L148.68555,24l.001-.001a16.02135,16.02135,0,0,1,22.627,0L232,84.68652a15.99888,15.99888,0,0,1-.001,22.62793Z"/>
</svg>
