<svg id="Layer_1" data-name="Layer 1" xmlns="http://www.w3.org/2000/svg" viewBox="0 0 256 256">
  <rect width="256" height="256" fill="none"/>
  <g>
    <path d="M137.89063,111.90625a14,14,0,1,0-19.79688-.01562A14.318,14.318,0,0,0,137.89063,111.90625Z"/>
    <path d="M128,132a17.99808,17.99808,0,0,0-12.73437,30.71875,18.43509,18.43509,0,0,0,25.45312.01563A18,18,0,0,0,128,132Z"/>
    <path d="M208,32H48A16.02085,16.02085,0,0,0,32,48V208a16.02085,16.02085,0,0,0,16,16H208a16.02085,16.02085,0,0,0,16-16V48A16.02085,16.02085,0,0,0,208,32ZM152.03125,174.04688a33.99637,33.99637,0,1,1-48.0625-48.09375,30.89828,30.89828,0,0,1,3.10645-2.50782c-.0918-.08984-.20313-.15136-.29395-.24218a29.98907,29.98907,0,0,1,.01563-42.42188c11.29687-11.3125,31.09375-11.32812,42.42187.01563a29.98907,29.98907,0,0,1-.01562,42.42187c-.08594.08594-.19141.14355-.27833.22852a30.83759,30.83759,0,0,1,3.12208,2.52148,33.98762,33.98762,0,0,1-.01563,48.07813Z"/>
  </g>
</svg>
