<svg id="Layer_1" data-name="Layer 1" xmlns="http://www.w3.org/2000/svg" viewBox="0 0 256 256">
  <rect width="256" height="256" fill="none"/>
  <path d="M240,112H229.199L201.42188,49.501A16.01649,16.01649,0,0,0,186.80078,40H69.19922a16.0158,16.0158,0,0,0-14.6211,9.502L26.801,112H16a8,8,0,0,0,0,16h8v80a16.01833,16.01833,0,0,0,16,16H64a16.01833,16.01833,0,0,0,16-16V192h96v16a16.01833,16.01833,0,0,0,16,16h24a16.01833,16.01833,0,0,0,16-16V128h8a8,8,0,0,0,0-16ZM64,208H40V192H64Zm16-48H64a8,8,0,0,1,0-16H80a8,8,0,0,1,0,16Zm96,0a8,8,0,0,1,0-16h16a8,8,0,0,1,0,16Zm40,48H192V192h24Z"/>
</svg>
