<svg id="Raw" xmlns="http://www.w3.org/2000/svg" viewBox="0 0 256 256">
  <rect width="256" height="256" fill="none"/>
  <path d="M205.65674,61.65674l-144,144a7.99984,7.99984,0,0,1-11.31348-11.31348l144-144a7.99984,7.99984,0,0,1,11.31348,11.31348ZM50.54443,101.45581A36.0403,36.0403,0,1,1,76,111.98315,35.76294,35.76294,0,0,1,50.54443,101.45581ZM56,76A20,20,0,1,0,90.14209,61.85791v-.00024A20,20,0,0,0,56,76ZM216,180a36.00012,36.00012,0,1,1-10.54443-25.45581A35.76281,35.76281,0,0,1,216,180Zm-16,0a20.00016,20.00016,0,1,0-5.85791,14.14209A19.86721,19.86721,0,0,0,200,180Z"/>
</svg>
