<svg xmlns="http://www.w3.org/2000/svg" width="16" height="16" viewBox="0 0 16 16">
  <g fill="none" fill-rule="evenodd">
    <polygon points="0 16 16 16 16 0 0 0"/>
    <path fill="#000" fill-rule="nonzero" d="M1.625,3.9999 C1.625,3.51679322 2.01689322,3.1249 2.5,3.1249 L2.5,3.1249 L5.833,3.1249 C6.02207055,3.1249 6.20676951,3.18616378 6.35905144,3.29993858 L6.35905144,3.29993858 L8.125,4.6249 L13.5,4.6249 C13.9459447,4.6249 14.314169,4.95882085 14.3681802,5.39016985 L14.375,5.4999 L14.375,12.4999 C14.375,12.9458447 14.0410792,13.314069 13.6097301,13.3680802 L13.5,13.3749 L2.5,13.3749 C2.05497836,13.3749 1.685973,13.0401271 1.63183621,12.6094335 L1.625,12.4999 Z M6.35844713,6.70031386 C6.20676951,6.81363622 6.02207055,6.8749 5.833,6.8749 L5.833,6.8749 L2.375,6.8749 L2.375,12.4999 C2.375,12.5542146 2.41154834,12.6016258 2.460929,12.6184177 L2.5,12.6249 L13.5,12.6249 C13.5551146,12.6249 13.6020458,12.5889917 13.6186137,12.539355 L13.625,12.4999 L13.625,5.4999 C13.625,5.44478542 13.5890917,5.39785417 13.539455,5.38128625 L13.5,5.3749 L8.124,5.3749 Z M5.833,3.8749 L2.5,3.8749 C2.43110678,3.8749 2.375,3.93100678 2.375,3.9999 L2.375,3.9999 L2.375,6.124 L5.8534309,6.12324106 L5.87325327,6.11839603 L5.90894856,6.09993858 L7.374,4.999 L5.89219107,3.88942823 L5.8733288,3.88146052 L5.833,3.8749 Z"/>
  </g>
</svg>
