<svg xmlns="http://www.w3.org/2000/svg" width="16" height="16" viewBox="0 0 16 16">
  <g fill="none" fill-rule="evenodd">
    <polygon points="0 16 16 16 16 0 0 0"/>
    <path fill="#000" d="M5.8336,6.4999 L1.9996,6.4999 L1.9996,3.9999 C1.9996,3.7239 2.2246,3.4999 2.4996,3.4999 L5.8336,3.4999 C5.9406,3.4999 6.0466,3.5349 6.1336,3.5999 L7.9996,4.9999 L6.1336,6.3999 C6.0466,6.4649 5.9406,6.4999 5.8336,6.4999" opacity=".2"/>
    <path fill="#000" fill-rule="nonzero" d="M1.4996,3.9999 C1.4996,3.44794784 1.94826669,2.9999 2.4996,2.9999 L2.4996,2.9999 L5.8336,2.9999 C6.04887237,2.9999 6.25977026,3.07002614 6.43366858,3.19995145 L6.43366858,3.19995145 L8.1666,4.4999 L13.4996,4.4999 C14.0123036,4.4999 14.4350883,4.88606295 14.4928702,5.38330518 L14.4996,5.4999 L14.4996,12.4999 C14.4996,13.0126036 14.113437,13.4353883 13.6161948,13.4931702 L13.4996,13.4999 L2.4996,13.4999 C1.98857646,13.4999 1.56435174,13.112711 1.50635547,12.616275 L1.4996,12.4999 Z M6.43286284,6.80045181 C6.25977026,6.92977386 6.04887237,6.9999 5.8336,6.9999 L5.8336,6.9999 L2.4996,6.9999 L2.4996,12.4999 L13.4996,12.4999 L13.4996,5.4999 L8.1646,5.4999 Z M5.83433716,4.00045181 L2.4996,3.9999 L2.499,5.999 L5.8336,5.9999 L7.166,4.999 L5.83433716,4.00045181 Z"/>
  </g>
</svg>
