<svg xmlns="http://www.w3.org/2000/svg" width="16" height="16" viewBox="0 0 16 16">
  <g fill="none" fill-rule="evenodd">
    <polygon points="0 16 16 16 16 0 0 0"/>
    <path fill="#000" fill-rule="nonzero" d="M1.75,3.9999 C1.75,3.58582881 2.08592881,3.2499 2.5,3.2499 L2.5,3.2499 L5.833,3.2499 C5.99512728,3.2499 6.15357708,3.30245706 6.28403429,3.39992572 L6.28403429,3.39992572 L8.083,4.7499 L13.5,4.7499 C13.8795653,4.7499 14.1934692,5.03217352 14.2431507,5.39815935 L14.25,5.4999 L14.25,12.4999 C14.25,12.8794653 13.9677265,13.1933692 13.6017406,13.2430507 L13.5,13.2499 L2.5,13.2499 C2.12135141,13.2499 1.80668357,12.9667862 1.75686843,12.6014306 L1.75,12.4999 Z M6.28363142,6.6001759 C6.15357708,6.69734294 5.99512728,6.7499 5.833,6.7499 L5.833,6.7499 L2.25,6.7499 L2.25,12.4999 C2.25,12.6172676 2.33307271,12.7171071 2.44303699,12.7432374 L2.5,12.7499 L13.5,12.7499 C13.6182247,12.7499 13.717452,12.667562 13.7433899,12.5571779 L13.75,12.4999 L13.75,5.4999 C13.75,5.3816753 13.667662,5.28244805 13.5572779,5.25651015 L13.5,5.2499 L8.082,5.2499 Z M5.833,3.7499 L2.5,3.7499 C2.36207119,3.7499 2.25,3.86197119 2.25,3.9999 L2.25,3.9999 L2.25,6.249 L5.833,6.2499 C5.86923613,6.2499 5.9050718,6.24201993 5.93772367,6.22721273 L5.93772367,6.22721273 L5.98396571,6.19992572 L7.582,4.999 L5.98436858,3.8001759 C5.95532776,3.77847874 5.92189053,3.76336628 5.88672086,3.75570211 L5.88672086,3.75570211 L5.833,3.7499 Z"/>
  </g>
</svg>
