<svg xmlns="http://www.w3.org/2000/svg" width="16" height="16" viewBox="0 0 16 16">
  <g fill="none" fill-rule="evenodd">
    <polygon points="0 16 16 16 16 0 0 0"/>
    <path fill="#000" fill-rule="nonzero" d="M1.5005,4 C1.5005,3.44766643 1.94754811,3 2.5005,3 L2.5005,3 L5.8335,3 C6.04953206,3 6.25947673,3.06998156 6.43346572,3.19997429 L6.43346572,3.19997429 L8.168,4.5 L13.5,4.5 C14.0127036,4.5 14.4354883,4.88616295 14.4932702,5.38340518 L14.5,5.5 L14.5,12.5 C14.5,13.0127036 14.113837,13.4354883 13.6165948,13.4932702 L13.5,13.5 L2.5,13.5 C1.98822494,13.5 1.56464438,13.1129748 1.50674397,12.6164101 L1.5,12.5 Z M6.43276284,6.80055181 C6.25947673,6.93001844 6.04953206,7 5.8335,7 L5.8335,7 L2.5,7 L2.5,12.5 L13.5,12.5 L13.5,5.5 L8.167,5.5 Z M5.83423716,4.00055181 L2.5005,4 L2.5,6 L5.8335,6 L7.166,4.999 L5.83423716,4.00055181 Z"/>
  </g>
</svg>
