<svg xmlns="http://www.w3.org/2000/svg" width="16" height="16" viewBox="0 0 16 16">
  <g fill="none" fill-rule="evenodd">
    <polygon points="0 16 16 16 16 0 0 0"/>
    <path fill="#000" fill-rule="nonzero" d="M1.25,3.9999 C1.25,3.30968644 1.80978644,2.7499 2.5,2.7499 L2.5,2.7499 L5.833,2.7499 C6.10290037,2.7499 6.3663468,2.83728395 6.58410287,2.99997717 L6.58410287,2.99997717 L8.25,4.2499 L13.5,4.2499 C14.1470752,4.2499 14.6795172,4.7418998 14.7435448,5.37211822 L14.75,5.4999 L14.75,12.4999 C14.75,13.1469752 14.2580002,13.6794172 13.6277818,13.7434448 L13.5,13.7499 L2.5,13.7499 C1.85386229,13.7499 1.32059997,13.2570213 1.25646616,12.627517 L1.25,12.4999 Z M13.25,5.749 L8.249,5.7499 L6.58289427,7.00072771 C6.40243804,7.13555133 6.1894131,7.21870523 5.96722511,7.24267809 L5.833,7.2499 L2.75,7.2499 L2.75,12.249 L13.25,12.249 L13.25,5.749 Z M5.75,4.249 L2.75,4.249 L2.75,5.749 L5.75,5.749 L6.749,4.999 L5.75,4.249 Z"/>
  </g>
</svg>
