<svg xmlns="http://www.w3.org/2000/svg" width="16" height="16" viewBox="0 0 16 16">
  <g fill="none" fill-rule="evenodd">
    <polygon points="0 16 15.999 16 15.999 0 0 0"/>
    <path fill="#000" fill-rule="nonzero" d="M10.9996,1.2498 C11.1179467,1.2498 11.2170868,1.33203341 11.2429973,1.44247729 L11.2496,1.4998 L11.2496,2.2498 L12.9996,2.2498 C13.3791653,2.2498 13.6930692,2.53207352 13.7427507,2.89805935 L13.7496,2.9998 L13.7496,12.9998 C13.7496,13.4138712 13.4136712,13.7498 12.9996,13.7498 L12.9996,13.7498 L2.9996,13.7498 C2.5862607,13.7498 2.2496,13.4136037 2.2496,12.9998 L2.2496,12.9998 L2.2496,2.9998 C2.2496,2.58599634 2.5862607,2.2498 2.9996,2.2498 L2.9996,2.2498 L4.7496,2.2498 L4.7496,1.4998 C4.7496,1.36172881 4.86152881,1.2498 4.9996,1.2498 C5.11794673,1.2498 5.21708682,1.33203341 5.24299732,1.44247729 L5.2496,1.4998 L5.2496,2.2498 L10.7496,2.2498 L10.7496,1.4998 C10.7496,1.36172881 10.8615288,1.2498 10.9996,1.2498 Z M13.2496,5.7498 L2.7496,5.7498 L2.7496,12.9998 C2.7496,13.1176629 2.83236231,13.2171486 2.94250396,13.2431677 L2.9996,13.2498 L12.9996,13.2498 C13.1375288,13.2498 13.2496,13.1377288 13.2496,12.9998 L13.2496,12.9998 L13.2496,5.7498 Z M9.6763767,7.8230233 C9.75773592,7.90438253 9.77129579,8.02786688 9.71705631,8.12326781 L9.6763767,8.1765767 L8.3526,9.4998 L9.6763767,10.8230233 C9.77400777,10.9206544 9.77400777,11.0789456 9.6763767,11.1765767 C9.59501747,11.2579359 9.47153312,11.2714958 9.37613219,11.2172563 L9.3228233,11.1765767 L7.9996,9.8528 L6.6763767,11.1765767 C6.57874562,11.2742078 6.42045438,11.2742078 6.3228233,11.1765767 C6.24146408,11.0952175 6.22790421,10.9717331 6.28214369,10.8763322 L6.3228233,10.8230233 L7.6466,9.4998 L6.3228233,8.1765767 C6.22519223,8.07894562 6.22519223,7.92065438 6.3228233,7.8230233 C6.40418253,7.74166408 6.52766688,7.72810421 6.62306781,7.78234369 L6.6763767,7.8230233 L7.9996,9.1468 L9.3228233,7.8230233 C9.42045438,7.72539223 9.57874562,7.72539223 9.6763767,7.8230233 Z M4.7496,2.7498 L2.9996,2.7498 C2.8622487,2.7498 2.7496,2.86229332 2.7496,2.9998 L2.7496,2.9998 L2.7496,5.2498 L13.2496,5.2498 L13.2496,2.9998 C13.2496,2.8815753 13.167262,2.78234805 13.0568779,2.75641015 L12.9996,2.7498 L11.2496,2.7498 L11.2496,3.4998 C11.2496,3.63787119 11.1376712,3.7498 10.9996,3.7498 C10.8812533,3.7498 10.7821132,3.66756659 10.7562027,3.55712271 L10.7496,3.4998 L10.7496,2.7498 L5.2496,2.7498 L5.2496,3.4998 C5.2496,3.63787119 5.13767119,3.7498 4.9996,3.7498 C4.88125327,3.7498 4.78211318,3.66756659 4.75620268,3.55712271 L4.7496,3.4998 L4.7496,2.7498 Z"/>
  </g>
</svg>
