<svg xmlns="http://www.w3.org/2000/svg" width="16" height="16" viewBox="0 0 16 16">
  <g fill="none" fill-rule="evenodd">
    <polygon points="0 16 15.999 16 15.999 0 0 0"/>
    <path fill="#000" fill-rule="nonzero" d="M10.9996,1.1248 C11.1808184,1.1248 11.332014,1.25334325 11.3669813,1.42422442 L11.3746,1.4998 L11.3746,2.1248 L12.9996,2.1248 C13.4455447,2.1248 13.813769,2.45872085 13.8677802,2.89006985 L13.8746,2.9998 L13.8746,12.9998 C13.8746,13.4829068 13.4827068,13.8748 12.9996,13.8748 L12.9996,13.8748 L2.9996,13.8748 C2.51726369,13.8748 2.1246,13.4826779 2.1246,12.9998 L2.1246,12.9998 L2.1246,2.9998 C2.1246,2.51692209 2.51726369,2.1248 2.9996,2.1248 L2.9996,2.1248 L4.6246,2.1248 L4.6246,1.4998 C4.6246,1.29269322 4.79249322,1.1248 4.9996,1.1248 C5.18081843,1.1248 5.33201398,1.25334325 5.36698133,1.42422442 L5.3746,1.4998 L5.3746,2.1248 L10.6246,2.1248 L10.6246,1.4998 C10.6246,1.29269322 10.7924932,1.1248 10.9996,1.1248 Z M13.1246,5.8748 L2.8746,5.8748 L2.8746,12.9998 C2.8746,13.0545459 2.91085325,13.1016984 2.96035195,13.1183695 L2.9996,13.1248 L12.9996,13.1248 C13.0684932,13.1248 13.1246,13.0686932 13.1246,12.9998 L13.1246,12.9998 L13.1246,5.8748 Z M6.69696193,7.68083824 L6.76476504,7.73463496 L7.9996,8.9688 L9.23443496,7.73463496 C9.38088157,7.58818835 9.61831843,7.58818835 9.76476504,7.73463496 C9.89029071,7.86016062 9.90822295,8.05253627 9.81856176,8.19716193 L9.76476504,8.26496504 L8.5306,9.4998 L9.76476504,10.734635 C9.91121165,10.8810816 9.91121165,11.1185184 9.76476504,11.264965 C9.63923938,11.3904907 9.44686373,11.4084229 9.30223807,11.3187618 L9.23443496,11.264965 L7.9996,10.0308 L6.76476504,11.264965 C6.61831843,11.4114117 6.38088157,11.4114117 6.23443496,11.264965 C6.10890929,11.1394394 6.09097705,10.9470637 6.18063824,10.8024381 L6.23443496,10.734635 L7.4686,9.4998 L6.23443496,8.26496504 C6.08798835,8.11851843 6.08798835,7.88108157 6.23443496,7.73463496 C6.35996062,7.60910929 6.55233627,7.59117705 6.69696193,7.68083824 Z M4.6246,2.8748 L2.9996,2.8748 C2.9312457,2.8748 2.8746,2.93136757 2.8746,2.9998 L2.8746,2.9998 L2.8746,5.1248 L13.1246,5.1248 L13.1246,2.9998 C13.1246,2.94468542 13.0886917,2.89775417 13.039055,2.88118625 L12.9996,2.8748 L11.3746,2.8748 L11.3746,3.4998 C11.3746,3.70690678 11.2067068,3.8748 10.9996,3.8748 C10.8183816,3.8748 10.667186,3.74625675 10.6322187,3.57537558 L10.6246,3.4998 L10.6246,2.8748 L5.3746,2.8748 L5.3746,3.4998 C5.3746,3.70690678 5.20670678,3.8748 4.9996,3.8748 C4.81838157,3.8748 4.66718602,3.74625675 4.63221867,3.57537558 L4.6246,3.4998 L4.6246,2.8748 Z"/>
  </g>
</svg>
