<svg xmlns="http://www.w3.org/2000/svg" width="16" height="16" viewBox="0 0 16 16">
  <g fill="none" fill-rule="evenodd">
    <polygon points="0 16 15.999 16 15.999 0 0 0"/>
    <path fill="#000" fill-rule="nonzero" d="M10.9996,0.7498 C11.3792958,0.7498 11.693091,1.03195388 11.7427534,1.39802944 L11.7496,1.4998 L11.7496,1.7498 L12.9996,1.7498 C13.6466752,1.7498 14.1791172,2.2417998 14.2431448,2.87201822 L14.2496,2.9998 L14.2496,12.9998 C14.2496,13.6900136 13.6898136,14.2498 12.9996,14.2498 L12.9996,14.2498 L2.9996,14.2498 C2.31027269,14.2498 1.7496,13.6899006 1.7496,12.9998 L1.7496,12.9998 L1.7496,2.9998 C1.7496,2.30969935 2.31027269,1.7498 2.9996,1.7498 L2.9996,1.7498 L4.2496,1.7498 L4.2496,1.4998 C4.2496,1.08558644 4.58538644,0.7498 4.9996,0.7498 C5.37929577,0.7498 5.69309096,1.03195388 5.74275338,1.39802944 L5.7496,1.4998 L5.7496,1.7498 L10.2496,1.7498 L10.2496,1.4998 C10.2496,1.08558644 10.5853864,0.7498 10.9996,0.7498 Z M12.7486,6.2498 L3.2486,6.2498 L3.249,12.749 L12.749,12.749 L12.7486,6.2498 Z M6.94581165,7.39685176 L7.02993009,7.46946991 L7.9996,8.4388 L8.96926991,7.46946991 C9.26216313,7.1765767 9.73703687,7.1765767 10.0299301,7.46946991 C10.2961966,7.73573648 10.3204027,8.15240016 10.1025482,8.44601165 L10.0299301,8.53013009 L9.0606,9.4998 L10.0299301,10.4694699 C10.3228233,10.7623631 10.3228233,11.2372369 10.0299301,11.5301301 C9.76366352,11.7963966 9.34699984,11.8206027 9.05338835,11.6027482 L8.96926991,11.5301301 L7.9996,10.5608 L7.02993009,11.5301301 C6.73703687,11.8230233 6.26216313,11.8230233 5.96926991,11.5301301 C5.70300335,11.2638635 5.6787973,10.8471998 5.89665176,10.5535883 L5.96926991,10.4694699 L6.9386,9.4998 L5.96926991,8.53013009 C5.6763767,8.23723687 5.6763767,7.76236313 5.96926991,7.46946991 C6.23553648,7.20320335 6.65220016,7.1789973 6.94581165,7.39685176 Z M4.2496,3.2488 L3.249,3.249 L3.2486,4.7498 L12.7486,4.7498 L12.749,3.249 L11.7496,3.2488 L11.7496,3.4998 C11.7496,3.91401356 11.4138136,4.2498 10.9996,4.2498 C10.6199042,4.2498 10.306109,3.96764612 10.2564466,3.60157056 L10.2496,3.4998 L10.2496,3.2488 L5.7496,3.2488 L5.7496,3.4998 C5.7496,3.91401356 5.41381356,4.2498 4.9996,4.2498 C4.61990423,4.2498 4.30610904,3.96764612 4.25644662,3.60157056 L4.2496,3.4998 L4.2496,3.2488 Z"/>
  </g>
</svg>
