<svg id="Raw" xmlns="http://www.w3.org/2000/svg" viewBox="0 0 256 256">
  <rect width="256" height="256" fill="none"/>
  <path d="M207.99414,31.9971h-24v-8a8,8,0,1,0-16,0v8h-80v-8a8,8,0,0,0-16,0v8h-24a16.01583,16.01583,0,0,0-16,16v160a16.01582,16.01582,0,0,0,16,16h160a16.01581,16.01581,0,0,0,16-16v-160A16.01582,16.01582,0,0,0,207.99414,31.9971ZM157.65039,170.34085a7.99915,7.99915,0,1,1-11.3125,11.3125L127.99414,163.3096l-18.34375,18.34375a7.99915,7.99915,0,0,1-11.3125-11.3125l18.34375-18.34375L98.33789,133.65335a7.99915,7.99915,0,1,1,11.3125-11.3125l18.34375,18.34375,18.34375-18.34375a7.99915,7.99915,0,1,1,11.3125,11.3125L139.30664,151.9971ZM207.99414,79.9971h-160v-32h24v8a8,8,0,0,0,16,0v-8h80v8a8,8,0,1,0,16,0v-8h24Z"/>
</svg>
