<svg xmlns="http://www.w3.org/2000/svg" width="16" height="16" viewBox="0 0 16 16">
  <g fill="none" fill-rule="evenodd">
    <polygon points="0 16 15.999 16 15.999 0 0 0"/>
    <path fill="#000" d="M2.4996,5.4998 L13.4996,5.4998 L13.4996,2.9998 C13.4996,2.7238 13.2756,2.4998 12.9996,2.4998 L2.9996,2.4998 C2.7246,2.4998 2.4996,2.7238 2.4996,2.9998 L2.4996,5.4998 Z" opacity=".2"/>
    <path fill="#000" fill-rule="nonzero" d="M10.9996,0.9998 C11.2450599,0.9998 11.4492084,1.17667516 11.4915443,1.40992437 L11.4996,1.4998 L11.4996,1.9998 L12.9996,1.9998 C13.5123036,1.9998 13.9350883,2.38596295 13.9928702,2.88320518 L13.9996,2.9998 L13.9996,12.9998 C13.9996,13.5519424 13.5517424,13.9998 12.9996,13.9998 L12.9996,13.9998 L2.9996,13.9998 C2.44826669,13.9998 1.9996,13.5517522 1.9996,12.9998 L1.9996,12.9998 L1.9996,2.9998 C1.9996,2.44784784 2.44826669,1.9998 2.9996,1.9998 L2.9996,1.9998 L4.4996,1.9998 L4.4996,1.4998 C4.4996,1.22365763 4.72345763,0.9998 4.9996,0.9998 C5.24505989,0.9998 5.44920837,1.17667516 5.49154433,1.40992437 L5.4996,1.4998 L5.4996,1.9998 L10.4996,1.9998 L10.4996,1.4998 C10.4996,1.22365763 10.7234576,0.9998 10.9996,0.9998 Z M12.9996,5.9998 L2.9996,5.9998 L2.9996,12.9998 L12.9996,12.9998 L12.9996,5.9998 Z M6.7839055,7.58839116 L6.85315339,7.64624661 L7.9996,8.7928 L9.14604661,7.64624661 C9.34130876,7.45098446 9.65789124,7.45098446 9.85315339,7.64624661 C10.0267197,7.81981296 10.0460049,8.08923736 9.91100884,8.2841055 L9.85315339,8.35335339 L8.7066,9.4998 L9.85315339,10.6462466 C10.0484155,10.8415088 10.0484155,11.1580912 9.85315339,11.3533534 C9.67958704,11.5269197 9.41016264,11.5462049 9.2152945,11.4112088 L9.14604661,11.3533534 L7.9996,10.2068 L6.85315339,11.3533534 C6.65789124,11.5486155 6.34130876,11.5486155 6.14604661,11.3533534 C5.97248026,11.179787 5.95319511,10.9103626 6.08819116,10.7154945 L6.14604661,10.6462466 L7.2926,9.4998 L6.14604661,8.35335339 C5.95078446,8.15809124 5.95078446,7.84150876 6.14604661,7.64624661 C6.31961296,7.47268026 6.58903736,7.45339511 6.7839055,7.58839116 Z M4.4996,2.9998 L2.9996,2.9998 L2.9996,4.9998 L12.9996,4.9998 L12.9996,2.9998 L11.4996,2.9998 L11.4996,3.4998 C11.4996,3.77594237 11.2757424,3.9998 10.9996,3.9998 C10.7541401,3.9998 10.5499916,3.82292484 10.5076557,3.58967563 L10.4996,3.4998 L10.4996,2.9998 L5.4996,2.9998 L5.4996,3.4998 C5.4996,3.77594237 5.27574237,3.9998 4.9996,3.9998 C4.75414011,3.9998 4.54999163,3.82292484 4.50765567,3.58967563 L4.4996,3.4998 L4.4996,2.9998 Z"/>
  </g>
</svg>
