<svg xmlns="http://www.w3.org/2000/svg" width="16" height="16" viewBox="0 0 16 16">
  <g fill="none" fill-rule="evenodd">
    <polygon points="0 16 16 16 16 0 0 0"/>
    <path fill="#000" fill-rule="nonzero" d="M11,1 C11.2454599,1 11.4496084,1.17687516 11.4919443,1.41012437 L11.5,1.5 L11.5,2 L13,2 C13.5127036,2 13.9354883,2.38616295 13.9932702,2.88340518 L14,3 L14,13 C14,13.5521424 13.5521424,14 13,14 L13,14 L3,14 C2.44785763,14 2,13.5521424 2,13 L2,13 L2,3 C2,2.44785763 2.44785763,2 3,2 L3,2 L4.5,2 L4.5,1.5 C4.5,1.22385763 4.72385763,1 5,1 C5.24545989,1 5.44960837,1.17687516 5.49194433,1.41012437 L5.5,1.5 L5.5,2 L10.5,2 L10.5,1.5 C10.5,1.22385763 10.7238576,1 11,1 Z M13,6 L3,6 L3,13 L13,13 L13,6 Z M6.7843055,7.58859116 L6.85355339,7.64644661 L8,8.793 L9.14644661,7.64644661 C9.34170876,7.45118446 9.65829124,7.45118446 9.85355339,7.64644661 C10.0271197,7.82001296 10.0464049,8.08943736 9.91140884,8.2843055 L9.85355339,8.35355339 L8.707,9.5 L9.85355339,10.6464466 C10.0488155,10.8417088 10.0488155,11.1582912 9.85355339,11.3535534 C9.67998704,11.5271197 9.41056264,11.5464049 9.2156945,11.4114088 L9.14644661,11.3535534 L8,10.207 L6.85355339,11.3535534 C6.65829124,11.5488155 6.34170876,11.5488155 6.14644661,11.3535534 C5.97288026,11.179987 5.95359511,10.9105626 6.08859116,10.7156945 L6.14644661,10.6464466 L7.293,9.5 L6.14644661,8.35355339 C5.95118446,8.15829124 5.95118446,7.84170876 6.14644661,7.64644661 C6.32001296,7.47288026 6.58943736,7.45359511 6.7843055,7.58859116 Z M4.5,3 L3,3 L3,5 L13,5 L13,3 L11.5,3 L11.5,3.5 C11.5,3.77614237 11.2761424,4 11,4 C10.7545401,4 10.5503916,3.82312484 10.5080557,3.58987563 L10.5,3.5 L10.5,3 L5.5,3 L5.5,3.5 C5.5,3.77614237 5.27614237,4 5,4 C4.75454011,4 4.55039163,3.82312484 4.50805567,3.58987563 L4.5,3.5 L4.5,3 Z"/>
  </g>
</svg>
