<svg xmlns="http://www.w3.org/2000/svg" width="16" height="16" viewBox="0 0 16 16">
  <g fill="none" fill-rule="evenodd">
    <polygon points="0 16 15.999 16 15.999 0 0 0"/>
    <path fill="#000" d="M12.9996,4.9998 L2.9996,4.9998 L2.9996,2.9998 L4.4996,2.9998 L4.4996,3.4998 C4.4996,3.7758 4.7236,3.9998 4.9996,3.9998 C5.2756,3.9998 5.4996,3.7758 5.4996,3.4998 L5.4996,2.9998 L10.4996,2.9998 L10.4996,3.4998 C10.4996,3.7758 10.7236,3.9998 10.9996,3.9998 C11.2756,3.9998 11.4996,3.7758 11.4996,3.4998 L11.4996,2.9998 L12.9996,2.9998 L12.9996,4.9998 Z M9.8536,10.6458 C10.0486,10.8418 10.0486,11.1578 9.8536,11.3538 C9.7556,11.4508 9.6276,11.4998 9.4996,11.4998 C9.3716,11.4998 9.2436,11.4508 9.1456,11.3538 L7.9996,10.2068 L6.8536,11.3538 C6.7556,11.4508 6.6276,11.4998 6.4996,11.4998 C6.3716,11.4998 6.2436,11.4508 6.1456,11.3538 C5.9506,11.1578 5.9506,10.8418 6.1456,10.6458 L7.2926,9.4998 L6.1456,8.3538 C5.9506,8.1578 5.9506,7.8418 6.1456,7.6458 C6.3416,7.4508 6.6576,7.4508 6.8536,7.6458 L7.9996,8.7928 L9.1456,7.6458 C9.3416,7.4508 9.6576,7.4508 9.8536,7.6458 C10.0486,7.8418 10.0486,8.1578 9.8536,8.3538 L8.7066,9.4998 L9.8536,10.6458 Z M12.9996,1.9998 L11.4996,1.9998 L11.4996,1.4998 C11.4996,1.2238 11.2756,0.9998 10.9996,0.9998 C10.7236,0.9998 10.4996,1.2238 10.4996,1.4998 L10.4996,1.9998 L5.4996,1.9998 L5.4996,1.4998 C5.4996,1.2238 5.2756,0.9998 4.9996,0.9998 C4.7236,0.9998 4.4996,1.2238 4.4996,1.4998 L4.4996,1.9998 L2.9996,1.9998 C2.4476,1.9998 1.9996,2.4488 1.9996,2.9998 L1.9996,12.9998 C1.9996,13.5508 2.4476,13.9998 2.9996,13.9998 L12.9996,13.9998 C13.5516,13.9998 13.9996,13.5508 13.9996,12.9998 L13.9996,2.9998 C13.9996,2.4488 13.5516,1.9998 12.9996,1.9998 L12.9996,1.9998 Z"/>
  </g>
</svg>
