<svg id="Layer_1" data-name="Layer 1" xmlns="http://www.w3.org/2000/svg" viewBox="0 0 256 256">
  <path d="M240,120a48.05375,48.05375,0,0,0-48-48H152a8.00039,8.00039,0,0,0-8,8V203.71875a15.965,15.965,0,0,0,7.124,13.3125l10.99317,7.3291a16.00058,16.00058,0,0,0,24.39648-9.43262L198.354,167.56641A48.06211,48.06211,0,0,0,240,120Z"/>
  <path d="M122.02441,67.24121A185.42017,185.42017,0,0,1,50.29,29.92383,15.99837,15.99837,0,0,0,23.999,42.168V197.832a15.84176,15.84176,0,0,0,9.2295,14.49219,16.08621,16.08621,0,0,0,6.80664,1.52441,15.91249,15.91249,0,0,0,10.2539-3.77148,185.42038,185.42038,0,0,1,71.73535-37.31836,7.99948,7.99948,0,0,0,5.97461-7.73926V74.98047A7.99948,7.99948,0,0,0,122.02441,67.24121Z"/>
</svg>
