<svg id="Layer_1" data-name="Layer 1" xmlns="http://www.w3.org/2000/svg" viewBox="0 0 256 256">
  <rect x="0.00049" width="255.99951" height="256" fill="none"/>
  <path d="M240,120a48.055,48.055,0,0,0-48-48H152.0166c-.51855-.00195-52.38086-.68945-101.72656-42.07617A15.999,15.999,0,0,0,23.999,42.168V197.832a15.83932,15.83932,0,0,0,9.2295,14.49121,16.07273,16.07273,0,0,0,6.80664,1.52539,15.91249,15.91249,0,0,0,10.2539-3.77148C88.1665,178.30859,127.52344,170.521,144,168.61572v35.103a15.965,15.965,0,0,0,7.124,13.3125l10.99317,7.3291a16.00058,16.00058,0,0,0,24.39648-9.43262L198.354,167.56641A48.06327,48.06327,0,0,0,240,120Zm-69.00879,91.04688L160,203.71875V168h21.75391ZM192,152H160V88h32a32,32,0,0,1,0,64Z"/>
</svg>
