<svg id="Raw" xmlns="http://www.w3.org/2000/svg" viewBox="0 0 256 256">
  <rect width="256" height="256" fill="none"/>
  <path d="M184,120a7.99993,7.99993,0,0,1-8,8H160a8,8,0,0,1,0-16h16A7.99993,7.99993,0,0,1,184,120Zm56,0v88a16.01833,16.01833,0,0,1-16,16H112a16.01833,16.01833,0,0,1-16-16V186.34595C87.37219,200.36914,76.1825,208,64,208c-13.87256,0-26.459-9.89209-35.43945-27.854C20.46045,163.94678,16,142.58643,16,120c0-22.58667,4.46045-43.947,12.56055-60.14624C37.541,41.89185,50.12744,32,64,32H192c13.87256,0,26.459,9.89185,35.43945,27.85376C235.53955,76.053,240,97.41333,240,120ZM76,120a12,12,0,1,0-12,12A12,12,0,0,0,76,120Zm148,8H208a8,8,0,0,1,0-16h15.79443C221.84131,73.89966,206.16479,48,192,48H92.12109a73.18268,73.18268,0,0,1,7.31836,11.85376C106.57593,74.126,110.88281,92.40625,111.80762,112H128a8,8,0,0,1,0,16H112v80H224Z"/>
</svg>
