<svg id="Raw" xmlns="http://www.w3.org/2000/svg" viewBox="0 0 256 256">
  <rect width="256" height="256" fill="none"/>
  <path d="M160.00049,40A39.82135,39.82135,0,0,1,168,64v8H88V64a39.82135,39.82135,0,0,1,7.99951-24H56a7.99977,7.99977,0,0,0-8,8V216a7.99977,7.99977,0,0,0,8,8H200a7.99977,7.99977,0,0,0,8-8V48a7.99977,7.99977,0,0,0-8-8Z" opacity="0.2"/>
  <path d="M160.00194,40H200a8,8,0,0,1,8,8V216a8,8,0,0,1-8,8H56a8,8,0,0,1-8-8V48a8,8,0,0,1,8-8H95.99783" fill="none" stroke="#000" stroke-linecap="round" stroke-linejoin="round" stroke-width="16"/>
  <path d="M88,72V64a40,40,0,0,1,80,0v8Z" fill="none" stroke="#000" stroke-linecap="round" stroke-linejoin="round" stroke-width="16"/>
</svg>
