<svg id="Raw" xmlns="http://www.w3.org/2000/svg" viewBox="0 0 256 256">
  <rect width="256" height="256" fill="none"/>
  <path d="M158.62742,142.62742l-56,56a31.98729,31.98729,0,0,1-30.91154,8.28721L48.31361,217.131A8,8,0,0,1,39.456,215.456h0a5.74381,5.74381,0,0,1-1.20256-6.35955l10.832-24.81212a31.9873,31.9873,0,0,1,8.28715-30.91177l56-56" fill="none" stroke="#000" stroke-linecap="round" stroke-linejoin="round" stroke-width="24"/>
  <path d="M187.799,107.799l4.88728,4.88728a16,16,0,0,1,0,22.62742l-15.02944,15.02944a8,8,0,0,1-11.3137,0l-60.6863-60.6863a8,8,0,0,1,0-11.3137l15.02944-15.02944a16,16,0,0,1,22.62742,0l4.8873,4.8873,19.58813-19.58813c10.78822-10.78822,28.36591-11.4491,39.44579-.96065A28.00039,28.00039,0,0,1,207.799,87.799Z" fill="none" stroke="#000" stroke-linecap="round" stroke-linejoin="round" stroke-width="24"/>
</svg>
