<svg id="Raw" xmlns="http://www.w3.org/2000/svg" viewBox="0 0 256 256">
  <rect width="256" height="256" fill="none"/>
  <path d="M128,24A104,104,0,1,0,232,128,104.1179,104.1179,0,0,0,128,24Zm28.624,144.65722a8.00058,8.00058,0,0,1-10.73633,3.56641,39.98258,39.98258,0,0,0-35.85156.04,7.99966,7.99966,0,1,1-7.20117-14.28711,55.97479,55.97479,0,0,1,50.22217-.05566A7.99977,7.99977,0,0,1,156.624,168.65719Zm14.79737-28.30664a8.00153,8.00153,0,0,1-10.76221,3.49024,71.9412,71.9412,0,0,0-65.40234.042,7.99976,7.99976,0,1,1-7.29-14.24219,87.94,87.94,0,0,1,79.96484-.05176A7.9994,7.9994,0,0,1,171.42139,140.35055Zm14.82666-28.36426a8.00037,8.00037,0,0,1-10.77246,3.458,104.1903,104.1903,0,0,0-95.03614.04492,8,8,0,1,1-7.3291-14.22265,120.19311,120.19311,0,0,1,109.68066-.05274A7.99973,7.99973,0,0,1,186.24805,111.98629Z"/>
</svg>
