<svg xmlns="http://www.w3.org/2000/svg" width="16" height="16" viewBox="0 0 16 16">
  <g fill="none" fill-rule="evenodd">
    <polygon points="0 16 15.999 16 15.999 0 0 0"/>
    <path fill="#000" fill-rule="nonzero" d="M13.4996,3.1248 C13.7067068,3.1248 13.8746,3.29269322 13.8746,3.4998 C13.8746,3.68101843 13.7460568,3.83221398 13.5751756,3.86718133 L13.4996,3.8748 L12.8746,3.8748 L12.8746,12.9998 C12.8746,13.4457447 12.5406792,13.813969 12.1093301,13.8679802 L11.9996,13.8748 L3.9996,13.8748 C3.55365528,13.8748 3.18543099,13.5408792 3.13141983,13.1095301 L3.1246,12.9998 L3.1246,3.8748 L2.4996,3.8748 C2.29249322,3.8748 2.1246,3.70690678 2.1246,3.4998 C2.1246,3.31858157 2.25314325,3.16738602 2.42402442,3.13241867 L2.4996,3.1248 L13.4996,3.1248 Z M12.1246,3.8748 L3.8746,3.8748 L3.8746,12.9998 C3.8746,13.0549146 3.91050834,13.1018458 3.960145,13.1184137 L3.9996,13.1248 L11.9996,13.1248 C12.0547146,13.1248 12.1016458,13.0888917 12.1182137,13.039255 L12.1246,12.9998 L12.1246,3.8748 Z M6.4996,6.1248 C6.68081843,6.1248 6.83201398,6.25334325 6.86698133,6.42422442 L6.8746,6.4998 L6.8746,10.4998 C6.8746,10.7069068 6.70670678,10.8748 6.4996,10.8748 C6.31838157,10.8748 6.16718602,10.7462568 6.13221867,10.5753756 L6.1246,10.4998 L6.1246,6.4998 C6.1246,6.29269322 6.29249322,6.1248 6.4996,6.1248 Z M9.4996,6.1248 C9.68081843,6.1248 9.83201398,6.25334325 9.86698133,6.42422442 L9.8746,6.4998 L9.8746,10.4998 C9.8746,10.7069068 9.70670678,10.8748 9.4996,10.8748 C9.31838157,10.8748 9.16718602,10.7462568 9.13221867,10.5753756 L9.1246,10.4998 L9.1246,6.4998 C9.1246,6.29269322 9.29249322,6.1248 9.4996,6.1248 Z M10.4996,1.1248 C10.7067068,1.1248 10.8746,1.29269322 10.8746,1.4998 C10.8746,1.68101843 10.7460568,1.83221398 10.5751756,1.86718133 L10.4996,1.8748 L5.4996,1.8748 C5.29249322,1.8748 5.1246,1.70690678 5.1246,1.4998 C5.1246,1.31858157 5.25314325,1.16738602 5.42402442,1.13241867 L5.4996,1.1248 L10.4996,1.1248 Z"/>
  </g>
</svg>
