<svg xmlns="http://www.w3.org/2000/svg" width="16" height="16" viewBox="0 0 16 16">
  <g fill="none" fill-rule="evenodd">
    <polygon points="0 16 15.999 16 15.999 0 0 0"/>
    <path fill="#000" d="M12.4996,3.4998 L12.4996,12.9998 C12.4996,13.2758 12.2756,13.4998 11.9996,13.4998 L3.9996,13.4998 C3.7236,13.4998 3.4996,13.2758 3.4996,12.9998 L3.4996,3.4998 L12.4996,3.4998 Z" opacity=".2"/>
    <path fill="#000" fill-rule="nonzero" d="M13.4996,2.9998 C13.7757424,2.9998 13.9996,3.22365763 13.9996,3.4998 C13.9996,3.74525989 13.8227248,3.94940837 13.5894756,3.99174433 L13.4996,3.9998 L12.9996,3.9998 L12.9996,12.9998 C12.9996,13.5125036 12.613437,13.9352883 12.1161948,13.9930702 L11.9996,13.9998 L3.9996,13.9998 C3.48689637,13.9998 3.06411173,13.613637 3.00632975,13.1163948 L2.9996,12.9998 L2.9996,3.9998 L2.4996,3.9998 C2.22345763,3.9998 1.9996,3.77594237 1.9996,3.4998 C1.9996,3.25434011 2.17647516,3.05019163 2.40972437,3.00785567 L2.4996,2.9998 L13.4996,2.9998 Z M11.9996,3.9998 L3.9996,3.9998 L3.9996,12.9998 L11.9996,12.9998 L11.9996,3.9998 Z M6.4996,5.9998 C6.74505989,5.9998 6.94920837,6.17667516 6.99154433,6.40992437 L6.9996,6.4998 L6.9996,10.4998 C6.9996,10.7759424 6.77574237,10.9998 6.4996,10.9998 C6.25414011,10.9998 6.04999163,10.8229248 6.00765567,10.5896756 L5.9996,10.4998 L5.9996,6.4998 C5.9996,6.22365763 6.22345763,5.9998 6.4996,5.9998 Z M9.4996,5.9998 C9.74505989,5.9998 9.94920837,6.17667516 9.99154433,6.40992437 L9.9996,6.4998 L9.9996,10.4998 C9.9996,10.7759424 9.77574237,10.9998 9.4996,10.9998 C9.25414011,10.9998 9.04999163,10.8229248 9.00765567,10.5896756 L8.9996,10.4998 L8.9996,6.4998 C8.9996,6.22365763 9.22345763,5.9998 9.4996,5.9998 Z M10.4996,0.9998 C10.7757424,0.9998 10.9996,1.22365763 10.9996,1.4998 C10.9996,1.74525989 10.8227248,1.94940837 10.5894756,1.99174433 L10.4996,1.9998 L5.4996,1.9998 C5.22345763,1.9998 4.9996,1.77594237 4.9996,1.4998 C4.9996,1.25434011 5.17647516,1.05019163 5.40972437,1.00785567 L5.4996,0.9998 L10.4996,0.9998 Z"/>
  </g>
</svg>
