<svg xmlns="http://www.w3.org/2000/svg" width="16" height="16" viewBox="0 0 16 16">
  <g fill="none" fill-rule="evenodd">
    <polygon points="0 16 16 16 16 0 0 0"/>
    <path fill="#000" fill-rule="nonzero" d="M13.5,3 C13.7761424,3 14,3.22385763 14,3.5 C14,3.74545989 13.8231248,3.94960837 13.5898756,3.99194433 L13.5,4 L13,4 L13,13 C13,13.5127036 12.613837,13.9354883 12.1165948,13.9932702 L12,14 L4,14 C3.48729637,14 3.06451173,13.613837 3.00672975,13.1165948 L3,13 L3,4 L2.5,4 C2.22385763,4 2,3.77614237 2,3.5 C2,3.25454011 2.17687516,3.05039163 2.41012437,3.00805567 L2.5,3 L13.5,3 Z M12,4 L4,4 L4,13 L12,13 L12,4 Z M6.5,6 C6.74545989,6 6.94960837,6.17687516 6.99194433,6.41012437 L7,6.5 L7,10.5 C7,10.7761424 6.77614237,11 6.5,11 C6.25454011,11 6.05039163,10.8231248 6.00805567,10.5898756 L6,10.5 L6,6.5 C6,6.22385763 6.22385763,6 6.5,6 Z M9.5,6 C9.74545989,6 9.94960837,6.17687516 9.99194433,6.41012437 L10,6.5 L10,10.5 C10,10.7761424 9.77614237,11 9.5,11 C9.25454011,11 9.05039163,10.8231248 9.00805567,10.5898756 L9,10.5 L9,6.5 C9,6.22385763 9.22385763,6 9.5,6 Z M10.5,1 C10.7761424,1 11,1.22385763 11,1.5 C11,1.74545989 10.8231248,1.94960837 10.5898756,1.99194433 L10.5,2 L5.5,2 C5.22385763,2 5,1.77614237 5,1.5 C5,1.25454011 5.17687516,1.05039163 5.41012437,1.00805567 L5.5,1 L10.5,1 Z"/>
  </g>
</svg>
