<svg xmlns="http://www.w3.org/2000/svg" width="16" height="16" viewBox="0 0 16 16">
  <g fill="none" fill-rule="evenodd">
    <polygon points="0 16 15.999 16 15.999 0 0 0"/>
    <path fill="#000" fill-rule="nonzero" d="M13.4996,3.2498 C13.6376712,3.2498 13.7496,3.36172881 13.7496,3.4998 C13.7496,3.61814673 13.6673666,3.71728682 13.5569227,3.74319732 L13.4996,3.7498 L12.7496,3.7498 L12.7496,12.9998 C12.7496,13.3793653 12.4673265,13.6932692 12.1013406,13.7429507 L11.9996,13.7498 L3.9996,13.7498 C3.62003474,13.7498 3.30613079,13.4675265 3.25644933,13.1015406 L3.2496,12.9998 L3.2496,3.7498 L2.4996,3.7498 C2.36152881,3.7498 2.2496,3.63787119 2.2496,3.4998 C2.2496,3.38145327 2.33183341,3.28231318 2.44227729,3.25640268 L2.4996,3.2498 L13.4996,3.2498 Z M12.2496,3.7498 L3.7496,3.7498 L3.7496,12.9998 C3.7496,13.1180247 3.83193802,13.217252 3.94232212,13.2431899 L3.9996,13.2498 L11.9996,13.2498 C12.1178247,13.2498 12.217052,13.167462 12.2429899,13.0570779 L12.2496,12.9998 L12.2496,3.7498 Z M6.4996,6.2498 C6.61794673,6.2498 6.71708682,6.33203341 6.74299732,6.44247729 L6.7496,6.4998 L6.7496,10.4998 C6.7496,10.6378712 6.63767119,10.7498 6.4996,10.7498 C6.38125327,10.7498 6.28211318,10.6675666 6.25620268,10.5571227 L6.2496,10.4998 L6.2496,6.4998 C6.2496,6.36172881 6.36152881,6.2498 6.4996,6.2498 Z M9.4996,6.2498 C9.61794673,6.2498 9.71708682,6.33203341 9.74299732,6.44247729 L9.7496,6.4998 L9.7496,10.4998 C9.7496,10.6378712 9.63767119,10.7498 9.4996,10.7498 C9.38125327,10.7498 9.28211318,10.6675666 9.25620268,10.5571227 L9.2496,10.4998 L9.2496,6.4998 C9.2496,6.36172881 9.36152881,6.2498 9.4996,6.2498 Z M10.4996,1.2498 C10.6376712,1.2498 10.7496,1.36172881 10.7496,1.4998 C10.7496,1.61814673 10.6673666,1.71728682 10.5569227,1.74319732 L10.4996,1.7498 L5.4996,1.7498 C5.36152881,1.7498 5.2496,1.63787119 5.2496,1.4998 C5.2496,1.38145327 5.33183341,1.28231318 5.44227729,1.25640268 L5.4996,1.2498 L10.4996,1.2498 Z"/>
  </g>
</svg>
