<svg xmlns="http://www.w3.org/2000/svg" width="16" height="16" viewBox="0 0 16 16">
  <g fill="none" fill-rule="evenodd">
    <polygon points="0 16 15.999 16 15.999 0 0 0"/>
    <path fill="#000" fill-rule="nonzero" d="M13.4996,2.7498 C13.9138136,2.7498 14.2496,3.08558644 14.2496,3.4998 C14.2496,3.87949577 13.9674461,4.19329096 13.6013706,4.24295338 L13.4996,4.2498 L13.2496,4.2498 L13.2496,12.9998 C13.2496,13.6468752 12.7576002,14.1793172 12.1273818,14.2433448 L11.9996,14.2498 L3.9996,14.2498 C3.35252479,14.2498 2.82008279,13.7578002 2.75605517,13.1275818 L2.7496,12.9998 L2.7496,4.2498 L2.4996,4.2498 C2.08538644,4.2498 1.7496,3.91401356 1.7496,3.4998 C1.7496,3.12010423 2.03175388,2.80630904 2.39782944,2.75664662 L2.4996,2.7498 L13.4996,2.7498 Z M11.7496,4.2498 L4.2496,4.2498 L4.249,12.749 L11.749,12.749 L11.7496,4.2498 Z M6.4996,5.7498 C6.87929577,5.7498 7.19309096,6.03195388 7.24275338,6.39802944 L7.2496,6.4998 L7.2496,10.4998 C7.2496,10.9140136 6.91381356,11.2498 6.4996,11.2498 C6.11990423,11.2498 5.80610904,10.9676461 5.75644662,10.6015706 L5.7496,10.4998 L5.7496,6.4998 C5.7496,6.08558644 6.08538644,5.7498 6.4996,5.7498 Z M9.4996,5.7498 C9.87929577,5.7498 10.193091,6.03195388 10.2427534,6.39802944 L10.2496,6.4998 L10.2496,10.4998 C10.2496,10.9140136 9.91381356,11.2498 9.4996,11.2498 C9.11990423,11.2498 8.80610904,10.9676461 8.75644662,10.6015706 L8.7496,10.4998 L8.7496,6.4998 C8.7496,6.08558644 9.08538644,5.7498 9.4996,5.7498 Z M10.4996,0.7498 C10.9138136,0.7498 11.2496,1.08558644 11.2496,1.4998 C11.2496,1.87949577 10.9674461,2.19329096 10.6013706,2.24295338 L10.4996,2.2498 L5.4996,2.2498 C5.08538644,2.2498 4.7496,1.91401356 4.7496,1.4998 C4.7496,1.12010423 5.03175388,0.806309039 5.39782944,0.756646616 L5.4996,0.7498 L10.4996,0.7498 Z"/>
  </g>
</svg>
