<svg xmlns="http://www.w3.org/2000/svg" width="16" height="16" viewBox="0 0 16 16">
  <g fill="none" fill-rule="evenodd">
    <polygon points="0 16 15.999 16 15.999 0 0 0"/>
    <path fill="#000" d="M13.4996,2.9998 C13.7756,2.9998 13.9996,3.2238 13.9996,3.4998 C13.9996,3.7758 13.7756,3.9998 13.4996,3.9998 L13.4996,3.9998 L12.9996,3.9998 L12.9996,12.9998 C12.9996,13.5518 12.5516,13.9998 11.9996,13.9998 L11.9996,13.9998 L3.9996,13.9998 C3.4486,13.9998 2.9996,13.5518 2.9996,12.9998 L2.9996,12.9998 L2.9996,3.9998 L2.4996,3.9998 C2.2236,3.9998 1.9996,3.7758 1.9996,3.4998 C1.9996,3.2238 2.2236,2.9998 2.4996,2.9998 L2.4996,2.9998 Z M9.4996,5.9998 C9.2236,5.9998 8.9996,6.2238 8.9996,6.4998 L8.9996,6.4998 L8.9996,10.4998 C8.9996,10.7758 9.2236,10.9998 9.4996,10.9998 C9.7756,10.9998 9.9996,10.7758 9.9996,10.4998 L9.9996,10.4998 L9.9996,6.4998 C9.9996,6.2238 9.7756,5.9998 9.4996,5.9998 Z M6.4996,5.9998 C6.2236,5.9998 5.9996,6.2238 5.9996,6.4998 L5.9996,6.4998 L5.9996,10.4998 C5.9996,10.7758 6.2236,10.9998 6.4996,10.9998 C6.7756,10.9998 6.9996,10.7758 6.9996,10.4998 L6.9996,10.4998 L6.9996,6.4998 C6.9996,6.2238 6.7756,5.9998 6.4996,5.9998 Z M10.4996,0.9998 C10.7756,0.9998 10.9996,1.2238 10.9996,1.4998 C10.9996,1.7758 10.7756,1.9998 10.4996,1.9998 L10.4996,1.9998 L5.4996,1.9998 C5.2236,1.9998 4.9996,1.7758 4.9996,1.4998 C4.9996,1.2238 5.2236,0.9998 5.4996,0.9998 L5.4996,0.9998 Z"/>
  </g>
</svg>
