<svg id="Layer_1" data-name="Layer 1" xmlns="http://www.w3.org/2000/svg" viewBox="0 0 256 256">
  <path d="M216,72H40a8.00008,8.00008,0,0,0-8,8v72a72.08124,72.08124,0,0,0,72,72h48a72.10018,72.10018,0,0,0,71.63428-64.73926A40.06159,40.06159,0,0,0,256,120v-8A40.04521,40.04521,0,0,0,216,72Zm24,48a24.04118,24.04118,0,0,1-16,22.62891V89.37109A24.04118,24.04118,0,0,1,240,112Z"/>
  <path d="M96,56a8.00008,8.00008,0,0,0,8-8V16a8,8,0,0,0-16,0V48A8.00008,8.00008,0,0,0,96,56Z"/>
  <path d="M128,56a8.00008,8.00008,0,0,0,8-8V16a8,8,0,0,0-16,0V48A8.00008,8.00008,0,0,0,128,56Z"/>
  <path d="M160,56a8.00008,8.00008,0,0,0,8-8V16a8,8,0,0,0-16,0V48A8.00008,8.00008,0,0,0,160,56Z"/>
</svg>
