<svg id="Raw" xmlns="http://www.w3.org/2000/svg" viewBox="0 0 256 256">
  <rect width="256" height="256" fill="none"/>
  <g>
    <path d="M88,64a8.00008,8.00008,0,0,0,8-8V24a8,8,0,0,0-16,0V56A8.00008,8.00008,0,0,0,88,64Z"/>
    <path d="M120,64a8.00008,8.00008,0,0,0,8-8V24a8,8,0,0,0-16,0V56A8.00008,8.00008,0,0,0,120,64Z"/>
    <path d="M152,64a8.00008,8.00008,0,0,0,8-8V24a8,8,0,0,0-16,0V56A8.00008,8.00008,0,0,0,152,64Z"/>
    <path d="M208,80H32a8.00008,8.00008,0,0,0-8,8v48a96.31957,96.31957,0,0,0,32.53613,72H32a8,8,0,0,0,0,16H83.023c.04541.00146.09033-.001.13574,0h73.46485c.02832.00049.05615.00586.08447.00586.03711,0,.07519-.00537.11279-.00586H208a8,8,0,0,0,0-16H183.46387a96.65441,96.65441,0,0,0,27.02832-40.08545A40.04613,40.04613,0,0,0,248,128v-8A40.04521,40.04521,0,0,0,208,80Zm24,48a24.039,24.039,0,0,1-17.20312,23.01367A95.32337,95.32337,0,0,0,216,136V97.376A24.03806,24.03806,0,0,1,232,120Z"/>
  </g>
</svg>
