<svg id="Raw" xmlns="http://www.w3.org/2000/svg" viewBox="0 0 256 256">
  <rect width="256" height="256" fill="none"/>
  <path d="M120,80V184a8.00008,8.00008,0,0,1-8,8H96v16h16a8,8,0,0,1,0,16H64a8,8,0,0,1,0-16H80V192H32A24.0275,24.0275,0,0,1,8,168V96A24.0275,24.0275,0,0,1,32,72h80A8.00008,8.00008,0,0,1,120,80ZM248,48V208a16.01833,16.01833,0,0,1-16,16H152a16.01833,16.01833,0,0,1-16-16V48a16.01833,16.01833,0,0,1,16-16h80A16.01833,16.01833,0,0,1,248,48ZM204,180a12,12,0,1,0-12,12A12.01343,12.01343,0,0,0,204,180Zm20-76a8.00008,8.00008,0,0,0-8-8H168a8,8,0,0,0,0,16h48A8.00008,8.00008,0,0,0,224,104Zm0-32a8.00008,8.00008,0,0,0-8-8H168a8,8,0,0,0,0,16h48A8.00008,8.00008,0,0,0,224,72Z"/>
</svg>
