<svg id="Layer_1" data-name="Layer 1" xmlns="http://www.w3.org/2000/svg" viewBox="0 0 256 256">
  <path d="M128,56C48,56,16,128.00781,16,128.00781S48,200,128,200s112-71.99219,112-71.99219S208,56,128,56Zm0,112.0083a40,40,0,1,1,40-40A40.0001,40.0001,0,0,1,128,168.0083Z" opacity="0.2"/>
  <line x1="48" y1="40" x2="208" y2="216" fill="none" stroke="#000" stroke-linecap="round" stroke-linejoin="round" stroke-width="16"/>
  <path d="M154.9071,157.59781a40.00028,40.00028,0,0,1-53.8142-59.19562" fill="none" stroke="#000" stroke-linecap="round" stroke-linejoin="round" stroke-width="16"/>
  <path d="M73.99446,68.59357C33.22519,89.23912,16,128,16,128s32,71.99219,112,71.99219a118.0238,118.0238,0,0,0,53.99756-12.59461" fill="none" stroke="#000" stroke-linecap="round" stroke-linejoin="round" stroke-width="16"/>
  <path d="M208.60953,169.09937C230.41132,149.5722,240,128,240,128S208,55.99219,128,55.99219a125.31923,125.31923,0,0,0-20.68221,1.68414" fill="none" stroke="#000" stroke-linecap="round" stroke-linejoin="round" stroke-width="16"/>
  <path d="M135.52737,88.70779a40.02413,40.02413,0,0,1,32.29785,35.52875" fill="none" stroke="#000" stroke-linecap="round" stroke-linejoin="round" stroke-width="16"/>
</svg>
