<svg id="Layer_1" data-name="Layer 1" xmlns="http://www.w3.org/2000/svg" viewBox="0 0 256 256">
  <rect x="0.00049" width="255.99951" height="256" fill="none"/>
  <line x1="48" y1="40.00122" x2="208" y2="216.00122" fill="none" stroke="#000" stroke-linecap="round" stroke-linejoin="round" stroke-width="16"/>
  <path d="M154.9071,157.599a40.00028,40.00028,0,0,1-53.8142-59.19562" fill="none" stroke="#000" stroke-linecap="round" stroke-linejoin="round" stroke-width="16"/>
  <path d="M73.99446,68.59479C33.22519,89.24034,16,128.00122,16,128.00122s32,71.99219,112,71.99219a118.0238,118.0238,0,0,0,53.99756-12.59461" fill="none" stroke="#000" stroke-linecap="round" stroke-linejoin="round" stroke-width="16"/>
  <path d="M208.60953,169.10059C230.41132,149.57342,240,128.00122,240,128.00122S208,55.99341,128,55.99341a125.31923,125.31923,0,0,0-20.68221,1.68414" fill="none" stroke="#000" stroke-linecap="round" stroke-linejoin="round" stroke-width="16"/>
  <path d="M135.52737,88.709a40.02411,40.02411,0,0,1,32.29785,35.52874" fill="none" stroke="#000" stroke-linecap="round" stroke-linejoin="round" stroke-width="16"/>
</svg>
