<svg id="Raw" xmlns="http://www.w3.org/2000/svg" viewBox="0 0 256 256">
  <rect width="256" height="256" fill="none"/>
  <g>
    <path d="M159.9248,224.02051h-64a8,8,0,0,0,0,16h64a8,8,0,0,0,0-16Z"/>
    <path d="M213.91992,210.61816l-160-176A8.0006,8.0006,0,1,0,42.08008,45.38184L58.83154,63.80859A79.52652,79.52652,0,0,0,48,104.02051v16c0,34.33105-7.09668,53.71387-13.0498,63.92773a15.998,15.998,0,0,0,13.81054,24.07227H189.93335l12.14673,13.36133a8.0006,8.0006,0,1,0,11.83984-10.76368Z"/>
    <path d="M199.19043,170.63281a8.00027,8.00027,0,0,0,13.6582-7.41015C209.63184,150.94922,208,136.41406,208,120.02051V104.9248c0-44.28418-35.61621-80.57714-79.39551-80.90234A80.45523,80.45523,0,0,0,88.541,34.415a8.00008,8.00008,0,0,0-1.96875,12.33789Z"/>
  </g>
</svg>
