<svg id="Raw" xmlns="http://www.w3.org/2000/svg" viewBox="0 0 256 256">
  <rect width="256" height="256" fill="none"/>
  <path d="M56,104.02075a72.00006,72.00006,0,0,1,72.54593-71.998C168.24536,32.31709,200,65.2241,200,104.92462v15.09613c0,35.81563,7.514,56.59893,14.1321,67.95814a7.99893,7.99893,0,0,1-6.90073,12.04186H48.76058a7.999,7.999,0,0,1-6.89972-12.04359C48.48245,176.61757,56,155.83456,56,120.02075Z" opacity="0.2"/>
  <line x1="95.92521" y1="232.0415" x2="159.92521" y2="232.0415" fill="none" stroke="#000" stroke-linecap="round" stroke-linejoin="round" stroke-width="16"/>
  <line x1="48" y1="40.02075" x2="208" y2="216.02075" fill="none" stroke="#000" stroke-linecap="round" stroke-linejoin="round" stroke-width="16"/>
  <path d="M92.4925,41.39151a71.68651,71.68651,0,0,1,36.05343-9.348C168.24536,32.33784,200,65.24485,200,104.94537V120.0415c0,19.047,2.12511,33.84258,5.11042,45.23024" fill="none" stroke="#000" stroke-linecap="round" stroke-linejoin="round" stroke-width="16"/>
  <path d="M193.47341,200.0415H48.76058a7.999,7.999,0,0,1-6.89972-12.04359C48.48245,176.63832,56,155.85532,56,120.0415v-16A71.66859,71.66859,0,0,1,68.85858,62.96581" fill="none" stroke="#000" stroke-linecap="round" stroke-linejoin="round" stroke-width="16"/>
</svg>
