<svg id="Raw" xmlns="http://www.w3.org/2000/svg" viewBox="0 0 256 256">
  <rect width="256" height="256" fill="none"/>
  <g>
    <path d="M103.99316,24.012h48a8,8,0,0,0,0-16h-48a8,8,0,0,0,0,16Z"/>
    <path d="M220.97559,183.82544c-5.66016-9.76856-12.501-28.1836-12.95215-60.43067-.59668-42.7539-31.01465-78.376-70.75391-82.85839A80.01956,80.01956,0,0,0,48,120.012c0,34.51953-7.166,53.93457-13.17676,64.14453a15.50858,15.50858,0,0,0-.06933,15.73535A16.14446,16.14446,0,0,0,48.73633,208.012h40.0686a40.004,40.004,0,0,0,78.39014,0h40.04907a15.74644,15.74644,0,0,0,13.79688-7.94433A16.27381,16.27381,0,0,0,220.97559,183.82544ZM128,224.012a24.03824,24.03824,0,0,1-22.62378-16h45.24756A24.03824,24.03824,0,0,1,128,224.012Z"/>
  </g>
</svg>
