<svg id="Raw" xmlns="http://www.w3.org/2000/svg" viewBox="0 0 256 256">
  <rect width="256" height="256" fill="none"/>
  <path d="M220.81445,175.9397c-5.93457-10.21582-13.00976-29.60157-13.00976-63.93946v-7.09668c0-44.28515-35.52735-80.57715-79.19629-80.90136-.2041-.001-.40625-.002-.61035-.002a79.89891,79.89891,0,0,0-79.79493,80v8c0,34.33594-7.0791,53.72071-13.0166,63.93555A15.99885,15.99885,0,0,0,48.9834,200.00024H88a40,40,0,0,0,80,0h39.0166a15.99808,15.99808,0,0,0,13.79785-24.06054ZM128,224.00024a24.0275,24.0275,0,0,1-24-24h48A24.0275,24.0275,0,0,1,128,224.00024Z"/>
</svg>
