<svg id="Raw" xmlns="http://www.w3.org/2000/svg" viewBox="0 0 256 256">
  <rect width="256" height="256" fill="none"/>
  <path d="M56.20305,104A71.899,71.899,0,0,1,128.5484,32.002c39.58967.29432,71.25651,33.20133,71.25651,72.90185V112c0,35.81563,7.49325,56.59893,14.093,67.95814A7.999,7.999,0,0,1,207.01628,192H48.98365A7.99908,7.99908,0,0,1,42.103,179.95641c6.60328-11.35959,14.1-32.1426,14.1-67.95641Z" opacity="0.2"/>
  <path d="M56.20305,104A71.899,71.899,0,0,1,128.5484,32.002c39.58967.29432,71.25651,33.20133,71.25651,72.90185V112c0,35.81563,7.49325,56.59893,14.093,67.95814A7.999,7.999,0,0,1,207.01628,192H48.98365A7.99908,7.99908,0,0,1,42.103,179.95641c6.60328-11.35959,14.1-32.1426,14.1-67.95641Z" fill="none" stroke="#000" stroke-linecap="round" stroke-linejoin="round" stroke-width="16"/>
  <path d="M96,192v8a32,32,0,0,0,64,0v-8" fill="none" stroke="#000" stroke-linecap="round" stroke-linejoin="round" stroke-width="16"/>
</svg>
