<svg id="Layer_1" data-name="Layer 1" xmlns="http://www.w3.org/2000/svg" viewBox="0 0 256 256">
  <rect x="-0.00098" width="256" height="256" fill="none"/>
  <g>
    <path d="M188.79883,169.60193,133.333,128.00232l55.46582-41.59961a8.0005,8.0005,0,0,0,0-12.80078l-64-48A8.00031,8.00031,0,0,0,111.999,32.00232v79.99957l-51.20019-38.4a8.0002,8.0002,0,0,0-9.59961,12.80078L106.665,128.00232,51.19922,169.60193a8.0002,8.0002,0,0,0,9.59961,12.80078l51.20019-38.4v79.99957a8.00025,8.00025,0,0,0,12.79981,6.40039l64-48a8.0005,8.0005,0,0,0,0-12.80078ZM127.999,48.00232l42.667,32-42.667,32Zm0,160v-64l42.667,32Z"/>
    <circle cx="195.99902" cy="128.00647" r="12"/>
    <circle cx="51.99902" cy="128.00647" r="12"/>
  </g>
</svg>
