<svg id="Raw" xmlns="http://www.w3.org/2000/svg" viewBox="0 0 256 256">
  <rect width="256" height="256" fill="none"/>
  <path d="M188.7998,169.6,133.334,128.00037,188.7998,86.40076a8.00048,8.00048,0,0,0,0-12.80078l-64-48A8.0003,8.0003,0,0,0,112,32.00037v79.99957L60.7998,73.6a8.00019,8.00019,0,0,0-9.5996,12.80078L106.666,128.00037,51.2002,169.6a8.00019,8.00019,0,0,0,9.5996,12.80078l51.2002-38.4v79.99958a8.00024,8.00024,0,0,0,12.7998,6.40039l64-48a8.00048,8.00048,0,0,0,0-12.80078ZM128,48.00037l42.667,32-42.667,32Zm0,160v-64l42.667,32Zm80-80a12,12,0,1,1-12-12A12.01344,12.01344,0,0,1,208,128.00037Zm-156,12a12,12,0,1,1,12-12A12.01344,12.01344,0,0,1,52,140.00037Z"/>
</svg>
