<svg xmlns="http://www.w3.org/2000/svg" width="16" height="16" viewBox="0 0 16 16">
  <g fill="none" fill-rule="evenodd">
    <polygon points="0 16 16 16 16 0 0 0"/>
    <path fill="#000" fill-rule="nonzero" d="M8,1.625 C11.5201068,1.625 14.375,4.47989322 14.375,8 C14.375,11.5201068 11.5201068,14.375 8,14.375 C4.47989322,14.375 1.625,11.5201068 1.625,8 C1.625,4.47989322 4.47989322,1.625 8,1.625 Z M8,2.375 C4.89410678,2.375 2.375,4.89410678 2.375,8 C2.375,11.1058932 4.89410678,13.625 8,13.625 C11.1058932,13.625 13.625,11.1058932 13.625,8 C13.625,4.89410678 11.1058932,2.375 8,2.375 Z M10.5,7.625 C10.7071068,7.625 10.875,7.79289322 10.875,8 C10.875,8.18121843 10.7464568,8.33241398 10.5755756,8.36738133 L10.5,8.375 L5.5,8.375 C5.29289322,8.375 5.125,8.20710678 5.125,8 C5.125,7.81878157 5.25354325,7.66758602 5.42442442,7.63261867 L5.5,7.625 L10.5,7.625 Z"/>
  </g>
</svg>
