<svg xmlns="http://www.w3.org/2000/svg" width="16" height="16" viewBox="0 0 16 16">
  <g fill="none" fill-rule="evenodd">
    <polygon points="0 16 16 16 16 0 0 0"/>
    <path fill="#000" fill-rule="nonzero" d="M8,1.75 C11.4510712,1.75 14.25,4.54892881 14.25,8 C14.25,11.4510712 11.4510712,14.25 8,14.25 C4.54892881,14.25 1.75,11.4510712 1.75,8 C1.75,4.54892881 4.54892881,1.75 8,1.75 Z M8,2.25 C4.82507119,2.25 2.25,4.82507119 2.25,8 C2.25,11.1749288 4.82507119,13.75 8,13.75 C11.1749288,13.75 13.75,11.1749288 13.75,8 C13.75,4.82507119 11.1749288,2.25 8,2.25 Z M10.5,7.75 C10.6380712,7.75 10.75,7.86192881 10.75,8 C10.75,8.11834673 10.6677666,8.21748682 10.5573227,8.24339732 L10.5,8.25 L5.5,8.25 C5.36192881,8.25 5.25,8.13807119 5.25,8 C5.25,7.88165327 5.33223341,7.78251318 5.44267729,7.75660268 L5.5,7.75 L10.5,7.75 Z"/>
  </g>
</svg>
