<svg id="Layer_1" data-name="Layer 1" xmlns="http://www.w3.org/2000/svg" viewBox="0 0 256 256">
  <rect width="256" height="256" fill="none"/>
  <g>
    <path d="M148,151.99219H100a8.006,8.006,0,0,1-7.54687-10.66406l24-67.99219a8.00328,8.00328,0,0,1,15.09375,5.32812l-20.24219,57.32813H148a8,8,0,0,1,0,16Z" fill="none"/>
    <path d="M148,183.99219a7.99541,7.99541,0,0,1-8-8v-64a8,8,0,0,1,16,0v64A7.9954,7.9954,0,0,1,148,183.99219Z" fill="none"/>
  </g>
  <path d="M208,32H48A16.02085,16.02085,0,0,0,32,48V208a16.02085,16.02085,0,0,0,16,16H208a16.02085,16.02085,0,0,0,16-16V48A16.02085,16.02085,0,0,0,208,32ZM156,175.99219a8,8,0,0,1-16,0v-24H100a8.006,8.006,0,0,1-7.54687-10.66406l24-67.99219a8.00328,8.00328,0,0,1,15.09375,5.32812l-20.24219,57.32813H140v-24a8,8,0,0,1,16,0Z"/>
</svg>
