<svg id="Layer_1" data-name="Layer 1" xmlns="http://www.w3.org/2000/svg" viewBox="0 0 256 256">
  <circle cx="128" cy="128" r="72"/>
  <path d="M128,40a7.99993,7.99993,0,0,0,8-8V24a8,8,0,0,0-16,0v8A7.99993,7.99993,0,0,0,128,40Z"/>
  <path d="M54.46094,65.77441A7.99983,7.99983,0,1,0,65.77441,54.46094L60.11768,48.8042A7.99984,7.99984,0,0,0,48.8042,60.11768Z"/>
  <path d="M32,120H24a8,8,0,0,0,0,16h8a8,8,0,0,0,0-16Z"/>
  <path d="M54.46094,190.22559l-5.65674,5.65673A7.99984,7.99984,0,1,0,60.11768,207.1958l5.65673-5.65674a7.99983,7.99983,0,1,0-11.31347-11.31347Z"/>
  <path d="M128,216a7.99977,7.99977,0,0,0-8,8v8a8,8,0,0,0,16,0v-8A7.99977,7.99977,0,0,0,128,216Z"/>
  <path d="M201.53906,190.22559a7.99983,7.99983,0,0,0-11.31347,11.31347l5.65673,5.65674a7.99984,7.99984,0,1,0,11.31348-11.31348Z"/>
  <path d="M232,120h-8a8,8,0,0,0,0,16h8a8,8,0,0,0,0-16Z"/>
  <path d="M195.88232,48.8042l-5.65673,5.65674a7.99983,7.99983,0,1,0,11.31347,11.31347l5.65674-5.65673A7.99984,7.99984,0,1,0,195.88232,48.8042Z"/>
  <rect width="256" height="256" fill="none"/>
</svg>
