<svg id="Layer_1" data-name="Layer 1" xmlns="http://www.w3.org/2000/svg" viewBox="0 0 256 256">
  <rect width="256" height="256" fill="none"/>
  <path d="M128.00146,24.00781A104.01819,104.01819,0,0,0,36.814,178.03906l-8.55468,29.90625a15.995,15.995,0,0,0,19.78125,19.78125l29.91406-8.53125a104.00785,104.00785,0,1,0,50.04687-195.1875ZM80.00049,140a12,12,0,1,1,12-12A12,12,0,0,1,80.00049,140Zm48,0a12,12,0,1,1,12-12A12,12,0,0,1,128.00049,140Zm48,0a12,12,0,1,1,12-12A12,12,0,0,1,176.00049,140Z"/>
</svg>
