<svg id="Layer_1" data-name="Layer 1" xmlns="http://www.w3.org/2000/svg" viewBox="0 0 256 256">
  <rect width="256" height="256" fill="none"/>
  <path d="M215.78857,118.16406a8.00125,8.00125,0,0,0-4.97949-5.6626L153.17871,90.89014l14.666-73.3291a8.00018,8.00018,0,0,0-13.69336-7.02735l-112,120a7.99995,7.99995,0,0,0,3.03955,12.94922l57.63037,21.61133-14.666,73.3291a7.99991,7.99991,0,0,0,13.69336,7.02734l112-120A8.00057,8.00057,0,0,0,215.78857,118.16406Z"/>
  <path d="M222.93066,347.99609A8.00019,8.00019,0,0,0,216,343.99219H136v-80a8,8,0,0,0-14.92334-4.0083l-88,152A7.99977,7.99977,0,0,0,40,423.99219h80v80a7.99978,7.99978,0,0,0,14.92334,4.0083l88-152A8.00042,8.00042,0,0,0,222.93066,347.99609Z"/>
</svg>
