<svg id="Layer_1" data-name="Layer 1" xmlns="http://www.w3.org/2000/svg" viewBox="0 0 256 256">
  <rect x="0.00049" width="255.99951" height="256" fill="none"/>
  <path d="M218.76367,103.7002,138.75684,30.96436a15.93657,15.93657,0,0,0-21.52637.00146L37.2373,103.69971A16.03108,16.03108,0,0,0,32,115.53857V207.999a15.99994,15.99994,0,0,0,16.002,16l47.99317-.00732a7.99987,7.99987,0,0,0,7.999-8v-64h48v64a7.99988,7.99988,0,0,0,7.999,8l48.00489.00732H208a15.99994,15.99994,0,0,0,16-16v-92.46A16.03567,16.03567,0,0,0,218.76367,103.7002Z"/>
</svg>
