<svg id="Raw" xmlns="http://www.w3.org/2000/svg" viewBox="0 0 256 256">
  <rect width="256" height="256" fill="none"/>
  <path d="M160,40A88.102,88.102,0,0,0,81.28711,88.6709l-.00537-.00049A87.46324,87.46324,0,0,0,71.98828,128a8,8,0,0,1-16,0,103.43674,103.43674,0,0,1,7.78-39.45264A63.99161,63.99161,0,0,0,72,216h88a88,88,0,0,0,0-176ZM140,168a12,12,0,1,1,12-12A12,12,0,0,1,140,168Zm8-40a12,12,0,1,1,12-12A12,12,0,0,1,148,128Zm24,72a12,12,0,1,1,12-12A12,12,0,0,1,172,200Zm8-40a12,12,0,1,1,12-12A12,12,0,0,1,180,160Z"/>
</svg>
