<svg id="Raw" xmlns="http://www.w3.org/2000/svg" viewBox="0 0 256 256">
  <rect width="256" height="256" fill="none"/>
  <path d="M175.99512,196a12,12,0,1,1-12-12A12.01375,12.01375,0,0,1,175.99512,196Zm-100-12a12,12,0,1,0,12,12A12.01375,12.01375,0,0,0,75.99512,184Zm40,16a12,12,0,1,0,12,12A12.01375,12.01375,0,0,0,115.99512,200Zm-48,24a12,12,0,1,0,12,12A12.01375,12.01375,0,0,0,67.99512,224Zm88,0a12,12,0,1,0,12,12A12.01375,12.01375,0,0,0,155.99512,224Zm0-208A76.1302,76.1302,0,0,0,85.03931,64.76562l-.007.01758A75.62312,75.62312,0,0,0,79.99512,92a8,8,0,0,1-16,0,91.68713,91.68713,0,0,1,4.16967-27.40967A52.0014,52.0014,0,0,0,75.99512,168h80a76,76,0,0,0,0-152Z"/>
</svg>
