<svg id="Layer_1" data-name="Layer 1" xmlns="http://www.w3.org/2000/svg" viewBox="0 0 256 256">
  <rect width="256" height="256" fill="none"/>
  <path d="M238.41943,204.76245c.07862-.10571.16065-.20862.23438-.31836.08057-.1206.15088-.24585.22461-.36987.05957-.1001.12207-.19751.17724-.30029.06788-.126.125-.25538.18506-.384.05078-.1084.10547-.2146.15137-.32568.05127-.12463.09326-.25195.13867-.37842.04248-.11987.08887-.238.126-.36059.03857-.12769.06738-.25757.09912-.38672.03125-.124.06592-.24622.09131-.37244.02978-.15088.04785-.30334.06933-.45544.01465-.10645.03516-.21094.0459-.31861q.03955-.39769.04-.79712V136a8,8,0,0,0-16,0v44.686L141.65967,98.34326a8.00122,8.00122,0,0,0-11.31446,0L96.00244,132.686,29.65967,66.34326A8.00018,8.00018,0,1,0,18.34521,77.65674l72,72a8.00122,8.00122,0,0,0,11.31446,0L136.00244,115.314,212.68848,192h-44.686a8,8,0,1,0,0,16h64c.26367,0,.52735-.014.78955-.03992.11817-.01159.23242-.03369.34912-.05041.1416-.02027.28418-.03687.42481-.0647.13428-.02661.26465-.0636.39648-.09692.12061-.0304.24219-.05689.36231-.093.1289-.03931.2539-.08765.38037-.13318.12012-.043.24072-.0824.35888-.13147.11719-.04858.2295-.10547.34375-.15942.12256-.05762.2461-.11206.36622-.17627.10888-.0586.21289-.12525.31933-.18872.11768-.07032.23682-.13684.35156-.21363.11622-.078.22608-.16479.33789-.24853.09717-.07263.19678-.14014.291-.21765.18652-.153.36426-.31531.53565-.48413.01611-.016.03417-.02918.05029-.04529.02051-.02051.0376-.04321.05762-.064.16357-.167.32177-.33935.47021-.52026C238.27051,204.97192,238.34277,204.866,238.41943,204.76245Z"/>
</svg>
