<svg id="Raw" xmlns="http://www.w3.org/2000/svg" viewBox="0 0 256 256">
  <rect width="256" height="256" fill="none"/>
  <path d="M227.19141,104.48A16.04032,16.04032,0,0,0,240,88.80957V64a16.01833,16.01833,0,0,0-16-16H32A16.01833,16.01833,0,0,0,16,64V88.80957A16.04032,16.04032,0,0,0,28.80859,104.48a24.00818,24.00818,0,0,1,0,47.04A16.04032,16.04032,0,0,0,16,167.19043V192a16.01833,16.01833,0,0,0,16,16H224a16.01833,16.01833,0,0,0,16-16V167.19043A16.04032,16.04032,0,0,0,227.19141,151.52a24.00818,24.00818,0,0,1,0-47.04ZM32,167.19824a40.00306,40.00306,0,0,0,0-78.38867V64H88V192H32Z"/>
</svg>
