<svg id="Layer_1" data-name="Layer 1" xmlns="http://www.w3.org/2000/svg" viewBox="0 0 256 256">
  <rect width="256" height="256" fill="none"/>
  <path d="M202.7207,62.1875A103.28167,103.28167,0,0,0,129.46289,32c-.24414,0-.49121.001-.73535.00244A104.00025,104.00025,0,0,0,24,136v56a24.0275,24.0275,0,0,0,24,24H64a24.0275,24.0275,0,0,0,24-24V152a24.0275,24.0275,0,0,0-24-24H40.35547A88.01928,88.01928,0,0,1,128.668,48.00244c.041.00049.07812.00049.11914,0A88.01738,88.01738,0,0,1,217.10059,128H193.45605a24.0275,24.0275,0,0,0-24,24v40a24.0275,24.0275,0,0,0,24,24h16a24.0275,24.0275,0,0,0,24-24V136A103.28343,103.28343,0,0,0,202.7207,62.1875Z"/>
</svg>
