<svg id="Raw" xmlns="http://www.w3.org/2000/svg" viewBox="0 0 256 256">
  <rect width="256" height="256" fill="none"/>
  <path d="M231.79883,32.2002a28.05536,28.05536,0,0,0-39.667.06933L18.27441,210.41211a8,8,0,0,0,3.92676,13.38281,155.06019,155.06019,0,0,0,34.957,4.00293c33.4209-.001,66.877-10.86914,98.32813-32.1748,31.74512-21.50391,50.14551-45.79981,50.91406-46.82325a8.00114,8.00114,0,0,0-.74316-10.457L186.919,119.60547l44.97753-47.90332A28.03445,28.03445,0,0,0,231.79883,32.2002ZM189.207,144.52148a225.51045,225.51045,0,0,1-43.10351,38.13184c-34.46973,23.23145-69.999,32.665-105.83887,28.13477l106.29492-108.915,23.30176,23.30175q.208.22852.43847.44434l.082.07617Z"/>
</svg>
