<svg xmlns="http://www.w3.org/2000/svg" width="16" height="16" viewBox="0 0 16 16">
  <g fill="none" fill-rule="evenodd">
    <polygon points="0 16 15.999 16 15.999 0 0 0"/>
    <path fill="#000" fill-rule="nonzero" d="M7.9996,1.2498 C11.7274875,1.2498 14.7496,4.27226038 14.7496,7.9998 C14.7496,11.7280136 11.7278136,14.7498 7.9996,14.7498 C4.27206038,14.7498 1.2496,11.7276875 1.2496,7.9998 C1.2496,4.27258644 4.27238644,1.2498 7.9996,1.2498 Z M7.9996,2.7498 C5.10081356,2.7498 2.7496,5.10101356 2.7496,7.9998 C2.7496,10.8992218 5.10044885,13.2498 7.9996,13.2498 C10.8993864,13.2498 13.2496,10.8995864 13.2496,7.9998 C13.2496,5.10064885 10.8990218,2.7498 7.9996,2.7498 Z M9.7496,5.4998 L9.77900838,5.50037321 C9.79369054,5.50094579 9.80835909,5.50194734 9.82299361,5.50337787 L9.7496,5.4998 C9.79644558,5.4998 9.84228804,5.50409489 9.88675509,5.51231238 C9.89763282,5.51437582 9.9093261,5.51681468 9.92096702,5.51953472 C9.9444272,5.52497085 9.96688345,5.53137935 9.98888365,5.53878031 C9.99869131,5.54210301 10.0090565,5.54582848 10.0193519,5.54978933 C10.0386942,5.55724952 10.0571139,5.565245 10.0751328,5.57393984 C10.0895909,5.58085843 10.1042244,5.5885019 10.1186453,5.59666081 C10.1361081,5.60661304 10.1532581,5.61726126 10.1699291,5.6285629 C10.1802612,5.63548532 10.1907291,5.64297572 10.2010416,5.65076775 C10.2577986,5.69370193 10.3081304,5.74427237 10.3506016,5.80106304 L10.2799301,5.71946991 C10.3169834,5.75652319 10.3493491,5.79648892 10.3770273,5.83863021 C10.3901922,5.85878514 10.4025723,5.87977247 10.413929,5.90138175 C10.4187626,5.91050362 10.4231192,5.91923437 10.4272949,5.92802959 C10.440042,5.95481812 10.4515466,5.98327789 10.4612971,6.01253953 C10.4635554,6.01948322 10.4654799,6.02555442 10.4673252,6.03164446 C10.4786814,6.06873395 10.4873062,6.10787689 10.4927534,6.14802944 L10.4996,6.2498 L10.4996,9.2498 C10.4996,9.66401356 10.1638136,9.9998 9.7496,9.9998 C9.36990423,9.9998 9.05610904,9.71764612 9.00644662,9.35157056 L8.9996,9.2498 L8.9986,8.0608 L6.77993009,10.2801301 C6.48703687,10.5730233 6.01216313,10.5730233 5.71926991,10.2801301 C5.45300335,10.0138635 5.4287973,9.59719984 5.64665176,9.30358835 L5.71926991,9.21946991 L7.9386,6.9988 L6.7496,6.9998 C6.36990423,6.9998 6.05610904,6.71764612 6.00644662,6.35157056 L5.9996,6.2498 C5.9996,5.87010423 6.28175388,5.55630904 6.64782944,5.50664662 L6.7496,5.4998 L9.7496,5.4998 Z"/>
  </g>
</svg>
