<svg xmlns="http://www.w3.org/2000/svg" width="16" height="16" viewBox="0 0 16 16">
  <g fill="none" fill-rule="evenodd">
    <polygon points="0 16 15.999 16 15.999 0 0 0"/>
    <path fill="#000" fill-rule="nonzero" d="M7.9996,1.7498 C11.4513323,1.7498 14.2496,4.54838987 14.2496,7.9998 C14.2496,11.4518712 11.4516712,14.2498 7.9996,14.2498 C4.54818987,14.2498 1.7496,11.4515323 1.7496,7.9998 C1.7496,4.54872881 4.54852881,1.7498 7.9996,1.7498 Z M7.9996,2.2498 C4.82467119,2.2498 2.2496,4.82487119 2.2496,7.9998 C2.2496,11.175377 4.82431936,13.7498 7.9996,13.7498 C11.1755288,13.7498 13.7496,11.1757288 13.7496,7.9998 C13.7496,4.82451936 11.175177,2.2498 7.9996,2.2498 Z M9.94951009,6.09965603 L9.9263767,6.0730233 C9.94346213,6.09010874 9.95755762,6.1090519 9.96866315,6.12920257 C9.97939681,6.14863761 9.98771745,6.16997175 9.99299732,6.19247729 L9.9996,6.2498 L9.9996,9.2498 C9.9996,9.38787119 9.88767119,9.4998 9.7496,9.4998 C9.63125327,9.4998 9.53211318,9.41756659 9.50620268,9.30712271 L9.4996,9.2498 L9.4986,6.8528 L6.4263767,9.9265767 C6.32874562,10.0242078 6.17045438,10.0242078 6.0728233,9.9265767 C5.99146408,9.84521747 5.97790421,9.72173312 6.03214369,9.62633219 L6.0728233,9.5730233 L9.1466,6.4988 L6.7496,6.4998 C6.63125327,6.4998 6.53211318,6.41756659 6.50620268,6.30712271 L6.4996,6.2498 C6.4996,6.13145327 6.58183341,6.03231318 6.69227729,6.00640268 L6.7496,5.9998 L9.7496,5.9998 L9.80009746,6.00492467 C9.80477478,6.00588469 9.80942994,6.00697959 9.8140567,6.00820938 L9.7496,5.9998 C9.78219385,5.9998 9.81333087,6.00603745 9.84188252,6.01738382 C9.85391448,6.02214439 9.86585748,6.02799269 9.87736842,6.03484616 C9.88551333,6.03970799 9.89362847,6.04519974 9.90138578,6.05113556 C9.91000636,6.05771113 9.91839428,6.06504089 9.9263767,6.0730233 C9.93708147,6.08411884 9.94352754,6.09170319 9.94951009,6.09965603 Z"/>
  </g>
</svg>
