<svg xmlns="http://www.w3.org/2000/svg" width="16" height="16" viewBox="0 0 16 16">
  <g fill="none" fill-rule="evenodd">
    <polygon points="0 16 15.999 16 15.999 0 0 0"/>
    <path fill="#000" d="M12.2428,12.2425 C14.5858,9.8995 14.5858,6.1005 12.2428,3.7575 C9.8988,1.4145 6.0998,1.4145 3.7578,3.7575 C1.4148,6.1005 1.4148,9.8995 3.7578,12.2425 C6.0998,14.5855 9.8988,14.5855 12.2428,12.2425" opacity=".2"/>
    <path fill="#000" fill-rule="nonzero" d="M3.40417115,3.40402208 C5.94142541,0.865684455 10.0570079,0.865684455 12.5963534,3.40394661 C15.1346155,5.94220876 15.1346155,10.0577912 12.5962779,12.5961288 C10.0570079,15.1343155 5.94142541,15.1343155 3.40424661,12.5960534 C0.865984464,10.0577912 0.865984464,5.94220876 3.40417115,3.40402208 Z M11.8893221,4.11112882 C9.74059209,1.96331554 6.25817459,1.96331554 4.11142885,4.11097792 L4.11142885,4.11097792 L3.93741619,4.29299451 C1.9652728,6.4512291 2.02327702,9.80087024 4.11142885,11.8890221 C6.25817459,14.0366845 9.74059209,14.0366845 11.8892466,11.8889466 C14.0369845,9.74120876 14.0369845,6.25879124 11.8893221,4.11112882 Z M9.7496,5.7498 L9.77217521,5.75030674 C9.78664011,5.75095647 9.80108218,5.752231 9.81545749,5.75413034 L9.7496,5.7498 C9.78677995,5.7498 9.82301209,5.75385811 9.85787763,5.76155555 C9.87205185,5.76472107 9.88641207,5.7685567 9.90061164,5.77304135 C9.91433685,5.7773581 9.92762507,5.78220845 9.94063656,5.78759224 C9.95308473,5.79271746 9.96579752,5.79858598 9.97829605,5.8050161 C9.99319428,5.81274657 10.0071899,5.82086804 10.0207351,5.82962666 C10.0309961,5.83619471 10.0414599,5.84352519 10.0516925,5.85130261 C10.063842,5.86057164 10.0755087,5.87029896 10.0867085,5.88052899 C10.0923718,5.88570226 10.0978081,5.89090127 10.1031534,5.89624661 L10.1179105,5.91164291 C10.1279428,5.92256409 10.1374958,5.93393274 10.1465358,5.94571547 L10.1031534,5.89624661 C10.1299877,5.92308088 10.1531342,5.95220643 10.172593,5.98299348 C10.1795807,5.99411753 10.1863067,6.00575333 10.1925657,6.01767276 C10.199887,6.03159429 10.2063149,6.04540374 10.2120788,6.05942203 C10.2173601,6.0721824 10.2223452,6.0858957 10.2267329,6.09987341 C10.2307471,6.11285048 10.2341037,6.12530083 10.2369718,6.13784032 C10.2385989,6.14471252 10.2401583,6.15228823 10.2415443,6.15992437 L10.2456602,6.18696882 C10.2473764,6.20059543 10.2485319,6.21427918 10.2491267,6.22798274 L10.2496,6.2498 L10.2496,9.2498 C10.2496,9.52594237 10.0257424,9.7498 9.7496,9.7498 C9.50414011,9.7498 9.29999163,9.57292484 9.25765567,9.33967563 L9.2496,9.2498 L9.24854057,7.45725943 L6.60315339,10.1033534 C6.40789124,10.2986155 6.09130876,10.2986155 5.89604661,10.1033534 C5.72248026,9.92978704 5.70319511,9.66036264 5.83819116,9.4654945 L5.89604661,9.39624661 L8.54254057,6.74825943 L6.7496,6.7498 C6.50414011,6.7498 6.29999163,6.57292484 6.25765567,6.33967563 L6.2496,6.2498 C6.2496,6.00434011 6.42647516,5.80019163 6.65972437,5.75785567 L6.7496,5.7498 L9.7496,5.7498 Z"/>
  </g>
</svg>
