<svg xmlns="http://www.w3.org/2000/svg" width="16" height="16" viewBox="0 0 16 16">
  <g fill="none" fill-rule="evenodd">
    <polygon points="0 16 15.999 16 15.999 0 0 0"/>
    <path fill="#000" fill-rule="nonzero" d="M7.9996,1.6248 C11.5203711,1.6248 14.3746,4.4793575 14.3746,7.9998 C14.3746,11.5209068 11.5207068,14.3748 7.9996,14.3748 C4.4791575,14.3748 1.6246,11.5205711 1.6246,7.9998 C1.6246,4.47969322 4.47949322,1.6248 7.9996,1.6248 Z M7.9996,2.3748 C4.89370678,2.3748 2.3746,4.89390678 2.3746,7.9998 C2.3746,11.1063382 4.89335173,13.6248 7.9996,13.6248 C11.1064932,13.6248 13.6246,11.1066932 13.6246,7.9998 C13.6246,4.89355173 11.1061382,2.3748 7.9996,2.3748 Z M9.7496,5.8748 L9.77782468,5.87585715 C9.78621327,5.8764865 9.79458474,5.87739684 9.80292378,5.87858819 L9.7496,5.8748 C9.78658335,5.8748 9.82231628,5.88015374 9.85606603,5.89012848 C9.86381901,5.89242708 9.87219476,5.89520444 9.88048344,5.89828484 C9.89735124,5.90458425 9.91316585,5.91181343 9.92834727,5.92006047 C9.93636882,5.92435995 9.94492476,5.9294273 9.95331113,5.93486369 C9.9978159,5.96381457 10.0355854,6.0015841 10.0642971,6.04578074 L10.014765,5.98463496 C10.0411915,6.01106141 10.0628493,6.04045075 10.0797384,6.07173366 C10.0875866,6.08623415 10.0948157,6.10204876 10.1009355,6.11840494 C10.1041956,6.12720524 10.1069729,6.13558099 10.1094473,6.14402666 C10.1122639,6.1534589 10.1148405,6.16376231 10.1169813,6.17422442 L10.1208118,6.19647622 C10.1220032,6.20481526 10.1229135,6.21318673 10.1235428,6.22157532 L10.1246,6.2498 L10.1246,9.2498 C10.1246,9.45690678 9.95670678,9.6248 9.7496,9.6248 C9.56838157,9.6248 9.41718602,9.49625675 9.38221867,9.32537558 L9.3746,9.2498 L9.3736,7.1558 L6.51476504,10.014965 C6.36831843,10.1614117 6.13088157,10.1614117 5.98443496,10.014965 C5.85890929,9.88943938 5.84097705,9.69706373 5.93063824,9.55243807 L5.98443496,9.48463496 L8.8436,6.6238 L6.7496,6.6248 C6.56838157,6.6248 6.41718602,6.49625675 6.38221867,6.32537558 L6.3746,6.2498 C6.3746,6.06858157 6.50314325,5.91738602 6.67402442,5.88241867 L6.7496,5.8748 L9.7496,5.8748 Z"/>
  </g>
</svg>
