<svg xmlns="http://www.w3.org/2000/svg" width="16" height="16" viewBox="0 0 16 16">
  <g fill="none" fill-rule="evenodd">
    <polygon points="0 16 15.999 16 15.999 0 0 0"/>
    <path fill="#000" d="M10.2496,9.2498 C10.2496,9.5258 10.0256,9.7498 9.7496,9.7498 C9.4736,9.7498 9.2496,9.5258 9.2496,9.2498 L9.2496,7.4568 L6.6036,10.1038 C6.5056,10.2008 6.3776,10.2498 6.2496,10.2498 C6.1216,10.2498 5.9936,10.2008 5.8956,10.1038 C5.7006,9.9078 5.7006,9.5918 5.8956,9.3958 L8.5426,6.7498 L6.7496,6.7498 C6.4736,6.7498 6.2496,6.5258 6.2496,6.2498 C6.2496,5.9738 6.4736,5.7498 6.7496,5.7498 L9.7496,5.7498 C9.8146,5.7498 9.8796,5.7628 9.9406,5.7888 C10.0626,5.8388 10.1606,5.9368 10.2116,6.0588 C10.2356,6.1198 10.2496,6.1848 10.2496,6.2498 L10.2496,9.2498 Z M12.5966,3.4038 C10.0616,0.8698 5.9376,0.8688 3.4036,3.4038 C0.8696,5.9378 0.8696,10.0618 3.4036,12.5958 C4.6316,13.8238 6.2636,14.4998 7.9996,14.4998 C9.7356,14.4998 11.3686,13.8238 12.5966,12.5958 C15.1306,10.0618 15.1306,5.9378 12.5966,3.4038 L12.5966,3.4038 Z"/>
  </g>
</svg>
