<svg xmlns="http://www.w3.org/2000/svg" width="16" height="16" viewBox="0 0 16 16">
  <g fill="none" fill-rule="evenodd">
    <polygon points="0 16 15.999 16 15.999 0 0 0"/>
    <path fill="#000" fill-rule="nonzero" d="M7.9996,1.4998 C11.5894099,1.4998 14.4996,4.41032513 14.4996,7.9998 C14.4996,11.5899424 11.5897424,14.4998 7.9996,14.4998 C4.41012513,14.4998 1.4996,11.5896099 1.4996,7.9998 C1.4996,4.41065763 4.41045763,1.4998 7.9996,1.4998 Z M7.9996,2.4998 C4.96274237,2.4998 2.4996,4.96294237 2.4996,7.9998 C2.4996,11.0372994 4.96238411,13.4998 7.9996,13.4998 C11.0374576,13.4998 13.4996,11.0376576 13.4996,7.9998 C13.4996,4.96258411 11.0370994,2.4998 7.9996,2.4998 Z M9.7496,5.7498 L9.77016948,5.75022065 C9.78733477,5.75092304 9.80447076,5.75250506 9.82150411,5.75496669 L9.7496,5.7498 C9.78569704,5.7498 9.82090067,5.75362515 9.85482765,5.76089223 C9.87007425,5.76419613 9.88543471,5.76824802 9.90061164,5.77304135 C9.91433685,5.7773581 9.92762507,5.78220845 9.94063656,5.78759224 C9.95413886,5.79315147 9.96787569,5.79954961 9.98135819,5.80660497 C9.99364667,5.81309334 10.0052825,5.81981934 10.0166103,5.82698801 C10.0284346,5.83440935 10.0402092,5.84257454 10.0516925,5.85130261 C10.0653542,5.86172025 10.0784187,5.8727392 10.0908864,5.88438875 C10.094925,5.88815695 10.0990658,5.892159 10.1031534,5.89624661 L10.1130638,5.90644115 C10.1254344,5.91953139 10.1371054,5.93328964 10.1480173,5.94765608 L10.1031534,5.89624661 C10.1299877,5.92308088 10.1531342,5.95220643 10.172593,5.98299348 C10.1795807,5.99411753 10.1863067,6.00575333 10.1925657,6.01767276 C10.1998504,6.03152431 10.2062485,6.04526114 10.2119894,6.0592049 C10.2171915,6.07177493 10.2220419,6.08506315 10.2263316,6.09860083 C10.231152,6.11396529 10.2352039,6.12932575 10.2385143,6.14481295 C10.2395978,6.14966139 10.2406104,6.15477916 10.2415443,6.15992437 L10.2444333,6.17789589 C10.2468949,6.19492924 10.248477,6.21206523 10.2491793,6.22923052 L10.2496,6.2498 L10.2496,9.2498 C10.2496,9.52594237 10.0257424,9.7498 9.7496,9.7498 C9.50414011,9.7498 9.29999163,9.57292484 9.25765567,9.33967563 L9.2496,9.2498 L9.2486,7.4568 L6.60315339,10.1033534 C6.40789124,10.2986155 6.09130876,10.2986155 5.89604661,10.1033534 C5.72248026,9.92978704 5.70319511,9.66036264 5.83819116,9.4654945 L5.89604661,9.39624661 L8.5426,6.7488 L6.7496,6.7498 C6.50414011,6.7498 6.29999163,6.57292484 6.25765567,6.33967563 L6.2496,6.2498 C6.2496,6.00434011 6.42647516,5.80019163 6.65972437,5.75785567 L6.7496,5.7498 L9.7496,5.7498 Z"/>
  </g>
</svg>
