<svg xmlns="http://www.w3.org/2000/svg" width="16" height="16" viewBox="0 0 16 16">
  <g fill="none" fill-rule="evenodd">
    <polygon points="0 16 16 16 16 0 0 0"/>
    <path fill="#000" fill-rule="nonzero" d="M8,1.75 C11.4510712,1.75 14.25,4.54892881 14.25,8 C14.25,11.4510712 11.4510712,14.25 8,14.25 C4.54892881,14.25 1.75,11.4510712 1.75,8 C1.75,4.54892881 4.54892881,1.75 8,1.75 Z M8,2.25 C4.82507119,2.25 2.25,4.82507119 2.25,8 C2.25,11.1749288 4.82507119,13.75 8,13.75 C11.1749288,13.75 13.75,11.1749288 13.75,8 C13.75,4.82507119 11.1749288,2.25 8,2.25 Z M8,4.25 C8.11834673,4.25 8.21748682,4.33223341 8.24339732,4.44267729 L8.25,4.5 L8.25,7.75 L11.5,7.75 C11.6183467,7.75 11.7174868,7.83223341 11.7433973,7.94267729 L11.75,8 C11.75,8.11834673 11.6677666,8.21748682 11.5573227,8.24339732 L11.5,8.25 L8,8.25 C7.88165327,8.25 7.78251318,8.16776659 7.75660268,8.05732271 L7.75,8 L7.75,4.5 C7.75,4.36192881 7.86192881,4.25 8,4.25 Z"/>
  </g>
</svg>
