<svg xmlns="http://www.w3.org/2000/svg" width="16" height="16" viewBox="0 0 16 16">
  <g fill="none" fill-rule="evenodd">
    <polygon points="0 16 16 16 16 0 0 0"/>
    <path fill="#000" d="M11.5,8.5 L8,8.5 C7.724,8.5 7.5,8.276 7.5,8 L7.5,4.5 C7.5,4.224 7.724,4 8,4 C8.276,4 8.5,4.224 8.5,4.5 L8.5,7.5 L11.5,7.5 C11.776,7.5 12,7.724 12,8 C12,8.276 11.776,8.5 11.5,8.5 M8,1.5 C4.416,1.5 1.5,4.416 1.5,8 C1.5,11.584 4.416,14.5 8,14.5 C11.584,14.5 14.5,11.584 14.5,8 C14.5,4.416 11.584,1.5 8,1.5"/>
  </g>
</svg>
