<svg xmlns="http://www.w3.org/2000/svg" width="16" height="16" viewBox="0 0 16 16">
  <g fill="none" fill-rule="evenodd">
    <polygon points="0 16 15.999 16 15.999 0 0 0"/>
    <path fill="#000" d="M7.9996,11.75 C8.4136,11.75 8.7496,12.086 8.7496,12.5 C8.7496,12.915 8.4136,13.25 7.9996,13.25 C7.5856,13.25 7.2496,12.915 7.2496,12.5 C7.2496,12.086 7.5856,11.75 7.9996,11.75 Z M7.9993,8.9999 C8.96284869,8.9999 9.86823612,9.37053535 10.5397228,10.0193206 C10.7383131,10.2111969 10.7437558,10.5277326 10.5518794,10.7263228 C10.3600031,10.9249131 10.0434674,10.9303558 9.84487716,10.7384794 C9.35870719,10.2687458 8.70197107,9.9999 7.9993,9.9999 C7.29689572,9.9999 6.64110675,10.2685391 6.15472284,10.7384794 C5.9561326,10.9303558 5.6395969,10.9249131 5.44772056,10.7263228 C5.25584423,10.5277326 5.26128692,10.2111969 5.45987716,10.0193206 C6.13151828,9.37038617 7.03593144,8.9999 7.9993,8.9999 Z M7.9992,6.0003 C9.77078489,6.0003 11.4322908,6.69159803 12.66351,7.90053269 C12.8605471,8.09400355 12.8634382,8.41057284 12.6699673,8.60760998 C12.4764964,8.80464713 12.1599272,8.80753817 11.96289,8.61406731 C10.9171042,7.58720972 9.50649119,7.0003 7.9992,7.0003 C6.49244543,7.0003 5.08099492,7.58755819 4.03667143,8.61390872 C3.83972187,8.80746874 3.52315131,8.80472099 3.32959128,8.60777143 C3.13603126,8.41082187 3.13877901,8.09425131 3.33572857,7.90069128 C4.56557078,6.69201484 6.22807849,6.0003 7.9992,6.0003 Z"/>
  </g>
</svg>
