<svg xmlns="http://www.w3.org/2000/svg" width="16" height="16" viewBox="0 0 16 16">
  <g fill="none" fill-rule="evenodd">
    <polygon points="0 16 15.999 16 15.999 0 0 0"/>
    <path fill="#000" d="M12.7799,7.0936 C12.4429,6.8426 12.0889,6.6196 11.7179,6.4256 L11.6719,6.4006 C11.3119,6.2156 10.9409,6.0566 10.5589,5.9276 C10.5279,5.9166 10.4969,5.9076 10.4649,5.8976 C10.0889,5.7756 9.7049,5.6776 9.3129,5.6126 C9.2799,5.6066 9.2469,5.6036 9.2139,5.5986 C8.8129,5.5376 8.4079,5.4996 7.9999,5.4996 C7.5919,5.4996 7.1869,5.5366 6.7879,5.5986 C6.7549,5.6036 6.7199,5.6066 6.6869,5.6126 C6.2959,5.6766 5.9129,5.7756 5.5369,5.8966 C5.5059,5.9066 5.4729,5.9166 5.4419,5.9266 C5.0599,6.0556 4.6899,6.2146 4.3319,6.3996 C4.3149,6.4076 4.2989,6.4166 4.2829,6.4256 C3.9139,6.6186 3.5579,6.8406 3.2219,7.0916 L3.2219,7.0926 L1.5689,5.1416 C5.3579,2.2846 10.6479,2.2866 14.4309,5.1476 L12.7799,7.0936 Z M15.0379,4.3466 C10.8959,1.2196 5.1069,1.2186 0.9639,4.3456 C0.7429,4.5116 0.6039,4.7546 0.5739,5.0296 C0.5429,5.3046 0.6289,5.5856 0.8089,5.7976 L7.2369,13.3736 C7.4279,13.5996 7.7069,13.7286 8.0009,13.7296 L8.0019,13.7296 C8.2939,13.7296 8.5689,13.6016 8.7589,13.3786 L8.7589,13.3786 L15.1939,5.7946 C15.3729,5.5826 15.4579,5.3036 15.4269,5.0306 C15.3959,4.7556 15.2589,4.5126 15.0379,4.3466 L15.0379,4.3466 Z"/>
  </g>
</svg>
