<svg xmlns="http://www.w3.org/2000/svg" width="16" height="16" viewBox="0 0 16 16">
  <g fill="none" fill-rule="evenodd">
    <polygon points="0 16 15.999 16 15.999 0 0 0"/>
    <path fill="#000" d="M8.3776,13.055 C8.1776,13.29 7.8176,13.286 7.6186,13.051 L3.1486,7.781 C4.4556,6.67 6.1496,6 7.9996,6 C9.8506,6 11.5446,6.67 12.8526,7.781 L8.3776,13.055 Z" opacity=".2"/>
    <path fill="#000" fill-rule="nonzero" d="M0.962078412,4.34681911 C5.108352,1.2172603 10.892248,1.2172603 15.0385216,4.34681911 L15.0385216,4.34681911 L15.1310067,4.42594011 C15.5055315,4.78782455 15.5379851,5.38615157 15.1933635,5.79561374 L15.1933635,5.79561374 L11.7092607,9.89965 L8.75836969,13.3790593 C8.73320009,13.4086336 8.70675474,13.4363278 8.67919468,13.4621448 C8.50208251,13.6277506 8.27946775,13.7160935 8.05339959,13.7277625 C7.75412675,13.743386 7.44946925,13.6249869 7.23729136,13.374425 L7.23702136,13.3743604 L0.809457927,5.79787425 C0.435893188,5.35873698 0.500366234,4.69460201 0.962078412,4.34681911 Z M7.9996,6.5 C6.4882302,6.5001 5.05139039,6.98065251 3.86418577,7.85212343 L7.999,12.726 L12.1360142,7.85212343 C11.1139685,7.10188783 9.90691264,6.64137036 8.62624836,6.52775935 L8.31409354,6.50694415 L7.9996,6.5 L7.9996,6.5 Z M7.9996,5.5 C9.69623657,5.5 11.3116813,6.03004811 12.6542632,6.99222832 L12.7846328,7.08813361 L12.7846328,7.08813361 L14.4297546,5.14993875 C10.646352,2.2845397 5.354248,2.2845397 1.56697443,5.14493251 L1.56697443,5.14493251 L3.21556724,7.08813361 L3.21556724,7.08813361 L3.34641326,6.99237309 C4.68815938,6.03022048 6.30356154,5.5 7.9996,5.5 Z"/>
  </g>
</svg>
