<svg xmlns="http://www.w3.org/2000/svg" width="16" height="16" viewBox="0 0 16 16">
  <g fill="none" fill-rule="evenodd">
    <polygon points="0 16 15.999 16 15.999 0 0 0"/>
    <path fill="#000" d="M7.9996,11.375 C8.6206,11.375 9.1246,11.879 9.1246,12.5 C9.1246,13.122 8.6206,13.625 7.9996,13.625 C7.3786,13.625 6.8746,13.122 6.8746,12.5 C6.8746,11.879 7.3786,11.375 7.9996,11.375 Z M7.9993,8.7499 C9.02806809,8.7499 9.99561835,9.14598274 10.7134343,9.83953084 C11.0113196,10.1273453 11.0194837,10.6021489 10.7316692,10.9000343 C10.4438547,11.1979196 9.9690511,11.2060837 9.67116574,10.9182692 C9.23132496,10.4932984 8.63675166,10.2499 7.9993,10.2499 C7.36213679,10.2499 6.76850387,10.4930773 6.32843426,10.9182692 C6.0305489,11.2060837 5.55574535,11.1979196 5.26793084,10.9000343 C4.98011634,10.6021489 4.98828038,10.1273453 5.28616574,9.83953084 C6.00412116,9.14584794 6.97069037,8.7499 7.9993,8.7499 Z M7.9992,5.7503 C9.83685831,5.7503 11.5610875,6.46769511 12.838665,7.72214903 C13.1342207,8.01235533 13.1385573,8.48720926 12.848351,8.78276498 C12.5581447,9.0783207 12.0832907,9.08265726 11.787735,8.79245097 C10.7883075,7.81111264 9.44041777,7.2503 7.9992,7.2503 C6.55853716,7.2503 5.20985095,7.81144402 4.21190714,8.79221308 C3.91648281,9.08255311 3.44162696,9.07843148 3.15128692,8.78300714 C2.86094689,8.48758281 2.86506852,8.01272696 3.16049286,7.72238692 C4.43671474,6.468129 6.16198675,5.7503 7.9992,5.7503 Z"/>
  </g>
</svg>
