<svg xmlns="http://www.w3.org/2000/svg" width="16" height="16" viewBox="0 0 16 16">
  <g fill="none" fill-rule="evenodd">
    <polygon points="0 16 15.999 16 15.999 0 0 0"/>
    <path fill="#000" d="M7.9996,12.125 C8.2066,12.125 8.3746,12.293 8.3746,12.5 C8.3746,12.708 8.2066,12.875 7.9996,12.875 C7.7926,12.875 7.6246,12.708 7.6246,12.5 C7.6246,12.293 7.7926,12.125 7.9996,12.125 Z M7.9993,9.2499 C8.89762928,9.2499 9.74085389,9.59508797 10.3660114,10.1991103 C10.4653065,10.2950484 10.4680279,10.4533163 10.3720897,10.5526114 C10.2761516,10.6519065 10.1178837,10.6546279 10.0185886,10.5586897 C9.48608943,10.0441932 8.76719047,9.7499 7.9993,9.7499 C7.23165465,9.7499 6.51370963,10.0440009 5.98101142,10.5586897 C5.8817163,10.6546279 5.72344845,10.6519065 5.62751028,10.5526114 C5.53157211,10.4533163 5.53429346,10.2950484 5.63358858,10.1991103 C6.2589154,9.59492441 7.10117251,9.2499 7.9993,9.2499 Z M7.9992,6.2503 C9.70471146,6.2503 11.3034942,6.91550095 12.488355,8.07891634 C12.5868736,8.17565178 12.5883191,8.33393642 12.4915837,8.43245499 C12.3948482,8.53097357 12.2365636,8.53241909 12.138045,8.43568366 C11.0459008,7.36330679 9.57256462,6.7503 7.9992,6.7503 C6.42635369,6.7503 4.95213888,7.36367235 3.86143571,8.43560436 C3.76296094,8.53238437 3.60467565,8.53101049 3.50789564,8.43253571 C3.41111563,8.33406094 3.41248951,8.17577565 3.51096429,8.07899564 C4.69442681,6.91590068 6.29417022,6.2503 7.9992,6.2503 Z"/>
  </g>
</svg>
