<svg xmlns="http://www.w3.org/2000/svg" width="16" height="16" viewBox="0 0 16 16">
  <g fill="none" fill-rule="evenodd">
    <polygon points="0 16 15.999 16 15.999 0 0 0"/>
    <path fill="#000" d="M8.0001,11.938 C8.3101,11.938 8.5621,12.189 8.5621,12.5 C8.5621,12.811 8.3101,13.062 8.0001,13.062 C7.6891,13.062 7.4371,12.811 7.4371,12.5 C7.4371,12.189 7.6891,11.938 8.0001,11.938 Z M7.9993,9.1249 C8.93023898,9.1249 9.80454501,9.48281166 10.4528671,10.1092154 C10.6018098,10.2531227 10.6058918,10.4905244 10.4619846,10.6394671 C10.3180773,10.7884098 10.0806756,10.7924918 9.93173287,10.6485846 C9.42239831,10.1564695 8.73458077,9.8749 7.9993,9.8749 C7.26427518,9.8749 6.57740819,10.15627 6.06786713,10.6485846 C5.91892445,10.7924918 5.68152267,10.7884098 5.53761542,10.6394671 C5.39370817,10.4905244 5.39779019,10.2531227 5.54673287,10.1092154 C6.19521684,9.48265529 7.06855198,9.1249 7.9993,9.1249 Z M7.9992,6.1253 C9.73774818,6.1253 11.3678925,6.80354949 12.5759325,7.98972452 C12.7237103,8.13482766 12.7258786,8.37225463 12.5807755,8.52003249 C12.4356723,8.66781035 12.1982454,8.66997863 12.0504675,8.52487548 C10.9815025,7.47525826 9.5395279,6.8753 7.9992,6.8753 C6.45939956,6.8753 5.0165669,7.47561527 3.94905357,8.52475654 C3.8013414,8.66992656 3.56391348,8.66786574 3.41874346,8.52015357 C3.27357344,8.3724414 3.27563426,8.13501348 3.42334643,7.98984346 C4.62999879,6.80395776 6.26112436,6.1253 7.9992,6.1253 Z"/>
  </g>
</svg>
