<svg xmlns="http://www.w3.org/2000/svg" width="16" height="16" viewBox="0 0 16 16">
  <g fill="none" fill-rule="evenodd">
    <polygon points="0 16 16 16 16 0 0 0"/>
    <path fill="#000" fill-rule="nonzero" d="M5.833,3.2499 L2.5,3.2499 C2.08592881,3.2499 1.75,3.58582881 1.75,3.9999 L1.75,12.4999 C1.75,12.9139712 2.08592881,13.2499 2.5,13.2499 L13.556,13.2499 C13.9390712,13.2499 14.25,12.9389712 14.25,12.5559 L14.25,5.4999 C14.25,5.08582881 13.9140712,4.7499 13.5,4.7499 L8.167,4.7499 C8.1126458,4.7499 8.05919264,4.73216984 8.01563142,4.6996241 L6.28407387,3.39995543 C6.15357708,3.30245706 5.99512728,3.2499 5.833,3.2499 Z M2.5,3.7499 L5.833,3.7499 C5.8873542,3.7499 5.94080736,3.76763016 5.98436858,3.8001759 L7.71592613,5.09984457 C7.84642292,5.19734294 8.00487272,5.2499 8.167,5.2499 L13.5,5.2499 C13.6379288,5.2499 13.75,5.36197119 13.75,5.4999 L13.75,12.5559 C13.75,12.6628288 13.6629288,12.7499 13.556,12.7499 L2.5,12.7499 C2.36207119,12.7499 2.25,12.6378288 2.25,12.4999 L2.25,3.9999 C2.25,3.86197119 2.36207119,3.7499 2.5,3.7499 Z"/>
  </g>
</svg>
