<svg xmlns="http://www.w3.org/2000/svg" width="16" height="16" viewBox="0 0 16 16">
  <g fill="none" fill-rule="evenodd">
    <polygon points="0 16 15.999 16 15.999 0 0 0"/>
    <path fill="#000" d="M13.9996,5.4999 L13.9996,12.5559 C13.9996,12.8009 13.8016,12.9999 13.5556,12.9999 L2.4996,12.9999 C2.2246,12.9999 1.9996,12.7759 1.9996,12.4999 L1.9996,3.9999 C1.9996,3.7239 2.2246,3.4999 2.4996,3.4999 L5.8336,3.4999 C5.9406,3.4999 6.0466,3.5349 6.1336,3.5999 L7.8666,4.8999 C7.9526,4.9649 8.0586,4.9999 8.1666,4.9999 L13.4996,4.9999 C13.7756,4.9999 13.9996,5.2239 13.9996,5.4999" opacity=".2"/>
    <path fill="#000" fill-rule="nonzero" d="M5.8336,2.9999 L2.4996,2.9999 C1.94826669,2.9999 1.4996,3.44794784 1.4996,3.9999 L1.4996,12.4999 C1.4996,13.0518522 1.94826669,13.4999 2.4996,13.4999 L13.5556,13.4999 C14.0775715,13.4999 14.4996,13.0772141 14.4996,12.5559 L14.4996,5.4999 L14.4928702,5.38330518 C14.4350883,4.88606295 14.0123036,4.4999 13.4996,4.4999 L8.166,4.499 L6.43363693,3.1999277 C6.25977026,3.07002614 6.04887237,2.9999 5.8336,2.9999 Z M2.4996,12.4999 L2.4996,3.9999 L5.83433716,4.00045181 L7.56656307,5.2998723 C7.73800611,5.42945544 7.94986159,5.4999 8.1666,5.4999 L13.4996,5.4999 L13.499,12.499 L2.4996,12.4999 Z"/>
  </g>
</svg>
