<svg xmlns="http://www.w3.org/2000/svg" width="16" height="16" viewBox="0 0 16 16">
  <g fill="none" fill-rule="evenodd">
    <polygon points="0 16 16 16 16 0 0 0"/>
    <path fill="#000" fill-rule="nonzero" d="M5.833,4 L7.56707383,5.30005536 C7.73840611,5.42955544 7.95026159,5.5 8.167,5.5 L13.5,5.5 L13.5,12.5 L2.5,12.5 L2.5,4 L5.833,4 Z M13.5,4.5 L8.1671889,4.50014128 L6.43292617,3.19994464 C6.26159389,3.07044456 6.04973841,3 5.833,3 L2.5,3 C1.94785763,3 1.5,3.44785763 1.5,4 L1.5,12.5 C1.5,13.0521424 1.94785763,13.5 2.5,13.5 L13.556,13.5 C14.0771424,13.5 14.5,13.0771424 14.5,12.556 L14.5,5.5 C14.5,4.94785763 14.0521424,4.5 13.5,4.5 Z"/>
  </g>
</svg>
