<svg xmlns="http://www.w3.org/2000/svg" width="16" height="16" viewBox="0 0 16 16">
  <g fill="none" fill-rule="evenodd">
    <polygon points="0 16 16 16 16 0 0 0"/>
    <path fill="#000" fill-rule="nonzero" d="M5.833,3.1249 L2.5,3.1249 C2.01689322,3.1249 1.625,3.51679322 1.625,3.9999 L1.625,12.4999 C1.625,12.9830068 2.01689322,13.3749 2.5,13.3749 L13.556,13.3749 C14.0081068,13.3749 14.375,13.0080068 14.375,12.5559 L14.375,5.4999 C14.375,5.01679322 13.9831068,4.6249 13.5,4.6249 L8.167,4.6249 C8.13958907,4.6249 8.11238507,4.61587656 8.09044713,4.59948614 L6.35911081,3.29998314 C6.20676951,3.18616378 6.02207055,3.1249 5.833,3.1249 Z M2.5,3.8749 L5.833,3.8749 C5.86041093,3.8749 5.88761493,3.88392344 5.90955287,3.90031386 L7.64088919,5.19981686 C7.79323049,5.31363622 7.97792945,5.3749 8.167,5.3749 L13.5,5.3749 C13.5688932,5.3749 13.625,5.43100678 13.625,5.4999 L13.625,12.5559 C13.625,12.5937932 13.5938932,12.6249 13.556,12.6249 L2.5,12.6249 C2.43110678,12.6249 2.375,12.5687932 2.375,12.4999 L2.375,3.9999 C2.375,3.93100678 2.43110678,3.8749 2.5,3.8749 Z"/>
  </g>
</svg>
