<svg xmlns="http://www.w3.org/2000/svg" width="16" height="16" viewBox="0 0 16 16">
  <g fill="none" fill-rule="evenodd">
    <polygon points="0 16 16 16 16 0 0 0"/>
    <path fill="#000" fill-rule="nonzero" d="M5.833,2.7499 L2.5,2.7499 C1.80978644,2.7499 1.25,3.30968644 1.25,3.9999 L1.25,12.4999 C1.25,13.1901136 1.80978644,13.7499 2.5,13.7499 L13.556,13.7499 C14.2152136,13.7499 14.75,13.2151136 14.75,12.5559 L14.75,5.4999 L14.7435448,5.37211822 C14.6795172,4.7418998 14.1470752,4.2499 13.5,4.2499 L8.247,4.249 L6.58422162,3.00006628 C6.3663468,2.83728395 6.10290037,2.7499 5.833,2.7499 Z M5.75,4.249 L7.41577838,5.49973372 L7.52833233,5.5747862 C7.72164796,5.6892167 7.94208303,5.7499 8.167,5.7499 L13.25,5.749 L13.25,12.249 L2.75,12.249 L2.75,4.249 L5.75,4.249 Z"/>
  </g>
</svg>
