<svg id="Layer_1" data-name="Layer 1" xmlns="http://www.w3.org/2000/svg" viewBox="0 0 256 256">
  <rect x="-0.00098" width="256" height="256" fill="none"/>
  <path d="M188.79883,169.60193l-55.46631-41.59967,55.46631-41.6a7.99952,7.99952,0,0,0,0-12.7998l-64-48a8,8,0,0,0-12.79981,6.3999v80.00006l-51.20019-38.4a7.9998,7.9998,0,1,0-9.59961,12.7998l55.46631,41.6L51.19922,169.60193a8.0002,8.0002,0,0,0,9.59961,12.80078L111.999,144.00238v79.99994a8.00025,8.00025,0,0,0,12.79981,6.40039l64-48a8.0005,8.0005,0,0,0,0-12.80078ZM127.999,48.00232l42.667,32-42.667,32Zm0,160v-64l42.667,32Z"/>
</svg>
