<svg id="Raw" xmlns="http://www.w3.org/2000/svg" viewBox="0 0 256 256">
  <rect width="256" height="256" fill="none"/>
  <path d="M134.564,168l-15.75,24h35.43116a8.00016,8.00016,0,0,1,6.68847,12.38916l-26.25,40a8,8,0,1,1-13.377-8.77832L139.42627,208H103.99512a8.00017,8.00017,0,0,1-6.68848-12.38916L115.42627,168H75.99512A52.0014,52.0014,0,0,1,68.16479,64.59033,91.68713,91.68713,0,0,0,63.99512,92a8,8,0,0,0,16,0,75.62312,75.62312,0,0,1,5.03723-27.2168l.007-.01758A76.00126,76.00126,0,1,1,155.99512,168Z"/>
</svg>
