<svg id="Layer_1" data-name="Layer 1" xmlns="http://www.w3.org/2000/svg" viewBox="0 0 256 256">
  <rect x="-0.00098" width="256" height="256" fill="none"/>
  <polyline points="255.995 256 -0.005 256 -0.005 0" fill="none"/>
  <path d="M160,40A88.102,88.102,0,0,0,81.28711,88.6709l-.00537-.00049A87.46324,87.46324,0,0,0,71.98828,128a8,8,0,0,1-16,0,103.43674,103.43674,0,0,1,7.78-39.45264A63.99161,63.99161,0,0,0,72,216h88a88,88,0,0,0,0-176Zm31.42285,114.96338-16,40a8,8,0,0,1-14.85547-5.94238l11.61133-29.02881H151.99512a7.99975,7.99975,0,0,1-7.42774-10.97119l16-40a8,8,0,1,1,14.85547,5.94238l-11.61133,29.02881h20.1836a7.99974,7.99974,0,0,1,7.42773,10.97119Z"/>
</svg>
