<svg id="Raw" xmlns="http://www.w3.org/2000/svg" viewBox="0 0 256 256">
  <rect width="256" height="256" fill="none"/>
  <path d="M128.00146,24a104,104,0,1,0,104,104A104.12041,104.12041,0,0,0,128.00146,24Zm-.001,168a12,12,0,1,1,12-12A12,12,0,0,1,128.00049,192Zm28.28222-51.71875a39.6414,39.6414,0,0,1-20.28125,10.92187V152a8,8,0,1,1-16,0v-8a7.9954,7.9954,0,0,1,8-8,23.99744,23.99744,0,0,0,16.96875-40.96875c-9.0625-9.07813-24.88281-9.07813-33.92968,0A23.78173,23.78173,0,0,0,104.00146,112a8,8,0,0,1-16,0A39.73412,39.73412,0,0,1,99.72021,83.71094c15.09375-15.09375,41.46094-15.10157,56.57032.00781a39.99485,39.99485,0,0,1-.00782,56.5625Z"/>
</svg>
