<svg id="Raw" xmlns="http://www.w3.org/2000/svg" viewBox="0 0 256 256">
  <rect width="256" height="256" fill="none"/>
  <path d="M90.30559,130.37786a68.14083,68.14083,0,0,1,45.47328-47.32071l.15152-.04541Q135.99975,81.51458,136,80A64.02478,64.02478,0,0,0,86.37938,17.62177l-.00084.00019A64.05661,64.05661,0,0,1,9.622,94.37856l-.00023.001A64.12919,64.12919,0,0,0,46.99,138.92889l-.00581-.00661a44.06953,44.06953,0,0,1,43.32161-8.54436Z" opacity="0.2"/>
  <path d="M88,148a68,68,0,1,1,68,68H76a44,44,0,1,1,14.30583-85.62208" fill="none" stroke="#000" stroke-linecap="round" stroke-linejoin="round" stroke-width="16"/>
  <path d="M46.99,138.92889A64.12919,64.12919,0,0,1,9.6218,94.37955l.00023-.001A64.0566,64.0566,0,0,0,86.37854,17.622l.00084-.00019A64.02478,64.02478,0,0,1,136,80q0,1.51431-.06961,3.01174" fill="none" stroke="#000" stroke-linecap="round" stroke-linejoin="round" stroke-width="16"/>
</svg>
