<svg xmlns="http://www.w3.org/2000/svg" width="16" height="16" viewBox="0 0 16 16">
  <g fill="none" fill-rule="evenodd">
    <polygon points="0 16 16 16 16 0 0 0"/>
    <path fill="#000" fill-rule="nonzero" d="M13.5005,2.2502 C14.1907136,2.2502 14.7505,2.80998644 14.7505,3.5002 L14.7505,3.5002 L14.7505,12.5002 C14.7505,13.1904136 14.1907136,13.7502 13.5005,13.7502 L13.5005,13.7502 L4.2835,13.7502 C3.84354255,13.7502 3.43567664,13.5193975 3.21136838,13.1430519 L3.21136838,13.1430519 L0.357368377,8.38605193 C0.214890049,8.14857141 0.214876294,7.85190143 0.357332601,7.6144077 L0.357332601,7.6144077 L3.21138031,2.85632818 C3.43716236,2.48002476 3.84451642,2.2502 4.2835,2.2502 L4.2835,2.2502 Z M13.25,3.75 L4.423,3.75 L1.874,7.999 L4.424,12.25 L13.25,12.25 L13.25,3.75 Z M7.44621165,5.89695176 L7.53033009,5.96956991 L8.4995,6.9392 L9.46966991,5.96956991 C9.76256313,5.6766767 10.2374369,5.6766767 10.5303301,5.96956991 C10.7965966,6.23583648 10.8208027,6.65250016 10.6029482,6.94611165 L10.5303301,7.03023009 L9.5605,8.0002 L10.5303301,8.96956991 C10.8232233,9.26246313 10.8232233,9.73733687 10.5303301,10.0302301 C10.2640635,10.2964966 9.84739984,10.3207027 9.55378835,10.1028482 L9.46966991,10.0302301 L8.4995,9.0602 L7.53033009,10.0302301 C7.23743687,10.3231233 6.76256313,10.3231233 6.46966991,10.0302301 C6.20340335,9.76396352 6.1791973,9.34729984 6.39705176,9.05368835 L6.46966991,8.96956991 L7.4395,8.0002 L6.46966991,7.03023009 C6.1767767,6.73733687 6.1767767,6.26246313 6.46966991,5.96956991 C6.73593648,5.70330335 7.15260016,5.6790973 7.44621165,5.89695176 Z"/>
  </g>
</svg>
