<svg xmlns="http://www.w3.org/2000/svg" width="16" height="16" viewBox="0 0 16 16">
  <g fill="none" fill-rule="evenodd">
    <polygon points="0 16 16 16 16 0 0 0"/>
    <path fill="#000" fill-rule="nonzero" d="M13.5005,2.6252 C13.9836068,2.6252 14.3755,3.01709322 14.3755,3.5002 L14.3755,3.5002 L14.3755,12.5002 C14.3755,12.9833068 13.9836068,13.3752 13.5005,13.3752 L13.5005,13.3752 L4.2835,13.3752 C3.97541605,13.3752 3.69003477,13.2137089 3.53293419,12.950126 L3.53293419,12.950126 L0.678934188,8.19312597 C0.607695024,8.07438571 0.607688147,7.92605072 0.678916301,7.80730385 L0.678916301,7.80730385 L3.53294015,3.04926409 C3.69083961,2.78609833 3.97602468,2.6252 4.2835,2.6252 L4.2835,2.6252 Z M13.5005,3.3752 L4.2835,3.3752 C4.23904119,3.3752 4.1981941,3.39824549 4.1760837,3.43509615 L4.1760837,3.43509615 L1.438,8 L4.17662316,12.5652061 C4.19137507,12.5899565 4.21425327,12.6083703 4.24100318,12.6178962 L4.24100318,12.6178962 L4.2835,12.6252 L13.5005,12.6252 C13.5693932,12.6252 13.6255,12.5690932 13.6255,12.5002 L13.6255,12.5002 L13.6255,3.5002 C13.6255,3.43130678 13.5693932,3.3752 13.5005,3.3752 L13.5005,3.3752 Z M7.19736193,6.18093824 L7.26516504,6.23473496 L8.4995,7.4692 L9.73483496,6.23473496 C9.88128157,6.08828835 10.1187184,6.08828835 10.265165,6.23473496 C10.3906907,6.36026062 10.4086229,6.55263627 10.3189618,6.69726193 L10.265165,6.76506504 L9.0295,7.9992 L10.265165,9.23473496 C10.4116117,9.38118157 10.4116117,9.61861843 10.265165,9.76506504 C10.1396394,9.89059071 9.94726373,9.90852295 9.80263807,9.81886176 L9.73483496,9.76506504 L8.4995,8.5292 L7.26516504,9.76506504 C7.11871843,9.91151165 6.88128157,9.91151165 6.73483496,9.76506504 C6.60930929,9.63953938 6.59137705,9.44716373 6.68103824,9.30253807 L6.73483496,9.23473496 L7.9695,7.9992 L6.73483496,6.76506504 C6.58838835,6.61861843 6.58838835,6.38118157 6.73483496,6.23473496 C6.86036062,6.10920929 7.05273627,6.09127705 7.19736193,6.18093824 Z"/>
  </g>
</svg>
