<svg xmlns="http://www.w3.org/2000/svg" width="16" height="16" viewBox="0 0 16 16">
  <g fill="none" fill-rule="evenodd">
    <polygon points="0 16 15.999 16 15.999 0 0 0"/>
    <path fill="#000" d="M10.3532,9.1464 C10.5482,9.3414 10.5482,9.6584 10.3532,9.8534 C10.2552,9.9514 10.1272,10.0004 9.9992,10.0004 C9.8722,10.0004 9.7442,9.9514 9.6462,9.8534 L8.4992,8.7074 L7.3532,9.8534 C7.2552,9.9514 7.1272,10.0004 6.9992,10.0004 C6.8722,10.0004 6.7442,9.9514 6.6462,9.8534 C6.4512,9.6584 6.4512,9.3414 6.6462,9.1464 L7.7922,8.0004 L6.6462,6.8534 C6.4512,6.6584 6.4512,6.3414 6.6462,6.1464 C6.8412,5.9514 7.1582,5.9514 7.3532,6.1464 L8.4992,7.2924 L9.6462,6.1464 C9.8412,5.9514 10.1582,5.9514 10.3532,6.1464 C10.5482,6.3414 10.5482,6.6584 10.3532,6.8534 L9.2072,8.0004 L10.3532,9.1464 Z M13.4992,2.5004 L4.2832,2.5004 C3.9352,2.5004 3.6062,2.6854 3.4252,2.9854 L0.5712,7.7424 C0.4762,7.9004 0.4762,8.0994 0.5712,8.2574 L3.4252,13.0144 L3.4252,13.0154 C3.6062,13.3144 3.9342,13.5004 4.2832,13.5004 L13.4992,13.5004 C14.0512,13.5004 14.4992,13.0514 14.4992,12.5004 L14.4992,3.5004 C14.4992,2.9484 14.0512,2.5004 13.4992,2.5004 L13.4992,2.5004 Z"/>
  </g>
</svg>
