<svg xmlns="http://www.w3.org/2000/svg" width="16" height="16" viewBox="0 0 16 16">
  <g fill="none" fill-rule="evenodd">
    <polygon points="0 16 16 16 16 0 0 0"/>
    <path fill="#000" fill-rule="nonzero" d="M13.5005,2.5002 C14.0526424,2.5002 14.5005,2.94805763 14.5005,3.5002 L14.5005,3.5002 L14.5005,12.5002 C14.5005,13.0523424 14.0526424,13.5002 13.5005,13.5002 L13.5005,13.5002 L4.2835,13.5002 C3.93145822,13.5002 3.60524873,13.3156051 3.42574558,13.0144346 L3.42574558,13.0144346 L0.571745585,8.25743462 C0.476760032,8.09911428 0.476750863,7.90133429 0.571721734,7.74300513 L0.571721734,7.74300513 L3.42575354,2.98495212 C3.60628053,2.68407381 3.93218859,2.5002 4.2835,2.5002 L4.2835,2.5002 Z M4.282,3.5 L1.583,8 L4.28399754,12.5012081 L13.5005,12.5002 L13.5005,3.5002 L4.282,3.5 Z M7.2843055,6.08849116 L7.35355339,6.14634661 L8.4995,7.2922 L9.64644661,6.14634661 C9.84170876,5.95108446 10.1582912,5.95108446 10.3535534,6.14634661 C10.5271197,6.31991296 10.5464049,6.58933736 10.4114088,6.7842055 L10.3535534,6.85345339 L9.2075,8.0002 L10.3535534,9.14634661 C10.5488155,9.34160876 10.5488155,9.65819124 10.3535534,9.85345339 C10.179987,10.0270197 9.91056264,10.0463049 9.7156945,9.91130884 L9.64644661,9.85345339 L8.4995,8.7072 L7.35355339,9.85345339 C7.15829124,10.0487155 6.84170876,10.0487155 6.64644661,9.85345339 C6.47288026,9.67988704 6.45359511,9.41046264 6.58859116,9.2155945 L6.64644661,9.14634661 L7.7925,8.0002 L6.64644661,6.85345339 C6.45118446,6.65819124 6.45118446,6.34160876 6.64644661,6.14634661 C6.82001296,5.97278026 7.08943736,5.95349511 7.2843055,6.08849116 Z"/>
  </g>
</svg>
