<svg xmlns="http://www.w3.org/2000/svg" width="16" height="16" viewBox="0 0 16 16">
  <g fill="none" fill-rule="evenodd">
    <polygon points="0 16 15.999 16 15.999 0 0 0"/>
    <path fill="#000" d="M3.8541,12.7572 L1.0001,8.0002 L3.8541,3.2422 C3.9451,3.0922 4.1071,3.0002 4.2831,3.0002 L13.5001,3.0002 C13.7761,3.0002 14.0001,3.2242 14.0001,3.5002 L14.0001,12.5002 C14.0001,12.7762 13.7761,13.0002 13.5001,13.0002 L4.2831,13.0002 C4.1071,13.0002 3.9451,12.9082 3.8541,12.7572" opacity=".2"/>
    <path fill="#000" fill-rule="nonzero" d="M13.5001,2.5002 C14.0522424,2.5002 14.5001,2.94805763 14.5001,3.5002 L14.5001,3.5002 L14.5001,12.5002 C14.5001,13.0523424 14.0522424,13.5002 13.5001,13.5002 L13.5001,13.5002 L4.2831,13.5002 C3.93168955,13.5002 3.60726658,13.3163054 3.42534558,13.0144346 L3.42534558,13.0144346 L0.571345585,8.25743462 C0.476360032,8.09911428 0.476350863,7.90133429 0.571321734,7.74300513 L0.571321734,7.74300513 L3.42661596,2.98285968 C3.60830524,2.68337187 3.93242073,2.5002 4.2831,2.5002 L4.2831,2.5002 Z M13.5001,3.500155 L4.2825761,3.500155 L1.582,7.999 L4.28234517,12.4991185 L13.5001,12.5002 L13.5001,3.500155 Z M7.2839055,6.08849116 L7.35315339,6.14634661 L8.4991,7.2922 L9.64604661,6.14634661 C9.84130876,5.95108446 10.1578912,5.95108446 10.3531534,6.14634661 C10.5267197,6.31991296 10.5460049,6.58933736 10.4110088,6.7842055 L10.3531534,6.85345339 L9.2071,8.0002 L10.3531534,9.14634661 C10.5484155,9.34160876 10.5484155,9.65819124 10.3531534,9.85345339 C10.179587,10.0270197 9.91016264,10.0463049 9.7152945,9.91130884 L9.64604661,9.85345339 L8.4991,8.7072 L7.35315339,9.85345339 C7.15789124,10.0487155 6.84130876,10.0487155 6.64604661,9.85345339 C6.47248026,9.67988704 6.45319511,9.41046264 6.58819116,9.2155945 L6.64604661,9.14634661 L7.7921,8.0002 L6.64604661,6.85345339 C6.45078446,6.65819124 6.45078446,6.34160876 6.64604661,6.14634661 C6.81961296,5.97278026 7.08903736,5.95349511 7.2839055,6.08849116 Z"/>
  </g>
</svg>
