<svg xmlns="http://www.w3.org/2000/svg" width="16" height="16" viewBox="0 0 16 16">
  <g fill="none" fill-rule="evenodd">
    <polygon points="0 16 16 16 16 0 0 0"/>
    <path fill="#000" fill-rule="nonzero" d="M13.5005,2.7502 C13.9145712,2.7502 14.2505,3.08612881 14.2505,3.5002 L14.2505,3.5002 L14.2505,12.5002 C14.2505,12.9142712 13.9145712,13.2502 13.5005,13.2502 L13.5005,13.2502 L4.2835,13.2502 C4.01937389,13.2502 3.77482081,13.1118127 3.64012279,12.8858173 L3.64012279,12.8858173 L0.786122792,8.12881731 C0.738630016,8.04965714 0.738625431,7.95076714 0.786110867,7.87160257 L0.786110867,7.87160257 L3.64012677,3.11357606 C3.77539869,2.88812286 4.01986076,2.7502 4.2835,2.7502 L4.2835,2.7502 Z M13.5005,3.2502 L4.2835,3.2502 C4.19520511,3.2502 4.11363502,3.29622096 4.06888913,3.37079743 L4.06888913,3.37079743 L1.291,7.999 L4.06924877,12.629204 C4.10278593,12.6854719 4.15686785,12.7253982 4.2190621,12.7418446 L4.2190621,12.7418446 L4.2835,12.7502 L13.5005,12.7502 C13.6384288,12.7502 13.7505,12.6381288 13.7505,12.5002 L13.7505,12.5002 L13.7505,3.5002 C13.7505,3.36227119 13.6384288,3.2502 13.5005,3.2502 L13.5005,3.2502 Z M10.1767767,6.3231233 C10.2581359,6.40448253 10.2716958,6.52796688 10.2174563,6.62336781 L10.1767767,6.6766767 L8.8535,7.9992 L10.1767767,9.3231233 C10.2744078,9.42075438 10.2744078,9.57904562 10.1767767,9.6766767 C10.0954175,9.75803592 9.97193312,9.77159579 9.87653219,9.71735631 L9.8232233,9.6766767 L8.4995,8.3532 L7.1767767,9.6766767 C7.07914562,9.77430777 6.92085438,9.77430777 6.8232233,9.6766767 C6.74186408,9.59531747 6.72830421,9.47183312 6.78254369,9.37643219 L6.8232233,9.3231233 L8.1455,7.9992 L6.8232233,6.6766767 C6.72559223,6.57904562 6.72559223,6.42075438 6.8232233,6.3231233 C6.90458253,6.24176408 7.02806688,6.22820421 7.12346781,6.28244369 L7.1767767,6.3231233 L8.4995,7.6452 L9.8232233,6.3231233 C9.92085438,6.22549223 10.0791456,6.22549223 10.1767767,6.3231233 Z"/>
  </g>
</svg>
