<svg id="Layer_1" data-name="Layer 1" xmlns="http://www.w3.org/2000/svg" viewBox="0 0 256 256">
  <g>
    <rect width="256" height="256" fill="none"/>
    <path d="M215.99512,39.99805H68.52637a16.1162,16.1162,0,0,0-13.71875,7.76562L9.13574,123.88086a8.02459,8.02459,0,0,0,0,8.23437l45.67188,76.11719v.00781a16.10652,16.10652,0,0,0,13.71875,7.75782H215.99512a16.01583,16.01583,0,0,0,16-16v-144A16.01582,16.01582,0,0,0,215.99512,39.99805ZM165.65137,146.3418a7.99915,7.99915,0,1,1-11.3125,11.3125l-18.34375-18.34375L117.65137,157.6543a7.99915,7.99915,0,0,1-11.3125-11.3125l18.34375-18.34375L106.33887,109.6543a7.99915,7.99915,0,0,1,11.3125-11.3125l18.34375,18.34375L154.33887,98.3418a7.99915,7.99915,0,0,1,11.3125,11.3125l-18.34375,18.34375Z"/>
  </g>
</svg>
