<svg xmlns="http://www.w3.org/2000/svg" width="16" height="16" viewBox="0 0 16 16">
  <g fill="none" fill-rule="evenodd">
    <polygon points="0 16 15.999 16 15.999 0 0 0"/>
    <path fill="#000" d="M12.777774,1.24831597 C12.8993035,1.38274332 12.9053458,1.58110398 12.8020365,1.7216397 L12.751084,1.77797401 L11.7679035,2.66692064 C12.759631,3.64205207 13.3746,4.99912494 13.3746,6.4998 L13.3746,6.4998 L13.3746,9.4998 C13.3746,12.4689068 10.9687068,14.8748 7.9996,14.8748 C5.03115942,14.8748 2.6246,12.468573 2.6246,9.4998 L2.6246,9.4998 L2.6246,6.4998 C2.6246,4.99929369 3.23973924,3.64221895 4.23154911,2.66704441 L3.24811597,1.77797401 C3.0944847,1.63908322 3.08253519,1.40194723 3.22142599,1.24831597 C3.34295543,1.11388861 3.53970385,1.08793635 3.68991301,1.17659469 L3.75108403,1.22162599 L4.80664116,2.17578265 C5.69947698,1.51533864 6.80400768,1.1248 7.9996,1.1248 C9.19524406,1.1248 10.2996434,1.51514302 11.1923608,2.17532675 L12.248116,1.22162599 C12.4017472,1.08273519 12.6388832,1.0946847 12.777774,1.24831597 Z M12.6246,7.87479704 L3.3746,7.87479704 L3.3746,9.4998 C3.3746,11.9833769 5.33190593,14.0094007 7.78789905,14.1200413 L7.9996,14.1248 C10.5544932,14.1248 12.6246,12.0546932 12.6246,9.4998 L12.6246,9.4998 L12.6246,7.87479704 Z M7.9996,1.8748 C5.44570678,1.8748 3.3746,3.94590678 3.3746,6.4998 L3.3746,6.4998 L3.3746,7.12479704 L12.6246,7.12479704 L12.6246,6.4998 C12.6246,4.01650118 10.6675645,1.99021473 8.21132348,1.87955938 Z M6.2501,4.6878 C6.5601,4.6878 6.8121,4.9388 6.8121,5.2498 C6.8121,5.5608 6.5601,5.8118 6.2501,5.8118 C5.9391,5.8118 5.6871,5.5608 5.6871,5.2498 C5.6871,4.9388 5.9391,4.6878 6.2501,4.6878 Z M9.7501,4.6878 C10.0601,4.6878 10.3121,4.9388 10.3121,5.2498 C10.3121,5.5608 10.0601,5.8118 9.7501,5.8118 C9.4391,5.8118 9.1871,5.5608 9.1871,5.2498 C9.1871,4.9388 9.4391,4.6878 9.7501,4.6878 Z"/>
  </g>
</svg>
