<svg xmlns="http://www.w3.org/2000/svg" width="16" height="16" viewBox="0 0 16 16">
  <g fill="none" fill-rule="evenodd">
    <polygon points="0 16 15.999 16 15.999 0 0 0"/>
    <path fill="#000" d="M12.6850493,1.33214398 C12.7622109,1.41749468 12.769539,1.54150498 12.710567,1.6340553 L12.667256,1.68524934 L11.5841035,2.66385635 C12.6090208,3.6220008 13.2496,4.98610862 13.2496,6.4998 L13.2496,6.4998 L13.2496,9.4998 C13.2496,12.3998712 10.8996712,14.7498 7.9996,14.7498 C5.10019114,14.7498 2.7496,12.3995336 2.7496,9.4998 L2.7496,9.4998 L2.7496,6.4998 C2.7496,4.9862267 3.39040904,3.62206439 4.41547359,2.66386661 L3.33194398,1.68524934 C3.22952313,1.59265548 3.22155679,1.43456482 3.31415066,1.33214398 C3.39131221,1.24679328 3.51395765,1.22703598 3.61196741,1.27640548 L3.66725602,1.31435066 L4.7993195,2.33792332 C5.68527024,1.65560389 6.79512652,1.2498 7.9996,1.2498 C9.20407008,1.2498 10.3137381,1.65535796 11.1995479,2.33734782 L12.331944,1.31435066 C12.4343648,1.22175679 12.5924555,1.22972313 12.6850493,1.33214398 Z M12.7496,7.74979803 L3.2496,7.74979803 L3.2496,9.4998 C3.2496,12.0504986 5.25980804,14.1312817 7.78217756,14.2449126 L7.9996,14.2498 C10.6235288,14.2498 12.7496,12.1237288 12.7496,9.4998 L12.7496,9.4998 L12.7496,7.74979803 Z M7.9996,1.7498 C5.37667119,1.7498 3.2496,3.87687119 3.2496,6.4998 L3.2496,6.4998 L3.2496,7.24979803 L12.7496,7.24979803 L12.7496,6.4998 C12.7496,3.949387 10.7396697,1.86833415 8.21704558,1.75468802 Z M6.2496,4.8748 C6.4566,4.8748 6.6246,5.0428 6.6246,5.2498 C6.6246,5.4578 6.4566,5.6248 6.2496,5.6248 C6.0426,5.6248 5.8746,5.4578 5.8746,5.2498 C5.8746,5.0428 6.0426,4.8748 6.2496,4.8748 Z M9.7496,4.8748 C9.9566,4.8748 10.1246,5.0428 10.1246,5.2498 C10.1246,5.4578 9.9566,5.6248 9.7496,5.6248 C9.5426,5.6248 9.3746,5.4578 9.3746,5.2498 C9.3746,5.0428 9.5426,4.8748 9.7496,4.8748 Z"/>
  </g>
</svg>
