<svg xmlns="http://www.w3.org/2000/svg" width="16" height="16" viewBox="0 0 16 16">
  <g fill="none" fill-rule="evenodd">
    <polygon points="0 16 15.999 16 15.999 0 0 0"/>
    <path fill="#000" d="M13.055948,0.996831934 C13.3084767,1.27616151 13.3116826,1.69351541 13.0793276,1.97579085 L13.0025681,2.05614803 L12.3039321,2.68713551 C13.2034609,3.70192734 13.7496,5.0371001 13.7496,6.4998 L13.7496,6.4998 L13.7496,9.4998 C13.7496,12.6760136 11.1758136,15.2498 7.9996,15.2498 C4.82406423,15.2498 2.2496,12.6756914 2.2496,9.4998 L2.2496,9.4998 L2.2496,6.4998 C2.2496,5.03763025 2.79559784,3.70278442 3.69479629,2.68805973 L2.99663193,2.05614803 C2.6893694,1.77836643 2.66547038,1.30409446 2.94325197,0.996831934 C3.1957807,0.717502362 3.61069816,0.672357507 3.91490157,0.875159282 L4.00256807,0.943451975 L4.83686697,1.69722403 C5.74425199,1.09839265 6.83128098,0.7498 7.9996,0.7498 C9.1685193,0.7498 10.2559161,1.09855836 11.1634492,1.69768074 L11.9966319,0.943451975 C12.3038945,0.665670383 12.7781664,0.689569405 13.055948,0.996831934 Z M12.2496,8.24979408 L3.7496,8.24979408 L3.7496,9.4998 C3.7496,11.7781762 5.54215897,13.6374986 7.79368825,13.7448996 L7.9996,13.7498 C10.3473864,13.7498 12.2496,11.8475864 12.2496,9.4998 L12.2496,9.4998 L12.2496,8.24979408 Z M7.9996,2.2498 C5.65281356,2.2498 3.7496,4.15301356 3.7496,6.4998 L3.7496,6.4998 L3.7496,6.74979408 L12.2496,6.74979408 L12.2496,6.4998 C12.2496,4.22167894 10.4572887,2.36211641 8.2055336,2.25470107 Z M6.2496,4.4998 C6.6646,4.4998 6.9996,4.8358 6.9996,5.2498 C6.9996,5.6648 6.6646,5.9998 6.2496,5.9998 C5.8356,5.9998 5.4996,5.6648 5.4996,5.2498 C5.4996,4.8358 5.8356,4.4998 6.2496,4.4998 Z M9.7496,4.4998 C10.1646,4.4998 10.4996,4.8358 10.4996,5.2498 C10.4996,5.6648 10.1646,5.9998 9.7496,5.9998 C9.3356,5.9998 8.9996,5.6648 8.9996,5.2498 C8.9996,4.8358 9.3356,4.4998 9.7496,4.4998 Z"/>
  </g>
</svg>
