<svg xmlns="http://www.w3.org/2000/svg" width="16" height="16" viewBox="0 0 16 16">
  <g fill="none" fill-rule="evenodd">
    <polygon points="0 16 15.999 16 15.999 0 0 0"/>
    <path fill="#000" d="M12.1646,1.1288 C12.3686,0.9438 12.6856,0.9588 12.8706,1.1648 C13.0556,1.3698 13.0396,1.6858 12.8346,1.8708 L12.8346,1.8708 L11.9436,2.6758 C12.9046,3.6668 13.4996,5.0148 13.4996,6.4998 L13.4996,6.4998 L13.4996,9.4998 C13.4996,12.5328 11.0316,14.9998 7.9996,14.9998 C4.9676,14.9998 2.4996,12.5328 2.4996,9.4998 L2.4996,9.4998 L2.4996,6.4998 C2.4996,5.0148 3.0946,3.6668 4.0556,2.6758 L4.0556,2.6758 L3.1646,1.8708 C2.9596,1.6858 2.9436,1.3698 3.1286,1.1648 C3.3136,0.9598 3.6306,0.9448 3.8346,1.1288 L3.8346,1.1288 L4.8196,2.0208 C5.7196,1.3798 6.8146,0.9998 7.9996,0.9998 C9.1846,0.9998 10.2796,1.3798 11.1796,2.0208 L11.1796,2.0208 Z M7.9996,1.9998 C5.5186,1.9998 3.4996,4.0188 3.4996,6.4998 L3.4996,6.4998 L3.4996,6.9998 L12.4996,6.9998 L12.4996,6.4998 C12.4996,4.0188 10.4806,1.9998 7.9996,1.9998 Z M6.2496,4.4998 C6.6636,4.4998 6.9996,4.8358 6.9996,5.2498 C6.9996,5.6648 6.6636,5.9998 6.2496,5.9998 C5.8356,5.9998 5.4996,5.6648 5.4996,5.2498 C5.4996,4.8358 5.8356,4.4998 6.2496,4.4998 Z M9.7496,4.4998 C10.1636,4.4998 10.4996,4.8358 10.4996,5.2498 C10.4996,5.6648 10.1636,5.9998 9.7496,5.9998 C9.3356,5.9998 8.9996,5.6648 8.9996,5.2498 C8.9996,4.8358 9.3356,4.4998 9.7496,4.4998 Z"/>
  </g>
</svg>
