<svg id="Layer_1" data-name="Layer 1" xmlns="http://www.w3.org/2000/svg" viewBox="0 0 256 256">
  <rect width="256" height="256" fill="none"/>
  <path d="M216,40H40A16.01833,16.01833,0,0,0,24,56V208a8,8,0,0,0,11.57812,7.15527L64,200.94434l28.42188,14.21093a8.00257,8.00257,0,0,0,7.15624,0L128,200.94434l28.42188,14.21093a8.00049,8.00049,0,0,0,7.15624,0L192,200.94434l28.42188,14.21093A8,8,0,0,0,232,208V56A16.01833,16.01833,0,0,0,216,40ZM180,144H76a8,8,0,0,1,0-16H180a8,8,0,0,1,0,16Zm0-32H76a8,8,0,0,1,0-16H180a8,8,0,0,1,0,16Z"/>
</svg>
