<svg id="Raw" xmlns="http://www.w3.org/2000/svg" viewBox="0 0 256 256">
  <rect width="256" height="256" fill="none"/>
  <path d="M98.90576,157.08752a71.531,71.531,0,0,1,21.08838,50.91211,8,8,0,0,1-16,0,56.00027,56.00027,0,0,0-56-56,8,8,0,1,1,0-16A71.53147,71.53147,0,0,1,98.90576,157.08752ZM47.99414,87.99963a8,8,0,1,0,0,16,104.00183,104.00183,0,0,1,104,104,8,8,0,0,0,16,0,120.00093,120.00093,0,0,0-120-120Zm118.794,1.20606A166.90561,166.90561,0,0,0,47.99414,39.99963a8,8,0,0,0,0,16,151.00491,151.00491,0,0,1,107.48047,44.52051,151.00328,151.00328,0,0,1,44.51953,107.47949,8,8,0,0,0,16,0A166.90191,166.90191,0,0,0,166.78809,89.20569ZM51.99414,191.99963a12,12,0,1,0,12,12A12.01344,12.01344,0,0,0,51.99414,191.99963Z"/>
</svg>
