<svg id="Raw" xmlns="http://www.w3.org/2000/svg" viewBox="0 0 256 256">
  <rect width="256" height="256" fill="none"/>
  <g>
    <path d="M47.99414,135.99963a8,8,0,1,0,0,16,56.00027,56.00027,0,0,1,56,56,8,8,0,0,0,16,0,71.9994,71.9994,0,0,0-72-72Z"/>
    <path d="M47.99414,87.99963a8,8,0,1,0,0,16,104.00183,104.00183,0,0,1,104,104,8,8,0,0,0,16,0,120.00093,120.00093,0,0,0-120-120Z"/>
    <path d="M166.78809,89.20569A166.90561,166.90561,0,0,0,47.99414,39.99963a8,8,0,0,0,0,16,151.00491,151.00491,0,0,1,107.48047,44.52051,151.00328,151.00328,0,0,1,44.51953,107.47949,8,8,0,0,0,16,0A166.90191,166.90191,0,0,0,166.78809,89.20569Z"/>
    <circle cx="51.99414" cy="204.00012" r="12"/>
  </g>
</svg>
