<svg id="Layer_1" data-name="Layer 1" xmlns="http://www.w3.org/2000/svg" viewBox="0 0 256 256">
  <rect width="256" height="256" fill="none"/>
  <polygon points="159.994 28.685 159.994 79.997 211.307 79.997 159.994 28.685"/>
  <path d="M151.99414,95.99707a7.9954,7.9954,0,0,1-8-8v-64h-88a16.01583,16.01583,0,0,0-16,16v176a16.01583,16.01583,0,0,0,16,16h144a16.01582,16.01582,0,0,0,16-16v-120Zm15.57813,67.72168-33.92774,33.92773a8.02366,8.02366,0,0,1-11.332,0L88.38477,163.71875a7.99915,7.99915,0,0,1,11.3125-11.3125l20.28125,20.28125V112a8,8,0,0,1,16,0v60.6875l20.28125-20.28125a7.99915,7.99915,0,0,1,11.3125,11.3125Z"/>
</svg>
