<svg id="Layer_1" data-name="Layer 1" xmlns="http://www.w3.org/2000/svg" viewBox="0 0 256 256">
  <g>
    <path d="M91.65674,87.62793,120,59.2843V152a8,8,0,0,0,16,0V59.2843l28.34326,28.34363a8.00018,8.00018,0,1,0,11.31348-11.31445l-42-42a8.0018,8.0018,0,0,0-11.31348,0l-42,42A8.00018,8.00018,0,1,0,91.65674,87.62793Z"/>
    <path d="M224,128a8.00039,8.00039,0,0,0-8,8v72H40V136a8,8,0,0,0-16,0v72a16.01833,16.01833,0,0,0,16,16H216a16.01833,16.01833,0,0,0,16-16V136A8.00039,8.00039,0,0,0,224,128Z"/>
  </g>
</svg>
