<svg id="Raw" xmlns="http://www.w3.org/2000/svg" viewBox="0 0 256 256">
  <rect width="256" height="256" fill="none"/>
  <path d="M80.34277,87.64551a7.9996,7.9996,0,0,1,.001-11.31348l42-41.98926a8.00063,8.00063,0,0,1,11.3125,0l42,41.98926a7.99983,7.99983,0,1,1-11.3125,11.31445L136,59.3103V152a8,8,0,0,1-16,0V59.3103L91.65625,87.64648A7.99914,7.99914,0,0,1,80.34277,87.64551ZM216,144a8.00039,8.00039,0,0,0-8,8v56H48V152a8,8,0,0,0-16,0v56a16.01833,16.01833,0,0,0,16,16H208a16.01833,16.01833,0,0,0,16-16V152A8.00039,8.00039,0,0,0,216,144Z"/>
</svg>
