<svg id="Layer_1" data-name="Layer 1" xmlns="http://www.w3.org/2000/svg" viewBox="0 0 256 256">
  <rect width="256" height="256" fill="none"/>
  <path d="M147.30275,191.37116A52.0079,52.0079,0,0,0,228,148C228,80,128,24,128,24S28,80,28,148a52.0079,52.0079,0,0,0,80.69869,43.37021l-.00128-.00193L96,232h64l-12.69675-40.62959Z" opacity="0.2"/>
  <path d="M147.30275,191.37116A52.0079,52.0079,0,0,0,228,148C228,80,128,24,128,24S28,80,28,148a52.0079,52.0079,0,0,0,80.69869,43.37021l-.00128-.00193L96,232h64l-12.69675-40.62959Z" fill="none" stroke="#000" stroke-linecap="round" stroke-linejoin="round" stroke-width="16"/>
</svg>
