<svg id="Raw" xmlns="http://www.w3.org/2000/svg" viewBox="0 0 256 256">
  <rect width="256" height="256" fill="none"/>
  <path d="M40,128c0,58.28906,34.6748,80.25488,36.15088,81.16113a8.00025,8.00025,0,0,1-8.26709,13.69922C66.09229,221.78516,24,195.751,24,128S66.09229,34.21484,67.88379,33.13965a8,8,0,0,1,8.2583,13.7041C74.544,47.8291,40,69.82129,40,128ZM188.11621,33.13965a8.00032,8.00032,0,0,0-8.26709,13.69922C181.3252,47.74512,216,69.71094,216,128s-34.6748,80.25488-36.11621,81.13965a8.00047,8.00047,0,1,0,8.23242,13.7207C189.90771,221.78516,232,195.751,232,128S189.90771,34.21484,188.11621,33.13965Z"/>
</svg>
