<svg id="Raw" xmlns="http://www.w3.org/2000/svg" viewBox="0 0 256 256">
  <rect width="256" height="256" fill="none"/>
  <path d="M208,32H48A16.01833,16.01833,0,0,0,32,48V208a16.01833,16.01833,0,0,0,16,16H208a16.01833,16.01833,0,0,0,16-16V48A16.01833,16.01833,0,0,0,208,32ZM123.88184,112.002A35.99912,35.99912,0,1,1,98.35449,173.4668a7.99985,7.99985,0,1,1,11.291-11.33594,20.20173,20.20173,0,0,0,28.47461-.001,19.91646,19.91646,0,0,0-.001-28.25976,20.20412,20.20412,0,0,0-28.47461.001,7.99971,7.99971,0,0,1-13.541-6.95214l7.835-48.20215A8.00076,8.00076,0,0,1,111.835,72H152a8,8,0,0,1,0,16H118.63965L114.542,113.21094A36.413,36.413,0,0,1,123.88184,112.002Z"/>
</svg>
