<svg id="Layer_1" data-name="Layer 1" xmlns="http://www.w3.org/2000/svg" viewBox="0 0 256 256">
  <rect width="256" height="256" fill="none"/>
  <g>
    <path d="M138,90.6875a19.87769,19.87769,0,0,0-9.96875-2.69531,20.099,20.099,0,0,0-5.20312.69531,20.0058,20.0058,0,1,0,15.17187,2Z"/>
    <path d="M128,24A104,104,0,1,0,232,128,104.12041,104.12041,0,0,0,128,24Zm31.17969,102.00781L128.00781,180a8.00128,8.00128,0,1,1-13.85937-8l16.34863-28.31738c-.85547.06152-1.70508.34082-2.55957.34082a36.01849,36.01849,0,1,1,31.24219-18.01563Z"/>
  </g>
</svg>
