<svg xmlns="http://www.w3.org/2000/svg" width="16" height="16" viewBox="0 0 16 16">
  <g fill="none" fill-rule="evenodd">
    <polygon points="0 16 16 16 16 0 0 0"/>
    <path fill="#000" fill-rule="nonzero" d="M9.19302969,1.60532389 C9.5214587,1.34987911 10,1.58392591 10,2 L10,2 L10,14 C10,14.4160741 9.5214587,14.6501209 9.19302969,14.3946761 L9.19302969,14.3946761 L4.829,11 L2,11 C1.48729637,11 1.06451173,10.613837 1.00672975,10.1165948 L1.00672975,10.1165948 L1,10 L1,6 C1,5.44785763 1.44785763,5 2,5 L2,5 L4.828,5 Z M9,3.021 L5.30697031,5.89467611 C5.21920387,5.9629389 5.11118793,6 5,6 L5,6 L2,6 L2,10 L5,10 C5.11118793,10 5.21920387,10.0370611 5.30697031,10.1053239 L5.30697031,10.1053239 L9,12.978 L9,3.021 Z M12.2843055,6.08859116 L12.3535534,6.14644661 L13.5,7.29307423 L14.6464466,6.14644661 C14.8417088,5.95118446 15.1582912,5.95118446 15.3535534,6.14644661 C15.5271197,6.32001296 15.5464049,6.58943736 15.4114088,6.7843055 L15.3535534,6.85355339 L14.207,8.00007423 L15.3535534,9.14644661 C15.5488155,9.34170876 15.5488155,9.65829124 15.3535534,9.85355339 C15.179987,10.0271197 14.9105626,10.0464049 14.7156945,9.91140884 L14.6464466,9.85355339 L13.5,8.70707423 L12.3535534,9.85355339 C12.1582912,10.0488155 11.8417088,10.0488155 11.6464466,9.85355339 C11.4728803,9.67998704 11.4535951,9.41056264 11.5885912,9.2156945 L11.6464466,9.14644661 L12.793,8.00007423 L11.6464466,6.85355339 C11.4511845,6.65829124 11.4511845,6.34170876 11.6464466,6.14644661 C11.820013,5.97288026 12.0894374,5.95359511 12.2843055,6.08859116 Z"/>
  </g>
</svg>
