<svg xmlns="http://www.w3.org/2000/svg" width="16" height="16" viewBox="0 0 16 16">
  <g fill="none" fill-rule="evenodd">
    <polygon points="0 16 15.999 16 15.999 0 0 0"/>
    <path fill="#000" fill-rule="nonzero" d="M9.03914454,1.40778584 C9.53178805,1.02461867 10.2496,1.37568887 10.2496,1.9998 L10.2496,1.9998 L10.2496,13.9998 C10.2496,14.6239111 9.53178805,14.9749813 9.03914454,14.5918142 L9.03914454,14.5918142 L4.742,11.249 L1.9996,11.2498 C1.35335565,11.2498 0.820186644,10.757701 0.75606491,10.1275632 L0.75606491,10.1275632 L0.7496,9.9998 L0.7496,5.9998 C0.7496,5.30969935 1.31027269,4.7498 1.9996,4.7498 L1.9996,4.7498 L4.742,4.749 Z M8.749,3.533 L5.46005546,6.09181416 C5.3284058,6.19420834 5.1663819,6.2498 4.9996,6.2498 L4.9996,6.2498 L2.249,6.249 L2.249,9.749 L4.9996,9.7498 C5.13302552,9.7498 5.26340592,9.78537866 5.37762568,9.85203594 L5.37762568,9.85203594 L5.46005546,9.90778584 L8.749,12.465 L8.749,3.533 Z M12.4458117,5.89685176 L12.5299301,5.96946991 L13.4996,6.93941135 L14.4692699,5.96946991 C14.7621631,5.6765767 15.2370369,5.6765767 15.5299301,5.96946991 C15.7961966,6.23573648 15.8204027,6.65240016 15.6025482,6.94601165 L15.5299301,7.03013009 L14.5596,7.99941135 L15.5299301,8.96946991 C15.8228233,9.26236313 15.8228233,9.73723687 15.5299301,10.0301301 C15.2636635,10.2963966 14.8469998,10.3206027 14.5533883,10.1027482 L14.4692699,10.0301301 L13.4996,9.06041135 L12.5299301,10.0301301 C12.2370369,10.3230233 11.7621631,10.3230233 11.4692699,10.0301301 C11.2030034,9.76386352 11.1787973,9.34719984 11.3966518,9.05358835 L11.4692699,8.96946991 L12.4386,7.99941135 L11.4692699,7.03013009 C11.1763767,6.73723687 11.1763767,6.26236313 11.4692699,5.96946991 C11.7355365,5.70320335 12.1522002,5.6789973 12.4458117,5.89685176 Z"/>
  </g>
</svg>
