<svg xmlns="http://www.w3.org/2000/svg" width="16" height="16" viewBox="0 0 16 16">
  <g fill="none" fill-rule="evenodd">
    <polygon points="0 16 15.999 16 15.999 0 0 0"/>
    <path fill="#000" d="M4.9996,10.4998 L1.9996,10.4998 C1.7246,10.4998 1.4996,10.2758 1.4996,9.9998 L1.4996,5.9998 C1.4996,5.7238 1.7246,5.4998 1.9996,5.4998 L4.9996,5.4998 L9.4996,1.9998 L9.4996,13.9998 L4.9996,10.4998 Z" opacity=".2"/>
    <path fill="#000" fill-rule="nonzero" d="M9.19262969,1.60512389 C9.5210587,1.34967911 9.9996,1.58372591 9.9996,1.9998 L9.9996,1.9998 L9.9996,13.9998 C9.9996,14.4158741 9.5210587,14.6499209 9.19262969,14.3944761 L9.19262969,14.3944761 L4.827,10.999 L1.9996,10.9998 C1.48764764,10.9998 1.06421905,10.613473 1.00634125,10.1163597 L1.00634125,10.1163597 L0.9996,9.9998 L0.9996,5.9998 C0.9996,5.44784784 1.44826669,4.9998 1.9996,4.9998 L1.9996,4.9998 L4.828,4.999 Z M8.999,3.022 L5.30657031,5.89447611 C5.21880387,5.9627389 5.11078793,5.9998 4.9996,5.9998 L4.9996,5.9998 L1.9996,5.9998 L1.9996,9.9998 L4.9996,9.9998 C5.11078793,9.9998 5.21880387,10.0368611 5.30657031,10.1051239 L5.30657031,10.1051239 L8.999,12.977 L8.999,3.022 Z M12.2839055,6.08839116 L12.3531534,6.14624661 L13.4996,7.29287423 L14.6460466,6.14624661 C14.8413088,5.95098446 15.1578912,5.95098446 15.3531534,6.14624661 C15.5267197,6.31981296 15.5460049,6.58923736 15.4110088,6.7841055 L15.3531534,6.85335339 L14.2066,7.99987423 L15.3531534,9.14624661 C15.5484155,9.34150876 15.5484155,9.65809124 15.3531534,9.85335339 C15.179587,10.0269197 14.9101626,10.0462049 14.7152945,9.91120884 L14.6460466,9.85335339 L13.4996,8.70687423 L12.3531534,9.85335339 C12.1578912,10.0486155 11.8413088,10.0486155 11.6460466,9.85335339 C11.4724803,9.67978704 11.4531951,9.41036264 11.5881912,9.2154945 L11.6460466,9.14624661 L12.7926,7.99987423 L11.6460466,6.85335339 C11.4507845,6.65809124 11.4507845,6.34150876 11.6460466,6.14624661 C11.819613,5.97268026 12.0890374,5.95339511 12.2839055,6.08839116 Z"/>
  </g>
</svg>
