<svg xmlns="http://www.w3.org/2000/svg" width="16" height="16" viewBox="0 0 16 16">
  <g fill="none" fill-rule="evenodd">
    <polygon points="0 16 15.999 16 15.999 0 0 0"/>
    <path fill="#000" fill-rule="nonzero" d="M9.26937227,1.70379292 C9.51569402,1.51220933 9.8746,1.68774443 9.8746,1.9998 L9.8746,1.9998 L9.8746,13.9998 C9.8746,14.3118556 9.51569402,14.4873907 9.26937227,14.2958071 L9.26937227,14.2958071 L4.871,10.874 L1.9996,10.8748 C1.55436649,10.8748 1.18554041,10.5406841 1.13143245,10.1094851 L1.13143245,10.1094851 L1.1246,9.9998 L1.1246,5.9998 C1.1246,5.51692209 1.51726369,5.1248 1.9996,5.1248 L1.9996,5.1248 L4.871,5.124 Z M9.124,2.766 L5.22982773,5.79580708 C5.1640029,5.84700417 5.08299095,5.8748 4.9996,5.8748 L4.9996,5.8748 L1.9996,5.8748 C1.9312457,5.8748 1.8746,5.93136757 1.8746,5.9998 L1.8746,5.9998 L1.8746,9.9998 C1.8746,10.0682324 1.9312457,10.1248 1.9996,10.1248 L1.9996,10.1248 L4.9996,10.1248 C5.08299095,10.1248 5.1640029,10.1525958 5.22982773,10.2037929 L5.22982773,10.2037929 L9.124,13.232 L9.124,2.766 Z M12.1969619,6.18083824 L12.264765,6.23463496 L13.4996,7.46910567 L14.734435,6.23463496 C14.8808816,6.08818835 15.1183184,6.08818835 15.264765,6.23463496 C15.3902907,6.36016062 15.4082229,6.55253627 15.3185618,6.69716193 L15.264765,6.76496504 L14.0296,7.99910567 L15.264765,9.23463496 C15.4112117,9.38108157 15.4112117,9.61851843 15.264765,9.76496504 C15.1392394,9.89049071 14.9468637,9.90842295 14.8022381,9.81876176 L14.734435,9.76496504 L13.4996,8.53010567 L12.264765,9.76496504 C12.1183184,9.91141165 11.8808816,9.91141165 11.734435,9.76496504 C11.6089093,9.63943938 11.5909771,9.44706373 11.6806382,9.30243807 L11.734435,9.23463496 L12.9686,7.99910567 L11.734435,6.76496504 C11.5879883,6.61851843 11.5879883,6.38108157 11.734435,6.23463496 C11.8599606,6.10910929 12.0523363,6.09117705 12.1969619,6.18083824 Z"/>
  </g>
</svg>
