<svg xmlns="http://www.w3.org/2000/svg" width="16" height="16" viewBox="0 0 16 16">
  <g fill="none" fill-rule="evenodd">
    <polygon points="0 16 15.999 16 15.999 0 0 0"/>
    <path fill="#000" fill-rule="nonzero" d="M9.34611485,1.80246195 C9.51032935,1.67473956 9.7496,1.79176296 9.7496,1.9998 L9.7496,1.9998 L9.7496,13.9998 C9.7496,14.207837 9.51032935,14.3248604 9.34611485,14.1971381 L9.34611485,14.1971381 L4.913,10.749 L1.9996,10.7498 C1.62070564,10.7498 1.30624261,10.4673017 1.25646331,10.1014845 L1.25646331,10.1014845 L1.2496,9.9998 L1.2496,5.9998 C1.2496,5.58599634 1.5862607,5.2498 1.9996,5.2498 L1.9996,5.2498 L4.914,5.249 Z M9.249,2.511 L5.15308515,5.69713805 L4.9996,5.7498 L1.9996,5.7498 C1.8622487,5.7498 1.7496,5.86229332 1.7496,5.9998 L1.7496,5.9998 L1.7496,9.9998 C1.7496,10.1373067 1.8622487,10.2498 1.9996,10.2498 L1.9996,10.2498 L4.9996,10.2498 L5.15308515,10.3024619 L9.249,13.488 L9.249,2.511 Z M15.1763767,6.3230233 C15.2577359,6.40438253 15.2712958,6.52786688 15.2170563,6.62326781 L15.1763767,6.6765767 L13.8526,7.99933712 L15.1763767,9.3230233 C15.2740078,9.42065438 15.2740078,9.57894562 15.1763767,9.6765767 C15.0950175,9.75793592 14.9715331,9.77149579 14.8761322,9.71725631 L14.8228233,9.6765767 L13.4996,8.35333712 L12.1763767,9.6765767 C12.0787456,9.77420777 11.9204544,9.77420777 11.8228233,9.6765767 C11.7414641,9.59521747 11.7279042,9.47173312 11.7821437,9.37633219 L11.8228233,9.3230233 L13.1456,7.99933712 L11.8228233,6.6765767 C11.7251922,6.57894562 11.7251922,6.42065438 11.8228233,6.3230233 C11.9041825,6.24166408 12.0276669,6.22810421 12.1230678,6.28234369 L12.1763767,6.3230233 L13.4996,7.64633712 L14.8228233,6.3230233 C14.9204544,6.22539223 15.0787456,6.22539223 15.1763767,6.3230233 Z"/>
  </g>
</svg>
