<svg xmlns="http://www.w3.org/2000/svg" width="16" height="16" viewBox="0 0 16 16">
  <g fill="none" fill-rule="evenodd">
    <polygon points="0 16 15.999 16 15.999 0 0 0"/>
    <path fill="#000" d="M9.1934,1.6056 C9.3434,1.4886 9.5484,1.4666 9.7194,1.5506 C9.8914,1.6346 9.9994,1.8086 9.9994,1.9996 L9.9994,1.9996 L9.9994,13.9996 C9.9994,14.1906 9.8914,14.3646 9.7194,14.4486 C9.6504,14.4836 9.5744,14.4996 9.4994,14.4996 C9.3904,14.4996 9.2824,14.4646 9.1934,14.3946 L9.1934,14.3946 L4.8274,10.9996 L1.9994,10.9996 C1.4484,10.9996 0.9994,10.5506 0.9994,9.9996 L0.9994,9.9996 L0.9994,5.9996 C0.9994,5.4486 1.4484,4.9996 1.9994,4.9996 L1.9994,4.9996 L4.8274,4.9996 Z M11.6457,6.1458 C11.8417,5.9508 12.1577,5.9508 12.3527,6.1458 L12.3527,6.1458 L13.4997,7.2928 L14.6457,6.1458 C14.8417,5.9508 15.1577,5.9508 15.3527,6.1458 C15.5487,6.3418 15.5487,6.6578 15.3527,6.8538 L15.3527,6.8538 L14.2067,7.9998 L15.3527,9.1458 C15.5487,9.3418 15.5487,9.6578 15.3527,9.8538 C15.2557,9.9508 15.1277,9.9998 14.9997,9.9998 C14.8717,9.9998 14.7437,9.9508 14.6457,9.8538 L14.6457,9.8538 L13.4997,8.7068 L12.3527,9.8538 C12.2557,9.9508 12.1277,9.9998 11.9997,9.9998 C11.8717,9.9998 11.7437,9.9508 11.6457,9.8538 C11.4507,9.6578 11.4507,9.3418 11.6457,9.1458 L11.6457,9.1458 L12.7927,7.9998 L11.6457,6.8538 C11.4507,6.6578 11.4507,6.3418 11.6457,6.1458 Z"/>
  </g>
</svg>
