<svg id="Raw" xmlns="http://www.w3.org/2000/svg" viewBox="0 0 256 256">
  <rect width="256" height="256" fill="none" opacity="0.1"/>
  <rect x="40" y="88" width="128" height="128" rx="8" opacity="0.2"/>
  <path d="M56,216H48a8,8,0,0,1-8-8v-8.00037" fill="none" stroke="#000" stroke-linecap="round" stroke-linejoin="round" stroke-width="16"/>
  <line x1="112" y1="88" x2="88" y2="88" fill="none" stroke="#000" stroke-linecap="round" stroke-linejoin="round" stroke-width="16"/>
  <line x1="112" y1="216" x2="96" y2="216" fill="none" stroke="#000" stroke-linecap="round" stroke-linejoin="round" stroke-width="16"/>
  <line x1="168" y1="167.99963" x2="168" y2="143.99963" fill="none" stroke="#000" stroke-linecap="round" stroke-linejoin="round" stroke-width="16"/>
  <line x1="40" y1="159.99963" x2="40" y2="143.99963" fill="none" stroke="#000" stroke-linecap="round" stroke-linejoin="round" stroke-width="16"/>
  <path d="M152,216h8a8,8,0,0,0,8-8v-8.00037" fill="none" stroke="#000" stroke-linecap="round" stroke-linejoin="round" stroke-width="16"/>
  <path d="M152,88h8a8,8,0,0,1,8,8v7.99963" fill="none" stroke="#000" stroke-linecap="round" stroke-linejoin="round" stroke-width="16"/>
  <path d="M56,88H48a8,8,0,0,0-8,8v7.99963" fill="none" stroke="#000" stroke-linecap="round" stroke-linejoin="round" stroke-width="16"/>
  <path d="M168,167.99414h39.999a8,8,0,0,0,8-8v-112a8,8,0,0,0-8-8h-112a8,8,0,0,0-8,8V88" fill="none" stroke="#000" stroke-linecap="round" stroke-linejoin="round" stroke-width="16"/>
</svg>
