<svg id="Raw" xmlns="http://www.w3.org/2000/svg" viewBox="0 0 256 256">
  <rect width="256" height="256" fill="none" opacity="0.1"/>
  <path d="M56,216H48a8,8,0,0,1-8-8v-8.00037" fill="none" stroke="#000" stroke-linecap="round" stroke-linejoin="round" stroke-width="24"/>
  <line x1="112" y1="88" x2="92" y2="88" fill="none" stroke="#000" stroke-linecap="round" stroke-linejoin="round" stroke-width="24"/>
  <line x1="112" y1="216" x2="96" y2="216" fill="none" stroke="#000" stroke-linecap="round" stroke-linejoin="round" stroke-width="24"/>
  <line x1="168" y1="163.99963" x2="168" y2="143.99963" fill="none" stroke="#000" stroke-linecap="round" stroke-linejoin="round" stroke-width="24"/>
  <line x1="40" y1="159.99963" x2="40" y2="143.99963" fill="none" stroke="#000" stroke-linecap="round" stroke-linejoin="round" stroke-width="24"/>
  <path d="M152,216h8a8,8,0,0,0,8-8v-8.00037" fill="none" stroke="#000" stroke-linecap="round" stroke-linejoin="round" stroke-width="24"/>
  <path d="M152,88h8a8,8,0,0,1,8,8v7.99963" fill="none" stroke="#000" stroke-linecap="round" stroke-linejoin="round" stroke-width="24"/>
  <path d="M56,88H48a8,8,0,0,0-8,8v7.99963" fill="none" stroke="#000" stroke-linecap="round" stroke-linejoin="round" stroke-width="24"/>
  <path d="M169.501,164H208.25a7.75,7.75,0,0,0,7.75-7.75V47.75A7.75,7.75,0,0,0,208.25,40H99.75A7.75,7.75,0,0,0,92,47.75V86.50568" fill="none" stroke="#000" stroke-linecap="round" stroke-linejoin="round" stroke-width="24"/>
</svg>
