<svg id="Raw" xmlns="http://www.w3.org/2000/svg" viewBox="0 0 256 256">
  <rect width="256" height="256" fill="none"/>
  <path d="M78.70616,167.0114a79.86047,79.86047,0,0,1-30.70247-62.55993c-.23962-43.36232,34.71874-79.40841,78.06972-80.42875a80.00322,80.00322,0,0,1,51.34165,142.89737,24.288,24.288,0,0,0-9.4124,19.05581l-.00009,6.02423a8,8,0,0,1-8,7.99987H96.0023a8,8,0,0,1-8-7.99986l-.0001-6.0311A24.10047,24.10047,0,0,0,78.70616,167.0114Z" opacity="0.2"/>
  <line x1="88.00244" y1="232" x2="168.00244" y2="232" fill="none" stroke="#000" stroke-linecap="round" stroke-linejoin="round" stroke-width="16"/>
  <path d="M78.70616,167.0114a79.86047,79.86047,0,0,1-30.70247-62.55993c-.23962-43.36232,34.71874-79.40841,78.06972-80.42875a80.00322,80.00322,0,0,1,51.34165,142.89737,24.288,24.288,0,0,0-9.4124,19.05581l-.00009,6.02423a8,8,0,0,1-8,7.99987H96.0023a8,8,0,0,1-8-7.99986l-.0001-6.0311A24.10047,24.10047,0,0,0,78.70616,167.0114Z" fill="none" stroke="#000" stroke-linecap="round" stroke-linejoin="round" stroke-width="16"/>
  <path d="M136.12232,56.784A47.923,47.923,0,0,1,175.327,95.94041" fill="none" stroke="#000" stroke-linecap="round" stroke-linejoin="round" stroke-width="16"/>
</svg>
