<svg id="Raw" xmlns="http://www.w3.org/2000/svg" viewBox="0 0 256 256">
  <rect width="256" height="256" fill="none"/>
  <line x1="88" y1="232" x2="168" y2="232" fill="none" stroke="#000" stroke-linecap="round" stroke-linejoin="round" stroke-width="16"/>
  <path d="M78.7037,167.0114a79.86051,79.86051,0,0,1-30.70248-62.55993C47.76161,61.08915,82.72,25.04306,126.071,24.02272a80.00322,80.00322,0,0,1,51.34165,142.89737,24.288,24.288,0,0,0-9.4124,19.05581l-.00009,6.02422a8,8,0,0,1-8,7.99988H95.99984a8,8,0,0,1-8-7.99986l-.0001-6.0311A24.10047,24.10047,0,0,0,78.7037,167.0114Z" fill="none" stroke="#000" stroke-linecap="round" stroke-linejoin="round" stroke-width="16"/>
  <path d="M136.12232,56.784A47.923,47.923,0,0,1,175.327,95.94041" fill="none" stroke="#000" stroke-linecap="round" stroke-linejoin="round" stroke-width="16"/>
</svg>
