<svg id="Layer_1" data-name="Layer 1" xmlns="http://www.w3.org/2000/svg" viewBox="0 0 256 256">
  <rect width="256" height="256" fill="none"/>
  <g>
    <path d="M160,104h48a8,8,0,0,0,0-16H168V48a8,8,0,0,0-16,0V96A8.00008,8.00008,0,0,0,160,104Z"/>
    <path d="M96,152H48a8,8,0,0,0,0,16H88v40a8,8,0,0,0,16,0V160A8.00008,8.00008,0,0,0,96,152Z"/>
    <path d="M208,152H160a8.00008,8.00008,0,0,0-8,8v48a8,8,0,0,0,16,0V168h40a8,8,0,0,0,0-16Z"/>
    <path d="M96,40a8.00008,8.00008,0,0,0-8,8V88H48a8,8,0,0,0,0,16H96a8.00008,8.00008,0,0,0,8-8V48A8.00008,8.00008,0,0,0,96,40Z"/>
  </g>
</svg>
