<svg id="Layer_1" data-name="Layer 1" xmlns="http://www.w3.org/2000/svg" viewBox="0 0 256 256">
  <rect width="256" height="256" fill="none"/>
  <path d="M138,90.6875a19.87769,19.87769,0,0,0-9.96875-2.69531,20.09907,20.09907,0,0,0-5.20313.69531,20.0058,20.0058,0,1,0,15.17188,2Z"/>
  <path d="M208,32H48A16.02085,16.02085,0,0,0,32,48V208a16.02085,16.02085,0,0,0,16,16H208a16.02085,16.02085,0,0,0,16-16V48A16.02085,16.02085,0,0,0,208,32Zm-48.82031,94.00781L128.00781,180a8.00128,8.00128,0,1,1-13.85937-8l16.20019-28.0603q-1.20593.082-2.41113.08374a36.01849,36.01849,0,1,1,31.24219-18.01563Z"/>
</svg>
