<svg id="Raw" xmlns="http://www.w3.org/2000/svg" viewBox="0 0 256 256">
  <rect width="256" height="256" fill="none"/>
  <path d="M196,116v88.88889A7.11111,7.11111,0,0,1,188.88889,212H36a8,8,0,0,1-8-8V92a8,8,0,0,1,8-8H81.33333a8,8,0,0,1,4.8,1.6l27.73334,20.8a8,8,0,0,0,4.8,1.6H188A8,8,0,0,1,196,116Z" fill="none" stroke="#000" stroke-linecap="round" stroke-linejoin="round" stroke-width="24"/>
  <path d="M68,84V52a8,8,0,0,1,8-8h45.33333a8,8,0,0,1,4.8,1.6l27.73334,20.8a8,8,0,0,0,4.8,1.6H228a8,8,0,0,1,8,8v88.88889A7.11111,7.11111,0,0,1,228.88889,172H196" fill="none" stroke="#000" stroke-linecap="round" stroke-linejoin="round" stroke-width="24"/>
</svg>
