<svg id="Raw" xmlns="http://www.w3.org/2000/svg" viewBox="0 0 256 256">
  <rect width="256" height="256" fill="none"/>
  <path d="M83,112h90l22.61071-60.29524a4,4,0,0,1,7.61026.37384l27.32935,102.4851a8,8,0,0,1-3.1762,8.63883l-94.82044,65.64492a8,8,0,0,1-9.10736,0L28.62588,163.20255a8,8,0,0,1-3.1762-8.63883L52.779,52.07862a4,4,0,0,1,7.61026-.37384Z" opacity="0.2"/>
  <path d="M83,112h90l22.61071-60.29524a4,4,0,0,1,7.61026.37384l27.32935,102.4851a8,8,0,0,1-3.1762,8.63883l-94.82044,65.64492a8,8,0,0,1-9.10736,0L28.62588,163.20255a8,8,0,0,1-3.1762-8.63883L52.779,52.07862a4,4,0,0,1,7.61026-.37384Z" fill="none" stroke="#000" stroke-linecap="round" stroke-linejoin="round" stroke-width="16"/>
</svg>
