<svg id="Layer_1" data-name="Layer 1" xmlns="http://www.w3.org/2000/svg" viewBox="0 0 256 256">
  <path d="M201.53906,54.46094A103.99994,103.99994,0,1,0,54.46094,201.53906,103.99994,103.99994,0,1,0,201.53906,54.46094ZM110.96484,128h34.07032l14.7716,32.00488A23.89985,23.89985,0,0,0,144,166.13086a23.94341,23.94341,0,0,0-32,0,23.89985,23.89985,0,0,0-15.80676-6.126Zm79.26075,62.22461Q187.23,193.22022,184,195.8833V176a8.00423,8.00423,0,0,0-.73633-3.35254l-48-104a8,8,0,0,0-14.52734,0l-48,104A8.00423,8.00423,0,0,0,72,176v19.8833q-3.22228-2.66822-6.22559-5.65869a87.99958,87.99958,0,1,1,124.45118,0Z"/>
</svg>
