<svg id="Raw" xmlns="http://www.w3.org/2000/svg" viewBox="0 0 256 256">
  <rect width="256" height="256" fill="none"/>
  <path d="M230.627,25.37207a32.03909,32.03909,0,0,0-45.2539,0c-.10254.10156-.20117.207-.29785.31348L130.17383,86.85938l-9.20313-9.20313a24.00066,24.00066,0,0,0-33.9414,0L10.34277,154.34277a8.00122,8.00122,0,0,0,0,11.31446l80,80a8.00181,8.00181,0,0,0,11.31446,0l76.68652-76.68653a24.00066,24.00066,0,0,0,0-33.9414l-9.20313-9.20215L230.31445,70.9248c.10645-.09668.21192-.19531.31348-.29785A32.03761,32.03761,0,0,0,230.627,25.37207ZM96,228.68652,81.87842,214.56494l25.53467-25.53369A8.00053,8.00053,0,0,0,96.09863,177.7168L70.564,203.25049,53.87842,186.56494l25.53467-25.53369A8.00053,8.00053,0,0,0,68.09863,149.7168L42.564,175.25049,27.31348,160,72,115.31445,140.68555,184Z"/>
</svg>
