<svg id="Layer_1" data-name="Layer 1" xmlns="http://www.w3.org/2000/svg" viewBox="0 0 256 256">
  <path d="M214.66064,72h-14.6665V40a8.00008,8.00008,0,0,0-8-8h-128a8.00008,8.00008,0,0,0-8,8V72H41.32764c-13.96875,0-25.3335,10.7666-25.3335,24v80a8.00008,8.00008,0,0,0,8,8h32v40a8.00008,8.00008,0,0,0,8,8h128a8.00008,8.00008,0,0,0,8-8V184h32a8.00008,8.00008,0,0,0,8-8V96C239.99414,82.7666,228.62939,72,214.66064,72Zm-26.6665,56a12,12,0,1,1,12-12A12,12,0,0,1,187.99414,128Zm-116-80h112V72h-112Zm112,168h-112V160h112Z"/>
</svg>
