<svg id="Layer_1" data-name="Layer 1" xmlns="http://www.w3.org/2000/svg" viewBox="0 0 256 256">
  <path d="M210.66064,72h-10.6665V40a8.00008,8.00008,0,0,0-8-8h-128a8.00008,8.00008,0,0,0-8,8V72H45.32764c-13.96875,0-25.3335,10.7666-25.3335,24v80a8.00008,8.00008,0,0,0,8,8h28v36a8.00008,8.00008,0,0,0,8,8h128a8.00008,8.00008,0,0,0,8-8V184h28a8.00008,8.00008,0,0,0,8-8V96C235.99414,82.7666,224.62939,72,210.66064,72ZM71.99414,48h112V72h-112Zm112,164h-112V160h112Zm4-84a12,12,0,1,1,12-12A12,12,0,0,1,187.99414,128Z"/>
</svg>
