<svg id="Layer_1" data-name="Layer 1" xmlns="http://www.w3.org/2000/svg" viewBox="0 0 256 256">
  <rect width="256" height="256" fill="none"/>
  <path d="M122.59375,149.89841a8.00455,8.00455,0,0,0,10.8125,0l96-88A8.00272,8.00272,0,0,0,224,48H32a8.00272,8.00272,0,0,0-5.40625,13.89844Z"/>
  <path d="M144.21875,161.69529a24.00546,24.00546,0,0,1-32.41406.01562L24,81.22849V192a16.02084,16.02084,0,0,0,16,16H216a16.02084,16.02084,0,0,0,16-16V81.22263Z"/>
  <polygon points="229.375 61.93 229.374 61.929 229.367 61.935 229.375 61.93"/>
  <polygon points="26.633 61.935 26.626 61.929 26.625 61.93 26.633 61.935"/>
</svg>
