<svg id="Layer_1" data-name="Layer 1" xmlns="http://www.w3.org/2000/svg" viewBox="0 0 256 256">
  <path d="M199.66992,215.99963H56a16.01833,16.01833,0,0,1-16-16V56.32971a16.26655,16.26655,0,0,1,5.05615-11.7373,15.86032,15.86032,0,0,1,11.70947-4.36719A168.01354,168.01354,0,0,1,215.7749,199.234a15.903,15.903,0,0,1-4.36719,11.709A16.26536,16.26536,0,0,1,199.66992,215.99963ZM56.05908,56.20959A.218.218,0,0,0,56,56.32971V199.99963l.00049.01075,143.66943-.01075a.21241.21241,0,0,0,.12012-.05957A152.016,152.016,0,0,0,56.05908,56.20959Z"/>
</svg>
