<svg id="Raw" xmlns="http://www.w3.org/2000/svg" viewBox="0 0 256 256">
  <rect width="256" height="256" fill="none"/>
  <g>
    <path d="M208,40H48A16.01833,16.01833,0,0,0,32,56v48a16.01833,16.01833,0,0,0,16,16H208a16.01833,16.01833,0,0,0,16-16V56A16.01833,16.01833,0,0,0,208,40ZM180.00049,92a12,12,0,1,1,12-12A12,12,0,0,1,180.00049,92Z"/>
    <path d="M208,136H48a16.01833,16.01833,0,0,0-16,16v48a16.01833,16.01833,0,0,0,16,16H208a16.01833,16.01833,0,0,0,16-16V152A16.01833,16.01833,0,0,0,208,136Zm-27.99951,52a12,12,0,1,1,12-12A12,12,0,0,1,180.00049,188Z"/>
  </g>
</svg>
