<svg id="Raw" xmlns="http://www.w3.org/2000/svg" viewBox="0 0 256 256">
  <rect width="256" height="256" fill="none"/>
  <path d="M248,88a8.00008,8.00008,0,0,1-8,8H224v16a8,8,0,0,1-16,0V96H192a8,8,0,0,1,0-16h16V64a8,8,0,0,1,16,0V80h16A8.00008,8.00008,0,0,1,248,88ZM152,48h8v8a8,8,0,0,0,16,0V48h8a8,8,0,0,0,0-16h-8V24a8,8,0,0,0-16,0v8h-8a8,8,0,0,0,0,16Zm67.77734,93.77051A88.08879,88.08879,0,0,1,114.22852,36.22119a7.99975,7.99975,0,0,0-9.58741-9.58545A104.00615,104.00615,0,1,0,229.36426,151.35791a8.00049,8.00049,0,0,0-9.58692-9.5874Z"/>
</svg>
