<svg id="Raw" xmlns="http://www.w3.org/2000/svg" viewBox="0 0 256.00098 256.00098">
  <rect width="256" height="256" fill="none"/>
  <path d="M234.80957,150.40576l-14.87793-19.835c.02246-1.75244.0044-3.62207-.02148-5.11377l14.89257-19.856a8.0008,8.0008,0,0,0,1.32422-6.88476,111.46438,111.46438,0,0,0-10.95068-26.46094,7.99971,7.99971,0,0,0-5.80615-3.93457l-24.48731-3.49707q-1.7981-1.90282-3.70312-3.70361l-3.4961-24.47657a8.00016,8.00016,0,0,0-3.93261-5.80419,111.45413,111.45413,0,0,0-26.45313-10.96729,8.00181,8.00181,0,0,0-6.88818,1.32275L130.62207,36.0376c-1.74414-.04834-3.49316-.04834-5.2373,0l-19.7793-14.83545a8.003,8.003,0,0,0-6.88526-1.32373A111.45813,111.45813,0,0,0,72.25928,30.82861a8.00164,8.00164,0,0,0-3.93506,5.80616L64.82764,61.12158q-1.90211,1.79809-3.70362,3.7041L36.64746,68.32129a7.99959,7.99959,0,0,0-5.8042,3.93213A111.45433,111.45433,0,0,0,19.876,98.70752a7.99838,7.99838,0,0,0,1.32324,6.88769l14.87793,19.835c-.02246,1.75244-.0044,3.62207.02148,5.11377l-14.89258,19.856a8.00086,8.00086,0,0,0-1.32421,6.88477,111.46455,111.46455,0,0,0,10.95068,26.46094,7.99971,7.99971,0,0,0,5.80615,3.93457L61.126,191.17725q1.7981,1.90283,3.70312,3.70361l3.4961,24.47656a8.00016,8.00016,0,0,0,3.93261,5.8042,111.45413,111.45413,0,0,0,26.45313,10.96729,7.9997,7.9997,0,0,0,6.88818-1.32276l19.7876-14.84277c1.74414.04932,3.49316.04932,5.2373,0l19.7793,14.83545a7.99882,7.99882,0,0,0,6.88525,1.32373,111.45806,111.45806,0,0,0,26.46094-10.9502,8.00161,8.00161,0,0,0,3.93506-5.80615l3.50488-24.54541c1.25489-1.22363,2.56348-2.5581,3.60059-3.63135l24.57129-3.50976a7.99959,7.99959,0,0,0,5.8042-3.93213,111.45433,111.45433,0,0,0,10.96728-26.4541A7.9984,7.9984,0,0,0,234.80957,150.40576ZM128.00391,172a44,44,0,1,1,44-44A44.04978,44.04978,0,0,1,128.00391,172Z"/>
</svg>
