<svg id="Raw" xmlns="http://www.w3.org/2000/svg" viewBox="0 0 256.00098 256.00098">
  <rect width="256" height="256" fill="none"/>
  <circle cx="128.00195" cy="128" r="48" fill="none" stroke="#000" stroke-linecap="round" stroke-linejoin="round" stroke-width="12"/>
  <path d="M122.8736,44.15392,104.00412,30.006a7.99514,7.99514,0,0,0-7.17954-1.24562A103.35049,103.35049,0,0,0,79.882,35.77028a8.00251,8.00251,0,0,0-4.20618,5.96441L72.34012,65.08557q-1.90725,1.69062-3.73445,3.51677Q66.779,70.429,65.088,72.33777l-.0005.0004-23.3468,3.33867a7.99513,7.99513,0,0,0-5.95748,4.19591,103.35186,103.35186,0,0,0-7.0235,16.93693,8.00252,8.00252,0,0,0,1.24326,7.19169l14.15287,18.87027q-.1532,2.54408-.15393,5.12738,0,2.58326.154,5.1287l-.00008.00064L30.008,151.99783a7.99512,7.99512,0,0,0-1.24562,7.17954,103.35131,103.35131,0,0,0,7.00985,16.94257,8.00251,8.00251,0,0,0,5.96441,4.20618l23.35089,3.33571q1.69061,1.90725,3.51676,3.73445,1.82664,1.82663,3.73544,3.51764l.00039.00051,3.33867,23.34679a7.99513,7.99513,0,0,0,4.19592,5.95749,103.35135,103.35135,0,0,0,16.93692,7.02349,8.00254,8.00254,0,0,0,7.1917-1.24326l18.87027-14.15286q2.54406.15318,5.12738.15392,2.58324,0,5.1287-.154l.00063.00008L151.99978,225.994a7.99514,7.99514,0,0,0,7.17954,1.24562,103.351,103.351,0,0,0,16.94258-7.00986,8.00254,8.00254,0,0,0,4.20618-5.96441l3.33571-23.35088q1.90725-1.69062,3.73444-3.51677,1.82664-1.82663,3.51764-3.73543l.00051-.0004,23.34679-3.33867a7.99514,7.99514,0,0,0,5.95749-4.19591,103.351,103.351,0,0,0,7.02349-16.93693,8.00251,8.00251,0,0,0-1.24325-7.19169L211.848,133.12836q.15318-2.54407.15392-5.12738,0-2.58326-.154-5.1287l.00008-.00064,14.14788-18.86947a7.99514,7.99514,0,0,0,1.24562-7.17954,103.35131,103.35131,0,0,0-7.00985-16.94257,8.00252,8.00252,0,0,0-5.96442-4.20618l-23.35088-3.33571q-1.69061-1.90725-3.51677-3.73445-1.82662-1.82662-3.73543-3.51764l-.00039-.00051-3.33868-23.34679a7.99512,7.99512,0,0,0-4.19591-5.95749,103.35135,103.35135,0,0,0-16.93692-7.02349,8.00254,8.00254,0,0,0-7.1917,1.24326L133.13031,44.15392q-2.54408-.15318-5.12738-.15392-2.58324,0-5.1287.154Z" fill="none" stroke="#000" stroke-linecap="round" stroke-linejoin="round" stroke-width="12"/>
</svg>
