<svg id="Raw" xmlns="http://www.w3.org/2000/svg" viewBox="0 0 256.00098 256.00098">
  <rect width="256" height="256" fill="none"/>
  <path d="M232.39894,147.19845l-12.43555-16.58106c.02442-.873.03662-1.74707.03662-2.6167,0-.87011-.0122-1.74511-.0371-2.61963l12.43066-16.57959A16.027,16.027,0,0,0,234.874,94.43135a111.771,111.771,0,0,0-7.55274-18.25488,16.03337,16.03337,0,0,0-11.9248-8.42237l-20.51758-2.93066q-.89941-.95216-1.82422-1.877-.92286-.92285-1.87842-1.82617l-2.93359-20.51465a16.03111,16.03111,0,0,0-8.40821-11.91406,111.63548,111.63548,0,0,0-18.24805-7.5669,16.03793,16.03793,0,0,0-14.38818,2.47608L130.61816,36.03632c-1.74755-.04834-3.48877-.04834-5.23632,0L108.80078,23.60419a16.03566,16.03566,0,0,0-14.37012-2.47851,111.64349,111.64349,0,0,0-18.25245,7.55273A16.0328,16.0328,0,0,0,67.7539,40.60322L64.82323,61.1208q-.95434.90234-1.876,1.82471-.92433.92358-1.82666,1.87793L40.60546,67.757a16.0303,16.0303,0,0,0-11.91309,8.40821A111.6597,111.6597,0,0,0,21.125,94.41329,16.03524,16.03524,0,0,0,23.60106,108.801L36.03661,125.382c-.02442.873-.03662,1.74707-.03662,2.6167,0,.87012.0122,1.74512.0371,2.61963L23.60643,147.198A16.027,16.027,0,0,0,21.126,161.56808,111.77105,111.77105,0,0,0,28.6787,179.823a16.03335,16.03335,0,0,0,11.9248,8.42236L61.12108,191.176q.89941.95214,1.82422,1.877.92286.92284,1.87842,1.82617l2.93359,20.51465a16.03112,16.03112,0,0,0,8.40821,11.91407,111.63455,111.63455,0,0,0,18.24805,7.56689,15.89624,15.89624,0,0,0,4.76221.72852,16.0616,16.0616,0,0,0,9.626-3.20459l16.58009-12.43555c1.74755.04932,3.48877.04883,5.23632,0l16.58106,12.43213a16.03567,16.03567,0,0,0,14.37012,2.47852,111.64353,111.64353,0,0,0,18.25245-7.55274,16.03277,16.03277,0,0,0,8.42431-11.9248l2.93067-20.51759q.95434-.90234,1.876-1.8247.92433-.9236,1.82666-1.87793l20.51514-2.9336a16.03027,16.03027,0,0,0,11.91309-8.4082,111.66043,111.66043,0,0,0,7.56739-18.24805A16.03525,16.03525,0,0,0,232.39894,147.19845ZM172,127.99972a44,44,0,1,1-44-44A44.04973,44.04973,0,0,1,172,127.99972Z"/>
</svg>
