<svg id="Raw" xmlns="http://www.w3.org/2000/svg" viewBox="0 0 256.00098 256.00098">
  <rect width="256" height="256" fill="none"/>
  <circle cx="128" cy="128" r="44" fill="none" stroke="#000" stroke-linecap="round" stroke-linejoin="round" stroke-width="24"/>
  <path d="M122.87457,44.15392,104.0051,30.006a7.99514,7.99514,0,0,0-7.17954-1.24562A103.35049,103.35049,0,0,0,79.883,35.77028a8.00249,8.00249,0,0,0-4.20618,5.96441L72.3411,65.08557q-1.90725,1.69062-3.73445,3.51677Q66.78,70.429,65.089,72.33777l-.00051.0004L41.74171,75.67684a7.99514,7.99514,0,0,0-5.95749,4.19591,103.35182,103.35182,0,0,0-7.02349,16.93693,8.00252,8.00252,0,0,0,1.24326,7.19169l14.15286,18.87027q-.15318,2.54408-.15392,5.12738,0,2.58326.154,5.1287l-.00008.00064L30.009,151.99783a7.99514,7.99514,0,0,0-1.24562,7.17954,103.35049,103.35049,0,0,0,7.00986,16.94257,8.00249,8.00249,0,0,0,5.96441,4.20618l23.35088,3.33571q1.69062,1.90725,3.51677,3.73445,1.82662,1.82663,3.73543,3.51764l.0004.00051,3.33867,23.34679a7.99514,7.99514,0,0,0,4.19591,5.95749,103.35182,103.35182,0,0,0,16.93693,7.02349,8.00252,8.00252,0,0,0,7.19169-1.24326l18.87027-14.15286q2.54407.15318,5.12738.15392,2.58326,0,5.1287-.154l.00064.00008L152.00076,225.994a7.99514,7.99514,0,0,0,7.17954,1.24562,103.35049,103.35049,0,0,0,16.94257-7.00986,8.00249,8.00249,0,0,0,4.20618-5.96441l3.33571-23.35088q1.90725-1.69062,3.73445-3.51677,1.82663-1.82663,3.51764-3.73543l.00051-.0004,23.34679-3.33867a7.99516,7.99516,0,0,0,5.95749-4.19591,103.35182,103.35182,0,0,0,7.02349-16.93693,8.00252,8.00252,0,0,0-1.24326-7.19169L211.849,133.12836q.15318-2.54407.15392-5.12738,0-2.58326-.154-5.1287l.00008-.00064,14.14788-18.86947a7.99514,7.99514,0,0,0,1.24562-7.17954,103.35136,103.35136,0,0,0-7.00986-16.94257,8.00249,8.00249,0,0,0-5.96441-4.20618l-23.35088-3.33571q-1.69062-1.90725-3.51677-3.73445-1.82663-1.82662-3.73543-3.51764l-.0004-.00051-3.33867-23.34679a7.99514,7.99514,0,0,0-4.19591-5.95749,103.35182,103.35182,0,0,0-16.93693-7.02349,8.00252,8.00252,0,0,0-7.19169,1.24326L133.13129,44.15392q-2.54408-.15318-5.12738-.15392-2.58325,0-5.1287.154Z" fill="none" stroke="#000" stroke-linecap="round" stroke-linejoin="round" stroke-width="24"/>
</svg>
