<svg id="Raw" xmlns="http://www.w3.org/2000/svg" viewBox="0 0 256.00098 256.00098">
  <rect width="256" height="256" fill="none"/>
  <path d="M226.00391,151.99854l-14.15284-18.87012q.15308-2.54408.15381-5.12744,0-2.58326-.15381-5.12867v-.00073l14.148-18.86938a7.99672,7.99672,0,0,0,1.24561-7.17945,103.32133,103.32133,0,0,0-7.01026-16.94262,8.00171,8.00171,0,0,0-5.96435-4.2063l-23.35059-3.3357q-1.69116-1.90722-3.51709-3.73437-1.82665-1.82665-3.73535-3.51782v-.00049l-3.33887-23.34668a7.99635,7.99635,0,0,0-4.1958-5.95752,103.33431,103.33431,0,0,0-16.937-7.02344,8.00348,8.00348,0,0,0-7.19189,1.24317L133.1333,44.15381q-2.54443-.15307-5.12744-.15381-2.58326,0-5.12891.154l-.00049-.00024L104.00684,30.0061a7.9938,7.9938,0,0,0-7.1792-1.2456,103.35208,103.35208,0,0,0-16.94287,7.00976,8.00291,8.00291,0,0,0-4.20606,5.96436L72.34326,65.08545q-1.90722,1.6908-3.73486,3.51684-1.82667,1.82667-3.51758,3.7356l-.00049.00024L41.74365,75.67676a7.9965,7.9965,0,0,0-5.95752,4.196A103.33174,103.33174,0,0,0,28.7627,96.80957a8.00347,8.00347,0,0,0,1.24316,7.19189l14.15283,18.87012q-.15307,2.54407-.15381,5.12744,0,2.58326.15381,5.12867v.00073l-14.148,18.86938a7.99672,7.99672,0,0,0-1.2456,7.17945,103.32129,103.32129,0,0,0,7.01025,16.94262,8.00173,8.00173,0,0,0,5.96436,4.2063l23.35058,3.3357q1.69116,1.90722,3.51709,3.73437,1.82667,1.82665,3.73535,3.51782l.00049.00049,3.33838,23.34668a7.99638,7.99638,0,0,0,4.1958,5.95752,103.35211,103.35211,0,0,0,16.937,7.02344,8.0035,8.0035,0,0,0,7.1919-1.24317l18.87011-14.15283q2.54444.15307,5.12745.15381,2.58324,0,5.1289-.15405l.00049.00024,18.86963,14.14771a7.9938,7.9938,0,0,0,7.1792,1.2456,103.35244,103.35244,0,0,0,16.94287-7.00976,8.0029,8.0029,0,0,0,4.20605-5.96436l3.33594-23.35083q1.90724-1.6908,3.73438-3.51684,1.82666-1.82667,3.51758-3.7356l.00048-.00024,23.34668-3.33863a7.9965,7.9965,0,0,0,5.95752-4.196,103.3309,103.3309,0,0,0,7.02344-16.93677A8.0035,8.0035,0,0,0,226.00391,151.99854ZM128.00488,176a48,48,0,1,1,48-48A47.99988,47.99988,0,0,1,128.00488,176Z" opacity="0.2"/>
  <circle cx="128.00488" cy="128" r="48" fill="none" stroke="#000" stroke-linecap="round" stroke-linejoin="round" stroke-width="16"/>
  <path d="M122.87653,44.15392,104.00705,30.006a7.99514,7.99514,0,0,0-7.17954-1.24562,103.35049,103.35049,0,0,0-16.94257,7.00986,8.00251,8.00251,0,0,0-4.20618,5.96441L72.34305,65.08557q-1.90725,1.69062-3.73445,3.51677Q66.782,70.429,65.091,72.33777l-.0005.0004-23.3468,3.33867a7.99516,7.99516,0,0,0-5.95749,4.19591,103.35182,103.35182,0,0,0-7.02349,16.93693,8.00252,8.00252,0,0,0,1.24326,7.19169l14.15287,18.87027q-.1532,2.54408-.15393,5.12738,0,2.58326.154,5.1287l-.00008.00064L30.01093,151.99783a7.99512,7.99512,0,0,0-1.24562,7.17954,103.35131,103.35131,0,0,0,7.00985,16.94257,8.00251,8.00251,0,0,0,5.96441,4.20618l23.35089,3.33571q1.69061,1.90725,3.51676,3.73445,1.82664,1.82663,3.73544,3.51764l.00039.00051,3.33867,23.34679a7.99513,7.99513,0,0,0,4.19592,5.95749,103.35135,103.35135,0,0,0,16.93692,7.02349,8.00254,8.00254,0,0,0,7.1917-1.24326l18.87027-14.15286q2.54406.15318,5.12738.15392,2.58324,0,5.1287-.154l.00063.00008L152.00271,225.994a7.99514,7.99514,0,0,0,7.17954,1.24562,103.351,103.351,0,0,0,16.94258-7.00986,8.00254,8.00254,0,0,0,4.20618-5.96441l3.33571-23.35088q1.90725-1.69062,3.73444-3.51677,1.82662-1.82663,3.51764-3.73543l.00051-.0004,23.34679-3.33867a7.99514,7.99514,0,0,0,5.95749-4.19591,103.351,103.351,0,0,0,7.02349-16.93693,8.00254,8.00254,0,0,0-1.24325-7.19169L211.851,133.12836q.15318-2.54407.15392-5.12738,0-2.58326-.154-5.1287l.00008-.00064,14.14788-18.86947a7.99514,7.99514,0,0,0,1.24562-7.17954,103.35131,103.35131,0,0,0-7.00985-16.94257,8.00252,8.00252,0,0,0-5.96442-4.20618l-23.35088-3.33571q-1.69061-1.90725-3.51677-3.73445-1.82662-1.82662-3.73543-3.51764l-.00039-.00051L180.328,41.73878a7.99512,7.99512,0,0,0-4.19591-5.95749,103.35135,103.35135,0,0,0-16.93692-7.02349,8.00254,8.00254,0,0,0-7.1917,1.24326L133.13324,44.15392q-2.54408-.15318-5.12738-.15392-2.58324,0-5.1287.154Z" fill="none" stroke="#000" stroke-linecap="round" stroke-linejoin="round" stroke-width="16"/>
</svg>
