<svg id="Raw" xmlns="http://www.w3.org/2000/svg" viewBox="0 0 256 256">
  <rect width="256" height="256" fill="none"/>
  <path d="M207.05811,88.666q-1.10724-1.103-2.24146-2.16895l24.84009-24.84033a7.99984,7.99984,0,0,0-11.31348-11.31348L192.3728,76.3135a111.42105,111.42105,0,0,0-128.55444.19092L37.65674,50.34328A7.99984,7.99984,0,0,0,26.34326,61.65676L51.40283,86.71633A113.38256,113.38256,0,0,0,16,169.12893V192a16.01833,16.01833,0,0,0,16,16H224a16.01833,16.01833,0,0,0,16-16V168A111.25215,111.25215,0,0,0,207.05811,88.666ZM92,168a12,12,0,1,1,12-12A12,12,0,0,1,92,168Zm72,0a12,12,0,1,1,12-12A12,12,0,0,1,164,168Z"/>
</svg>
