<svg id="Raw" xmlns="http://www.w3.org/2000/svg" viewBox="0 0 256 256">
  <rect width="256" height="256" fill="none"/>
  <path d="M23.44054,75.69239a8.02578,8.02578,0,0,1,2.13281-10.834,176.07221,176.07221,0,0,1,204.85329,0,8.02577,8.02577,0,0,1,2.13281,10.834L134.74929,229.394a8,8,0,0,1-13.49858,0Z" fill="none" stroke="#000" stroke-linecap="round" stroke-linejoin="round" stroke-width="24"/>
  <path d="M41.07368,103.4019a136.0151,136.0151,0,0,1,173.85255-.00008" fill="none" stroke="#000" stroke-linecap="round" stroke-linejoin="round" stroke-width="24"/>
  <path d="M159.4017,190.65505a28.00364,28.00364,0,1,1,29.099-45.72666" fill="none" stroke="#000" stroke-linecap="round" stroke-linejoin="round" stroke-width="24"/>
  <path d="M59.71643,132.69767a28.00252,28.00252,0,1,1,29.18265,45.85854" fill="none" stroke="#000" stroke-linecap="round" stroke-linejoin="round" stroke-width="24"/>
</svg>
