<svg id="Raw" xmlns="http://www.w3.org/2000/svg" viewBox="0 0 256 256">
  <rect width="256" height="256" fill="none"/>
  <path d="M23.44054,75.69239a8.02578,8.02578,0,0,1,2.13281-10.834,176.07221,176.07221,0,0,1,204.85329,0,8.02577,8.02577,0,0,1,2.13281,10.834L134.74929,229.394a8,8,0,0,1-13.49858,0Z" fill="none" stroke="#000" stroke-linecap="round" stroke-linejoin="round" stroke-width="12"/>
  <path d="M36.74566,96.60039a144.01884,144.01884,0,0,1,182.50866,0" fill="none" stroke="#000" stroke-linecap="round" stroke-linejoin="round" stroke-width="12"/>
  <path d="M164.31747,182.93292a28.00353,28.00353,0,1,1,28.82269-45.29368" fill="none" stroke="#000" stroke-linecap="round" stroke-linejoin="round" stroke-width="12"/>
  <path d="M57.89918,129.84281A28.00328,28.00328,0,1,1,84,168q-.91436,0-1.81448-.05785" fill="none" stroke="#000" stroke-linecap="round" stroke-linejoin="round" stroke-width="12"/>
</svg>
