<svg id="Raw" xmlns="http://www.w3.org/2000/svg" viewBox="0 0 256 256">
  <rect width="256" height="256" fill="none"/>
  <g>
    <path d="M240,88.00452a7.99977,7.99977,0,0,0-8,8v64a8,8,0,0,0,16,0v-64A7.99977,7.99977,0,0,0,240,88.00452Z"/>
    <path d="M192,48.00452H40a24.0275,24.0275,0,0,0-24,24v112a24.0275,24.0275,0,0,0,24,24H192a24.0275,24.0275,0,0,0,24-24v-112A24.0275,24.0275,0,0,0,192,48.00452Zm-84,39.9956a8,8,0,1,1,16,0v40a8,8,0,0,1-16,0Zm8,88a12,12,0,1,1,12-12A12,12,0,0,1,116,176.00012Z"/>
  </g>
</svg>
