<svg xmlns="http://www.w3.org/2000/svg" width="16" height="16" viewBox="0 0 16 16">
  <g fill="none" fill-rule="evenodd">
    <polygon points="0 16 16 16 16 0 0 0"/>
    <path fill="#000" fill-rule="nonzero" d="M8,1.5 C11.5891424,1.5 14.5,4.41085763 14.5,8 C14.5,11.5891424 11.5891424,14.5 8,14.5 C4.41085763,14.5 1.5,11.5891424 1.5,8 C1.5,4.41085763 4.41085763,1.5 8,1.5 Z M8,2.5 C4.96314237,2.5 2.5,4.96314237 2.5,8 C2.5,11.0368576 4.96314237,13.5 8,13.5 C11.0368576,13.5 13.5,11.0368576 13.5,8 C13.5,4.96314237 11.0368576,2.5 8,2.5 Z M7.9997,4.5 C8.13695773,4.5 8.27144743,4.51331581 8.4036689,4.54030083 C8.53135745,4.56662836 8.65659179,4.60603544 8.77818602,4.65737522 C8.89794221,4.70793894 9.0115013,4.76939445 9.11843643,4.84157566 C9.22226144,4.91165754 9.31997446,4.99253488 9.41425339,5.08544661 C9.50302973,5.17422295 9.5838932,5.27265103 9.65812434,5.38126357 C9.73121461,5.48954546 9.79330119,5.60303706 9.84514539,5.72588356 C9.89530159,5.84788512 9.93380976,5.97163789 9.95939917,6.0970311 C9.98631969,6.22759559 9.9997,6.36240224 9.9997,6.5 C9.9997,6.63693439 9.98625705,6.77270822 9.95960203,6.90198001 C9.93380976,7.02836211 9.89530159,7.15211488 9.84332478,7.27848602 C9.80997572,7.35747063 9.77126533,7.43423955 9.7232608,7.51469403 L9.64379178,7.63887759 L7.499,10.499 L9.4997,10.499 C9.74515989,10.499 9.94930837,10.6758752 9.99164433,10.9091244 L9.9997,10.999 C9.9997,11.2444599 9.82282484,11.4486084 9.58957563,11.4909443 L9.4997,11.499 L6.48833243,11.5007048 C6.26367001,11.4934376 6.04760768,11.3369759 6.00664184,11.0867904 L5.9997,11 C5.9997,10.9069525 6.02457307,10.8207145 6.06796466,10.7466404 L6.09960822,10.7001224 L8.82927566,7.05926357 C8.86682332,7.00363741 8.89778991,6.94703182 8.92025461,6.89388356 C8.94718357,6.82838068 8.96701953,6.76463435 8.98000083,6.7010311 C8.99295248,6.63821559 8.9997,6.57006561 8.9997,6.5 C8.9997,6.42934776 8.99303247,6.36217235 8.97979797,6.29798001 C8.96701953,6.23536565 8.94718357,6.17161932 8.92207522,6.11048602 C8.89778991,6.05296818 8.86682332,5.99636259 8.83091825,5.94315461 C8.79245491,5.88688418 8.75091744,5.83632422 8.70977515,5.79516253 C8.66066639,5.74677596 8.61022706,5.70502719 8.55896357,5.67042434 C8.5058987,5.63460555 8.44945779,5.60406106 8.38921398,5.57862478 C8.32689085,5.55231057 8.26415862,5.53257083 8.20271999,5.51990203 C8.13795257,5.50668419 8.07044227,5.5 7.9997,5.5 C7.92987195,5.5 7.86237042,5.5066999 7.79768001,5.51990203 C7.73497578,5.53269881 7.67258176,5.55227991 7.61018602,5.57862478 C7.55139861,5.60344613 7.49500629,5.63405435 7.44285461,5.66878175 C7.39087971,5.7043089 7.33966765,5.74684095 7.29325339,5.79255339 C7.24763081,5.83817598 7.20640543,5.88815123 7.16872096,5.94426441 C7.13373423,5.9951542 7.10376515,6.05023252 7.07832478,6.11048602 C6.97091312,6.36488206 6.67761002,6.48403644 6.42321398,6.37662478 C6.16881794,6.26921312 6.04966356,5.97591002 6.15707522,5.72151398 C6.2085008,5.59971654 6.27086448,5.48510221 6.34148522,5.38243818 C6.41242263,5.27670129 6.49501919,5.17657402 6.58877515,5.08283747 C6.67923637,4.99370656 6.7762108,4.91316847 6.8833499,4.83997485 C6.99167942,4.76775517 7.10337822,4.7071281 7.22121398,4.65737522 C7.34343111,4.60577243 7.46898011,4.56637142 7.59771999,4.54009797 C7.72879286,4.51334841 7.86327805,4.5 7.9997,4.5 Z"/>
  </g>
</svg>
