<svg xmlns="http://www.w3.org/2000/svg" width="16" height="16" viewBox="0 0 16 16">
  <g fill="none" fill-rule="evenodd">
    <polygon points="0 16 16 16 16 0 0 0"/>
    <path fill="#000" fill-rule="nonzero" d="M8,1.75 C11.4510712,1.75 14.25,4.54892881 14.25,8 C14.25,11.4510712 11.4510712,14.25 8,14.25 C4.54892881,14.25 1.75,11.4510712 1.75,8 C1.75,4.54892881 4.54892881,1.75 8,1.75 Z M8,2.25 C4.82507119,2.25 2.25,4.82507119 2.25,8 C2.25,11.1749288 4.82507119,13.75 8,13.75 C11.1749288,13.75 13.75,11.1749288 13.75,8 C13.75,4.82507119 11.1749288,2.25 8,2.25 Z M8.0002,4.75 C8.12018445,4.75 8.23890472,4.76172546 8.35368445,4.78515041 C8.46505774,4.80811398 8.57466656,4.84260422 8.68144301,4.88768761 C8.7863211,4.93196947 8.88560065,4.98569723 8.97906821,5.04878783 C9.0708228,5.11072218 9.15727413,5.18252074 9.23568168,5.26093771 C9.31224451,5.33639093 9.38160332,5.42081538 9.45141217,5.52113179 C9.51450277,5.61459935 9.56823053,5.7138789 9.61251239,5.81875699 C9.65627185,5.92239782 9.69014285,6.0312482 9.7155378,6.14994414 C9.73832104,6.26625857 9.7502,6.3830201 9.7502,6.5 C9.7502,6.61632306 9.73824372,6.73413613 9.7146506,6.85438227 C9.69014285,6.9687518 9.65627185,7.07760218 9.61251239,7.18124301 C9.58299115,7.25116174 9.54927173,7.31859223 9.50925541,7.3864551 L9.44424589,7.48893879 L7,10.749 L9.5002,10.749 C9.61854673,10.749 9.71768682,10.8312334 9.74359732,10.9416773 L9.7502,10.999 C9.7502,11.1173467 9.66796659,11.2164868 9.55752271,11.2423973 L9.5002,11.249 L6.47957151,11.2494283 C6.38020747,11.240353 6.28716439,11.1733107 6.25891015,11.0677807 L6.2502,11 C6.2502,10.9598844 6.25933705,10.9223474 6.27561029,10.8890934 L6.309,10.838 L9.03698783,7.19913179 C9.05944253,7.16586557 9.08023794,7.13155234 9.09938444,7.09616544 L9.15188761,6.98675699 C9.18317764,6.91264901 9.20770421,6.8338286 9.2248622,6.75394414 C9.24150205,6.66899337 9.2502,6.5832867 9.2502,6.5 C9.2502,6.41610185 9.24158657,6.33143817 9.2257494,6.25038227 C9.20770421,6.1661714 9.18317764,6.08735099 9.15188761,6.01324301 C9.12016947,5.9381211 9.08189723,5.86740065 9.03902665,5.80384221 C8.98782015,5.73029105 8.93766536,5.66924198 8.8834233,5.6157767 C8.82592587,5.55827926 8.76408946,5.5069236 8.69933179,5.46321217 C8.63279935,5.41830277 8.5620789,5.38003053 8.48695699,5.34831239 C8.40981609,5.31574179 8.33145833,5.29108521 8.25321,5.27495101 C8.17219863,5.25841808 8.08696555,5.25 8.0002,5.25 C7.91282886,5.25 7.82857371,5.25834209 7.74719,5.27495101 C7.66878622,5.29095179 7.59167603,5.31528067 7.51344301,5.34831239 C7.4383211,5.38003053 7.36760065,5.41830277 7.30106821,5.46321217 C7.23666435,5.50668478 7.17440659,5.55821569 7.1159767,5.6157767 C7.06095449,5.6707989 7.00958551,5.73332589 6.96341217,5.80086821 C6.91850277,5.86740065 6.88023053,5.9381211 6.84851239,6.01324301 C6.79480656,6.14044103 6.64815501,6.20001822 6.52095699,6.14631239 C6.39375897,6.09260656 6.33418178,5.94595501 6.38788761,5.81875699 C6.43216947,5.7138789 6.48589723,5.61459935 6.54980912,5.51992269 C6.61386637,5.42620932 6.68489834,5.33974827 6.76373758,5.26091873 C6.84475255,5.18109515 6.93064716,5.10999996 7.02133179,5.04878783 C7.11479935,4.98569723 7.2140789,4.93196947 7.31895699,4.88768761 C7.42688766,4.84211688 7.53551682,4.80784351 7.64721,4.78504899 C7.76182629,4.76165791 7.87957114,4.75 8.0002,4.75 Z"/>
  </g>
</svg>
