<svg xmlns="http://www.w3.org/2000/svg" width="16" height="16" viewBox="0 0 16 16">
  <g fill="none" fill-rule="evenodd">
    <polygon points="0 16 16 16 16 0 0 0"/>
    <path fill="#000" fill-rule="nonzero" d="M8,1.625 C11.5201068,1.625 14.375,4.47989322 14.375,8 C14.375,11.5201068 11.5201068,14.375 8,14.375 C4.47989322,14.375 1.625,11.5201068 1.625,8 C1.625,4.47989322 4.47989322,1.625 8,1.625 Z M8,2.375 C4.89410678,2.375 2.375,4.89410678 2.375,8 C2.375,11.1058932 4.89410678,13.625 8,13.625 C11.1058932,13.625 13.625,11.1058932 13.625,8 C13.625,4.89410678 11.1058932,2.375 8,2.375 Z M8.0002,4.625 C8.12848918,4.625 8.25558125,4.6375523 8.37892668,4.66272562 C8.49845759,4.68737117 8.61587918,4.72431983 8.73006451,4.77253141 C8.84238166,4.81995421 8.94880098,4.87754584 9.04900232,4.94518175 C9.14750613,5.01167182 9.2401112,5.08858111 9.32342252,5.17190656 C9.4058893,5.25317817 9.48004911,5.34344646 9.55501825,5.45119768 C9.62265416,5.55139902 9.68024579,5.65781834 9.72766859,5.77013549 C9.7745454,5.88115952 9.81075251,5.99751741 9.8382067,6.12591621 C9.86250465,6.24996367 9.8752,6.37474966 9.8752,6.5 C9.8752,6.62458215 9.86242914,6.75042182 9.83687591,6.88057341 C9.81075251,7.00248259 9.7745454,7.11884048 9.72766859,7.22986451 C9.69605339,7.30474261 9.65991871,7.37699945 9.61611644,7.45101599 L9.54426884,7.56390819 L7.25,10.624 L9.5002,10.624 C9.68141843,10.624 9.83261398,10.7525432 9.86758133,10.9234244 L9.8752,10.999 C9.8752,11.1802184 9.74665675,11.331414 9.57577558,11.3663813 L9.5002,11.374 L6.50773714,11.3757458 C6.33627759,11.377431 6.16738345,11.2623147 6.1319682,11.0739747 L6.1252,11 C6.1252,10.921335 6.14880998,10.8491843 6.18924411,10.7893339 L8.93338175,7.12919768 L8.98947666,7.03662316 L9.03673141,6.93813549 C9.06490409,6.87141072 9.08709455,6.8000978 9.1021933,6.72991621 C9.11731663,6.65270767 9.1252,6.57502761 9.1252,6.5 C9.1252,6.42437229 9.11740296,6.34773306 9.10352409,6.27657341 C9.08709455,6.1999022 9.06490409,6.12858928 9.03673141,6.06186451 C9.00815421,5.99418166 8.97374584,5.93060098 8.93643997,5.87526331 C8.88937435,5.80765996 8.84402057,5.75245474 8.79503496,5.70416504 C8.7430888,5.65221889 8.68740613,5.60597396 8.62939768,5.56681825 C8.56959902,5.52645416 8.50601834,5.49204579 8.43833549,5.46346859 C8.36860347,5.43402618 8.29805847,5.41182802 8.228215,5.39742652 C8.1555221,5.38259124 8.07866082,5.375 8.0002,5.375 C7.9211433,5.375 7.84526057,5.38251314 7.772185,5.39742652 C7.70210357,5.41172886 7.63287313,5.43357162 7.56206451,5.46346859 C7.49438166,5.49204579 7.43080098,5.52645416 7.37100232,5.56681825 C7.31316864,5.60585599 7.2568201,5.65249583 7.20436504,5.70416504 C7.15496852,5.75356156 7.1085153,5.81010503 7.06701825,5.87080232 C7.02665416,5.93060098 6.99224579,5.99418166 6.96366859,6.06186451 C6.88310984,6.25266155 6.66313252,6.34202733 6.47233549,6.26146859 C6.28153845,6.18090984 6.19217267,5.96093252 6.27273141,5.77013549 C6.32015421,5.65781834 6.37774584,5.55139902 6.44661369,5.44938404 C6.51493658,5.34943017 6.59088431,5.25698561 6.67600636,5.1718781 C6.76233904,5.08681502 6.85414286,5.01082875 6.95139768,4.94518175 C7.05159902,4.87754584 7.15801834,4.81995421 7.27033549,4.77253141 C7.38569057,4.72382593 7.50219947,4.68706644 7.622215,4.66257348 C7.74513943,4.63748686 7.8712567,4.625 8.0002,4.625 Z"/>
  </g>
</svg>
