<svg xmlns="http://www.w3.org/2000/svg" width="16" height="16" viewBox="0 0 16 16">
  <g fill="none" fill-rule="evenodd">
    <polygon points="0 16 16 16 16 0 0 0"/>
    <path fill="#000" d="M9.5,10.4995 L9.5,10.4995 C9.776,10.4995 10,10.7235 10,10.9995 C10,11.2765 9.776,11.4995 9.5,11.4995 C9.499,11.4995 9.498,11.4995 9.498,11.4995 L6.5,11.4995 C6.311,11.4995 6.138,11.3925 6.053,11.2235 C5.968,11.0535 5.986,10.8515 6.1,10.6995 L8.844,7.0395 C8.865,7.0065 8.896,6.9495 8.922,6.8885 C8.947,6.8285 8.967,6.7655 8.98,6.6995 C8.992,6.6385 9,6.5695 9,6.4995 C9,6.4305 8.992,6.3615 8.979,6.2955 C8.967,6.2345 8.947,6.1715 8.922,6.1115 C8.896,6.0505 8.865,5.9935 8.829,5.9395 C8.795,5.8905 8.755,5.8405 8.708,5.7945 C8.661,5.7475 8.613,5.7075 8.561,5.6715 C8.505,5.6345 8.448,5.6035 8.389,5.5785 C8.331,5.5535 8.268,5.5335 8.202,5.5205 C8.073,5.4935 7.927,5.4935 7.798,5.5205 C7.732,5.5335 7.669,5.5535 7.609,5.5795 C7.552,5.6035 7.495,5.6345 7.441,5.6705 C7.387,5.7075 7.339,5.7475 7.294,5.7915 C7.245,5.8405 7.205,5.8905 7.168,5.9445 C7.135,5.9935 7.104,6.0505 7.078,6.1115 C6.972,6.3655 6.674,6.4835 6.423,6.3765 C6.169,6.2685 6.05,5.9755 6.158,5.7205 C6.208,5.6015 6.27,5.4885 6.341,5.3825 C6.416,5.2725 6.497,5.1745 6.587,5.0845 C6.675,4.9965 6.775,4.9135 6.883,4.8415 C6.987,4.7705 7.101,4.7075 7.221,4.6575 C7.343,4.6065 7.467,4.5665 7.597,4.5405 C7.858,4.4865 8.142,4.4865 8.403,4.5405 C8.533,4.5665 8.657,4.6065 8.777,4.6565 C8.899,4.7075 9.013,4.7705 9.119,4.8425 C9.225,4.9135 9.325,4.9965 9.415,5.0875 C9.503,5.1745 9.584,5.2725 9.656,5.3775 C9.73,5.4885 9.792,5.6015 9.842,5.7205 C9.893,5.8405 9.932,5.9655 9.959,6.0955 C9.986,6.2285 10,6.3625 10,6.4995 C10,6.6375 9.986,6.7705 9.96,6.9005 C9.932,7.0345 9.893,7.1595 9.842,7.2795 C9.792,7.3985 9.73,7.5115 9.659,7.6175 L7.5,10.4995 L9.5,10.4995 Z M8,1.4995 C4.416,1.4995 1.5,4.4165 1.5,7.9995 C1.5,11.5835 4.416,14.4995 8,14.4995 C11.584,14.4995 14.5,11.5835 14.5,7.9995 C14.5,4.4165 11.584,1.4995 8,1.4995 L8,1.4995 Z"/>
  </g>
</svg>
