<svg xmlns="http://www.w3.org/2000/svg" width="16" height="16" viewBox="0 0 16 16">
  <g fill="none" fill-rule="evenodd">
    <polygon points="0 16 16 16 16 0 0 0"/>
    <path fill="#000" d="M14,8 C14,11.313 11.313,14 8,14 C4.687,14 2,11.313 2,8 C2,4.687 4.687,2 8,2 C11.313,2 14,4.687 14,8" opacity=".2"/>
    <path fill="#000" fill-rule="nonzero" d="M8,1.5 C11.5891424,1.5 14.5,4.41085763 14.5,8 C14.5,11.5891424 11.5891424,14.5 8,14.5 C4.41085763,14.5 1.5,11.5891424 1.5,8 C1.5,4.41085763 4.41085763,1.5 8,1.5 Z M8,2.5 C4.96314237,2.5 2.5,4.96314237 2.5,8 C2.5,11.0368576 4.96314237,13.5 8,13.5 C11.0368576,13.5 13.5,11.0368576 13.5,8 C13.5,4.96314237 11.0368576,2.5 8,2.5 Z M8.0002,4.5 C8.13679391,4.5 8.27225777,4.51337915 8.4041689,4.54030083 C8.53185745,4.56662836 8.65709179,4.60603544 8.77868602,4.65737522 C8.89844221,4.70793894 9.0120013,4.76939445 9.11893643,4.84157566 C9.22418947,4.91262146 9.32294826,4.99464148 9.41116336,5.08287541 C9.49953409,5.16996541 9.5784949,5.26607755 9.65862434,5.38126357 C9.73080555,5.4881987 9.79226106,5.60175779 9.84282478,5.72151398 C9.89281895,5.83992123 9.93136217,5.96378661 9.96087559,6.10188829 C9.98668827,6.23366878 10.0002,6.36647922 10.0002,6.5 C10.0002,6.63284124 9.98661456,6.76670751 9.95910121,6.90676454 C9.93136217,7.03621339 9.89281895,7.16007877 9.84282478,7.27848602 C9.80911563,7.35832348 9.77056569,7.43540667 9.72297748,7.51557687 L9.64429178,7.63887759 L7.5,10.499 L9.5002,10.499 C9.74565989,10.499 9.94980837,10.6758752 9.99214433,10.9091244 L10.0002,10.999 C10.0002,11.2444599 9.82332484,11.4486084 9.59007563,11.4909443 L9.5002,11.499 L6.48883243,11.5007048 C6.26417001,11.4934376 6.04810768,11.3369759 6.00714184,11.0867904 L6.0002,11 C6.0002,10.9072025 6.02507307,10.820777 6.06846466,10.7466561 L6.121,10.672 L8.82977566,7.05926357 L8.87956888,6.97708088 L8.92157522,6.88951398 C8.94663054,6.83017243 8.96648489,6.766367 8.97952441,6.70588829 C8.99313121,6.63642198 9.0002,6.56676852 9.0002,6.5 C9.0002,6.43264273 8.99321934,6.36402796 8.98129879,6.30276454 C8.96648489,6.233633 8.94663054,6.16982757 8.92157522,6.11048602 C8.89613894,6.05024221 8.86559445,5.9938013 8.8338533,5.94668441 C8.79092856,5.88502888 8.75037578,5.83566751 8.70664661,5.79255339 C8.66025174,5.74615852 8.61072279,5.70502431 8.55946357,5.67042434 C8.5063987,5.63460555 8.44995779,5.60406106 8.38971398,5.57862478 C8.32739085,5.55231057 8.26465862,5.53257083 8.20321999,5.51990203 C8.13884558,5.50676439 8.07035609,5.5 8.0002,5.5 C7.92945773,5.5 7.86194743,5.50668419 7.79718001,5.51990203 C7.73542092,5.53250592 7.67407022,5.55186256 7.61068602,5.57862478 C7.55044221,5.60406106 7.4940013,5.63460555 7.44093643,5.67042434 C7.38967294,5.70502719 7.33923361,5.74677596 7.29275339,5.79255339 C7.24898256,5.83632422 7.20744509,5.88688418 7.17062434,5.94073643 C7.13480555,5.9938013 7.10426106,6.05024221 7.07882478,6.11048602 C6.97141312,6.36488206 6.67811002,6.48403644 6.42371398,6.37662478 C6.16931794,6.26921312 6.05016356,5.97591002 6.15757522,5.72151398 C6.20813894,5.60175779 6.26959445,5.4881987 6.34341825,5.37884539 C6.4160068,5.27265103 6.49687027,5.17422295 6.58827515,5.08283747 C6.67992554,4.99253488 6.77763856,4.91165754 6.88146357,4.84157566 C6.9883987,4.76939445 7.10195779,4.70793894 7.22171398,4.65737522 C7.34449348,4.60553499 7.46888212,4.56628937 7.59721999,4.54009797 C7.72845257,4.51331581 7.86294227,4.5 8.0002,4.5 Z"/>
  </g>
</svg>
