<svg xmlns="http://www.w3.org/2000/svg" width="16" height="16" viewBox="0 0 16 16">
  <g fill="none" fill-rule="evenodd">
    <polygon points="0 16 16 16 16 0 0 0"/>
    <path fill="#000" fill-rule="nonzero" d="M8,1.25 C11.7272136,1.25 14.75,4.27278644 14.75,8 C14.75,11.7272136 11.7272136,14.75 8,14.75 C4.27278644,14.75 1.25,11.7272136 1.25,8 C1.25,4.27278644 4.27278644,1.25 8,1.25 Z M8,2.75 C5.10121356,2.75 2.75,5.10121356 2.75,8 C2.75,10.8987864 5.10121356,13.25 8,13.25 C10.8987864,13.25 13.25,10.8987864 13.25,8 C13.25,5.10121356 10.8987864,2.75 8,2.75 Z M8.0002,4.25 C8.15340336,4.25 8.30561082,4.26503284 8.45465335,4.29545124 C8.59865716,4.32514274 8.73951703,4.36946665 8.87592903,4.42706283 C9.01056331,4.48390842 9.13840195,4.55309168 9.25880464,4.63436349 C9.37755613,4.71452075 9.48862239,4.80676222 9.58664504,4.90481312 C9.68682366,5.00353988 9.77538649,5.11133971 9.86583651,5.24139536 C9.94710832,5.36179805 10.0162916,5.48963669 10.0731372,5.62427097 C10.1293661,5.75744465 10.1725815,5.89632501 10.2062134,6.05383243 C10.2350555,6.20107898 10.2502,6.34993835 10.2502,6.5 C10.2502,6.64935942 10.2349854,6.79927889 10.2035518,6.95914682 C10.1725815,7.10367499 10.1293661,7.24255535 10.0731372,7.37572903 C10.0352401,7.46548522 9.99185964,7.55222112 9.93669955,7.64469864 L9.84433767,7.78881638 L7.999,10.249 L9.5002,10.249 C9.87989577,10.249 10.193691,10.5311539 10.2433534,10.8972294 L10.2502,10.999 C10.2502,11.3786958 9.96804612,11.692491 9.60197056,11.7421534 L9.5002,11.749 L6.551,11.749 L6.52813565,11.7511771 C6.16797887,11.7609437 5.8098705,11.5118775 5.75690801,11.1049596 L5.7502,11 C5.7502,10.8611288 5.7875096,10.7316118 5.85259699,10.6204686 L5.916,10.528 L8.62256349,6.91939536 L8.65975333,6.85799632 L8.69126283,6.79227097 C8.71008344,6.74769584 8.72526557,6.6989054 8.73418661,6.65783243 C8.74476037,6.6038506 8.7502,6.55025034 8.7502,6.5 C8.7502,6.44918361 8.74485211,6.39661776 8.73684819,6.35514682 C8.72526557,6.3010946 8.71008344,6.25230416 8.69126283,6.20772903 C8.67210842,6.16236331 8.64929168,6.12020195 8.62867995,6.08952662 C8.59403697,6.03976671 8.5630862,6.00209303 8.52986991,5.96933009 C8.49457761,5.93403778 8.45735613,5.90312502 8.41959536,5.87763651 C8.37999805,5.85090832 8.33783669,5.82809158 8.29247097,5.80893717 C8.24496561,5.78887935 8.19785891,5.77405644 8.15322999,5.76485304 C8.10549253,5.75511071 8.05374664,5.75 8.0002,5.75 C7.94608659,5.75 7.89532114,5.75502628 7.84717001,5.76485304 C7.80205562,5.77406006 7.7564644,5.78844446 7.70792903,5.80893717 C7.66256331,5.82809158 7.62040195,5.85090832 7.58080464,5.87763651 C7.54268153,5.9033696 7.50406062,5.93533623 7.46953009,5.96933009 C7.43701063,6.00184954 7.40530466,6.04044247 7.37783651,6.08060464 L7.34064667,6.14200368 L7.30913717,6.20772903 C7.14801968,6.58932309 6.70806503,6.76805466 6.32647097,6.60693717 C5.94487691,6.44581968 5.76614534,6.00586503 5.92726283,5.62427097 C5.98410842,5.48963669 6.05329168,5.36179805 6.13702737,5.23776808 C6.21814723,5.11909274 6.3088422,5.00869763 6.41281273,4.9047562 C6.51509852,4.80397461 6.62462997,4.71331513 6.74159536,4.63436349 C6.86199805,4.55309168 6.98983669,4.48390842 7.12447097,4.42706283 C7.2620993,4.36895309 7.40224741,4.32473524 7.54722999,4.29514696 C7.69507886,4.26497372 7.84631341,4.25 8.0002,4.25 Z"/>
  </g>
</svg>
