<svg id="Layer_1" data-name="Layer 1" xmlns="http://www.w3.org/2000/svg" viewBox="0 0 256 256">
  <path d="M87.99975,33.75366,30.05932,48.23877A7.99985,7.99985,0,0,0,23.99975,56V200a8.00045,8.00045,0,0,0,9.94043,7.76123l54.05957-13.51489Z"/>
  <polygon points="152 59.056 104 35.055 104 196.944 152 220.944 152 59.056"/>
  <path d="M228.9226,49.69434a7.99952,7.99952,0,0,0-6.86328-1.45557L167.99975,61.75366V222.24634l57.94043-14.48511A8,8,0,0,0,231.99975,200V56A7.99871,7.99871,0,0,0,228.9226,49.69434Z"/>
</svg>
