<svg id="Layer_1" data-name="Layer 1" xmlns="http://www.w3.org/2000/svg" viewBox="0 0 256 256">
  <path d="M133.65686,133.65674l-.0011.001c-.04687.04688-.09912.08838-.14709.13379-.10437.09912-.20984.19727-.32044.29151-.03979.03369-.07715.07031-.11767.104-.06678.05469-.13745.10205-.20557.15479-.092.07031-.18359.14062-.2793.20752-.04834.03418-.09448.07031-.14367.103-.09339.0625-.19043.1167-.28577.17481-.05334.03222-.10193.06982-.15625.10107L42.23486,186.75439A103.95885,103.95885,0,1,0,206.94214,60.37158Z"/>
  <path d="M136,24.30469v84.38183l59.62842-59.62841A103.55566,103.55566,0,0,0,136,24.30469Z"/>
  <path d="M120,123.38135V24.30469a103.98488,103.98488,0,0,0-85.792,148.6084Z"/>
</svg>
