<svg id="Raw" xmlns="http://www.w3.org/2000/svg" viewBox="0 0 256 256">
  <rect width="256" height="256" fill="none"/>
  <path d="M231.99951,208a8.00039,8.00039,0,0,1-8,8h-192a8.00039,8.00039,0,0,1-8-8V48a8,8,0,0,1,16,0V156.68848l50.3457-50.34571a8.00122,8.00122,0,0,1,11.31446,0l26.34277,26.34375L176.68848,84,162.34521,69.65674A8.00038,8.00038,0,0,1,168.00244,56h40a8.00039,8.00039,0,0,1,8,8v40a8.00018,8.00018,0,0,1-13.65723,5.65674L188.00244,95.314l-54.34277,54.34327a8.00122,8.00122,0,0,1-11.31446,0L96.00244,123.31348l-56.00293,56.0039V200h184A8.00039,8.00039,0,0,1,231.99951,208Z"/>
</svg>
