<svg id="Layer_1" data-name="Layer 1" xmlns="http://www.w3.org/2000/svg" viewBox="0 0 256.00098 256.00098">
  <rect width="256.00098" height="256.00098" fill="red"/>
  <path d="M229.22754,104.54a8.116,8.116,0,0,0-4.33984-5.36524l-16.67579-8.24609-8-13.85644,1.19727-18.56446a8.11083,8.11083,0,0,0-2.47754-6.4414,100.59892,100.59892,0,0,0-40.63477-23.46094,8.11494,8.11494,0,0,0-6.8164,1.07519L136.001,39.999h-16V40L104.52246,29.68066a8.11368,8.11368,0,0,0-6.81738-1.07519A100.58182,100.58182,0,0,0,57.07031,52.06641a8.11659,8.11659,0,0,0-2.47754,6.44043L55.79,77.07129l-8,13.85644-16.67676,8.2461a8.11454,8.11454,0,0,0-4.33887,5.36523,100.5823,100.5823,0,0,0,0,46.92188,8.1132,8.1132,0,0,0,4.33985,5.36523l16.6748,8.2461,8,13.85644h.001l-1.19727,18.56445a8.11331,8.11331,0,0,0,2.47657,6.44141,100.61151,100.61151,0,0,0,40.63574,23.46094,8.11547,8.11547,0,0,0,6.8164-1.0752L120,216.002h16v-.001l15.47949,10.31933a8.1115,8.1115,0,0,0,6.81641,1.0752,100.582,100.582,0,0,0,40.63476-23.46094,8.11,8.11,0,0,0,2.47754-6.44043l-1.19629-18.56445,8-13.85645h-.001l16.67676-8.24609a8.11593,8.11593,0,0,0,4.33984-5.36524,100.61646,100.61646,0,0,0,0-46.92187ZM128.001,184a56,56,0,1,1,56-56A55.99964,55.99964,0,0,1,128.001,184Z" opacity="0.2"/>
  <circle cx="128.00098" cy="128.00049" r="56" fill="none" stroke="#000" stroke-linecap="round" stroke-linejoin="round" stroke-width="16"/>
  <path d="M200.21166,77.07258l1.19715-18.56521a8.114,8.114,0,0,0-2.47713-6.4411A100.59255,100.59255,0,0,0,158.2966,28.60585a8.11362,8.11362,0,0,0-6.8167,1.07506L136.0011,39.99947l-16,0,.00014.00037L104.52184,29.68045a8.114,8.114,0,0,0-6.81671-1.07528A100.59233,100.59233,0,0,0,57.07027,52.066a8.11361,8.11361,0,0,0-2.47733,6.441l1.19673,18.56431-8,13.85643.0004.00006L31.11352,99.17357a8.114,8.114,0,0,0-4.33958,5.36581,100.59237,100.59237,0,0,0,.00021,46.92122,8.11362,8.11362,0,0,0,4.33938,5.36591l16.67553,8.24576,8,13.85644.00026-.00031-1.19716,18.56521a8.114,8.114,0,0,0,2.47714,6.44109,100.5923,100.5923,0,0,0,40.63507,23.46042,8.11363,8.11363,0,0,0,6.81671-1.07505l15.4788-10.31856,16,0-.00014-.00038,15.47936,10.31937a8.114,8.114,0,0,0,6.81672,1.07529,100.59233,100.59233,0,0,0,40.63486-23.4608,8.11362,8.11362,0,0,0,2.47733-6.441l-1.19674-18.56431,8-13.85642-.0004-.00007,16.67652-8.24584a8.114,8.114,0,0,0,4.33958-5.36581,100.59233,100.59233,0,0,0-.00021-46.92121,8.11366,8.11366,0,0,0-4.33938-5.36592l-16.67554-8.24575-8-13.85644Z" fill="none" stroke="#000" stroke-miterlimit="10" stroke-width="16"/>
</svg>
