<svg id="Layer_1" data-name="Layer 1" xmlns="http://www.w3.org/2000/svg" viewBox="0 0 256.00098 256.00098">
  <circle cx="128.00098" cy="128.00049" r="56" fill="none" stroke="#000" stroke-linecap="round" stroke-linejoin="round" stroke-width="8"/>
  <path d="M200.21166,77.07258l1.19715-18.56521a8.114,8.114,0,0,0-2.47713-6.4411A100.59255,100.59255,0,0,0,158.2966,28.60585a8.11362,8.11362,0,0,0-6.8167,1.07506L136.0011,39.99947l-16,0,.00014.00037L104.52184,29.68045a8.114,8.114,0,0,0-6.81671-1.07528A100.59233,100.59233,0,0,0,57.07027,52.066a8.11361,8.11361,0,0,0-2.47733,6.441l1.19673,18.56431-8,13.85643.0004.00006L31.11352,99.17357a8.114,8.114,0,0,0-4.33958,5.36581,100.59237,100.59237,0,0,0,.00021,46.92122,8.11362,8.11362,0,0,0,4.33938,5.36591l16.67553,8.24576,8,13.85644.00026-.00031-1.19716,18.56521a8.114,8.114,0,0,0,2.47714,6.44109,100.5923,100.5923,0,0,0,40.63507,23.46042,8.11363,8.11363,0,0,0,6.81671-1.07505l15.4788-10.31856,16,0-.00014-.00038,15.47936,10.31937a8.114,8.114,0,0,0,6.81672,1.07529,100.59233,100.59233,0,0,0,40.63486-23.4608,8.11362,8.11362,0,0,0,2.47733-6.441l-1.19674-18.56431,8-13.85642-.0004-.00007,16.67652-8.24584a8.114,8.114,0,0,0,4.33958-5.36581,100.59233,100.59233,0,0,0-.00021-46.92121,8.11366,8.11366,0,0,0-4.33938-5.36592l-16.67554-8.24575-8-13.85644Z" fill="none" stroke="#000" stroke-linecap="round" stroke-linejoin="round" stroke-width="8"/>
</svg>
