<svg id="Layer_1" data-name="Layer 1" xmlns="http://www.w3.org/2000/svg" viewBox="0 0 256.00098 256.00098">
  <path d="M237.0127,102.7207a16.03256,16.03256,0,0,0-8.57813-10.71875l-14.5-7.17187L208.34863,75.166l1.04688-16.14063a16.05779,16.05779,0,0,0-4.98438-12.78906,108.55753,108.55753,0,0,0-43.80468-25.28906,16.03327,16.03327,0,0,0-13.5625,2.07812L133.583,32.002H122.42676L108.96582,23.0332a15.96939,15.96939,0,0,0-13.57031-2.08593A108.277,108.277,0,0,0,51.583,46.24414a16.051,16.051,0,0,0-4.97656,12.78125l1.03906,16.14844L42.0752,84.83008,27.55957,92.00977a16.0798,16.0798,0,0,0-8.57812,10.71093,108.53457,108.53457,0,0,0,.00781,50.58594A16.07865,16.07865,0,0,0,27.56738,164.002l14.5,7.17188,5.57813,9.66406L46.60645,196.9707a16.05783,16.05783,0,0,0,4.98437,12.78907,108.28127,108.28127,0,0,0,43.80469,25.28906,16.05367,16.05367,0,0,0,13.5625-2.07031L122.419,224.002H133.5752l13.46093,8.96875a16.152,16.152,0,0,0,8.99219,2.76563,15.72265,15.72265,0,0,0,4.57031-.67969A108.509,108.509,0,0,0,204.419,209.752a16.09744,16.09744,0,0,0,4.97656-12.77343l-1.04688-16.14844,5.57813-9.65625,14.51562-7.17969A16.01618,16.01618,0,0,0,237.0127,153.291a108.33112,108.33112,0,0,0,0-50.57032ZM128.001,176a48,48,0,1,1,48-48A47.99987,47.99987,0,0,1,128.001,176Z"/>
</svg>
