<svg id="Raw" xmlns="http://www.w3.org/2000/svg" viewBox="0 0 256 256">
  <rect width="256" height="256" fill="none"/>
  <path d="M112,144v51.63672a7.9983,7.9983,0,0,1-9.43115,7.87061l-64-11.63623A8.00019,8.00019,0,0,1,32,184V144a8.00008,8.00008,0,0,1,8-8h64A8.00008,8.00008,0,0,1,112,144ZM109.126,54.2217a7.995,7.995,0,0,0-6.55713-1.729l-64,11.63623A8.00017,8.00017,0,0,0,32,72v40a8.00008,8.00008,0,0,0,8,8h64a8.00008,8.00008,0,0,0,8-8V60.3633A7.99853,7.99853,0,0,0,109.126,54.2217ZM216,136H136a8.00008,8.00008,0,0,0-8,8v57.45459a7.99967,7.99967,0,0,0,6.56885,7.87061l80,14.5459A8.0001,8.0001,0,0,0,224,216V144A8.00008,8.00008,0,0,0,216,136Zm5.126-102.14209a7.99714,7.99714,0,0,0-6.55713-1.729l-80,14.5459A7.99965,7.99965,0,0,0,128,54.54543V112a8.00008,8.00008,0,0,0,8,8h80a8.00008,8.00008,0,0,0,8-8V40A8.00028,8.00028,0,0,0,221.126,33.85793Z"/>
</svg>
