<svg id="Raw" xmlns="http://www.w3.org/2000/svg" viewBox="0 0 256 256">
  <rect width="256" height="256" fill="none"/>
  <path d="M248,216a8.00008,8.00008,0,0,1-8,8H96a8,8,0,0,1,0-16H240A8.00008,8.00008,0,0,1,248,216Zm-24-28a4.00035,4.00035,0,0,0,4-4V148.32275a36.10691,36.10691,0,0,0-26.36523-34.68652l-46.97852-13.0498L123.47266,46.01562a4.00193,4.00193,0,0,0-2.208-1.81054l-13.46973-4.49024A12.00071,12.00071,0,0,0,92,51.09961V82.55908L66.75781,74.6709,51.5293,46.11768a4.00065,4.00065,0,0,0-2.26465-1.9126L35.79492,39.71484A12.00071,12.00071,0,0,0,20,51.09961v52.62988A36.11994,36.11994,0,0,0,46.294,138.396l176.62793,49.45605A4.00591,4.00591,0,0,0,224,188Z"/>
</svg>
