<svg id="Raw" xmlns="http://www.w3.org/2000/svg" viewBox="0 0 256 256">
  <rect width="256" height="256" fill="none"/>
  <path d="M224.00049,67.99756a36,36,0,1,0-44,35.09289v.9076a16.01865,16.01865,0,0,1-16,16l-72.001.00146a31.80375,31.80375,0,0,0-15.999,4.29444v-21.2035a36,36,0,1,0-16,0V152.9071a36,36,0,1,0,16,0v-.90759a16.01844,16.01844,0,0,1,15.999-16l72.001-.00146a32.0373,32.0373,0,0,0,32-32v-.9076A36.05514,36.05514,0,0,0,224.00049,67.99756Zm-176,0a20,20,0,1,1,20,20A20.0226,20.0226,0,0,1,48.00049,67.99756ZM88.00049,188a20,20,0,1,1-20-20A20.0226,20.0226,0,0,1,88.00049,188Z"/>
</svg>
