<svg id="Layer_1" data-name="Layer 1" xmlns="http://www.w3.org/2000/svg" viewBox="0 0 256 256">
  <rect width="256" height="256" fill="none"/>
  <path d="M227.30664,127.9971l18.34375-18.34375a7.99915,7.99915,0,0,0-11.3125-11.3125L215.99414,116.6846,197.65039,98.34085a7.99915,7.99915,0,0,0-11.3125,11.3125l18.34375,18.34375-18.34375,18.34375a7.99915,7.99915,0,1,0,11.3125,11.3125l18.34375-18.34375,18.34375,18.34375a7.99915,7.99915,0,0,0,11.3125-11.3125Z"/>
  <path d="M155.50977,24.80957a7.993,7.993,0,0,0-8.42188.875L80,77.85449V178.13965l67.08789,52.16992a7.99451,7.99451,0,0,0,12.90625-6.3125v-192A7.99374,7.99374,0,0,0,155.50977,24.80957Z"/>
  <path d="M64,79.99707H31.99414a16,16,0,0,0-16,16v64a16,16,0,0,0,16,16H64Z"/>
</svg>
