<svg id="Layer_1" data-name="Layer 1" xmlns="http://www.w3.org/2000/svg" viewBox="0 0 256 256">
  <g>
    <rect width="256" height="256" fill="none"/>
    <path d="M227.30664,127.9971l18.34375-18.34375a7.99915,7.99915,0,0,0-11.3125-11.3125L215.99414,116.6846,197.65039,98.34085a7.99915,7.99915,0,0,0-11.3125,11.3125l18.34375,18.34375-18.34375,18.34375a7.99915,7.99915,0,1,0,11.3125,11.3125l18.34375-18.34375,18.34375,18.34375a7.99915,7.99915,0,0,0,11.3125-11.3125Z"/>
    <g>
      <path d="M155.50977,24.80957a7.993,7.993,0,0,0-8.42188.875L83.089,75.45235A8,8,0,0,0,80,81.7676v92.45894a8,8,0,0,0,3.089,6.31525l63.99885,49.76778a7.99451,7.99451,0,0,0,12.90625-6.3125v-192A7.99374,7.99374,0,0,0,155.50977,24.80957Z"/>
      <path d="M56,79.99707H31.99414a16,16,0,0,0-16,16v64a16,16,0,0,0,16,16H56a8,8,0,0,0,8-8v-80A8,8,0,0,0,56,79.99707Z"/>
    </g>
  </g>
</svg>
