<svg id="Raw" xmlns="http://www.w3.org/2000/svg" viewBox="0 0 256 256">
  <rect width="256" height="256" fill="none"/>
  <line x1="103.99316" y1="16.01233" x2="151.99316" y2="16.01233" fill="none" stroke="#000" stroke-linecap="round" stroke-linejoin="round" stroke-width="12"/>
  <path d="M160,200.01233a32,32,0,1,1-64,0" fill="none" stroke="#000" stroke-linecap="round" stroke-linejoin="round" stroke-width="12"/>
  <line x1="48" y1="40" x2="208" y2="216" fill="none" stroke="#000" stroke-linecap="round" stroke-linejoin="round" stroke-width="12"/>
  <path d="M102.69057,52.58657a72.3519,72.3519,0,0,1,33.68276-4.10069c37.04922,4.17939,63.13044,37.73966,63.651,75.02023.2427,17.38182,2.28765,31.066,5.08962,41.74958" fill="none" stroke="#000" stroke-linecap="round" stroke-linejoin="round" stroke-width="12"/>
  <path d="M193.46575,200.01233H48.73648c-6.07846,0-10.104-6.55945-7.01987-11.79737C48.37277,176.91049,56,156.08647,56,120.01233A71.75316,71.75316,0,0,1,75.72662,70.49955" fill="none" stroke="#000" stroke-linecap="round" stroke-linejoin="round" stroke-width="12"/>
</svg>
