<svg id="Raw" xmlns="http://www.w3.org/2000/svg" viewBox="0 0 256 256">
  <rect width="256" height="256" fill="none"/>
  <path d="M53.91992,34.61816A8.0006,8.0006,0,1,0,42.08008,45.38184L58.93164,63.91846A79.70131,79.70131,0,0,0,48.20312,104v8c0,34.33594-7.0791,53.7207-13.0166,63.93555A15.99886,15.99886,0,0,0,48.9834,200H88a40,40,0,0,0,80,0h14.64209l19.438,21.38184a8.0006,8.0006,0,1,0,11.83984-10.76368ZM128,224a24.0275,24.0275,0,0,1-24-24h48A24.0275,24.0275,0,0,1,128,224ZM86.59473,46.77734a8.00066,8.00066,0,0,1,1.95215-12.32812A79.89269,79.89269,0,0,1,128.6084,24.002c43.66894.32422,79.19629,36.61719,79.19629,80.90235V112c0,21.85059,2.84179,40.14844,8.44531,54.38672a8.00047,8.00047,0,0,1-13.36426,8.31152Z"/>
</svg>
