<svg id="Layer_1" data-name="Layer 1" xmlns="http://www.w3.org/2000/svg" viewBox="0 0 256 256">
  <path d="M103.99316,24.0127h48a8,8,0,0,0,0-16h-48a8,8,0,0,0,0,16Z"/>
  <path d="M213.91992,210.61816l-160-176A8.0006,8.0006,0,1,0,42.08008,45.38184l22.967,25.26367A79.62074,79.62074,0,0,0,48,120.0127c0,34.51855-7.166,53.93359-13.17676,64.14355a15.50859,15.50859,0,0,0-.06933,15.73535,16.14452,16.14452,0,0,0,13.98242,8.1211h40.0686a40.004,40.004,0,0,0,78.39014,0h22.7312l12.15381,13.36914a8.0006,8.0006,0,1,0,11.83984-10.76368ZM128,224.0127a24.03825,24.03825,0,0,1-22.62378-16h45.24756A24.03825,24.03825,0,0,1,128,224.0127Z"/>
  <path d="M199.19434,170.63672a8.00016,8.00016,0,0,0,13.6582-7.41113c-2.99512-11.416-4.62012-24.81739-4.8291-39.83106-.59668-42.75488-31.01465-78.376-70.75391-82.85742a79.87907,79.87907,0,0,0-37.3916,4.56055,8.00028,8.00028,0,0,0-3.10742,12.87011Z"/>
</svg>
