<svg id="Raw" xmlns="http://www.w3.org/2000/svg" viewBox="0 0 256 256">
  <rect width="256" height="256" fill="none"/>
  <g opacity="0.2">
    <path d="M131.83232,84.4235a48.00729,48.00729,0,1,0-80.18846,50.93024l-.00154-.00232a44.09694,44.09694,0,0,1,38.66351-4.9735l-.00024-.00007A68.15692,68.15692,0,0,1,131.83113,84.4204Z"/>
  </g>
  <path d="M88,148a68,68,0,1,1,68,68H76a44,44,0,1,1,14.30583-85.62208" fill="none" stroke="#000" stroke-linecap="round" stroke-linejoin="round" stroke-width="16"/>
  <line x1="79.6638" y1="56.73022" x2="75.49625" y2="33.09483" fill="none" stroke="#000" stroke-linecap="round" stroke-linejoin="round" stroke-width="16"/>
  <line x1="48.68557" y1="76.45789" x2="29.02592" y2="62.69205" fill="none" stroke="#000" stroke-linecap="round" stroke-linejoin="round" stroke-width="16"/>
  <line x1="40.73022" y1="112.31237" x2="17.09483" y2="116.47993" fill="none" stroke="#000" stroke-linecap="round" stroke-linejoin="round" stroke-width="16"/>
  <line x1="115.51829" y1="64.68557" x2="129.28412" y2="45.02592" fill="none" stroke="#000" stroke-linecap="round" stroke-linejoin="round" stroke-width="16"/>
  <path d="M51.64386,135.35374A48.008,48.008,0,1,1,131.83232,84.4235" fill="none" stroke="#000" stroke-linecap="round" stroke-linejoin="round" stroke-width="16"/>
</svg>
