<svg id="Layer_1" data-name="Layer 1" xmlns="http://www.w3.org/2000/svg" viewBox="0 0 256 256">
  <path d="M238.668,98.38379A7.99984,7.99984,0,1,0,225.332,89.544C211.85156,109.88184,181.28223,144,128,144S44.14844,109.88184,30.668,89.544A7.99984,7.99984,0,1,0,17.332,98.38379,150.23125,150.23125,0,0,0,44.45288,129.21L24.96094,162.9707a7.99959,7.99959,0,1,0,13.85547,8l18.4851-32.01709a123.63787,123.63787,0,0,0,35.24976,16.271l-5.81494,32.98047a8.00124,8.00124,0,0,0,6.49023,9.26758,8.12,8.12,0,0,0,1.39844.12207,8.00272,8.00272,0,0,0,7.86914-6.61231l5.71851-32.43359a135.60568,135.60568,0,0,0,39.48486.01269l5.71948,32.43457a8.00278,8.00278,0,0,0,7.86914,6.61133,8.13106,8.13106,0,0,0,1.39942-.12207,8.00173,8.00173,0,0,0,6.48925-9.26855l-5.81372-32.96875a123.62836,123.62836,0,0,0,35.29371-16.26514l18.37744,31.82959a7.99959,7.99959,0,0,0,13.85547-8l-19.38111-33.56787A150.22112,150.22112,0,0,0,238.668,98.38379Z"/>
</svg>
