<svg id="Layer_1" data-name="Layer 1" xmlns="http://www.w3.org/2000/svg" viewBox="0 0 256 256">
  <rect width="256" height="256" fill="none"/>
  <g>
    <path d="M93.97949,58.68555a7.99976,7.99976,0,0,0-11.29443-.665l-72,64a8.00054,8.00054,0,0,0,0,11.959l72,64a8.00018,8.00018,0,0,0,10.62988-11.959L28.0415,128,93.31494,69.97949A8,8,0,0,0,93.97949,58.68555Z"/>
    <path d="M245.31494,122.02051l-72-64a8.00018,8.00018,0,0,0-10.62988,11.959L227.9585,128l-65.27344,58.02051a8.00018,8.00018,0,0,0,10.62988,11.959l72-64a8.00054,8.00054,0,0,0,0-11.959Z"/>
  </g>
</svg>
