<svg id="Layer_1" data-name="Layer 1" xmlns="http://www.w3.org/2000/svg" viewBox="0 0 256 256">
  <rect x="0.00488" width="256" height="256" fill="none"/>
  <rect width="256" height="256" fill="none"/>
  <path d="M160,39.99805a88.01077,88.01077,0,0,0-11.30957.81152c-1.02344.13281-2.03418.29883-3.0459.46582a87.047,87.047,0,0,0-8.8623,1.93262c-.69532.19043-1.40918.333-2.09766.541a87.1629,87.1629,0,0,0-10.09082,3.749c-.80371.35547-1.57617.76465-2.36719,1.14258q-3.85839,1.84423-7.502,4.042c-.81445.49121-1.64063.96484-2.4375,1.48242a88.58343,88.58343,0,0,0-8.53613,6.2334c-.41211.34375-.78418.73144-1.19043,1.082a88.95685,88.95685,0,0,0-6.583,6.333q-1.05909,1.12645-2.08106,2.28808a88.48612,88.48612,0,0,0-5.73535,7.2461c-.292.41308-.624.79687-.90918,1.21484A89.4815,89.4815,0,0,0,72,127.99805a8,8,0,0,1-16,0,103.347,103.347,0,0,1,7.7168-39.16211C32.36328,92.94824,8,119.54492,8,151.99805a64.06831,64.06831,0,0,0,64,64h88a88,88,0,0,0,0-176Zm15.59766,123.71777-33.937,33.937a7.95651,7.95651,0,0,1-.592.5354c-.08374.06885-.17224.12818-.258.19312-.12256.09253-.24317.18725-.3711.273-.10766.07177-.2196.134-.32983.20019-.11316.06812-.22412.13892-.34082.20142-.11524.06152-.23377.11377-.35132.16919-.11877.05639-.23584.11548-.35767.166-.1145.04737-.23169.08545-.34777.12744-.13.04688-.25843.09668-.39136.13672-.11694.0354-.23572.06128-.35376.09107-.1344.03393-.26721.07153-.40418.09863-.13891.02759-.27929.044-.41931.064-.11816.01684-.23437.03955-.35412.05127-.26245.02587-.52588.03979-.78931.03979s-.52686-.01392-.78931-.03979c-.11975-.01172-.236-.03443-.35412-.05127-.14-.02-.2804-.03638-.41931-.064-.137-.0271-.26978-.0647-.40418-.09863-.118-.02979-.23682-.05567-.35376-.09107-.13293-.04-.26135-.08984-.39136-.13672-.11608-.042-.23327-.08007-.34777-.12744-.12183-.05053-.2389-.10962-.35767-.166-.11755-.05542-.23608-.10767-.35132-.16919-.1167-.0625-.22766-.1333-.34082-.20142-.11023-.06616-.22217-.12842-.32983-.20019-.12793-.0857-.24854-.18042-.3711-.273-.08581-.06494-.17431-.12427-.258-.19312a7.95651,7.95651,0,0,1-.592-.5354l-33.937-33.937a7.99984,7.99984,0,1,1,11.31348-11.31348L128,172.68652V112a8,8,0,0,1,16,0v60.68652l20.28418-20.28418a7.99984,7.99984,0,1,1,11.31348,11.31348Z"/>
</svg>
