<svg id="Layer_1" data-name="Layer 1" xmlns="http://www.w3.org/2000/svg" viewBox="0 0 256 256">
  <rect x="71.99951" y="32" width="112" height="192" rx="24"/>
  <path d="M208.00244,80a8.00039,8.00039,0,0,0-8,8v80a8,8,0,0,0,16,0V88A8.00039,8.00039,0,0,0,208.00244,80Z"/>
  <path d="M240.00244,96a8.00039,8.00039,0,0,0-8,8v48a8,8,0,0,0,16,0V104A8.00039,8.00039,0,0,0,240.00244,96Z"/>
  <path d="M47.99951,80a8.00039,8.00039,0,0,0-8,8v80a8,8,0,0,0,16,0V88A8.00039,8.00039,0,0,0,47.99951,80Z"/>
  <path d="M15.99951,96a8.00039,8.00039,0,0,0-8,8v48a8,8,0,0,0,16,0V104A8.00039,8.00039,0,0,0,15.99951,96Z"/>
</svg>
