<svg id="Raw" xmlns="http://www.w3.org/2000/svg" viewBox="0 0 256 256">
  <rect width="256" height="256" fill="none"/>
  <g>
    <path d="M248,88.00781a7.9954,7.9954,0,0,0-8,8v64a8,8,0,0,0,16,0v-64A7.99541,7.99541,0,0,0,248,88.00781Z"/>
    <path d="M200,48.00781H48a24.02624,24.02624,0,0,0-24,24v112a24.02624,24.02624,0,0,0,24,24H200a24.02624,24.02624,0,0,0,24-24v-112A24.02625,24.02625,0,0,0,200,48.00781Zm8,136a8.01042,8.01042,0,0,1-8,8H48a8.01042,8.01042,0,0,1-8-8v-112a8.01042,8.01042,0,0,1,8-8H200a8.01042,8.01042,0,0,1,8,8Z"/>
    <rect x="56" y="80.00781" width="96" height="96" rx="8"/>
  </g>
</svg>
