<svg id="Raw" xmlns="http://www.w3.org/2000/svg" viewBox="0 0 256 256">
  <rect width="256" height="256" fill="none"/>
  <path d="M232,148a52.00505,52.00505,0,0,1-80.459,43.52539l10.6538,34.08789A7.99984,7.99984,0,0,1,154.55908,236H101.44092a7.99954,7.99954,0,0,1-7.63526-10.38672L104.45459,191.542a51.7046,51.7046,0,0,1-29.9624,8.43653c-27.72657-.78516-50.377-24.00489-50.4917-51.75977A51.99976,51.99976,0,0,1,76,96q2.02881,0,4.04883.15625a52.00294,52.00294,0,1,1,95.89648,0,53.33621,53.33621,0,0,1,5.46387-.1377A51.70261,51.70261,0,0,1,232,148Z"/>
</svg>
