<svg id="Layer_1" data-name="Layer 1" xmlns="http://www.w3.org/2000/svg" viewBox="0 0 256 256">
  <path d="M164.3418,116.61426a7.96217,7.96217,0,0,0,4.51025-1.39844L236.51758,68.918a8.00013,8.00013,0,0,0-9.03516-13.20508l-67.66553,46.29785a8.00081,8.00081,0,0,0,4.52491,14.60352Z"/>
  <path d="M236.51758,187.082,93.4939,89.22363a36.03965,36.03965,0,1,0-9.05054,13.19458l37.389,25.582-37.38867,25.582a35.84552,35.84552,0,1,0,9.05041,13.19458l42.50562-29.08326,91.48266,62.59351a8.00013,8.00013,0,1,0,9.03516-13.20508Z"/>
</svg>
