<svg id="Layer_1" data-name="Layer 1" xmlns="http://www.w3.org/2000/svg" viewBox="0 0 256 256">
  <g>
    <circle cx="99.92969" cy="84" r="12"/>
    <circle cx="155.92969" cy="84" r="12"/>
    <path d="M191.083,42.78369l14.21191-12.84961a7.99994,7.99994,0,1,0-10.73047-11.86816l-15.71,14.20361A87.835,87.835,0,0,0,77.00488,32.269l-15.71-14.20312A7.99994,7.99994,0,1,0,50.56445,29.93408l14.2124,12.84961A87.69717,87.69717,0,0,0,39.92969,104v48a88,88,0,0,0,176,0V104A87.69973,87.69973,0,0,0,191.083,42.78369ZM127.92969,32a72.08124,72.08124,0,0,1,72,72v8h-144v-8A72.08124,72.08124,0,0,1,127.92969,32Z"/>
  </g>
  <rect width="256" height="256" fill="none"/>
</svg>
