<svg id="Raw" xmlns="http://www.w3.org/2000/svg" viewBox="0 0 256 256">
  <rect width="256" height="256" fill="none"/>
  <path d="M237.65723,178.34277a8.00122,8.00122,0,0,1,0,11.31446l-24,24A8.00066,8.00066,0,0,1,200,208V191.98584a72.13911,72.13911,0,0,1-57.65332-30.13721L100.63379,103.4502A56.11029,56.11029,0,0,0,55.06445,80H32a8,8,0,0,1,0-16H55.06445a72.14126,72.14126,0,0,1,58.58887,30.15137l41.71289,58.39843A56.0996,56.0996,0,0,0,200,175.97168V160a8.00065,8.00065,0,0,1,13.65723-5.65723Zm-94.64356-71.36132a7.99621,7.99621,0,0,0,11.15918-1.86036l1.19336-1.67089A56.0996,56.0996,0,0,1,200,80.02832V96a8.00053,8.00053,0,0,0,13.65723,5.65723l24-24a8.00122,8.00122,0,0,0,0-11.31446l-24-24A8.00065,8.00065,0,0,0,200,48V64.01416a72.13911,72.13911,0,0,0-57.65332,30.13721l-1.19336,1.6709A7.9986,7.9986,0,0,0,143.01367,106.98145Zm-30.02734,42.0371a7.99642,7.99642,0,0,0-11.15918,1.86036l-1.19336,1.67089A56.11029,56.11029,0,0,1,55.06445,176H32a8,8,0,0,0,0,16H55.06445a72.14126,72.14126,0,0,0,58.58887-30.15137l1.19336-1.6709A7.9986,7.9986,0,0,0,112.98633,149.01855Z"/>
</svg>
