<svg id="Layer_1" data-name="Layer 1" xmlns="http://www.w3.org/2000/svg" viewBox="0 0 256 256">
  <rect width="256" height="256" fill="none"/>
  <g>
    <path d="M239.91406,182.89087c-.021-.15259-.03955-.30566-.06933-.457-.02491-.12525-.05957-.24634-.09034-.36939-.03271-.13037-.06152-.26123-.10058-.39013-.03662-.12061-.082-.23706-.124-.35523-.04542-.12866-.08838-.25781-.14063-.38428-.04492-.10791-.09766-.21118-.147-.31665-.06153-.13183-.12061-.26464-.18994-.39379-.05176-.09693-.11133-.18873-.167-.283-.07666-.13037-.15088-.26172-.23584-.38819-.0664-.09887-.14062-.19116-.21093-.28686-.084-.1145-.16407-.23072-.25537-.34156-.11622-.14111-.2417-.27368-.36719-.40649-.0542-.05762-.10205-.11914-.15869-.17554l-24-24a8.00053,8.00053,0,0,0-11.31446,11.31446L212.686,176H200.93555a56.11029,56.11029,0,0,1-45.56934-23.4502L113.65332,94.15137A72.14126,72.14126,0,0,0,55.06445,64H32a8,8,0,0,0,0,16H55.06445a56.11029,56.11029,0,0,1,45.56934,23.4502l41.71289,58.39843A72.14125,72.14125,0,0,0,200.93555,192H212.686l-10.34327,10.34277a8.00053,8.00053,0,0,0,11.31446,11.31446l24-24c.05664-.0564.10449-.11792.15869-.17554.12549-.13281.251-.26538.36719-.40649.0913-.11084.17138-.22706.25537-.34156.07031-.0957.14453-.188.21093-.28686.085-.12647.15918-.25782.23584-.38819.05567-.09423.11524-.186.167-.283.06933-.12915.12841-.262.18994-.39379.04931-.10547.10205-.20874.147-.31665.05225-.12647.09521-.25562.14063-.38428.042-.11817.0874-.23462.124-.35523.03906-.1289.06787-.25976.10058-.39013.03077-.12305.06543-.24414.09034-.36939.02978-.15137.04834-.30444.06933-.457.01465-.106.03516-.21.0459-.31714a8.02276,8.02276,0,0,0,0-1.584C239.94922,183.10083,239.92871,182.99683,239.91406,182.89087Z"/>
    <path d="M143.01367,106.98145a7.99621,7.99621,0,0,0,11.15918-1.86036l1.19336-1.67089A56.11029,56.11029,0,0,1,200.93555,80H212.686L202.34277,90.34277a8.00053,8.00053,0,0,0,11.31446,11.31446l24-24c.05664-.0564.10449-.11792.15869-.17554.12549-.13281.251-.26538.36719-.40649.0913-.11084.17138-.22706.25537-.34156.07031-.0957.14453-.188.21093-.28686.085-.12647.15918-.25782.23584-.38819.05567-.09423.11524-.186.167-.283.06933-.12915.12841-.262.18994-.39379.04931-.10547.10205-.20874.147-.31665.05225-.12647.09521-.25562.14063-.38428.042-.11817.0874-.23462.124-.35523.03906-.1289.06787-.25976.10058-.39013.03077-.12305.06543-.24414.09034-.36939.02978-.15137.04834-.30444.06933-.457.01465-.106.03516-.21.0459-.31714a8.02276,8.02276,0,0,0,0-1.584c-.01074-.10718-.03125-.21118-.0459-.31714-.021-.15259-.03955-.30566-.06933-.457-.02491-.12525-.05957-.24634-.09034-.36939-.03271-.13037-.06152-.26123-.10058-.39013-.03662-.12061-.082-.23706-.124-.35523-.04542-.12866-.08838-.25781-.14063-.38428-.04492-.10791-.09766-.21118-.147-.31665-.06153-.13183-.12061-.26464-.18994-.39379-.05176-.09693-.11133-.18873-.167-.283-.07666-.13037-.15088-.26172-.23584-.38819-.0664-.09887-.14062-.19116-.21093-.28686-.084-.1145-.16407-.23072-.25537-.34156-.11622-.14111-.2417-.27368-.36719-.40649-.0542-.05762-.10205-.11914-.15869-.17554l-24-24a8.00053,8.00053,0,0,0-11.31446,11.31446L212.686,64H200.93555a72.14125,72.14125,0,0,0-58.58887,30.15137l-1.19336,1.6709A7.9986,7.9986,0,0,0,143.01367,106.98145Z"/>
    <path d="M112.98633,149.01855a7.99642,7.99642,0,0,0-11.15918,1.86036l-1.19336,1.67089A56.11029,56.11029,0,0,1,55.06445,176H32a8,8,0,0,0,0,16H55.06445a72.14126,72.14126,0,0,0,58.58887-30.15137l1.19336-1.6709A7.9986,7.9986,0,0,0,112.98633,149.01855Z"/>
  </g>
</svg>
