<svg id="Raw" xmlns="http://www.w3.org/2000/svg" viewBox="0 0 256 256">
  <rect width="256" height="256" fill="none"/>
  <g opacity="0.2">
    <path d="M187.06231,203.68216l-10.731-10.75225a7.99991,7.99991,0,0,0-3.6318-2.08674l-21.45845-5.63128a8,8,0,0,1-5.884-8.90337l2.38477-16.19606a8,8,0,0,1,4.84416-6.22191l30.45054-12.65666a8,8,0,0,1,8.4696,1.48392l24.89413,22.76769.05166-.118a96.30537,96.30537,0,0,1-29.18668,38.157Z"/>
  </g>
  <g opacity="0.2">
    <path d="M49.58112,183.39494A96.011,96.011,0,0,1,182.678,49.08523l-.004.00566,1.16831,24.30344a8,8,0,0,1-1.94173,5.61949l-22.1571,25.60081a8,8,0,0,1-4.97544,2.69227l-31.48043,4.2633a8,8,0,0,1-5.76724-1.44922L97.86462,95.88032a8,8,0,0,0-11.43769,2.17521L66.58435,129.15314a8.0001,8.0001,0,0,0-1.25581,4.2583l-.2028,36.12908a8,8,0,0,1-3.86545,6.80393L49.58246,183.394Z"/>
  </g>
  <circle cx="127.99609" cy="128" r="96" fill="none" stroke="#000" stroke-linecap="round" stroke-linejoin="round" stroke-width="16"/>
  <path d="M49.58246,183.394l11.67783-7.04953a8,8,0,0,0,3.86545-6.80393l.2028-36.12908a8.0001,8.0001,0,0,1,1.25581-4.2583L86.42693,98.05553a8,8,0,0,1,11.43769-2.17521L117.52041,110.121a8,8,0,0,0,5.76724,1.44922l31.48043-4.2633a8,8,0,0,0,4.97544-2.69227l22.1571-25.60081a8,8,0,0,0,1.94173-5.61949L182.674,49.09089" fill="none" stroke="#000" stroke-linecap="round" stroke-linejoin="round" stroke-width="16"/>
  <path d="M187.063,203.68283l-10.73163-10.75292a7.99991,7.99991,0,0,0-3.6318-2.08674l-21.45845-5.63128a8,8,0,0,1-5.884-8.90337l2.38477-16.19606a8,8,0,0,1,4.84416-6.22191l30.45054-12.65666a8,8,0,0,1,8.4696,1.48392l24.89441,22.768" fill="none" stroke="#000" stroke-linecap="round" stroke-linejoin="round" stroke-width="16"/>
</svg>
