<svg id="Raw" xmlns="http://www.w3.org/2000/svg" viewBox="0 0 256 256">
  <rect width="256" height="256" fill="none"/>
  <path d="M223.773,168.53662a7.92728,7.92728,0,0,0,.44287-1.07471A103.91111,103.91111,0,0,0,187.89355,43.02539a8.05382,8.05382,0,0,0-1.38037-.958A103.94638,103.94638,0,0,0,42.62012,187.30957c.041.07275.07422.147.11718.21875a8.05384,8.05384,0,0,0,.80762,1.09082,103.86034,103.86034,0,0,0,152.56934,17.9082,7.99043,7.99043,0,0,0,.96631-.81152c.07568-.07568.14111-.15771.21338-.23535A104.48686,104.48686,0,0,0,223.773,168.53662ZM61.4834,185.55615l3.61133-2.18017a15.10574,15.10574,0,0,0,7.02148-15.53516L65.7168,132.43848,76.147,113.15332l15.69434-12.65723,6.30224,3.46582,1.248,3.4043a15.02456,15.02456,0,0,0,27.168,2.25391l4.21289-7.40918,13.54785,8.74218a15.02626,15.02626,0,0,0,22.85938-15.67968l19.15527-9.1416a15.04446,15.04446,0,0,0,8.43018-15.39356,87.89427,87.89427,0,0,1,18.17724,80.26953l-16.25049-14.47754a15.10505,15.10505,0,0,0-16.94482-2.10156l-23.86182,12.44922a15.06688,15.06688,0,0,0-7.9165,11.13379l-2.38037,16.168a15.02409,15.02409,0,0,0,14.86475,17.21386H171.4834l7.95019,7.96583A87.85432,87.85432,0,0,1,61.4834,185.55615Z"/>
</svg>
