<svg id="Layer_1" data-name="Layer 1" xmlns="http://www.w3.org/2000/svg" viewBox="0 0 256 256">
  <rect x="0.00049" width="255.99951" height="256" fill="none"/>
  <path d="M49.585,183.39491A96.011,96.011,0,0,1,182.68191,49.08523l-.004.00566,4.094,22.20695a7.0253,7.0253,0,0,1-3.88287,7.6139l-19.865,9.481a7.02529,7.02529,0,0,0-3.76539,8.13792v0a7.02531,7.02531,0,0,1-10.6005,7.70074l-14.41444-9.30136a7.0253,7.0253,0,0,0-9.91638,2.43085l-4.72184,8.30535a7.0253,7.0253,0,0,1-12.70317-1.05368l-1.37392-3.747a7.02526,7.02526,0,0,0-3.21026-3.73719l-7.194-3.95672a7.02531,7.02531,0,0,0-7.79577.6871L70.97215,107.04927a7.02534,7.02534,0,0,0-1.76935,2.12663L58.51743,128.93381a7.02532,7.02532,0,0,0-.73377,4.59159l6.45991,35.73807a7.02529,7.02529,0,0,1-3.28258,7.264L49.58637,183.394Z" opacity="0.2"/>
  <path d="M216.61374,164.992a96.23676,96.23676,0,0,1-25.18035,35.06655l-.00414-.0047-14.56838-14.59728a7.02532,7.02532,0,0,0-4.97256-2.06259H160.45318a7.0253,7.0253,0,0,1-6.95036-8.0487l2.38076-16.16881a7.02529,7.02529,0,0,1,3.70069-5.20513l23.863-12.45024a7.02529,7.02529,0,0,1,7.92292.983L216.61,164.99034Z" opacity="0.2"/>
  <circle cx="128" cy="128" r="96" fill="none" stroke="#000" stroke-miterlimit="10" stroke-width="16"/>
  <path d="M49.58637,183.394l11.37462-6.8665a7.02529,7.02529,0,0,0,3.28258-7.264L57.78366,133.5254a7.02532,7.02532,0,0,1,.73377-4.59159L69.2028,109.1759a7.02534,7.02534,0,0,1,1.76935-2.12663L87.32841,93.85874a7.02531,7.02531,0,0,1,7.79577-.6871l7.194,3.95672a7.02526,7.02526,0,0,1,3.21026,3.73719l1.37392,3.747a7.0253,7.0253,0,0,0,12.70317,1.05368l4.72184-8.30535a7.0253,7.0253,0,0,1,9.91638-2.43085l14.41444,9.30136a7.02531,7.02531,0,0,0,10.6005-7.70074v0a7.02529,7.02529,0,0,1,3.76539-8.13792l19.865-9.481a7.0253,7.0253,0,0,0,3.88287-7.6139l-4.094-22.20695" fill="none" stroke="#000" stroke-linecap="round" stroke-linejoin="round" stroke-width="16"/>
  <path d="M191.42925,200.05385l-14.56838-14.59728a7.02532,7.02532,0,0,0-4.97256-2.06259H160.45318a7.0253,7.0253,0,0,1-6.95036-8.0487l2.38076-16.16881a7.02529,7.02529,0,0,1,3.70069-5.20513l23.863-12.45024a7.02529,7.02529,0,0,1,7.92292.983L216.61,164.99034" fill="none" stroke="#000" stroke-linecap="round" stroke-linejoin="round" stroke-width="16"/>
</svg>
