<svg id="Raw" xmlns="http://www.w3.org/2000/svg" viewBox="0 0 256 256">
  <rect width="256" height="256" fill="none"/>
  <circle cx="127.99707" cy="128" r="96" fill="none" stroke="#000" stroke-linecap="round" stroke-linejoin="round" stroke-width="24"/>
  <path d="M49.58344,183.394l12.0855-7.29563a8,8,0,0,0,3.82681-6.06228l3.65864-37.03127a8,8,0,0,1,1.21718-3.51665l19.71585-30.899a8,8,0,0,1,11.88909-1.82285l15.42768,12.95708a8,8,0,0,0,6.21864,1.80156l31.14623-4.218a8,8,0,0,0,4.97543-2.69227L181.9016,79.01382a8,8,0,0,0,1.94172-5.61949L182.675,49.09089" fill="none" stroke="#000" stroke-linecap="round" stroke-linejoin="round" stroke-width="24"/>
  <path d="M187.064,203.68283l-10.73163-10.75292a8,8,0,0,0-3.6318-2.08674l-21.45845-5.63128a8,8,0,0,1-5.884-8.90337l2.38477-16.19606a8,8,0,0,1,4.84416-6.22191l30.45053-12.65666a8,8,0,0,1,8.46961,1.48392l24.8944,22.768" fill="none" stroke="#000" stroke-linecap="round" stroke-linejoin="round" stroke-width="24"/>
</svg>
