<svg id="Raw" xmlns="http://www.w3.org/2000/svg" viewBox="0 0 256 256">
  <rect width="256" height="256" fill="none"/>
  <circle cx="127.99805" cy="128" r="96" fill="none" stroke="#000" stroke-linecap="round" stroke-linejoin="round" stroke-width="12"/>
  <path d="M49.58442,183.394l11.67782-7.04953a8,8,0,0,0,3.86545-6.80393l.20281-36.12908a7.99993,7.99993,0,0,1,1.25581-4.2583L86.42888,98.05553a8,8,0,0,1,11.43769-2.17521L117.52236,110.121a8,8,0,0,0,5.76724,1.44922L154.77,107.3069a8,8,0,0,0,4.97543-2.69227l22.15711-25.60081a8.00006,8.00006,0,0,0,1.94172-5.61949L182.676,49.09089" fill="none" stroke="#000" stroke-linecap="round" stroke-linejoin="round" stroke-width="12"/>
  <path d="M187.06492,203.68283,176.3333,192.92991a8,8,0,0,0-3.6318-2.08674L151.243,185.21189a8,8,0,0,1-5.884-8.90337l2.38476-16.19606a8,8,0,0,1,4.84416-6.22191l30.45054-12.65666a8,8,0,0,1,8.4696,1.48392l24.89441,22.768" fill="none" stroke="#000" stroke-linecap="round" stroke-linejoin="round" stroke-width="12"/>
</svg>
