<svg id="Raw" xmlns="http://www.w3.org/2000/svg" viewBox="0 0 256 256">
  <rect width="256" height="256" fill="none"/>
  <path d="M148,112a20,20,0,1,1-20-20A20.02229,20.02229,0,0,1,148,112Zm76-64V208a16.01833,16.01833,0,0,1-16,16H48a16.01833,16.01833,0,0,1-16-16V48A16.01833,16.01833,0,0,1,48,32H208A16.01833,16.01833,0,0,1,224,48Zm-60,64a36,36,0,1,0-36,36q.91626,0,1.82129-.04614l-16.68945,27.9436a8.00015,8.00015,0,1,0,13.73632,8.20508l32.249-53.99512c.09668-.16162.178-.32812.262-.49341A35.76746,35.76746,0,0,0,164,112Z"/>
</svg>
