<svg id="Raw" xmlns="http://www.w3.org/2000/svg" viewBox="0 0 256 256">
  <rect width="256" height="256" fill="none"/>
  <path d="M256,160a48,48,0,1,1-78.74414-36.82715l23.834,40.85791a7.99983,7.99983,0,1,0,13.82032-8.06152l-23.84375-40.87549A47.983,47.983,0,0,1,256,160ZM47.99316,168.00049a8.00038,8.00038,0,0,1-6.457-12.71387l27.875-38.22827a48.13563,48.13563,0,1,0,12.918,9.43994L54.46387,164.71338A7.98855,7.98855,0,0,1,47.99316,168.00049ZM165.92871,72H192a8.00917,8.00917,0,0,1,8,8,8,8,0,0,0,16,0,24.02718,24.02718,0,0,0-24-24H152a7.99957,7.99957,0,0,0-6.91016,12.03076L156.73853,88H99.26147L82.91016,59.96924A7.999,7.999,0,0,0,76,56H48a8,8,0,0,0,0,16H71.40527L85.12134,95.51318,69.41113,117.05835a48.23239,48.23239,0,0,1,12.918,9.43994l11.59278-15.89844,31.168,53.43091a7.99983,7.99983,0,1,0,13.82032-8.06152L108.59473,104h57.477l11.18408,19.17285a48.02278,48.02278,0,0,1,13.81055-8.0791Z"/>
</svg>
