<svg id="Layer_1" data-name="Layer 1" xmlns="http://www.w3.org/2000/svg" viewBox="0 0 256 256">
  <g>
    <path d="M244.01562,73.08105a8.001,8.001,0,0,0-7.98437-.02734L192,98.21436V92a40.04584,40.04584,0,0,0-40-40H110.88281a7.99931,7.99931,0,0,0-6.03418,13.25195l73.11719,84c.07324.084.155.15772.2312.23828.085.08985.1687.17969.25781.26563.16919.16309.34644.31445.52735.46094.06958.05615.13452.11621.20581.16992a7.96909,7.96909,0,0,0,.814.54c.01026.00586.019.01367.0293.01953l56,32A8.0003,8.0003,0,0,0,248,176V80A7.99807,7.99807,0,0,0,244.01562,73.08105Z"/>
    <path d="M40.8291,18.61816A8.0006,8.0006,0,0,0,28.98926,29.38184L49.55127,52H24A16.01833,16.01833,0,0,0,8,68v96a40.04584,40.04584,0,0,0,40,40H176a15.89763,15.89763,0,0,0,9.12158-2.87256l32.9585,36.2544a8.0006,8.0006,0,1,0,11.83984-10.76368Z"/>
  </g>
</svg>
