<svg id="Layer_1" data-name="Layer 1" xmlns="http://www.w3.org/2000/svg" viewBox="0 0 256 256">
  <path d="M244.01562,73.08105a8.001,8.001,0,0,0-7.98437-.02734L192,98.21436V88a40.04584,40.04584,0,0,0-40-40H105.792A7.9999,7.9999,0,0,0,99.8125,61.31445l78.208,88c.06274.07032.13281.13184.19751.19971.08325.0874.16723.17334.25464.25732.16357.15625.33325.30274.50732.44336.07666.06153.14941.12647.22827.18555a8.04435,8.04435,0,0,0,.81226.53906l.01074.00684,56,32A8.0003,8.0003,0,0,0,248,176V80A7.99807,7.99807,0,0,0,244.01562,73.08105Z"/>
  <path d="M39.374,18.61816A8.0006,8.0006,0,0,0,27.53418,29.38184L44.46,48H24A16.01833,16.01833,0,0,0,8,64V168a40.04584,40.04584,0,0,0,40,40H189.915L216.626,237.38184a8.0006,8.0006,0,0,0,11.83984-10.76368Z"/>
</svg>
