<svg id="Raw" xmlns="http://www.w3.org/2000/svg" viewBox="0 0 256 256">
  <rect width="256" height="256" fill="none"/>
  <path d="M229.91992,226.61816a8.0006,8.0006,0,0,1-11.83984,10.76368l-42.34229-46.57618A16.01483,16.01483,0,0,1,160,204H48A40.04584,40.04584,0,0,1,8,164V68A16.01833,16.01833,0,0,1,24,52H49.55127l-20.562-22.61816A8.0006,8.0006,0,0,1,40.8291,18.61816Zm14.0957-153.53711a8.00341,8.00341,0,0,0-7.98437-.02734l-40,22.85742A8,8,0,0,0,192,102.85742v50.28516a8,8,0,0,0,4.03125,6.94629l40,22.85742A8.0003,8.0003,0,0,0,248,176V80A7.99807,7.99807,0,0,0,244.01562,73.08105Zm-81.93554,55.12989A8.0004,8.0004,0,0,0,176,122.8291V92a40.04584,40.04584,0,0,0-40-40H110.88281a8.00036,8.00036,0,0,0-5.91992,13.38184Z"/>
</svg>
