<svg id="Layer_1" data-name="Layer 1" xmlns="http://www.w3.org/2000/svg" viewBox="0 0 256 256">
  <path d="M24,168V72A16.01833,16.01833,0,0,0,8,88v80a16.01833,16.01833,0,0,0,16,16Z"/>
  <path d="M232,72V184a16.01833,16.01833,0,0,0,16-16V88A16.01833,16.01833,0,0,0,232,72Z"/>
  <path d="M216,184V64a16.01833,16.01833,0,0,0-16-16H176a16.01833,16.01833,0,0,0-16,16v56H96V64A16.01833,16.01833,0,0,0,80,48H56A16.01833,16.01833,0,0,0,40,64V192a16.01833,16.01833,0,0,0,16,16H80a16.01833,16.01833,0,0,0,16-16V136h64v56a16.01833,16.01833,0,0,0,16,16h24a16.01833,16.01833,0,0,0,16-16Z"/>
</svg>
