<svg id="Raw" xmlns="http://www.w3.org/2000/svg" viewBox="0 0 256 256">
  <rect width="256" height="256" fill="none"/>
  <path d="M232,72H216V64a16.01833,16.01833,0,0,0-16-16H176a16.01833,16.01833,0,0,0-16,16v56H96V64A16.01833,16.01833,0,0,0,80,48H56A16.01833,16.01833,0,0,0,40,64v8H24A16.01833,16.01833,0,0,0,8,88v80a16.01833,16.01833,0,0,0,16,16H40v8a16.01833,16.01833,0,0,0,16,16H80a16.01833,16.01833,0,0,0,16-16V136h64v56a16.01833,16.01833,0,0,0,16,16h24a16.01833,16.01833,0,0,0,16-16v-8h16a16.01833,16.01833,0,0,0,16-16V88A16.01833,16.01833,0,0,0,232,72ZM24,168V88H40v80Zm208,0H216V88h16Z"/>
</svg>
