<svg id="Raw" xmlns="http://www.w3.org/2000/svg" viewBox="0 0 256 256">
  <rect width="256" height="256" fill="none"/>
  <path d="M207.99414,31.99707h-24v-8a8,8,0,0,0-16,0v8h-80v-8a8,8,0,1,0-16,0v8h-24a16.01583,16.01583,0,0,0-16,16v160a16.01583,16.01583,0,0,0,16,16h160a16.01582,16.01582,0,0,0,16-16v-160A16.01582,16.01582,0,0,0,207.99414,31.99707ZM169.48242,133.81543l-46.6665,44a7.99905,7.99905,0,0,1-10.98975-.0127l-25.33349-24a8,8,0,1,1,11.0039-11.61523l19.84424,18.7998,41.166-38.8125a7.99949,7.99949,0,1,1,10.97558,11.64063Zm38.51172-53.81836h-160v-32h24v8a8,8,0,0,0,16,0v-8h80v8a8,8,0,1,0,16,0v-8h24Z"/>
</svg>
