<svg id="Layer_1" data-name="Layer 1" xmlns="http://www.w3.org/2000/svg" viewBox="0 0 256 256">
  <rect width="256" height="256" fill="none"/>
  <path d="M215.99512,71.99805h-84.6875l-27.3125-27.3125a15.8907,15.8907,0,0,0-11.3125-4.6875H39.99512a16.01581,16.01581,0,0,0-16,16V200.61523a15.404,15.404,0,0,0,15.39062,15.38282h177.5a15.13062,15.13062,0,0,0,15.10938-15.10938V87.99805A16.01582,16.01582,0,0,0,215.99512,71.99805Zm-176-16h52.6875l16,16H39.99512Zm112,96.00195h-16v16a8,8,0,1,1-16,0V152h-16a8,8,0,1,1,0-16h16V120a8,8,0,1,1,16,0v16h16a8,8,0,0,1,0,16Z"/>
</svg>
