<svg id="Layer_1" data-name="Layer 1" xmlns="http://www.w3.org/2000/svg" viewBox="0 0 256 256">
  <rect x="-0.00098" width="256" height="256" fill="none"/>
  <path d="M219.999,175.33228V80.66772a8,8,0,0,0-4.06354-6.9645l-84-47.47826a8,8,0,0,0-7.87291,0l-84,47.47826a8,8,0,0,0-4.06355,6.9645v94.66456a8,8,0,0,0,4.06355,6.96451l84,47.47826a8,8,0,0,0,7.87291,0l84-47.47826A8,8,0,0,0,219.999,175.33228Z" fill="none" stroke="#000" stroke-linecap="round" stroke-linejoin="round" stroke-width="12"/>
  <circle cx="127.99902" cy="128" r="36" fill="none" stroke="#000" stroke-linecap="round" stroke-linejoin="round" stroke-width="12"/>
</svg>
