<svg id="Layer_1" data-name="Layer 1" xmlns="http://www.w3.org/2000/svg" viewBox="0 0 256 256">
  <rect width="256" height="256" fill="none"/>
  <g>
    <path d="M176,64h48a8,8,0,0,0,0-16H176a8,8,0,0,0,0,16Z"/>
    <path d="M231.93652,211.98633a120.48718,120.48718,0,0,0-67.12-54.14258A71.86434,71.86434,0,0,0,198.18579,80H176a23.99523,23.99523,0,0,1-10.62024-45.51459A71.97718,71.97718,0,1,0,91.18359,157.84375a120.48811,120.48811,0,0,0-67.11865,54.14063,7.99981,7.99981,0,0,0,6.92432,12.00634l194.023.002a7.99957,7.99957,0,0,0,6.92431-12.00635Z"/>
  </g>
</svg>
