<svg id="Raw" xmlns="http://www.w3.org/2000/svg" viewBox="0 0 256 256">
  <rect width="256" height="256" fill="none"/>
  <path d="M207.80469,112A79.70738,79.70738,0,0,0,128.6084,32.002c-.2041-.001-.40625-.002-.61035-.002a79.89888,79.89888,0,0,0-79.79492,80c0,34.33594-7.07911,53.7207-13.01661,63.93555A15.99886,15.99886,0,0,0,48.9834,200H88a40,40,0,0,0,80,0h39.0166a15.99808,15.99808,0,0,0,13.79785-24.06055C214.87988,165.72363,207.80469,146.33789,207.80469,112ZM128,224a24.0275,24.0275,0,0,1-24-24h48A24.0275,24.0275,0,0,1,128,224ZM224.88574,73.28027a7.995,7.995,0,0,1-10.71191-3.6416,96.29849,96.29849,0,0,0-35.01074-38.88574,7.9996,7.9996,0,1,1,8.54-13.5293,112.28362,112.28362,0,0,1,40.82421,45.34473A8,8,0,0,1,224.88574,73.28027Zm-190.24219.8252a8.00344,8.00344,0,0,1-7.17089-11.53711A112.28357,112.28357,0,0,1,68.29688,17.22363a7.99959,7.99959,0,1,1,8.54,13.5293A96.29849,96.29849,0,0,0,41.82617,69.63867,8.002,8.002,0,0,1,34.64355,74.10547Z"/>
</svg>
