<svg id="Raw" xmlns="http://www.w3.org/2000/svg" viewBox="0 0 256 256">
  <rect width="256" height="256" fill="none" opacity="0.1"/>
  <path d="M80,56V48A16.01833,16.01833,0,0,1,96,32h8a8,8,0,0,1,0,16H96v8a8,8,0,0,1-16,0Zm64-8h16a8,8,0,0,0,0-16H144a8,8,0,0,0,0,16Zm64-16h-8a8,8,0,0,0,0,16h8v8a8,8,0,0,0,16,0V48A16.01833,16.01833,0,0,0,208,32Zm8,56a8.00008,8.00008,0,0,0-8,8v16a8,8,0,0,0,16,0V96A8.00008,8.00008,0,0,0,216,88Zm-40.001,7.99414v112a16.01833,16.01833,0,0,1-16,16h-112a16.01833,16.01833,0,0,1-16-16v-112a16.01833,16.01833,0,0,1,16-16h112A16.01833,16.01833,0,0,1,175.999,95.99414Zm-16,0h-112v112h112ZM216,144a8.00008,8.00008,0,0,0-8,8v8h-8a8,8,0,0,0,0,16h8a16.01833,16.01833,0,0,0,16-16v-8A8.00008,8.00008,0,0,0,216,144Z"/>
</svg>
