<svg id="Layer_1" data-name="Layer 1" xmlns="http://www.w3.org/2000/svg" viewBox="0 0 256 256">
  <rect y="-0.02344" width="256" height="256" fill="none"/>
  <g>
    <path d="M53.91943,34.61475A7.99991,7.99991,0,1,0,42.08057,45.37744l39.24072,43.1648-39.16992,41.968a8.00053,8.00053,0,0,0,3.03955,12.94922l57.63037,21.61133-14.666,73.3291a7.99991,7.99991,0,0,0,13.69336,7.02735l61.85083-66.26892,38.38111,42.21911a7.99991,7.99991,0,1,0,11.83886-10.76269Z"/>
    <path d="M179.76562,149.25928a8.00013,8.00013,0,0,0,5.86719,2.61865h.05225a8.00073,8.00073,0,0,0,5.84863-2.5415l22.31494-23.90918a7.99994,7.99994,0,0,0-3.03955-12.94922L153.17871,90.8667l14.666-73.3291a8.00018,8.00018,0,0,0-13.69336-7.02735l-45.894,49.17237a8.00006,8.00006,0,0,0-.0708,10.83984Z"/>
  </g>
</svg>
