<svg id="Raw" xmlns="http://www.w3.org/2000/svg" viewBox="0 0 256 256">
  <rect width="256" height="256" fill="none"/>
  <path d="M223.96008,39.20947c-.01111-.11377-.03271-.22412-.04858-.33642-.02063-.146-.038-.29248-.06677-.4375-.02588-.13086-.06214-.2583-.09449-.38721-.03112-.124-.05835-.24854-.09545-.37158-.03846-.12647-.08594-.24854-.13038-.37256-.04394-.12256-.08435-.24609-.13427-.3667-.04785-.11523-.104-.22559-.157-.33838-.05835-.124-.11364-.249-.17871-.3706-.05774-.10791-.12353-.21-.186-.315-.07105-.11914-.13867-.24023-.21655-.35644-.07593-.11328-.16065-.22022-.242-.3291-.0747-.1001-.14429-.20264-.22436-.3003-.1521-.185-.31372-.36181-.48169-.53271-.0166-.01709-.0304-.03564-.04712-.05225-.01929-.01953-.04077-.03515-.0603-.05468-.16846-.165-.34253-.32422-.525-.47413-.09424-.07763-.19372-.145-.29053-.21728-.1123-.084-.22229-.1709-.339-.249-.11242-.0752-.229-.14063-.34423-.20948-.10913-.06494-.21582-.1333-.32813-.19384-.115-.06153-.23328-.11329-.35058-.16895-.11963-.05664-.23755-.11621-.36036-.167-.11071-.0459-.22387-.08252-.33618-.12305-.13415-.04883-.267-.09961-.40429-.1416-.1084-.03223-.21851-.05615-.32789-.084-.14331-.03663-.28515-.07666-.43151-.10547-.12085-.02393-.2428-.03711-.36451-.05567-.13659-.02051-.27136-.04541-.41-.05908-.2019-.01953-.40442-.02588-.60693-.03076C216.11768,32.00781,216.05981,32,216,32H168a8,8,0,0,0,0,16h28.686L168,76.686,149.65674,58.34277a8.00018,8.00018,0,0,0-11.31348,11.31446L156.686,88l-15.75293,15.75293a71.99442,71.99442,0,1,0,11.31567,11.3125L168,99.314l18.34326,18.34327a8.00018,8.00018,0,0,0,11.31348-11.31446L179.314,88,208,59.314V88a8,8,0,0,0,16,0V40.00244C224,39.73779,223.98608,39.47314,223.96008,39.20947ZM135.59814,199.59766A55.99961,55.99961,0,1,1,152,160,56.06457,56.06457,0,0,1,135.59814,199.59766Z"/>
</svg>
