<svg id="Layer_1" data-name="Layer 1" xmlns="http://www.w3.org/2000/svg" viewBox="0 0 256 256">
  <rect width="256" height="256" fill="none"/>
  <path d="M244.01562,73.08105a8.001,8.001,0,0,0-7.98437-.02734L192,98.21436V92a40.04584,40.04584,0,0,0-40-40H24A16.01833,16.01833,0,0,0,8,68v96a40.04584,40.04584,0,0,0,40,40H176a16.01833,16.01833,0,0,0,16-16V157.78564l44.03125,25.16065A8.0003,8.0003,0,0,0,248,176V80A7.99807,7.99807,0,0,0,244.01562,73.08105ZM232,162.21484,192,139.3573V116.6427l40-22.85754Z"/>
</svg>
