<svg id="Raw" xmlns="http://www.w3.org/2000/svg" viewBox="0 0 256 256">
  <rect width="256" height="256" fill="none"/>
  <path d="M224,216a8.00039,8.00039,0,0,1-8,8,32.03667,32.03667,0,0,1-32-32v-8a16.01833,16.01833,0,0,0-16-16H156v40a16.01833,16.01833,0,0,0,16,16,8,8,0,0,1,0,16,32.03667,32.03667,0,0,1-32-32V168H116v40a32.03667,32.03667,0,0,1-32,32,8,8,0,0,1,0-16,16.01833,16.01833,0,0,0,16-16V168H88a16.01833,16.01833,0,0,0-16,16v8a32.03667,32.03667,0,0,1-32,32,8,8,0,0,1,0-16,16.01833,16.01833,0,0,0,16-16v-8a31.9949,31.9949,0,0,1,14.78076-26.95068A55.951,55.951,0,0,1,48,112v-8a55.67143,55.67143,0,0,1,7.68945-28.33789A59.73846,59.73846,0,0,1,61.07178,28,7.99908,7.99908,0,0,1,68,24a59.74863,59.74863,0,0,1,48.00684,23.999L139.99316,48A59.7461,59.7461,0,0,1,188,24a7.99908,7.99908,0,0,1,6.92822,4,59.73846,59.73846,0,0,1,5.38233,47.66211A55.67143,55.67143,0,0,1,208,104v8a55.951,55.951,0,0,1-22.78076,45.04932A31.9949,31.9949,0,0,1,200,184v8a16.01833,16.01833,0,0,0,16,16A8.00039,8.00039,0,0,1,224,216Z"/>
</svg>
