<svg id="Raw" xmlns="http://www.w3.org/2000/svg" viewBox="0 0 256 256">
  <rect width="256" height="256" fill="none"/>
  <path d="M84,240a24,24,0,0,0,24-24V168" fill="none" stroke="#000" stroke-linecap="round" stroke-linejoin="round" stroke-width="16"/>
  <path d="M172,240a24,24,0,0,1-24-24V168" fill="none" stroke="#000" stroke-linecap="round" stroke-linejoin="round" stroke-width="16"/>
  <path d="M152,168h16a24,24,0,0,1,24,24v8a24,24,0,0,0,24,24" fill="none" stroke="#000" stroke-linecap="round" stroke-linejoin="round" stroke-width="16"/>
  <path d="M104,168H88a24,24,0,0,0-24,24v8a24,24,0,0,1-24,24" fill="none" stroke="#000" stroke-linecap="round" stroke-linejoin="round" stroke-width="16"/>
  <path d="M111.825,63.99934A51.9599,51.9599,0,0,0,68,40a51.90058,51.90058,0,0,0-3.48841,44.7036A49.25789,49.25789,0,0,0,56,112v8a48,48,0,0,0,48,48h48a48,48,0,0,0,48-48v-8a49.25769,49.25769,0,0,0-8.5116-27.29639A51.90061,51.90061,0,0,0,188,40a51.95992,51.95992,0,0,0-43.82535,23.99983Z" fill="none" stroke="#000" stroke-linecap="round" stroke-linejoin="round" stroke-width="16"/>
</svg>
