<svg id="Raw" xmlns="http://www.w3.org/2000/svg" viewBox="0 0 256 256">
  <rect width="256" height="256" fill="none"/>
  <path d="M168,224a8.00008,8.00008,0,0,1-8,8H104a8,8,0,0,1,0-16h56A8.00008,8.00008,0,0,1,168,224Zm-40-32a8.00008,8.00008,0,0,0-8-8H72a8,8,0,0,0,0,16h48A8.00008,8.00008,0,0,0,128,192Zm56-8H160a8,8,0,0,0,0,16h24a8,8,0,0,0,0-16ZM156,16A76.13113,76.13113,0,0,0,85.03711,64.7832l-.00537-.001A76.1764,76.1764,0,0,0,80,92a8,8,0,0,1-16,0,92.24056,92.24056,0,0,1,4.17639-27.41064A52.00137,52.00137,0,0,0,76,168h80a76,76,0,0,0,0-152Z"/>
</svg>
