<svg id="Raw" xmlns="http://www.w3.org/2000/svg" viewBox="0 0 256 256">
  <rect width="256" height="256" fill="none"/>
  <path d="M192,120h26.66667a8,8,0,0,0,7.38461-4.92308l15.32021-36.76848a8,8,0,0,0-3.19184-9.89019L192,40" fill="none" stroke="#000" stroke-linecap="round" stroke-linejoin="round" stroke-width="24"/>
  <path d="M64,120H37.33333a8,8,0,0,1-7.38461-4.92308L14.62851,78.30844a8,8,0,0,1,3.19184-9.89019L64,40" fill="none" stroke="#000" stroke-linecap="round" stroke-linejoin="round" stroke-width="24"/>
  <path d="M160,40a32,32,0,0,1-64,0H64V208a8,8,0,0,0,8,8H184a8,8,0,0,0,8-8V40Z" fill="none" stroke="#000" stroke-linecap="round" stroke-linejoin="round" stroke-width="24"/>
</svg>
