<svg id="Layer_1" data-name="Layer 1" xmlns="http://www.w3.org/2000/svg" viewBox="0 0 256 256">
  <circle cx="162" cy="128" r="34" opacity="0.2"/>
  <path d="M128,94V26.00089H94a34,34,0,0,0,0,68Z" opacity="0.2"/>
  <path d="M128,161.99911V94H94a34,34,0,0,0,0,68Z" opacity="0.2"/>
  <path d="M128,94V26.00089h34a34,34,0,0,1,0,68Z" opacity="0.2"/>
  <path d="M128,161.99911v34.00044A34,34,0,1,1,94,162Z" opacity="0.2"/>
  <circle cx="162" cy="128" r="34" fill="none" stroke="#000" stroke-linecap="round" stroke-linejoin="round" stroke-width="16"/>
  <path d="M128,94V26.00089H94a34,34,0,0,0,0,68Z" fill="none" stroke="#000" stroke-linecap="round" stroke-linejoin="round" stroke-width="16"/>
  <path d="M128,161.99911V94H94a34,34,0,0,0,0,68Z" fill="none" stroke="#000" stroke-linecap="round" stroke-linejoin="round" stroke-width="16"/>
  <path d="M128,94V26.00089h34a34,34,0,0,1,0,68Z" fill="none" stroke="#000" stroke-linecap="round" stroke-linejoin="round" stroke-width="16"/>
  <path d="M128,161.99911v34.00044A34,34,0,1,1,94,162Z" fill="none" stroke="#000" stroke-linecap="round" stroke-linejoin="round" stroke-width="16"/>
</svg>
