<svg id="Layer_1" data-name="Layer 1" xmlns="http://www.w3.org/2000/svg" viewBox="0 0 256 256">
  <path d="M186.61523,94.00049A41.97934,41.97934,0,0,0,162,18.001H94A41.97934,41.97934,0,0,0,69.38477,94.00049a41.93894,41.93894,0,0,0,.00048,67.99939A41.9892,41.9892,0,1,0,136,195.99951V160.948a41.97356,41.97356,0,1,0,50.61523-66.94751ZM188,60.001a26.02916,26.02916,0,0,1-25.98047,25.99951L162,86l-.03857.001L136,86V34.001h26A26.02947,26.02947,0,0,1,188,60.001ZM162,154a25.99952,25.99952,0,0,1-.03857-51.999H162l.019-.00049A25.99976,25.99976,0,0,1,162,154Z"/>
</svg>
