<svg id="Raw" xmlns="http://www.w3.org/2000/svg" viewBox="0 0 256 256">
  <rect width="256" height="256" fill="none"/>
  <path d="M79.833,107.71582h-48a8.00008,8.00008,0,0,1-8-8v-48a8.00009,8.00009,0,0,1,13.65722-5.65674L55.833,64.40186l4.28418-4.28418a96.10959,96.10959,0,0,1,135.76562,0,8.00018,8.00018,0,1,1-11.31445,11.31347,80.09125,80.09125,0,0,0-113.13672,0L67.147,75.71582,85.49023,94.05908A8.00037,8.00037,0,0,1,79.833,107.71582Zm144.334,40.56836h-48a8.00037,8.00037,0,0,0-5.65722,13.65674L188.853,180.28418l-4.28467,4.28467a80.09125,80.09125,0,0,1-113.13672,0,8.00018,8.00018,0,0,0-11.31445,11.31347,96.11017,96.11017,0,0,0,135.76562,0l4.28418-4.28418,18.34278,18.34278a8.00009,8.00009,0,0,0,13.65722-5.65674v-48A8.00008,8.00008,0,0,0,224.167,148.28418Z"/>
</svg>
