<svg id="Layer_1" data-name="Layer 1" xmlns="http://www.w3.org/2000/svg" viewBox="0 0 256 256">
  <rect x="0.00049" width="255.99951" height="256" fill="none"/>
  <g>
    <circle cx="155.99951" cy="100" r="12"/>
    <path d="M216.00049,40.00012h-176a16.01833,16.01833,0,0,0-16,16V199.99963a16.01833,16.01833,0,0,0,16,16h176a16.01833,16.01833,0,0,0,16-16V56.00012A16.01834,16.01834,0,0,0,216.00049,40.00012Zm-34.34375,90.34326a8.00121,8.00121,0,0,0-11.31445,0l-26.34278,26.34278L93.65674,106.34338a8.00121,8.00121,0,0,0-11.31445,0l-42.3418,42.34107V56.00012h176l.00732,108.69367Z"/>
  </g>
</svg>
