<svg id="Raw" xmlns="http://www.w3.org/2000/svg" viewBox="0 0 256 256">
  <rect width="256" height="256" fill="none"/>
  <path d="M32,167.99982l50.343-50.343a8,8,0,0,1,11.31371,0l44.68629,44.6863a8,8,0,0,0,11.31371,0l20.68629-20.6863a8,8,0,0,1,11.31371,0L223.99982,184,224,56a8,8,0,0,0-8-8H40a8,8,0,0,0-8,8Z" opacity="0.2"/>
  <rect x="32" y="48" width="192" height="160" rx="8" stroke-width="16" stroke="#000" stroke-linecap="round" stroke-linejoin="round" fill="none"/>
  <path d="M32,167.99982l50.343-50.343a8,8,0,0,1,11.31371,0l44.68629,44.6863a8,8,0,0,0,11.31371,0l20.68629-20.6863a8,8,0,0,1,11.31371,0L223.99982,184" fill="none" stroke="#000" stroke-linecap="round" stroke-linejoin="round" stroke-width="16"/>
  <circle cx="156" cy="100" r="12"/>
</svg>
