<svg id="Layer_1" data-name="Layer 1" xmlns="http://www.w3.org/2000/svg" viewBox="0 0 256 256">
  <rect width="256" height="256" fill="none"/>
  <path d="M245.67065,199.94141,142.43432,31.88281a17.1564,17.1564,0,0,0-28.86816,0L10.32885,199.94141a15.314,15.314,0,0,0,1.043,17.65185,17.19546,17.19546,0,0,0,18.80469,5.52686L127.99975,191.271,225.823,223.12012a17.51894,17.51894,0,0,0,5.42675.8623,17.00818,17.00818,0,0,0,13.37793-6.38916A15.314,15.314,0,0,0,245.67065,199.94141Zm-14.89453,7.96484-94.77637-30.85742V51.97607L231.78,207.89893A1.32873,1.32873,0,0,1,230.77612,207.90625Z"/>
</svg>
