<svg id="Layer_1" data-name="Layer 1" xmlns="http://www.w3.org/2000/svg" viewBox="0 0 256 256">
  <rect width="256" height="256" fill="none"/>
  <rect width="256" height="256" fill="none"/>
  <path d="M24,128A104,104,0,1,0,128,24,104.11791,104.11791,0,0,0,24,128Zm32,0a7.99943,7.99943,0,0,1,3.5625-6.65625l48-32A8.00016,8.00016,0,0,1,120,96v32a7.99943,7.99943,0,0,1,3.5625-6.65625l48-32A8.00016,8.00016,0,0,1,184,96v64a7.99975,7.99975,0,0,1-12.4375,6.65625l-48-32A7.99943,7.99943,0,0,1,120,128v32a7.99975,7.99975,0,0,1-12.4375,6.65625l-48-32A7.99943,7.99943,0,0,1,56,128Z"/>
</svg>
