<svg id="Raw" xmlns="http://www.w3.org/2000/svg" viewBox="0 0 256 256">
  <rect width="256" height="256" fill="none"/>
  <path d="M14.468,121.27057,103.67394,63.9239A8,8,0,0,1,116,70.65332V185.34668a8,8,0,0,1-12.32606,6.72942L14.468,134.72943A8,8,0,0,1,14.468,121.27057Z" opacity="0.2"/>
  <path d="M126.468,121.27057,215.67394,63.9239A8,8,0,0,1,228,70.65332V185.34668a8,8,0,0,1-12.32606,6.72942L126.468,134.72943A8,8,0,0,1,126.468,121.27057Z" opacity="0.2"/>
  <path d="M14.468,121.27057,103.67394,63.9239A8,8,0,0,1,116,70.65332V185.34668a8,8,0,0,1-12.32606,6.72942L14.468,134.72943A8,8,0,0,1,14.468,121.27057Z" fill="none" stroke="#000" stroke-linecap="round" stroke-linejoin="round" stroke-width="16"/>
  <path d="M126.468,121.27057,215.67394,63.9239A8,8,0,0,1,228,70.65332V185.34668a8,8,0,0,1-12.32606,6.72942L126.468,134.72943A8,8,0,0,1,126.468,121.27057Z" fill="none" stroke="#000" stroke-linecap="round" stroke-linejoin="round" stroke-width="16"/>
</svg>
