<svg id="Layer_1" data-name="Layer 1" xmlns="http://www.w3.org/2000/svg" viewBox="0 0 256 256">
  <rect width="256" height="256" fill="none"/>
  <rect width="256" height="256" fill="none"/>
  <circle cx="128" cy="128" r="96" fill="none" stroke="#000" stroke-linecap="round" stroke-linejoin="round" stroke-width="12"/>
  <path d="M118.67188,123.00781l48-32A6.00192,6.00192,0,0,1,176,96v64a5.99981,5.99981,0,0,1-9.32812,4.99219l-48-32a5.99969,5.99969,0,0,1,0-9.98438Z"/>
  <path d="M66.67188,123.00781l48-32A6.00192,6.00192,0,0,1,124,96v64a5.99981,5.99981,0,0,1-9.32812,4.99219l-48-32a5.99969,5.99969,0,0,1,0-9.98438Z"/>
</svg>
