<svg id="Layer_1" data-name="Layer 1" xmlns="http://www.w3.org/2000/svg" viewBox="0 0 256 256">
  <rect width="256" height="256" fill="none"/>
  <rect width="256" height="256" fill="none"/>
  <circle cx="128" cy="128" r="96" fill="none" stroke="#000" stroke-linecap="round" stroke-linejoin="round" stroke-width="8"/>
  <path d="M121.78125,124.67188l48-32a3.95153,3.95153,0,0,1,4.10938-.19532A3.99679,3.99679,0,0,1,176,96v64a3.99988,3.99988,0,0,1-6.21875,3.32813l-48-32a3.99979,3.99979,0,0,1,0-6.65625Z"/>
  <path d="M65.78125,124.67188l48-32a3.94992,3.94992,0,0,1,4.10938-.19532A3.99679,3.99679,0,0,1,120,96v64a3.99988,3.99988,0,0,1-6.21875,3.32813l-48-32a3.99979,3.99979,0,0,1,0-6.65625Z"/>
</svg>
