<svg id="Layer_1" data-name="Layer 1" xmlns="http://www.w3.org/2000/svg" viewBox="0 0 256 256">
  <rect width="256" height="256" fill="none"/>
  <path d="M53.91943,34.61865a7.99991,7.99991,0,1,0-11.83886,10.7627L81.32349,88.54858c-.02.0398-.04187.07862-.06177.11841A64.00311,64.00311,0,1,0,72,216h88a87.30213,87.30213,0,0,0,31.79883-5.92847l10.28174,11.30982a7.99991,7.99991,0,0,0,11.83886-10.7627Z"/>
  <path d="M160,40a87.31991,87.31991,0,0,0-52.10938,17.08057,8.00024,8.00024,0,0,0-1.17773,11.8247L213.76074,186.65771a8.00079,8.00079,0,0,0,5.91944,2.61866h.03466A7.99883,7.99883,0,0,0,225.646,186.606,88.00035,88.00035,0,0,0,160,40Z"/>
</svg>
