<svg id="Raw" xmlns="http://www.w3.org/2000/svg" viewBox="0 0 256 256">
  <rect width="256" height="256" fill="none"/>
  <circle cx="127.97461" cy="200.0029" r="16"/>
  <line x1="47.98242" y1="40" x2="207.98242" y2="216" fill="none" stroke="#000" stroke-linecap="round" stroke-linejoin="round" stroke-width="24"/>
  <path d="M107.11226,57.47077a148.358,148.358,0,0,1,20.86235-1.46787A145.90176,145.90176,0,0,1,230.903,98.17952" fill="none" stroke="#000" stroke-linecap="round" stroke-linejoin="round" stroke-width="24"/>
  <path d="M25.04621,98.17952A145.88673,145.88673,0,0,1,72.40779,66.8671" fill="none" stroke="#000" stroke-linecap="round" stroke-linejoin="round" stroke-width="24"/>
  <path d="M152.10209,106.95874a97.88563,97.88563,0,0,1,44.88614,25.1619" fill="none" stroke="#000" stroke-linecap="round" stroke-linejoin="round" stroke-width="24"/>
  <path d="M58.961,132.12064a97.89874,97.89874,0,0,1,49.03639-26.105" fill="none" stroke="#000" stroke-linecap="round" stroke-linejoin="round" stroke-width="24"/>
  <path d="M92.90211,166.06177a50.81565,50.81565,0,0,1,67.576-2.317" fill="none" stroke="#000" stroke-linecap="round" stroke-linejoin="round" stroke-width="24"/>
</svg>
