<svg id="Raw" xmlns="http://www.w3.org/2000/svg" viewBox="0 0 256 256">
  <rect width="256" height="256" fill="none"/>
  <path d="M20.20855,75.93124c63.48474-47.90809,152.098-47.90812,215.58263.00015a8.015,8.015,0,0,1,1.201,11.61025c-19.04723,22.44929-82.94714,97.76169-102.95188,121.33925a7.93583,7.93583,0,0,1-12.14044-.0705L19.03968,87.57941A8.055,8.055,0,0,1,20.20855,75.93124Z" opacity="0.2"/>
  <line x1="48" y1="40" x2="208" y2="216" fill="none" stroke="#000" stroke-linecap="round" stroke-linejoin="round" stroke-width="16"/>
  <path d="M166.62276,170.47925l-32.58244,38.40164a7.93583,7.93583,0,0,1-12.14044-.0705L19.03968,87.57941a8.055,8.055,0,0,1,1.16887-11.64817A177.24421,177.24421,0,0,1,60.07361,53.27507" fill="none" stroke="#000" stroke-linecap="round" stroke-linejoin="round" stroke-width="16"/>
  <path d="M94.16029,43.19328A179.46662,179.46662,0,0,1,235.79118,75.93139a8.015,8.015,0,0,1,1.201,11.61025c-9.27624,10.93309-29.19069,34.40431-49.49207,58.33153" fill="none" stroke="#000" stroke-linecap="round" stroke-linejoin="round" stroke-width="16"/>
</svg>
