<svg id="Layer_1" data-name="Layer 1" xmlns="http://www.w3.org/2000/svg" viewBox="0 0 256 256">
  <rect x="0.00049" width="255.99951" height="256" fill="none"/>
  <circle cx="127.98047" cy="200.0029" r="9"/>
  <line x1="47.98828" y1="40" x2="207.98828" y2="216" fill="none" stroke="#000" stroke-linecap="round" stroke-linejoin="round" stroke-width="12"/>
  <path d="M107.11812,57.47077a148.358,148.358,0,0,1,20.86235-1.46787,145.90176,145.90176,0,0,1,102.9284,42.17662" fill="none" stroke="#000" stroke-linecap="round" stroke-linejoin="round" stroke-width="12"/>
  <path d="M25.05207,98.17952A145.88673,145.88673,0,0,1,72.41365,66.8671" fill="none" stroke="#000" stroke-linecap="round" stroke-linejoin="round" stroke-width="12"/>
  <path d="M152.10795,106.95874a97.88563,97.88563,0,0,1,44.88614,25.1619" fill="none" stroke="#000" stroke-linecap="round" stroke-linejoin="round" stroke-width="12"/>
  <path d="M58.96685,132.12064a97.89874,97.89874,0,0,1,49.03639-26.105" fill="none" stroke="#000" stroke-linecap="round" stroke-linejoin="round" stroke-width="12"/>
  <path d="M92.908,166.06177a50.81565,50.81565,0,0,1,67.576-2.317" fill="none" stroke="#000" stroke-linecap="round" stroke-linejoin="round" stroke-width="12"/>
</svg>
