<svg id="Layer_1" data-name="Layer 1" xmlns="http://www.w3.org/2000/svg" viewBox="0 0 256 256">
  <rect x="0.00049" width="255.99951" height="256" fill="none"/>
  <g>
    <path d="M53.91112,34.61237A8.00024,8.00024,0,1,0,42.07225,45.376l4.63013,5.093A185.37724,185.37724,0,0,0,15.38231,69.546,15.73769,15.73769,0,0,0,9.1704,80.48249a16.27706,16.27706,0,0,0,3.76123,12.27246L115.79149,213.98639a16.02792,16.02792,0,0,0,12.23389,5.6836,15.85367,15.85367,0,0,0,12.10693-5.61328l26.68958-31.45606L202.07225,221.376a8.00024,8.00024,0,1,0,11.83887-10.76367Z"/>
    <path d="M246.83251,80.49616A15.76806,15.76806,0,0,0,240.602,69.546,187.63906,187.63906,0,0,0,92.65477,35.335a7.99988,7.99988,0,0,0-4.42236,13.23926L181.57225,151.254a7.99885,7.99885,0,0,0,5.91944,2.61914c.0459,0,.09131,0,.1372-.001a8.00021,8.00021,0,0,0,5.96338-2.82325l49.49268-58.332A16.20993,16.20993,0,0,0,246.83251,80.49616Z"/>
  </g>
</svg>
