<svg id="Raw" xmlns="http://www.w3.org/2000/svg" viewBox="0 0 256 256">
  <rect width="256" height="256" fill="none"/>
  <g opacity="0.2">
    <path d="M200,152.86156,163.20286,189.6587a8,8,0,0,1-7.59714,2.10429L97.64881,177.27376a7.99992,7.99992,0,0,1-2.98764-1.45911L40,133.0718l32.57437-61.282,51.32-14.96153a8,8,0,0,1,5.537.39169L164,72.86156H143.31371a8,8,0,0,0-5.65686,2.34315L98.52241,114.33915a8,8,0,0,0,.85685,12.05686L104.8,130.46156a32,32,0,0,0,38.4,0l12.8-9.6Z"/>
  </g>
  <path d="M240.71765,121.78477,216,134.14359l-32-61.282,24.9693-12.48465a8,8,0,0,1,10.66912,3.45246l24.59293,47.097A8,8,0,0,1,240.71765,121.78477Z" fill="none" stroke="#000" stroke-linecap="round" stroke-linejoin="round" stroke-width="16"/>
  <path d="M40,133.0718,15.28235,120.713a8,8,0,0,1-3.5137-10.85838l24.59293-47.097A8,8,0,0,1,47.0307,59.30511L72,71.78976Z" fill="none" stroke="#000" stroke-linecap="round" stroke-linejoin="round" stroke-width="16"/>
  <path d="M216,134.14359l-16,18.718L163.20286,189.6587a8,8,0,0,1-7.59714,2.10429L97.64881,177.27376a7.99992,7.99992,0,0,1-2.98764-1.45911L40,133.0718" fill="none" stroke="#000" stroke-linecap="round" stroke-linejoin="round" stroke-width="16"/>
  <path d="M200,152.86156l-44-32-12.8,9.6a32,32,0,0,1-38.4,0L99.37926,126.396a8,8,0,0,1-.85685-12.05686l39.13444-39.13444a8,8,0,0,1,5.65686-2.34315H184" fill="none" stroke="#000" stroke-linecap="round" stroke-linejoin="round" stroke-width="16"/>
  <path d="M72.57437,71.78976l51.32-14.96153a8,8,0,0,1,5.537.39169L164,72.86156" fill="none" stroke="#000" stroke-linecap="round" stroke-linejoin="round" stroke-width="16"/>
  <path d="M112,212.86156,81.86056,205.3267a7.99993,7.99993,0,0,1-3.308-1.7233L56,184" fill="none" stroke="#000" stroke-linecap="round" stroke-linejoin="round" stroke-width="16"/>
</svg>
