<svg id="Raw" xmlns="http://www.w3.org/2000/svg" viewBox="0 0 256 256">
  <rect width="256" height="256" fill="none"/>
  <path d="M119.76074,214.80176a7.98886,7.98886,0,0,1-9.70117,5.82031l-30.13965-7.53418a16.0992,16.0992,0,0,1-6.61719-3.44727L50.752,190.03809a8,8,0,0,1,10.4961-12.07618l22.55273,19.60352,30.13965,7.53516A7.99856,7.99856,0,0,1,119.76074,214.80176Zm132.60156-95.2461a15.88206,15.88206,0,0,1-8.0664,9.38428L221.02783,140.574l-14.94678,17.48553c-.05224.061-.10937.11725-.16308.17664-.04932.05413-.09815.10785-.14844.16034-.03808.03985-.07324.08245-.1123.12152l-36.79688,36.79834a16.0981,16.0981,0,0,1-11.35058,4.67968,15.8477,15.8477,0,0,1-3.84473-.47265L95.708,185.03418a15.9025,15.9025,0,0,1-5.97559-2.918L35.7041,139.86829l-24-12.00013a16.0014,16.0014,0,0,1-7.02734-21.7163L29.26953,59.05469A16.07985,16.07985,0,0,1,50.6084,52.1499l22.375,11.18744L121.65527,49.148a16.01609,16.01609,0,0,1,11.07325.78271l32.99707,14.93067H182.1123l23.28028-11.63965A16.07317,16.07317,0,0,1,226.73047,60.127l24.59277,47.09619A15.87906,15.87906,0,0,1,252.3623,119.55566Zm-64.63916,34.26886-31.6499-23.01788L148,136.86133a40.20558,40.20558,0,0,1-48,0l-5.4209-4.06543a16.00034,16.00034,0,0,1-1.71387-24.11328L132,69.54785a16.1947,16.1947,0,0,1,1.8335-1.55548l-7.69971-3.48407L77.41016,78.71265,50.17432,130.872,99.58887,169.5127l57.957,14.48925Zm18.68311-20.76959-27.25439-52.1936h-15.1294l-.02734.002c-.0127,0-.02491-.00189-.03711-.002H143.31348l-39.13379,39.13476,5.41992,4.06543a24.1254,24.1254,0,0,0,28.80078,0l12.79981-9.60009a7.99783,7.99783,0,0,1,9.50488-.06983l38.019,27.65027Z"/>
</svg>
