<svg id="Raw" xmlns="http://www.w3.org/2000/svg" viewBox="0 0 256 256">
  <rect width="256" height="256" fill="none"/>
  <path d="M216,136a8.00039,8.00039,0,0,0-8,8,40.04584,40.04584,0,0,1-40,40,47.79539,47.79539,0,0,0-32,12.27148V120h32a8,8,0,0,0,0-16H136V78.8291a28,28,0,1,0-16,0V104H88a8,8,0,0,0,0,16h32v76.27148A47.79539,47.79539,0,0,0,88,184a40.04584,40.04584,0,0,1-40-40,8,8,0,0,0-16,0,56.0629,56.0629,0,0,0,56,56,32.03667,32.03667,0,0,1,32,32,8,8,0,0,0,16,0,32.03667,32.03667,0,0,1,32-32,56.0629,56.0629,0,0,0,56-56A8.00039,8.00039,0,0,0,216,136ZM116,52a12,12,0,1,1,12,12A12.01312,12.01312,0,0,1,116,52Z"/>
</svg>
