<svg id="Raw" xmlns="http://www.w3.org/2000/svg" viewBox="0 0 256 256">
  <rect width="256" height="256" fill="none"/>
  <path d="M128,24A104,104,0,1,0,232,128,104.11791,104.11791,0,0,0,128,24ZM92,96a12,12,0,1,1-12,12A12,12,0,0,1,92,96ZM176.50293,156.002a56.02857,56.02857,0,0,1-97.00586.00147,8.00024,8.00024,0,0,1,13.84961-8.0127,40.1954,40.1954,0,0,0,19.08594,16.86573,39.95953,39.95953,0,0,0,43.85156-8.57618,40.182,40.182,0,0,0,6.36914-8.29,8,8,0,0,1,13.84961,8.01172ZM180,116H148a8,8,0,0,1,0-16h32a8,8,0,0,1,0,16Z"/>
</svg>
