<svg id="Raw" xmlns="http://www.w3.org/2000/svg" viewBox="0 0 256 256">
  <rect width="256" height="256" fill="none"/>
  <path d="M128,76a44,44,0,1,1-44,44A43.99983,43.99983,0,0,1,128,76Zm48-12h48a8,8,0,0,0,0-16H176a8,8,0,0,0,0,16Zm39.87158,24.457a8.00076,8.00076,0,0,0-4.87695,10.209,88.016,88.016,0,0,1-17.23645,87.74414,79.7044,79.7044,0,0,0-24.431-22.97461,59.83641,59.83641,0,0,1-82.6543,0A79.70345,79.70345,0,0,0,62.2417,186.41016,87.9498,87.9498,0,0,1,128,40a89.04252,89.04252,0,0,1,13.8877,1.08838,7.99994,7.99994,0,0,0,2.5039-15.80274A104.08275,104.08275,0,0,0,24,128a103.74716,103.74716,0,0,0,33.81934,76.68066,7.94507,7.94507,0,0,0,1.32629,1.18946,103.784,103.784,0,0,0,137.71252-.00293,7.94633,7.94633,0,0,0,1.31678-1.18115A104.0138,104.0138,0,0,0,226.08008,93.334,8.00062,8.00062,0,0,0,215.87158,88.457Z"/>
</svg>
