<svg id="Layer_1" data-name="Layer 1" xmlns="http://www.w3.org/2000/svg" viewBox="0 0 256 256">
  <rect width="256" height="256" fill="none"/>
  <g>
    <path d="M176,64h48a8,8,0,0,0,0-16H176a8,8,0,0,0,0,16Z"/>
    <circle cx="128" cy="120" r="44"/>
    <path d="M221.34863,104.10889a7.99984,7.99984,0,0,0-6.56592,9.21338A88.98692,88.98692,0,0,1,216,128a87.63623,87.63623,0,0,1-22.24194,58.41016,79.70266,79.70266,0,0,0-24.43091-22.97461,59.83641,59.83641,0,0,1-82.6543,0A79.7048,79.7048,0,0,0,62.2417,186.41016,87.9498,87.9498,0,0,1,128,40a88.91608,88.91608,0,0,1,14.67773,1.21729A7.99993,7.99993,0,0,0,145.3252,25.438,103.90159,103.90159,0,1,0,230.562,110.6748,8.00035,8.00035,0,0,0,221.34863,104.10889Z"/>
  </g>
</svg>
