<svg id="Raw" xmlns="http://www.w3.org/2000/svg" viewBox="0 0 256 256">
  <rect width="256" height="256" fill="none"/>
  <path d="M227.3125,80.23438,175.76562,28.6875A16.11511,16.11511,0,0,0,164.45312,24H91.54687a16.11515,16.11515,0,0,0-11.3125,4.6875L28.6875,80.23438A16.11511,16.11511,0,0,0,24,91.54688v72.90625a16.11515,16.11515,0,0,0,4.6875,11.3125L80.23437,227.3125A16.11515,16.11515,0,0,0,91.54687,232h72.90625a16.11511,16.11511,0,0,0,11.3125-4.6875l51.54688-51.54687A16.11515,16.11515,0,0,0,232,164.45313V91.54688A16.11511,16.11511,0,0,0,227.3125,80.23438ZM120,80a8,8,0,0,1,16,0v56a8,8,0,0,1-16,0Zm8,104a12,12,0,1,1,12-12A12.0006,12.0006,0,0,1,128,184Z"/>
</svg>
