<svg id="Layer_1" data-name="Layer 1" xmlns="http://www.w3.org/2000/svg" viewBox="0 0 256 256">
  <g>
    <path d="M96,76H216a8,8,0,0,0,0-16H96a8,8,0,0,0,0,16Z"/>
    <path d="M216,120H96.00586a8,8,0,1,0,0,16H216a8,8,0,0,0,0-16Z"/>
    <path d="M216,180H96.00586a8,8,0,1,0,0,16H216a8,8,0,0,0,0-16Z"/>
    <path d="M56,60H40a8,8,0,0,0,0,16H56a8,8,0,0,0,0-16Z"/>
    <path d="M56,120H40.00586a8,8,0,1,0,0,16H56a8,8,0,0,0,0-16Z"/>
    <path d="M56,180H40.00586a8,8,0,1,0,0,16H56a8,8,0,0,0,0-16Z"/>
  </g>
</svg>
