<svg id="Layer_1" data-name="Layer 1" xmlns="http://www.w3.org/2000/svg" viewBox="0 0 256 256">
  <rect x="0.00049" width="255.99951" height="256" fill="none"/>
  <g>
    <path d="M211.314,128l18.34278-18.34277a8.00018,8.00018,0,1,0-11.31348-11.31446L200,116.686,181.65674,98.34277a8.00018,8.00018,0,0,0-11.31348,11.31446L188.686,128l-18.34278,18.34277a8.00018,8.00018,0,0,0,11.31348,11.31446L200,139.314l18.34326,18.34327a8.00018,8.00018,0,0,0,11.31348-11.31446Z"/>
    <path d="M200,161.94141l-7.0293,7.02929a24.00019,24.00019,0,0,1-33.9414-33.9414L166.05859,128l-7.02929-7.0293a24.00019,24.00019,0,0,1,33.9414-33.9414L200,94.05859l7.0293-7.02929c.312-.312.64624-.58594.9707-.87744V43.31348A15.99974,15.99974,0,0,0,180.68652,32L15.99951,196.68652A16.00018,16.00018,0,0,0,27.31348,224H192a16.01833,16.01833,0,0,0,16-16V169.84814c-.32446-.2915-.65869-.56543-.9707-.87744Z"/>
  </g>
</svg>
