<svg id="Layer_1" data-name="Layer 1" xmlns="http://www.w3.org/2000/svg" viewBox="0 0 256 256">
  <rect x="0.00049" width="255.99951" height="256" fill="none"/>
  <path d="M200,43.31371V208a8,8,0,0,1-8,8H27.31371a8,8,0,0,1-5.65686-13.65685l164.6863-164.6863A8,8,0,0,1,200,43.31371Z" opacity="0.2"/>
  <line x1="224" y1="104" x2="176" y2="152" fill="none" stroke="#000" stroke-linecap="round" stroke-linejoin="round" stroke-width="16"/>
  <line x1="224" y1="152" x2="176" y2="104" fill="none" stroke="#000" stroke-linecap="round" stroke-linejoin="round" stroke-width="16"/>
  <path d="M200,173.2544V208a8,8,0,0,1-8,8H27.31371a8,8,0,0,1-5.65686-13.65685l164.6863-164.6863A8,8,0,0,1,200,43.31371V82.74556" fill="none" stroke="#000" stroke-linecap="round" stroke-linejoin="round" stroke-width="16"/>
</svg>
