<svg id="Raw" xmlns="http://www.w3.org/2000/svg" viewBox="0 0 256 256">
  <rect width="256" height="256" fill="none"/>
  <path d="M216,91.31371V208a8,8,0,0,1-8,8H48a8,8,0,0,1-8-8V48a8,8,0,0,1,8-8H164.68629a8,8,0,0,1,5.65686,2.34315l43.3137,43.3137A8,8,0,0,1,216,91.31371Z" fill="none" stroke="#000" stroke-linecap="round" stroke-linejoin="round" stroke-width="16"/>
  <path d="M80,216.00842v-64a8,8,0,0,1,8-8h80a8,8,0,0,1,8,8v64" fill="none" stroke="#000" stroke-linecap="round" stroke-linejoin="round" stroke-width="16"/>
  <line x1="152" y1="72.00903" x2="96" y2="72.00903" fill="none" stroke="#000" stroke-linecap="round" stroke-linejoin="round" stroke-width="16"/>
</svg>
