<svg id="Layer_1" data-name="Layer 1" xmlns="http://www.w3.org/2000/svg" viewBox="0 0 256 256">
  <rect x="0.00049" width="255.99951" height="256" fill="none"/>
  <path d="M219.31445,79.99963,176.001,36.68811a15.88944,15.88944,0,0,0-11.31446-4.68848h-60.687L104,32.0094v56h56a8,8,0,0,1,0,16H96a8.00039,8.00039,0,0,1-8-8v-64l.00049-.00977H48a16.01833,16.01833,0,0,0-16,16v160a16.01833,16.01833,0,0,0,16,16H208a16.01833,16.01833,0,0,0,16-16V91.31409A15.898,15.898,0,0,0,219.31445,79.99963ZM128.00586,176.0094a20,20,0,1,1,20-20A20.02229,20.02229,0,0,1,128.00586,176.0094Z"/>
</svg>
