<svg id="Layer_1" data-name="Layer 1" xmlns="http://www.w3.org/2000/svg" viewBox="0 0 256 256">
  <rect width="256" height="256" fill="none"/>
  <path d="M216,91.31371V208a8,8,0,0,1-8,8H48a8,8,0,0,1-8-8V48a8,8,0,0,1,8-8H164.68629a8,8,0,0,1,5.65686,2.34315l43.3137,43.3137A8,8,0,0,1,216,91.31371Z" fill="none" stroke="#000" stroke-linecap="round" stroke-linejoin="round" stroke-width="16"/>
  <circle cx="128.00586" cy="156.00903" r="28" fill="none" stroke="#000" stroke-linecap="round" stroke-linejoin="round" stroke-width="16"/>
  <path d="M213.65674,85.65686,170.34326,42.34314a8.00052,8.00052,0,0,0-5.657-2.343H48a7.99993,7.99993,0,0,0-8,8v160a8.00009,8.00009,0,0,0,8,8H208a8.00009,8.00009,0,0,0,8-8V91.3136A7.99918,7.99918,0,0,0,213.65674,85.65686Zm-85.65088,98.352a28,28,0,1,1,28-28A28,28,0,0,1,128.00586,184.00891Z" opacity="0.2"/>
  <polyline points="160 96.009 96 96.009 96 40.009" fill="none" stroke="#000" stroke-linecap="round" stroke-linejoin="round" stroke-width="16"/>
</svg>
