<svg id="Raw" xmlns="http://www.w3.org/2000/svg" viewBox="0 0 256 256">
  <rect width="256" height="256" fill="none"/>
  <path d="M119.99219,144.00684,120,203.999a8.00018,8.00018,0,0,1-13.65674,5.65821l-24.3435-24.34375L45.62793,221.68555a8.00018,8.00018,0,0,1-11.31348-11.31446L70.68579,174,46.34326,149.65723A8.00038,8.00038,0,0,1,52,136h.001l59.99218.00781A8,8,0,0,1,119.99219,144.00684ZM208,32H72A16.01833,16.01833,0,0,0,56,48V96a8,8,0,0,0,16,0V48H208V184H160a8,8,0,0,0,0,16h48a16.01833,16.01833,0,0,0,16-16V48A16.01833,16.01833,0,0,0,208,32Z"/>
</svg>
