<svg id="Raw" xmlns="http://www.w3.org/2000/svg" viewBox="0 0 256 256">
  <rect width="256" height="256" fill="none"/>
  <path d="M233.61523,195.5752,192.2041,41.02637a16.01548,16.01548,0,0,0-19.5957-11.31348l-30.91016,8.28223c-.33935.09094-.66357.20923-.99219.32043A15.96591,15.96591,0,0,0,128,32H96a15.8799,15.8799,0,0,0-8,2.16492A15.8799,15.8799,0,0,0,80,32H48A16.01833,16.01833,0,0,0,32,48V208a16.01833,16.01833,0,0,0,16,16H80a15.8799,15.8799,0,0,0,8-2.16492A15.8799,15.8799,0,0,0,96,224h32a16.01833,16.01833,0,0,0,16-16V108.40283l27.7959,103.73584a15.992,15.992,0,0,0,19.5957,11.31445l30.91016-8.28222A16.01822,16.01822,0,0,0,233.61523,195.5752ZM176.749,45.167l6.21338,23.18238-30.91113,8.28247L145.83984,53.4502ZM128,48l.00732,120H96V48ZM80,48V72H48V48Zm48,160H96V184h32.0083l.00147,24Zm90.16016-8.28418-30.90967,8.28223-6.21143-23.18189,30.918-8.28491,6.21289,23.18164Z"/>
</svg>
