<svg id="Layer_1" data-name="Layer 1" xmlns="http://www.w3.org/2000/svg" viewBox="0 0 256.00098 256.00098">
  <rect width="256" height="256" fill="none"/>
  <path d="M216.002,47.99316h-176a16.01583,16.01583,0,0,0-16,16V222.82129a15.97593,15.97593,0,0,0,26.29688,12.25l31.75781-26.70313,133.94531-.375a16.01581,16.01581,0,0,0,16-16v-128A16.01582,16.01582,0,0,0,216.002,47.99316ZM80.001,140.001a12,12,0,1,1,12-12A12,12,0,0,1,80.001,140.001Zm48,0a12,12,0,1,1,12-12A12,12,0,0,1,128.001,140.001Zm48,0a12,12,0,1,1,12-12A12,12,0,0,1,176.001,140.001Z"/>
</svg>
