<svg id="Layer_1" data-name="Layer 1" xmlns="http://www.w3.org/2000/svg" viewBox="0 0 256 256">
  <rect width="256" height="256" fill="none"/>
  <rect width="256" height="256" fill="none"/>
  <path d="M128,24A104,104,0,1,0,232,128,104.11791,104.11791,0,0,0,128,24Zm68.4375,110.65625-48,32A8.00016,8.00016,0,0,1,136,160V128a7.99943,7.99943,0,0,1-3.5625,6.65625l-48,32A8.00016,8.00016,0,0,1,72,160V96a8.00016,8.00016,0,0,1,12.4375-6.65625l48,32A7.99943,7.99943,0,0,1,136,128V96a8.00016,8.00016,0,0,1,12.4375-6.65625l48,32a7.99959,7.99959,0,0,1,0,13.3125Z"/>
</svg>
