<svg id="Layer_1" data-name="Layer 1" xmlns="http://www.w3.org/2000/svg" viewBox="0 0 256 256">
  <rect width="256" height="256" fill="none"/>
  <g>
    <path d="M138,130.67188a19.8777,19.8777,0,0,0-9.96875-2.69532,20.09907,20.09907,0,0,0-5.20312.69532,20.0058,20.0058,0,1,0,15.17187,2Z"/>
    <path d="M208,32H48A16.02085,16.02085,0,0,0,32,48V208a16.02085,16.02085,0,0,0,16,16H208a16.02085,16.02085,0,0,0,16-16V48A16.02085,16.02085,0,0,0,208,32ZM159.17969,165.99219a35.79746,35.79746,0,0,1-21.85156,16.77344,36.33051,36.33051,0,0,1-9.375,1.24218,36.01571,36.01571,0,0,1-31.13282-54.01562l31.17188-54a8.00128,8.00128,0,1,1,13.85937,8L125.6543,112.05176a36.01393,36.01393,0,0,1,33.52539,53.94043Z"/>
  </g>
</svg>
