<svg id="Layer_1" data-name="Layer 1" xmlns="http://www.w3.org/2000/svg" viewBox="0 0 256 256">
  <g>
    <path d="M210.0249,45.97559a48.00015,48.00015,0,0,0-67.88183,0L125.145,62.97266a7.99983,7.99983,0,1,0,11.3125,11.31445L153.45654,57.29A31.99935,31.99935,0,1,1,198.71045,102.544L164.77,136.48535a32.03792,32.03792,0,0,1-45.25586,0,7.99983,7.99983,0,1,0-11.3125,11.31445,48.05687,48.05687,0,0,0,67.88184,0l33.9414-33.9414a48.00134,48.00134,0,0,0,0-67.88281Z"/>
    <path d="M119.54248,181.71289,102.54346,198.71a31.99935,31.99935,0,1,1-45.25391-45.25391L91.23,119.51465a32.03792,32.03792,0,0,1,45.25586,0,7.99983,7.99983,0,1,0,11.3125-11.31445,48.058,48.058,0,0,0-67.88184,0L45.9751,142.1416a48,48,0,0,0,67.88183,67.88281L130.855,193.02734a7.99983,7.99983,0,1,0-11.3125-11.31445Z"/>
  </g>
</svg>
