<svg id="Layer_1" data-name="Layer 1" xmlns="http://www.w3.org/2000/svg" viewBox="0 0 256 256">
  <rect x="0.00049" width="255.99951" height="256" fill="none"/>
  <g>
    <path d="M210.0249,45.97559a52.00107,52.00107,0,0,0-73.54,0L116.686,65.77441a8.00053,8.00053,0,1,0,11.31445,11.31446L147.79932,57.29a35.99926,35.99926,0,1,1,50.91113,50.91016l-28.2832,28.28515a36.04088,36.04088,0,0,1-50.91211,0,8.00053,8.00053,0,0,0-11.31446,11.31445,52.0625,52.0625,0,0,0,73.54,0l28.28418-28.28515a52.00226,52.00226,0,0,0,0-73.53906Z"/>
    <path d="M127.99951,178.91113,108.20068,198.71A35.99926,35.99926,0,1,1,57.28955,147.7998l28.2832-28.28515a36.03821,36.03821,0,0,1,50.91211,0,8.00053,8.00053,0,1,0,11.31446-11.31445,52.0625,52.0625,0,0,0-73.54,0L45.9751,136.48535a52.00031,52.00031,0,0,0,73.54,73.53906L139.314,190.22559a8.00053,8.00053,0,0,0-11.31445-11.31446Z"/>
  </g>
</svg>
