<svg id="Layer_1" data-name="Layer 1" xmlns="http://www.w3.org/2000/svg" viewBox="0 0 256 256">
  <rect width="256" height="256" fill="none"/>
  <g>
    <path d="M229.65723,58.34326l-32-32a8.00034,8.00034,0,0,0-11.31446,0l-96,96A8.00035,8.00035,0,0,0,88,128v32a8.00008,8.00008,0,0,0,8,8h32a8.00076,8.00076,0,0,0,5.65723-2.34326l96-96A8,8,0,0,0,229.65723,58.34326Zm-29.657,18.343L179.314,56,192,43.31372,212.68652,64Z"/>
    <path d="M217.61133,104.33008l-72.63867,72.63769a23.84434,23.84434,0,0,1-16.97071,7.03028h-32a24.02687,24.02687,0,0,1-24-24v-32a23.84117,23.84117,0,0,1,7.0293-16.96973l72.6582-72.6582a7.88176,7.88176,0,0,0-7.67187-6.37207H48.002a16.01582,16.01582,0,0,0-16,16v160a16.01583,16.01583,0,0,0,16,16h160a16.01582,16.01582,0,0,0,16-16V112.00586A7.88084,7.88084,0,0,0,217.61133,104.33008Z"/>
  </g>
</svg>
