<svg id="Raw" xmlns="http://www.w3.org/2000/svg" viewBox="0 0 256 256">
  <rect width="256" height="256" fill="none"/>
  <path d="M72,104h32v48H72ZM232,56V216a7.99951,7.99951,0,0,1-11.57812,7.15527L192,208.94434l-28.42188,14.21093a8.00049,8.00049,0,0,1-7.15624,0L128,208.94434,99.57812,223.15527a7.99634,7.99634,0,0,1-7.15624,0L64,208.94434,35.57812,223.15527A7.99951,7.99951,0,0,1,24,216V56A16.01833,16.01833,0,0,1,40,40H216A16.01833,16.01833,0,0,1,232,56ZM120,96a8.00039,8.00039,0,0,0-8-8H64a8.00039,8.00039,0,0,0-8,8v64a8.00039,8.00039,0,0,0,8,8h48a8.00039,8.00039,0,0,0,8-8Zm80,48a8.00039,8.00039,0,0,0-8-8H144a8,8,0,0,0,0,16h48A8.00039,8.00039,0,0,0,200,144Zm0-32a8.00039,8.00039,0,0,0-8-8H144a8,8,0,0,0,0,16h48A8.00039,8.00039,0,0,0,200,112Z"/>
</svg>
