<svg id="Layer_1" data-name="Layer 1" xmlns="http://www.w3.org/2000/svg" viewBox="0 0 256 256">
  <rect width="256" height="256" fill="none"/>
  <rect x="76" y="100" width="24" height="56"/>
  <path d="M216,40H40A16.01833,16.01833,0,0,0,24,56V216a7.99951,7.99951,0,0,0,11.57812,7.15527L64,208.94434l28.42188,14.21093a7.99634,7.99634,0,0,0,7.15624,0L128,208.94434l28.42188,14.21093a8.00049,8.00049,0,0,0,7.15624,0L192,208.94434l28.42188,14.21093A7.99951,7.99951,0,0,0,232,216V56A16.01833,16.01833,0,0,0,216,40ZM116,164a8.00039,8.00039,0,0,1-8,8H68a8.00039,8.00039,0,0,1-8-8V92a8.00039,8.00039,0,0,1,8-8h40a8.00039,8.00039,0,0,1,8,8Zm76,4H144a8,8,0,0,1,0-16h48a8,8,0,0,1,0,16Zm0-32H144a8,8,0,0,1,0-16h48a8,8,0,0,1,0,16Zm0-32H144a8,8,0,0,1,0-16h48a8,8,0,0,1,0,16Z"/>
</svg>
