<svg id="Raw" xmlns="http://www.w3.org/2000/svg" viewBox="0 0 256 256">
  <rect width="256" height="256" fill="none"/>
  <path d="M224,88H175.40381l8.46728-46.56934a8.00005,8.00005,0,1,0-15.74218-2.86132L159.1416,88H111.40381l8.46728-46.56934a8.00005,8.00005,0,1,0-15.74218-2.86132L95.1416,88H43.63672a8,8,0,0,0,0,16h48.5957l-8.72754,48H32a8,8,0,0,0,0,16H80.59619l-8.46728,46.56934a8.00005,8.00005,0,1,0,15.74218,2.86132L96.8584,168h47.73779l-8.46728,46.56934a8.00005,8.00005,0,1,0,15.74218,2.86132L160.8584,168h51.50488a8,8,0,1,0,0-16h-48.5957l8.72754-48H224a8,8,0,0,0,0-16Zm-76.49512,64H99.76758l8.72754-48h47.7373Z"/>
</svg>
