<svg id="Raw" xmlns="http://www.w3.org/2000/svg" viewBox="0 0 256 256">
  <rect width="256" height="256" fill="none"/>
  <path d="M216,136c0,51.50493-74.43964,69.17367-86.39,71.67832a7.80809,7.80809,0,0,1-3.21992,0C114.43964,205.17367,40,187.50493,40,136V77.60342a8,8,0,0,1,5.26606-7.51835l80-29.09091a8,8,0,0,1,5.46788,0l80,29.09091A8,8,0,0,1,216,77.60342Z" fill="none" stroke="#000" stroke-linecap="round" stroke-linejoin="round" stroke-width="16"/>
  <line x1="88" y1="112" x2="168" y2="112" fill="none" stroke="#000" stroke-linecap="round" stroke-linejoin="round" stroke-width="16"/>
  <line x1="88" y1="144" x2="168" y2="144" fill="none" stroke="#000" stroke-linecap="round" stroke-linejoin="round" stroke-width="16"/>
  <path d="M213.40982,152H224a24,24,0,0,0,24-24V104a24,24,0,0,0-24-24h-8" fill="none" stroke="#000" stroke-linecap="round" stroke-linejoin="round" stroke-width="16"/>
  <path d="M42.59121,152H32A24,24,0,0,1,8,128V104A24,24,0,0,1,32,80h8" fill="none" stroke="#000" stroke-linecap="round" stroke-linejoin="round" stroke-width="16"/>
</svg>
