<svg id="Raw" xmlns="http://www.w3.org/2000/svg" viewBox="0 0 256 256">
  <rect width="256" height="256" fill="none"/>
  <path d="M183.31348,188l22.34326-22.34326a7.99984,7.99984,0,0,0-11.31348-11.31348L172,176.68652l-41.71289-41.71277A52.0008,52.0008,0,0,0,120,32H72a8.00008,8.00008,0,0,0-8,8V192a8,8,0,0,0,16,0V136h28.68652l52,52-22.34326,22.34326a7.99984,7.99984,0,1,0,11.31348,11.31348L172,199.31348l22.34326,22.34326a7.99984,7.99984,0,0,0,11.31348-11.31348ZM80,48h40a36,36,0,0,1,0,72H80Z"/>
</svg>
