<svg id="Raw" xmlns="http://www.w3.org/2000/svg" viewBox="0 0 256 256">
  <rect width="256" height="256" fill="none"/>
  <g>
    <path d="M134.07666,154.794a8.0003,8.0003,0,0,0-12.14844-.00049l-48.00293,56A8,8,0,0,0,79.99951,224h96a8.00032,8.00032,0,0,0,6.07422-13.20605Z"/>
    <path d="M208.00244,40H47.99951a24.0275,24.0275,0,0,0-24,24V176a24.0275,24.0275,0,0,0,24,24h14.104l47.67919-55.62231a24.00045,24.00045,0,0,1,36.44239.0039L193.895,200h14.10742a24.0275,24.0275,0,0,0,24-24V64A24.0275,24.0275,0,0,0,208.00244,40Z"/>
  </g>
</svg>
