<svg id="Layer_1" data-name="Layer 1" xmlns="http://www.w3.org/2000/svg" viewBox="0 0 256 256">
  <path d="M240,168a7.99993,7.99993,0,0,1-8-8V96a8,8,0,0,1,16,0v64A7.99993,7.99993,0,0,1,240,168Z"/>
  <path d="M192,47.99805H40a24.02624,24.02624,0,0,0-24,24v112a24.02625,24.02625,0,0,0,24,24H192a24.02624,24.02624,0,0,0,24-24v-112A24.02624,24.02624,0,0,0,192,47.99805ZM139.42188,130.9668l-16,40a7.99361,7.99361,0,1,1-14.84375-5.9375l11.60937-29.03125H100a7.9927,7.9927,0,0,1-7.42187-10.96875l16-40a7.99361,7.99361,0,1,1,14.84375,5.9375L111.8125,119.99805H132a7.99271,7.99271,0,0,1,7.42188,10.96875Z"/>
</svg>
