<svg id="Layer_1" data-name="Layer 1" xmlns="http://www.w3.org/2000/svg" viewBox="0 0 256 256">
  <path d="M121.19873,157.94751a59.99994,59.99994,0,1,0-66.39661,0A96.21448,96.21448,0,0,0,9.45459,192.791a8.0002,8.0002,0,0,0,6.542,12.60546l144.0044-.00537a7.99991,7.99991,0,0,0,6.54052-12.606A96.21491,96.21491,0,0,0,121.19873,157.94751Z"/>
  <path d="M248.06348,192.78516a96.214,96.214,0,0,0-45.34327-34.83765A60.00088,60.00088,0,0,0,153.24707,50.23535a8,8,0,0,0-4.251,12.47852,75.83151,75.83151,0,0,1,3.84082,84.88623,8,8,0,0,0,2.04493,10.60107,113.20643,113.20643,0,0,1,8.74365,7.2146c.14429.15674.28979.31275.44873.46021a112.03418,112.03418,0,0,1,25.479,34.90527,7.99971,7.99971,0,0,0,7.24951,4.61523l44.72071-.00537a8.0001,8.0001,0,0,0,6.54-12.606Z"/>
</svg>
