<svg id="Raw" xmlns="http://www.w3.org/2000/svg" viewBox="0 0 256 256">
  <rect width="256" height="256" fill="none"/>
  <path d="M136,64l56,56,26.34315-26.34315a8,8,0,0,0,0-11.3137l-44.6863-44.6863a8,8,0,0,0-11.3137,0Z" opacity="0.2"/>
  <line x1="136" y1="64" x2="192" y2="120" fill="none" stroke="#000" stroke-linecap="round" stroke-linejoin="round" stroke-width="16"/>
  <path d="M96,216H48a8,8,0,0,1-8-8V163.31371a8,8,0,0,1,2.34315-5.65686l120-120a8,8,0,0,1,11.3137,0l44.6863,44.6863a8,8,0,0,1,0,11.3137Z" fill="none" stroke="#000" stroke-linecap="round" stroke-linejoin="round" stroke-width="16"/>
</svg>
