<svg id="Layer_1" data-name="Layer 1" xmlns="http://www.w3.org/2000/svg" viewBox="0 0 256 256">
  <rect width="256" height="256" fill="none"/>
  <path d="M208.00586,176.05115V40a16.01833,16.01833,0,0,0-16-16h-128a16.01833,16.01833,0,0,0-16,16V176.05334c0,.01667-.00025.03315,0,.04981V224a7.99994,7.99994,0,0,0,11.88525,6.99316L127.999,193.15137l68.12207,37.84179A8.00006,8.00006,0,0,0,208.00586,224V176.10352C208.0061,176.08606,208.00574,176.0686,208.00586,176.05115Zm-76.12256.95569a7.9988,7.9988,0,0,0-7.77,0L64.00586,210.40332V180.707l63.99316-35.5556,64.00684,35.55578V210.4043Z"/>
</svg>
