<svg id="Raw" xmlns="http://www.w3.org/2000/svg" viewBox="0 0 256 256">
  <rect width="256" height="256" fill="none"/>
  <path d="M223.73633,32.26367a16.01051,16.01051,0,0,0-15.65723-4.085L21.751,80.73242a15.9995,15.9995,0,0,0-2.50586,29.8584l77.93359,36.916,53.28223-53.28223a8.00052,8.00052,0,0,1,11.31445,11.31445l-53.28223,53.28223,36.916,77.93359a15.85235,15.85235,0,0,0,14.41406,9.15235q.687,0,1.38379-.05762A15.86994,15.86994,0,0,0,175.26758,234.249L227.82129,47.9209A16.0173,16.0173,0,0,0,223.73633,32.26367Z"/>
</svg>
