<svg id="Raw" xmlns="http://www.w3.org/2000/svg" viewBox="0 0 256 256">
  <rect width="256" height="256" fill="none"/>
  <path d="M210.25072,35.878,23.923,88.432a8,8,0,0,0-1.253,14.9295l85.61084,40.5525a8.00008,8.00008,0,0,1,3.80521,3.80521L152.63852,233.33a8,8,0,0,0,14.9295-1.253L220.122,45.74928A8,8,0,0,0,210.25072,35.878Z" opacity="0.2"/>
  <path d="M210.25072,35.878,23.923,88.432a8,8,0,0,0-1.253,14.9295l85.61084,40.5525a8.00008,8.00008,0,0,1,3.80521,3.80521L152.63852,233.33a8,8,0,0,0,14.9295-1.253L220.122,45.74928A8,8,0,0,0,210.25072,35.878Z" fill="none" stroke="#000" stroke-linecap="round" stroke-linejoin="round" stroke-width="16"/>
  <line x1="110.86292" y1="145.13708" x2="156.11775" y2="99.88225" fill="none" stroke="#000" stroke-linecap="round" stroke-linejoin="round" stroke-width="16"/>
</svg>
