<svg id="Raw" xmlns="http://www.w3.org/2000/svg" viewBox="0 0 256 256">
  <rect width="256" height="256" fill="none"/>
  <path d="M200,80H184V64a31.97943,31.97943,0,0,0-56-21.13208A31.97443,31.97443,0,0,0,72.20508,60.4231,31.978,31.978,0,0,0,24,88v40a104,104,0,0,0,208,0V112A32.03635,32.03635,0,0,0,200,80ZM152,48a16.01833,16.01833,0,0,1,16,16V80H136V64A16.01833,16.01833,0,0,1,152,48ZM88,64a16,16,0,0,1,32,0v40a16,16,0,0,1-32,0V64ZM40,88a16,16,0,0,1,32,0v16a16,16,0,0,1-32,0Zm88,128a88.10627,88.10627,0,0,1-87.9209-84.249A31.94065,31.94065,0,0,0,80,125.13208a31.92587,31.92587,0,0,0,44.58057,3.34595,32.23527,32.23527,0,0,0,11.79443,11.4414A47.906,47.906,0,0,0,120,176a8,8,0,0,0,16,0,32.03635,32.03635,0,0,1,32-32,8,8,0,0,0,0-16H152a16.01833,16.01833,0,0,1-16-16V96h64a16.01833,16.01833,0,0,1,16,16v16A88.09957,88.09957,0,0,1,128,216Z"/>
</svg>
