<svg id="Raw" xmlns="http://www.w3.org/2000/svg" viewBox="0 0 256 256">
  <rect width="256" height="256" fill="none"/>
  <path d="M232,76.68652,179.31348,23.999A16.02162,16.02162,0,0,0,156.68555,24L132,48.686l37.65723,37.65722a8.00018,8.00018,0,0,1-11.31446,11.31348L120.686,60,96,84.686l37.65723,37.65722a8.00018,8.00018,0,0,1-11.31446,11.31348L84.686,96,60,120.686l37.65723,37.65722a8.00018,8.00018,0,0,1-11.31446,11.31348L48.686,132,24.001,156.68555A15.99888,15.99888,0,0,0,24,179.31348L76.68652,232.001A16.02252,16.02252,0,0,0,99.31445,232L232,99.31348a15.9989,15.9989,0,0,0,0-22.627Z"/>
</svg>
