<svg id="Layer_1" data-name="Layer 1" xmlns="http://www.w3.org/2000/svg" viewBox="0 0 256 256">
  <rect width="256" height="256" fill="none"/>
  <g>
    <path d="M104,176H80V152a8,8,0,0,0-16,0v24H40a8,8,0,0,0,0,16H64v24a8,8,0,0,0,16,0V192h24a8,8,0,0,0,0-16Z"/>
    <path d="M104,64H40a8,8,0,0,0,0,16h64a8,8,0,0,0,0-16Z"/>
    <path d="M152,176.06641h64a8,8,0,0,0,0-16H152a8,8,0,0,0,0,16Z"/>
    <path d="M216,191.93359H152a8,8,0,0,0,0,16h64a8,8,0,0,0,0-16Z"/>
    <path d="M154.34326,101.65674a7.99945,7.99945,0,0,0,11.31348,0L184,83.31348l18.34326,18.34326a7.99984,7.99984,0,1,0,11.31348-11.31348L195.3136,72l18.34314-18.34326a7.99984,7.99984,0,0,0-11.31348-11.31348L184,60.68652,165.65674,42.34326a7.99984,7.99984,0,0,0-11.31348,11.31348L172.6864,72,154.34326,90.34326A7.99915,7.99915,0,0,0,154.34326,101.65674Z"/>
  </g>
</svg>
