<svg id="Raw" xmlns="http://www.w3.org/2000/svg" viewBox="0 0 256 256">
  <rect width="256" height="256" fill="none"/>
  <path d="M221.65723,34.34326A8.00246,8.00246,0,0,0,216,32h-.02539l-63.79883.20117A8.00073,8.00073,0,0,0,146.0332,35.106L75.637,120.32275,67.31348,111.999A16.02162,16.02162,0,0,0,44.68555,112L32.001,124.68555A15.99888,15.99888,0,0,0,32,147.31348l20.88672,20.88769L22.94531,198.14258a16.01777,16.01777,0,0,0,.001,22.62695l12.28418,12.28418a16.00007,16.00007,0,0,0,22.62793,0L87.79883,203.1123,108.68652,224.001A16.02251,16.02251,0,0,0,131.31445,224L143.999,211.31445A15.99888,15.99888,0,0,0,144,188.68652l-8.32324-8.32324,85.21679-70.39648a8.00125,8.00125,0,0,0,2.90528-6.14258L224,40.02539A8.001,8.001,0,0,0,221.65723,34.34326Zm-13.84668,65.67822-83.49829,68.97706L111.314,156l54.34327-54.34277a8.00053,8.00053,0,0,0-11.31446-11.31446L100,144.686,87.00195,131.6875,155.97852,48.189l51.99609-.16357Z"/>
</svg>
