<svg id="Raw" xmlns="http://www.w3.org/2000/svg" viewBox="0 0 256 256">
  <rect width="256" height="256" fill="none"/>
  <polyline points="76.201 132.201 152.201 40.201 216 40 215.799 103.799 123.799 179.799" fill="none" stroke="#000" stroke-linecap="round" stroke-linejoin="round" stroke-width="16"/>
  <line x1="100" y1="156" x2="160" y2="96" fill="none" stroke="#000" stroke-linecap="round" stroke-linejoin="round" stroke-width="16"/>
  <path d="M82.14214,197.45584,52.201,227.397a8,8,0,0,1-11.31371,0L28.603,215.11268a8,8,0,0,1,0-11.31371l29.94113-29.94112a8,8,0,0,0,0-11.31371L37.65685,141.65685a8,8,0,0,1,0-11.3137l12.6863-12.6863a8,8,0,0,1,11.3137,0l76.6863,76.6863a8,8,0,0,1,0,11.3137l-12.6863,12.6863a8,8,0,0,1-11.3137,0L93.45584,197.45584A8,8,0,0,0,82.14214,197.45584Z" fill="none" stroke="#000" stroke-linecap="round" stroke-linejoin="round" stroke-width="16"/>
</svg>
