<svg id="Layer_1" data-name="Layer 1" xmlns="http://www.w3.org/2000/svg" viewBox="0 0 256 256">
  <rect width="256" height="256" fill="none"/>
  <path d="M102.61513,167.99973c5.44754,16.2404,14.03928,30.92382,25.38487,42.4452,11.34559-11.52138,19.93733-26.2048,25.38487-42.4452Z"/>
  <path d="M176,127.99962a145.91824,145.91824,0,0,1-2.12654,24.00006l55.21916-.00005a100.51207,100.51207,0,0,0,0-48l-55.21916-.00005A145.91826,145.91826,0,0,1,176,127.99962Z"/>
  <path d="M160,127.99962a127.02169,127.02169,0,0,0-2.31053-24.0001H98.3115a125.75116,125.75116,0,0,0,0,48.00019h59.378A127.02166,127.02166,0,0,0,160,127.99962Z"/>
  <path d="M133.25,28.54649c17.62492,15.35931,30.26942,36.05256,37.05021,59.45305H223.976a104.14576,104.14576,0,0,0-95.93788-63.998Z"/>
  <path d="M85.69979,87.99954c6.78079-23.40049,19.42529-44.09374,37.05021-59.453l5.21191-4.54492a104.14439,104.14439,0,0,0-95.9369,63.998Z"/>
  <path d="M170.30021,167.99969c-6.78079,23.40049-19.42529,44.09374-37.05021,59.45305l-5.21191,4.54492a104.14425,104.14425,0,0,0,95.93788-63.998Z"/>
  <path d="M122.75,227.45274c-17.62492-15.35931-30.26942-36.05256-37.05021-59.45305H32.025a104.14288,104.14288,0,0,0,95.9369,63.998Z"/>
  <path d="M153.38487,87.9995C147.93733,71.7591,139.34559,57.07568,128,45.5543c-11.34559,11.52138-19.93733,26.2048-25.38487,42.4452Z"/>
  <path d="M26.90738,103.9996a100.51207,100.51207,0,0,0,0,48l55.21916.00005A145.91824,145.91824,0,0,1,80,127.99962a145.91826,145.91826,0,0,1,2.12654-24.00007Z"/>
</svg>
