<svg id="Layer_1" data-name="Layer 1" xmlns="http://www.w3.org/2000/svg" viewBox="0 0 256 256">
  <rect x="0.00049" width="255.99951" height="256" fill="none"/>
  <g>
    <path d="M102.61523,167.99963C108.0625,184.24011,116.6543,198.92346,128,210.445c11.3457-11.52149,19.9375-26.20484,25.38477-42.44532Z"/>
    <path d="M229.09277,103.99963l-55.21923-.00012A145.92622,145.92622,0,0,1,176,127.99963a145.92573,145.92573,0,0,1-2.12646,24h55.21923a100.517,100.517,0,0,0,0-48Z"/>
    <path d="M96,127.99963a127.01715,127.01715,0,0,0,2.31152,24h59.37793a125.80155,125.80155,0,0,0,0-48.00012H98.31152A127.01857,127.01857,0,0,0,96,127.99963Z"/>
    <path d="M170.30029,87.99951h53.67578a104.14554,104.14554,0,0,0-95.938-63.99792L133.25,28.54651C150.875,43.90576,163.51953,64.599,170.30029,87.99951Z"/>
    <path d="M122.75,28.54651l5.21191-4.54492a104.14419,104.14419,0,0,0-95.937,63.99792H85.69971C92.48047,64.599,105.125,43.90576,122.75,28.54651Z"/>
    <path d="M133.25,227.45276l-5.21191,4.54492a104.14414,104.14414,0,0,0,95.938-63.99805H170.30029C163.51953,191.40015,150.875,212.09338,133.25,227.45276Z"/>
    <path d="M85.69971,167.99963H32.0249a104.14279,104.14279,0,0,0,95.937,63.99805L122.75,227.45276C105.125,212.09338,92.48047,191.40015,85.69971,167.99963Z"/>
    <path d="M153.38477,87.99951C147.9375,71.75916,139.3457,57.07568,128,45.55432c-11.3457,11.52136-19.9375,26.20484-25.38477,42.44519Z"/>
    <path d="M80,127.99963a145.92622,145.92622,0,0,1,2.12646-24.00012l-55.21923.00012a100.517,100.517,0,0,0,0,48H82.12646A145.92573,145.92573,0,0,1,80,127.99963Z"/>
  </g>
</svg>
