<svg id="Layer_1" data-name="Layer 1" xmlns="http://www.w3.org/2000/svg" viewBox="0 0 256 256">
  <g>
    <path d="M78.07422,74.794a7.99912,7.99912,0,0,0-11.28076-.86817l-56,48a8.00075,8.00075,0,0,0,0,12.14844l56,48a8.00026,8.00026,0,0,0,10.41308-12.14844L28.293,128,77.20654,86.07422A8.00035,8.00035,0,0,0,78.07422,74.794Z"/>
    <path d="M245.20654,121.92578l-56-48a8.00026,8.00026,0,0,0-10.41308,12.14844L227.707,128l-48.91357,41.92578a8.00026,8.00026,0,0,0,10.41308,12.14844l56-48a8.00075,8.00075,0,0,0,0-12.14844Z"/>
    <path d="M162.52979,24.41016a8.00026,8.00026,0,0,0-10.11915,5.05957l-64,192a8,8,0,1,0,15.17872,5.06054l64-192A8.00052,8.00052,0,0,0,162.52979,24.41016Z"/>
  </g>
</svg>
