<svg id="Layer_1" data-name="Layer 1" xmlns="http://www.w3.org/2000/svg" viewBox="0 0 256 256">
  <g>
    <path d="M70.146,82.87891a8.00043,8.00043,0,0,0-11.26758-1.02442l-48,40a7.99963,7.99963,0,0,0,0,12.291l48,40a7.99987,7.99987,0,1,0,10.24316-12.291L28.49658,128l40.625-33.85449A7.99977,7.99977,0,0,0,70.146,82.87891Z"/>
    <path d="M245.12158,121.85449l-48-40a7.99987,7.99987,0,1,0-10.24316,12.291L227.50342,128l-40.625,33.85449a7.99987,7.99987,0,1,0,10.24316,12.291l48-40a7.99963,7.99963,0,0,0,0-12.291Z"/>
    <path d="M162.73389,32.48145a8.005,8.005,0,0,0-10.25244,4.78418l-64,176a8.00034,8.00034,0,1,0,15.0371,5.46875l64-176A8.0008,8.0008,0,0,0,162.73389,32.48145Z"/>
  </g>
</svg>
