<svg id="Raw" xmlns="http://www.w3.org/2000/svg" viewBox="0 0 256 256">
  <rect width="256" height="256" fill="none"/>
  <path d="M231.76978,134.8335a8.01081,8.01081,0,0,0,.07861-1.23633Q231.99652,130.81689,232,128a103.4965,103.4965,0,0,0-22.96765-65.10937,7.99721,7.99721,0,0,0-1.39539-1.69776,104.47716,104.47716,0,0,0-41.09863-29.78662,7.94558,7.94558,0,0,0-1.14416-.44824,103.96223,103.96223,0,0,0-74.78968.00049,7.97953,7.97953,0,0,0-1.14245.44775A104.47726,104.47726,0,0,0,48.36353,61.19238a7.99972,7.99972,0,0,0-1.39612,1.69825A103.49872,103.49872,0,0,0,24,128q0,2.81982.1521,5.60352A7.99281,7.99281,0,0,0,24.23,134.8291a103.303,103.303,0,0,0,15.69409,48.41211,7.99155,7.99155,0,0,0,1.05615,1.64307,104.37857,104.37857,0,0,0,60.27588,43.62353c.10743.03565.21851.05762.32752.08887a104.21832,104.21832,0,0,0,52.82971.00049c.11011-.03125.22241-.05371.33093-.08936a104.38026,104.38026,0,0,0,60.27552-43.62353,7.99155,7.99155,0,0,0,1.05615-1.64307A103.30408,103.30408,0,0,0,231.76978,134.8335ZM68.53931,117.0918l13.1676,4.27832,12.738,39.2041L86.30713,171.7749l-34.6377-.01806a87.36716,87.36716,0,0,1-11.15771-34.2793Zm118.92151,0,28.02746,20.38574a87.36716,87.36716,0,0,1-11.15771,34.2793l-34.6377.01806-8.13782-11.20068,12.738-39.2041Zm5.73291-48.13819L182.51624,101.875l-13.16749,4.27832L136,81.92383V68.07861l28.04492-20.353A88.44244,88.44244,0,0,1,193.19373,68.95361ZM91.95532,47.72559,120,68.07861V81.92383L86.65125,106.15332,73.48376,101.875,62.8064,68.95361A88.44288,88.44288,0,0,1,91.95532,47.72559Zm18.02539,166.4165-10.72937-32.9624,8.13782-11.20117h41.22168l8.13782,11.20117-10.72925,32.9624a88.31128,88.31128,0,0,1-36.0387,0Z"/>
</svg>
