<svg id="Raw" xmlns="http://www.w3.org/2000/svg" viewBox="0 0 256 256">
  <rect width="256" height="256" fill="none"/>
  <circle cx="128" cy="128" r="96" fill="none" stroke="#000" stroke-linecap="round" stroke-linejoin="round" stroke-width="12"/>
  <polygon points="128 86 88.056 115.021 103.313 161.979 152.687 161.979 167.944 115.021 128 86" fill="none" stroke="#000" stroke-linecap="round" stroke-linejoin="round" stroke-width="12"/>
  <line x1="128" y1="64" x2="128" y2="86" fill="none" stroke="#000" stroke-linecap="round" stroke-linejoin="round" stroke-width="12"/>
  <polyline points="163.016 38.587 128 64 92.984 38.587" fill="none" stroke="#000" stroke-linecap="round" stroke-linejoin="round" stroke-width="12"/>
  <line x1="67.13238" y1="108.22291" x2="88.05563" y2="115.02129" fill="none" stroke="#000" stroke-linecap="round" stroke-linejoin="round" stroke-width="12"/>
  <polyline points="53.784 67.067 67.132 108.223 32.143 133.672" fill="none" stroke="#000" stroke-linecap="round" stroke-linejoin="round" stroke-width="12"/>
  <line x1="90.38174" y1="179.77709" x2="103.31302" y2="161.97871" fill="none" stroke="#000" stroke-linecap="round" stroke-linejoin="round" stroke-width="12"/>
  <polyline points="47.116 179.754 90.382 179.777 103.773 220.918" fill="none" stroke="#000" stroke-linecap="round" stroke-linejoin="round" stroke-width="12"/>
  <line x1="165.61826" y1="179.77709" x2="152.68698" y2="161.97871" fill="none" stroke="#000" stroke-linecap="round" stroke-linejoin="round" stroke-width="12"/>
  <polyline points="152.227 220.919 165.618 179.777 208.884 179.754" fill="none" stroke="#000" stroke-linecap="round" stroke-linejoin="round" stroke-width="12"/>
  <line x1="188.86762" y1="108.22291" x2="167.94437" y2="115.02129" fill="none" stroke="#000" stroke-linecap="round" stroke-linejoin="round" stroke-width="12"/>
  <polyline points="223.857 133.673 188.868 108.223 202.216 67.068" fill="none" stroke="#000" stroke-linecap="round" stroke-linejoin="round" stroke-width="12"/>
</svg>
