<svg id="Raw" xmlns="http://www.w3.org/2000/svg" viewBox="0 0 256 256">
  <rect width="256" height="256" fill="none"/>
  <path d="M209.65479,122.3418a8,8,0,0,1-.00733,11.31347l-82.05322,81.94629a56.00006,56.00006,0,0,1-79.1919-79.20019L147.6709,35.751A39.99954,39.99954,0,1,1,204.27832,92.2793l-99.269,100.65136A23.99954,23.99954,0,1,1,71.02979,159.0293L154.291,74.38477a8.0001,8.0001,0,0,1,11.40625,11.2207L82.38965,170.29688a8,8,0,1,0,11.2666,11.36035L192.92578,81.00488a23.99971,23.99971,0,1,0-33.90185-33.97949L59.75488,147.67578a40.00024,40.00024,0,1,0,56.5293,56.6084L198.34082,122.335A7.99885,7.99885,0,0,1,209.65479,122.3418Z"/>
</svg>
