<svg id="Raw" xmlns="http://www.w3.org/2000/svg" viewBox="0 0 256 256">
  <rect width="256" height="256" fill="none"/>
  <path d="M160,80a8.00039,8.00039,0,0,1,8-8h72a8,8,0,0,1,0,16H168A8.00039,8.00039,0,0,1,160,80Zm80,88H168a8,8,0,0,0,0,16h72a8,8,0,0,0,0-16Zm0-64H168a8,8,0,0,0,0,16h72a8,8,0,0,0,0-16Zm0,32H168a8,8,0,0,0,0,16h72a8,8,0,0,0,0-16ZM128,48H88.90381C44.61914,48,8.32715,83.61621,8.002,127.39453A79.99987,79.99987,0,0,0,88,208h40a16.01833,16.01833,0,0,0,16-16V64A16.01833,16.01833,0,0,0,128,48Z"/>
</svg>
