<svg xmlns="http://www.w3.org/2000/svg" width="16" height="16" viewBox="0 0 16 16">
  <g fill="none" fill-rule="evenodd">
    <polygon points="0 16 16 16 16 0 0 0"/>
    <path fill="#000" d="M14.4997,5.076 L14.4997,12 C14.4997,12.551 14.0517,13 13.4997,13 L13.4997,13 L2.4997,13 C1.9487,13 1.4997,12.551 1.4997,12 L1.4997,12 L1.4997,5.077 L6.9877,10.107 C7.2647,10.36 7.6247,10.5 7.9997,10.5 C8.3757,10.5 8.7347,10.36 9.0137,10.106 L9.0137,10.106 L14.4997,5.076 Z M14.0001,2.9997 C14.2061,2.9997 14.3911,3.1267 14.4661,3.3187 C14.5401,3.5107 14.4901,3.7297 14.3381,3.8687 L14.3381,3.8687 L8.3381,9.3687 C8.2421,9.4557 8.1211,9.4997 8.0001,9.4997 C7.8791,9.4997 7.7581,9.4557 7.6621,9.3687 L7.6621,9.3687 L1.6621,3.8687 C1.5101,3.7297 1.4591,3.5107 1.5341,3.3187 C1.6091,3.1267 1.7941,2.9997 2.0001,2.9997 L2.0001,2.9997 Z"/>
  </g>
</svg>
