<svg xmlns="http://www.w3.org/2000/svg" width="16" height="16" viewBox="0 0 16 16">
  <g fill="none" fill-rule="evenodd">
    <polygon points="0 16 16 16 16 0 0 0"/>
    <path fill="#000" fill-rule="nonzero" d="M14.0108593,3.25013596 L14.0256242,3.25119715 C14.0408406,3.25274634 14.0556532,3.25566016 14.069938,3.25981426 C14.0743992,3.26113929 14.0788182,3.26255651 14.0832015,3.26409887 C14.0984271,3.26945796 14.1128856,3.27621644 14.1265173,3.28423042 C14.1305463,3.28655442 14.1348998,3.28928275 14.1391819,3.29215665 C14.153827,3.30205153 14.1671751,3.31321429 14.179245,3.32562638 C14.1806762,3.32708933 14.1824943,3.32901154 14.1842885,3.33096884 C14.2261572,3.37801846 14.25,3.43617484 14.25,3.4999 L14.25,3.4999 L14.25,11.9999 C14.25,12.4139712 13.9140712,12.7499 13.5,12.7499 L13.5,12.7499 L2.5,12.7499 C2.08592881,12.7499 1.75,12.4139712 1.75,11.9999 L1.75,11.9999 L1.75,3.4999 C1.75,3.43617484 1.77384282,3.37801846 1.8130943,3.33386505 C1.81402341,3.33282404 1.8148633,3.33189411 1.81571146,3.33096884 C1.83282492,3.31321429 1.84617298,3.30205153 1.86058668,3.29235058 L1.81571146,3.33096884 C1.83310603,3.31199296 1.85275456,3.29631595 1.87387158,3.28397197 C1.88711436,3.27621644 1.90157293,3.26945796 1.91669946,3.26411389 C1.9211818,3.26255651 1.92560077,3.26113929 1.93004977,3.25984746 C1.95225566,3.25336018 1.97572375,3.2499 2,3.2499 L1.97293898,3.25136564 C1.97832583,3.25078126 1.98372946,3.25037123 1.98914069,3.25013596 L14.0108593,3.25013596 L14.0108593,3.25013596 Z M13.75,4.0669 L8.16893116,9.18418854 C8.0892809,9.25720127 7.97412968,9.26937006 7.88264577,9.2206949 L7.83106884,9.18418854 L2.25,4.0679 L2.25,11.9999 C2.25,12.0944798 2.30269633,12.1769012 2.38029152,12.2193667 L2.44272212,12.2432899 L2.5,12.2499 L13.5,12.2499 C13.6379288,12.2499 13.75,12.1378288 13.75,11.9999 L13.75,11.9999 L13.75,4.0669 Z M13.358,3.7489 L2.641,3.7489 L8,8.661 L13.358,3.7489 Z"/>
  </g>
</svg>
