<svg xmlns="http://www.w3.org/2000/svg" width="16" height="16" viewBox="0 0 16 16">
  <g fill="none" fill-rule="evenodd">
    <polygon points="0 16 16 16 16 0 0 0"/>
    <path fill="#000" fill-rule="nonzero" d="M14.0875459,3.13522324 L14.1215171,3.14502656 C14.1305266,3.14811086 14.1393813,3.1515286 14.1480667,3.15526507 C14.1619943,3.16120857 14.1762947,3.16841369 14.1901689,3.17658064 C14.1989191,3.18179978 14.2070602,3.18705023 14.214977,3.19259883 C14.221539,3.19713751 14.2280357,3.20200969 14.2344002,3.20711802 C14.2479237,3.21802199 14.2605519,3.22965948 14.2723361,3.24210418 C14.2733521,3.24317236 14.2748983,3.24482926 14.2764328,3.24650326 L14.2934204,3.26636156 C14.3014407,3.27642501 14.3089541,3.2869103 14.315922,3.29777881 L14.2764328,3.24650326 C14.3004536,3.27270775 14.3200475,3.30140296 14.3352547,3.33166952 C14.3403165,3.34173355 14.3451468,3.35254619 14.3494664,3.36361443 C14.3538905,3.37498264 14.3576869,3.38634238 14.3609234,3.39782055 C14.370066,3.43004436 14.375,3.46439598 14.375,3.4999 L14.3697663,3.43719955 C14.3711683,3.44551523 14.3722882,3.45386658 14.3731267,3.46223838 L14.375,3.4999 L14.375,11.9999 C14.375,12.4830068 13.9831068,12.8749 13.5,12.8749 L13.5,12.8749 L2.5,12.8749 C2.01689322,12.8749 1.625,12.4830068 1.625,11.9999 L1.625,11.9999 L1.625,3.4999 C1.625,3.49172473 1.62526161,3.48361057 1.6257769,3.47556542 C1.62657594,3.46281442 1.62813187,3.44945171 1.63040682,3.43618149 C1.63267519,3.4228887 1.63559525,3.41005694 1.63915374,3.39749341 C1.64231313,3.38634238 1.64610952,3.37498264 1.65046756,3.36378366 C1.65485324,3.35254619 1.65968349,3.34173355 1.66499543,3.33120548 C1.67051169,3.32019282 1.67690879,3.30894205 1.68393882,3.29796735 C1.69104588,3.2869103 1.69855929,3.27642501 1.70657957,3.26636156 C1.71180082,3.25979942 1.71754488,3.25307306 1.7235672,3.24650326 C1.73944814,3.22965948 1.75207626,3.21802199 1.76545663,3.20728329 L1.7235672,3.24650326 C1.74244896,3.22590498 1.7631013,3.20789809 1.78507769,3.192502 C1.79293983,3.18705023 1.80108089,3.18179978 1.80942991,3.17686378 C1.82370533,3.16841369 1.83800574,3.16120857 1.85263285,3.15496962 C1.86061867,3.1515286 1.86947344,3.14811086 1.87848292,3.14502656 C1.89015997,3.14109805 1.90125506,3.13790096 1.9124541,3.13522324 L1.92442442,3.13251867 L1.92442442,3.13251867 L1.95139388,3.1280548 C1.96576179,3.12618418 1.98022418,3.12514358 1.99470302,3.12493641 L2,3.1249 L14,3.1249 C14.0020711,3.1249 14.0041382,3.12491679 14.0062013,3.12495024 C14.0201036,3.12518619 14.0338939,3.12617822 14.0476,3.12792519 C14.0572278,3.12911942 14.0664619,3.13065374 14.0755756,3.13251867 L14.0875459,3.13522324 L14.0875459,3.13522324 Z M13.625,4.3519 L8.25339674,9.2763328 C8.13050776,9.38898103 7.95128095,9.40507363 7.81229545,9.32461061 L7.74660326,9.2763328 L2.375,4.3529 L2.375,11.9999 C2.375,12.0412359 2.39519844,12.0779687 2.42623813,12.1007412 L2.460545,12.1185137 L2.5,12.1249 L13.5,12.1249 C13.5688932,12.1249 13.625,12.0687932 13.625,11.9999 L13.625,11.9999 L13.625,4.3519 Z M13.036,3.8739 L2.963,3.8739 L8,8.491 L13.036,3.8739 Z"/>
  </g>
</svg>
