<svg xmlns="http://www.w3.org/2000/svg" width="16" height="16" viewBox="0 0 16 16">
  <g fill="none" fill-rule="evenodd">
    <polygon points="0 16 16 16 16 0 0 0"/>
    <path fill="#000" fill-rule="nonzero" d="M14.1993797,2.77669072 C14.2526505,2.79134386 14.3035485,2.81172514 14.35137,2.83713068 C14.3739633,2.84902738 14.3964318,2.86246256 14.4182784,2.87716225 C14.4656402,2.90916426 14.5091188,2.9462627 14.5479348,2.98777558 C14.5490872,2.98900713 14.5509808,2.99105037 14.5528656,2.99310653 L14.5622817,3.0035607 C14.5813795,3.02517929 14.5992499,3.04790763 14.6157838,3.07163665 L14.5528656,2.99310653 C14.5851766,3.02835493 14.6134828,3.06585664 14.6378084,3.10505228 C14.651357,3.12693572 14.6639639,3.14980566 14.6753746,3.17336289 C14.6799011,3.1826863 14.6838071,3.1911924 14.6875445,3.19975198 C14.727541,3.29089718 14.75,3.3927758 14.75,3.4999 L14.75,3.4999 L14.75,11.9999 C14.75,12.6901136 14.1902136,13.2499 13.5,13.2499 L13.5,13.2499 L2.5,13.2499 C1.80978644,13.2499 1.25,12.6901136 1.25,11.9999 L1.25,11.9999 L1.25024927,3.48013487 C1.2505252,3.46949795 1.25102629,3.45886394 1.25175289,3.4482406 C1.25335063,3.42503842 1.25589648,3.40279771 1.25939242,3.38087386 C1.26078268,3.37228383 1.26246109,3.36286539 1.26432103,3.35347402 C1.26899902,3.32978449 1.27461329,3.30720824 1.28122321,3.2850614 C1.28493976,3.27267759 1.28900417,3.26023461 1.29340443,3.24788027 C1.30107186,3.22638768 1.30954664,3.20568488 1.318895,3.18546872 C1.32314391,3.17620052 1.3278876,3.16647101 1.33285594,3.15682364 C1.34367077,3.13593559 1.35515768,3.11600219 1.36750638,3.09667256 C1.37406175,3.08635231 1.38104751,3.07599322 1.38832221,3.06577057 C1.40347426,3.04449614 1.41965601,3.02407832 1.43683639,3.0045608 C1.44016235,3.00079052 1.44362475,2.99693523 1.44713439,2.99310653 C1.49088125,2.9462627 1.53435978,2.90916426 1.58166594,2.8773151 C1.60356815,2.86246256 1.62603668,2.84902738 1.64902089,2.83686134 C1.69645148,2.81172514 1.74734955,2.79134386 1.80062029,2.77669072 L1.81215881,2.77371298 C1.82138398,2.77133593 1.8306472,2.76913628 1.83994299,2.76711427 C1.89148668,2.75580878 1.9450533,2.7499 2,2.7499 L1.90715765,2.75565365 C1.926176,2.75329046 1.94527355,2.75165363 1.96440514,2.7507451 L2,2.7499 L14,2.7499 C14.0126451,2.7499 14.0252172,2.75021294 14.0377088,2.7508315 C14.0560647,2.75176923 14.0744904,2.75337327 14.0928423,2.75565365 C14.1156026,2.7584004 14.1380321,2.76222733 14.1600991,2.76702559 C14.1693528,2.76913628 14.178616,2.77133593 14.1878412,2.77371298 Z M13.25,5.2029 L8.50679347,9.55276561 C8.24872663,9.78932688 7.86643484,9.81298301 7.58352301,9.62373399 L7.49320653,9.55276561 L2.75,5.2039 L2.75,11.749 L13.25,11.749 L13.25,5.2029 Z M12.072,4.2489 L3.926,4.2489 L7.999,7.983 L12.072,4.2489 Z"/>
  </g>
</svg>
