<svg id="Raw" xmlns="http://www.w3.org/2000/svg" viewBox="0 0 256 256">
  <rect width="256" height="256" fill="none"/>
  <line x1="88" y1="232" x2="168" y2="232" fill="none" stroke="#000" stroke-linecap="round" stroke-linejoin="round" stroke-width="16"/>
  <line x1="128" y1="200" x2="128" y2="144" fill="none" stroke="#000" stroke-linecap="round" stroke-linejoin="round" stroke-width="16"/>
  <polyline points="96 112 128 144 160 112" fill="none" stroke="#000" stroke-linecap="round" stroke-linejoin="round" stroke-width="16"/>
  <path d="M78.70372,167.0114a79.86047,79.86047,0,0,1-30.70247-62.55993C47.76163,61.08915,82.72,25.04306,126.071,24.02272a80.00322,80.00322,0,0,1,51.34165,142.89737,24.288,24.288,0,0,0-9.4124,19.05581l-.00009,6.02423a8,8,0,0,1-8,7.99987H95.99986a8,8,0,0,1-8-7.99986l-.0001-6.0311A24.10047,24.10047,0,0,0,78.70372,167.0114Z" fill="none" stroke="#000" stroke-linecap="round" stroke-linejoin="round" stroke-width="16"/>
</svg>
