<svg id="Raw" xmlns="http://www.w3.org/2000/svg" viewBox="0 0 256 256">
  <rect width="256" height="256" fill="none"/>
  <line x1="128" y1="192" x2="128" y2="144" fill="none" stroke="#000" stroke-linecap="round" stroke-linejoin="round" stroke-width="24"/>
  <polyline points="96 112 128 144 160 112" fill="none" stroke="#000" stroke-linecap="round" stroke-linejoin="round" stroke-width="24"/>
  <line x1="88" y1="232" x2="168" y2="232" fill="none" stroke="#000" stroke-linecap="round" stroke-linejoin="round" stroke-width="24"/>
  <path d="M79.96682,167.98091A79.87808,79.87808,0,0,1,48.00125,104.4514C47.76163,61.08915,82.72,25.04306,126.071,24.02272A80.00431,80.00431,0,0,1,175.845,168.122a19.791,19.791,0,0,0-7.84468,15.87805v.00023a8,8,0,0,1-8,7.99971H95.99967a8,8,0,0,1-8-7.99967v-.22676A19.80385,19.80385,0,0,0,79.96682,167.98091Z" fill="none" stroke="#000" stroke-linecap="round" stroke-linejoin="round" stroke-width="24"/>
</svg>
