<svg id="Raw" xmlns="http://www.w3.org/2000/svg" viewBox="0 0 256 256">
  <rect width="256" height="256" fill="none"/>
  <path d="M176,140a12,12,0,1,1-12-12A12.01343,12.01343,0,0,1,176,140ZM92,128a12,12,0,1,0,12,12A12.01343,12.01343,0,0,0,92,128ZM240,64v80a72.08124,72.08124,0,0,1-72,72H88a72.08124,72.08124,0,0,1-72-72V64a32.00221,32.00221,0,0,1,62.98779-8h98.02442A32.00221,32.00221,0,0,1,240,64Zm-40,72a31.99971,31.99971,0,0,0-32-32H88a32,32,0,0,0-32,32v8a32.00034,32.00034,0,0,0,32,32h80a32,32,0,0,0,32-32Z"/>
</svg>
