<svg id="Raw" xmlns="http://www.w3.org/2000/svg" viewBox="0 0 256 256">
  <rect width="256" height="256" fill="none"/>
  <path d="M208,40a23.99994,23.99994,0,0,0-24,24H72a24,24,0,0,0-48,0v80a64,64,0,0,0,64,64h80a64,64,0,0,0,64-64V64A23.99994,23.99994,0,0,0,208,40Zm-8,104a32,32,0,0,1-32,32H88a32.00034,32.00034,0,0,1-32-32v-8a32,32,0,0,1,32-32h80a31.99971,31.99971,0,0,1,32,32Z" opacity="0.2"/>
  <rect x="56" y="104.00002" width="144" height="72" rx="32" stroke-width="16" stroke="#000" stroke-linecap="round" stroke-linejoin="round" fill="none"/>
  <circle cx="164" cy="140" r="4" fill="none" stroke="#000" stroke-linecap="round" stroke-linejoin="round" stroke-width="16"/>
  <circle cx="92" cy="140" r="4" fill="none" stroke="#000" stroke-linecap="round" stroke-linejoin="round" stroke-width="16"/>
  <path d="M24,64a24,24,0,0,1,48,0H184a24,24,0,0,1,48,0v80a64,64,0,0,1-64,64H88a64,64,0,0,1-64-64Z" fill="none" stroke="#000" stroke-linecap="round" stroke-linejoin="round" stroke-width="16"/>
</svg>
