<svg id="Layer_1" data-name="Layer 1" xmlns="http://www.w3.org/2000/svg" viewBox="0 0 256 256">
  <rect width="256" height="256" fill="none"/>
  <path d="M123.89844,184A35.76955,35.76955,0,0,1,98.4375,173.45313a8.00467,8.00467,0,1,1,11.32813-11.3125c7.53125,7.5625,20.73437,7.5625,28.26562,0a19.97387,19.97387,0,0,0,.00781-28.27344c-7.54687-7.57813-20.74218-7.57031-28.27343-.00781a8.00314,8.00314,0,0,1-13.5625-6.92969L104,78.71875a8.00568,8.00568,0,0,1,7.89844-6.72656h40a8,8,0,0,1,0,16h-33.1875l-4.07813,25.20312a36.59927,36.59927,0,0,1,34.72657,9.35157A36.00391,36.00391,0,0,1,123.89844,184Z" fill="none"/>
  <path d="M208,32H48A16.02085,16.02085,0,0,0,32,48V208a16.02085,16.02085,0,0,0,16,16H208a16.02085,16.02085,0,0,0,16-16V48A16.02085,16.02085,0,0,0,208,32Zm-58.64062,90.54688A36.00168,36.00168,0,0,1,98.4375,173.45313a8.00467,8.00467,0,1,1,11.32813-11.3125c7.53125,7.5625,20.73437,7.5625,28.26562,0a19.97387,19.97387,0,0,0,.00781-28.27344c-7.54687-7.57813-20.74218-7.57031-28.27343-.00781a8.00314,8.00314,0,0,1-13.5625-6.92969L104,78.71875a8.00568,8.00568,0,0,1,7.89844-6.72656h40a8,8,0,0,1,0,16h-33.1875l-4.07813,25.20312A36.59927,36.59927,0,0,1,149.35938,122.54688Z"/>
</svg>
