<svg id="Layer_1" data-name="Layer 1" xmlns="http://www.w3.org/2000/svg" viewBox="0 0 256 256">
  <path d="M151.96484,215.99158v-64h-48v64L39.9707,216V115.53855a8,8,0,0,1,2.61811-5.91906l79.9945-72.73477a8,8,0,0,1,10.76339-.00036l80.0055,72.73509a8,8,0,0,1,2.6185,5.91942V216Z" opacity="0.2"/>
  <path d="M215.9707,216V115.53887a8,8,0,0,0-2.6185-5.91942L133.3467,36.88436a8,8,0,0,0-10.76339.00036l-79.9945,72.73477a8,8,0,0,0-2.61811,5.91906V216" fill="none" stroke="#000" stroke-linecap="round" stroke-linejoin="round" stroke-width="16"/>
  <line x1="15.9707" y1="216" x2="239.9707" y2="216" fill="none" stroke="#000" stroke-linecap="round" stroke-linejoin="round" stroke-width="16"/>
  <polyline points="151.965 215.992 151.965 151.992 103.965 151.992 103.965 215.992" fill="none" stroke="#000" stroke-linecap="round" stroke-linejoin="round" stroke-width="16"/>
</svg>
