<svg id="Layer_1" data-name="Layer 1" xmlns="http://www.w3.org/2000/svg" viewBox="0 0 256 256">
  <rect width="256" height="256" fill="none"/>
  <g>
    <path d="M221.97168,158.42676l-46.83789-20.07324a15.95139,15.95139,0,0,0-15.17871,1.39453l-25.043,16.69336A76.54083,76.54083,0,0,1,99.707,121.3916l.00195-.00195,16.63477-25.418a15.96924,15.96924,0,0,0,1.32031-15.06641L97.57227,34.02734a16.02839,16.02839,0,0,0-16.65235-9.583A56.07029,56.07029,0,0,0,32,80c0,79.40234,64.59766,144,144,144a56.07032,56.07032,0,0,0,55.55566-48.9209A16.03476,16.03476,0,0,0,221.97168,158.42676Z"/>
    <path d="M160,104a7.97772,7.97772,0,0,0,5.65723-2.34277L200,67.31445V88a8,8,0,0,0,16,0V48.00488c0-.26562-.01367-.53174-.04-.79687-.01074-.10742-.03125-.21094-.0459-.3169-.021-.15283-.03955-.30566-.06933-.45752-.02491-.125-.05957-.24609-.09034-.36914-.03271-.13037-.06152-.26123-.10058-.39013-.03662-.12061-.082-.23682-.124-.355-.04541-.12891-.08838-.25782-.14063-.38477-.04492-.10742-.09766-.21094-.147-.31641-.06153-.13183-.12061-.26464-.18994-.39355-.05176-.09717-.11133-.189-.167-.2832-.07666-.13037-.15087-.26172-.23584-.38819-.0664-.09863-.14062-.1914-.21093-.28662-.084-.11474-.16407-.231-.25537-.3418-.11622-.14111-.2417-.27343-.36719-.40625-.0542-.0581-.10205-.11914-.15869-.17578-.05323-.05322-.11133-.09863-.166-.1499-.13623-.12891-.27246-.25781-.417-.377-.10449-.08545-.21436-.16065-.32178-.24024-.10254-.07617-.20166-.15527-.3081-.22656-.11817-.0791-.24073-.148-.36231-.22021-.10351-.06153-.2041-.12647-.31055-.1836-.11865-.063-.24023-.1167-.36084-.17334-.11669-.05517-.23144-.11328-.35107-.16308-.1123-.04639-.22754-.084-.3418-.125-.13281-.04834-.26367-.09864-.39941-.13965-.10938-.0332-.2207-.05713-.33106-.08545-.14257-.03613-.2832-.07568-.42822-.10449-.12158-.02393-.24414-.0376-.3667-.05567-.13574-.02051-.27-.04541-.4082-.05908-.20215-.01953-.40479-.02637-.60742-.03076C208.11768,40.00781,208.05957,40,208,40H168a8,8,0,0,0,0,16h20.68555L154.34277,90.34277A8,8,0,0,0,160,104Z"/>
  </g>
</svg>
