<svg id="Layer_1" data-name="Layer 1" xmlns="http://www.w3.org/2000/svg" viewBox="0 0 256 256">
  <rect width="256" height="256" fill="none"/>
  <path d="M92.47629,124.81528a84.34782,84.34782,0,0,0,39.05334,38.8759,7.92754,7.92754,0,0,0,7.8287-.59231L164.394,146.40453a8,8,0,0,1,7.58966-.69723l46.837,20.073A7.97345,7.97345,0,0,1,223.619,174.077,48.00882,48.00882,0,0,1,176,216,136,136,0,0,1,40,80,48.00882,48.00882,0,0,1,81.923,32.381a7.97345,7.97345,0,0,1,8.29668,4.79823L110.31019,84.0571a8,8,0,0,1-.65931,7.53226L93.01449,117.00909A7.9287,7.9287,0,0,0,92.47629,124.81528Z" fill="none" stroke="#000" stroke-linecap="round" stroke-linejoin="round" stroke-width="24"/>
  <polyline points="168 48 208 48 208 88" fill="none" stroke="#000" stroke-linecap="round" stroke-linejoin="round" stroke-width="24"/>
  <line x1="160" y1="96" x2="208" y2="48" fill="none" stroke="#000" stroke-linecap="round" stroke-linejoin="round" stroke-width="24"/>
</svg>
