<svg id="Layer_1" data-name="Layer 1" xmlns="http://www.w3.org/2000/svg" viewBox="0 0 256 256">
  <path d="M93.33333,104H32V64a8,8,0,0,1,8-8H93.33333a8,8,0,0,1,4.8,1.6L128,80,98.13333,102.4A8,8,0,0,1,93.33333,104Z" opacity="0.2"/>
  <path d="M128,80h88a8,8,0,0,1,8,8V200a8,8,0,0,1-8,8H40a8.02352,8.02352,0,0,1-8-8V104" fill="none" stroke="#000" stroke-linecap="round" stroke-linejoin="round" stroke-width="16"/>
  <path d="M93.33333,104H32V64a8,8,0,0,1,8-8H93.33333a8,8,0,0,1,4.8,1.6L128,80,98.13333,102.4A8,8,0,0,1,93.33333,104Z" fill="none" stroke="#000" stroke-linecap="round" stroke-linejoin="round" stroke-width="16"/>
  <line x1="103.99121" y1="148" x2="151.99121" y2="148" fill="none" stroke="#000" stroke-linecap="round" stroke-linejoin="round" stroke-width="16"/>
</svg>
