<svg id="Layer_1" data-name="Layer 1" xmlns="http://www.w3.org/2000/svg" viewBox="0 0 256 256">
  <rect width="256" height="256" fill="none"/>
  <path d="M207.99414,32h-160a16.01583,16.01583,0,0,0-16,16V208a16.01583,16.01583,0,0,0,16,16h160a16.01582,16.01582,0,0,0,16-16V48A16.01582,16.01582,0,0,0,207.99414,32ZM167.60352,139.71875l-33.94336,33.92773a8.02367,8.02367,0,0,1-11.332,0L88.40039,139.71875a7.99915,7.99915,0,0,1,11.3125-11.3125l20.28125,20.28125V88a8,8,0,1,1,16,0v60.69238L156.291,128.40625a7.99915,7.99915,0,0,1,11.3125,11.3125Z"/>
</svg>
