<svg id="Raw" xmlns="http://www.w3.org/2000/svg" viewBox="0 0 256 256">
  <rect width="256" height="256" fill="none"/>
  <line x1="96" y1="228" x2="160" y2="228" fill="none" stroke="#000" stroke-linecap="round" stroke-linejoin="round" stroke-width="24"/>
  <path d="M56.20305,112a71.80121,71.80121,0,1,1,143.60186,0h0c0,35.81563,7.49325,52.59893,14.093,63.95814A7.999,7.999,0,0,1,207.01628,188H48.98365A7.99908,7.99908,0,0,1,42.103,175.95641c6.60328-11.35959,14.1-28.1426,14.1-63.95641Z" fill="none" stroke="#000" stroke-linecap="round" stroke-linejoin="round" stroke-width="24"/>
  <path d="M187.6965,17.21819a112.5022,112.5022,0,0,1,40.83526,45.35527" fill="none" stroke="#000" stroke-linecap="round" stroke-linejoin="round" stroke-width="24"/>
  <path d="M27.46825,62.57344A112.50227,112.50227,0,0,1,68.30353,17.21816" fill="none" stroke="#000" stroke-linecap="round" stroke-linejoin="round" stroke-width="24"/>
</svg>
