<svg id="Layer_1" data-name="Layer 1" xmlns="http://www.w3.org/2000/svg" viewBox="0 0 256 256">
  <rect width="256" height="256" fill="none"/>
  <path d="M238.1814,124.36145C230.40039,109.733,197.11206,55.99231,128,55.99231S25.59961,109.733,17.8186,124.36145a7.60865,7.60865,0,0,0,.00025,7.27685c7.78174,14.626,41.07031,68.354,110.18115,68.354s102.39941-53.728,110.18115-68.354A7.60865,7.60865,0,0,0,238.1814,124.36145ZM131.48608,167.83752A39.99766,39.99766,0,1,1,167.84546,124.506,39.99775,39.99775,0,0,1,131.48608,167.83752Z" opacity="0.2"/>
  <path d="M128,55.99219c-69.112,0-102.40049,53.74111-110.18144,68.36943a7.60809,7.60809,0,0,0,.00036,7.27665C25.60054,146.26441,58.88907,199.99219,128,199.99219s102.39946-53.72778,110.18108-68.35392a7.60809,7.60809,0,0,0,.00036-7.27665C230.40049,109.7333,197.112,55.99219,128,55.99219Z" fill="none" stroke="#000" stroke-linecap="round" stroke-linejoin="round" stroke-width="16"/>
  <circle cx="128" cy="127.99219" r="39.99759" fill="none" stroke="#000" stroke-linecap="round" stroke-linejoin="round" stroke-width="16"/>
</svg>
