<svg id="Layer_1" data-name="Layer 1" xmlns="http://www.w3.org/2000/svg" viewBox="0 0 256 256">
  <rect x="0.00049" width="255.99951" height="256" fill="none"/>
  <path d="M247.31055,124.75061c-.35157-.79-8.81934-19.57617-27.65332-38.41113C194.57324,61.25256,162.87793,47.99182,128,47.99182S61.42676,61.25256,36.34277,86.33948c-18.834,18.835-27.30175,37.62109-27.65332,38.41113a8.00282,8.00282,0,0,0,0,6.49805c.35157.791,8.82032,19.57226,27.6543,38.40429C61.42773,194.734,93.12207,207.99182,128,207.99182S194.57227,194.734,219.65625,169.653c18.834-18.832,27.30273-37.61328,27.6543-38.40429A8.00282,8.00282,0,0,0,247.31055,124.75061ZM128,92.00061a36,36,0,1,1-36,36A36.04061,36.04061,0,0,1,128,92.00061Z"/>
</svg>
