<svg id="Layer_1" data-name="Layer 1" xmlns="http://www.w3.org/2000/svg" viewBox="0 0 256 256">
  <rect width="256" height="256" fill="none"/>
  <path d="M245.24512,120.6051C236.18359,103.57092,200.95117,47.99182,128,47.99182S19.81641,103.57092,10.75488,120.60608a15.52319,15.52319,0,0,0,.002,14.79c9.06054,17.03027,44.292,72.5957,117.24316,72.5957s108.18262-55.56543,117.24316-72.59668A15.52319,15.52319,0,0,0,245.24512,120.6051ZM88.02905,126.79358c.60034-19.18945,16.07349-35.33887,36.48487-37.05371,22.0061-1.84815,41.40625,13.77978,43.33154,34.90576q.08936.98072.12622,1.95312c.00537.14991.00269.29932.00635.44922.01343.50244.0249,1.00489.01782,1.50342-.00073.0669-.00586.13281-.00684.19922-.37451,19.38281-15.93505,35.76611-36.50293,37.49365C109.48,168.09241,90.07983,152.465,88.15454,131.339q-.08971-.98658-.1272-1.96582C87.99707,128.50745,88.00391,127.64905,88.02905,126.79358Z"/>
</svg>
