<svg id="Layer_1" data-name="Layer 1" xmlns="http://www.w3.org/2000/svg" viewBox="0 0 256 256">
  <rect x="-0.00586" width="256" height="256" fill="none"/>
  <path d="M127.99414,55.99231c-80,0-112,72.00781-112,72.00781s32,71.99219,112,71.99219,112-71.99219,112-71.99219S207.99414,55.99231,127.99414,55.99231Zm0,112.0083a40,40,0,1,1,40-40A40.0001,40.0001,0,0,1,127.99414,168.00061Z" opacity="0.2"/>
  <path d="M127.99414,55.99219c-80,0-112,72.00781-112,72.00781s32,71.99219,112,71.99219,112-71.99219,112-71.99219S207.99414,55.99219,127.99414,55.99219Z" fill="none" stroke="#000" stroke-linecap="round" stroke-linejoin="round" stroke-width="16"/>
  <circle cx="127.99414" cy="128.00061" r="40" fill="none" stroke="#000" stroke-linecap="round" stroke-linejoin="round" stroke-width="16"/>
</svg>
