<svg id="Raw" xmlns="http://www.w3.org/2000/svg" viewBox="0 0 256 256">
  <rect width="256" height="256" fill="none"/>
  <path d="M137.86572,148.20361l-.01416-.02685L87.07031,52.25684a8.00006,8.00006,0,0,0-14.14062,0L22.14844,148.17676l-.01416.02685L.92969,188.25684a8,8,0,0,0,14.14062,7.48632L33.99316,160h92.01368l18.92285,35.74316a8,8,0,0,0,14.14062-7.48632ZM42.46387,144,80,73.09766,117.53613,144ZM208,94.90039a42.22159,42.22159,0,0,0-29.63867,11.80469,7.9999,7.9999,0,1,0,11.26758,11.35937A26.12387,26.12387,0,0,1,208,110.90039c13.2334,0,24,8.97168,24,20v7.21973a42.75745,42.75745,0,0,0-24-7.21973c-22.05566,0-40,16.14941-40,36s17.94434,36,40,36a42.65985,42.65985,0,0,0,24.67236-7.6958A7.9985,7.9985,0,0,0,248,192V130.90039C248,111.0498,230.05566,94.90039,208,94.90039Zm0,92c-13.2334,0-24-8.97168-24-20s10.7666-20,24-20,24,8.97168,24,20S221.2334,186.90039,208,186.90039Z"/>
</svg>
