<svg id="Layer_1" data-name="Layer 1" xmlns="http://www.w3.org/2000/svg" viewBox="0 0 256 256">
  <g>
    <path d="M122.34326,157.65723a8.00063,8.00063,0,0,0,11.31348,0l42-42a8.00018,8.00018,0,1,0-11.31348-11.31446L136,132.6864V39.9707a8,8,0,1,0-16,0v92.7157L91.65674,104.34277a8.00018,8.00018,0,0,0-11.31348,11.31446Z"/>
    <path d="M224,128a8.00039,8.00039,0,0,0-8,8v72H40V136a8,8,0,0,0-16,0v72a16.01833,16.01833,0,0,0,16,16H216a16.01833,16.01833,0,0,0,16-16V136A8.00039,8.00039,0,0,0,224,128Z"/>
  </g>
</svg>
