<svg id="Raw" xmlns="http://www.w3.org/2000/svg" viewBox="0 0 256 256">
  <rect width="256" height="256" fill="none"/>
  <path d="M80.34375,115.668a7.99983,7.99983,0,1,1,11.3125-11.31445L120,132.6897V40a8,8,0,0,1,16,0v92.6897l28.34375-28.33618a7.99983,7.99983,0,1,1,11.3125,11.31445l-42,41.98926a7.99945,7.99945,0,0,1-11.3125,0ZM216,144a8.00039,8.00039,0,0,0-8,8v56H48V152a8,8,0,0,0-16,0v56a16.01833,16.01833,0,0,0,16,16H208a16.01833,16.01833,0,0,0,16-16V152A8.00039,8.00039,0,0,0,216,144Z"/>
</svg>
