<svg id="Raw" xmlns="http://www.w3.org/2000/svg" viewBox="0 0 256 256">
  <rect width="256" height="256" fill="none"/>
  <path d="M128,24a104,104,0,1,0,30.56543,203.43359,7.99683,7.99683,0,0,0,3.30859-1.99072l63.57032-63.57324a7.99548,7.99548,0,0,0,1.99072-3.30859A104.07559,104.07559,0,0,0,128,24Zm36,72a12,12,0,1,1-12,12A12,12,0,0,1,164,96ZM92,96a12,12,0,1,1-12,12A12,12,0,0,1,92,96Zm84.50488,60.00269a56.01585,56.01585,0,0,1-97.00976.00048,8.00016,8.00016,0,0,1,13.85058-8.01074,40.016,40.016,0,0,0,69.30957-.00049,7.99975,7.99975,0,1,1,13.84961,8.01075Z"/>
</svg>
