<svg id="Layer_1" data-name="Layer 1" xmlns="http://www.w3.org/2000/svg" viewBox="0 0 256 256">
  <rect width="256" height="256" fill="none"/>
  <path d="M128,24a104,104,0,1,0,30.56543,203.43359,7.99683,7.99683,0,0,0,3.30859-1.99072l63.57032-63.57324a7.99548,7.99548,0,0,0,1.99072-3.30859A104.07559,104.07559,0,0,0,128,24Zm36,72a12,12,0,1,1-12,12A12,12,0,0,1,164,96ZM92,96a12,12,0,1,1-12,12A12,12,0,0,1,92,96Zm84.50293,60.00244a56.19607,56.19607,0,0,1-26.70264,23.58936,56.05693,56.05693,0,0,1-70.30322-23.58863,8.00011,8.00011,0,0,1,13.84961-8.0122,40.19352,40.19352,0,0,0,19.08594,16.86548,39.95953,39.95953,0,0,0,43.85156-8.57618,40.18715,40.18715,0,0,0,6.36914-8.28979,8.00005,8.00005,0,1,1,13.84961,8.012Z"/>
</svg>
