<svg id="Raw" xmlns="http://www.w3.org/2000/svg" viewBox="0 0 256 256">
  <rect width="256" height="256" fill="none"/>
  <path d="M223.59033,199.76855,160,93.78418V40h8a8,8,0,0,0,0-16H88a8,8,0,0,0,0,16h8V93.78418l-40.17285,66.955c-.044.07067-.08643.1416-.12793.2135L32.40967,199.76807A15.99968,15.99968,0,0,0,46.12988,224H209.87012a15.99944,15.99944,0,0,0,13.72021-24.23145Zm-113.87109-97.752A15.99829,15.99829,0,0,0,112,93.78418V40h32V93.78418a15.99947,15.99947,0,0,0,2.28027,8.23193l38.86328,64.77222c-13.10742,7.11157-31.4458,5.11572-53.56591-5.9436-14.25293-7.127-32.667-13.52124-50.31055-11.4076Z"/>
</svg>
