<svg id="Raw" xmlns="http://www.w3.org/2000/svg" viewBox="0 0 256 256">
  <rect width="256" height="256" fill="none"/>
  <path d="M104,32V93.78413a7.99992,7.99992,0,0,1-1.14006,4.116L39.26958,203.884A8,8,0,0,0,46.12952,216h163.741a8,8,0,0,0,6.85994-12.116L153.14006,97.90009A7.99992,7.99992,0,0,1,152,93.78413V32" fill="none" stroke="#000" stroke-linecap="round" stroke-linejoin="round" stroke-width="16"/>
  <line x1="88" y1="32" x2="168" y2="32" fill="none" stroke="#000" stroke-linecap="round" stroke-linejoin="round" stroke-width="16"/>
  <path d="M62.61682,164.96456C74.44058,156.34675,94.73752,151.36876,128,168c35.70432,17.85216,56.4696,10.80591,67.852,1.08577" fill="none" stroke="#000" stroke-linecap="round" stroke-linejoin="round" stroke-width="16"/>
  <path d="M62.62009,164.96652,39.26958,203.884A8,8,0,0,0,46.12952,216h163.741a8,8,0,0,0,6.85994-12.116l-20.87883-34.798.00037-.00022C184.4696,178.80591,163.70432,185.85216,128,168c-33.26248-16.63124-53.55942-11.65325-65.38318-3.03544Z" opacity="0.2"/>
</svg>
