<svg id="Raw" xmlns="http://www.w3.org/2000/svg" viewBox="0 0 256 256">
  <rect width="256" height="256" fill="none"/>
  <path d="M216,40H40A16.01833,16.01833,0,0,0,24,56V200.001A15.99912,15.99912,0,0,0,40.001,216l13.38965-.00146a7.99978,7.99978,0,0,0,7.2246-4.5669,48.02362,48.02362,0,0,1,86.76954,0,7.99952,7.99952,0,0,0,7.22558,4.5669L216,216a16.01833,16.01833,0,0,0,16-16V56A16.01833,16.01833,0,0,0,216,40ZM104,168a32,32,0,1,1,32-32A32.03667,32.03667,0,0,1,104,168Zm112,32-56.56641-.00146A63.89863,63.89863,0,0,0,146.26563,184H192a8.00008,8.00008,0,0,0,8-8V80a8.00008,8.00008,0,0,0-8-8H64a8.00008,8.00008,0,0,0-8,8v96a7.99618,7.99618,0,0,0,6.02881,7.74518,63.91387,63.91387,0,0,0-13.4624,16.25433L40,200.001V56H216Z"/>
</svg>
