<svg id="Raw" xmlns="http://www.w3.org/2000/svg" viewBox="0 0 256 256">
  <rect width="256" height="256" fill="none"/>
  <path d="M156,200c-13.25483,0-24-11.14314-24-24.88889s10.74517-24.88889,24-24.88889a23.18816,23.18816,0,0,1,8.81117,1.73087l-.00141-.0003A40.00363,40.00363,0,1,1,204,200Z" fill="none" stroke="#000" stroke-linecap="round" stroke-linejoin="round" stroke-width="24"/>
  <path d="M92,176V160a19.96611,19.96611,0,0,1,7.739-15.80207" fill="none" stroke="#000" stroke-linecap="round" stroke-linejoin="round" stroke-width="24"/>
  <path d="M52,176V160a60.01385,60.01385,0,0,1,90.83207-51.48275" fill="none" stroke="#000" stroke-linecap="round" stroke-linejoin="round" stroke-width="24"/>
  <path d="M12,176V160A100.00166,100.00166,0,0,1,177.59331,84.51611" fill="none" stroke="#000" stroke-linecap="round" stroke-linejoin="round" stroke-width="24"/>
</svg>
