<svg id="Layer_1" data-name="Layer 1" xmlns="http://www.w3.org/2000/svg" viewBox="0 0 256 256">
  <rect width="256" height="256" fill="none"/>
  <g>
    <path d="M128.00586,24.00842a104.11791,104.11791,0,0,0-104,104A87.786,87.786,0,0,1,19,157.34241a8.00025,8.00025,0,1,0,15.08594,5.332,103.74958,103.74958,0,0,0,5.91992-34.666,88,88,0,0,1,176,0,282.27848,282.27848,0,0,1-5.29,54.45313,7.99962,7.99962,0,1,0,15.69727,3.09375,298.25279,298.25279,0,0,0,5.59277-57.54688A104.11791,104.11791,0,0,0,128.00586,24.00842Z"/>
    <path d="M93.00977,84.2887A8.00025,8.00025,0,0,0,83.00195,71.80432,71.69909,71.69909,0,0,0,56.00586,128.0094,118.80142,118.80142,0,0,1,43.52637,181.361,7.99964,7.99964,0,1,0,57.85254,188.484,134.64637,134.64637,0,0,0,72.00586,128.0094,55.77314,55.77314,0,0,1,93.00977,84.2887Z"/>
    <path d="M128.00586,120.0094a8.00039,8.00039,0,0,0-8,8A184.12954,184.12954,0,0,1,97.03418,217.11a7.99993,7.99993,0,1,0,13.99219,7.75977,200.16824,200.16824,0,0,0,24.97949-96.86035A8.00039,8.00039,0,0,0,128.00586,120.0094Z"/>
    <path d="M128.00586,88.0094a40.04583,40.04583,0,0,0-40,40,8,8,0,0,0,16,0,24,24,0,0,1,48,0,214.09658,214.09658,0,0,1-20.51074,91.99512,8,8,0,1,0,14.47265,6.82226,229.98738,229.98738,0,0,0,22.03809-98.81738A40.04583,40.04583,0,0,0,128.00586,88.0094Z"/>
    <path d="M94.39648,152.16858a8.00778,8.00778,0,0,0-9.43066,6.249,150.78976,150.78976,0,0,1-17.2041,45.4375,8.00031,8.00031,0,1,0,13.85937,7.9961,166.73312,166.73312,0,0,0,19.02442-50.252A7.99971,7.99971,0,0,0,94.39648,152.16858Z"/>
    <path d="M128.00586,56.0094a72.92874,72.92874,0,0,0-8.99121.55664A8.00012,8.00012,0,1,0,120.99707,72.443a56.70946,56.70946,0,0,1,7.00879-.43359,56.0629,56.0629,0,0,1,56,56,251.41194,251.41194,0,0,1-1.919,31.00879,8,8,0,1,0,15.877,1.98047,267.59018,267.59018,0,0,0,2.042-32.98926A72.08124,72.08124,0,0,0,128.00586,56.0094Z"/>
    <path d="M185.93555,184.26135a7.99377,7.99377,0,0,0-9.74121,5.75293c-1.46485,5.68848-3.15332,11.39063-5.01856,16.94824a7.9999,7.9999,0,1,0,15.168,5.0918c1.9873-5.91992,3.78613-11.99316,5.34473-18.05176A7.999,7.999,0,0,0,185.93555,184.26135Z"/>
  </g>
</svg>
