<svg id="Raw" xmlns="http://www.w3.org/2000/svg" viewBox="0 0 256 256">
  <rect width="256" height="256" fill="none"/>
  <path d="M107.99406,128.00837a20,20,0,1,1,40,0,211.06573,211.06573,0,0,1-24.95471,99.87857" fill="none" stroke="#000" stroke-linecap="round" stroke-linejoin="round" stroke-width="24"/>
  <path d="M127.99406,68.00837a60,60,0,0,1,60,60q0,12.14234-1.128,24.00022" fill="none" stroke="#000" stroke-linecap="round" stroke-linejoin="round" stroke-width="24"/>
  <path d="M51.34928,192.22271a131.40267,131.40267,0,0,0,16.64478-64.21434,59.85046,59.85046,0,0,1,19.99759-44.72" fill="none" stroke="#000" stroke-linecap="round" stroke-linejoin="round" stroke-width="24"/>
  <path d="M103.31853,168.00854a170.97437,170.97437,0,0,1-20.308,49.32367" fill="none" stroke="#000" stroke-linecap="round" stroke-linejoin="round" stroke-width="24"/>
  <path d="M179.79526,192.00879a250.02989,250.02989,0,0,1-8.39355,26.119" fill="none" stroke="#000" stroke-linecap="round" stroke-linejoin="round" stroke-width="24"/>
  <path d="M22.276,160.00875a91.80964,91.80964,0,0,0,5.71806-32.00038l.0118.0001a100,100,0,0,1,200,0l-.0118-.0001a293.00937,293.00937,0,0,1-7.03556,64.00068" fill="none" stroke="#000" stroke-linecap="round" stroke-linejoin="round" stroke-width="24"/>
</svg>
