<svg id="Layer_1" data-name="Layer 1" xmlns="http://www.w3.org/2000/svg" viewBox="0 0 256 256">
  <rect width="256" height="256" fill="none"/>
  <g>
    <path d="M128.00586,24.0094a104.31805,104.31805,0,0,0-26.001,3.27832,7.99985,7.99985,0,1,0,3.99024,15.49414A88.0849,88.0849,0,0,1,216.00586,128.0094a231.01067,231.01067,0,0,1-6.40332,54.11426,8.0004,8.0004,0,1,0,15.55469,3.75195,247.08737,247.08737,0,0,0,6.84863-57.86621A104.11791,104.11791,0,0,0,128.00586,24.0094Z"/>
    <path d="M76.6709,56.525a8,8,0,0,0-9.34375-12.98828A104.32653,104.32653,0,0,0,24.0083,127.84387c-.001.05567-.0083.10962-.0083.16553a166.85952,166.85952,0,0,1-6.374,45.79687A8.00045,8.00045,0,1,0,33.0127,178.1969a182.87982,182.87982,0,0,0,6.98437-50.01148c.00122-.05908.00879-.11645.00879-.176A88.29086,88.29086,0,0,1,76.6709,56.525Z"/>
    <path d="M117.97656,192.50354a8.00091,8.00091,0,0,0-10.27539,4.73633,199.65294,199.65294,0,0,1-10.21582,23.06445,7.99986,7.99986,0,1,0,14.18945,7.39258,215.73808,215.73808,0,0,0,11.03809-24.918A8.00127,8.00127,0,0,0,117.97656,192.50354Z"/>
    <path d="M128.00586,120.0094a8.00039,8.00039,0,0,0-8,8,201.6662,201.6662,0,0,1-3.69531,38.4707,8.00007,8.00007,0,1,0,15.70507,3.0586,217.73666,217.73666,0,0,0,3.99024-41.5293A8.00039,8.00039,0,0,0,128.00586,120.0094Z"/>
    <path d="M176.14648,128.0094a8.01,8.01,0,0,0-8.27539,7.71484,214.55343,214.55343,0,0,1-17.168,77.13965,7.99982,7.99982,0,1,0,14.71094,6.291,230.48872,230.48872,0,0,0,18.44727-82.87012A8.00005,8.00005,0,0,0,176.14648,128.0094Z"/>
    <path d="M128.00586,88.0094a40.15647,40.15647,0,0,1,34.65332,20.00488,8,8,0,1,0,13.84961-8.01172A56.006,56.006,0,0,0,72.00586,128.0094a182.4956,182.4956,0,0,1-16.67578,76.6543,7.9997,7.9997,0,1,0,14.541,6.67382A198.38643,198.38643,0,0,0,88.00586,128.0094,40.04583,40.04583,0,0,1,128.00586,88.0094Z"/>
  </g>
</svg>
