<svg id="Raw" xmlns="http://www.w3.org/2000/svg" viewBox="0 0 256 256">
  <rect width="256" height="256" fill="none"/>
  <path d="M50.68905,184.92207a127.4728,127.4728,0,0,0,13.31718-56.913A63.88065,63.88065,0,0,1,88.0059,78.04632" fill="none" stroke="#000" stroke-linecap="round" stroke-linejoin="round" stroke-width="8"/>
  <path d="M128.00623,128.009a191.13407,191.13407,0,0,1-23.97573,92.98042" fill="none" stroke="#000" stroke-linecap="round" stroke-linejoin="round" stroke-width="8"/>
  <path d="M96.00623,128.009a32,32,0,0,1,64,0A223.13818,223.13818,0,0,1,138.731,223.41536" fill="none" stroke="#000" stroke-linecap="round" stroke-linejoin="round" stroke-width="8"/>
  <path d="M218.56486,184.00845a289.42035,289.42035,0,0,0,5.441-56,96,96,0,0,0-192,0,95.845,95.845,0,0,1-5.46267,32.00025" fill="none" stroke="#000" stroke-linecap="round" stroke-linejoin="round" stroke-width="8"/>
  <path d="M92.80577,160.00843a158.95129,158.95129,0,0,1-18.1147,47.84483" fill="none" stroke="#000" stroke-linecap="round" stroke-linejoin="round" stroke-width="8"/>
  <path d="M120.00621,64.50418a64.051,64.051,0,0,1,72,63.50485,258.52451,258.52451,0,0,1-1.98054,31.99945" fill="none" stroke="#000" stroke-linecap="round" stroke-linejoin="round" stroke-width="8"/>
  <path d="M183.94126,192.00844q-2.2851,8.87835-5.18116,17.5" fill="none" stroke="#000" stroke-linecap="round" stroke-linejoin="round" stroke-width="8"/>
</svg>
