<svg id="Layer_1" data-name="Layer 1" xmlns="http://www.w3.org/2000/svg" viewBox="0 0 256 256">
  <rect width="256" height="256" fill="none"/>
  <path d="M103.99978,35.035a96.0825,96.0825,0,0,1,120.00608,92.974" fill="none" stroke="#000" stroke-linecap="round" stroke-linejoin="round" stroke-width="16"/>
  <path d="M32.00586,128.009A95.87537,95.87537,0,0,1,71.999,50.03074" fill="none" stroke="#000" stroke-linecap="round" stroke-linejoin="round" stroke-width="16"/>
  <path d="M224.00586,128.009A238.54644,238.54644,0,0,1,217.37981,184" fill="none" stroke="#000" stroke-linecap="round" stroke-linejoin="round" stroke-width="16"/>
  <path d="M80.00586,128.009a191.29124,191.29124,0,0,1-17.40532,79.99122" fill="none" stroke="#000" stroke-linecap="round" stroke-linejoin="round" stroke-width="16"/>
  <path d="M115.20705,200.00911a206.84955,206.84955,0,0,1-10.62744,23.99131" fill="none" stroke="#000" stroke-linecap="round" stroke-linejoin="round" stroke-width="16"/>
  <path d="M128.00586,128.009a209.05394,209.05394,0,0,1-3.84253,40" fill="none" stroke="#000" stroke-linecap="round" stroke-linejoin="round" stroke-width="16"/>
  <path d="M175.86584,136.00411a222.97975,222.97975,0,0,1-17.80715,80.005" fill="none" stroke="#000" stroke-linecap="round" stroke-linejoin="round" stroke-width="16"/>
  <path d="M80.00586,128.009a48.00585,48.00585,0,0,1,89.57833-24.00021" fill="none" stroke="#000" stroke-linecap="round" stroke-linejoin="round" stroke-width="16"/>
  <path d="M32,128.009a174.65569,174.65569,0,0,1-6.68092,47.99271" fill="none" stroke="#000" stroke-linecap="round" stroke-linejoin="round" stroke-width="16"/>
</svg>
