<svg id="Raw" xmlns="http://www.w3.org/2000/svg" viewBox="0 0 256 256">
  <rect width="256" height="256" fill="none"/>
  <circle cx="127.88745" cy="44" r="28" fill="none" stroke="#000" stroke-linecap="round" stroke-linejoin="round" stroke-width="24"/>
  <path d="M153.91044,134.715,188.657,161.74012a12,12,0,1,0,16.97056-16.97057l-39.598-50.91169A19.93738,19.93738,0,0,0,151.88746,88h-48a19.93739,19.93739,0,0,0-14.14213,5.85786l-39.598,50.91169A12,12,0,1,0,67.1179,161.74012L101.86446,134.715,74.13088,222.3089a12,12,0,0,0,21.75139,10.14284l32.0052-50.37108h0l32.0052,50.37108A12,12,0,0,0,181.644,222.3089Z" fill="none" stroke="#000" stroke-linecap="round" stroke-linejoin="round" stroke-width="24"/>
</svg>
