<svg id="Layer_1" data-name="Layer 1" xmlns="http://www.w3.org/2000/svg" viewBox="0 0 256 256">
  <g>
    <path d="M73.96289,216.68356a102.96955,102.96955,0,0,0,74.28516,13.30273,150.72971,150.72971,0,0,0,8.67968-50.293,151.56632,151.56632,0,0,0-3.78906-33.28711A153.001,153.001,0,0,0,73.96289,216.68356Z"/>
    <path d="M168.36133,141.42379a167.51872,167.51872,0,0,1,4.5664,38.26954,166.83179,166.83179,0,0,1-6.19336,44.74707,104.17947,104.17947,0,0,0,64.76368-86.43555,144.07321,144.07321,0,0,0-63.13672,3.41894Z"/>
    <path d="M231.69531,121.86715A103.60086,103.60086,0,0,0,198.6875,51.92868a169.83656,169.83656,0,0,1-48.38281,43.9414,167.11748,167.11748,0,0,1,13.68554,30.17579,158.76716,158.76716,0,0,1,67.70508-4.17872Z"/>
    <path d="M148.77734,130.98239A151.13588,151.13588,0,0,0,136.2168,103.456a166.69855,166.69855,0,0,1-72.21094,16.542,167.00437,167.00437,0,0,1-39.14063-4.7207,102.55325,102.55325,0,0,0,36.01954,92.02637A169.092,169.092,0,0,1,148.77734,130.98239Z"/>
    <path d="M141.6543,82.42868a153.60771,153.60771,0,0,0,44.55859-40.56836,103.52967,103.52967,0,0,0-100.13867-8.958A169.6219,169.6219,0,0,1,141.6543,82.42868Z"/>
    <path d="M127.35742,89.98727a153.28732,153.28732,0,0,0-58.14014-47.6914A104.30671,104.30671,0,0,0,28.0332,99.64938,151.05617,151.05617,0,0,0,64.00586,103.998,150.874,150.874,0,0,0,127.35742,89.98727Z"/>
  </g>
  <rect width="256" height="256" fill="none"/>
</svg>
