<svg id="Layer_1" data-name="Layer 1" xmlns="http://www.w3.org/2000/svg" viewBox="0 0 256 256">
  <g>
    <path d="M73.96289,216.68359a102.96938,102.96938,0,0,0,74.28516,13.30273,150.72975,150.72975,0,0,0,8.67968-50.293,151.56646,151.56646,0,0,0-3.78906-33.28711A153.00105,153.00105,0,0,0,73.96289,216.68359Z"/>
    <path d="M231.49805,138.00488a144.07348,144.07348,0,0,0-63.13672,3.41895,167.51863,167.51863,0,0,1,4.5664,38.26953,166.83179,166.83179,0,0,1-6.19336,44.74707A104.17947,104.17947,0,0,0,231.49805,138.00488Z"/>
    <path d="M150.30469,95.87012a167.11707,167.11707,0,0,1,13.68554,30.17578,158.76732,158.76732,0,0,1,67.70508-4.17871A103.60091,103.60091,0,0,0,198.6875,51.92871,169.83659,169.83659,0,0,1,150.30469,95.87012Z"/>
    <path d="M148.77734,130.98242a151.13588,151.13588,0,0,0-12.56054-27.52637,166.69841,166.69841,0,0,1-72.21094,16.542,167.00385,167.00385,0,0,1-39.14063-4.72071,102.55325,102.55325,0,0,0,36.01954,92.02637A169.09209,169.09209,0,0,1,148.77734,130.98242Z"/>
    <path d="M141.6543,82.42871a153.60757,153.60757,0,0,0,44.55859-40.56836,103.5297,103.5297,0,0,0-100.13867-8.958A169.62187,169.62187,0,0,1,141.6543,82.42871Z"/>
    <path d="M127.35742,89.9873A153.28607,153.28607,0,0,0,69.21716,42.296a104.30671,104.30671,0,0,0-41.184,57.35346,151.05618,151.05618,0,0,0,35.97266,4.34864A150.87406,150.87406,0,0,0,127.35742,89.9873Z"/>
  </g>
</svg>
