<svg id="Raw" xmlns="http://www.w3.org/2000/svg" viewBox="0 0 256 256">
  <rect width="256" height="256" fill="none"/>
  <path d="M210.91162,146.91211a72.37653,72.37653,0,0,1-79.84424,15.03613L79.0249,222.2002q-.19116.22119-.39746.42773a32.00021,32.00021,0,0,1-45.25537-45.25488c.1377-.1377.28076-.27051.42773-.39844l60.25293-52.043a72.02489,72.02489,0,0,1,94.06153-95.23437A8.004,8.004,0,0,1,190.648,42.72461L151.71387,81.6582l3.77148,18.85645,18.856,3.77148,38.93457-38.93457a8.00429,8.00429,0,0,1,13.02685,2.53418A71.72729,71.72729,0,0,1,210.91162,146.91211Z"/>
</svg>
