<svg id="Raw" xmlns="http://www.w3.org/2000/svg" viewBox="0 0 256 256">
  <rect width="256" height="256" fill="none"/>
  <path d="M176.00586,128.009a239.296,239.296,0,0,1-17.934,91.1974" fill="none" stroke="#000" stroke-linecap="round" stroke-linejoin="round" stroke-width="16"/>
  <path d="M163.78085,96.006a48.00042,48.00042,0,0,0-83.775,32.003,143.35045,143.35045,0,0,1-17.98008,69.73221" fill="none" stroke="#000" stroke-linecap="round" stroke-linejoin="round" stroke-width="16"/>
  <path d="M96.00524,37.47183A96.06708,96.06708,0,0,1,224.00586,128.009a288.94587,288.94587,0,0,1-7.13641,63.99948" fill="none" stroke="#000" stroke-linecap="round" stroke-linejoin="round" stroke-width="16"/>
  <path d="M23.30117,168.00907a95.64559,95.64559,0,0,0,8.70469-40A95.76078,95.76078,0,0,1,64.00561,56.45385" fill="none" stroke="#000" stroke-linecap="round" stroke-linejoin="round" stroke-width="16"/>
  <path d="M110.58455,208.009q-3.04225,6.62844-6.56532,12.97841" fill="none" stroke="#000" stroke-linecap="round" stroke-linejoin="round" stroke-width="16"/>
  <path d="M127.99414,128.00842a192.34737,192.34737,0,0,1-6.0489,48.00023" fill="none" stroke="#000" stroke-linecap="round" stroke-linejoin="round" stroke-width="16"/>
</svg>
