<svg id="Layer_1" data-name="Layer 1" xmlns="http://www.w3.org/2000/svg" viewBox="0 0 256 256">
  <rect x="-0.0293" width="256" height="256" fill="none"/>
  <path d="M175.97656,128.009a239.296,239.296,0,0,1-17.934,91.1974" fill="none" stroke="#000" stroke-linecap="round" stroke-linejoin="round" stroke-width="16"/>
  <path d="M79.97656,128.009a143.35055,143.35055,0,0,1-17.98007,69.73221" fill="none" stroke="#000" stroke-linecap="round" stroke-linejoin="round" stroke-width="16"/>
  <path d="M79.97656,128.009a48.00043,48.00043,0,0,1,83.775-32.003" fill="none" stroke="#000" stroke-linecap="round" stroke-linejoin="round" stroke-width="16"/>
  <path d="M31.97656,128.009A95.76081,95.76081,0,0,1,63.97631,56.45385" fill="none" stroke="#000" stroke-linecap="round" stroke-linejoin="round" stroke-width="16"/>
  <path d="M95.976,37.47183A96.06707,96.06707,0,0,1,223.97656,128.009" fill="none" stroke="#000" stroke-linecap="round" stroke-linejoin="round" stroke-width="16"/>
  <path d="M223.97656,128.009a288.94528,288.94528,0,0,1-7.13641,63.99948" fill="none" stroke="#000" stroke-linecap="round" stroke-linejoin="round" stroke-width="16"/>
  <path d="M31.97656,128.009a95.64559,95.64559,0,0,1-8.70469,40" fill="none" stroke="#000" stroke-linecap="round" stroke-linejoin="round" stroke-width="16"/>
  <path d="M110.55525,208.009q-3.04226,6.62844-6.56531,12.97841" fill="none" stroke="#000" stroke-linecap="round" stroke-linejoin="round" stroke-width="16"/>
  <path d="M127.96484,128.00842a192.34737,192.34737,0,0,1-6.0489,48.00023" fill="none" stroke="#000" stroke-linecap="round" stroke-linejoin="round" stroke-width="16"/>
</svg>
