<svg xmlns="http://www.w3.org/2000/svg" width="16" height="16" viewBox="0 0 16 16">
  <g fill="none" fill-rule="evenodd">
    <polygon points="0 16 15.999 16 15.999 0 0 0"/>
    <path fill="#000" d="M9.9996,8.4998 L8.4996,8.4998 L8.4996,9.9998 C8.4996,10.2758 8.2756,10.4998 7.9996,10.4998 C7.7236,10.4998 7.4996,10.2758 7.4996,9.9998 L7.4996,8.4998 L5.9996,8.4998 C5.7236,8.4998 5.4996,8.2758 5.4996,7.9998 C5.4996,7.7238 5.7236,7.4998 5.9996,7.4998 L7.4996,7.4998 L7.4996,5.9998 C7.4996,5.7238 7.7236,5.4998 7.9996,5.4998 C8.2756,5.4998 8.4996,5.7238 8.4996,5.9998 L8.4996,7.4998 L9.9996,7.4998 C10.2756,7.4998 10.4996,7.7238 10.4996,7.9998 C10.4996,8.2758 10.2756,8.4998 9.9996,8.4998 M7.9996,1.4998 C4.4156,1.4998 1.4996,4.4158 1.4996,7.9998 C1.4996,11.5838 4.4156,14.4998 7.9996,14.4998 C11.5836,14.4998 14.4996,11.5838 14.4996,7.9998 C14.4996,4.4158 11.5836,1.4998 7.9996,1.4998"/>
  </g>
</svg>
