<svg xmlns="http://www.w3.org/2000/svg" width="16" height="16" viewBox="0 0 16 16">
  <g fill="none" fill-rule="evenodd">
    <polygon points="0 16 15.999 16 15.999 0 0 0"/>
    <path fill="#000" fill-rule="nonzero" d="M7.9996,1.7498 C11.4513323,1.7498 14.2496,4.54838987 14.2496,7.9998 C14.2496,11.4518712 11.4516712,14.2498 7.9996,14.2498 C4.54818987,14.2498 1.7496,11.4515323 1.7496,7.9998 C1.7496,4.54872881 4.54852881,1.7498 7.9996,1.7498 Z M7.9996,2.2498 C4.82467119,2.2498 2.2496,4.82487119 2.2496,7.9998 C2.2496,11.175377 4.82431936,13.7498 7.9996,13.7498 C11.1755288,13.7498 13.7496,11.1757288 13.7496,7.9998 C13.7496,4.82451936 11.175177,2.2498 7.9996,2.2498 Z M7.9996,5.7498 C8.11794673,5.7498 8.21708682,5.83203341 8.24299732,5.94247729 L8.2496,5.9998 L8.2496,7.7498 L9.9996,7.7498 C10.1376712,7.7498 10.2496,7.86172881 10.2496,7.9998 C10.2496,8.11814673 10.1673666,8.21728682 10.0569227,8.24319732 L9.9996,8.2498 L8.2496,8.2498 L8.2496,9.9998 C8.2496,10.1378712 8.13767119,10.2498 7.9996,10.2498 C7.88125327,10.2498 7.78211318,10.1675666 7.75620268,10.0571227 L7.7496,9.9998 L7.7496,8.2498 L5.9996,8.2498 C5.86152881,8.2498 5.7496,8.13787119 5.7496,7.9998 C5.7496,7.88145327 5.83183341,7.78231318 5.94227729,7.75640268 L5.9996,7.7498 L7.7496,7.7498 L7.7496,5.9998 C7.7496,5.86172881 7.86152881,5.7498 7.9996,5.7498 Z"/>
  </g>
</svg>
