<svg xmlns="http://www.w3.org/2000/svg" width="16" height="16" viewBox="0 0 16 16">
  <g fill="none" fill-rule="evenodd">
    <polygon points="0 16 15.999 16 15.999 0 0 0"/>
    <path fill="#000" fill-rule="nonzero" d="M7.9996,1.2498 C11.7274875,1.2498 14.7496,4.27226038 14.7496,7.9998 C14.7496,11.7280136 11.7278136,14.7498 7.9996,14.7498 C4.27206038,14.7498 1.2496,11.7276875 1.2496,7.9998 C1.2496,4.27258644 4.27238644,1.2498 7.9996,1.2498 Z M7.9996,2.7498 C5.10081356,2.7498 2.7496,5.10101356 2.7496,7.9998 C2.7496,10.8992218 5.10044885,13.2498 7.9996,13.2498 C10.8993864,13.2498 13.2496,10.8995864 13.2496,7.9998 C13.2496,5.10064885 10.8990218,2.7498 7.9996,2.7498 Z M7.9996,5.2498 C8.37929577,5.2498 8.69309096,5.53195388 8.74275338,5.89802944 L8.7496,5.9998 L8.7496,7.2498 L9.9996,7.2498 C10.4138136,7.2498 10.7496,7.58558644 10.7496,7.9998 C10.7496,8.37949577 10.4674461,8.69329096 10.1013706,8.74295338 L9.9996,8.7498 L8.7496,8.7498 L8.7496,9.9998 C8.7496,10.4140136 8.41381356,10.7498 7.9996,10.7498 C7.61990423,10.7498 7.30610904,10.4676461 7.25644662,10.1015706 L7.2496,9.9998 L7.2496,8.7498 L5.9996,8.7498 C5.58538644,8.7498 5.2496,8.41401356 5.2496,7.9998 C5.2496,7.62010423 5.53175388,7.30630904 5.89782944,7.25664662 L5.9996,7.2498 L7.2496,7.2498 L7.2496,5.9998 C7.2496,5.58558644 7.58538644,5.2498 7.9996,5.2498 Z"/>
  </g>
</svg>
