<svg xmlns="http://www.w3.org/2000/svg" width="16" height="16" viewBox="0 0 16 16">
  <g fill="none" fill-rule="evenodd">
    <polygon points="0 16 15.999 16 15.999 0 0 0"/>
    <path fill="#000" fill-rule="nonzero" d="M7.9996,1.6248 C11.5203711,1.6248 14.3746,4.4793575 14.3746,7.9998 C14.3746,11.5209068 11.5207068,14.3748 7.9996,14.3748 C4.4791575,14.3748 1.6246,11.5205711 1.6246,7.9998 C1.6246,4.47969322 4.47949322,1.6248 7.9996,1.6248 Z M7.9996,2.3748 C4.89370678,2.3748 2.3746,4.89390678 2.3746,7.9998 C2.3746,11.1063382 4.89335173,13.6248 7.9996,13.6248 C11.1064932,13.6248 13.6246,11.1066932 13.6246,7.9998 C13.6246,4.89355173 11.1061382,2.3748 7.9996,2.3748 Z M7.9996,5.6248 C8.18081843,5.6248 8.33201398,5.75334325 8.36698133,5.92422442 L8.3746,5.9998 L8.3746,7.6248 L9.9996,7.6248 C10.2067068,7.6248 10.3746,7.79269322 10.3746,7.9998 C10.3746,8.18101843 10.2460568,8.33221398 10.0751756,8.36718133 L9.9996,8.3748 L8.3746,8.3748 L8.3746,9.9998 C8.3746,10.2069068 8.20670678,10.3748 7.9996,10.3748 C7.81838157,10.3748 7.66718602,10.2462568 7.63221867,10.0753756 L7.6246,9.9998 L7.6246,8.3748 L5.9996,8.3748 C5.79249322,8.3748 5.6246,8.20690678 5.6246,7.9998 C5.6246,7.81858157 5.75314325,7.66738602 5.92402442,7.63241867 L5.9996,7.6248 L7.6246,7.6248 L7.6246,5.9998 C7.6246,5.79269322 7.79249322,5.6248 7.9996,5.6248 Z"/>
  </g>
</svg>
