<svg xmlns="http://www.w3.org/2000/svg" width="16" height="16" viewBox="0 0 16 16">
  <g fill="none" fill-rule="evenodd">
    <polygon points="0 16 15.999 16 15.999 0 0 0"/>
    <path fill="#000" fill-rule="nonzero" d="M7.9996,1.4998 C11.5894099,1.4998 14.4996,4.41032513 14.4996,7.9998 C14.4996,11.5899424 11.5897424,14.4998 7.9996,14.4998 C4.41012513,14.4998 1.4996,11.5896099 1.4996,7.9998 C1.4996,4.41065763 4.41045763,1.4998 7.9996,1.4998 Z M7.9996,2.4998 C4.96274237,2.4998 2.4996,4.96294237 2.4996,7.9998 C2.4996,11.0372994 4.96238411,13.4998 7.9996,13.4998 C11.0374576,13.4998 13.4996,11.0376576 13.4996,7.9998 C13.4996,4.96258411 11.0370994,2.4998 7.9996,2.4998 Z M7.9996,5.4998 C8.24505989,5.4998 8.44920837,5.67667516 8.49154433,5.90992437 L8.4996,5.9998 L8.4996,7.4998 L9.9996,7.4998 C10.2757424,7.4998 10.4996,7.72365763 10.4996,7.9998 C10.4996,8.24525989 10.3227248,8.44940837 10.0894756,8.49174433 L9.9996,8.4998 L8.4996,8.4998 L8.4996,9.9998 C8.4996,10.2759424 8.27574237,10.4998 7.9996,10.4998 C7.75414011,10.4998 7.54999163,10.3229248 7.50765567,10.0896756 L7.4996,9.9998 L7.4996,8.4998 L5.9996,8.4998 C5.72345763,8.4998 5.4996,8.27594237 5.4996,7.9998 C5.4996,7.75434011 5.67647516,7.55019163 5.90972437,7.50785567 L5.9996,7.4998 L7.4996,7.4998 L7.4996,5.9998 C7.4996,5.72365763 7.72345763,5.4998 7.9996,5.4998 Z"/>
  </g>
</svg>
