<svg id="Raw" xmlns="http://www.w3.org/2000/svg" viewBox="0 0 256 256">
  <rect width="256" height="256" fill="none"/>
  <path d="M176,216a8.00008,8.00008,0,0,1-8,8H24a8,8,0,0,1,0-16H168A8.00008,8.00008,0,0,1,176,216ZM247.0957,89.4668,228.45605,66.686a35.81374,35.81374,0,0,0-46.11523-8.2334L139.53906,83.62988,81.26465,64.20508a4.0083,4.0083,0,0,0-2.83985.11816l-16.5,7.0708A12.00078,12.00078,0,0,0,58.625,91.34375L85.21191,115.272l-21.46679,12.2666L37.5752,116.32324a4.00251,4.00251,0,0,0-3.1504,0l-16.75292,7.17969a12.00032,12.00032,0,0,0-3.48145,19.78418h.001l37.69531,35.33935a35.78229,35.78229,0,0,0,42.7168,4.85938L246.01074,95.458a4.001,4.001,0,0,0,1.085-5.99121Z"/>
</svg>
