<svg id="Layer_1" data-name="Layer 1" xmlns="http://www.w3.org/2000/svg" viewBox="0 0 256 256">
  <rect width="256" height="256" fill="none"/>
  <rect width="256" height="256" fill="none"/>
  <path d="M151.99414,95.99707a7.9954,7.9954,0,0,1-8-8v-64h-88a16.01583,16.01583,0,0,0-16,16v176a16.01583,16.01583,0,0,0,16,16h144a16.01582,16.01582,0,0,0,16-16v-120ZM152,160H136v16a8,8,0,0,1-16,0V160H104a8,8,0,0,1,0-16h16V128a8,8,0,0,1,16,0v16h16a8,8,0,0,1,0,16Z"/>
  <polygon points="159.994 28.685 159.994 79.997 211.307 79.997 159.994 28.685"/>
</svg>
