<svg xmlns="http://www.w3.org/2000/svg" width="16" height="16" viewBox="0 0 16 16">
  <g fill="none" fill-rule="evenodd">
    <polygon points="0 16 15.999 16 15.999 .001 0 .001"/>
    <path fill="#000" d="M4.5001,5.4998 L4.5001,10.9998 C4.5001,11.2758 4.7241,11.4998 5.0001,11.4998 L5.0001,11.4998 L10.5001,11.4998 L10.5001,13.9998 C10.5001,14.2758 10.2761,14.4998 10.0001,14.4998 L10.0001,14.4998 L2.0001,14.4998 C1.7241,14.4998 1.5001,14.2758 1.5001,13.9998 L1.5001,13.9998 L1.5001,5.9998 C1.5001,5.7238 1.7241,5.4998 2.0001,5.4998 L2.0001,5.4998 L4.5001,5.4998 Z M14.0001,1.4998 C14.2761,1.4998 14.5001,1.7238 14.5001,1.9998 L14.5001,1.9998 L14.5001,9.9998 C14.5001,10.2758 14.2761,10.4998 14.0001,10.4998 L14.0001,10.4998 L5.5001,10.4998 L5.5001,1.9998 C5.5001,1.7238 5.7241,1.4998 6.0001,1.4998 L6.0001,1.4998 Z"/>
  </g>
</svg>
