<svg xmlns="http://www.w3.org/2000/svg" width="16" height="16" viewBox="0 0 16 16">
  <g fill="none" fill-rule="evenodd">
    <polygon points=".001 16 15.999 16 15.999 .001 .001 .001"/>
    <polygon fill="#000" points="6 10 6 6 2 6 2 14 9.999 14 9.999 10" opacity=".2"/>
    <path fill="#000" fill-rule="nonzero" d="M14,1.4996 C14.2761424,1.4996 14.5,1.72345763 14.5,1.9996 L14.5,1.9996 L14.5,9.9996 C14.5,10.2757424 14.2761424,10.4996 14,10.4996 L14,10.4996 L10.4995,10.4996 L10.4995,13.9998 C10.4995,14.2452599 10.3226248,14.4494084 10.0893756,14.4917443 L9.9995,14.4998 L1.9995,14.4998 C1.75404011,14.4998 1.54989163,14.3229248 1.50755567,14.0896756 L1.4995,13.9998 L1.4995,5.9998 C1.4995,5.75434011 1.67637516,5.55019163 1.90962437,5.50785567 L1.9995,5.4998 L5.4995,5.4996 L5.5,1.9996 C5.5,1.75414011 5.67687516,1.54999163 5.91012437,1.50765567 L6,1.4996 Z M2.499,6.499 L2.499,13.499 L9.499,13.499 L9.4995,10.4996 L6,10.4996 C5.75454011,10.4996 5.55039163,10.3227248 5.50805567,10.0894756 L5.5,9.9996 L5.4995,6.4996 L2.499,6.499 Z M13.5,2.499 L6.5,2.499 L6.5,9.499 L13.5,9.499 L13.5,2.499 Z"/>
  </g>
</svg>
