<svg xmlns="http://www.w3.org/2000/svg" width="16" height="16" viewBox="0 0 16 16">
  <g fill="none" fill-rule="evenodd">
    <polygon points="0 16 15.999 16 15.999 .001 0 .001"/>
    <path fill="#000" fill-rule="nonzero" d="M14,1.6246 C14.2071068,1.6246 14.375,1.79249322 14.375,1.9996 L14.375,1.9996 L14.375,9.9996 C14.375,10.2067068 14.2071068,10.3746 14,10.3746 L14,10.3746 L10.3746,10.3746 L10.3746,13.9998 C10.3746,14.1810184 10.2460568,14.332214 10.0751756,14.3671813 L9.9996,14.3748 L1.9996,14.3748 C1.81838157,14.3748 1.66718602,14.2462568 1.63221867,14.0753756 L1.6246,13.9998 L1.6246,5.9998 C1.6246,5.81858157 1.75314325,5.66738602 1.92402442,5.63241867 L1.9996,5.6248 L5.6246,5.6246 L5.625,1.9996 C5.625,1.81838157 5.75354325,1.66718602 5.92442442,1.63221867 L6,1.6246 Z M2.374,6.374 L2.374,13.624 L9.624,13.624 L9.6246,10.3746 L6,10.3746 C5.81878157,10.3746 5.66758602,10.2460568 5.63261867,10.0751756 L5.625,9.9996 L5.6246,6.3746 L2.374,6.374 Z M13.625,2.374 L6.375,2.374 L6.375,9.624 L13.625,9.624 L13.625,2.374 Z"/>
  </g>
</svg>
