<svg xmlns="http://www.w3.org/2000/svg" width="16" height="16" viewBox="0 0 16 16">
  <g fill="none" fill-rule="evenodd">
    <polygon points="0 16 15.999 16 15.999 .001 0 .001"/>
    <path fill="#000" fill-rule="nonzero" d="M14,1.2496 C14.4142136,1.2496 14.75,1.58538644 14.75,1.9996 L14.75,1.9996 L14.75,9.9996 C14.75,10.4138136 14.4142136,10.7496 14,10.7496 L14,10.7496 L10.7496,10.7496 L10.7496,13.9998 C10.7496,14.3794958 10.4674461,14.693291 10.1013706,14.7429534 L9.9996,14.7498 L1.9996,14.7498 C1.61990423,14.7498 1.30610904,14.4676461 1.25644662,14.1015706 L1.2496,13.9998 L1.2496,5.9998 C1.2496,5.62010423 1.53175388,5.30630904 1.89782944,5.25664662 L1.9996,5.2498 L5.2496,5.2496 L5.25,1.9996 C5.25,1.61990423 5.53215388,1.30610904 5.89822944,1.25644662 L6,1.2496 Z M2.749,6.749 L2.749,13.249 L9.249,13.249 L9.2496,10.7496 L6,10.7496 C5.62030423,10.7496 5.30650904,10.4674461 5.25684662,10.1013706 L5.25,9.9996 L5.2496,6.7496 L2.749,6.749 Z M13.25,2.749 L6.75,2.749 L6.75,9.249 L13.25,9.249 L13.25,2.749 Z"/>
  </g>
</svg>
