<svg xmlns="http://www.w3.org/2000/svg" width="16" height="16" viewBox="0 0 16 16">
  <g fill="none" fill-rule="evenodd">
    <polygon points="0 16 15.999 16 15.999 .001 0 .001"/>
    <path fill="#000" fill-rule="nonzero" d="M14,1.7496 C14.1380712,1.7496 14.25,1.86152881 14.25,1.9996 L14.25,1.9996 L14.25,9.9996 C14.25,10.1376712 14.1380712,10.2496 14,10.2496 L14,10.2496 L10.2496,10.2496 L10.2496,13.9998 C10.2496,14.1181467 10.1673666,14.2172868 10.0569227,14.2431973 L9.9996,14.2498 L1.9996,14.2498 C1.88125327,14.2498 1.78211318,14.1675666 1.75620268,14.0571227 L1.7496,13.9998 L1.7496,5.9998 C1.7496,5.88145327 1.83183341,5.78231318 1.94227729,5.75640268 L1.9996,5.7498 L5.7496,5.7496 L5.75,1.9996 C5.75,1.88125327 5.83223341,1.78211318 5.94267729,1.75620268 L6,1.7496 Z M2.249,6.249 L2.249,13.749 L9.749,13.749 L9.7496,10.2496 L6,10.2496 C5.88165327,10.2496 5.78251318,10.1673666 5.75660268,10.0569227 L5.75,9.9996 L5.7496,6.2496 L2.249,6.249 Z M13.75,2.249 L6.25,2.249 L6.25,9.749 L13.75,9.749 L13.75,2.249 Z"/>
  </g>
</svg>
