<svg xmlns="http://www.w3.org/2000/svg" width="16" height="16" viewBox="0 0 16 16">
  <g fill="none" fill-rule="evenodd">
    <polygon points="0 16 15.999 16 15.999 .001 0 .001"/>
    <path fill="#000" fill-rule="nonzero" d="M14,1.4996 C14.2761424,1.4996 14.5,1.72345763 14.5,1.9996 L14.5,1.9996 L14.5,9.9996 C14.5,10.2757424 14.2761424,10.4996 14,10.4996 L14,10.4996 L10.4996,10.4996 L10.4996,14 C10.4996,14.2454599 10.3227248,14.4496084 10.0894756,14.4919443 L9.9996,14.5 L1.9996,14.5 C1.75414011,14.5 1.54999163,14.3231248 1.50765567,14.0898756 L1.4996,14 L1.4996,6 C1.4996,5.75454011 1.67647516,5.55039163 1.90972437,5.50805567 L1.9996,5.5 L5.4996,5.4996 L5.5,1.9996 C5.5,1.75414011 5.67687516,1.54999163 5.91012437,1.50765567 L6,1.4996 Z M2.499,6.499 L2.499,13.499 L9.499,13.499 L9.4996,10.4996 L6,10.4996 C5.75454011,10.4996 5.55039163,10.3227248 5.50805567,10.0894756 L5.5,9.9996 L5.4996,6.4996 L2.499,6.499 Z M13.5,2.499 L6.5,2.499 L6.5,9.499 L13.5,9.499 L13.5,2.499 Z"/>
  </g>
</svg>
