<svg id="Raw" xmlns="http://www.w3.org/2000/svg" viewBox="0 0 256 256">
  <rect width="256" height="256" fill="none"/>
  <path d="M152,56V176a8,8,0,0,1-16,0V124H48v52a8,8,0,0,1-16,0V56a8,8,0,0,1,16,0v52h88V56a8,8,0,0,1,16,0Zm88,135.99414H207.99707l34.30566-45.77734c.07911-.1045.1543-.21094.22754-.31934A32.00406,32.00406,0,1,0,186.51758,115.542a8,8,0,1,0,14.73633,6.23242A16.00416,16.00416,0,1,1,229.37012,136.794l-43.67285,58.27539A8.00367,8.00367,0,0,0,191.999,208.001c.10547,0,.21192-.00293.31836-.00684H240a8,8,0,0,0,0-16Z"/>
</svg>
