<svg id="Layer_1" data-name="Layer 1" xmlns="http://www.w3.org/2000/svg" viewBox="0 0 256 256">
  <rect width="256" height="256" fill="none"/>
  <g>
    <path d="M53.91992,34.61813A8.0006,8.0006,0,1,0,42.08008,45.3818L73.55371,80.0029H32a16.01833,16.01833,0,0,0-16,16v64a16.01833,16.01833,0,0,0,16,16H77.25488l69.834,54.31445-.00537-.01123.00439.00342a7.99451,7.99451,0,0,0,12.90625-6.3125V175.08737l42.08594,46.29443a8.0006,8.0006,0,1,0,11.83984-10.76367ZM71.9707,160.0029H32v-64H71.9707Z"/>
    <path d="M146.08008,112.2109A8.0004,8.0004,0,0,0,160,106.82907V32.01169a7.99958,7.99958,0,0,0-12.91113-6.31446L107.24512,56.68649a7.99966,7.99966,0,0,0-1.00879,11.69629Z"/>
    <path d="M224.544,71.44235a7.99983,7.99983,0,1,0-11.3125,11.31445,63.99908,63.99908,0,0,1,0,90.50879A7.99983,7.99983,0,1,0,224.544,184.58a79.99795,79.99795,0,0,0,0-113.13769Z"/>
    <path d="M191.97656,128.01169a23.83779,23.83779,0,0,1-7.02929,16.96972,7.99984,7.99984,0,1,0,11.3125,11.31446,39.99957,39.99957,0,0,0,.001-56.56934A8.00052,8.00052,0,0,0,184.94629,111.041,23.84269,23.84269,0,0,1,191.97656,128.01169Z"/>
  </g>
</svg>
