<svg id="Layer_1" data-name="Layer 1" xmlns="http://www.w3.org/2000/svg" viewBox="0 0 256 256">
  <g>
    <path d="M15.99414,95.997v64a16.00017,16.00017,0,0,0,16,16H64v-96H31.99414A16.00016,16.00016,0,0,0,15.99414,95.997Z"/>
    <path d="M191.97656,128.01169a23.83779,23.83779,0,0,1-7.02929,16.96972,8.005,8.005,0,0,0,11.33007,11.31153,39.99956,39.99956,0,0,0,.001-56.56934,8.00778,8.00778,0,0,0-11.332,11.31738A23.84269,23.84269,0,0,1,191.97656,128.01169Z"/>
    <path d="M53.91992,34.61813A8.0006,8.0006,0,1,0,42.08008,45.3818L80,87.09372v91.0459l67.08789,52.16992a7.99451,7.99451,0,0,0,12.90625-6.3125V175.08737l42.08594,46.29443a8.0006,8.0006,0,1,0,11.83984-10.76367Z"/>
    <path d="M146.08008,112.2109A8.0004,8.0004,0,0,0,160,106.82907V32.01169a7.99958,7.99958,0,0,0-12.91113-6.31446L107.24512,56.68649a7.99966,7.99966,0,0,0-1.00879,11.69629Z"/>
    <path d="M247.99414,128.00876A79.47685,79.47685,0,0,0,224.5625,71.43942,8.00743,8.00743,0,0,0,213.23145,82.7568a63.99908,63.99908,0,0,1,0,90.50879,8,8,0,0,0,5.65625,13.65723c.25976,0,.51953-.01319.77783-.03809a7.97031,7.97031,0,0,0,4.897-2.30664A79.47683,79.47683,0,0,0,247.99414,128.00876Z"/>
  </g>
</svg>
