<svg id="Raw" xmlns="http://www.w3.org/2000/svg" viewBox="0 0 256 256">
  <rect width="256" height="256" fill="none"/>
  <path d="M119.99332,106.41921l-26-45.03332a20,20,0,0,1,34.641-20l40,69.282" fill="none" stroke="#000" stroke-linecap="round" stroke-linejoin="round" stroke-width="24"/>
  <path d="M89.35231,133.34742l-38-65.81793a20,20,0,1,1,34.641-20l34,58.88972" fill="none" stroke="#000" stroke-linecap="round" stroke-linejoin="round" stroke-width="24"/>
  <path d="M153.99332,165.30894a40,40,0,0,1,14.641-54.641l-10-17.32051a20,20,0,1,1,34.641-20l20,34.641a80,80,0,1,1-138.56406,80l-42-72.74613a20,20,0,0,1,34.641-20l22,38.10512" fill="none" stroke="#000" stroke-linecap="round" stroke-linejoin="round" stroke-width="24"/>
  <path d="M176,22.99A59.97614,59.97614,0,0,1,227.96152,53" fill="none" stroke="#000" stroke-linecap="round" stroke-linejoin="round" stroke-width="24"/>
  <path d="M66.93521,240.00025A119.74962,119.74962,0,0,1,40.0943,207.99" fill="none" stroke="#000" stroke-linecap="round" stroke-linejoin="round" stroke-width="24"/>
</svg>
