<svg id="Layer_1" data-name="Layer 1" xmlns="http://www.w3.org/2000/svg" viewBox="0 0 256 256">
  <rect x="0.00049" width="255.99951" height="256" fill="none"/>
  <path d="M231.98975,95.79919c-.00293-.11914-.00953-.23779-.01807-.35705-.0127-.1836-.03149-.36475-.0564-.5448-.0144-.10315-.02881-.20581-.04712-.30872-.03784-.21142-.08545-.41894-.13964-.62426-.01416-.05372-.02076-.10853-.03614-.16211L217.35059,43.604A16.06985,16.06985,0,0,0,201.96582,32H54.03418A16.06971,16.06971,0,0,0,38.64941,43.60449L24.30762,93.80225c-.01538.05358-.022.10839-.03614.16211-.05419.20532-.1018.41284-.13964.62426-.01831.10291-.03272.20557-.04712.30872-.02491.18-.0437.3612-.0564.5448-.00854.11926-.01514.23791-.01807.35705C24.00854,95.86658,24,95.93213,24,96v16a39.96242,39.96242,0,0,0,16,31.978V208a16.01833,16.01833,0,0,0,16,16H200a16.01833,16.01833,0,0,0,16-16V143.978A39.96242,39.96242,0,0,0,232,112V96C232,95.93213,231.99146,95.86658,231.98975,95.79919ZM40,104H88v8a23.98436,23.98436,0,0,1-35.12427,21.256,7.98438,7.98438,0,0,0-1.813-1.05774A23.99623,23.99623,0,0,1,40,112Zm112,8a24,24,0,0,1-48,0v-8h48Zm52.93213,20.20166a7.97469,7.97469,0,0,0-1.80176,1.05115A23.98441,23.98441,0,0,1,168,112v-8h48v8A23.99664,23.99664,0,0,1,204.93213,132.20166Z"/>
</svg>
