<svg id="Layer_1" data-name="Layer 1" xmlns="http://www.w3.org/2000/svg" viewBox="0 0 256 256">
  <rect width="256" height="256" fill="none"/>
  <path d="M192,168a56.17528,56.17528,0,0,1-32-10.09778,55.7531,55.7531,0,0,1-64,0,55.81415,55.81415,0,0,1-56,4.68347V208a16.01833,16.01833,0,0,0,16,16H200a16.01833,16.01833,0,0,0,16-16V162.58569A55.65773,55.65773,0,0,1,192,168Z"/>
  <g>
    <path d="M24,104v8a39.986,39.986,0,0,0,72,23.972,39.95817,39.95817,0,0,0,64,0A39.986,39.986,0,0,0,232,112v-8Z"/>
    <path d="M230.03467,88,217.35059,43.604A16.06985,16.06985,0,0,0,201.96582,32H54.03418A16.06971,16.06971,0,0,0,38.64941,43.60449L25.96533,88Z"/>
  </g>
</svg>
