<svg id="Layer_1" data-name="Layer 1" xmlns="http://www.w3.org/2000/svg" viewBox="0 0 256 256">
  <rect width="256" height="256" fill="none"/>
  <path d="M48,139.58816V208a8,8,0,0,0,8,8H200a8,8,0,0,0,8-8V139.58972" fill="none" stroke="#000" stroke-linecap="round" stroke-linejoin="round" stroke-width="12"/>
  <path d="M54.03441,40H201.96559a8,8,0,0,1,7.69219,5.80223L224,96H32L46.34222,45.80223A8,8,0,0,1,54.03441,40Z" fill="none" stroke="#000" stroke-linecap="round" stroke-linejoin="round" stroke-width="12"/>
  <path d="M96,96v16a32,32,0,0,1-64,0V96" fill="none" stroke="#000" stroke-linecap="round" stroke-linejoin="round" stroke-width="12"/>
  <path d="M160,96v16a32,32,0,0,1-64,0V96" fill="none" stroke="#000" stroke-linecap="round" stroke-linejoin="round" stroke-width="12"/>
  <path d="M224,96v16a32,32,0,0,1-64,0V96" fill="none" stroke="#000" stroke-linecap="round" stroke-linejoin="round" stroke-width="12"/>
</svg>
