<svg xmlns="http://www.w3.org/2000/svg" width="16" height="16" viewBox="0 0 16 16">
  <g fill="none" fill-rule="evenodd">
    <polygon points="0 16 15.999 16 15.999 0 0 0"/>
    <path fill="#000" fill-rule="nonzero" d="M6.81007682,2.31054625 C7.34064157,1.39649039 8.66053322,1.39649039 9.18996448,2.31096258 L9.18996448,2.31096258 L14.6879682,11.8109689 C15.2186917,12.7280482 14.5581533,13.8738 13.4984,13.8738 L13.4984,13.8738 L2.5014,13.8738 C1.44239227,13.8738 0.78123571,12.727828 1.31183552,11.8109626 L1.31183552,11.8109626 Z M8.54086514,2.6866886 C8.30026678,2.27110961 7.70015843,2.27110961 7.45896448,2.68663742 L7.45896448,2.68663742 L1.96096817,12.1866311 C1.71976928,12.6034177 2.01999839,13.1238 2.5014,13.1238 L2.5014,13.1238 L13.4984,13.1238 C13.9804131,13.1238 14.2802253,12.603754 14.0388355,12.1866374 L14.0388355,12.1866374 Z M8.0001,10.6878 C8.3101,10.6878 8.5621,10.9388 8.5621,11.2498 C8.5621,11.5608 8.3101,11.8118 8.0001,11.8118 C7.6891,11.8118 7.4371,11.5608 7.4371,11.2498 C7.4371,10.9388 7.6891,10.6878 8.0001,10.6878 Z M7.9996,5.6248 C8.18081843,5.6248 8.33201398,5.75334325 8.36698133,5.92422442 L8.3746,5.9998 L8.3746,8.9998 C8.3746,9.20690678 8.20670678,9.3748 7.9996,9.3748 C7.81838157,9.3748 7.66718602,9.24625675 7.63221867,9.07537558 L7.6246,8.9998 L7.6246,5.9998 C7.6246,5.79269322 7.79249322,5.6248 7.9996,5.6248 Z"/>
  </g>
</svg>
