<svg xmlns="http://www.w3.org/2000/svg" width="16" height="16" viewBox="0 0 16 16">
  <g fill="none" fill-rule="evenodd">
    <polygon points="0 16 15.999 16 15.999 0 0 0"/>
    <path fill="#000" d="M7.1344,2.4988 L1.6364,11.9988 C1.2504,12.6658 1.7314,13.4988 2.5014,13.4988 L13.4984,13.4988 C14.2694,13.4988 14.7494,12.6658 14.3634,11.9988 L8.8654,2.4988 C8.4804,1.8338 7.5204,1.8338 7.1344,2.4988" opacity=".2"/>
    <path fill="#000" fill-rule="nonzero" d="M6.7019691,2.24779499 C7.2807221,1.25072052 8.72057763,1.25072052 9.29815264,2.2483501 L9.29815264,2.2483501 L14.7961576,11.7483586 C15.3751028,12.7487639 14.6544433,13.9988 13.4984,13.9988 L13.4984,13.9988 L2.5014,13.9988 C1.34612458,13.9988 0.62481345,12.7485631 1.20364736,11.7483501 L1.20364736,11.7483501 Z M8.43268686,2.74931814 C8.24022237,2.41687948 7.7600779,2.41687948 7.56715264,2.7492499 L7.56715264,2.7492499 L2.06915756,12.2492414 C1.87619154,12.5826827 2.11626608,12.9988 2.5014,12.9988 L2.5014,12.9988 L13.4984,12.9988 C13.8841231,12.9988 14.1238142,12.5830383 13.9306474,12.2492499 L13.9306474,12.2492499 Z M7.9996,10.4998 C8.4146,10.4998 8.7496,10.8358 8.7496,11.2498 C8.7496,11.6648 8.4146,11.9998 7.9996,11.9998 C7.5856,11.9998 7.2496,11.6648 7.2496,11.2498 C7.2496,10.8358 7.5856,10.4998 7.9996,10.4998 Z M7.9996,5.4998 C8.24505989,5.4998 8.44920837,5.67667516 8.49154433,5.90992437 L8.4996,5.9998 L8.4996,8.9998 C8.4996,9.27594237 8.27574237,9.4998 7.9996,9.4998 C7.75414011,9.4998 7.54999163,9.32292484 7.50765567,9.08967563 L7.4996,8.9998 L7.4996,5.9998 C7.4996,5.72365763 7.72345763,5.4998 7.9996,5.4998 Z"/>
  </g>
</svg>
