<svg xmlns="http://www.w3.org/2000/svg" width="16" height="16" viewBox="0 0 16 16">
  <g fill="none" fill-rule="evenodd">
    <polygon points="0 16 16 16 16 0 0 0"/>
    <path fill="#000" fill-rule="nonzero" d="M6.70208686,2.24848186 C7.27971642,1.25075807 8.72138428,1.25075807 9.29751314,2.24848186 L9.29751314,2.24848186 L14.7975576,11.7485586 C15.3765104,12.748977 14.6548282,14 13.4988,14 L13.4988,14 L2.5008,14 C1.34586547,14 0.624386155,12.7493287 1.20176126,11.7490451 L1.20176126,11.7490451 Z M8.4318048,2.74903031 C8.24021572,2.41724193 7.75988358,2.41724193 7.56751314,2.74951814 L7.56751314,2.74951814 L2.06751314,12.2495181 L2.03093522,12.3272418 C1.91304032,12.6444894 2.14545892,13 2.5008,13 L2.5008,13 L13.4988,13 C13.8846592,13 14.125146,12.5831204 13.9320869,12.2495181 L13.9320869,12.2495181 Z M8,10.5 C8.414,10.5 8.75,10.836 8.75,11.25 C8.75,11.664 8.414,12 8,12 C7.586,12 7.25,11.664 7.25,11.25 C7.25,10.836 7.586,10.5 8,10.5 Z M8,5.5 C8.24545989,5.5 8.44960837,5.67687516 8.49194433,5.91012437 L8.5,6 L8.5,9 C8.5,9.27614237 8.27614237,9.5 8,9.5 C7.75454011,9.5 7.55039163,9.32312484 7.50805567,9.08987563 L7.5,9 L7.5,6 C7.5,5.72385763 7.72385763,5.5 8,5.5 Z"/>
  </g>
</svg>
