<svg xmlns="http://www.w3.org/2000/svg" width="16" height="16" viewBox="0 0 16 16">
  <g fill="none" fill-rule="evenodd">
    <polygon points="0 16 15.999 16 15.999 0 0 0"/>
    <path fill="#000" fill-rule="nonzero" d="M6.48575364,2.12229249 C7.16088314,0.959180785 8.84066644,0.959180785 9.51452896,2.12312515 L9.51452896,2.12312515 L15.0125363,11.6231379 C15.6879249,12.7901954 14.8470234,14.2488 13.4984,14.2488 L13.4984,14.2488 L2.5014,14.2488 C1.15358921,14.2488 0.311968928,12.7900332 0.987271037,11.6231252 L0.987271037,11.6231252 Z M8.21633029,2.8745772 C8.12013356,2.70841921 7.87991686,2.70841921 7.78352896,2.87447485 L7.78352896,2.87447485 L2.28553634,12.3744621 C2.18903606,12.5412126 2.30880145,12.7488 2.5014,12.7488 L2.5014,12.7488 L13.4984,12.7488 C13.691543,12.7488 13.8109921,12.5416069 13.714271,12.3744748 L13.714271,12.3744748 Z M7.9996,10.1248 C8.6216,10.1248 9.1246,10.6288 9.1246,11.2498 C9.1246,11.8718 8.6216,12.3748 7.9996,12.3748 C7.3786,12.3748 6.8746,11.8718 6.8746,11.2498 C6.8746,10.6288 7.3786,10.1248 7.9996,10.1248 Z M7.9996,5.2498 C8.37929577,5.2498 8.69309096,5.53195388 8.74275338,5.89802944 L8.7496,5.9998 L8.7496,8.9998 C8.7496,9.41401356 8.41381356,9.7498 7.9996,9.7498 C7.61990423,9.7498 7.30610904,9.46764612 7.25644662,9.10157056 L7.2496,8.9998 L7.2496,5.9998 C7.2496,5.58558644 7.58538644,5.2498 7.9996,5.2498 Z"/>
  </g>
</svg>
