<svg xmlns="http://www.w3.org/2000/svg" width="16" height="16" viewBox="0 0 16 16">
  <g fill="none" fill-rule="evenodd">
    <polygon points="0 16 15.999 16 15.999 0 0 0"/>
    <path fill="#000" d="M7.9996,11.9998 C7.5856,11.9998 7.2496,11.6648 7.2496,11.2498 C7.2496,10.8358 7.5856,10.4998 7.9996,10.4998 C8.4136,10.4998 8.7496,10.8358 8.7496,11.2498 C8.7496,11.6648 8.4136,11.9998 7.9996,11.9998 L7.9996,11.9998 Z M7.4996,5.9998 C7.4996,5.7238 7.7236,5.4998 7.9996,5.4998 C8.2756,5.4998 8.4996,5.7238 8.4996,5.9998 L8.4996,8.9998 C8.4996,9.2758 8.2756,9.4998 7.9996,9.4998 C7.7236,9.4998 7.4996,9.2758 7.4996,8.9998 L7.4996,5.9998 Z M14.7966,11.7478 L9.2986,2.2478 C9.0266,1.7798 8.5416,1.4998 8.0006,1.4998 C7.4586,1.4998 6.9736,1.7798 6.7016,2.2478 L6.7016,2.2488 L1.2036,11.7478 C0.9316,12.2178 0.9316,12.7788 1.2026,13.2498 C1.4736,13.7188 1.9586,13.9998 2.5016,13.9998 L13.4986,13.9998 C14.0416,13.9998 14.5266,13.7188 14.7976,13.2498 C15.0686,12.7788 15.0686,12.2178 14.7966,11.7478 L14.7966,11.7478 Z"/>
  </g>
</svg>
