<svg xmlns="http://www.w3.org/2000/svg" width="16" height="16" viewBox="0 0 16 16">
  <g fill="none" fill-rule="evenodd">
    <polygon points="0 16 15.999 16 15.999 0 0 0"/>
    <path fill="#000" fill-rule="nonzero" d="M6.91818455,2.3732975 C7.40056105,1.54226026 8.60048881,1.54226026 9.08177632,2.37357505 L9.08177632,2.37357505 L14.5797788,11.8735793 C15.0622806,12.7073325 14.4618633,13.7488 13.4984,13.7488 L13.4984,13.7488 L2.5014,13.7488 C1.53865995,13.7488 0.937657971,12.707093 1.42002368,11.8735751 L1.42002368,11.8735751 Z M8.64904343,2.62405907 C8.36031119,2.12533974 7.64023895,2.12533974 7.35077632,2.62402495 L7.35077632,2.62402495 L1.85277878,12.1240207 C1.56334701,12.6241528 1.9237307,13.2488 2.5014,13.2488 L2.5014,13.2488 L13.4984,13.2488 C14.0767031,13.2488 14.4366364,12.6244697 14.1470237,12.1240249 L14.1470237,12.1240249 Z M7.9996,10.8748 C8.2066,10.8748 8.3746,11.0428 8.3746,11.2498 C8.3746,11.4578 8.2066,11.6248 7.9996,11.6248 C7.7926,11.6248 7.6246,11.4578 7.6246,11.2498 C7.6246,11.0428 7.7926,10.8748 7.9996,10.8748 Z M7.9996,5.7498 C8.11794673,5.7498 8.21708682,5.83203341 8.24299732,5.94247729 L8.2496,5.9998 L8.2496,8.9998 C8.2496,9.13787119 8.13767119,9.2498 7.9996,9.2498 C7.88125327,9.2498 7.78211318,9.16756659 7.75620268,9.05712271 L7.7496,8.9998 L7.7496,5.9998 C7.7496,5.86172881 7.86152881,5.7498 7.9996,5.7498 Z"/>
  </g>
</svg>
