<svg id="Raw" xmlns="http://www.w3.org/2000/svg" viewBox="0 0 256 256">
  <rect width="256" height="256" fill="none"/>
  <path d="M216.00781,64H176V56a24.0275,24.0275,0,0,0-24-24H104A24.0275,24.0275,0,0,0,80,56v8H40.00781a16.01833,16.01833,0,0,0-16,16V208a16.01833,16.01833,0,0,0,16,16h176a16.01833,16.01833,0,0,0,16-16V80A16.01833,16.01833,0,0,0,216.00781,64ZM96,56a8.00917,8.00917,0,0,1,8-8h48a8.00917,8.00917,0,0,1,8,8v8H96ZM216.00781,80l.00318,41.606A184.00072,184.00072,0,0,1,128,144a184.00068,184.00068,0,0,1-87.99219-22.38428V80ZM108,120a8.00039,8.00039,0,0,1,8-8h24a8,8,0,0,1,0,16H116A8.00039,8.00039,0,0,1,108,120Z"/>
</svg>
