<svg id="Raw" xmlns="http://www.w3.org/2000/svg" viewBox="0 0 256 256">
  <rect width="256" height="256" fill="none"/>
  <path d="M88,72V216l-47.99219,0a8,8,0,0,1-8-8v-128a8,8,0,0,1,8-8Z" opacity="0.2"/>
  <path d="M168.00781,72V216l47.99219,0a8,8,0,0,0,8-8v-128a8,8,0,0,0-8-8Z" opacity="0.2"/>
  <rect x="32.00781" y="72.00005" width="192" height="144" rx="8" stroke-width="16" stroke="#000" stroke-linecap="round" stroke-linejoin="round" fill="none"/>
  <path d="M168,216V48a8,8,0,0,0-8-8H96a8,8,0,0,0-8,8V216" fill="none" stroke="#000" stroke-linecap="round" stroke-linejoin="round" stroke-width="16"/>
</svg>
