<svg id="Layer_1" data-name="Layer 1" xmlns="http://www.w3.org/2000/svg" viewBox="0 0 256 256">
  <path d="M208.83966,72H47.16034a8,8,0,0,0-7.95107,7.11655l-14.22222,128A8,8,0,0,0,32.93812,216H223.06188a8,8,0,0,0,7.95107-8.88345l-14.22222-128A8,8,0,0,0,208.83966,72Z" opacity="0.2"/>
  <path d="M208.83966,72H47.16034a8,8,0,0,0-7.95107,7.11655l-14.22222,128A8,8,0,0,0,32.93812,216H223.06188a8,8,0,0,0,7.95107-8.88345l-14.22222-128A8,8,0,0,0,208.83966,72Z" fill="none" stroke="#000" stroke-linecap="round" stroke-linejoin="round" stroke-width="16"/>
  <path d="M85.99414,72c0-22.09139,18.804-40,42-40s42,17.90861,42,40" fill="none" stroke="#000" stroke-linecap="round" stroke-linejoin="round" stroke-width="16"/>
</svg>
