<svg id="Raw" xmlns="http://www.w3.org/2000/svg" viewBox="0 0 256 256">
  <rect width="256" height="256" fill="none"/>
  <path d="M238.96387,206.2334,224.74219,78.23291A15.98372,15.98372,0,0,0,208.83984,64h-33.519a47.99073,47.99073,0,0,0-94.6416,0h-33.519A15.98375,15.98375,0,0,0,31.25781,78.2334l-14.22168,128A16.00031,16.00031,0,0,0,32.93848,224h190.123a16.00031,16.00031,0,0,0,15.90235-17.7666ZM95.99219,104a8,8,0,0,1-16,0V88a8,8,0,0,1,16,0ZM97.0127,64a32.00443,32.00443,0,0,1,61.9746,0Zm78.97949,40a8,8,0,0,1-16,0V88a8,8,0,0,1,16,0Z"/>
</svg>
