<svg id="Layer_1" data-name="Layer 1" xmlns="http://www.w3.org/2000/svg" viewBox="0 0 256 256">
  <path d="M238.96387,206.2334,224.74219,78.23291A15.98372,15.98372,0,0,0,208.83984,64H177.28662c-3.98047-22.6709-24.562-40-49.29248-40s-45.312,17.3291-49.29248,40H47.16016A15.98375,15.98375,0,0,0,31.25781,78.2334l-14.22168,128A16.00031,16.00031,0,0,0,32.93848,224h190.123a16.00031,16.00031,0,0,0,15.90235-17.7666ZM127.99414,40c15.814,0,29.14014,10.21387,32.92383,24H95.07031C98.854,50.21387,112.18018,40,127.99414,40Z"/>
</svg>
