<svg id="Raw" xmlns="http://www.w3.org/2000/svg" viewBox="0 0 256 256">
  <rect width="256" height="256" fill="none"/>
  <g>
    <path d="M216,40H40A16.01833,16.01833,0,0,0,24,56V200a16.01833,16.01833,0,0,0,16,16H216a16.01833,16.01833,0,0,0,16-16V56A16.01833,16.01833,0,0,0,216,40ZM125.08643,175.74512a8.00256,8.00256,0,0,1-9.74219-5.75293,24.01011,24.01011,0,0,0-46.48779.00146,8.00008,8.00008,0,1,1-15.49512-3.98828,39.896,39.896,0,0,1,16.36023-23.16162,32.00008,32.00008,0,1,1,44.75793,0,39.89755,39.89755,0,0,1,16.35987,23.15918A8.00051,8.00051,0,0,1,125.08643,175.74512ZM192,152H152a8,8,0,0,1,0-16h40a8,8,0,0,1,0,16Zm0-32H152a8,8,0,0,1,0-16h40a8,8,0,0,1,0,16Z"/>
    <circle cx="92.10059" cy="120" r="16"/>
  </g>
</svg>
