<svg id="Raw" xmlns="http://www.w3.org/2000/svg" viewBox="0 0 256 256">
  <rect width="256" height="256" fill="none"/>
  <path d="M216,48H40a8,8,0,0,0-8,8V200a8,8,0,0,0,8,8H216a8,8,0,0,0,8-8V56A8,8,0,0,0,216,48ZM92.10046,144a24,24,0,1,1,24-24A23.99994,23.99994,0,0,1,92.10046,144Z" opacity="0.2"/>
  <line x1="152" y1="112" x2="192" y2="112" fill="none" stroke="#000" stroke-linecap="round" stroke-linejoin="round" stroke-width="16"/>
  <line x1="152" y1="144" x2="192" y2="144" fill="none" stroke="#000" stroke-linecap="round" stroke-linejoin="round" stroke-width="16"/>
  <circle cx="92.10043" cy="120" r="24" fill="none" stroke="#000" stroke-linecap="round" stroke-linejoin="round" stroke-width="16"/>
  <path d="M61.10869,167.99952a32.01032,32.01032,0,0,1,61.98292-.00215" fill="none" stroke="#000" stroke-linecap="round" stroke-linejoin="round" stroke-width="16"/>
  <rect x="32" y="48.00005" width="192" height="160" rx="8" stroke-width="16" stroke="#000" stroke-linecap="round" stroke-linejoin="round" fill="none"/>
</svg>
