<svg id="Layer_1" data-name="Layer 1" xmlns="http://www.w3.org/2000/svg" viewBox="0 0 256 256">
  <rect width="256" height="256" fill="none"/>
  <path d="M160,24H96A8,8,0,0,1,96,8h64a8,8,0,0,1,0,16Z"/>
  <path d="M184,40.00781H72a24.02625,24.02625,0,0,0-24,24v152a24.02624,24.02624,0,0,0,24,24H184a24.02624,24.02624,0,0,0,24-24v-152A24.02624,24.02624,0,0,0,184,40.00781ZM151.42969,142.97656l-16,40a8.00086,8.00086,0,0,1-14.85938-5.9375l11.61719-29.03125L112,147.99219a8.001,8.001,0,0,1-7.42969-10.96875l16-39.98438a8.00086,8.00086,0,0,1,14.85938,5.9375L123.8125,131.99219,144,132.00781a8.001,8.001,0,0,1,7.42969,10.96875Z"/>
</svg>
