<svg id="Layer_1" data-name="Layer 1" xmlns="http://www.w3.org/2000/svg" viewBox="0 0 256 256">
  <rect width="256" height="256" fill="none"/>
  <rect width="256" height="256" fill="none"/>
  <path d="M128,48a80,80,0,1,0,80,80A80.00009,80.00009,0,0,0,128,48Zm40,88H128a8.00008,8.00008,0,0,1-8-8V88a8,8,0,0,1,16,0v32h32a8,8,0,0,1,0,16Z"/>
  <path d="M84.53711,213.61749l2.39941,13.237A15.99062,15.99062,0,0,0,102.68018,240h50.63964a15.99062,15.99062,0,0,0,15.74366-13.14551l2.39941-13.237a96.16265,96.16265,0,0,1-86.92578,0Z"/>
  <path d="M171.46289,42.38251l-2.39941-13.237A15.99062,15.99062,0,0,0,153.31982,16H102.68018A15.99062,15.99062,0,0,0,86.93652,29.14551l-2.39941,13.237a96.16265,96.16265,0,0,1,86.92578,0Z"/>
</svg>
