<svg id="Raw" xmlns="http://www.w3.org/2000/svg" viewBox="0 0 256 256">
  <rect width="256" height="256" fill="none"/>
  <path d="M216.00049,47.99561h-176a7.99988,7.99988,0,0,0-8,8V192a15.99986,15.99986,0,0,1,15.99927,15.99561H216.00049a8,8,0,0,0,8-8v-144A7.99989,7.99989,0,0,0,216.00049,47.99561Z" opacity="0.2"/>
  <path d="M32,96V56a8,8,0,0,1,8-8H216a8,8,0,0,1,8,8V200a8,8,0,0,1-8,8H144" fill="none" stroke="#000" stroke-linecap="round" stroke-linejoin="round" stroke-width="16"/>
  <path d="M32,192a16,16,0,0,1,16,16" fill="none" stroke="#000" stroke-linecap="round" stroke-linejoin="round" stroke-width="16"/>
  <path d="M32,160a48,48,0,0,1,48,48" fill="none" stroke="#000" stroke-linecap="round" stroke-linejoin="round" stroke-width="16"/>
  <path d="M32,128a80,80,0,0,1,80,80" fill="none" stroke="#000" stroke-linecap="round" stroke-linejoin="round" stroke-width="16"/>
</svg>
