<svg id="Raw" xmlns="http://www.w3.org/2000/svg" viewBox="0 0 256.00098 256.00098">
  <rect width="256" height="256" fill="none"/>
  <path d="M174.63477,81.36523a79.99168,79.99168,0,1,0-93.26954,93.26954,79.99168,79.99168,0,1,0,93.26954-93.26954ZM32,96A64.00385,64.00385,0,0,1,157.98779,80.05127,80.06522,80.06522,0,0,0,80.051,157.98779,64.1144,64.1144,0,0,1,32,96ZM160,224a64.11421,64.11421,0,0,1-61.98779-48.05127A80.06522,80.06522,0,0,0,175.949,98.01221,64.00389,64.00389,0,0,1,160,224Z"/>
</svg>
