<svg id="Layer_1" data-name="Layer 1" xmlns="http://www.w3.org/2000/svg" viewBox="0 0 256 256">
  <path d="M218.76367,103.7,138.75781,30.96509a15.9373,15.9373,0,0,0-21.52734.00049L37.2373,103.69946A16.03112,16.03112,0,0,0,32,115.53833v92.46094a15.96786,15.96786,0,0,0,15.99805,15.99951h.0039l39.99414-.00586h.001l.00488-.00024,7.99317-.00122a7.99987,7.99987,0,0,0,7.999-8v-40.0083a23.88966,23.88966,0,0,1,5.7876-15.60376l4.63086-4.16919a23.92318,23.92318,0,0,1,6.45263-3.14624q.54529-.16992,1.10157-.31348c.03247-.00855.06494-.01636.09765-.02466q.50061-.12744,1.00977-.23364c.07886-.01636.1582-.0315.2373-.04712q.44422-.08826.8938-.16016c.11988-.0188.24024-.03589.3606-.053.26391-.03785.52881-.07227.79541-.10132.15234-.0166.30566-.03076.45874-.04444.2395-.02148.47973-.04052.721-.05493.17553-.0105.35156-.01782.52758-.02466.22461-.00854.44971-.01465.67578-.01709.18995-.00195.38013-.00073.57056.00171q.32227.00439.64258.01636.30249.01209.60376.03223.275.01794.54858.042c.26709.02417.53369.05127.79834.08447q.12378.01539.24756.03174c11.69629,1.60107,20.83838,12.07153,20.83838,24.45068v39.34278a7.99988,7.99988,0,0,0,7.999,8l7.99414.00122.00489.00024,40.00488.00586h.00391a15.99912,15.99912,0,0,0,15.999-16v-92.46A16.03571,16.03571,0,0,0,218.76367,103.7Z"/>
</svg>
