<svg id="Layer_1" data-name="Layer 1" xmlns="http://www.w3.org/2000/svg" viewBox="0 0 256 256">
  <path d="M151.99414,207.99263v-32.0011a23.99995,23.99995,0,0,0-23.99995-24h-.00005a24,24,0,0,0-24,24v32.001a8,8,0,0,1-7.999,8l-47.99414.00632a8,8,0,0,1-8.001-8v-92.4604a8,8,0,0,1,2.61811-5.91906l79.9945-72.73477a8,8,0,0,1,10.76339-.00036l80.0055,72.73509A8,8,0,0,1,216,115.53887V207.999a8,8,0,0,1-8.001,8l-48.00586-.00632A8,8,0,0,1,151.99414,207.99263Z" fill="none" stroke="#000" stroke-linecap="round" stroke-linejoin="round" stroke-width="16"/>
</svg>
