<svg id="Raw" xmlns="http://www.w3.org/2000/svg" viewBox="0 0 256 256">
  <rect width="256" height="256" fill="none"/>
  <path d="M240,128c0,10.44238-7.51074,18.27441-14.1377,25.18457-3.77246,3.93359-7.67285,8-9.14648,11.56348-1.35449,3.27343-1.43652,8.69629-1.51562,13.93945-.14747,9.75879-.31446,20.81934-8.0044,28.50879-7.68945,7.68945-18.75,7.85644-28.5083,8.00391-5.24414.0791-10.667.16113-13.94043,1.51562-3.5625,1.47363-7.62988,5.374-11.5625,9.14648C146.27441,232.48926,138.44238,240,127.99951,240c-10.44238,0-18.27392-7.51074-25.18408-14.1377-3.93311-3.77246-8-7.67285-11.56348-9.14648-3.27295-1.35449-8.69531-1.43652-13.93945-1.51562-9.75879-.14747-20.81934-.31446-28.50879-8.00391s-7.85644-18.75-8.00391-28.50879c-.0791-5.24316-.16113-10.666-1.51562-13.93945-1.47363-3.56348-5.374-7.62989-9.14648-11.56348C23.51074,146.27441,16,138.44238,16,128s7.51074-18.27441,14.1377-25.18457c3.77246-3.93359,7.67285-8,9.14648-11.56348,1.35449-3.27343,1.43652-8.69629,1.51562-13.93945.14747-9.75879.31446-20.81934,8.0044-28.50879,7.68945-7.68945,18.75-7.85644,28.5083-8.00391,5.24414-.0791,10.667-.16113,13.94043-1.51562,3.5625-1.47363,7.62988-5.374,11.5625-9.14648C109.72559,23.51074,117.55762,16,128.00049,16c10.44238,0,18.27392,7.51074,25.18408,14.1377,3.93311,3.77246,8,7.67285,11.56348,9.14648,3.27295,1.35449,8.69531,1.43652,13.93945,1.51562,9.75879.14747,20.81934.31446,28.50879,8.00391s7.85644,18.75,8.00391,28.50879c.0791,5.24316.16113,10.666,1.51562,13.93945,1.47363,3.56348,5.374,7.62989,9.14648,11.56348C232.48926,109.72559,240,117.55762,240,128Z"/>
</svg>
