<svg id="Raw" xmlns="http://www.w3.org/2000/svg" viewBox="0 0 256 256">
  <rect width="256" height="256" fill="none"/>
  <g>
    <path d="M155.50977,24.80957a7.993,7.993,0,0,0-8.42188.875L77.24414,79.99707h-45.25a16.01583,16.01583,0,0,0-16,16v64a16.01583,16.01583,0,0,0,16,16h45.25l69.84375,54.3125a7.99451,7.99451,0,0,0,12.90625-6.3125v-192A7.99374,7.99374,0,0,0,155.50977,24.80957Z"/>
    <path d="M227.30664,127.99707l18.34375-18.34375a7.99915,7.99915,0,0,0-11.3125-11.3125l-18.34375,18.34375L197.65039,98.34082a7.99915,7.99915,0,0,0-11.3125,11.3125l18.34375,18.34375-18.34375,18.34375a7.99915,7.99915,0,1,0,11.3125,11.3125l18.34375-18.34375,18.34375,18.34375a7.99915,7.99915,0,0,0,11.3125-11.3125Z"/>
  </g>
</svg>
