<svg id="Raw" xmlns="http://www.w3.org/2000/svg" viewBox="0 0 256 256">
  <rect width="256" height="256" fill="none"/>
  <path d="M232.167,51.71582v48a8.00039,8.00039,0,0,1-8,8h-48a8.00065,8.00065,0,0,1-5.65722-13.65723l18.34277-18.34277-4.28418-4.28418a80.08769,80.08769,0,0,0-113.13672,0A8.00052,8.00052,0,0,1,60.11719,60.11719a96.11137,96.11137,0,0,1,135.76562,0l4.28418,4.28418,18.34278-18.34278A8.00065,8.00065,0,0,1,232.167,51.71582ZM184.56836,184.56836a80.08769,80.08769,0,0,1-113.13672,0l-4.28418-4.28418,18.34277-18.34277A8.00065,8.00065,0,0,0,79.833,148.28418h-48a8.00039,8.00039,0,0,0-8,8v48a8.00052,8.00052,0,0,0,13.65722,5.65723L55.833,191.59863l4.28418,4.28418a96.11136,96.11136,0,0,0,135.76562,0,8.00052,8.00052,0,0,0-11.31445-11.31445Z"/>
</svg>
