<svg id="Layer_1" data-name="Layer 1" xmlns="http://www.w3.org/2000/svg" viewBox="0 0 256 256">
  <rect width="256" height="256" fill="none"/>
  <rect width="256" height="256" fill="none"/>
  <path d="M176.42693,181.28138A72.00558,72.00558,0,0,1,56.43944,136.00006" fill="none" stroke="#000" stroke-linecap="round" stroke-linejoin="round" stroke-width="16"/>
  <path d="M154.90249,157.60205A39.85421,39.85421,0,0,1,128.00009,168H128a40,40,0,0,1-40-40V84.00214" fill="none" stroke="#000" stroke-linecap="round" stroke-linejoin="round" stroke-width="16"/>
  <path d="M154.90249,157.60205A39.85421,39.85421,0,0,1,128.00009,168H128a40,40,0,0,1-40-40V84.00214Z"/>
  <line x1="128" y1="200" x2="128" y2="232" fill="none" stroke="#000" stroke-linecap="round" stroke-linejoin="round" stroke-width="16"/>
  <line x1="48" y1="40" x2="208" y2="216" fill="none" stroke="#000" stroke-linecap="round" stroke-linejoin="round" stroke-width="16"/>
  <path d="M91.92691,46.69476A40.00336,40.00336,0,0,1,128,24h.00008A39.99991,39.99991,0,0,1,168,63.99991v64.00018q0,1.15878-.06511,2.30162Z" fill="none" stroke="#000" stroke-linecap="round" stroke-linejoin="round" stroke-width="16"/>
  <path d="M91.92691,46.69476A40.00336,40.00336,0,0,1,128,24h.00008A39.99991,39.99991,0,0,1,168,63.99991v64.00018q0,1.15878-.06511,2.30162Z"/>
  <path d="M199.56055,136.00017a71.52052,71.52052,0,0,1-6.20935,22.26055" fill="none" stroke="#000" stroke-linecap="round" stroke-linejoin="round" stroke-width="16"/>
</svg>
