<svg id="Layer_1" data-name="Layer 1" xmlns="http://www.w3.org/2000/svg" viewBox="0 0 256 256">
  <rect width="256" height="256" fill="none"/>
  <line x1="128" y1="200" x2="128" y2="232" fill="none" stroke="#000" stroke-linecap="round" stroke-linejoin="round" stroke-width="12"/>
  <line x1="48" y1="40" x2="208" y2="216" fill="none" stroke="#000" stroke-linecap="round" stroke-linejoin="round" stroke-width="12"/>
  <path d="M91.9271,46.69438A40.00335,40.00335,0,0,1,128,24h.00008A39.99991,39.99991,0,0,1,168,63.99991v64.00018q0,1.15818-.06505,2.30046" fill="none" stroke="#000" stroke-linecap="round" stroke-linejoin="round" stroke-width="12"/>
  <path d="M199.56055,136.00017a71.52052,71.52052,0,0,1-6.20937,22.26059" fill="none" stroke="#000" stroke-linecap="round" stroke-linejoin="round" stroke-width="12"/>
  <path d="M154.90713,157.59783A39.85426,39.85426,0,0,1,128.00009,168H128a40,40,0,0,1-40-40V84" fill="none" stroke="#000" stroke-linecap="round" stroke-linejoin="round" stroke-width="12"/>
  <path d="M176.43278,181.27606a72.00558,72.00558,0,0,1-119.99334-45.276" fill="none" stroke="#000" stroke-linecap="round" stroke-linejoin="round" stroke-width="12"/>
</svg>
