<svg id="Raw" xmlns="http://www.w3.org/2000/svg" viewBox="0 0 256 256">
  <rect width="256" height="256" fill="none"/>
  <path d="M217.06543,146.8623l13.09082-72.00048A16.00086,16.00086,0,0,0,214.41406,56H46.67676L41.793,29.13818A15.9918,15.9918,0,0,0,26.05078,16H8A8,8,0,0,0,8,32H26.05078L52.75293,178.86182a16.0028,16.0028,0,0,0,1.187,3.76489A27.99341,27.99341,0,1,0,97.293,192H166.707A27.99678,27.99678,0,1,0,192,176H68.49512l-2.90918-16h135.7373A15.99184,15.99184,0,0,0,217.06543,146.8623Z"/>
</svg>
