<svg id="Layer_1" data-name="Layer 1" xmlns="http://www.w3.org/2000/svg" viewBox="0 0 256 256">
  <rect width="256" height="256" fill="none"/>
  <line x1="128" y1="200" x2="128" y2="232" fill="none" stroke="#000" stroke-linecap="round" stroke-linejoin="round" stroke-width="8"/>
  <path d="M176.43278,181.27606a72.00558,72.00558,0,0,1-119.99334-45.276" fill="none" stroke="#000" stroke-linecap="round" stroke-linejoin="round" stroke-width="8"/>
  <line x1="48" y1="40" x2="208" y2="216" fill="none" stroke="#000" stroke-linecap="round" stroke-linejoin="round" stroke-width="8"/>
  <path d="M154.90713,157.59783A39.85426,39.85426,0,0,1,128.00009,168H128a40,40,0,0,1-40-40V84.0087" fill="none" stroke="#000" stroke-linecap="round" stroke-linejoin="round" stroke-width="8"/>
  <path d="M93.95908,42.98431A39.97458,39.97458,0,0,1,128,24h.00008A39.99991,39.99991,0,0,1,168,63.99991V124.4291" fill="none" stroke="#000" stroke-linecap="round" stroke-linejoin="round" stroke-width="8"/>
  <path d="M199.56055,136.00017a71.54833,71.54833,0,0,1-4.482,18.21516" fill="none" stroke="#000" stroke-linecap="round" stroke-linejoin="round" stroke-width="8"/>
</svg>
