<svg id="Raw" xmlns="http://www.w3.org/2000/svg" viewBox="0 0 256 256">
  <rect width="256" height="256" fill="none"/>
  <path d="M176.42693,181.28138A72.00558,72.00558,0,0,1,56.43944,136.00006" fill="none" stroke="#000" stroke-linecap="round" stroke-linejoin="round" stroke-width="24"/>
  <path d="M154.90249,157.60205A39.85421,39.85421,0,0,1,128.00009,168H128a40,40,0,0,1-40-40V84.00214" fill="none" stroke="#000" stroke-linecap="round" stroke-linejoin="round" stroke-width="24"/>
  <line x1="128" y1="200" x2="128" y2="232" fill="none" stroke="#000" stroke-linecap="round" stroke-linejoin="round" stroke-width="24"/>
  <line x1="48" y1="40" x2="208" y2="216" fill="none" stroke="#000" stroke-linecap="round" stroke-linejoin="round" stroke-width="24"/>
  <path d="M93.95906,42.98434A39.97457,39.97457,0,0,1,128,24h.00008A39.99991,39.99991,0,0,1,168,63.99991V124.4291" fill="none" stroke="#000" stroke-linecap="round" stroke-linejoin="round" stroke-width="24"/>
  <path d="M199.56055,136.00017a71.54827,71.54827,0,0,1-4.48193,18.2151" fill="none" stroke="#000" stroke-linecap="round" stroke-linejoin="round" stroke-width="24"/>
</svg>
