<svg xmlns="http://www.w3.org/2000/svg" width="16" height="16" viewBox="0 0 16 16">
  <g fill="none" fill-rule="evenodd">
    <polygon points="0 16 16 16 16 0 0 0"/>
    <path fill="#000" fill-rule="nonzero" d="M7.04923371,1.65127812 L5.6722101,5.11833756 C5.66714187,5.13107455 5.65842773,5.13750279 5.65162912,5.1379425 L1.960457,5.37795366 C1.0287776,5.43654872 0.659688719,6.62139935 1.37490967,7.21709551 L4.20203516,9.5702 C4.21298999,9.57930633 4.21902564,9.59822291 4.21439273,9.61639815 L3.37027799,12.9408492 C3.11583646,13.9356418 4.19217452,14.7514516 5.06311159,14.1978746 L7.99142261,12.3433117 C7.99704665,12.3397509 8.00275335,12.3397509 8.00843343,12.3433472 L11.1603038,14.3402651 C11.951456,14.8408702 12.9246209,14.1026594 12.696667,13.2004217 L11.7854821,9.616692 C11.7807744,9.59822291 11.78681,9.57930633 11.7975192,9.57040431 L14.6247648,7.2172 C15.3401113,6.62139935 14.9710224,5.43654872 14.0382845,5.37788596 L10.348343,5.13795366 C10.3413723,5.13750279 10.3326581,5.13107455 10.3274731,5.1180437 L8.9505899,1.65133756 C8.60737155,0.782624489 7.39436841,0.782624489 7.04923371,1.65127812 Z M8.02087838,2.01962506 L9.3982101,5.48746244 C9.54523678,5.85696398 9.88867814,6.11031341 10.2836291,6.1358575 L13.974457,6.37584634 C13.996574,6.37723847 14.0118472,6.42626864 13.9849097,6.44870449 L11.1580352,8.8016 C10.849313,9.05822515 10.7169202,9.47316355 10.8163927,9.86340185 L11.7273179,13.446108 C11.737119,13.4849027 11.7105477,13.5050587 11.6952514,13.4953799 L8.54349617,11.4985349 C8.21104665,11.2880491 7.78875335,11.2880491 7.45643343,11.4984528 L4.52737739,13.3534883 C4.43196448,13.414133 4.30586233,13.3185539 4.33930616,13.1877978 L5.18352201,9.86295084 C5.28287977,9.47316355 5.15048698,9.05822515 4.84151921,8.80139569 L2.01476484,6.4486 C1.98795278,6.42626864 2.00322601,6.37723847 2.02428453,6.37591404 L5.716343,6.13584634 C6.11112186,6.11031341 6.45456322,5.85696398 6.60147308,5.4877563 L7.9785899,2.02046244 C7.98943159,1.99317551 8.01042845,1.99317551 8.02087838,2.01962506 Z"/>
  </g>
</svg>
