<svg xmlns="http://www.w3.org/2000/svg" width="16" height="16" viewBox="0 0 16 16">
  <g fill="none" fill-rule="evenodd">
    <polygon points="0 16 15.999 16 15.999 0 0 0"/>
    <path fill="#000" fill-rule="nonzero" d="M5.49,4.897 L1.9443355,5.12828049 L1.8183504,5.14225913 C0.752151634,5.3111642 0.360746773,6.69748725 1.21501451,7.40899326 L3.94,9.677 L3.12714575,12.8778138 L3.10127244,13.0025054 C2.91207367,14.1578432 4.16698258,15.0610745 5.19579037,14.4106299 L7.999,12.634 L11.0266057,14.5512477 L11.1329418,14.6122019 C12.0962949,15.108816 13.2115091,14.216973 12.9391505,13.1389826 L12.057,9.678 L14.7847973,7.40914999 L14.8778911,7.32414928 C15.6373503,6.56339347 15.1729213,5.20073855 14.0555382,5.12827229 L10.508,4.897 L9.18303485,1.55885633 C8.75429738,0.479786733 7.24329268,0.479786733 6.81646758,1.56011241 L5.49,4.897 Z M8,2.643 L9.16596515,5.57954367 L9.22167191,5.7009761 C9.42667628,6.09318258 9.82033088,6.35620881 10.2675937,6.38513625 L13.423,6.59 L10.9982027,8.60925001 L10.8901309,8.71019011 C10.5859727,9.02914677 10.4640975,9.48729796 10.5721848,9.92176623 L11.351,12.98 L8.67739426,11.2871523 L8.54999873,11.2163504 C8.15905658,11.0275447 7.69538204,11.0511342 7.32280015,11.2870292 L4.648,12.981 L5.42585425,9.92558617 L5.4527215,9.79346595 C5.51870673,9.35147332 5.35072433,8.89929544 5.00142881,8.60894354 L2.576,6.59 L5.7326645,6.38511951 C6.2243954,6.35331607 6.65151856,6.03823634 6.83403485,5.57954367 L8,2.643 Z"/>
  </g>
</svg>
