<svg xmlns="http://www.w3.org/2000/svg" width="16" height="16" viewBox="0 0 16 16">
  <g fill="none" fill-rule="evenodd">
    <polygon points="0 16 15.999 16 15.999 0 0 0"/>
    <path fill="#000" fill-rule="nonzero" d="M7.16523379,1.69790621 L5.78848257,5.16427817 C5.76566954,5.22161073 5.7151145,5.25890411 5.65979684,5.26248187 L1.96866775,5.50249024 C1.14970897,5.55560263 0.825822389,6.59680856 1.45500725,7.12084663 L4.28210137,9.473925 C4.33075672,9.51436985 4.35256349,9.58252703 4.33593751,9.64683506 L3.49057287,12.9702569 C3.26705839,13.8595864 4.22067444,14.5834677 4.99539519,14.0936649 L7.92471914,12.2374599 C7.97110999,12.2080882 8.02889001,12.2080882 8.07540007,12.2375354 L11.2273029,14.2344738 C11.9214425,14.6736938 12.7762832,14.0252398 12.5755753,13.2308413 L11.6634061,9.64817448 C11.6473154,9.58347273 11.6694905,9.51416434 11.7177144,9.47407823 L14.5448986,7.120925 C15.1741776,6.59680856 14.850291,5.55560263 14.0312691,5.50248614 L10.3403323,5.26249024 C10.2848855,5.25890411 10.2343305,5.22161073 10.2114298,5.16405777 L8.83451743,1.69727817 C8.53114869,0.933743367 7.46714634,0.933743367 7.16523379,1.69790621 Z M8.13750028,1.97416641 L9.51448257,5.44112183 C9.64376445,5.76602781 9.9453649,5.98851208 10.2917968,6.01091813 L13.9826677,6.25090976 C14.1190779,6.25975645 14.1783135,6.45018242 14.0650073,6.54455337 L11.2381014,8.897475 C10.9670936,9.12275012 10.850497,9.48717338 10.9360924,9.83123311 L11.8485939,13.4152255 C11.8856567,13.5619223 11.7407613,13.6718352 11.6285136,13.6008099 L8.47669713,11.6039262 C8.18510999,11.4193118 7.81489001,11.4193118 7.52340007,11.6038646 L4.59428086,13.4599401 C4.40154444,13.5817939 4.15687733,13.3960693 4.21768956,13.1541052 L5.06242713,9.83314308 C5.15118121,9.48986045 5.03402149,9.12367704 4.7617144,8.89732177 L1.93489863,6.544475 C1.82168652,6.45018242 1.88092208,6.25975645 2.0172691,6.25091386 L5.70833225,6.01090976 C6.0546351,5.98851208 6.35623555,5.76602781 6.48542981,5.44134223 L7.86251743,1.97412183 C7.91485366,1.84165663 8.08485131,1.84165663 8.13750028,1.97416641 Z"/>
  </g>
</svg>
