<svg xmlns="http://www.w3.org/2000/svg" width="16" height="16" viewBox="0 0 16 16">
  <g fill="none" fill-rule="evenodd">
    <polygon points="0 16 15.999 16 15.999 0 0 0"/>
    <path fill="#000" fill-rule="nonzero" d="M7.28148919,1.74383747 L5.90465505,5.21041878 C5.8640972,5.31234691 5.77170127,5.38050544 5.66786456,5.38722125 L1.9767785,5.62722683 C1.27157782,5.6729616 0.991799745,6.57237087 1.53500484,7.02479775 L4.36206758,9.37785 C4.44796752,9.44925438 4.48566644,9.5670826 4.45695834,9.67812338 L3.61171525,13.0010713 C3.41536155,13.7823336 4.25081944,14.4165221 4.92859679,13.98801 L7.85781276,12.1318733 C7.94507332,12.0766255 8.05492668,12.0766255 8.14226672,12.1319236 L11.2942019,14.1288826 C11.8913289,14.5067173 12.6278454,13.9480202 12.4543835,13.2614609 L11.5422708,9.67901632 C11.5145124,9.56742284 11.5524244,9.44892864 11.6378096,9.37795215 L14.4649324,7.02485 C15.0082003,6.57237087 14.7284222,5.6729616 14.0231794,5.6272241 L10.3322215,5.38722683 C10.2282987,5.38050544 10.1359028,5.31234691 10.0952865,5.21027185 L8.71834495,1.74341878 C8.45676579,1.08506224 7.54176423,1.08506224 7.28148919,1.74383747 Z M8.25366685,1.92801094 L9.63065505,5.39498122 C9.74219212,5.67529163 10.0019517,5.86691075 10.2998646,5.88617875 L13.9907785,6.12617317 C14.2409468,6.14239748 14.3442908,6.47462011 14.1450048,6.64060225 L11.3180676,8.99355 C11.0841597,9.18798582 10.9833001,9.50322327 11.0573949,9.80105541 L11.9697292,13.3843837 C12.0340945,13.6391419 11.7708748,13.8388116 11.5616757,13.70644 L8.40979809,11.7095174 C8.15907332,11.5507745 7.84092668,11.5507745 7.59026672,11.7094764 L4.66118724,13.5655267 C4.37139944,13.7487395 4.00857417,13.4733222 4.09645971,13.1236368 L4.94128475,9.80232872 C5.01807826,9.50530488 4.9168107,9.18879251 4.6818096,8.99344785 L1.85493242,6.64055 C1.65570917,6.47462011 1.75905323,6.14239748 2.0091794,6.1261759 L5.7002215,5.88617317 C5.99804833,5.86691075 6.25780788,5.67529163 6.36934495,5.39498122 L7.74634495,1.92798122 C7.84023577,1.69033776 8.15923421,1.69033776 8.25366685,1.92801094 Z"/>
  </g>
</svg>
