<svg id="Raw" xmlns="http://www.w3.org/2000/svg" viewBox="0 0 256 256">
  <rect width="256" height="256" fill="none"/>
  <path d="M239.166,97.41117A16.37036,16.37036,0,0,0,224.63477,86.044l-59.39063-4.15625L143.21289,26.41117A16.33117,16.33117,0,0,0,127.99414,15.9971h-.01562A16.324,16.324,0,0,0,112.791,26.41117L90.43164,82.208,31.36914,86.044A16.37036,16.37036,0,0,0,16.83789,97.41117a16.68222,16.68222,0,0,0,5.15625,18.0625l45.4375,38.40625L53.916,207.044a18.37492,18.37492,0,0,0,7.01562,19.51562,17.83088,17.83088,0,0,0,20.0625.625l46.875-29.69531c.0625-.04687.125-.07812.26563,0l50.4375,31.95313a16.14026,16.14026,0,0,0,18.20312-.5625,16.64744,16.64744,0,0,0,6.35938-17.67969L188.77539,153.1221l45.23438-37.64843A16.68222,16.68222,0,0,0,239.166,97.41117Z"/>
</svg>
