<svg xmlns="http://www.w3.org/2000/svg" width="16" height="16" viewBox="0 0 16 16">
  <g fill="none" fill-rule="evenodd">
    <polygon points="0 16 15.999 16 15.999 0 0 0"/>
    <path fill="#000" d="M14.9479,6.0882 C14.8159,5.6842 14.4599,5.4052 14.0399,5.3782 L10.3279,5.1182 L8.9509,1.6512 C8.7939,1.2552 8.4209,1.0002 7.9999,1.0002 L7.9989,1.0002 C7.5789,1.0002 7.2059,1.2562 7.0499,1.6512 L5.6519,5.1382 L1.9609,5.3782 C1.5409,5.4052 1.1839,5.6842 1.0519,6.0882 C0.9189,6.4992 1.0459,6.9422 1.3749,7.2172 L4.2149,9.6172 L3.3699,12.9402 C3.2529,13.4032 3.4249,13.8822 3.8079,14.1602 C4.1799,14.4292 4.6729,14.4442 5.0619,14.1992 L7.9919,12.3432 C7.9959,12.3402 7.9999,12.3382 8.0089,12.3432 L11.1609,14.3402 C11.3279,14.4462 11.5159,14.4992 11.7039,14.4992 C11.9129,14.4992 12.1209,14.4342 12.2989,14.3052 C12.6459,14.0532 12.8019,13.6192 12.6959,13.2002 L11.7989,9.5702 L14.6259,7.2172 C14.9549,6.9422 15.0819,6.4992 14.9479,6.0882"/>
  </g>
</svg>
