<svg id="Layer_1" data-name="Layer 1" xmlns="http://www.w3.org/2000/svg" viewBox="0 0 256 256">
  <path d="M73.87573,111.39355l-.009-.03369L42.51636,148.98047a7.99958,7.99958,0,0,0-1.66358,6.85693l12.3628,55.63281a8,8,0,0,0,12.80713,4.51172L96,192C78.36523,161.44922,72.74268,134.47656,73.87573,111.39355Z" opacity="0.2"/>
  <path d="M181.52239,110.6714l.009-.03369,31.35034,37.6206a7.99958,7.99958,0,0,1,1.66358,6.85693l-12.3628,55.63282a8,8,0,0,1-12.80712,4.51172l-29.9773-23.98194C177.03289,160.72706,182.65544,133.75441,181.52239,110.6714Z" opacity="0.2"/>
  <line x1="144" y1="224" x2="112" y2="224" fill="none" stroke="#000" stroke-linecap="round" stroke-linejoin="round" stroke-width="16"/>
  <path d="M122.97053,19.76275C103.97814,34.97686,40.45429,95.77187,96,192h64c54.39078-96.16-8.20388-156.9371-26.9971-172.20489A7.98387,7.98387,0,0,0,122.97053,19.76275Z" fill="none" stroke="#000" stroke-linecap="round" stroke-linejoin="round" stroke-width="16"/>
  <circle cx="128" cy="96" r="12"/>
  <path d="M73.86661,111.36007,42.51644,148.98028a8,8,0,0,0-1.66373,6.85692l12.36292,55.63314a8,8,0,0,0,12.80706,4.51151L96,192" fill="none" stroke="#000" stroke-linecap="round" stroke-linejoin="round" stroke-width="16"/>
  <path d="M181.53142,110.63771l31.95214,38.34257a8,8,0,0,1,1.66373,6.85692l-12.36292,55.63314a8,8,0,0,1-12.80706,4.51151L160,192" fill="none" stroke="#000" stroke-linecap="round" stroke-linejoin="round" stroke-width="16"/>
</svg>
