<svg xmlns="http://www.w3.org/2000/svg" width="16" height="16" viewBox="0 0 16 16">
  <g fill="none" fill-rule="evenodd">
    <polygon points="0 16 16 16 16 0 0 0"/>
    <path fill="#000" fill-rule="nonzero" d="M8,1.625 C11.5201068,1.625 14.375,4.47989322 14.375,8 C14.375,11.5201068 11.5201068,14.375 8,14.375 C4.47989322,14.375 1.625,11.5201068 1.625,8 C1.625,4.47989322 4.47989322,1.625 8,1.625 Z M8,2.375 C4.89410678,2.375 2.375,4.89410678 2.375,8 C2.375,11.1058932 4.89410678,13.625 8,13.625 C11.1058932,13.625 13.625,11.1058932 13.625,8 C13.625,4.89410678 11.1058932,2.375 8,2.375 Z M8,4.125 C8.18121843,4.125 8.33241398,4.25354325 8.36738133,4.42442442 L8.375,4.5 L8.375,7.625 L11.5,7.625 C11.6812184,7.625 11.832414,7.75354325 11.8673813,7.92442442 L11.875,8 C11.875,8.18121843 11.7464568,8.33241398 11.5755756,8.36738133 L11.5,8.375 L8,8.375 C7.81878157,8.375 7.66758602,8.24645675 7.63261867,8.07557558 L7.625,8 L7.625,4.5 C7.625,4.29289322 7.79289322,4.125 8,4.125 Z"/>
  </g>
</svg>
