<svg xmlns="http://www.w3.org/2000/svg" width="16" height="16" viewBox="0 0 16 16">
  <g fill="none" fill-rule="evenodd">
    <polygon points="0 16 16 16 16 0 0 0"/>
    <path fill="#000" d="M2,8 C2,4.687 4.687,2 8,2 C11.313,2 14,4.687 14,8 C14,11.313 11.313,14 8,14 C4.687,14 2,11.313 2,8" opacity=".2"/>
    <path fill="#000" fill-rule="nonzero" d="M8,1.5 C11.5891424,1.5 14.5,4.41085763 14.5,8 C14.5,11.5891424 11.5891424,14.5 8,14.5 C4.41085763,14.5 1.5,11.5891424 1.5,8 C1.5,4.41085763 4.41085763,1.5 8,1.5 Z M8,2.5 C4.96314237,2.5 2.5,4.96314237 2.5,8 C2.5,11.0368576 4.96314237,13.5 8,13.5 C11.0368576,13.5 13.5,11.0368576 13.5,8 C13.5,4.96314237 11.0368576,2.5 8,2.5 Z M8,4 C8.24545989,4 8.44960837,4.17687516 8.49194433,4.41012437 L8.5,4.5 L8.5,7.5 L11.5,7.5 C11.7454599,7.5 11.9496084,7.67687516 11.9919443,7.91012437 L12,8 C12,8.24545989 11.8231248,8.44960837 11.5898756,8.49194433 L11.5,8.5 L8,8.5 C7.75454011,8.5 7.55039163,8.32312484 7.50805567,8.08987563 L7.5,8 L7.5,4.5 C7.5,4.22385763 7.72385763,4 8,4 Z"/>
  </g>
</svg>
