<svg xmlns="http://www.w3.org/2000/svg" width="16" height="16" viewBox="0 0 16 16">
  <g fill="none" fill-rule="evenodd">
    <polygon points="0 16 16 16 16 0 0 0"/>
    <path fill="#000" fill-rule="nonzero" d="M8,1.25 C11.7272136,1.25 14.75,4.27278644 14.75,8 C14.75,11.7272136 11.7272136,14.75 8,14.75 C4.27278644,14.75 1.25,11.7272136 1.25,8 C1.25,4.27278644 4.27278644,1.25 8,1.25 Z M8,2.75 C5.10121356,2.75 2.75,5.10121356 2.75,8 C2.75,10.8987864 5.10121356,13.25 8,13.25 C10.8987864,13.25 13.25,10.8987864 13.25,8 C13.25,5.10121356 10.8987864,2.75 8,2.75 Z M8,3.75 C8.37969577,3.75 8.69349096,4.03215388 8.74315338,4.39822944 L8.75,4.5 L8.75,7.25 L11.5,7.25 C11.8796958,7.25 12.193491,7.53215388 12.2431534,7.89822944 L12.25,8 C12.25,8.37969577 11.9678461,8.69349096 11.6017706,8.74315338 L11.5,8.75 L8,8.75 C7.62030423,8.75 7.30650904,8.46784612 7.25684662,8.10177056 L7.25,8 L7.25,4.5 C7.25,4.08578644 7.58578644,3.75 8,3.75 Z"/>
  </g>
</svg>
