<svg id="Layer_1" data-name="Layer 1" xmlns="http://www.w3.org/2000/svg" viewBox="0 0 256.00098 256.00098">
  <path d="M232,96.00049a16.01833,16.01833,0,0,0-16-16H184v-32a16.01833,16.01833,0,0,0-16-16H40a16.01833,16.01833,0,0,0-16,16v128a7.99978,7.99978,0,0,0,13.0293,6.22119L72,153.95032l.001,30.05017a16.01833,16.01833,0,0,0,16,16h93.58789l37.38281,30.22119a7.99979,7.99979,0,0,0,13.0293-6.22119ZM189.44727,185.7793a7.99922,7.99922,0,0,0-5.0293-1.77881H88.001l-.001-32h80a16.01833,16.01833,0,0,0,16-16v-40h32l.001,111.24512Z"/>
</svg>
