<svg id="Layer_1" data-name="Layer 1" xmlns="http://www.w3.org/2000/svg" viewBox="0 0 256 256">
  <rect width="256" height="256" fill="none"/>
  <g>
    <path d="M102.61513,167.99973c5.44754,16.2404,14.03928,30.92382,25.38487,42.4452,11.34559-11.52138,19.93733-26.2048,25.38487-42.4452Z"/>
    <path d="M176,127.99962a145.91824,145.91824,0,0,1-2.12654,24.00006l48.66573,0a7.94619,7.94619,0,0,0,7.88357-6.41133,98.85936,98.85936,0,0,0,0-35.17739,7.9462,7.9462,0,0,0-7.88357-6.41133l-48.66573,0A145.91826,145.91826,0,0,1,176,127.99962Z"/>
    <path d="M160,127.99962a127.02169,127.02169,0,0,0-2.31053-24.0001H98.3115a125.75116,125.75116,0,0,0,0,48.00019h59.378A127.02166,127.02166,0,0,0,160,127.99962Z"/>
    <path d="M133.25,28.54649c17.62492,15.35931,30.26942,36.05256,37.05021,59.45305h40.66295A8.10147,8.10147,0,0,0,217.907,75.80981a104.03306,104.03306,0,0,0-89.86894-51.80824Z"/>
    <path d="M85.69979,87.99954c6.78079-23.40049,19.42529-44.09374,37.05021-59.453l5.21191-4.54492a104.0313,104.0313,0,0,0-89.868,51.80827,8.10146,8.10146,0,0,0,6.94388,12.1897Z"/>
    <path d="M170.30021,167.99969c-6.78079,23.40049-19.42529,44.09374-37.05021,59.45305l-5.21191,4.54492a104.03176,104.03176,0,0,0,89.86911-51.80828,8.10147,8.10147,0,0,0-6.94389-12.18969Z"/>
    <path d="M122.75,227.45274c-17.62492-15.35931-30.26942-36.05256-37.05021-59.45305H45.03762a8.10148,8.10148,0,0,0-6.9439,12.18966,104.03,104.03,0,0,0,89.86819,51.80831Z"/>
    <path d="M153.38487,87.9995C147.93733,71.7591,139.34559,57.07568,128,45.5543c-11.34559,11.52138-19.93733,26.2048-25.38487,42.4452Z"/>
    <path d="M33.46081,103.99959a7.9462,7.9462,0,0,0-7.88357,6.41133,98.85936,98.85936,0,0,0,0,35.17739,7.94619,7.94619,0,0,0,7.88357,6.41133l48.66573,0A145.91824,145.91824,0,0,1,80,127.99962a145.91826,145.91826,0,0,1,2.12654-24.00007Z"/>
  </g>
</svg>
