<svg id="Layer_1" data-name="Layer 1" xmlns="http://www.w3.org/2000/svg" viewBox="0 0 256 256">
  <rect width="256" height="256" fill="none"/>
  <g>
    <path d="M96.3721,135.99968c1.81156,28.752,13.17873,55.70995,31.6279,74.44525,18.44917-18.7353,29.81634-45.69321,31.6279-74.44525Z"/>
    <path d="M128,45.5543c-18.44917,18.7353-29.81634,45.69321-31.6279,74.44525h63.2558C157.81634,91.24751,146.44917,64.2896,128,45.5543Z"/>
    <path d="M133.25,28.54649c25.31732,22.06343,40.39056,55.08383,42.35472,91.45306h46.92645a7.94947,7.94947,0,0,0,7.97628-9.00479A104.0794,104.0794,0,0,0,128.03809,24.00157Z"/>
    <path d="M80.39528,119.99955C82.35944,83.63032,97.43268,50.60992,122.75,28.54649l5.21191-4.54492A104.0794,104.0794,0,0,0,25.49255,110.99475a7.94947,7.94947,0,0,0,7.97628,9.00479Z"/>
    <path d="M122.75,227.45274c-25.31727-22.06337-40.39049-55.08368-42.35422-91.45294l-46.92693-.00009a7.94945,7.94945,0,0,0-7.97629,9.00479,104.07939,104.07939,0,0,0,102.46935,86.99316Z"/>
    <path d="M175.60472,135.99968c-1.96416,36.36923-17.0374,69.38963-42.35472,91.45306l-5.21191,4.54492A104.07848,104.07848,0,0,0,230.507,145.00405a7.949,7.949,0,0,0-7.97583-9.00422Z"/>
  </g>
</svg>
