<svg id="Layer_1" data-name="Layer 1" xmlns="http://www.w3.org/2000/svg" viewBox="0 0 256 256">
  <g>
    <rect width="256" height="256" fill="#fff"/>
    <path d="M128,24h-8a7.99539,7.99539,0,0,0-8,8V59.53125L11.8125,121.1875a7.99074,7.99074,0,0,0-2.29688,11.49219l23.07813,32a8.02851,8.02851,0,0,0,8.95313,2.92968c.43554-.1455,39.88574-12.52539,74.58984,3.2295L90.23633,207.09863a87.63151,87.63151,0,0,1-20.90821-13.50488,7.9951,7.9951,0,0,0-10.65624,11.92187,103.58481,103.58481,0,0,0,29.38085,18.25977c.02344.0166.03321.044.05665.06055.05957.042.13476.02246.19433.0625A103.90886,103.90886,0,1,0,128,24Zm-4,88a12,12,0,1,1,12-12A12,12,0,0,1,124,112Z"/>
  </g>
</svg>
