<svg id="Layer_1" data-name="Layer 1" xmlns="http://www.w3.org/2000/svg" viewBox="0 0 256 256">
  <g>
    <rect width="256" height="256" fill="#fff"/>
    <circle cx="123.99977" cy="100" r="12"/>
    <path d="M176,120a48,48,0,0,1-48,48" fill="none" stroke="#000" stroke-linecap="round" stroke-linejoin="round" stroke-width="16"/>
    <line x1="128" y1="168" x2="92.76585" y2="217.32781" fill="none" stroke="#000" stroke-linecap="round" stroke-linejoin="round" stroke-width="16"/>
    <path d="M128.00019,167.99979C88,144,39.07936,160.001,39.07854,160h.00082L16,128,120,64V32h8A96,96,0,1,1,92.76618,217.32808l-.00033-.00027L128,168Z" opacity="0.2"/>
    <path d="M128.00019,167.99979C88,144,39.07936,160.001,39.07854,160h.00082L16,128,120,64V32h8A96,96,0,1,1,63.99958,199.555" fill="none" stroke="#000" stroke-linecap="round" stroke-linejoin="round" stroke-width="16"/>
  </g>
</svg>
