<svg id="Layer_1" data-name="Layer 1" xmlns="http://www.w3.org/2000/svg" viewBox="0 0 256 256">
  <rect width="256" height="256" fill="none"/>
  <path d="M218.76465,103.70142l-.001-.00147L138.75684,30.96484a15.93607,15.93607,0,0,0-21.52637.001L37.23633,103.7A16.034,16.034,0,0,0,32,115.53857V208a16.01833,16.01833,0,0,0,16,16H95.99414V151.9917a8.00009,8.00009,0,0,1,8-8h48a8.00009,8.00009,0,0,1,8,8V224H208a16.01833,16.01833,0,0,0,16-16V115.53882A16.03438,16.03438,0,0,0,218.76465,103.70142Z"/>
</svg>
