<svg id="Layer_1" data-name="Layer 1" xmlns="http://www.w3.org/2000/svg" viewBox="0 0 256 256">
  <g>
    <rect width="256" height="256" fill="red"/>
    <path d="M223.99414,76.68363l-44.6875-44.67969a16.02251,16.02251,0,0,0-22.625,0L130.36133,58.32425c-.00781.00684-.01563.00879-.02344.01563s-.00781.0166-.01562.02343L36.68164,152.00394a15.98614,15.98614,0,0,0-.94141,1.40332,7.677,7.677,0,0,0-1.40234.93262A7.86291,7.86291,0,0,0,32.32031,161.67a15.28758,15.28758,0,0,0-.32617,1.64648v44.67969a16.01583,16.01583,0,0,0,16,16h44.6875a15.43721,15.43721,0,0,0,1.64453-.32422,8.08222,8.08222,0,0,0,1.668.32422,7.97407,7.97407,0,0,0,5.65625-2.34375,7.66949,7.66949,0,0,0,.918-1.37989,15.71049,15.71049,0,0,0,1.42578-.95605l83.666-83.666,3.47461,13.89258-36.79688,36.79688a7.99915,7.99915,0,1,0,11.3125,11.3125l40-40a8.02436,8.02436,0,0,0,2.10938-7.59375l-6.90235-27.60645,23.13672-23.13574A16.032,16.032,0,0,0,223.99414,76.68363Zm-31.99609,32.0039L147.31055,64l20.68359-20.68359,44.6875,44.6875Z"/>
  </g>
</svg>
