<svg id="Layer_1" data-name="Layer 1" xmlns="http://www.w3.org/2000/svg" viewBox="0 0 256 256">
  <rect width="256" height="256" fill="none"/>
  <g>
    <circle cx="127.99414" cy="111.99613" r="16"/>
    <path d="M216.92312,91.55122a103.066,103.066,0,0,1-24.679-60.43791,15.88649,15.88649,0,0,0-15.85937-15.10937l-96.76563.00021a15.86947,15.86947,0,0,0-15.84426,14.868A103.021,103.021,0,0,1,38.873,91.78763c-4.34766,5.05348-4.519,12.49738-1.0037,18.16153L112.59548,230.355a4,4,0,0,0,7.39866-2.10928V148.13433a7.81957,7.81957,0,0,0-4.979-7.017,32.00025,32.00025,0,1,1,25.96077-.00126,7.82482,7.82482,0,0,0-4.98181,7.02135v80.06688a4,4,0,0,0,7.40093,2.10561L218.0252,109.76945A15.53128,15.53128,0,0,0,216.92312,91.55122Z"/>
  </g>
</svg>
