<svg id="Layer_1" data-name="Layer 1" xmlns="http://www.w3.org/2000/svg" viewBox="0 0 256 256">
  <g>
    <rect width="256" height="256" fill="red"/>
    <path d="M223.99414,76.68363l-44.6875-44.67969a16.02251,16.02251,0,0,0-22.625,0L130.36133,58.32425c-.00781.00684-.01563.00879-.02344.01563s-.00781.0166-.01562.02343L36.68164,152.00394a15.99561,15.99561,0,0,0-3.51562,5.3916,7.94626,7.94626,0,0,0-.63672,3.21777,15.5059,15.5059,0,0,0-.53516,2.70313v44.67969a16.01583,16.01583,0,0,0,16,16h168a8,8,0,1,0,0-16H115.30664L223.99414,99.31644A16.032,16.032,0,0,0,223.99414,76.68363Zm-31.99609,32.00293L147.31055,64l20.68359-20.68359,44.6875,44.6875Z"/>
  </g>
</svg>
