<svg id="Layer_1" data-name="Layer 1" xmlns="http://www.w3.org/2000/svg" viewBox="0 0 256 256">
  <rect width="256" height="256" fill="none"/>
  <g>
    <path d="M123.41583,105.4451a7.997,7.997,0,0,1,9.17157.00021l71.74562,50.2215a8.06229,8.06229,0,0,0,12.21739-3.96571,133.04384,133.04384,0,0,0,7.45105-45.037V48a16,16,0,0,0-16-16h-160a16,16,0,0,0-16,16v58.66406a133.03322,133.03322,0,0,0,7.45042,45.03245,8.06227,8.06227,0,0,0,12.21709,3.966Z"/>
    <path d="M128.00146,121.76562,57.64181,171.01139a8.05028,8.05028,0,0,0-2.01553,11.22846c23.603,32.16157,57.73527,45.3844,67.40643,48.58827a15.45824,15.45824,0,0,0,9.9375,0c9.66658-3.20387,43.80024-16.42411,67.40507-48.58451a8.05029,8.05029,0,0,0-2.015-11.22863Z"/>
  </g>
</svg>
