<svg id="Layer_1" data-name="Layer 1" xmlns="http://www.w3.org/2000/svg" viewBox="0 0 256.00098 256.00098">
  <g>
    <path d="M224.001,151.99707h-8v-112a16,16,0,0,0-32,0v112h-8a16,16,0,0,0,0,32h8v32a16,16,0,0,0,32,0v-32h8a16,16,0,1,0,0-32Z"/>
    <path d="M80.001,119.99707h-8v-80a16,16,0,0,0-32,0v80h-8a16,16,0,1,0,0,32h8v64a16,16,0,0,0,32,0v-64h8a16,16,0,0,0,0-32Z"/>
    <path d="M168.001,87.99707a16.0008,16.0008,0,0,0-16-16h-8v-32a16,16,0,0,0-32,0v32h-8a16,16,0,0,0,0,32h8v112a16,16,0,0,0,32,0v-112h8A16.0008,16.0008,0,0,0,168.001,87.99707Z"/>
  </g>
</svg>
