<svg id="Layer_1" data-name="Layer 1" xmlns="http://www.w3.org/2000/svg" viewBox="0 0 256 256">
  <rect width="256" height="256" fill="#fff"/>
  <path d="M128,24A104,104,0,1,0,232,128,104.12041,104.12041,0,0,0,128,24Zm36,72a12,12,0,1,1-12,12A12.0006,12.0006,0,0,1,164,96ZM92,96a12,12,0,1,1-12,12A12.0006,12.0006,0,0,1,92,96Zm81.58594,86.92188a7.9139,7.9139,0,0,1-4,1.07812,7.99834,7.99834,0,0,1-6.92969-3.99219,40.42846,40.42846,0,0,0-6.375-8.29687,39.8432,39.8432,0,0,0-12.71094-8.57031,40.30551,40.30551,0,0,0-31.14062,0,40.11288,40.11288,0,0,0-19.07813,16.86718A8.00181,8.00181,0,0,1,79.5,171.99219a56.02208,56.02208,0,0,1,97,0A7.98921,7.98921,0,0,1,173.58594,182.92188Z"/>
</svg>
