<svg id="Layer_1" data-name="Layer 1" xmlns="http://www.w3.org/2000/svg" viewBox="0 0 256 256">
  <rect width="256" height="256" fill="#fff"/>
  <g>
    <circle cx="128" cy="128" r="72"/>
    <path d="M128,40a7.9954,7.9954,0,0,0,8-8V16a8,8,0,0,0-16,0V32A7.99539,7.99539,0,0,0,128,40Z"/>
    <path d="M201.53906,43.14844l-11.3125,11.3125a7.99915,7.99915,0,1,0,11.3125,11.3125l11.3125-11.3125a7.99915,7.99915,0,0,0-11.3125-11.3125Z"/>
    <path d="M240,120H224a8,8,0,0,0,0,16h16a8,8,0,0,0,0-16Z"/>
    <path d="M201.53906,190.22656a7.99915,7.99915,0,0,0-11.3125,11.3125l11.3125,11.3125a7.99915,7.99915,0,0,0,11.3125-11.3125Z"/>
    <path d="M128,216a7.99539,7.99539,0,0,0-8,8v16a8,8,0,0,0,16,0V224A7.9954,7.9954,0,0,0,128,216Z"/>
    <path d="M54.46094,190.22656l-11.3125,11.3125a7.99915,7.99915,0,1,0,11.3125,11.3125l11.3125-11.3125a7.99915,7.99915,0,0,0-11.3125-11.3125Z"/>
    <path d="M32,120H16a8,8,0,0,0,0,16H32a8,8,0,0,0,0-16Z"/>
    <path d="M54.46094,65.77344a7.99915,7.99915,0,0,0,11.3125-11.3125l-11.3125-11.3125a7.99915,7.99915,0,0,0-11.3125,11.3125Z"/>
  </g>
</svg>
