<svg id="Layer_1" data-name="Layer 1" xmlns="http://www.w3.org/2000/svg" viewBox="0 0 256 256">
  <g>
    <rect width="256" height="256" fill="none"/>
    <path d="M128,24A104,104,0,1,0,232,128,104.12041,104.12041,0,0,0,128,24Zm37.65625,130.34375a7.99915,7.99915,0,1,1-11.3125,11.3125L128,139.3125l-26.34375,26.34375a7.99915,7.99915,0,0,1-11.3125-11.3125L116.6875,128,90.34375,101.65625a7.99915,7.99915,0,0,1,11.3125-11.3125L128,116.6875l26.34375-26.34375a7.99915,7.99915,0,0,1,11.3125,11.3125L139.3125,128Z"/>
  </g>
  <g opacity="0.2">
    <rect x="256" width="256" height="256" fill="none"/>
  </g>
</svg>
