<svg id="Raw" xmlns="http://www.w3.org/2000/svg" viewBox="0 0 256 256">
  <rect width="256" height="256" fill="none"/>
  <path d="M248,128a55.99955,55.99955,0,0,1-95.59766,39.59766q-.17137-.17139-.332-.35254L92.11963,99.55225a40,40,0,1,0,0,56.8955l8.519-9.61914a8,8,0,1,1,11.97754,10.6084l-8.68652,9.80811q-.16041.1809-.332.35254a56,56,0,1,1,0-79.19532q.17137.17139.332.35254l59.95068,67.69287a40,40,0,1,0,0-56.8955l-8.519,9.61914A8,8,0,0,1,143.38379,98.563l8.68652-9.80811q.16041-.1809.332-.35254A56,56,0,0,1,248,128Z"/>
</svg>
