<svg id="Layer_1" data-name="Layer 1" xmlns="http://www.w3.org/2000/svg" viewBox="0 0 256 256">
  <rect width="256" height="256" fill="none"/>
  <g>
    <path d="M221.97168,158.42676l-46.83789-20.07324a15.94874,15.94874,0,0,0-15.17871,1.39453l-25.043,16.69336A76.54083,76.54083,0,0,1,99.707,121.3916l.00195-.00195,16.63477-25.418a15.96924,15.96924,0,0,0,1.32031-15.06641L97.57227,34.02734a16.036,16.036,0,0,0-16.65235-9.583A56.07029,56.07029,0,0,0,32,80c0,79.40234,64.59766,144,144,144a56.07032,56.07032,0,0,0,55.55566-48.9209A16.03476,16.03476,0,0,0,221.97168,158.42676Z"/>
    <path d="M152.08594,97.10889c.021.15283.03955.30566.06933.45752.02491.125.05957.24609.09034.36914.03271.13037.06152.26123.10058.39013.03662.12061.082.23682.124.355.04541.12891.08838.25782.14063.38477.04492.10742.09766.21094.147.31641.06153.13183.12061.26464.18994.39355.05176.09717.11133.189.167.2832.07666.13037.15087.26172.23584.38819.0664.09863.14062.1914.21093.28662.084.11474.16407.231.25537.3418.11622.14111.2417.27343.36719.40625.0542.0581.10205.11914.15869.17578.0542.0542.11377.10058.16895.15283.13525.12744.27.25537.41406.37353.10645.08789.21826.16455.32813.24561.10009.07422.19726.15185.30078.22119.12207.08154.248.15234.37353.22656.09912.05909.19629.12159.29834.17627.124.0669.25147.12305.37842.18262.11035.05176.21875.10693.332.15381.1211.05029.24463.09082.36768.13476.12353.04444.2456.0918.37207.13038.12158.03662.24512.06347.36816.09472.13037.03272.25879.06885.3916.09522.14063.02832.28321.04492.42481.06494.1167.0166.231.03857.34912.05029.26221.02588.52588.04.78955.04h40a8,8,0,0,0,0-16H179.31445l34.34278-34.34277a8.00053,8.00053,0,0,0-11.31446-11.31446L168,76.68555V56a8,8,0,0,0-16,0V95.99512c0,.26562.01367.53174.04.79687C152.05078,96.89941,152.07129,97.00293,152.08594,97.10889Z"/>
  </g>
</svg>
