<svg id="Raw" xmlns="http://www.w3.org/2000/svg" viewBox="0 0 256 256">
  <rect width="256" height="256" fill="none"/>
  <path d="M223.251,115.99854A96.03076,96.03076,0,0,1,128,224a95.50329,95.50329,0,0,1-57.96045-19.52515C94.58984,198.321,123.48145,186.03418,152,169.56934,180.542,153.09009,205.645,134.196,223.251,115.99854ZM245.7793,60c-5.46875-9.47119-20.31592-18.42773-59.82373-8.47852A95.94717,95.94717,0,0,0,32,128a96.48271,96.48271,0,0,0,.748,11.99414C4.41748,169.2085,4.75488,186.5332,10.2207,196c3.69336,6.39746,11.875,12.78809,29.81348,12.78809a117.6895,117.6895,0,0,0,25.47559-3.23243c1.49121-.33447,3.0039-.69824,4.52978-1.08081a96.84991,96.84991,0,0,1-14.24219-13.27978c-18.65527,3.31811-29.31591.96924-31.72021-3.19507-1.501-2.59961-.6582-7.48535,2.31152-13.4043a83.04134,83.04134,0,0,1,10.74121-15.61841,96.04543,96.04543,0,0,0,18.66748,32.21778q2.97071-.52845,6.20948-1.25171c23.94628-5.37207,53.06543-17.5293,81.99316-34.23047s54.01514-35.84082,70.6416-53.89258q2.27271-2.46827,4.228-4.79883a96.04556,96.04556,0,0,0-18.668-32.21752A83.29551,83.29551,0,0,1,219.1543,63.2998c6.61328.38672,11.26758,2.09961,12.76855,4.7002,2.40186,4.15967-.88428,14.54932-13.05322,29.02148a95.19186,95.19186,0,0,1,4.38135,18.97706c1.07959-1.11548,2.1372-2.229,3.15918-3.33838C251.69678,85.20508,250.90039,68.86914,245.7793,60Z"/>
</svg>
