<svg id="Raw" xmlns="http://www.w3.org/2000/svg" viewBox="0 0 256 256">
  <rect width="256" height="256" fill="none"/>
  <path d="M136,88.42383V59.01465l23.25049,15.625a7.99987,7.99987,0,1,0,8.9248-13.2793L142.34253,44l25.83276-17.36035a7.99987,7.99987,0,1,0-8.9248-13.2793L128,34.36133l-31.25049-21.001a7.99987,7.99987,0,1,0-8.9248,13.2793L113.65747,44,87.82471,61.36035a7.99987,7.99987,0,1,0,8.9248,13.2793L120,59.01465V88.42383a76,76,0,1,0,16,0ZM128,224a60,60,0,1,1,60-60A60.06812,60.06812,0,0,1,128,224Z"/>
</svg>
