<?xml version="1.0" encoding="UTF-8"?>
<svg width="16px" height="16px" viewBox="0 0 16 16" version="1.1" xmlns="http://www.w3.org/2000/svg" xmlns:xlink="http://www.w3.org/1999/xlink">
    <title>caret-up-circle-fill-raw</title>
    <g id="caret-up-circle-fill-raw" stroke="none" stroke-width="1" fill="none" fill-rule="evenodd">
        <polygon id="Fill-1" points="0 16 16 16 16 0 0 0"></polygon>
        <path d="M10.5845,9.3716 C10.4885,9.4576 10.3695,9.4996 10.2505,9.4996 C10.1135,9.4996 9.9775,9.4446 9.8785,9.3346 L8.0005,7.2476 L6.1215,9.3346 C5.9375,9.5406 5.6215,9.5566 5.4155,9.3716 C5.2105,9.1866 5.1935,8.8706 5.3785,8.6656 L7.6285,6.1656 C7.8175,5.9546 8.1825,5.9546 8.3715,6.1656 L10.6215,8.6656 C10.8065,8.8706 10.7895,9.1866 10.5845,9.3716 M8.0005,1.4996 C4.4165,1.4996 1.5005,4.4156 1.5005,7.9996 C1.5005,11.5836 4.4165,14.4996 8.0005,14.4996 C11.5845,14.4996 14.5005,11.5836 14.5005,7.9996 C14.5005,4.4156 11.5845,1.4996 8.0005,1.4996" id="Fill-2" fill="#000000"></path>
    </g>
</svg>