<?xml version="1.0" encoding="UTF-8"?>
<svg width="16px" height="16px" viewBox="0 0 16 16" version="1.1" xmlns="http://www.w3.org/2000/svg" xmlns:xlink="http://www.w3.org/1999/xlink">
    <title>caret-up-duotone-raw</title>
    <g id="caret-up-duotone-raw" stroke="none" stroke-width="1" fill="none" fill-rule="evenodd">
        <polygon id="Fill-1" points="0 16 16 16 16 0 0 0"></polygon>
        <path d="M14,8 C14,4.687 11.313,2 8,2 C4.687,2 2,4.687 2,8 C2,11.313 4.687,14 8,14 C11.313,14 14,11.313 14,8" id="Fill-2" fill="#000000" opacity="0.200000003"></path>
        <path d="M14,8 C14,4.687 11.313,2 8,2 C4.687,2 2,4.687 2,8 C2,11.313 4.687,14 8,14 C11.313,14 14,11.313 14,8 Z" id="Stroke-4" stroke="#000000"></path>
        <polyline id="Stroke-6" stroke="#000000" stroke-linecap="round" stroke-linejoin="round" points="10.25 9 8 6.5 5.75 9"></polyline>
    </g>
</svg>