<svg id="Raw" xmlns="http://www.w3.org/2000/svg" viewBox="0 0 256 256">
  <rect width="256" height="256" fill="none"/>
  <circle cx="96" cy="132.00002" r="16"/>
  <circle cx="160" cy="132.00002" r="16"/>
  <path d="M151.28891,174.57783l15.78018,31.56053a7.96793,7.96793,0,0,0,8.99115,4.20919c24.53876-5.99927,45.69294-16.45908,61.10024-29.85086a8.05225,8.05225,0,0,0,2.47192-8.38971L205.65855,58.86074a8.02121,8.02121,0,0,0-4.62655-5.10908,175.85294,175.85294,0,0,0-29.66452-9.18289,8.01781,8.01781,0,0,0-9.31925,5.28642L151.51644,81.45071" fill="none" stroke="#000" stroke-linecap="round" stroke-linejoin="round" stroke-width="24"/>
  <path d="M104.7111,174.57783,88.93092,206.13837a7.96794,7.96794,0,0,1-8.99115,4.20918c-24.53866-5.99924-45.69277-16.459-61.10006-29.85069a8.05224,8.05224,0,0,1-2.47193-8.38972L50.34158,58.8607a8.0212,8.0212,0,0,1,4.62655-5.1091,175.85321,175.85321,0,0,1,29.66439-9.18283,8.01781,8.01781,0,0,1,9.31924,5.28642l10.53179,31.59552" fill="none" stroke="#000" stroke-linecap="round" stroke-linejoin="round" stroke-width="24"/>
  <path d="M181.08378,168.00031C165.87906,173.0549,147.6274,176,128,176s-37.87933-2.94514-53.08411-7.9998" fill="none" stroke="#000" stroke-linecap="round" stroke-linejoin="round" stroke-width="24"/>
  <path d="M176,86.42155A174.46263,174.46263,0,0,0,128,80a174.46238,174.46238,0,0,0-48,6.42156" fill="none" stroke="#000" stroke-linecap="round" stroke-linejoin="round" stroke-width="24"/>
</svg>
