<svg id="Raw" xmlns="http://www.w3.org/2000/svg" viewBox="0 0 256 256">
  <rect width="256" height="256" fill="none"/>
  <path d="M247.29492,169.80862,213.32129,56.56252A15.953,15.953,0,0,0,204.084,46.35744l-.53759.16309.54931-.1919a185.84371,185.84371,0,0,0-34.53515-10.30712,8.00026,8.00026,0,1,0-3.12012,15.69336q6.72656,1.3374,13.18457,3.14746a7.97792,7.97792,0,0,1-4.46045,15.07714,188.85309,188.85309,0,0,0-93.26074-.18359,7.99484,7.99484,0,0,1-5.56592-14.87305l.03418.01172q6.4541-1.80762,13.20068-3.15185a8.00026,8.00026,0,0,0-3.12011-15.69336A185.88539,185.88539,0,0,0,51.917,46.35647a15.95771,15.95771,0,0,0-9.23828,10.20507L8.70508,169.80862a16.09028,16.09028,0,0,0,4.88672,16.72656c.95459.83008,1.9331,1.645,2.92529,2.45166.02344.019.04346.041.06689.06006,16.23047,13.166,37.50342,23.22461,61.51856,29.08691a7.99977,7.99977,0,0,0,3.79492-15.543,160.72734,160.72734,0,0,1-31.33789-11.0664l.06592.00488a7.99746,7.99746,0,0,1,8.59912-13.24219C78.21,186.74367,102.063,192,128,192s49.80664-5.26269,68.792-13.71924a7.997,7.997,0,0,1,8.58252,13.24854l.06592-.00488a160.72734,160.72734,0,0,1-31.33789,11.0664,7.99978,7.99978,0,1,0,3.79492,15.543c24.01514-5.8623,45.28809-15.9209,61.51856-29.08691.02441-.01953.04492-.042.06884-.062h.00049c.99121-.80615,1.96973-1.62109,2.92383-2.45068A16.09062,16.09062,0,0,0,247.29492,169.80862ZM96,156a12,12,0,1,1,12-12A12,12,0,0,1,96,156Zm64,0a12,12,0,1,1,12-12A12,12,0,0,1,160,156Z"/>
</svg>
