<svg id="Raw" xmlns="http://www.w3.org/2000/svg" viewBox="0 0 256 256">
  <rect width="256" height="256" fill="none"/>
  <g>
    <path d="M219.43164,102.37988A103.69573,103.69573,0,0,1,192,32.0937,8.04,8.04,0,0,0,184,24H72a8.03995,8.03995,0,0,0-8,8.09369,103.69821,103.69821,0,0,1-27.4316,70.28717,8,8,0,0,0-.82813,9.76123l76.90148,118.84827A4,4,0,0,0,120,228.81736V150.9873a32,32,0,1,1,16,0v77.83a4,4,0,0,0,7.35829,2.173L220.25977,112.1416A8.00061,8.00061,0,0,0,219.43164,102.37988Z"/>
    <circle cx="128" cy="120" r="16"/>
  </g>
</svg>
