<svg id="Layer_1" data-name="Layer 1" xmlns="http://www.w3.org/2000/svg" viewBox="0 0 256 256">
  <rect width="256" height="256" fill="none"/>
  <path d="M184.00122,24H71.99854a111.60071,111.60071,0,0,1-30.43213,76.75195L128,240l86.29053-139.40039A111.6,111.6,0,0,1,184.00122,24ZM128,136a24,24,0,1,1,24-24A23.99994,23.99994,0,0,1,128,136Z" opacity="0.2"/>
  <line x1="128" y1="136" x2="128" y2="240" fill="none" stroke="#000" stroke-linecap="round" stroke-linejoin="round" stroke-width="16"/>
  <circle cx="128" cy="112" r="24" fill="none" stroke="#000" stroke-linecap="round" stroke-linejoin="round" stroke-width="16"/>
  <path d="M41.56651,100.75177A111.60148,111.60148,0,0,0,71.99862,24.00022H184.00129a111.59962,111.59962,0,0,0,30.28917,76.59937L128,240Z" fill="none" stroke="#000" stroke-linecap="round" stroke-linejoin="round" stroke-width="16"/>
</svg>
