<svg id="Layer_1" data-name="Layer 1" xmlns="http://www.w3.org/2000/svg" viewBox="0 0 256 256">
  <rect x="0.0715" width="256" height="256" fill="none"/>
  <g>
    <path d="M220.19727,95.12695a103.59433,103.59433,0,0,1-28.124-71.126,8.00039,8.00039,0,0,0-8-8.001H72.07031a8.00041,8.00041,0,0,0-8,8.00049A103.57867,103.57867,0,0,1,35.8125,95.26807a8.00035,8.00035,0,0,0-.97168,9.70263l85.23047,137.30957v-99.293a32,32,0,1,1,16,0v99.28809l85.09277-137.46484A7.99866,7.99866,0,0,0,220.19727,95.12695Z"/>
    <circle cx="128.07129" cy="112" r="16"/>
  </g>
</svg>
