<svg id="Raw" xmlns="http://www.w3.org/2000/svg" viewBox="0 0 256 256">
  <rect width="256" height="256" fill="none"/>
  <path d="M184,32H72a111.5987,111.5987,0,0,1-29.54346,75.7959L128,240l85.543-132.20459A111.59817,111.59817,0,0,1,184,32ZM128,144a24,24,0,1,1,24-24A23.99994,23.99994,0,0,1,128,144Z" opacity="0.2"/>
  <line x1="128.00001" y1="144" x2="128.00001" y2="240" fill="none" stroke="#000" stroke-linecap="round" stroke-linejoin="round" stroke-width="16"/>
  <circle cx="128.00001" cy="120" r="24" fill="none" stroke="#000" stroke-linecap="round" stroke-linejoin="round" stroke-width="16"/>
  <path d="M213.54294,107.79559A111.59855,111.59855,0,0,1,184,32H72a111.59857,111.59857,0,0,1-29.54333,75.796L128,240Z" fill="none" stroke="#000" stroke-linecap="round" stroke-linejoin="round" stroke-width="16"/>
</svg>
