<svg id="Raw" xmlns="http://www.w3.org/2000/svg" viewBox="0 0 256 256">
  <rect width="256" height="256" fill="none"/>
  <path d="M120.00586,56.00342,60.3291,78.38232a7.99941,7.99941,0,0,0-5.08227,6.1753l-23.241,139.4458,139.4458-23.24121a7.99949,7.99949,0,0,0,6.17529-5.082l22.37891-59.67676ZM116,160a20,20,0,1,1,20-20A19.9999,19.9999,0,0,1,116,160Z" opacity="0.2"/>
  <circle cx="116" cy="140" r="20" fill="none" stroke="#000" stroke-linecap="round" stroke-linejoin="round" stroke-width="16"/>
  <line x1="32.00586" y1="224.00342" x2="101.85786" y2="154.14214" fill="none" stroke="#000" stroke-linecap="round" stroke-linejoin="round" stroke-width="16"/>
  <path d="M32.00586,224.00342l139.44573-23.241a8,8,0,0,0,6.17544-5.08216l22.37883-59.67688-80-80L60.329,78.38225a8,8,0,0,0-5.08217,6.17544Z" fill="none" stroke="#000" stroke-linecap="round" stroke-linejoin="round" stroke-width="16"/>
  <path d="M200.00586,136.00342,226.349,109.66027a8,8,0,0,0,0-11.31371l-68.6863-68.68629a8,8,0,0,0-11.3137,0L120.00586,56.00342" fill="none" stroke="#000" stroke-linecap="round" stroke-linejoin="round" stroke-width="16"/>
</svg>
