<svg xmlns="http://www.w3.org/2000/svg" width="16" height="16" viewBox="0 0 16 16">
  <g fill="none" fill-rule="evenodd">
    <polygon points="0 16 15.999 16 15.999 0 0 0"/>
    <path fill="#000" fill-rule="nonzero" d="M7.9996,15.2498 L7.96642992,15.247555 C7.95711063,15.2463363 7.9478497,15.2445983 7.93869686,15.2423411 L7.9996,15.2498 C7.96739417,15.2498 7.93661069,15.2437102 7.90833828,15.2326192 C7.89708173,15.2284089 7.88618626,15.2232598 7.87565175,15.2172845 C7.86796934,15.2125757 7.86033369,15.2076455 7.8529983,15.2023264 C7.827713,15.1844879 7.80509211,15.1607099 7.78698057,15.1315256 L7.82168644,15.1754325 C7.81612734,15.1698017 7.81083359,15.1639082 7.80582548,15.1577725 L7.78698057,15.1315256 L2.57907867,6.73968353 C2.40691048,6.46271731 2.43914378,6.11201903 2.65165159,5.8620985 C3.57756792,4.76918125 4.13694101,3.41052562 4.234909,1.96175509 C4.26038625,1.563111 4.57824629,1.2507 4.9764,1.2507 L4.9764,1.2507 L11.0244,1.2507 C11.4214056,1.2507 11.738892,1.56274376 11.7658383,1.96095153 C11.8629719,3.40758173 12.4189863,4.76210341 13.3415083,5.8535243 C13.5521577,6.10329426 13.5843875,6.4535249 13.412969,6.7292843 L13.412969,6.7292843 L8.21196898,15.1312843 C8.21032549,15.1339393 8.20864469,15.1365496 8.20692782,15.1391153 C8.1992163,15.1510478 8.18997924,15.1625007 8.17982256,15.1730628 C8.17426247,15.1788244 8.16882481,15.1840117 8.16321033,15.1889037 C8.15354242,15.1972367 8.14286849,15.205132 8.13159458,15.2121544 C8.1272497,15.2149707 8.12271704,15.2175918 8.11811998,15.2200589 C8.07636375,15.240663 8.03904891,15.2498 7.9996,15.2498 Z M11.0244,1.7507 L4.9764,1.7507 C4.84723395,1.7507 4.74286149,1.85328322 4.73383039,1.99456655 C4.62853252,3.55176008 4.02749685,5.01160953 3.03285669,6.18564521 C2.95865538,6.27291013 2.94822123,6.3864337 3.00381943,6.47587441 L3.00381943,6.47587441 L7.74944219,14.1237 L7.74952704,8.73206933 C6.94804817,8.61740557 6.32166527,7.95972627 6.25540196,7.14336151 L6.2496,6.9998 C6.2496,6.03372881 7.03352881,5.2498 7.9996,5.2498 C8.96635166,5.2498 9.7496,6.03340912 9.7496,6.9998 C9.7496,7.88182379 9.09832263,8.61066921 8.25006244,8.73204171 L8.24944219,14.1197 L12.9880787,6.46571647 C13.0211712,6.41248065 13.0306307,6.35013696 13.0170768,6.29001381 L12.9958748,6.23105043 L12.9594683,6.17608484 C11.9688289,5.00407575 11.3713031,3.54842685 11.2669704,1.99457869 C11.2574321,1.85362274 11.1527142,1.7507 11.0244,1.7507 L11.0244,1.7507 Z M7.9996,5.7498 C7.30967119,5.7498 6.7496,6.30987119 6.7496,6.9998 C6.7496,7.69035773 7.30929996,8.2498 7.9996,8.2498 C8.69052881,8.2498 9.2496,7.69072881 9.2496,6.9998 C9.2496,6.30949996 8.69015773,5.7498 7.9996,5.7498 Z"/>
  </g>
</svg>
