<svg xmlns="http://www.w3.org/2000/svg" width="16" height="16" viewBox="0 0 16 16">
  <g fill="none" fill-rule="evenodd">
    <polygon points="0 16 15.999 16 15.999 0 0 0"/>
    <path fill="#000" fill-rule="nonzero" d="M11.0244,0.7507 C11.6900971,0.7507 12.2203519,1.27186478 12.264715,1.9274546 C12.3546408,3.2667366 12.8691436,4.52013108 13.723725,5.5311729 C14.0715757,5.94362444 14.1255421,6.53005969 13.8381069,6.9924529 L13.8381069,6.9924529 L8.63710695,15.3944529 C8.63688746,15.3948075 8.63666776,15.3951618 8.63644783,15.3955158 C8.62013614,15.4223065 8.60207901,15.4476229 8.5825597,15.4717059 C8.57182639,15.4850805 8.56068061,15.4980362 8.54920052,15.5105044 C8.53937491,15.5207202 8.52908623,15.5311737 8.51850065,15.5413198 C8.50334888,15.5565793 8.48726277,15.570807 8.47071155,15.5842195 C8.46351335,15.5892158 8.45645572,15.5947109 8.44929892,15.600081 C8.42868832,15.6164287 8.40688865,15.6310416 8.38451186,15.6443863 C8.37973162,15.6464903 8.37506068,15.6492192 8.37035794,15.6518988 C8.35026403,15.6640004 8.32972473,15.6743879 8.30882462,15.6837734 C8.29570388,15.6892417 8.28204216,15.6949587 8.26818252,15.7002762 C8.2524244,15.7065737 8.23676673,15.7119218 8.22097449,15.7167413 C8.2032901,15.7220595 8.18492426,15.7269809 8.16629501,15.7312089 C8.15472469,15.7338076 8.14304385,15.7361452 8.13132134,15.7382058 C8.11090133,15.7418804 8.09049627,15.7446354 8.06984839,15.7465534 C8.05636396,15.7476964 8.04262288,15.7485996 8.02886933,15.7491309 C8.01918374,15.7496115 8.00941388,15.7498 7.9996,15.7498 L7.97078169,15.7491639 C7.95702755,15.7486482 7.94328545,15.7477606 7.92957282,15.7465009 L7.9996,15.7498 C7.95451553,15.7498 7.91036018,15.745822 7.86746581,15.7381978 C7.85693811,15.7363532 7.84659049,15.7343092 7.83628332,15.7320478 C7.81586865,15.727441 7.7955308,15.7220087 7.77555218,15.7157632 C7.76123228,15.7116298 7.74689111,15.7067277 7.73268656,15.7013819 C7.71769718,15.6951943 7.7033466,15.6891937 7.68923022,15.6827684 C7.67130669,15.6753853 7.65312999,15.6663072 7.63528785,15.6564471 C7.62644809,15.6506121 7.61748267,15.6453771 7.60863812,15.639964 C7.58912515,15.62908 7.57067293,15.6166551 7.55270922,15.6033188 C7.54456002,15.5961455 7.53552518,15.5891313 7.5266583,15.5819187 C7.51070509,15.570021 7.49599955,15.5570042 7.48172809,15.5433054 C7.46945233,15.5305794 7.45763529,15.5185093 7.44623327,15.506053 C7.41552936,15.4730035 7.38737654,15.4358393 7.36214172,15.3951768 L7.41580106,15.4706686 C7.4036452,15.4556162 7.39205962,15.4400842 7.38107717,15.4241054 L7.36214172,15.3951768 L2.15443601,7.00365059 C1.86559973,6.53900093 1.91963218,5.95112794 2.27015477,5.5388955 C3.127639,4.52675297 3.6453495,3.26929116 3.735927,1.92986526 C3.77791102,1.27293879 4.30925862,0.7507 4.9764,0.7507 L4.9764,0.7507 Z M10.787,2.25 L5.213,2.25 L5.20314167,2.3597968 C5.04474441,3.78977717 4.49362655,5.13179402 3.62085609,6.25442194 L3.62085609,6.25442194 L3.526,6.37 L7.24932403,12.3697 L7.24949103,9.12174233 C6.42190548,8.82921059 5.81647917,8.06625766 5.75479161,7.15388382 L5.7496,6.9998 C5.7496,5.75758644 6.75738644,4.7498 7.9996,4.7498 C9.24254559,4.7498 10.2496,5.75731827 10.2496,6.9998 C10.2496,7.97985157 9.6239323,8.81297544 8.74999778,9.12177073 L8.74932403,12.3597 L12.465,6.36 L12.3714486,6.24429952 C11.5026423,5.12417818 10.9546134,3.78574716 10.7974175,2.35907526 L10.7974175,2.35907526 L10.787,2.25 Z M7.9996,6.2498 C7.58581356,6.2498 7.2496,6.58601356 7.2496,6.9998 C7.2496,7.4141638 7.5853908,7.7498 7.9996,7.7498 C8.41438644,7.7498 8.7496,7.41458644 8.7496,6.9998 C8.7496,6.5855908 8.4139638,6.2498 7.9996,6.2498 Z"/>
  </g>
</svg>
