<svg xmlns="http://www.w3.org/2000/svg" width="16" height="16" viewBox="0 0 16 16">
  <g fill="none" fill-rule="evenodd">
    <polygon points="0 16 15.999 16 15.999 0 0 0"/>
    <path fill="#000" d="M11.0243,0.9999 C11.5533,0.9999 11.9793,1.4069 12.0153,1.9449 C12.1103,3.3459 12.6433,4.6529 13.5573,5.7219 C13.8293,6.0399 13.8473,6.5049 13.6263,6.8609 L13.6263,6.8609 L8.9623,14.3939 C8.8293,14.6079 8.4993,14.5139 8.4993,14.2629 L8.4993,14.2629 L8.4993,8.9289 C9.3603,8.7049 9.9993,7.9289 9.9993,6.9999 C9.9993,5.7529 8.8523,4.7689 7.5583,5.0469 C6.8393,5.2019 6.2403,5.7779 6.0633,6.4919 C5.7793,7.6359 6.4873,8.6649 7.4993,8.9289 L7.4993,8.9289 L7.4993,14.2649 C7.4993,14.5169 7.1693,14.6109 7.0363,14.3969 L7.0363,14.3969 L2.3673,6.8719 C2.1473,6.5179 2.1583,6.0529 2.4293,5.7369 C3.3563,4.6599 3.8943,3.3419 3.9863,1.9299 C4.0203,1.4069 4.4523,0.9999 4.9763,0.9999 L4.9763,0.9999 Z M7.9996,5.9998 C8.5516,5.9998 8.9996,6.4488 8.9996,6.9998 C8.9996,7.5508 8.5516,7.9998 7.9996,7.9998 C7.4476,7.9998 6.9996,7.5508 6.9996,6.9998 C6.9996,6.4488 7.4476,5.9998 7.9996,5.9998 Z"/>
  </g>
</svg>
