<svg id="Layer_1" data-name="Layer 1" xmlns="http://www.w3.org/2000/svg" viewBox="0 0 256 256">
  <rect width="256" height="256" fill="none"/>
  <g>
    <circle cx="128" cy="112" r="16"/>
    <path d="M220.125,95.12695a103.60446,103.60446,0,0,1-28.124-71.12646,8.00041,8.00041,0,0,0-8-8.00049H71.999a8.00041,8.00041,0,0,0-8,8.00049A103.58423,103.58423,0,0,1,35.74121,95.26855a7.99965,7.99965,0,0,0-.97168,9.70215l86.43359,139.24805A7.99775,7.99775,0,0,0,128,248h.00488a8.00024,8.00024,0,0,0,6.79688-3.78906l86.29-139.40039A7.99875,7.99875,0,0,0,220.125,95.12695ZM136,142.9873V192a8,8,0,0,1-16,0V142.9873a32,32,0,1,1,16,0Z"/>
  </g>
</svg>
