<svg xmlns="http://www.w3.org/2000/svg" width="16" height="16" viewBox="0 0 16 16">
  <g fill="none" fill-rule="evenodd">
    <polygon points="0 16 15.999 16 15.999 0 0 0"/>
    <path fill="#000" d="M7.9996,8.9998 C6.8966,8.9998 5.9996,8.1028 5.9996,6.9998 C5.9996,5.8968 6.8966,4.9998 7.9996,4.9998 C9.1026,4.9998 9.9996,5.8968 9.9996,6.9998 C9.9996,8.1028 9.1026,8.9998 7.9996,8.9998 M13.1496,6.0148 C12.2166,4.9098 11.6196,3.5118 11.5166,1.9778 C11.4986,1.7118 11.2906,1.4998 11.0236,1.4998 L4.9766,1.4998 C4.7096,1.4998 4.5016,1.7118 4.4836,1.9778 C4.3806,3.5158 3.7796,4.9168 2.8426,6.0238 C2.7006,6.1898 2.6766,6.4228 2.7916,6.6078 L7.9996,14.9998 L13.2006,6.5978 C13.3146,6.4128 13.2906,6.1808 13.1496,6.0148" opacity=".2"/>
    <path fill="#000" fill-rule="nonzero" d="M11.0244,1.0007 C11.5557513,1.0007 11.979622,1.41730427 12.0152767,1.94420306 C12.1088063,3.33715916 12.6440649,4.64111724 13.5326167,5.6923486 C13.8118667,6.02345935 13.8549648,6.4917923 13.625538,6.8608686 L13.625538,6.8608686 L8.42453797,15.2628686 C8.41685096,15.2752866 8.40875575,15.2872164 8.40028445,15.2986579 C8.39345883,15.3081081 8.38559554,15.3178843 8.37738251,15.3273487 C8.36702325,15.3393948 8.35662501,15.3503998 8.34585157,15.3608186 C8.33584463,15.3701271 8.3252273,15.3795044 8.31422367,15.3884238 C8.30116645,15.3995199 8.28722729,15.4096858 8.27289141,15.4190384 C8.26442655,15.4241036 8.25589237,15.4293243 8.24719464,15.4342914 C8.22882976,15.4451377 8.20981292,15.4543616 8.19037454,15.4623161 C8.18389042,15.4647991 8.17706988,15.4674471 8.17017876,15.4699479 C8.1553511,15.4753943 8.14042243,15.4799708 8.12534067,15.4838395 C8.11109672,15.4875494 8.09649823,15.4906482 8.08167994,15.4930954 C8.07753048,15.4936859 8.07285833,15.4943904 8.06817848,15.4950293 C8.04559616,15.4982223 8.02278232,15.4998 7.9996,15.4998 L7.93597707,15.4957327 C7.92934582,15.4948993 7.92272876,15.4939345 7.91613036,15.4928384 L7.9996,15.4998 C7.95628355,15.4998 7.91425361,15.4942918 7.87417242,15.4839376 C7.85992093,15.4803995 7.84552002,15.4760439 7.83131015,15.4710307 C7.82015032,15.4667994 7.80863576,15.4622038 7.79734111,15.457202 C7.78204194,15.4509072 7.76744479,15.4436257 7.753176,15.4355884 C7.74626308,15.4310512 7.73873108,15.4265268 7.7313314,15.4218131 C7.67018145,15.3836735 7.61636532,15.3307131 7.57456115,15.2633512 L7.62543134,15.3314676 C7.61051152,15.3146483 7.59670843,15.2968159 7.58413828,15.2780867 L7.57456115,15.2633512 L2.36675734,6.87166706 C2.13625511,6.50085912 2.17938798,6.03157349 2.46090318,5.700497 C3.35260346,4.64796711 3.89114526,3.33990839 3.985418,1.94581017 C4.01914864,1.4180249 4.44375245,1.0007 4.9764,1.0007 L4.9764,1.0007 Z M11.0244,2.00062844 L4.98214268,2.00116764 L4.98326078,2.01143311 C4.87432827,3.6223773 4.25246131,5.13282367 3.219,6.349 L3.219,6.349 L7.49938368,13.2477 L7.49962523,8.93680357 C6.68354263,8.72679079 6.06894214,8.01467739 6.00508652,7.14909703 L5.9996,6.9998 C5.9996,5.89565763 6.89545763,4.9998 7.9996,4.9998 C9.10444863,4.9998 9.9996,5.89536369 9.9996,6.9998 C9.9996,7.93199477 9.36290593,8.71457127 8.50036939,8.93667789 L8.49938368,13.2387 L12.771,6.339 C11.8805643,5.28682559 11.2975831,4.0152907 11.0876856,2.64856192 L11.0459004,2.33152966 L11.0175409,2.01145739 C11.0167021,1.99906223 11.0183684,2.00062844 11.0244,2.00062844 L11.0244,2.00062844 Z M7.9996,5.9998 C7.44774237,5.9998 6.9996,6.44794237 6.9996,6.9998 C6.9996,7.55226076 7.44734538,7.9998 7.9996,7.9998 C8.55245763,7.9998 8.9996,7.55265763 8.9996,6.9998 C8.9996,6.44754538 8.55206076,5.9998 7.9996,5.9998 Z"/>
  </g>
</svg>
