<svg xmlns="http://www.w3.org/2000/svg" width="16" height="16" viewBox="0 0 16 16">
  <g fill="none" fill-rule="evenodd">
    <polygon points="0 16 15.999 16 15.999 0 0 0"/>
    <path fill="#000" fill-rule="nonzero" d="M11.0244,1.1257 C11.4885785,1.1257 11.859257,1.49002401 11.8905575,1.9525773 C11.9858891,3.37237045 12.5315256,4.70161033 13.4370625,5.77293645 C13.6820122,6.0633768 13.7196762,6.4726586 13.5192535,6.79507645 L13.5192535,6.79507645 L8.31825347,15.1970764 C8.31778838,15.1978278 8.31732129,15.1985768 8.31685222,15.1993233 C8.28800892,15.2454709 8.2496226,15.284432 8.20449034,15.3139295 C8.19283756,15.3218034 8.18122503,15.3284745 8.16934554,15.3344744 C8.15845328,15.3398249 8.14690283,15.3449979 8.13506131,15.3495869 C8.12278314,15.3543738 8.11038094,15.3583961 8.09783061,15.3617618 C8.08422975,15.3655176 8.06949569,15.3686112 8.05447213,15.370814 C8.04497308,15.3720707 8.03625862,15.3730171 8.02752491,15.3736624 C8.01884457,15.3744344 8.00926498,15.3748 7.9996,15.3748 L7.97070446,15.3736204 C7.96264326,15.3730127 7.95459873,15.3721485 7.94658501,15.3710279 L7.9996,15.3748 C7.96483565,15.3748 7.93117618,15.3700694 7.89923019,15.3612169 C7.88751874,15.3580974 7.87577636,15.3542677 7.86421809,15.3498486 C7.85145777,15.344679 7.83896713,15.3390269 7.82686293,15.332734 C7.81674892,15.3279448 7.80683072,15.3222448 7.79714767,15.3160548 C7.75211286,15.2866374 7.71342357,15.2480486 7.68422101,15.2027657 L7.68077086,15.1974384 L2.472918,6.8056753 C2.27158279,6.48178822 2.30926588,6.07179626 2.55627739,5.78129775 C3.46508569,4.70857418 4.01404313,3.375217 4.1101635,1.95378263 C4.13976744,1.49056795 4.51099937,1.1257 4.9764,1.1257 L4.9764,1.1257 Z M11.0244,1.8757 L4.9764,1.8757 C4.91448086,1.8757 4.86348029,1.92582627 4.85854558,2.00299983 C4.7514304,3.58706869 4.13997908,5.0722166 3.12808503,6.26661781 C3.08853328,6.3131329 3.08354892,6.36736279 3.11002914,6.40996161 L3.11002914,6.40996161 L7.62441314,13.6837 L7.62424805,8.83722553 C6.81517583,8.67284789 6.19525881,7.98753222 6.13024196,7.14636464 L6.1246,6.9998 C6.1246,5.96469322 6.96449322,5.1248 7.9996,5.1248 C9.03540015,5.1248 9.8746,5.9643864 9.8746,6.9998 C9.8746,7.90727448 9.23107342,8.6634637 8.37515,8.83723795 L8.37441314,13.6797 L12.881918,6.3997247 C12.8949311,6.37879056 12.9001729,6.35457976 12.8973011,6.32983948 L12.8868653,6.29267531 L12.8640024,6.25677727 C11.8562895,5.06456883 11.2483859,3.58363814 11.1422556,2.00301804 C11.1370671,1.92634248 11.0855413,1.8757 11.0244,1.8757 L11.0244,1.8757 Z M7.9996,5.8748 C7.37870678,5.8748 6.8746,6.37890678 6.8746,6.9998 C6.8746,7.62130925 7.37832267,8.1248 7.9996,8.1248 C8.62149322,8.1248 9.1246,7.62169322 9.1246,6.9998 C9.1246,6.37852267 8.62110925,5.8748 7.9996,5.8748 Z"/>
  </g>
</svg>
