<svg xmlns="http://www.w3.org/2000/svg" width="16" height="16" viewBox="0 0 16 16">
  <g fill="none" fill-rule="evenodd">
    <polygon points="0 16 16 16 16 0 0 0"/>
    <path fill="#000" fill-rule="nonzero" d="M7.91861348,15.4938801 C7.91625391,15.4934982 7.91389666,15.4930996 7.91154193,15.4926842 L8,15.5 C7.96566484,15.5 7.932138,15.4965391 7.8997493,15.4899472 C7.87548927,15.4855679 7.85182376,15.4789844 7.8286766,15.4706496 C7.82433225,15.4682902 7.82024183,15.4667344 7.81617752,15.4651268 C7.76812848,15.4472191 7.72226236,15.4206046 7.68089808,15.386225 C7.67531367,15.3803347 7.6691557,15.3749855 7.66313257,15.369491 C7.63041552,15.3408512 7.60046846,15.305145 7.57498383,15.2640877 L7.57498383,15.2640877 L2.36552131,6.87134113 C2.13618473,6.50041414 2.17970873,6.03253118 2.46047328,5.69999633 C3.35227252,4.64847186 3.89047445,3.34065557 3.98494086,1.94364261 C4.02059849,1.41670207 4.44476673,1.0004 4.9768,1.0004 L4.9768,1.0004 L11.0238,1.0004 C11.5551513,1.0004 11.979022,1.41700427 12.0146767,1.94390306 C12.1081575,3.33613212 12.643939,4.64019507 13.5330167,5.6920486 C13.8123813,6.02329527 13.8555682,6.49316893 13.625952,6.86054595 L13.625952,6.86054595 L8.42495198,15.263546 C8.41862217,15.2737727 8.41201551,15.2836684 8.40514993,15.2932329 C8.39614835,15.305476 8.38679429,15.3172196 8.3769407,15.3285162 C8.36548095,15.3423522 8.35294174,15.3553828 8.33987718,15.3675743 C8.33263408,15.3734419 8.32510875,15.380017 8.31738984,15.3863652 C8.30186222,15.4001202 8.28582547,15.4117624 8.26927373,15.4223316 C8.26219618,15.4259044 8.25495395,15.4302887 8.24759464,15.4344914 C8.22925751,15.4458233 8.21024154,15.4550483 8.19080398,15.4630039 C8.18430537,15.4649929 8.17750012,15.4676354 8.17062458,15.4701312 C8.1415399,15.4811979 8.11176927,15.488857 8.08161555,15.4937762 L8,15.5 L8,15.5 Z M11.0238,2.00032844 L4.98192712,2.00112392 L4.98266078,2.01113311 C4.87365555,3.62315271 4.25208353,5.13355609 3.21859559,6.3495883 L3.21859559,6.3495883 L7.4991962,13.2464 L7.4991206,8.93670137 C6.68364225,8.7262284 6.06933759,8.01397048 6.00548826,7.14920928 L6,7 C6,5.89585763 6.89585763,5 8,5 C9.10414237,5 10,5.89585763 10,7 C10,7.93155243 9.36231905,8.71484557 8.49987666,8.93695989 L8.4991962,13.2414 L12.772,6.339 C11.8806111,5.28607842 11.2970985,4.01440647 11.0871009,2.64805272 L11.0453002,2.33111604 L11.0169409,2.01115739 C11.0161021,1.99876223 11.0177684,2.00032844 11.0238,2.00032844 L11.0238,2.00032844 Z M8,6 C7.44814237,6 7,6.44814237 7,7 C7,7.55185763 7.44814237,8 8,8 C8.55185763,8 9,7.55185763 9,7 C9,6.44814237 8.55185763,6 8,6 Z"/>
  </g>
</svg>
