<svg id="Raw" xmlns="http://www.w3.org/2000/svg" viewBox="0 0 256 256">
  <rect width="256" height="256" fill="none"/>
  <g opacity="0.2">
    <circle cx="128" cy="128" r="32"/>
    <path d="M232,64H176l64,56V72A7.99993,7.99993,0,0,0,232,64Z"/>
    <path d="M232,192a7.99993,7.99993,0,0,0,8-8V136l-64,56Z"/>
    <path d="M16,72v48L80,64H24A7.99993,7.99993,0,0,0,16,72Z"/>
    <path d="M16,184a7.99993,7.99993,0,0,0,8,8H80L16,136Z"/>
  </g>
  <rect x="16" y="64" width="224" height="128" rx="8" stroke-width="16" stroke="#000" stroke-linecap="round" stroke-linejoin="round" fill="none"/>
  <circle cx="128" cy="128" r="32" fill="none" stroke="#000" stroke-linecap="round" stroke-linejoin="round" stroke-width="16"/>
  <line x1="176" y1="64" x2="240" y2="120" fill="none" stroke="#000" stroke-linecap="round" stroke-linejoin="round" stroke-width="16"/>
  <line x1="176" y1="192" x2="240" y2="136" fill="none" stroke="#000" stroke-linecap="round" stroke-linejoin="round" stroke-width="16"/>
  <line x1="80" y1="64" x2="16" y2="120" fill="none" stroke="#000" stroke-linecap="round" stroke-linejoin="round" stroke-width="16"/>
  <line x1="80" y1="192" x2="16" y2="136" fill="none" stroke="#000" stroke-linecap="round" stroke-linejoin="round" stroke-width="16"/>
</svg>
