<svg id="Raw" xmlns="http://www.w3.org/2000/svg" viewBox="0 0 256 256">
  <rect width="256" height="256" fill="none"/>
  <path d="M152,56V176a8,8,0,0,1-16,0V124H48v52a8,8,0,0,1-16,0V56a8,8,0,0,1,16,0v52h88V56a8,8,0,0,1,16,0Zm85.459,94.54492a35.92878,35.92878,0,0,0-11.92578-7.92676l21.01856-30.03906a8,8,0,0,0-6.55469-12.58691h-48a8,8,0,0,0,0,16h32.63867l-19.1875,27.4209A8,8,0,0,0,212.00293,156a20,20,0,1,1-14.1416,34.1416,8.00052,8.00052,0,0,0-11.31445,11.31445,35.99995,35.99995,0,1,0,50.9121-50.91113Z"/>
</svg>
