<svg xmlns="http://www.w3.org/2000/svg" width="16" height="16" viewBox="0 0 16 16">
  <g fill="none" fill-rule="evenodd">
    <polygon points="0 16 15.999 16 15.999 0 0 0"/>
    <path fill="#000" fill-rule="nonzero" d="M13.7436176,1.90404911 L13.7496,1.9998 L13.7496,10.7498 C13.7496,12.1310136 12.6308136,13.2498 11.2496,13.2498 C9.86910725,13.2498 8.7496,12.1307345 8.7496,10.7498 C8.7496,9.36958644 9.86938644,8.2498 11.2496,8.2498 C11.605531,8.2498 11.9440652,8.3241725 12.2505249,8.45821709 L12.2486,5.95943055 L5.7486,7.58443055 L5.7496,12.7498 C5.7496,14.075765 4.71852642,15.1598772 3.41403117,15.2444846 L3.2496,15.2498 C1.86910725,15.2498 0.7496,14.1307345 0.7496,12.7498 C0.7496,11.3695864 1.86938644,10.2498 3.2496,10.2498 C3.60553102,10.2498 3.94406522,10.3241725 4.25052489,10.4582171 L4.2496,3.9998 C4.2496,3.69388824 4.43466511,3.42287102 4.71028195,3.30779884 L4.81769828,3.27219312 L12.8176983,1.27219312 C13.259501,1.16174245 13.6883953,1.46625298 13.7436176,1.90404911 Z M3.2496,11.7498 C2.69781356,11.7498 2.2496,12.1980136 2.2496,12.7498 C2.2496,13.3021749 2.69740187,13.7498 3.2496,13.7498 C3.80238644,13.7498 4.2496,13.3025864 4.2496,12.7498 C4.2496,12.1976019 3.80197485,11.7498 3.2496,11.7498 Z M11.2496,9.7498 C10.6978136,9.7498 10.2496,10.1980136 10.2496,10.7498 C10.2496,11.3021749 10.6974019,11.7498 11.2496,11.7498 C11.8023864,11.7498 12.2496,11.3025864 12.2496,10.7498 C12.2496,10.1976019 11.8019749,9.7498 11.2496,9.7498 Z M12.249,2.96 L5.749,4.585 L5.7486,6.03843055 L12.2486,4.41343055 L12.249,2.96 Z"/>
  </g>
</svg>
