<svg xmlns="http://www.w3.org/2000/svg" width="16" height="16" viewBox="0 0 16 16">
  <g fill="none" fill-rule="evenodd">
    <polygon points="0 16 15.999 16 15.999 0 0 0"/>
    <path fill="#000" fill-rule="nonzero" d="M13.2427242,1.94106435 L13.2496,1.9998 L13.2496,10.7498 C13.2496,11.8548712 12.3546712,12.7498 11.2496,12.7498 C10.1452055,12.7498 9.2496,11.854548 9.2496,10.7498 C9.2496,9.64572881 10.1455288,8.7498 11.2496,8.7498 C11.8473145,8.7498 12.3837041,9.0119669 12.7501609,9.42752489 L12.7486,5.31967685 L5.2486,7.19467685 L5.2496,12.7436768 C5.2496,13.8046407 4.43417933,14.6680087 3.39892468,14.7443172 L3.2496,14.7498 C2.14520546,14.7498 1.2496,13.854548 1.2496,12.7498 C1.2496,11.6457288 2.14552881,10.7498 3.2496,10.7498 C3.84731448,10.7498 4.38370408,11.0119669 4.7501609,11.4275249 L4.7496,3.9998 C4.7496,3.90802647 4.79956758,3.82567447 4.87653599,3.78215926 L4.93896609,3.75726437 L12.9389661,1.75726437 C13.0770294,1.72274854 13.211311,1.80980337 13.2427242,1.94106435 Z M3.2496,11.2498 C2.42167119,11.2498 1.7496,11.9218712 1.7496,12.7498 C1.7496,13.5783614 2.42130366,14.2498 3.2496,14.2498 C4.07852881,14.2498 4.7496,13.5787288 4.7496,12.7498 C4.7496,11.9215037 4.07816141,11.2498 3.2496,11.2498 Z M11.2496,9.2498 C10.4216712,9.2498 9.7496,9.92187119 9.7496,10.7498 C9.7496,11.5783614 10.4213037,12.2498 11.2496,12.2498 C12.0785288,12.2498 12.7496,11.5787288 12.7496,10.7498 C12.7496,9.92150366 12.0781614,9.2498 11.2496,9.2498 Z M12.749,2.32 L5.249,4.195 L5.2486,6.67867685 L12.7486,4.80367685 L12.749,2.32 Z"/>
  </g>
</svg>
