<svg xmlns="http://www.w3.org/2000/svg" width="16" height="16" viewBox="0 0 16 16">
  <g fill="none" fill-rule="evenodd">
    <polygon points="0 16 16 16 16 0 0 0"/>
    <path fill="#000" fill-rule="nonzero" d="M13.5,10.75 C13.5,11.9928413 12.4924436,13 11.25,13 C10.0075564,13 9,11.9928413 9,10.75 C9,9.50715874 10.0075564,8.5 11.25,8.5 C11.712946,8.5 12.1432809,8.63983159 12.5010326,8.87958459 L12.5,5.6397537 L5.5,7.3897537 L5.5,12.75 C5.5,13.9410562 4.57465745,14.9156609 3.40402619,14.9948102 L3.25,15 C2.00755635,15 1,13.9928413 1,12.75 C1,11.5071587 2.00755635,10.5 3.25,10.5 C3.71294604,10.5 4.14328088,10.6398316 4.50103263,10.8795846 L4.5,4 C4.5,3.79924541 4.61955134,3.62103255 4.79855273,3.54233774 L4.87873219,3.51492875 L12.8787322,1.51492875 C13.1656171,1.44320753 13.4443375,1.6339428 13.492643,1.91360655 L13.5,2 Z M3.25,11.5 C2.55975276,11.5 2,12.0595319 2,12.75 C2,13.4404681 2.55975276,14 3.25,14 C3.94024724,14 4.5,13.4404681 4.5,12.75 C4.5,12.0595319 3.94024724,11.5 3.25,11.5 Z M11.25,9.5 C10.5597528,9.5 10,10.0595319 10,10.75 C10,11.4404681 10.5597528,12 11.25,12 C11.9402472,12 12.5,11.4404681 12.5,10.75 C12.5,10.0595319 11.9402472,9.5 11.25,9.5 Z M12.5,2.64 L5.5,4.39 L5.5,6.3597537 L12.5,4.6097537 L12.5,2.64 Z"/>
  </g>
</svg>
