<svg xmlns="http://www.w3.org/2000/svg" width="16" height="16" viewBox="0 0 16 16">
  <g fill="none" fill-rule="evenodd">
    <polygon points="0 16 15.999 16 15.999 0 0 0"/>
    <path fill="#000" fill-rule="nonzero" d="M13.3664128,1.92112196 L13.3746,1.9998 L13.3746,10.7498 C13.3746,11.9239068 12.4237068,12.8748 11.2496,12.8748 C10.0761809,12.8748 9.1246,11.9235946 9.1246,10.7498 C9.1246,9.57669322 10.0764932,8.6248 11.2496,8.6248 C11.7747312,8.6248 12.2553116,8.81525708 12.6260994,9.13082858 L12.6236,5.47861527 L5.3736,7.29161527 L5.3746,12.7466153 C5.3746,13.8728587 4.50459562,14.7916917 3.40141869,14.8694672 L3.2496,14.8748 C2.07618091,14.8748 1.1246,13.9235946 1.1246,12.7498 C1.1246,11.5766932 2.07649322,10.6248 3.2496,10.6248 C3.7747312,10.6248 4.25531159,10.8152571 4.62609937,11.1308286 L4.6246,3.9998 C4.6246,3.85230683 4.71064111,3.72103695 4.84035119,3.66025961 L4.90864914,3.63599656 L12.9086491,1.63599656 C13.1190314,1.583401 13.3235595,1.71899647 13.3664128,1.92112196 Z M3.2496,11.3748 C2.49070678,11.3748 1.8746,11.9909068 1.8746,12.7498 C1.8746,13.5093148 2.49032821,14.1248 3.2496,14.1248 C4.00949322,14.1248 4.6246,13.5096932 4.6246,12.7498 C4.6246,11.9905282 4.00911477,11.3748 3.2496,11.3748 Z M11.2496,9.3748 C10.4907068,9.3748 9.8746,9.99090678 9.8746,10.7498 C9.8746,11.5093148 10.4903282,12.1248 11.2496,12.1248 C12.0094932,12.1248 12.6246,11.5096932 12.6246,10.7498 C12.6246,9.99052821 12.0091148,9.3748 11.2496,9.3748 Z M12.624,2.48 L5.374,4.292 L5.3736,6.51961527 L12.6236,4.70661527 L12.624,2.48 Z"/>
  </g>
</svg>
