<svg xmlns="http://www.w3.org/2000/svg" width="16" height="16" viewBox="0 0 16 16">
  <g fill="none" fill-rule="evenodd">
    <polygon points="0 16 15.999 16 15.999 0 0 0"/>
    <path fill="#000" d="M3.2496,10.9998 C4.2166,10.9998 4.9996,11.7838 4.9996,12.7498 C4.9996,13.7168 4.2166,14.4998 3.2496,14.4998 C2.2836,14.4998 1.4996,13.7168 1.4996,12.7498 C1.4996,11.7838 2.2836,10.9998 3.2496,10.9998 Z M11.2496,8.9998 C12.2166,8.9998 12.9996,9.7838 12.9996,10.7498 C12.9996,11.7168 12.2166,12.4998 11.2496,12.4998 C10.2836,12.4998 9.4996,11.7168 9.4996,10.7498 C9.4996,9.7838 10.2836,8.9998 11.2496,8.9998 Z" opacity=".2"/>
    <path fill="#000" fill-rule="nonzero" d="M13.4996,10.7498 C13.4996,11.9929424 12.4927424,12.9998 11.2496,12.9998 C10.0071564,12.9998 8.9996,11.9926413 8.9996,10.7498 C8.9996,9.50765763 10.0074576,8.4998 11.2496,8.4998 C11.7122973,8.4998 12.1423291,8.63944713 12.4998877,8.8788722 L12.4986,5.6395537 L5.4986,7.3895537 L5.4996,12.7498 C5.4996,13.9411448 4.57489916,14.915485 3.40370641,14.9946117 L3.2496,14.9998 C2.00715635,14.9998 0.9996,13.9926413 0.9996,12.7498 C0.9996,11.5076576 2.00745763,10.4998 3.2496,10.4998 C3.71229734,10.4998 4.14232912,10.6394471 4.4998877,10.8788722 L4.4996,3.9998 C4.4996,3.79904541 4.61915134,3.62083255 4.79815273,3.54213774 L4.87833219,3.51472875 L12.8783322,1.51472875 C13.1652171,1.44300753 13.4439375,1.6337428 13.492243,1.91340655 L13.4996,1.9998 Z M3.2496,11.4998 C2.55974237,11.4998 1.9996,12.0599424 1.9996,12.7498 C1.9996,13.4402681 2.55935276,13.9998 3.2496,13.9998 C3.94045763,13.9998 4.4996,13.4406576 4.4996,12.7498 C4.4996,12.0595528 3.94006813,11.4998 3.2496,11.4998 Z M11.2496,9.4998 C10.5597424,9.4998 9.9996,10.0599424 9.9996,10.7498 C9.9996,11.4402681 10.5593528,11.9998 11.2496,11.9998 C11.9404576,11.9998 12.4996,11.4406576 12.4996,10.7498 C12.4996,10.0595528 11.9400681,9.4998 11.2496,9.4998 Z M12.499,2.639 L5.499,4.389 L5.4986,6.3595537 L12.4986,4.6095537 L12.499,2.639 Z"/>
  </g>
</svg>
