<svg xmlns="http://www.w3.org/2000/svg" width="16" height="16" viewBox="0 0 16 16">
  <g fill="none" fill-rule="evenodd">
    <polygon points="0 16 15.999 16 15.999 0 0 0"/>
    <path fill="#000" d="M13.3073,1.6057 C13.1853,1.5107 13.0273,1.4757 12.8783,1.5147 L4.8783,3.5147 C4.6563,3.5707 4.4993,3.7707 4.4993,3.9997 L4.4993,10.8807 C4.1423,10.6407 3.7113,10.4997 3.2493,10.4997 C2.0093,10.4997 0.9993,11.5087 0.9993,12.7497 C0.9993,13.9907 2.0093,14.9997 3.2493,14.9997 C4.4903,14.9997 5.4993,13.9907 5.4993,12.7497 L5.4993,7.3897 L12.4993,5.6397 L12.4993,8.8807 C12.1423,8.6407 11.7113,8.4997 11.2493,8.4997 C10.0093,8.4997 8.9993,9.5087 8.9993,10.7497 C8.9993,11.9907 10.0093,12.9997 11.2493,12.9997 C12.4903,12.9997 13.4993,11.9907 13.4993,10.7497 L13.4993,1.9997 C13.4993,1.8457 13.4283,1.7007 13.3073,1.6057"/>
  </g>
</svg>
