<svg id="Raw" xmlns="http://www.w3.org/2000/svg" viewBox="0 0 256 256">
  <rect width="256" height="256" fill="none"/>
  <g>
    <path d="M219.96875,169.08984,128,222.73828,36.03125,169.08984a8.00008,8.00008,0,0,0-8.0625,13.82032l96,56a8.00059,8.00059,0,0,0,8.0625,0l96-56a8.00008,8.00008,0,0,0-8.0625-13.82032Z"/>
    <path d="M219.96875,121.08984,128,174.73828,36.03125,121.08984a8.00008,8.00008,0,0,0-8.0625,13.82032l96,56a8.00059,8.00059,0,0,0,8.0625,0l96-56a8.00008,8.00008,0,0,0-8.0625-13.82032Z"/>
    <path d="M27.96875,86.91016l96,56a8.00059,8.00059,0,0,0,8.0625,0l96-56a8.00016,8.00016,0,0,0,0-13.82032l-96-56a8.00059,8.00059,0,0,0-8.0625,0l-96,56a8.00016,8.00016,0,0,0,0,13.82032Z"/>
  </g>
</svg>
