<svg id="Raw" xmlns="http://www.w3.org/2000/svg" viewBox="0 0 256 256">
  <rect width="256" height="256" fill="none"/>
  <path d="M206,80H136V69.439c11.49683-5.13232,18.2417-12.52441,20.07031-22.03027,4.11914-21.41113-20.06445-43.06006-22.835-45.458a7.99935,7.99935,0,0,0-10.35644-.09619c-2.85938,2.38184-27.81446,23.895-23.76661,45.34717,1.82349,9.6665,8.84131,17.15674,20.8877,22.31885V80H50a32.03635,32.03635,0,0,0-32,32v13.32812A43.21843,43.21843,0,0,0,30.90918,155.9834c.35693.35058.72461.68408,1.09082,1.02V208a16.01833,16.01833,0,0,0,16,16H208a16.01833,16.01833,0,0,0,16-16V157.00439c.36646-.33593.73389-.67041,1.09082-1.021A43.21843,43.21843,0,0,0,238,125.32812V112A32.03635,32.03635,0,0,0,206,80Zm2,128H48V166.20312a41.105,41.105,0,0,0,12.81641,1.78907,42.04634,42.04634,0,0,0,33.15014-17.42432,41.9385,41.9385,0,0,0,68.0669,0,42.04634,42.04634,0,0,0,33.15014,17.42432q.40137.00732.80079.00781A41.06205,41.06205,0,0,0,208,166.209Z"/>
</svg>
