<svg id="Raw" xmlns="http://www.w3.org/2000/svg" viewBox="0 0 256 256">
  <rect width="256" height="256" fill="none"/>
  <path d="M232.00488,128a7.99977,7.99977,0,0,1-8,8H208v48a16.01833,16.01833,0,0,1-16,16H152a16.01833,16.01833,0,0,1-16-16V136H120v72a16.01833,16.01833,0,0,1-16,16H64a16.01833,16.01833,0,0,1-16-16V136H32.00488a8,8,0,0,1,0-16H48V48A16.01833,16.01833,0,0,1,64,32h40a16.01833,16.01833,0,0,1,16,16v72h16V72a16.01833,16.01833,0,0,1,16-16h40a16.01833,16.01833,0,0,1,16,16v48h16.00488A7.99977,7.99977,0,0,1,232.00488,128Z"/>
</svg>
