<svg id="Raw" xmlns="http://www.w3.org/2000/svg" viewBox="0 0 256 256">
  <rect width="256" height="256" fill="none"/>
  <g>
    <path d="M221.048,175.93066C215.09778,165.7168,208.004,146.335,208.004,112v-7.0957c0-44.28516-35.61621-80.57813-79.39453-80.90235-.20508-.001-.40722-.002-.61133-.002A79.99928,79.99928,0,0,0,48.004,104v8c0,34.33105-7.09668,53.71387-13.0498,63.92676A15.999,15.999,0,0,0,48.76478,200h158.4707a15.99861,15.99861,0,0,0,13.8125-24.06934Z"/>
    <path d="M159.92884,216h-64a8,8,0,1,0,0,16h64a8,8,0,1,0,0-16Z"/>
  </g>
</svg>
