<svg id="Raw" xmlns="http://www.w3.org/2000/svg" viewBox="0 0 256 256">
  <rect width="256" height="256" fill="none"/>
  <path d="M55.99674,104A72.00377,72.00377,0,0,1,128.55,32.002c39.70343.29432,71.46127,33.20133,71.46127,72.90185V112c0,35.81563,7.51478,56.59893,14.13351,67.95814A7.99892,7.99892,0,0,1,207.24334,192H48.75659a7.999,7.999,0,0,1-6.90041-12.04359C48.47844,168.59682,55.99674,147.81381,55.99674,112Z" opacity="0.2"/>
  <line x1="96" y1="224" x2="160" y2="224" fill="none" stroke="#000" stroke-linecap="round" stroke-linejoin="round" stroke-width="16"/>
  <path d="M56.20305,104A71.899,71.899,0,0,1,128.5484,32.002c39.58967.29432,71.25651,33.20133,71.25651,72.90185V112c0,35.81563,7.49325,56.59893,14.093,67.95814A7.999,7.999,0,0,1,207.01628,192H48.98365A7.99908,7.99908,0,0,1,42.103,179.95641c6.60328-11.35959,14.1-32.1426,14.1-67.95641Z" fill="none" stroke="#000" stroke-linecap="round" stroke-linejoin="round" stroke-width="16"/>
</svg>
