<svg id="Raw" xmlns="http://www.w3.org/2000/svg" viewBox="0 0 256 256">
  <rect width="256" height="256" fill="none"/>
  <g>
    <path d="M221.044,183.95141C215.09375,173.73755,208,154.35571,208,120.02075v-15.0957c0-44.28516-35.61621-80.57813-79.39453-80.90235-.20508-.001-.40723-.002-.61133-.002a79.99928,79.99928,0,0,0-79.99414,80v16c0,34.33106-7.09668,53.71387-13.0498,63.92676a15.999,15.999,0,0,0,13.81054,24.07324H207.23145a15.99861,15.99861,0,0,0,13.8125-24.06934Z"/>
    <path d="M159.9248,224.02075h-64a8,8,0,0,0,0,16h64a8,8,0,0,0,0-16Z"/>
  </g>
</svg>
