<svg id="Layer_1" data-name="Layer 1" xmlns="http://www.w3.org/2000/svg" viewBox="0 0 256 256">
  <path d="M216.00781,40h-144a16.01818,16.01818,0,0,0-16,16V72h-16a16.01818,16.01818,0,0,0-16,16v23.84521c-.001.052-.00781.10254-.00781.15479s.00684.10278.00781.15479V200a16.01833,16.01833,0,0,0,16,16h144a16.01833,16.01833,0,0,0,16-16V184h16a16.01833,16.01833,0,0,0,16-16V56A16.01817,16.01817,0,0,0,216.00781,40Zm-32,48,.00147,16H40.00781V88Zm32,80h-16V88a16.01817,16.01817,0,0,0-16-16h-112V56h144Z"/>
</svg>
