<svg id="Layer_1" data-name="Layer 1" xmlns="http://www.w3.org/2000/svg" viewBox="0 0 256 256">
  <rect x="-0.00488" width="256" height="256" fill="none"/>
  <path d="M160,40A88.102,88.102,0,0,0,81.28711,88.6709l-.00537-.00049A87.46324,87.46324,0,0,0,71.98828,128a8,8,0,0,1-16,0,103.43674,103.43674,0,0,1,7.78-39.45264A63.99161,63.99161,0,0,0,72,216h88a88,88,0,0,0,0-176ZM143.99268,168.002a8.00449,8.00449,0,0,1-7.4253-10.97314l16-40a8,8,0,0,1,14.85547,5.94238l-16,40A8.00314,8.00314,0,0,1,143.99268,168.002Zm47.43017-13.03076-16,40a8,8,0,0,1-14.85547-5.94238l16-40a8,8,0,0,1,14.85547,5.94238Z"/>
</svg>
