<svg id="Raw" xmlns="http://www.w3.org/2000/svg" viewBox="0 0 256 256">
  <rect width="256" height="256" fill="none"/>
  <path d="M160.93359,204.38916l-26.25,40a8,8,0,1,1-13.377-8.77832l26.25-40a8,8,0,1,1,13.377,8.77832ZM155.99512,16A76.1302,76.1302,0,0,0,85.03931,64.76562l-.007.01758A75.62312,75.62312,0,0,0,79.99512,92a8,8,0,0,1-16,0,91.68713,91.68713,0,0,1,4.16967-27.40967A52.0014,52.0014,0,0,0,75.99512,168h39.43115L92.05664,203.61084a8,8,0,1,0,13.37695,8.77832L134.564,168h21.43116a76,76,0,0,0,0-152Z"/>
</svg>
