<svg id="Raw" xmlns="http://www.w3.org/2000/svg" viewBox="0 0 256 256">
  <rect width="256" height="256" fill="none"/>
  <path d="M240.00244,56v64a8.00018,8.00018,0,0,1-13.65723,5.65674L200.00244,99.314l-58.34277,58.34278a8.00122,8.00122,0,0,1-11.31446,0L96.00244,123.314,29.65967,189.65674a8.00018,8.00018,0,0,1-11.31446-11.31348l72-72a8.00122,8.00122,0,0,1,11.31446,0L136.00244,140.686,188.68848,88,162.34521,61.65674A8.00038,8.00038,0,0,1,168.00244,48h64A8.00008,8.00008,0,0,1,240.00244,56Z"/>
</svg>
