<svg id="Raw" xmlns="http://www.w3.org/2000/svg" viewBox="0 0 256 256">
  <rect width="256" height="256" fill="none"/>
  <path d="M256,136a7.99977,7.99977,0,0,1-8,8H232v16a8,8,0,0,1-16,0V144H200a8,8,0,0,1,0-16h16V112a8,8,0,0,1,16,0v16h16A7.99977,7.99977,0,0,1,256,136ZM144.1427,157.55811a68,68,0,1,0-72.2854,0,119.88787,119.88787,0,0,0-55.77478,37.29394,8.00012,8.00012,0,0,0,6.12549,13.146l171.58447.00049a8.00012,8.00012,0,0,0,6.12549-13.146A119.88993,119.88993,0,0,0,144.1427,157.55811Z"/>
</svg>
