<svg id="Layer_1" data-name="Layer 1" xmlns="http://www.w3.org/2000/svg" viewBox="0 0 256 256">
  <rect width="256" height="256" fill="none"/>
  <path d="M221.97168,158.42676l-46.83789-20.07324a15.95139,15.95139,0,0,0-15.17871,1.39453l-25.043,16.69336A76.54083,76.54083,0,0,1,99.707,121.3916l.00195-.00195,16.63477-25.418a15.96924,15.96924,0,0,0,1.32031-15.06641L97.57227,34.02734a16.02839,16.02839,0,0,0-16.65235-9.583A56.07029,56.07029,0,0,0,32,80c0,79.40234,64.59766,144,144,144a56.07032,56.07032,0,0,0,55.55566-48.9209A16.03476,16.03476,0,0,0,221.97168,158.42676Z"/>
</svg>
