<svg id="Raw" xmlns="http://www.w3.org/2000/svg" viewBox="0 0 256 256">
  <rect width="256" height="256" fill="none"/>
  <path d="M236.4375,73.34375,213.207,57.85547A60.00943,60.00943,0,0,0,96,76V93.19385L1.75293,211.00244A7.99963,7.99963,0,0,0,8,224H112A104.11791,104.11791,0,0,0,216,120V100.28125l20.4375-13.625a7.99959,7.99959,0,0,0,0-13.3125Zm-126.292,67.77783-40,48a7.99987,7.99987,0,0,1-12.291-10.24316l40-48a7.99987,7.99987,0,0,1,12.291,10.24316ZM164,80a12,12,0,1,1,12-12A12,12,0,0,1,164,80Z"/>
</svg>
