<svg id="Layer_1" data-name="Layer 1" xmlns="http://www.w3.org/2000/svg" viewBox="0 0 256 256">
  <rect x="0.00049" width="255.99951" height="256" fill="none"/>
  <g>
    <path d="M228.46533,226.61816l-38.64551-42.51025-.00781-.00928L108.60547,94.772l-69.231-76.15381A8.0006,8.0006,0,0,0,27.53467,29.38184L35.457,38.09668A15.90942,15.90942,0,0,0,31.99951,48v58.667c0,89.45117,75.82617,119.124,91.02637,124.16406a15.49078,15.49078,0,0,0,9.94824,0,148.267,148.267,0,0,0,50.55762-29.852l33.09375,36.40284a8.0006,8.0006,0,1,0,11.83984-10.76368Z"/>
    <path d="M197.08838,168.31836a8.001,8.001,0,0,0,13.02441-1.70313c9.21485-17.79785,13.88672-37.96679,13.88672-59.94824V48a16.01833,16.01833,0,0,0-16-16H91.24658a8.00036,8.00036,0,0,0-5.91992,13.38184Z"/>
  </g>
</svg>
