<svg id="Layer_1" data-name="Layer 1" xmlns="http://www.w3.org/2000/svg" viewBox="0 0 256 256">
  <path d="M40,106.66667V48a8,8,0,0,1,8-8H208a8,8,0,0,1,8,8v58.66667c0,84.01533-71.306,111.85016-85.5438,116.57058a7.54755,7.54755,0,0,1-4.9124,0C111.306,218.51683,40,190.682,40,106.66667Z" opacity="0.2"/>
  <line x1="33.45455" y1="24" x2="222.54545" y2="232" fill="none" stroke="#000" stroke-linecap="round" stroke-linejoin="round" stroke-width="16"/>
  <path d="M91.24631,40H208a8,8,0,0,1,8,8v58.66667c0,22.61089-5.16469,41.15262-12.99168,56.26977" fill="none" stroke="#000" stroke-linecap="round" stroke-linejoin="round" stroke-width="16"/>
  <path d="M183.89179,189.48093c-20.898,21.71963-45.66537,31.18017-53.43559,33.75632a7.54755,7.54755,0,0,1-4.9124,0C111.306,218.51683,40,190.682,40,106.66667V48a8,8,0,0,1,8-8" fill="none" stroke="#000" stroke-linecap="round" stroke-linejoin="round" stroke-width="16"/>
</svg>
