<svg xmlns="http://www.w3.org/2000/svg" width="16" height="16" viewBox="0 0 16 16">
  <g fill="none" fill-rule="evenodd">
    <polygon points="0 16 15.999 16 15.999 0 0 0"/>
    <path fill="#000" d="M14.4996,4.8244 L14.4996,11.2124 C14.4996,11.5674 14.3096,11.8984 14.0036,12.0774 L14.0036,12.0774 L8.5036,15.2854 C8.5026,15.2864 8.5006,15.2864 8.4996,15.2864 L8.4996,15.2864 L8.4996,8.2884 L14.4996,4.8244 Z M1.4996,4.8244 L7.4996,8.2884 L7.4996,15.2864 C7.4986,15.2854 7.4976,15.2854 7.4966,15.2854 L7.4966,15.2854 L1.9956,12.0774 C1.6886,11.8974 1.4996,11.5664 1.4996,11.2124 L1.4996,11.2124 L1.4996,4.8244 Z M7.4956,0.7152 C7.8066,0.5332 8.1926,0.5322 8.5036,0.7152 L8.5036,0.7152 L14.0036,3.9232 C14.0126,3.9282 14.0156,3.9392 14.0236,3.9442 L14.0236,3.9442 L7.9996,7.4222 L1.9756,3.9442 C1.9826,3.9392 1.9856,3.9292 1.9946,3.9242 L1.9946,3.9242 Z"/>
  </g>
</svg>
