<svg xmlns="http://www.w3.org/2000/svg" width="16" height="16" viewBox="0 0 16 16">
  <g fill="none" fill-rule="evenodd">
    <polygon points="0 16 15.999 16 15.999 0 0 0"/>
    <path fill="#000" fill-rule="nonzero" d="M7.55864837,0.822782912 C7.83156101,0.663583867 8.16939134,0.663583867 8.44058093,0.822800001 L8.44058093,0.822800001 L13.9392392,4.03102089 C14.2094082,4.18715754 14.3746,4.47503557 14.3746,4.7877 L14.3746,4.7877 L14.3746,11.2127 C14.3746,11.5240598 14.2097921,11.8112689 13.940537,11.9686256 L13.940537,11.9686256 L8.44145895,15.1760861 C8.16939134,15.3358161 7.83156101,15.3358161 7.55866301,15.1766256 L7.55866301,15.1766256 L2.05746745,11.9679253 C1.78978873,11.8104673 1.6246,11.5234338 1.6246,11.2127 L1.6246,11.2127 L1.6246,4.7877 C1.6246,4.47566341 1.79017965,4.18795066 2.05904369,4.03155263 L2.05904369,4.03155263 Z M2.3746,5.15338576 L2.3746,11.2127 C2.3746,11.2568933 2.39847782,11.2983837 2.43653699,11.3207744 L2.43653699,11.3207744 L7.6246,14.3473858 L7.6246,8.21538576 L2.3746,5.15338576 Z M13.6246,5.15238576 L8.3746,8.21438576 L8.3746,14.3463858 L13.562387,11.3209355 C13.5882933,11.3057955 13.6073081,11.2826608 13.6171061,11.2556377 L13.6246,11.2127 L13.6246,5.15238576 Z M8.06174105,1.47008612 C8.02380866,1.44781613 7.97563899,1.44781613 7.93658093,1.4706 L7.93658093,1.4706 L2.7436,4.49938576 L7.999,7.565 L13.2546,4.49938576 Z"/>
  </g>
</svg>
