<svg xmlns="http://www.w3.org/2000/svg" width="16" height="16" viewBox="0 0 16 16">
  <g fill="none" fill-rule="evenodd">
    <polygon points="0 16 16 16 16 0 0 0"/>
    <path fill="#000" fill-rule="nonzero" d="M7.49606449,0.71501055 C7.80774574,0.533196483 8.19225426,0.533196483 8.50397457,0.715033335 L8.50397457,0.715033335 L14.0021856,3.92299453 C14.1527528,4.0100106 14.2748769,4.13287208 14.3604817,4.27727578 C14.3617146,4.2802736 14.3636252,4.2834682 14.3655053,4.28669164 L14.3713908,4.29614514 C14.4543826,4.44338612 14.5,4.61183722 14.5,4.7869 L14.5,4.7869 L14.5,11.2129 C14.5,11.5686818 14.3116163,11.8969762 14.003916,12.0768008 L14.003916,12.0768008 L8.50393551,15.2847895 C8.19225426,15.4666035 7.80774574,15.4666035 7.49608402,15.2848008 L7.49608402,15.2848008 L1.99571599,12.076586 C1.68838366,11.8969762 1.5,11.5686818 1.5,11.2129 L1.5,11.2129 L1.5,4.7869 C1.5,4.61183722 1.54561739,4.44338612 1.62860924,4.29614514 C1.63093718,4.29321657 1.63280451,4.2899319 1.63471319,4.28665996 L1.63951834,4.27727578 C1.72512314,4.13287208 1.84724723,4.0100106 1.99781437,3.92299453 L1.99781437,3.92299453 Z M2.5,5.36965285 L2.5,11.212 L7.5,14.1296528 L7.5,8.28665285 L2.5,5.36965285 Z M13.5,5.36965285 L8.5,8.28565285 L8.5,14.1286528 L13.499716,11.213214 L13.5,5.36965285 Z M7.99997457,1.57876667 L2.991,4.49965285 L7.999,7.42 L13.007,4.49965285 L7.99997457,1.57876667 Z"/>
  </g>
</svg>
