<svg xmlns="http://www.w3.org/2000/svg" width="16" height="16" viewBox="0 0 16 16">
  <g fill="none" fill-rule="evenodd">
    <polygon points="0 16 15.999 16 15.999 0 0 0"/>
    <path fill="#000" fill-rule="nonzero" d="M7.62163224,0.930755275 C7.85557401,0.794289245 8.14512756,0.794289245 8.37758728,0.930766667 L8.37758728,0.930766667 L13.8766928,4.13924726 C13.9903362,4.20492428 14.0822925,4.29780974 14.1464564,4.40709687 C14.1469445,4.4092148 14.1480589,4.41107055 14.1491526,4.41294582 C14.21548,4.52954933 14.2496,4.65602371 14.2496,4.7877 L14.2496,4.7877 L14.2496,11.2127 C14.2496,11.4796377 14.1083678,11.7257617 13.877558,11.8606504 L13.877558,11.8606504 L8.37817263,15.0682907 C8.26640612,15.1339085 8.14164218,15.1680565 8.0162499,15.1707745 C8.01063134,15.17062 8.00513669,15.1708 7.9996,15.1708 L7.98623008,15.1708248 C7.86014918,15.1685154 7.73443065,15.1344438 7.62164201,15.0686504 L7.62164201,15.0686504 L2.12084497,11.8601836 C1.89123691,11.72512 1.7496,11.4790104 1.7496,11.2127 L1.7496,11.2127 L1.7496,4.7877 C1.7496,4.65752663 1.78319963,4.53231353 1.84421348,4.4226333 C1.84623822,4.42001269 1.84819938,4.41645655 1.85025659,4.41292998 L1.85512537,4.40367412 C1.91910782,4.29616442 2.00997988,4.20470329 2.12161272,4.13976667 L2.12161272,4.13976667 Z M2.2496,4.93540718 L2.2496,11.2127 C2.2496,11.3013167 2.29702964,11.3837309 2.37355799,11.4287496 L2.37355799,11.4287496 L7.7496,14.5644072 L7.7496,8.14340718 L2.2496,4.93540718 Z M13.7496,4.93440718 L8.2496,8.14240718 L8.2496,14.5644072 L13.625458,11.428857 C13.6833675,11.3950138 13.7242426,11.3405499 13.7410608,11.277781 L13.7496,11.2127 L13.7496,4.93440718 Z M8.12502737,1.36229074 C8.04807244,1.31711076 7.95162599,1.31711076 7.87358728,1.36263333 L7.87358728,1.36263333 L2.4956,4.49940718 L7.999,7.71 L13.5026,4.49940718 Z"/>
  </g>
</svg>
