<svg id="Raw" xmlns="http://www.w3.org/2000/svg" viewBox="0 0 256 256">
  <rect width="256" height="256" fill="none"/>
  <path d="M229.92236,70.81226c-.0249-.04541-.04345-.09229-.06933-.13746-.01123-.01953-.02442-.03662-.03565-.0559a15.989,15.989,0,0,0-5.97314-5.8855l-88-49.5a16.09272,16.09272,0,0,0-15.68848,0l-88,49.5A15.99092,15.99092,0,0,0,26.168,70.64575c-.01563.0271-.03369.05127-.04883.07862-.02441.0437-.042.08886-.06543.13256A15.98294,15.98294,0,0,0,24,78.67871v98.64258a16.02048,16.02048,0,0,0,8.15576,13.94531l88.00049,49.5a15.97122,15.97122,0,0,0,7.24463,2.02222c.17871.01343.35693.03052.53906.032.02393.00049.04785.00049.07178.00049.25146,0,.499-.01465.74463-.03735a15.97135,15.97135,0,0,0,7.08789-2.01734l88-49.5A16.02048,16.02048,0,0,0,232,177.32129V78.67871A15.98584,15.98584,0,0,0,229.92236,70.81226ZM128.91016,118.821,48.37891,73.96558,128,29.17871l79.74365,44.856ZM216,177.32129l-79.87891,44.93188.78711-89.57421L216,87.74561Z"/>
</svg>
