<svg xmlns="http://www.w3.org/2000/svg" width="16" height="16" viewBox="0 0 16 16">
  <g fill="none" fill-rule="evenodd">
    <polygon points="0 16 15.999 16 15.999 0 0 0"/>
    <path fill="#000" fill-rule="nonzero" d="M7.36969673,0.498865824 C7.75952203,0.271467735 8.24218267,0.271467735 8.62956185,0.498900002 L8.62956185,0.498900002 L14.1268784,3.70634179 C14.3120158,3.81333674 14.4626946,3.9635976 14.5694359,4.14018199 C14.572678,4.14693224 14.5769173,4.15393821 14.5810579,4.16103746 L14.5935836,4.18193294 C14.6943462,4.364192 14.7496,4.57192044 14.7496,4.7877 L14.7496,4.7877 L14.7496,11.2127 C14.7496,11.657326 14.5140649,12.0677907 14.129474,12.2925513 L14.129474,12.2925513 L8.63131789,15.4994722 C8.44524864,15.6087129 8.23779593,15.6657189 8.02933699,15.6706083 C8.0193772,15.6706078 8.00951105,15.6708 7.9996,15.6708 L7.9711993,15.670621 C7.76306344,15.6658308 7.55581255,15.6091017 7.36972603,15.5005513 L7.36972603,15.5005513 L1.86733491,12.2911507 C1.48544419,12.0665091 1.2496,11.656704 1.2496,11.2127 L1.2496,11.2127 L1.2496,4.7877 C1.2496,4.57341129 1.30432014,4.36708942 1.40386485,4.18576942 C1.40872184,4.17789849 1.41345442,4.16941608 1.41836978,4.16098994 L1.42785486,4.14399965 C1.53449651,3.96633653 1.68535753,3.81509517 1.87048737,3.70740526 L1.87048737,3.70740526 Z M2.7486,5.80532153 L2.749,11.068 L7.2496,13.6933215 L7.2496,8.43132153 L2.7486,5.80532153 Z M13.2486,5.80532153 L8.7496,8.42932153 L8.7496,13.6923215 L13.249,11.069 L13.2486,5.80532153 Z M7.999,1.868 L3.4876,4.49932153 L7.999,7.132 L12.5106,4.49932153 L7.999,1.868 Z"/>
  </g>
</svg>
