<svg id="Layer_1" data-name="Layer 1" xmlns="http://www.w3.org/2000/svg" viewBox="0 0 256 256">
  <rect width="256" height="256" fill="none"/>
  <path d="M225.939,72.833c-.03173-.0586-.05664-.11914-.09033-.17749-.02636-.04663-.0581-.08814-.08593-.134a15.98749,15.98749,0,0,0-5.88965-5.78295l-84-47.47828a16.08654,16.08654,0,0,0-15.7461,0l-84,47.47852a15.99434,15.99434,0,0,0-5.96093,5.8999c-.01465.02588-.03223.04907-.04688.0752-.02588.0459-.04443.09375-.06934.13989A15.98459,15.98459,0,0,0,28,80.66772v94.6648a16.02531,16.02531,0,0,0,8.127,13.92871l84,47.478a15.97377,15.97377,0,0,0,7.30078,2.041c.16309.01172.32422.02808.48975.02979.02832.00049.05615.00049.08447.00049.22119,0,.43946-.01514.65625-.033a15.97571,15.97571,0,0,0,7.21485-2.03833l84-47.478A16.02531,16.02531,0,0,0,228,175.33252V80.66772A15.985,15.985,0,0,0,225.939,72.833ZM128,33.18945l75.813,42.85083L129.0166,118.81055,52.3291,75.96Zm8.13037,185.02564.8833-85.54663L212,89.79v85.54248Z"/>
</svg>
