<svg id="Raw" xmlns="http://www.w3.org/2000/svg" viewBox="0 0 256 256">
  <rect width="256" height="256" fill="none"/>
  <path d="M33.10781,74.617A7.99478,7.99478,0,0,0,32,78.67873v98.64244a8,8,0,0,0,4.07791,6.97261l88,49.5A7.99527,7.99527,0,0,0,128,234.82117l.01036.0001L128.94915,128,33.108,74.61709Z" opacity="0.2"/>
  <path d="M224,177.32117V78.67873a8,8,0,0,0-4.07791-6.9726l-88-49.5a8,8,0,0,0-7.84418,0l-88,49.5A8,8,0,0,0,32,78.67873v98.64244a8,8,0,0,0,4.07791,6.97261l88,49.5a8,8,0,0,0,7.84418,0l88-49.5A8,8,0,0,0,224,177.32117Z" fill="none" stroke="#000" stroke-linecap="round" stroke-linejoin="round" stroke-width="16"/>
  <polyline points="222.897 74.626 128.949 128 33.108 74.617" fill="none" stroke="#000" stroke-linecap="round" stroke-linejoin="round" stroke-width="16"/>
  <line x1="128.94915" y1="127.99996" x2="128.01036" y2="234.82127" fill="none" stroke="#000" stroke-linecap="round" stroke-linejoin="round" stroke-width="16"/>
</svg>
