<svg id="Layer_1" data-name="Layer 1" xmlns="http://www.w3.org/2000/svg" viewBox="0 0 256 256">
  <rect width="256" height="256" fill="none"/>
  <g>
    <path d="M224,179.405V76.595a8,8,0,0,0-3.969-6.91023l-88-51.33333a8,8,0,0,0-8.06194,0l-88,51.33333A8,8,0,0,0,32,76.595V179.405a8,8,0,0,0,3.969,6.91023l88,51.33333a8,8,0,0,0,8.06194,0l88-51.33333A8,8,0,0,0,224,179.405Z" fill="none" stroke="#000" stroke-linecap="round" stroke-linejoin="round" stroke-width="12"/>
    <line x1="128" y1="128" x2="128" y2="238.73531" fill="none" stroke="#000" stroke-linecap="round" stroke-linejoin="round" stroke-width="12"/>
    <polyline points="222.938 72.619 128 128 33.063 72.62" fill="none" stroke="#000" stroke-linecap="round" stroke-linejoin="round" stroke-width="12"/>
  </g>
</svg>
