<svg id="Raw" xmlns="http://www.w3.org/2000/svg" viewBox="0 0 256 256">
  <rect width="256" height="256" fill="none"/>
  <path d="M193.64844,88.40527A16.08547,16.08547,0,0,0,200,75.64111V40a16.01833,16.01833,0,0,0-16-16H72A16.01833,16.01833,0,0,0,56,40V76a16.07553,16.07553,0,0,0,6.3999,12.7998l18.127,13.59522.00048.00049L114.6665,128,62.40039,167.2002A16.07459,16.07459,0,0,0,56,180v36a16.01833,16.01833,0,0,0,16,16H184a16.01833,16.01833,0,0,0,16-16V180.35889a16.08452,16.08452,0,0,0-6.352-12.76416L141.2666,128l22.70459-17.16211ZM72,40H184V75.6416l-5.76025,4.354H77.32764L72,76ZM184,180.35889V216H72V180l48-36v23.99561a8,8,0,0,0,16,0V144.07568Z"/>
</svg>
