<svg id="Raw" xmlns="http://www.w3.org/2000/svg" viewBox="0 0 256 256">
  <rect width="256" height="256" fill="none"/>
  <path d="M216.0006,64H175.99429V56a24.027,24.027,0,0,0-23.9991-24H103.997A24.027,24.027,0,0,0,79.9979,56v8H40.00721a16.018,16.018,0,0,0-15.9994,16v79.84521c-.001.05225-.00781.10254-.00781.15479s.00684.10254.00781.15479V208a16.018,16.018,0,0,0,15.9994,16H216.0006A16.018,16.018,0,0,0,232,208V80A16.018,16.018,0,0,0,216.0006,64ZM95.9973,56a8.009,8.009,0,0,1,7.9997-8h47.99819a8.009,8.009,0,0,1,7.9997,8v8H95.9973ZM216.0006,80l.00586,72H40.00721V80Z"/>
</svg>
