<svg id="Raw" xmlns="http://www.w3.org/2000/svg" viewBox="0 0 256 256">
  <rect width="256" height="256" fill="none"/>
  <path d="M191.28711,46.99316l14.09765-13.14111A8.00027,8.00027,0,0,0,194.47461,22.148L179.11914,36.4624a87.81742,87.81742,0,0,0-102.37891,0L61.38476,22.148a8.00027,8.00027,0,0,0-10.91015,11.7041L64.57226,46.99268A87.69686,87.69686,0,0,0,39.92969,108v40a88,88,0,0,0,176,0V108A87.69484,87.69484,0,0,0,191.28711,46.99316ZM127.92969,36a72.08124,72.08124,0,0,1,72,72v12h-144V108A72.08124,72.08124,0,0,1,127.92969,36Zm16,56a12,12,0,1,1,12,12A12,12,0,0,1,143.92969,92Zm-56,0a12,12,0,1,1,12,12A12,12,0,0,1,87.92969,92Z"/>
</svg>
