<svg id="Raw" xmlns="http://www.w3.org/2000/svg" viewBox="0 0 256 256">
  <rect width="256" height="256" fill="none"/>
  <path d="M39.208,136.43311a15.805,15.805,0,0,1,2.81738-17.24341l76.12695-83.44824v-.00025a15.99974,15.99974,0,0,1,23.64063,0l76.12695,83.44824a15.99994,15.99994,0,0,1-11.82129,26.78321H53.84668A15.80678,15.80678,0,0,1,39.208,136.43311Zm170.76465,25.53955h-160a16.01833,16.01833,0,0,0-16,16v24a16.01833,16.01833,0,0,0,16,16h160a16.01834,16.01834,0,0,0,16-16v-24A16.01833,16.01833,0,0,0,209.97266,161.97266Z"/>
</svg>
