<svg id="Raw" xmlns="http://www.w3.org/2000/svg" viewBox="0 0 256 256">
  <rect width="256" height="256" fill="none"/>
  <path d="M35.61523,134.41724a15.79789,15.79789,0,0,1,2.90039-17.26978l77.72657-84.20532h.001a15.99956,15.99956,0,0,1,23.51368,0l77.72851,84.20532A16.0003,16.0003,0,0,1,205.72852,144H50.27148A15.79772,15.79772,0,0,1,35.61523,134.41724ZM208,160H48a16.01833,16.01833,0,0,0-16,16v24a16.01833,16.01833,0,0,0,16,16H208a16.01833,16.01833,0,0,0,16-16V176A16.01833,16.01833,0,0,0,208,160Z"/>
</svg>
