<svg id="Raw" xmlns="http://www.w3.org/2000/svg" viewBox="0 0 256 256">
  <rect width="256" height="256" fill="none"/>
  <path d="M202.05273,54.97754A103.25474,103.25474,0,0,0,128,24h-8a8.00008,8.00008,0,0,0-8,8V59.52979L11.80762,121.18652a8.00037,8.00037,0,0,0-2.2959,11.49317L23.29883,151.7959a31.83519,31.83519,0,0,0,31.33789,12.82324c13.65137-2.31055,38.5918-4.23193,61.52441,6.19092L90.02246,207.40479a87.94423,87.94423,0,0,1-20.68652-13.81055,8.00031,8.00031,0,0,0-10.67188,11.92187A103.66141,103.66141,0,0,0,128.0127,232q1.043,0,2.08789-.02051A104.0011,104.0011,0,0,0,202.05273,54.97754ZM123.99976,112a12,12,0,1,1,12-12A12,12,0,0,1,123.99976,112Z"/>
</svg>
