<svg xmlns="http://www.w3.org/2000/svg" width="16" height="16" viewBox="0 0 16 16">
  <g fill="none" fill-rule="evenodd">
    <polygon points="0 16 16 16 16 0 0 0"/>
    <path fill="#000" d="M8,1.625 C11.5201068,1.625 14.375,4.47989322 14.375,8 C14.375,11.5201068 11.5201068,14.375 8,14.375 C7.18440147,14.375 6.39263866,14.2211131 5.65807299,13.9308994 C5.65205733,13.9285781 5.64641222,13.9261334 5.64081,13.9235399 C4.95049327,13.648999 4.31088621,13.2532429 3.7499827,12.751493 C3.59562297,12.6134123 3.58242624,12.3763424 3.72050698,12.2219827 C3.85858772,12.067623 4.09565757,12.0544262 4.2500173,12.192507 C4.67662473,12.5741238 5.15449889,12.8861645 5.66819089,13.1204638 L7.44803159,10.6259885 C7.20965111,10.5086271 6.96129736,10.4099492 6.7037599,10.3291087 C5.56386653,9.97129832 4.3344207,9.97735422 3.17894949,10.2046813 L2.9115067,10.2617808 C2.75235976,10.2986739 2.63257601,10.3322209 2.55855542,10.3564265 C2.42927232,10.3987035 2.28957446,10.3672461 2.19135676,10.278966 L2.13781893,10.2193146 L0.695818925,8.21931455 C0.584320315,8.06467016 0.608288206,7.85565023 0.740334835,7.72931157 L0.803463465,7.68062813 L7.125,3.79 L7.125,2 C7.125,1.81878157 7.25354325,1.66758602 7.42442442,1.63261867 L7.5,1.625 L8,1.625 Z M8,2.375 L7.875,2.375 L7.875,4 C7.875,4.10417821 7.83176278,4.20238965 7.75768437,4.2724508 L7.69653653,4.31937187 L1.54,8.107 L2.593,9.567 L2.60914842,9.56331126 C2.68846706,9.54331895 2.77825368,9.52227028 2.87774647,9.50092751 L3.03417004,9.46878806 C4.30204153,9.21934735 5.65142342,9.21270067 6.92837741,9.61353413 C7.33667666,9.74169849 7.72642156,9.90987778 8.09459039,10.1207774 L8,10.125 C9.44989322,10.125 10.625,8.94989322 10.625,7.5 C10.625,7.29289322 10.7928932,7.125 11,7.125 C11.2071068,7.125 11.375,7.29289322 11.375,7.5 C11.375,9.29821436 9.96903301,10.7677446 8.19630213,10.8693876 L6.39493771,13.3926485 C6.90861342,13.5452486 7.44798758,13.625 8,13.625 C11.1058932,13.625 13.625,11.1058932 13.625,8 C13.625,4.96805662 11.2244226,2.49529011 8.2208255,2.37925811 L8,2.375 Z M7.7505,5.688 C8.0605,5.688 8.3125,5.939 8.3125,6.25 C8.3125,6.561 8.0605,6.812 7.7505,6.812 C7.4395,6.812 7.1875,6.561 7.1875,6.25 C7.1875,5.939 7.4395,5.688 7.7505,5.688 Z"/>
  </g>
</svg>
