<svg xmlns="http://www.w3.org/2000/svg" width="16" height="16" viewBox="0 0 16 16">
  <g fill="none" fill-rule="evenodd">
    <polygon points="0 16 16 16 16 0 0 0"/>
    <path fill="#000" d="M8,10.5 C5.5,9 2.442,10 2.442,10 L1,8 L7.5,4 L7.5,2 L8,2 C11.313,2 14,4.687 14,8 C14,11.313 11.313,14 8,14 C7.223,14 6.479,13.852 5.798,13.583 L8,10.5 Z" opacity=".2"/>
    <path fill="#000" d="M8,1.5 C11.5891424,1.5 14.5,4.41085763 14.5,8 C14.5,11.5891424 11.5891424,14.5 8,14.5 C7.16252321,14.5 6.34961894,14.3408262 5.59611529,14.0408 C5.59137772,14.0384425 5.58673882,14.0363032 5.58212272,14.0340874 C4.88284138,13.7548709 4.2350687,13.3531356 3.6666436,12.8446574 C3.46083062,12.6605497 3.44323498,12.3444566 3.62734264,12.1386436 C3.81145029,11.9328306 4.12754342,11.915235 4.3333564,12.0993426 C4.72458515,12.4493119 5.15985501,12.7394221 5.6267446,12.963103 L7.26067563,10.6755089 C7.06883187,10.5880542 6.87058356,10.5124879 6.66632365,10.4483711 C5.54927371,10.0977313 4.33981723,10.1036887 3.2030794,10.3273302 C2.91299092,10.3844021 2.70384297,10.4404296 2.59740723,10.4752353 C2.42010469,10.5332152 2.22811096,10.4871844 2.0967212,10.3616805 L2.03642523,10.2924194 L0.594425234,8.29241941 C0.443400661,8.08295398 0.478777631,7.79866796 0.66227247,7.63114465 L0.737951287,7.57417084 L7,3.72 L7,2 C7,1.75454011 7.17687516,1.55039163 7.41012437,1.50805567 L7.5,1.5 L8,1.5 Z M8,2.5 L8,4 C8,4.14469196 7.93744615,4.28075144 7.83101978,4.37474697 L7.76204871,4.42582916 L1.72,8.143 L2.644,9.426 L2.85101296,9.37881919 L3.01004013,9.34613918 C4.296645,9.09301287 5.66601623,9.08626773 6.96581366,9.4942717 C7.37095389,9.62144446 7.75842567,9.78731978 8.1253137,9.99445062 L8,10 C9.38085763,10 10.5,8.88085763 10.5,7.5 C10.5,7.22385763 10.7238576,7 11,7 C11.2761424,7 11.5,7.22385763 11.5,7.5 C11.5,9.34415646 10.0740727,10.8549735 8.26451227,10.990157 L6.59999743,13.3202065 C7.05092934,13.4384961 7.5205701,13.5 8,13.5 C11.0368576,13.5 13.5,11.0368576 13.5,8 C13.5,5.03721207 11.1555456,2.62049458 8.2211578,2.50436844 L8,2.5 Z M7.75,5.5 C8.164,5.5 8.5,5.836 8.5,6.25 C8.5,6.664 8.164,7 7.75,7 C7.336,7 7,6.664 7,6.25 C7,5.836 7.336,5.5 7.75,5.5 Z"/>
  </g>
</svg>
