<svg xmlns="http://www.w3.org/2000/svg" width="16" height="16" viewBox="0 0 16 16">
  <g fill="none" fill-rule="evenodd">
    <polygon points="0 16 16 16 16 0 0 0"/>
    <path fill="#000" d="M8,1.75 C11.4510712,1.75 14.25,4.54892881 14.25,8 C14.25,11.4510712 11.4510712,14.25 8,14.25 C7.20403943,14.25 6.43130865,14.1005427 5.71398747,13.8185765 C5.71190139,13.8177834 5.70987584,13.8170293 5.70785705,13.8162475 C5.02309761,13.5461705 4.38887144,13.1552893 3.8333218,12.6583287 C3.73041531,12.5662749 3.72161749,12.4082283 3.81367132,12.3053218 C3.90572515,12.2024153 4.06377171,12.1936175 4.1666782,12.2856713 C4.62852834,12.6988141 5.14922942,13.0322014 5.70996182,13.2758943 L7.63396763,10.581 L7.60171502,10.5636497 C7.32762194,10.4212653 7.04037012,10.3037564 6.74119615,10.2098463 C5.57845934,9.84486538 4.32902418,9.85101974 3.15481958,10.0820325 C2.85417768,10.1411807 2.63532965,10.1998067 2.51970361,10.2376177 C2.43696243,10.2646749 2.34782241,10.2464298 2.28289245,10.1928572 L2.23921262,10.1462097 L0.797212617,8.1462097 C0.724397198,8.04521744 0.738244231,7.90943934 0.821590415,7.82476582 L0.868975644,7.78708542 L7.25,3.86 L7.25,2 C7.25,1.88165327 7.33223341,1.78251318 7.44267729,1.75660268 L7.5,1.75 L8,1.75 Z M8,2.25 L7.75,2.25 L7.75,4 C7.75,4.06511138 7.72466569,4.12672661 7.68080642,4.17265991 L7.63102436,4.21291458 L1.359,8.071 L2.541,9.71 L2.7651529,9.65415165 L3.05829995,9.59143694 C4.30743806,9.34568183 5.6368306,9.33913362 6.89094116,9.73279656 C7.30223108,9.86189969 7.69403911,10.0323486 8.0632414,10.2470076 L8,10.25 C9.51892881,10.25 10.75,9.01892881 10.75,7.5 C10.75,7.36192881 10.8619288,7.25 11,7.25 C11.1380712,7.25 11.25,7.36192881 11.25,7.5 C11.25,9.25100179 9.86563194,10.6783573 8.13157668,10.7473858 L6.19424868,13.4606943 C6.76839043,13.6503816 7.37633488,13.75 8,13.75 C11.1749288,13.75 13.75,11.1749288 13.75,8 C13.75,4.89890674 11.2933069,2.37009518 8.22050855,2.25415321 L8,2.25 Z M7.75,5.875 C7.957,5.875 8.125,6.043 8.125,6.25 C8.125,6.457 7.957,6.625 7.75,6.625 C7.543,6.625 7.375,6.457 7.375,6.25 C7.375,6.043 7.543,5.875 7.75,5.875 Z"/>
  </g>
</svg>
