<svg xmlns="http://www.w3.org/2000/svg" width="16" height="16" viewBox="0 0 16 16">
  <g fill="none" fill-rule="evenodd">
    <polygon points="0 16 16 16 16 0 0 0"/>
    <path fill="#000" d="M7.75,7 C7.336,7 7,6.664 7,6.25 C7,5.836 7.336,5.5 7.75,5.5 C8.164,5.5 8.5,5.836 8.5,6.25 C8.5,6.664 8.164,7 7.75,7 M8,1.5 L7.5,1.5 C7.224,1.5 7,1.724 7,2 L7,3.721 L0.738,7.574 C0.619,7.647 0.537,7.766 0.51,7.902 C0.482,8.038 0.513,8.18 0.595,8.292 L2.037,10.292 C2.164,10.469 2.392,10.541 2.597,10.476 C2.624,10.466 5.09,9.693 7.259,10.677 L5.64,12.944 C5.173,12.721 4.726,12.451 4.333,12.1 C4.131,11.916 3.813,11.933 3.628,12.139 C3.443,12.344 3.461,12.661 3.667,12.845 C4.213,13.334 4.839,13.708 5.503,13.986 C5.505,13.987 5.506,13.989 5.507,13.99 C5.511,13.992 5.516,13.991 5.519,13.994 C6.3,14.317 7.139,14.5 8,14.5 C11.584,14.5 14.5,11.584 14.5,8 C14.5,4.416 11.584,1.5 8,1.5"/>
  </g>
</svg>
