<svg xmlns="http://www.w3.org/2000/svg" width="16" height="16" viewBox="0 0 16 16">
  <g fill="none" fill-rule="evenodd">
    <polygon points="0 16 16 16 16 0 0 0"/>
    <path fill="#000" d="M8,1.25 C11.7272136,1.25 14.75,4.27278644 14.75,8 C14.75,11.7272136 11.7272136,14.75 8,14.75 C7.15404485,14.75 6.33209285,14.5935271 5.5675846,14.2981537 C5.55131502,14.2917139 5.53407918,14.2854711 5.5170133,14.2785606 C4.78003625,13.9867319 4.09768344,13.5656679 3.4999654,13.030986 C3.19124593,12.7548246 3.16485247,12.2806849 3.44101395,11.9719654 C3.71717544,11.6632459 4.19131513,11.6368525 4.5000346,11.913014 C4.82080777,12.1999579 5.17251475,12.4447234 5.54769537,12.6433575 L6.87437938,10.7849894 C6.78153199,10.7496358 6.68720933,10.7169543 6.59145114,10.686896 C5.52008808,10.3505971 4.35061029,10.3563577 3.25133922,10.572628 C2.97180417,10.6276236 2.7723563,10.6810526 2.67511084,10.712853 C2.3993069,10.8030439 2.09980357,10.7254481 1.90256334,10.5211147 L1.83363785,10.4386291 L0.391637851,8.43862911 C0.158021715,8.11461228 0.221756086,7.67124053 0.519861823,7.42368089 L0.606926931,7.36125626 L6.75,3.58 L6.75,2 C6.75,1.62030423 7.03215388,1.30650904 7.39822944,1.25684662 L7.5,1.25 L8,1.25 Z M8.25,2.756 L8.25,4 C8.25,4.22323903 8.15073086,4.43277884 7.98268577,4.5740499 L7.89307307,4.63874374 L2.08,8.215 L2.75,9.145 L2.96178031,9.10084142 C4.28585195,8.84034391 5.69520186,8.83340185 7.04068617,9.25574684 C7.4385488,9.38063517 7.82043668,9.54157381 8.18366528,9.74082211 C9.28954453,9.65353802 10.1697554,8.76433843 10.2448099,7.65406554 L10.25,7.5 C10.25,7.08578644 10.5857864,6.75 11,6.75 C11.4142136,6.75 11.75,7.08578644 11.75,7.5 C11.75,9.43552049 10.2839755,11.0283483 8.40166455,11.2287454 L7.0221195,13.1590858 C7.34096806,13.2191252 7.66800406,13.25 8,13.25 C10.8987864,13.25 13.25,10.8987864 13.25,8 C13.25,5.24615288 11.1280298,2.98649029 8.43048571,2.76740865 L8.25,2.756 Z M7.75,5.5 C8.164,5.5 8.5,5.836 8.5,6.25 C8.5,6.664 8.164,7 7.75,7 C7.336,7 7,6.664 7,6.25 C7,5.836 7.336,5.5 7.75,5.5 Z"/>
  </g>
</svg>
