<svg id="Layer_1" data-name="Layer 1" xmlns="http://www.w3.org/2000/svg" viewBox="0 0 256 256">
  <rect width="256" height="256" fill="none"/>
  <path d="M224,48a8.00039,8.00039,0,0,0-8,8,88.09957,88.09957,0,0,1-88,88H51.31372l34.34351-34.34277A8.00053,8.00053,0,0,0,74.34277,98.34277l-48,48c-.05639.05664-.10424.11768-.15869.17578-.12524.13282-.25122.26514-.36719.40625-.09106.11084-.17114.22706-.25537.3418-.07055.09522-.14477.188-.21093.28662-.085.12647-.15894.25782-.23584.38819-.05567.09423-.11524.186-.16724.2832-.06909.12891-.12817.26172-.1897.39355-.04931.10547-.102.209-.147.31641-.05225.12695-.095.25586-.14063.38477-.042.11816-.08764.23437-.12426.355-.03907.1289-.06787.25976-.10034.39013-.03052.12305-.06519.24414-.09009.36914-.03.15186-.04859.30469-.06983.45752-.01465.106-.03515.20948-.04565.3169a8.02276,8.02276,0,0,0,0,1.584c.0105.10742.031.21094.04565.3169.02124.15283.0398.30566.06983.45752.0249.125.05957.24609.09009.36914.03247.13037.06127.26123.10034.39013.03662.12061.08227.23682.12426.355.04566.12891.08838.25782.14063.38477.04492.10742.09766.21094.147.31641.06153.13183.12061.26464.1897.39355.052.09717.11157.189.16724.2832.0769.13037.15087.26172.23584.38819.06616.09863.14038.1914.21093.28662.08423.11474.16431.231.25537.3418.116.14111.24195.27343.36719.40625.05445.0581.1023.11914.15869.17578l48,48a8.00053,8.00053,0,0,0,11.31446-11.31446L51.31372,160H128A104.11791,104.11791,0,0,0,232,56,8.00039,8.00039,0,0,0,224,48Z"/>
</svg>
