<svg id="Layer_1" data-name="Layer 1" xmlns="http://www.w3.org/2000/svg" viewBox="0 0 256 256">
  <path d="M128,32a96,96,0,1,0,96,96A96.10874,96.10874,0,0,0,128,32Zm56,104H128a8.00008,8.00008,0,0,1-8-8V72a8,8,0,0,1,16,0v48h48a8,8,0,0,1,0,16Z"/>
  <path d="M229.65674,58.34326l-32-32a7.99984,7.99984,0,0,0-11.31348,11.31348l32,32a7.99984,7.99984,0,1,0,11.31348-11.31348Z"/>
  <path d="M37.65674,69.65674l32-32A7.99984,7.99984,0,0,0,58.34326,26.34326l-32,32A7.99984,7.99984,0,1,0,37.65674,69.65674Z"/>
</svg>
