<svg id="Layer_1" data-name="Layer 1" xmlns="http://www.w3.org/2000/svg" viewBox="0 0 256 256">
  <line x1="42" y1="120" x2="214" y2="120" fill="none" stroke="#000" stroke-linecap="round" stroke-linejoin="round" stroke-width="24"/>
  <path d="M66,32H190a24,24,0,0,1,24,24V192a0,0,0,0,1,0,0H42a0,0,0,0,1,0,0V56A24,24,0,0,1,66,32Z" fill="none" stroke="#000" stroke-linecap="round" stroke-linejoin="round" stroke-width="24"/>
  <circle cx="82" cy="156" r="16"/>
  <circle cx="174" cy="156" r="16"/>
  <path d="M214,192v24a8,8,0,0,1-8,8H182a8,8,0,0,1-8-8V192" fill="none" stroke="#000" stroke-linecap="round" stroke-linejoin="round" stroke-width="24"/>
  <path d="M82,192v24a8,8,0,0,1-8,8H50a8,8,0,0,1-8-8V192" fill="none" stroke="#000" stroke-linecap="round" stroke-linejoin="round" stroke-width="24"/>
  <line x1="80" y1="64" x2="176" y2="64" fill="none" stroke="#000" stroke-linecap="round" stroke-linejoin="round" stroke-width="24"/>
</svg>
