<svg id="Raw" xmlns="http://www.w3.org/2000/svg" viewBox="0 0 256 256">
  <rect width="256" height="256" fill="none"/>
  <path d="M56,64a8.00008,8.00008,0,0,1,8-8H192a8,8,0,0,1,0,16H64A8.00008,8.00008,0,0,1,56,64ZM216,168a8.00039,8.00039,0,0,0-8,8v16H176a16.01833,16.01833,0,0,1-16-16V128h48a8,8,0,0,0,0-16H48a8,8,0,0,0,0,16H96v8a56.0629,56.0629,0,0,1-56,56,8,8,0,0,0,0,16,72.08124,72.08124,0,0,0,72-72v-8h32v48a32.03667,32.03667,0,0,0,32,32h40a8.00039,8.00039,0,0,0,8-8V176A8.00039,8.00039,0,0,0,216,168Z"/>
</svg>
