<svg id="Raw" xmlns="http://www.w3.org/2000/svg" viewBox="0 0 256 256">
  <rect width="256" height="256" fill="none"/>
  <path d="M136,32V64a8,8,0,0,1-16,0V32a8,8,0,0,1,16,0Zm88,88H192a8,8,0,0,0,0,16h32a8,8,0,0,0,0-16Zm-45.08789,47.59766a8.00052,8.00052,0,0,0-11.31445,11.31445l22.627,22.62695a8.00052,8.00052,0,1,0,11.31445-11.31445ZM128,184a8.00039,8.00039,0,0,0-8,8v32a8,8,0,0,0,16,0V192A8.00039,8.00039,0,0,0,128,184ZM77.08789,167.59766l-22.62695,22.627a8.00052,8.00052,0,0,0,11.31445,11.31445l22.62695-22.62695a8.00052,8.00052,0,0,0-11.31445-11.31445ZM72,128a8.00039,8.00039,0,0,0-8-8H32a8,8,0,0,0,0,16H64A8.00039,8.00039,0,0,0,72,128ZM65.77539,54.46094A8.00052,8.00052,0,0,0,54.46094,65.77539l22.627,22.62695A8.00052,8.00052,0,0,0,88.40234,77.08789Z"/>
</svg>
