<svg id="Layer_1" data-name="Layer 1" xmlns="http://www.w3.org/2000/svg" viewBox="0 0 256 256">
  <rect width="256" height="256" fill="none"/>
  <path d="M123.41583,105.4451a7.997,7.997,0,0,1,9.17157.00021l80.00488,56.00293c6.92383-15.12695,11.40918-33.17578,11.40918-54.78418V48a16,16,0,0,0-16-16h-160a16,16,0,0,0-16,16v58.66406c0,21.60645,4.48536,39.65332,11.40821,54.7793Z"/>
  <path d="M128.00146,121.76562l-76.915,53.834c23.51562,37.00684,61.63476,51.8125,71.94628,55.22851a15.45824,15.45824,0,0,0,9.9375,0c10.30665-3.416,48.42774-18.21874,71.94532-55.2246Z"/>
</svg>
