<svg id="Layer_1" data-name="Layer 1" xmlns="http://www.w3.org/2000/svg" viewBox="0 0 256 256">
  <path d="M241.88037,110.64453A16.03934,16.03934,0,0,0,228.90039,104H146.42188a15.9479,15.9479,0,0,0-8.875,2.6875L117.57812,120H69.416a15.92344,15.92344,0,0,0-14.85547,10.05762L24.57227,205.02881A8.00009,8.00009,0,0,0,32,216H208a8.00117,8.00117,0,0,0,7.58984-5.47021l28.48926-85.47022A16.03873,16.03873,0,0,0,241.88037,110.64453Z"/>
  <path d="M39.70508,124.11572A31.84637,31.84637,0,0,1,69.416,104h43.31787l15.9375-10.625A31.899,31.899,0,0,1,146.42188,88H216a16.01833,16.01833,0,0,0-16-16H130.667l-27.7334-20.7998A16.10323,16.10323,0,0,0,93.333,48H40A16.01833,16.01833,0,0,0,24,64v99.37842Z"/>
</svg>
