<svg id="Layer_1" data-name="Layer 1" xmlns="http://www.w3.org/2000/svg" viewBox="0 0 256 256">
  <path d="M32,208V64a8,8,0,0,1,8-8H93.33333a8,8,0,0,1,4.8,1.6l27.73334,20.8a8,8,0,0,0,4.8,1.6H200a8,8,0,0,1,8,8v24" fill="none" stroke="#000" stroke-linecap="round" stroke-linejoin="round" stroke-width="16"/>
  <path d="M32,208l29.98845-74.97113A8,8,0,0,1,69.41626,128h48.16153a8,8,0,0,0,4.43761-1.3436l19.9692-13.3128A8,8,0,0,1,146.42221,112h82.47838a8,8,0,0,1,7.58947,10.52982L208,208Z" fill="none" stroke="#000" stroke-linecap="round" stroke-linejoin="round" stroke-width="16"/>
</svg>
