<svg id="Raw" xmlns="http://www.w3.org/2000/svg" viewBox="0 0 256 256">
  <rect width="256" height="256" fill="none"/>
  <circle cx="128" cy="128" r="96" fill="none" stroke="#000" stroke-linecap="round" stroke-linejoin="round" stroke-width="12"/>
  <path d="M169.172,113.03177a96.58913,96.58913,0,0,1,3.80409-15.5448" fill="none" stroke="#000" stroke-linecap="round" stroke-linejoin="round" stroke-width="12"/>
  <path d="M172.975,158.5097a96.58848,96.58848,0,0,1-3.80352-15.54493" fill="none" stroke="#000" stroke-linecap="round" stroke-linejoin="round" stroke-width="12"/>
  <path d="M86.828,113.03177A96.58913,96.58913,0,0,0,83.02388,97.487" fill="none" stroke="#000" stroke-linecap="round" stroke-linejoin="round" stroke-width="12"/>
  <path d="M83.025,158.5097a96.58848,96.58848,0,0,0,3.80352-15.54493" fill="none" stroke="#000" stroke-linecap="round" stroke-linejoin="round" stroke-width="12"/>
  <path d="M186.79812,70.93634a96.59069,96.59069,0,0,1,9.20058-10.701" fill="none" stroke="#000" stroke-linecap="round" stroke-linejoin="round" stroke-width="12"/>
  <path d="M195.999,195.765a96.59178,96.59178,0,0,1-9.20291-10.70411" fill="none" stroke="#000" stroke-linecap="round" stroke-linejoin="round" stroke-width="12"/>
  <path d="M60.0012,195.76479A96.5897,96.5897,0,0,0,69.204,185.06084" fill="none" stroke="#000" stroke-linecap="round" stroke-linejoin="round" stroke-width="12"/>
  <path d="M69.20188,70.93634A96.59162,96.59162,0,0,0,60.001,60.235" fill="none" stroke="#000" stroke-linecap="round" stroke-linejoin="round" stroke-width="12"/>
</svg>
