<svg xmlns="http://www.w3.org/2000/svg" width="16" height="16" viewBox="0 0 16 16">
  <g fill="none" fill-rule="evenodd">
    <polygon points="0 16 16 16 16 0 0 0"/>
    <path fill="#000" fill-rule="nonzero" d="M8,1.625 C11.5201068,1.625 14.375,4.47989322 14.375,8 C14.375,11.5201068 11.5201068,14.375 8,14.375 C4.47989322,14.375 1.625,11.5201068 1.625,8 C1.625,4.47989322 4.47989322,1.625 8,1.625 Z M8,2.375 C4.89410678,2.375 2.375,4.89410678 2.375,8 C2.375,11.1058932 4.89410678,13.625 8,13.625 C11.1058932,13.625 13.625,11.1058932 13.625,8 C13.625,4.89410678 11.1058932,2.375 8,2.375 Z M11.0212701,6.24108391 C11.1463911,6.37217495 11.1577965,6.5702996 11.0583262,6.71357822 L11.0089161,6.77127008 L7.34191609,10.2712701 C7.21769891,10.3898303 7.03240821,10.406756 6.89075332,10.3220545 L6.82404696,10.2712348 L4.99104696,8.52123481 C4.84124811,8.378219 4.83574937,8.14084581 4.97876519,7.99104696 C5.10390403,7.85997297 5.30128523,7.83937875 5.44902876,7.93208765 L5.50895304,7.97876519 L7.083,9.481 L10.4910839,6.22872992 C10.6409022,6.08573451 10.8782747,6.09126558 11.0212701,6.24108391 Z"/>
  </g>
</svg>
