<svg xmlns="http://www.w3.org/2000/svg" width="16" height="16" viewBox="0 0 16 16">
  <g fill="none" fill-rule="evenodd">
    <polygon points="0 16 16 16 16 0 0 0"/>
    <path fill="#000" fill-rule="nonzero" d="M8,1.75 C11.4510712,1.75 14.25,4.54892881 14.25,8 C14.25,11.4510712 11.4510712,14.25 8,14.25 C4.54892881,14.25 1.75,11.4510712 1.75,8 C1.75,4.54892881 4.54892881,1.75 8,1.75 Z M8,2.25 C4.82507119,2.25 2.25,4.82507119 2.25,8 C2.25,11.1749288 4.82507119,13.75 8,13.75 C11.1749288,13.75 13.75,11.1749288 13.75,8 C13.75,4.82507119 11.1749288,2.25 8,2.25 Z M10.9308467,6.32738927 C11.0102886,6.41062168 11.0209683,6.53438839 10.9645211,6.62849994 L10.9226107,6.68084672 L7.25561073,10.1808467 C7.17509959,10.2576913 7.05610334,10.2704915 6.96277111,10.2192518 L6.91036464,10.1808232 L5.07736464,8.43082321 C4.97749874,8.33547933 4.97383292,8.17723054 5.06917679,8.07736464 C5.14863002,7.99414306 5.27176722,7.97772708 5.36839869,8.02974265 L5.42263536,8.06917679 L7.083,9.654 L10.5773893,6.31915328 C10.6772682,6.22382301 10.8355165,6.22751039 10.9308467,6.32738927 Z"/>
  </g>
</svg>
