<svg xmlns="http://www.w3.org/2000/svg" width="16" height="16" viewBox="0 0 16 16">
  <g fill="none" fill-rule="evenodd">
    <polygon points="0 16 16 16 16 0 0 0"/>
    <path fill="#000" fill-rule="nonzero" d="M8,1.25 C11.7272136,1.25 14.75,4.27278644 14.75,8 C14.75,11.7272136 11.7272136,14.75 8,14.75 C4.27278644,14.75 1.25,11.7272136 1.25,8 C1.25,4.27278644 4.27278644,1.25 8,1.25 Z M8,2.75 C5.10121356,2.75 2.75,5.10121356 2.75,8 C2.75,10.8987864 5.10121356,13.25 8,13.25 C10.8987864,13.25 13.25,10.8987864 13.25,8 C13.25,5.10121356 10.8987864,2.75 8,2.75 Z M11.2925402,5.98216782 C11.5525318,6.25456479 11.5670252,6.67167928 11.3423902,6.9601362 L11.2678322,7.04254017 L7.60083218,10.5425402 C7.33997609,10.7915165 6.94445292,10.816389 6.65669089,10.6171741 L6.56509392,10.5424696 L4.73209392,8.79246962 C4.43249622,8.506438 4.42149875,8.03169162 4.70753038,7.73209392 C4.96755913,7.45973237 5.38355048,7.42588341 5.68212846,7.63687977 L5.76790608,7.70753038 L7.083,8.963 L10.2321678,5.95745983 C10.5318045,5.67146902 11.0065494,5.68253116 11.2925402,5.98216782 Z"/>
  </g>
</svg>
