<svg xmlns="http://www.w3.org/2000/svg" width="16" height="16" viewBox="0 0 16 16">
  <g fill="none" fill-rule="evenodd">
    <polygon points="0 16 16 16 16 0 0 0"/>
    <path fill="#000" d="M11.0957,6.8618 L7.4287,10.3618 C7.3317,10.4538 7.2067,10.4998 7.0827,10.4998 C6.9587,10.4998 6.8337,10.4538 6.7377,10.3618 L4.9047,8.6118 C4.7047,8.4208 4.6977,8.1048 4.8887,7.9048 C5.0787,7.7048 5.3947,7.6978 5.5957,7.8878 L7.0827,9.3088 L10.4047,6.1378 C10.6057,5.9478 10.9207,5.9548 11.1117,6.1548 C11.3027,6.3548 11.2947,6.6708 11.0957,6.8618 M7.9997,1.4998 C4.4157,1.4998 1.4997,4.4158 1.4997,7.9998 C1.4997,11.5838 4.4157,14.4998 7.9997,14.4998 C11.5837,14.4998 14.4997,11.5838 14.4997,7.9998 C14.4997,4.4158 11.5837,1.4998 7.9997,1.4998"/>
  </g>
</svg>
