<svg id="Raw" xmlns="http://www.w3.org/2000/svg" viewBox="0 0 256 256">
  <rect width="256" height="256" fill="none"/>
  <path d="M152,56V176a8,8,0,0,1-16,0V124H48v52a8,8,0,0,1-16,0V56a8,8,0,0,1,16,0v52h88V56a8,8,0,0,1,16,0ZM252,168a36,36,0,1,1-67.41943-17.54346c.09448-.19189.19067-.3833.30224-.56982l32.249-53.98926a8.00015,8.00015,0,1,1,13.73632,8.20508l-16.6914,27.94385Q215.08276,132.001,216,132A36.04061,36.04061,0,0,1,252,168Zm-16,0a20,20,0,1,0-20,20A20.02229,20.02229,0,0,0,236,168Z"/>
</svg>
