<svg id="Layer_1" data-name="Layer 1" xmlns="http://www.w3.org/2000/svg" viewBox="0 0 256 256">
  <rect width="256" height="256" fill="none"/>
  <polygon points="159.994 28.685 159.994 79.997 211.307 79.997 159.994 28.685"/>
  <path d="M151.99414,95.9971a7.9954,7.9954,0,0,1-8-8v-64h-88a16.01583,16.01583,0,0,0-16,16v176a16.01582,16.01582,0,0,0,16,16h144a16.01581,16.01581,0,0,0,16-16v-120Zm5.64063,74.34278a7.99915,7.99915,0,1,1-11.3125,11.3125l-18.34375-18.34375-18.34375,18.34375a7.99915,7.99915,0,0,1-11.3125-11.3125L116.666,151.99613,98.32227,133.65238a7.99915,7.99915,0,0,1,11.3125-11.3125l18.34375,18.34375,18.34375-18.34375a7.99915,7.99915,0,0,1,11.3125,11.3125L139.291,151.99613Z"/>
</svg>
