<svg id="Raw" xmlns="http://www.w3.org/2000/svg" viewBox="0 0 256 256">
  <rect width="256" height="256" fill="none"/>
  <circle cx="128.00586" cy="132.00342" r="16"/>
  <path d="M218.56445,123.89014,192.00586,70.13477V32.00342a16,16,0,0,0-16-16h-96a16,16,0,0,0-16,16V70.13477L37.44678,123.89062a15.944,15.944,0,0,0,1.45947,16.57276l73.87832,100.35748a4,4,0,0,0,7.22129-2.37135V162.99072a32,32,0,1,1,16,0v75.45864a4,4,0,0,0,7.2213,2.37133L217.105,140.4624A15.94312,15.94312,0,0,0,218.56445,123.89014ZM176.00586,64.00342h-96v-32h96Z"/>
</svg>
