<svg id="Raw" xmlns="http://www.w3.org/2000/svg" viewBox="0 0 256 256">
  <rect width="256" height="256" fill="none"/>
  <path d="M211.39209,127.43359,184.00586,72.00342h-112L44.61914,127.43408a8.0009,8.0009,0,0,0,.73,8.28662l82.65674,112.28272,82.65625-112.28321A7.99983,7.99983,0,0,0,211.39209,127.43359Zm-83.38623,24.56983a20,20,0,1,1,20-20A19.99974,19.99974,0,0,1,128.00586,152.00342Z" opacity="0.2"/>
  <line x1="128.00587" y1="152.00342" x2="128.00586" y2="248.00342" fill="none" stroke="#000" stroke-linecap="round" stroke-linejoin="round" stroke-width="16"/>
  <circle cx="128.00587" cy="132.00342" r="20" fill="none" stroke="#000" stroke-linecap="round" stroke-linejoin="round" stroke-width="16"/>
  <path d="M72.00586,72.00342v-40a8,8,0,0,1,8-8h96a8,8,0,0,1,8,8v40" fill="none" stroke="#000" stroke-linecap="round" stroke-linejoin="round" stroke-width="16"/>
  <path d="M72.00586,72.00342l-27.3866,55.43077a8,8,0,0,0,.72977,8.28632l82.65684,112.28291,82.65647-112.28335a8,8,0,0,0,.72976-8.28628L184.00586,72.00342Z" fill="none" stroke="#000" stroke-linecap="round" stroke-linejoin="round" stroke-width="16"/>
</svg>
