<svg id="Raw" xmlns="http://www.w3.org/2000/svg" viewBox="0 0 256 256">
  <rect width="256" height="256" fill="none"/>
  <path d="M168,76a12,12,0,1,1-12-12A12,12,0,0,1,168,76Zm30.166,91.978c-26.47168,26.41015-68.41309,37.40625-125.05957,32.89013q2.40673,17.75244,6.709,37.42237a8.0002,8.0002,0,1,1-15.63086,3.41894q-4.894-22.377-7.40723-42.52148-20.12549-2.51661-42.48828-7.40967a8,8,0,1,1,3.42188-15.62988q19.64795,4.30077,37.38965,6.70947c-4.501-56.63525,6.502-98.55469,32.91113-125.02148C129.00684,16.752,193.83984,26.90332,212.73242,30.99414a16.05936,16.05936,0,0,1,12.27246,12.273C229.0957,62.16064,239.24805,126.99023,198.166,167.978Zm11.20117-121.3252c-15.00171-3.26269-62.22412-10.852-97.31543,12.15283a87.969,87.969,0,0,0,85.14136,85.13916C220.20068,108.85791,212.61182,61.63721,209.36719,46.65283Z"/>
</svg>
