<svg id="Layer_1" data-name="Layer 1" xmlns="http://www.w3.org/2000/svg" viewBox="0 0 256 256">
  <path d="M208,32H48A16.01833,16.01833,0,0,0,32,48V208a16.01833,16.01833,0,0,0,16,16H208a16.01833,16.01833,0,0,0,16-16V48A16.01833,16.01833,0,0,0,208,32ZM161.65674,161.65723a8.00063,8.00063,0,0,1-11.31348,0L108,119.314V148a8,8,0,0,1-16,0V100.00244c0-.26465.01392-.5293.03992-.793.01111-.11377.03271-.22412.04858-.33642.02063-.146.038-.29248.06677-.4375.02588-.13086.06214-.2583.09449-.38721.03112-.124.05835-.24854.09545-.37158.0387-.12744.08655-.25.13123-.375.04358-.12158.08362-.24414.13318-.36377.04809-.11572.10474-.22705.158-.34033.0581-.12354.11316-.24805.178-.36914.05774-.10791.12353-.21.186-.31495.071-.11914.13867-.24023.21655-.35644.07593-.11328.16065-.22022.242-.3291.0747-.1001.14429-.20264.22436-.3003.1521-.18505.31372-.36181.48169-.53271.0166-.01709.0304-.03564.04712-.05225.01929-.01953.04077-.03515.0603-.05468.16846-.165.34253-.32422.525-.47413.09424-.07763.19372-.145.29053-.21728.1123-.084.22229-.1709.339-.249.11242-.0752.229-.14063.34423-.20948.10913-.06494.21582-.1333.32813-.19384.115-.06153.23328-.11329.35058-.16895.11963-.05664.23755-.11621.36036-.167.11071-.0459.22387-.08252.33618-.12305.13415-.04883.267-.09961.40429-.1416.1084-.03223.21851-.05615.32789-.084.14331-.03663.28515-.07666.43151-.10547.12085-.02393.2428-.03711.36451-.05567.13659-.02051.27136-.04541.41-.05908.2019-.01953.40442-.02588.60693-.03076C99.88232,92.00781,99.94019,92,100,92h48a8,8,0,0,1,0,16H119.314l42.34278,42.34277A8.00034,8.00034,0,0,1,161.65674,161.65723Z"/>
</svg>
