<svg id="Raw" xmlns="http://www.w3.org/2000/svg" viewBox="0 0 256 256">
  <rect width="256" height="256" fill="none"/>
  <path d="M248,104v49.96582a16.06941,16.06941,0,0,1-11.60352,15.38477L135.999,198.03418,136,232a8,8,0,0,1-16,0V198.03418a16.06941,16.06941,0,0,1,11.60352-15.38477L232.001,153.96582,232,104H216v24a16.01833,16.01833,0,0,1-16,16H48a16.01833,16.01833,0,0,1-16-16V104H16a8,8,0,0,1,0-16H32V64A16.01833,16.01833,0,0,1,48,48H200a16.01833,16.01833,0,0,1,16,16V88h16A16.01833,16.01833,0,0,1,248,104Z"/>
</svg>
