<svg id="Raw" xmlns="http://www.w3.org/2000/svg" viewBox="0 0 256 256">
  <rect width="256" height="256" fill="none"/>
  <path d="M189.81543,151.415a63.99579,63.99579,0,0,0-78.37988-45.25513c-1.30127.34863-2.57886.74927-3.845,1.17359L148.7793,35.98828a8.00032,8.00032,0,0,0-13.85743-7.99951L72.57715,135.97925a64.04261,64.04261,0,0,0,55.31933,96.0271,64.36221,64.36221,0,0,0,16.667-2.208,63.999,63.999,0,0,0,45.25195-78.3833Zm-20.25,40.564a48.00237,48.00237,0,1,1,4.79492-36.42285A47.67844,47.67844,0,0,1,169.56543,191.979Z"/>
</svg>
