<svg id="Layer_1" data-name="Layer 1" xmlns="http://www.w3.org/2000/svg" viewBox="0 0 256 256">
  <rect x="0.00049" width="255.99951" height="256" fill="none"/>
  <path d="M240,126.8623,135.54785,22.41016a15.95972,15.95972,0,0,0-14.45215-4.376L40.44043,34.165A8.00261,8.00261,0,0,0,34.165,40.44043L18.03418,121.0957a15.97009,15.97009,0,0,0,4.376,14.45215L126.86133,239.999a16.00006,16.00006,0,0,0,22.6289.001L239.999,149.49121A16.00007,16.00007,0,0,0,240,126.8623ZM83.99414,96a12,12,0,1,1,12-12A12,12,0,0,1,83.99414,96Z"/>
</svg>
