<svg id="Raw" xmlns="http://www.w3.org/2000/svg" viewBox="0 0 256 256">
  <rect width="256" height="256" fill="none"/>
  <g>
    <path d="M191.97656,160a8.00039,8.00039,0,0,0,8-8V104a8,8,0,0,0-16,0v48A8.00039,8.00039,0,0,0,191.97656,160Z"/>
    <path d="M223.97656,80a8.00039,8.00039,0,0,0-8,8v80a8,8,0,1,0,16,0V88A8.00039,8.00039,0,0,0,223.97656,80Z"/>
    <path d="M53.91992,34.61813A8.0006,8.0006,0,1,0,42.08008,45.3818L73.55127,80H32A16.01833,16.01833,0,0,0,16,96v64a16.01833,16.01833,0,0,0,16,16H77.25488l69.834,54.31445A7.99958,7.99958,0,0,0,160,224V175.09372l42.08008,46.28808a8.0006,8.0006,0,1,0,11.83984-10.76367Z"/>
    <path d="M146.08008,112.2109A8.0004,8.0004,0,0,0,160,106.82907V32a7.99958,7.99958,0,0,0-12.91113-6.31446L107.23926,56.67965a7.99966,7.99966,0,0,0-1.00879,11.69629Z"/>
  </g>
</svg>
