<svg id="Raw" xmlns="http://www.w3.org/2000/svg" viewBox="0 0 256 256">
  <rect width="256" height="256" fill="none"/>
  <path d="M240,88H226.93848l-6.03809-42.26465A16.07879,16.07879,0,0,0,205.06152,32H50.93848A16.08053,16.08053,0,0,0,35.09863,45.7373L29.06128,88H16a8,8,0,0,0,0,16H28V208a16.01833,16.01833,0,0,0,16,16H68a16.01833,16.01833,0,0,0,16-16V184h20V128a8,8,0,0,1,16,0v56h16V128a8,8,0,0,1,16,0v56h20v24a16.01833,16.01833,0,0,0,16,16h24a16.01833,16.01833,0,0,0,16-16V104h12a8,8,0,0,0,0-16ZM72,144a12,12,0,1,1,12-12A12,12,0,0,1,72,144Zm112,0a12,12,0,1,1,12-12A12,12,0,0,1,184,144Z"/>
</svg>
