<svg id="Layer_1" data-name="Layer 1" xmlns="http://www.w3.org/2000/svg" viewBox="0 0 256 256">
  <path d="M36,96.00005l7.01877-49.13142A8,8,0,0,1,50.93836,40H205.06164a8,8,0,0,1,7.91959,6.86863L220,96.00005Z" opacity="0.2"/>
  <path d="M220,176v32a8,8,0,0,1-8,8H188a8,8,0,0,1-8-8V176" fill="none" stroke="#000" stroke-linecap="round" stroke-linejoin="round" stroke-width="16"/>
  <path d="M76,176v32a8,8,0,0,1-8,8H44a8,8,0,0,1-8-8V176" fill="none" stroke="#000" stroke-linecap="round" stroke-linejoin="round" stroke-width="16"/>
  <line x1="16" y1="96" x2="240" y2="96" fill="none" stroke="#000" stroke-linecap="round" stroke-linejoin="round" stroke-width="16"/>
  <circle cx="72" cy="132" r="12"/>
  <circle cx="184" cy="132" r="12"/>
  <g>
    <line x1="144" y1="128" x2="144" y2="176" fill="none" stroke="#000" stroke-linecap="round" stroke-linejoin="round" stroke-width="16"/>
    <line x1="112" y1="128" x2="112" y2="176" fill="none" stroke="#000" stroke-linecap="round" stroke-linejoin="round" stroke-width="16"/>
  </g>
  <path d="M220,176H36V96.00005l7.01877-49.13142A8,8,0,0,1,50.93836,40H205.06164a8,8,0,0,1,7.91959,6.86863L220,96.00005Z" fill="none" stroke="#000" stroke-linecap="round" stroke-linejoin="round" stroke-width="16"/>
</svg>
