<svg id="Layer_1" data-name="Layer 1" xmlns="http://www.w3.org/2000/svg" viewBox="0 0 256 256">
  <path d="M240,88h-9.06152l-6.03809-42.26465A16.07879,16.07879,0,0,0,209.06152,32H46.93848A16.08053,16.08053,0,0,0,31.09863,45.7373L25.06128,88H16a8,8,0,0,0,0,16h8V216a16.01833,16.01833,0,0,0,16,16H64a16.01833,16.01833,0,0,0,16-16V192h8V128a8,8,0,0,1,16,0v64h16V128a8,8,0,0,1,16,0v64h16V128a8,8,0,0,1,16,0v64h8v24a16.01833,16.01833,0,0,0,16,16h24a16.01833,16.01833,0,0,0,16-16V104h8a8,8,0,0,0,0-16ZM64,144a12,12,0,1,1,12-12A12,12,0,0,1,64,144Zm116-12a12,12,0,1,1,12,12A12,12,0,0,1,180,132Z"/>
</svg>
