<svg id="Layer_1" data-name="Layer 1" xmlns="http://www.w3.org/2000/svg" viewBox="0 0 256 256">
  <rect width="256" height="256" fill="none"/>
  <path d="M64,96H31.99414a16.01833,16.01833,0,0,0-16,16v88a16.01833,16.01833,0,0,0,16,16H64Z"/>
  <path d="M231.86133,80.11621A24.01156,24.01156,0,0,0,213.86914,72h-53.875V56a40.04552,40.04552,0,0,0-40-40,7.99869,7.99869,0,0,0-7.15527,4.42236L80,86.09961V216H201.86914a24.03945,24.03945,0,0,0,23.81543-21.02344l12-96A24.01444,24.01444,0,0,0,231.86133,80.11621Z"/>
</svg>
