<svg id="Layer_1" data-name="Layer 1" xmlns="http://www.w3.org/2000/svg" viewBox="0 0 256 256">
  <rect width="256" height="256" fill="none"/>
  <path d="M31.99414,104h48a0,0,0,0,1,0,0V208a0,0,0,0,1,0,0h-48a8,8,0,0,1-8-8V112A8,8,0,0,1,31.99414,104Z" fill="none" stroke="#000" stroke-linecap="round" stroke-linejoin="round" stroke-width="16"/>
  <path d="M79.99414,104l40-80a32,32,0,0,1,32,32V80h61.87549a16,16,0,0,1,15.87644,17.98456l-12,96A16,16,0,0,1,201.86963,208H79.99414" fill="none" stroke="#000" stroke-linecap="round" stroke-linejoin="round" stroke-width="16"/>
</svg>
