<svg id="Raw" xmlns="http://www.w3.org/2000/svg" viewBox="0 0 256 256">
  <rect width="256" height="256" fill="none"/>
  <path d="M175.99816,211.158a96,96,0,1,0-95.99492.00082L80,211.16442V176a8,8,0,0,1,8-8h8V144a8,8,0,0,1,8-8h4.1616l12.00656-57.63163c1.769-8.49116,13.89469-8.49116,15.66368,0L147.83843,136H152a8,8,0,0,1,8,8v24h8a8,8,0,0,1,8,8v35.16115Z" opacity="0.2"/>
  <circle cx="128" cy="128" r="96" fill="none" stroke="#000" stroke-linecap="round" stroke-linejoin="round" stroke-width="16"/>
  <path d="M176,211.16115V176a8,8,0,0,0-8-8H88a8,8,0,0,0-8,8v35.16442" fill="none" stroke="#000" stroke-linecap="round" stroke-linejoin="round" stroke-width="16"/>
  <path d="M96,168V144a8,8,0,0,1,8-8h48a8,8,0,0,1,8,8v24" fill="none" stroke="#000" stroke-linecap="round" stroke-linejoin="round" stroke-width="16"/>
  <path d="M147.83843,136,135.83184,78.36837c-1.769-8.49116-13.89469-8.49116-15.66368,0L108.16157,136" fill="none" stroke="#000" stroke-linecap="round" stroke-linejoin="round" stroke-width="16"/>
</svg>
