<svg id="Layer_1" data-name="Layer 1" xmlns="http://www.w3.org/2000/svg" viewBox="0 0 256 256">
  <rect width="256" height="256" fill="none"/>
  <path d="M48,223.99414H208a16.01582,16.01582,0,0,0,16-16v-160a16.01583,16.01583,0,0,0-16-16H48a16.01583,16.01583,0,0,0-16,16v160A16.01582,16.01582,0,0,0,48,223.99414Zm80.40625-56.39062a7.99708,7.99708,0,0,1,0-11.3125l20.28613-20.29688H88a8,8,0,0,1,0-16h60.6875L128.40625,99.71289a7.99915,7.99915,0,0,1,11.3125-11.3125l33.92773,33.92773a8.02367,8.02367,0,0,1,0,11.332l-33.92773,33.94336A7.99708,7.99708,0,0,1,128.40625,167.60352Z"/>
</svg>
