<svg id="Raw" xmlns="http://www.w3.org/2000/svg" viewBox="0 0 256 256">
  <rect width="256" height="256" fill="none"/>
  <circle cx="108" cy="188" r="12" fill="none" stroke="#000" stroke-linecap="round" stroke-linejoin="round" stroke-width="24"/>
  <line x1="108" y1="176" x2="108" y2="56" fill="none" stroke="#000" stroke-linecap="round" stroke-linejoin="round" stroke-width="24"/>
  <path d="M240.28427,80A20,20,0,0,1,212,80a20,20,0,0,0-28.28427,0" fill="none" stroke="#000" stroke-linecap="round" stroke-linejoin="round" stroke-width="24"/>
  <path d="M240.28427,120A20,20,0,0,1,212,120a20,20,0,0,0-28.28427,0" fill="none" stroke="#000" stroke-linecap="round" stroke-linejoin="round" stroke-width="24"/>
  <path d="M68,154.77579V56a40,40,0,0,1,80,0v98.77485l.0017-.0014a52,52,0,1,1-80.00385.00054Z" fill="none" stroke="#000" stroke-linecap="round" stroke-linejoin="round" stroke-width="24"/>
</svg>
