<svg id="Raw" xmlns="http://www.w3.org/2000/svg" viewBox="0 0 256 256">
  <rect width="256" height="256" fill="none"/>
  <path d="M160,143.27441V48a40,40,0,0,0-80,0v95.27441a60,60,0,1,0,80,0ZM120,24a24.02718,24.02718,0,0,1,24,24v8H96V48A24.02718,24.02718,0,0,1,120,24Zm58.05908,61.65723a8.00034,8.00034,0,0,1,0-11.31446,27.99923,27.99923,0,0,1,39.59766,0,12.01214,12.01214,0,0,0,16.9707,0,8.00018,8.00018,0,0,1,11.31348,11.31446,27.99923,27.99923,0,0,1-39.59766,0,12.01214,12.01214,0,0,0-16.9707,0A8.00182,8.00182,0,0,1,178.05908,85.65723Zm67.88184,28.68554a8.00034,8.00034,0,0,1,0,11.31446,27.99923,27.99923,0,0,1-39.59766,0,12.01214,12.01214,0,0,0-16.9707,0,8.00018,8.00018,0,0,1-11.31348-11.31446,27.99923,27.99923,0,0,1,39.59766,0,12.01214,12.01214,0,0,0,16.9707,0A8.00182,8.00182,0,0,1,245.94092,114.34277Z"/>
</svg>
