<svg id="Layer_1" data-name="Layer 1" xmlns="http://www.w3.org/2000/svg" viewBox="0 0 256 256">
  <path d="M220,64V56a32.03667,32.03667,0,0,0-32-32H68A32.03667,32.03667,0,0,0,36,56v8Z"/>
  <polygon points="136 120 208 120 220 120 220 80 136 80 136 120"/>
  <polygon points="120 120 120 80 36 80 36 120 48 120 120 120"/>
  <path d="M208,136H36v48a32.03667,32.03667,0,0,0,32,32H79.99976L65.59961,235.2002a8.00019,8.00019,0,0,0,12.80078,9.5996L100.00024,216h55.99952l21.59985,28.7998a8.00019,8.00019,0,0,0,12.80078-9.5996L176.00024,216H188a32.03667,32.03667,0,0,0,32-32V136ZM84,184a12,12,0,1,1,12-12A12,12,0,0,1,84,184Zm88,0a12,12,0,1,1,12-12A12,12,0,0,1,172,184Z"/>
</svg>
