<svg id="Layer_1" data-name="Layer 1" xmlns="http://www.w3.org/2000/svg" viewBox="0 0 256 256">
  <rect width="256" height="256" fill="none"/>
  <path d="M188,24H68A32.03667,32.03667,0,0,0,36,56V184a32.03667,32.03667,0,0,0,32,32H79.99976L65.59961,235.2002a8.00019,8.00019,0,0,0,12.80078,9.5996L100.00024,216h55.99952l21.59985,28.7998a8.00019,8.00019,0,0,0,12.80078-9.5996L176.00024,216H188a32.03667,32.03667,0,0,0,32-32V56A32.03667,32.03667,0,0,0,188,24ZM84,184a12,12,0,1,1,12-12A12,12,0,0,1,84,184Zm36-64H52V80h68Zm52,64a12,12,0,1,1,12-12A12,12,0,0,1,172,184Zm32-64H136V80h68Z"/>
</svg>
