<svg id="Raw" xmlns="http://www.w3.org/2000/svg" viewBox="0 0 256 256">
  <rect width="256" height="256" fill="none"/>
  <path d="M225.8623,102.81543c-3.77246-3.93359-7.67285-8-9.14648-11.56348-1.35449-3.27343-1.43652-8.69531-1.51562-13.93945-.14747-9.75879-.31446-20.81934-8.00391-28.50879s-18.75-7.85644-28.50879-8.00391c-5.24414-.0791-10.666-.16113-13.93945-1.51562-3.5625-1.47363-7.62989-5.374-11.56348-9.14648C146.27539,23.51074,138.44238,16,128,16s-18.27441,7.51074-25.18457,14.1377c-3.93359,3.77246-8,7.67285-11.56348,9.14648-3.27343,1.35449-8.69531,1.43652-13.93945,1.51562-9.75879.14747-20.81934.31446-28.50879,8.00391s-7.85644,18.75-8.00391,28.50879c-.0791,5.24414-.16113,10.666-1.51562,13.93945-1.47363,3.5625-5.374,7.62989-9.14648,11.56348C23.51074,109.72461,16,117.55762,16,128s7.51074,18.27441,14.1377,25.18457c3.77246,3.93359,7.67285,8,9.14648,11.56348,1.35449,3.27343,1.43652,8.69531,1.51562,13.93945.14747,9.75879.31446,20.81934,8.00391,28.50879s18.75,7.85644,28.50879,8.00391c5.24414.0791,10.666.16113,13.93945,1.51562,3.5625,1.47363,7.62989,5.374,11.56348,9.14648C109.72461,232.48926,117.55762,240,128,240s18.27441-7.51074,25.18457-14.1377c3.93359-3.77246,8-7.67285,11.56348-9.14648,3.27343-1.35449,8.69531-1.43652,13.93945-1.51562,9.75879-.14747,20.81934-.31446,28.50879-8.00391s7.85644-18.75,8.00391-28.50879c.0791-5.24414.16113-10.666,1.51562-13.93945,1.47363-3.5625,5.374-7.62989,9.14648-11.56348C232.48926,146.27539,240,138.44238,240,128S232.48926,109.72559,225.8623,102.81543ZM119.999,80a8,8,0,0,1,16,0v56a8,8,0,0,1-16,0Zm8.00049,104a12,12,0,1,1,12-12A12,12,0,0,1,127.99951,184Z"/>
</svg>
