<svg id="Layer_1" data-name="Layer 1" xmlns="http://www.w3.org/2000/svg" viewBox="0 0 256 256">
  <rect width="256" height="256" fill="none"/>
  <g>
    <path d="M120,112V16a8.00008,8.00008,0,0,0-8-8A104.02524,104.02524,0,0,0,21.92334,164.01465a8.01231,8.01231,0,0,0,10.938,2.91357l83.13867-48A8.00009,8.00009,0,0,0,120,112Zm-16-4.6189L32.08887,148.89917A88.04353,88.04353,0,0,1,104,24.36035Z"/>
    <path d="M218.16211,63.1687a7.40465,7.40465,0,0,0-1.33069-1.33081A103.65464,103.65464,0,0,0,144,32a7.99993,7.99993,0,0,0-8,8v91.3811L56.86133,177.07178c-.05078.02929-.11524.06787-.16553.09814a8.00015,8.00015,0,0,0-2.77246,10.84473A103.98855,103.98855,0,1,0,218.16211,63.1687Z"/>
  </g>
</svg>
