<svg id="Layer_1" data-name="Layer 1" xmlns="http://www.w3.org/2000/svg" viewBox="0 0 256 256">
  <rect width="256" height="256" fill="none"/>
  <g>
    <path d="M99.99854,116.45312a7.99932,7.99932,0,0,0,4-6.92773V37.46289a8.00029,8.00029,0,0,0-10.666-7.54248,104.15035,104.15035,0,0,0-67.59863,117.0835,7.99907,7.99907,0,0,0,11.8667,5.47461Zm-12-66.86328v55.31641L40.11621,132.55078Q40.00048,130.27881,40,128A88.20107,88.20107,0,0,1,87.99854,49.58984Z"/>
    <path d="M218.27124,76.39893c-.06738-.13331-.12878-.26807-.20435-.39893-.102-.17676-.21545-.34229-.32849-.50781A104.0515,104.0515,0,0,0,128,24a8.00008,8.00008,0,0,0-8,8v91.38135L40.86133,169.07178A8.00042,8.00042,0,0,0,37.93311,180c.03369.05811.07592.10791.11084.165.08837.17969.17614.35889.27929.53418A104.0111,104.0111,0,0,0,232,128,103.36465,103.36465,0,0,0,218.27124,76.39893Z"/>
  </g>
</svg>
