<svg id="Raw" xmlns="http://www.w3.org/2000/svg" viewBox="0 0 256 256">
  <rect width="256" height="256" fill="none"/>
  <path d="M199.91748,194.85156a8.00007,8.00007,0,0,1-6.125,13.14649H22.208a8.00007,8.00007,0,0,1-6.125-13.14649,119.8892,119.8892,0,0,1,55.77441-37.29339,68,68,0,1,1,72.28516,0A119.89061,119.89061,0,0,1,199.91748,194.85156ZM251.17676,154a7.99606,7.99606,0,0,1-10.92822,2.92822l-4.66822-2.69519A23.999,23.999,0,0,1,228,158.6239V164a8,8,0,0,1-16,0v-5.3761a23.999,23.999,0,0,1-7.58032-4.39087l-4.66822,2.69519a8,8,0,0,1-8-13.85644l4.65674-2.68866a23.73636,23.73636,0,0,1,0-8.76624l-4.65674-2.68866a8,8,0,1,1,8-13.85644l4.66822,2.69519A23.999,23.999,0,0,1,212,113.3761V108a8,8,0,0,1,16,0v5.3761a23.999,23.999,0,0,1,7.58032,4.39087l4.66822-2.69519a8,8,0,1,1,8,13.85644l-4.65674,2.68866a23.73636,23.73636,0,0,1,0,8.76624l4.65674,2.68866A8.00032,8.00032,0,0,1,251.17676,154ZM220,144a8,8,0,1,0-8-8A8.00917,8.00917,0,0,0,220,144Z"/>
</svg>
