<svg id="Layer_1" data-name="Layer 1" xmlns="http://www.w3.org/2000/svg" viewBox="0 0 256 256">
  <path d="M188,24H68A32.03667,32.03667,0,0,0,36,56v64H220V56A32.03667,32.03667,0,0,0,188,24Z"/>
  <path d="M36,184a32.03667,32.03667,0,0,0,32,32H79.99976L65.59961,235.2002a8.00019,8.00019,0,0,0,12.80078,9.5996L100.00024,216h55.99952l21.59985,28.7998a8.00019,8.00019,0,0,0,12.80078-9.5996L176.00024,216H188a32.03667,32.03667,0,0,0,32-32V136H36Zm136-24a12,12,0,1,1-12,12A12,12,0,0,1,172,160Zm-88,0a12,12,0,1,1-12,12A12,12,0,0,1,84,160Z"/>
</svg>
