<svg id="Layer_1" data-name="Layer 1" xmlns="http://www.w3.org/2000/svg" viewBox="0 0 256 256">
  <path d="M94.05887,184.56854c-11.3137,33.94113-56.56854,33.94113-56.56854,33.94113s0-45.25484,33.94113-56.56854" fill="none" stroke="#000" stroke-linecap="round" stroke-linejoin="round" stroke-width="8"/>
  <path d="M195.88225,105.37258,128,173.25483,82.74517,128l67.88225-67.88225c25.70415-25.70415,51.40829-25.45342,62.37042-23.81787a7.96343,7.96343,0,0,1,6.70228,6.70228C221.33567,53.96429,221.5864,79.66843,195.88225,105.37258Z" fill="none" stroke="#000" stroke-linecap="round" stroke-linejoin="round" stroke-width="8"/>
  <path d="M184.56854,116.68629v64.56854a8,8,0,0,1-2.34314,5.65686l-32.34176,32.34176a8,8,0,0,1-13.5015-4.08793L128,173.25483" fill="none" stroke="#000" stroke-linecap="round" stroke-linejoin="round" stroke-width="8"/>
  <path d="M139.31371,71.43146H74.74517a8,8,0,0,0-5.65686,2.34314L36.74655,106.11636a8,8,0,0,0,4.08793,13.5015L82.74517,128" fill="none" stroke="#000" stroke-linecap="round" stroke-linejoin="round" stroke-width="8"/>
</svg>
