<svg id="Layer_1" data-name="Layer 1" xmlns="http://www.w3.org/2000/svg" viewBox="0 0 256 256">
  <rect width="256" height="256" fill="none"/>
  <g>
    <path d="M96.58887,176.979a8.00118,8.00118,0,0,0-10.12012,5.06006C79.916,201.69775,58.57422,207.78613,46.332,209.669c1.88281-12.24854,7.97168-33.58594,27.62988-40.13819a8.00027,8.00027,0,1,0-5.06054-15.1792c-16.36035,5.45362-28.37891,18.45069-34.75782,37.58692a92.73335,92.73335,0,0,0-4.65332,26.57129,8.00041,8.00041,0,0,0,8,8,92.73569,92.73569,0,0,0,26.57129-4.65332c19.13575-6.37842,32.13282-18.39747,37.58692-34.75782A8.001,8.001,0,0,0,96.58887,176.979Z"/>
    <path d="M227.6123,41.82031A15.879,15.879,0,0,0,214.17871,28.3877c-11.28613-1.68409-40.62109-2.51319-69.209,26.07324l-8.97046,8.9707H74.74512a15.90118,15.90118,0,0,0-11.31446,4.686L31.08887,100.46a16.00008,16.00008,0,0,0,8.17675,27.00244l39.53492,7.90723,41.82983,41.82959,7.90674,39.53516a15.99768,15.99768,0,0,0,27.00391,8.17578l32.34179-32.34229a15.8955,15.8955,0,0,0,4.68555-11.313V120l8.9707-8.9707C230.127,82.44141,229.29688,53.10645,227.6123,41.82031ZM74.74512,79.43164h45.25439l-39.884,39.88379-37.71216-7.542ZM176.56836,181.25488l-32.3418,32.3418-7.54223-37.71191,39.884-39.88428Z"/>
  </g>
</svg>
