<svg id="Layer_1" data-name="Layer 1" xmlns="http://www.w3.org/2000/svg" viewBox="0 0 256.00098 256.00098">
  <rect width="256.00098" height="256.00098" fill="none"/>
  <path d="M136.001,57.13379V39.99805a8,8,0,0,0-16,0V57.13379a31.84588,31.84588,0,0,0,0,61.72851v97.13575a8,8,0,0,0,16,0V118.8623a31.84588,31.84588,0,0,0,0-61.72851Z"/>
  <path d="M232.001,167.99805a31.96469,31.96469,0,0,0-24-30.86426V39.99805a8,8,0,0,0-16,0v97.13574a31.84588,31.84588,0,0,0,0,61.72851v17.13575a8,8,0,0,0,16,0V198.8623A31.96468,31.96468,0,0,0,232.001,167.99805Z"/>
  <path d="M64.001,105.13379V39.99805a8,8,0,0,0-16,0v65.13574a31.84588,31.84588,0,0,0,0,61.72851v49.13575a8,8,0,0,0,16,0V166.8623a31.84588,31.84588,0,0,0,0-61.72851Z"/>
</svg>
