<svg xmlns="http://www.w3.org/2000/svg" width="16" height="16" viewBox="0 0 16 16">
  <g fill="none" fill-rule="evenodd">
    <polygon points="0 16 16 16 16 0 0 0"/>
    <path fill="#000" fill-rule="nonzero" d="M1.6255,3.5004 C1.6255,3.01706338 2.01662241,2.6254 2.5005,2.6254 L2.5005,2.6254 L5.7925,2.6254 C6.02499985,2.6254 6.24736502,2.71693493 6.41166504,2.88123496 L6.41166504,2.88123496 L8.1547,4.6244 L13.4997,4.6249 C13.9463562,4.6249 14.3139785,4.95862501 14.3678928,5.39012466 L14.3747,5.4999 L14.3747,12.5559 C14.3747,13.0080068 14.0078068,13.3749 13.5557,13.3749 L13.5557,13.3749 L2.4617,13.3749 C2.00087396,13.3749 1.6247,12.9992875 1.6247,12.5389 L1.6247,12.5389 Z M8.0157,5.3744 L8.0005,5.3754 L2.3737,5.3754 L2.3747,12.5389 C2.3747,12.5733422 2.39727704,12.6044961 2.4283359,12.6179204 L2.4617,12.6249 L13.5557,12.6249 C13.5935932,12.6249 13.6247,12.5937932 13.6247,12.5559 L13.6247,12.5559 L13.6247,5.4999 C13.6247,5.43054506 13.5691318,5.3749 13.4997,5.3749 L13.4997,5.3749 L8.0157,5.3744 Z M5.7925,3.3754 L2.5005,3.3754 C2.4310682,3.3754 2.3755,3.43104506 2.3755,3.5004 L2.3755,3.5004 L2.375,4.625 L7.095,4.625 L5.88133496,3.41156504 C5.86585064,3.39608072 5.84671961,3.38516881 5.82555959,3.37961468 L5.82555959,3.37961468 L5.7925,3.3754 Z"/>
  </g>
</svg>
