<svg xmlns="http://www.w3.org/2000/svg" width="16" height="16" viewBox="0 0 16 16">
  <g fill="none" fill-rule="evenodd">
    <polygon points="0 16 16 16 16 0 0 0"/>
    <path fill="#000" fill-rule="nonzero" d="M1.2505,3.5004 C1.2505,2.81007254 1.80939951,2.2504 2.5005,2.2504 L2.5005,2.2504 L5.7925,2.2504 C6.12416132,2.2504 6.44199329,2.38123312 6.67683009,2.61606991 L6.67683009,2.61606991 L8.3107,4.2494 L13.4997,4.2499 C14.1476067,4.2499 14.6793212,4.74179969 14.7432546,5.37209945 L14.7497,5.4999 L14.7497,12.5559 C14.7497,13.2151136 14.2149136,13.7499 13.5557,13.7499 L13.5557,13.7499 L2.4617,13.7499 C1.79389246,13.7499 1.2497,13.2065198 1.2497,12.5389 L1.2497,12.5389 Z M13.249,5.749 L8.0287,5.7484 L8.0005,5.7504 L2.7487,5.7504 L2.749,12.249 L13.249,12.249 L13.249,5.749 Z M5.69,3.75 L2.75,3.75 L2.75,4.25 L6.19,4.25 L5.69,3.75 Z"/>
  </g>
</svg>
