<svg xmlns="http://www.w3.org/2000/svg" width="16" height="16" viewBox="0 0 16 16">
  <g fill="none" fill-rule="evenodd">
    <polygon points="0 16 15.999 16 15.999 0 0 0"/>
    <path fill="#000" d="M6.1461,3.1464 L8.0001,5.0004 L2.0001,5.0004 L2.0001,3.5004 C2.0001,3.2244 2.2241,3.0004 2.5001,3.0004 L5.7921,3.0004 C5.9251,3.0004 6.0521,3.0524 6.1461,3.1464" opacity=".2"/>
    <path fill="#000" fill-rule="nonzero" d="M1.5001,3.5004 C1.5001,2.94825763 1.94795763,2.5004 2.5001,2.5004 L2.5001,2.5004 L5.7921,2.5004 C6.05765368,2.5004 6.31184111,2.60503433 6.49965339,2.79284661 L6.49965339,2.79284661 L8.2063,4.4994 L13.4993,4.4999 C14.0127553,4.4999 14.4348957,4.8858981 14.4925818,5.38326985 L14.4993,5.4999 L14.4993,12.5559 C14.4993,13.0772141 14.0772715,13.4999 13.5553,13.4999 L13.5553,13.4999 L2.4613,13.4999 C1.93148013,13.4999 1.4993,13.0683649 1.4993,12.5389 L1.4993,12.5389 Z M8.0173,5.4994 L8.0001,5.5004 L2.4983,5.5004 L2.499,12.499 L13.499,12.499 L13.4993,5.4999 L8.0173,5.4994 Z M5.79254661,3.49995339 L2.5001,3.5004 L2.5,4.5 L6.793,4.5 L5.79254661,3.49995339 Z"/>
  </g>
</svg>
