<svg xmlns="http://www.w3.org/2000/svg" width="16" height="16" viewBox="0 0 16 16">
  <g fill="none" fill-rule="evenodd">
    <polygon points="0 16 15.999 16 15.999 0 0 0"/>
    <path fill="#000" d="M2.4997,3.4999 L5.7927,3.4999 L6.7927,4.4999 L2.4997,4.4999 L2.4997,3.4999 Z M13.4997,4.4999 L8.2067,4.4999 L6.4997,2.7929 C6.3117,2.6039 6.0597,2.4999 5.7927,2.4999 L2.4997,2.4999 C1.9477,2.4999 1.4997,2.9489 1.4997,3.4999 L1.4997,4.9999 L1.4997,12.5389 C1.4997,13.0689 1.9317,13.4999 2.4617,13.4999 L13.5557,13.4999 C14.0757,13.4999 14.4997,13.0759 14.4997,12.5559 L14.4997,5.4999 C14.4997,4.9489 14.0517,4.4999 13.4997,4.4999 L13.4997,4.4999 Z"/>
  </g>
</svg>
