<svg xmlns="http://www.w3.org/2000/svg" width="16" height="16" viewBox="0 0 16 16">
  <g fill="none" fill-rule="evenodd">
    <polygon points="0 16 16 16 16 0 0 0"/>
    <path fill="#000" fill-rule="nonzero" d="M1.7505,3.5004 C1.7505,3.08606032 2.08569671,2.7504 2.5005,2.7504 L2.5005,2.7504 L5.7925,2.7504 C5.99194603,2.7504 6.18248893,2.82883554 6.3232767,2.9696233 L6.3232767,2.9696233 L8.1027,4.7494 L13.4997,4.7499 C13.8799364,4.7499 14.1932811,5.03194791 14.2428646,5.39810295 L14.2497,5.4999 L14.2497,12.5559 C14.2497,12.9389712 13.9387712,13.2499 13.5557,13.2499 L13.5557,13.2499 L2.4617,13.2499 C2.06986779,13.2499 1.7497,12.9302101 1.7497,12.5389 L1.7497,12.5389 Z M8.0117,5.2494 L8.0005,5.2504 L2.2487,5.2504 L2.2497,12.5389 C2.2497,12.6347336 2.31646606,12.7173723 2.40576821,12.7422565 L2.4617,12.7499 L13.5557,12.7499 C13.6626288,12.7499 13.7497,12.6628288 13.7497,12.5559 L13.7497,12.5559 L13.7497,5.4999 C13.7497,5.36154811 13.6382061,5.2499 13.4997,5.2499 L13.4997,5.2499 L8.0117,5.2494 Z M5.7925,3.2504 L2.5005,3.2504 C2.3619939,3.2504 2.2505,3.36204811 2.2505,3.5004 L2.2505,3.5004 L2.25,4.75 L7.396,4.75 L5.9697233,3.3231767 C5.93856415,3.29201754 5.90006495,3.27005873 5.85794072,3.25888165 L5.85794072,3.25888165 L5.7925,3.2504 Z"/>
  </g>
</svg>
