<svg xmlns="http://www.w3.org/2000/svg" width="16" height="16" viewBox="0 0 16 16">
  <g fill="none" fill-rule="evenodd">
    <polygon points="0 16 16 16 16 0 0 0"/>
    <path fill="#000" fill-rule="nonzero" d="M1.5005,3.5005 C1.5005,2.94735763 1.94735763,2.5005 2.5005,2.5005 L2.5005,2.5005 L5.7925,2.5005 C6.05805368,2.5005 6.31224111,2.60513433 6.50005339,2.79294661 L6.50005339,2.79294661 L8.2067,4.4995 L13.4997,4.5 C14.0131553,4.5 14.4352957,4.8859981 14.4929818,5.38336985 L14.4997,5.5 L14.4997,12.556 C14.4997,13.0771424 14.0768424,13.5 13.5557,13.5 L13.5557,13.5 L2.4617,13.5 C1.93155763,13.5 1.4997,13.0681424 1.4997,12.538 L1.4997,12.538 Z M13.4997,5.5 L8.0117,5.4995 L8.0005,5.5005 L2.4987,5.5005 L2.499,12.5 L13.499,12.5 L13.4997,5.5 Z M5.79294661,3.50005339 L2.5005,3.5005 L2.5,4.5 L6.792,4.5 L5.79294661,3.50005339 Z"/>
  </g>
</svg>
