<svg id="Raw" xmlns="http://www.w3.org/2000/svg" viewBox="0 0 256 256">
  <rect width="256" height="256" fill="none"/>
  <line x1="128" y1="192" x2="128" y2="216" fill="none" stroke="#000" stroke-linecap="round" stroke-linejoin="round" stroke-width="8"/>
  <circle cx="92" cy="140" r="8"/>
  <circle cx="164" cy="140" r="8"/>
  <polyline points="144 176 128 192 112 176" fill="none" stroke="#000" stroke-linecap="round" stroke-linejoin="round" stroke-width="8"/>
  <path d="M152,48l55.76169-13.94042a8,8,0,0,1,9.80326,6.28683l16.41859,87.56583c1.54221,8.22509-8.98332,12.99712-14.15352,6.41688Z" fill="none" stroke="#000" stroke-linecap="round" stroke-linejoin="round" stroke-width="8"/>
  <path d="M104,48,48.23831,34.05958A8,8,0,0,0,38.435,40.34641L22.01646,127.91224c-1.54221,8.22509,8.98332,12.99712,14.15352,6.41688Z" fill="none" stroke="#000" stroke-linecap="round" stroke-linejoin="round" stroke-width="8"/>
  <line x1="104" y1="48" x2="152" y2="48" fill="none" stroke="#000" stroke-linecap="round" stroke-linejoin="round" stroke-width="8"/>
  <path d="M208,119.27273V184a32,32,0,0,1-32,32H80a32,32,0,0,1-32-32V119.27273" fill="none" stroke="#000" stroke-linecap="round" stroke-linejoin="round" stroke-width="8"/>
</svg>
