<svg id="Raw" xmlns="http://www.w3.org/2000/svg" viewBox="0 0 256 256">
  <rect width="256" height="256" fill="none"/>
  <path d="M213.65723,66.34326l-40-40A8.00076,8.00076,0,0,0,168,24H88A16.01833,16.01833,0,0,0,72,40V56H56A16.01833,16.01833,0,0,0,40,72V216a16.01833,16.01833,0,0,0,16,16H168a16.01833,16.01833,0,0,0,16-16V200h16a16.01833,16.01833,0,0,0,16-16V72A8.00035,8.00035,0,0,0,213.65723,66.34326ZM136,192H88a8,8,0,0,1,0-16h48a8,8,0,0,1,0,16Zm0-32H88a8,8,0,0,1,0-16h48a8,8,0,0,1,0,16Zm64,24H184V104a8.00035,8.00035,0,0,0-2.34277-5.65674l-40-40A8.00076,8.00076,0,0,0,136,56H88V40h76.68652L200,75.314Z"/>
</svg>
