<svg id="Raw" xmlns="http://www.w3.org/2000/svg" viewBox="0 0 256 256">
  <rect width="256" height="256" fill="none"/>
  <path d="M45.429,176.99811A95.95978,95.95978,0,1,1,79.00277,210.5717l.00023-.001L45.84643,220.044a8,8,0,0,1-9.89-9.89l9.47331-33.15657Z" fill="none" stroke="#000" stroke-linecap="round" stroke-linejoin="round" stroke-width="8"/>
  <path d="M152.11369,183.99992a80,80,0,0,1-80.11361-80.11361A27.97622,27.97622,0,0,1,100,76h0a6.89265,6.89265,0,0,1,5.98451,3.47295l11.69105,20.45931a8,8,0,0,1-.086,8.08508l-9.38907,15.64844h0a48.18239,48.18239,0,0,0,24.13373,24.13373l0,0,15.64841-9.389a8,8,0,0,1,8.08508-.086l20.45931,11.691A6.89265,6.89265,0,0,1,180,156v0A28.081,28.081,0,0,1,152.11369,183.99992Z" fill="none" stroke="#000" stroke-linecap="round" stroke-linejoin="round" stroke-width="8"/>
</svg>
