<svg id="Layer_1" data-name="Layer 1" xmlns="http://www.w3.org/2000/svg" viewBox="0 0 256 256">
  <rect width="256" height="256" fill="none"/>
  <path d="M200,75.64111V40a16.01833,16.01833,0,0,0-16-16H72A16.01833,16.01833,0,0,0,56,40V76a16.07553,16.07553,0,0,0,6.3999,12.7998L114.667,128l-52.2666,39.2002A16.07459,16.07459,0,0,0,56,180v36a16.01833,16.01833,0,0,0,16,16H184a16.01833,16.01833,0,0,0,16-16V180.35889a16.08452,16.08452,0,0,0-6.352-12.76416L141.2666,128l52.38184-39.59473A16.08547,16.08547,0,0,0,200,75.64111ZM184,40V63.99561H72V40Zm0,176H72V180l55.98145-41.98584L184,180.35889Z"/>
</svg>
