<svg id="Raw" xmlns="http://www.w3.org/2000/svg" viewBox="0 0 256 256">
  <rect width="256" height="256" fill="none"/>
  <path d="M32,208V64a8,8,0,0,1,8-8H93.33333a8,8,0,0,1,4.8,1.6l27.73334,20.8a8,8,0,0,0,4.8,1.6H200a8,8,0,0,1,8,8v24" fill="none" stroke="#000" stroke-linecap="round" stroke-linejoin="round" stroke-width="24"/>
  <path d="M32,208l29.93872-71.10446A8,8,0,0,1,69.3118,132h48.266a8,8,0,0,0,4.43761-1.3436l19.9692-13.3128A8,8,0,0,1,146.42221,116h82.32506a8,8,0,0,1,7.556,10.62816L208,208Z" fill="none" stroke="#000" stroke-linecap="round" stroke-linejoin="round" stroke-width="24"/>
</svg>
