<svg id="Raw" xmlns="http://www.w3.org/2000/svg" viewBox="0 0 256 256">
  <rect width="256" height="256" fill="none"/>
  <path d="M206.9541,50.24707A87.40283,87.40283,0,0,0,144.58789,24.001C144.47461,24,144.36426,24,144.252,24A87.41952,87.41952,0,0,0,82,49.80957L48.30078,83.92084l-.001.001-.00146.00147L15.89746,116.7207a16.03806,16.03806,0,0,0,.06836,22.55957l28.65332,28.65332a15.889,15.889,0,0,0,11.3125,4.68653h.0957a15.88936,15.88936,0,0,0,11.35157-4.81836l32.0205-32.77661.002-.00171.00293-.003,33.57226-34.36518a16.07987,16.07987,0,0,1,22.374-.18847,15.58821,15.58821,0,0,1,4.72558,11.19629,16.88015,16.88015,0,0,1-4.84472,11.99316l-34.10694,33.07623-.00732.00678-.00391.004L88.2627,188.60156a15.99983,15.99983,0,0,0-.17579,22.79981l28.6543,28.65429a16.052,16.052,0,0,0,22.5166.10938l32.957-32.31885.00489-.00439.00293-.0033,33.55273-32.903C240.22363,140.48633,240.75293,84.55176,206.9541,50.24707ZM55.93359,156.61914,27.2793,127.96582l26.71191-27.03827L82.49512,129.4314Zm72.12207,72.12207L99.40137,200.08789l27.28711-26.46283,28.50439,28.50421Z"/>
</svg>
