<svg xmlns="http://www.w3.org/2000/svg" width="16" height="16" viewBox="0 0 16 16">
  <g fill="none" fill-rule="evenodd">
    <polygon points="0 16 15.999 16 15.999 0 0 0"/>
    <path fill="#000" fill-rule="nonzero" d="M7.9996,0.7498 C11.1754914,0.7498 13.7496,3.32426423 13.7496,6.4998 C13.7496,8.68030894 12.7357418,10.7587182 11.0655541,12.679434 C10.492211,13.3387787 9.87964976,13.9329631 9.26658632,14.454067 C9.00195851,14.6790006 8.77744244,14.8570757 8.60713804,14.9849992 L8.60713804,14.9849992 L8.42969676,15.1142239 C8.17145664,15.294992 7.82774336,15.294992 7.56950324,15.1142239 C7.44482416,15.0269486 7.26029345,14.8882044 7.03001102,14.7012845 L7.03001102,14.7012845 L6.73261368,14.454067 C6.11955024,13.9329631 5.50698904,13.3387787 4.93364586,12.679434 C3.26345818,10.7587182 2.2496,8.68030894 2.2496,6.4998 C2.2496,3.32458644 4.82438644,0.7498 7.9996,0.7498 Z M7.9996,2.2498 C5.65281356,2.2498 3.7496,4.15301356 3.7496,6.4998 C3.7496,8.25679106 4.61074182,10.0221318 6.06555414,11.695166 C6.58596096,12.2936338 7.14527476,12.8361682 7.70408632,13.311158 L7.70408632,13.311158 L7.999,13.555 L8.29511368,13.311158 C8.85392524,12.8361682 9.41323904,12.2936338 9.93364586,11.695166 C11.3884582,10.0221318 12.2496,8.25679106 12.2496,6.4998 C12.2496,4.15264497 10.3470179,2.2498 7.9996,2.2498 Z M7.9996,3.7498 C9.51781356,3.7498 10.7496,4.98158644 10.7496,6.4998 C10.7496,8.01872625 9.51810101,9.2498 7.9996,9.2498 C6.48109899,9.2498 5.2496,8.01872625 5.2496,6.4998 C5.2496,4.98158644 6.48138644,3.7498 7.9996,3.7498 Z M7.9996,5.2498 C7.30981356,5.2498 6.7496,5.81001356 6.7496,6.4998 C6.7496,7.19018314 7.30941017,7.7498 7.9996,7.7498 C8.68978983,7.7498 9.2496,7.19018314 9.2496,6.4998 C9.2496,5.81001356 8.68938644,5.2498 7.9996,5.2498 Z"/>
  </g>
</svg>
