<svg xmlns="http://www.w3.org/2000/svg" width="16" height="16" viewBox="0 0 16 16">
  <g fill="none" fill-rule="evenodd">
    <polygon points="0 16 15.999 16 15.999 0 0 0"/>
    <path fill="#000" fill-rule="nonzero" d="M7.9996,1.2498 C10.8993336,1.2498 13.2496,3.60039114 13.2496,6.4998 C13.2496,8.53913631 12.2866473,10.5131894 10.6882514,12.3513447 C10.1325537,12.9903971 9.53774159,13.5673648 8.94276211,14.0730973 C8.73429022,14.2502984 8.54049866,14.406077 8.36625361,14.53925 L8.36625361,14.53925 L8.14296559,14.704608 C8.05688555,14.764864 7.94231445,14.764864 7.85623441,14.704608 L7.85623441,14.704608 L7.63294639,14.53925 C7.45870134,14.406077 7.26490978,14.2502984 7.05643789,14.0730973 C6.46145841,13.5673648 5.86664635,12.9903971 5.31094862,12.3513447 C3.71255273,10.5131894 2.7496,8.53913631 2.7496,6.4998 C2.7496,3.60072881 5.10052881,1.2498 7.9996,1.2498 Z M7.9996,1.7498 C5.37667119,1.7498 3.2496,3.87687119 3.2496,6.4998 C3.2496,8.39796369 4.16164727,10.2676606 5.68825138,12.0232553 C6.22630365,12.6420154 6.80336659,13.2017665 7.38026211,13.6921277 C7.5282294,13.8178999 7.66187745,13.9272925 7.7781216,14.0195178 L7.7781216,14.0195178 L7.999,14.19 L8.3430096,13.9215993 L8.61893789,13.6921277 C9.19583341,13.2017665 9.77289635,12.6420154 10.3109486,12.0232553 C11.8375527,10.2676606 12.7496,8.39796369 12.7496,6.4998 C12.7496,3.87651806 10.6231757,1.7498 7.9996,1.7498 Z M7.9996,4.2498 C9.24167119,4.2498 10.2496,5.25772881 10.2496,6.4998 C10.2496,7.74254522 9.24199729,8.7498 7.9996,8.7498 C6.75720271,8.7498 5.7496,7.74254522 5.7496,6.4998 C5.7496,5.25772881 6.75752881,4.2498 7.9996,4.2498 Z M7.9996,4.7498 C7.03367119,4.7498 6.2496,5.53387119 6.2496,6.4998 C6.2496,7.46636418 7.03330644,8.2498 7.9996,8.2498 C8.96589356,8.2498 9.7496,7.46636418 9.7496,6.4998 C9.7496,5.53387119 8.96552881,4.7498 7.9996,4.7498 Z"/>
  </g>
</svg>
