<svg xmlns="http://www.w3.org/2000/svg" width="16" height="16" viewBox="0 0 16 16">
  <g fill="none" fill-rule="evenodd">
    <polygon points="0 16 15.999 16 15.999 0 0 0"/>
    <path fill="#000" d="M7.9996,4.4998 C9.1046,4.4998 9.9996,5.3958 9.9996,6.4998 C9.9996,7.6038 9.1046,8.4998 7.9996,8.4998 C6.8956,8.4998 5.9996,7.6038 5.9996,6.4998 C5.9996,5.3958 6.8956,4.4998 7.9996,4.4998 M7.9996,0.9998 C4.9676,0.9998 2.4996,3.4668 2.4996,6.4998 C2.4996,11.2058 7.4996,14.7608 7.7126,14.9098 C7.7996,14.9698 7.8986,14.9998 7.9996,14.9998 C8.1006,14.9998 8.1996,14.9698 8.2866,14.9098 C8.4996,14.7608 13.4996,11.2058 13.4996,6.4998 C13.4996,3.4668 11.0316,0.9998 7.9996,0.9998"/>
  </g>
</svg>
