<svg xmlns="http://www.w3.org/2000/svg" width="16" height="16" viewBox="0 0 16 16">
  <g fill="none" fill-rule="evenodd">
    <polygon points="0 16 15.999 16 15.999 0 0 0"/>
    <path fill="#000" fill-rule="nonzero" d="M7.9996,1.1248 C10.968373,1.1248 13.3746,3.53135942 13.3746,6.4998 C13.3746,8.57442947 12.3989209,10.5745716 10.7825771,12.433367 C10.222468,13.0774925 9.62321863,13.6587643 9.02371816,14.1683397 C8.81354939,14.3469832 8.6180769,14.504113 8.44215854,14.6385649 L8.44215854,14.6385649 L8.21464838,14.807012 C8.08552832,14.897396 7.91367168,14.897396 7.78455162,14.807012 C7.76292933,14.7918764 7.73275383,14.7701726 7.69463289,14.7420487 L7.69463289,14.7420487 L7.37478498,14.4965968 C7.24917519,14.3969694 7.11559436,14.2874354 6.97548184,14.1683397 C6.37598137,13.6587643 5.77673202,13.0774925 5.21662293,12.433367 C3.60027909,10.5745716 2.6246,8.57442947 2.6246,6.4998 C2.6246,3.53169322 5.03149322,1.1248 7.9996,1.1248 Z M7.9996,1.8748 C5.44570678,1.8748 3.3746,3.94590678 3.3746,6.4998 C3.3746,8.36267053 4.27392091,10.2062784 5.78257707,11.941233 C6.31621798,12.55492 6.88884363,13.1103669 7.46121816,13.5968853 C7.55896224,13.6799677 7.65034893,13.7557976 7.73446282,13.8241386 L7.73446282,13.8241386 L7.999,14.033 L8.14413538,13.9210039 L8.39624819,13.71604 L8.53798184,13.5968853 C9.11035637,13.1103669 9.68298202,12.55492 10.2166229,11.941233 C11.7252791,10.2062784 12.6246,8.36267053 12.6246,6.4998 C12.6246,3.94554979 10.5541363,1.8748 7.9996,1.8748 Z M7.9996,4.1248 C9.31070678,4.1248 10.3746,5.18869322 10.3746,6.4998 C10.3746,7.81159047 9.31102322,8.8748 7.9996,8.8748 C6.68817678,8.8748 5.6246,7.81159047 5.6246,6.4998 C5.6246,5.18869322 6.68849322,4.1248 7.9996,4.1248 Z M7.9996,4.8748 C7.10270678,4.8748 6.3746,5.60290678 6.3746,6.4998 C6.3746,7.39731892 7.10233237,8.1248 7.9996,8.1248 C8.89686763,8.1248 9.6246,7.39731892 9.6246,6.4998 C9.6246,5.60290678 8.89649322,4.8748 7.9996,4.8748 Z"/>
  </g>
</svg>
