<svg xmlns="http://www.w3.org/2000/svg" width="16" height="16" viewBox="0 0 16 16">
  <g fill="none" fill-rule="evenodd">
    <polygon points="0 16 15.999 16 15.999 0 0 0"/>
    <path fill="#000" fill-rule="nonzero" d="M7.9996,0.9998 C11.0374125,0.9998 13.4996,3.46232769 13.4996,6.4998 C13.4996,8.60972263 12.5111945,10.6359538 10.8769028,12.5153894 C10.3123823,13.1645879 9.70869567,13.7501639 9.10467421,14.2635822 C8.89280856,14.443668 8.69565514,14.602149 8.51806347,14.7378798 L8.51806347,14.7378798 L8.28633117,14.909416 C8.1141711,15.029928 7.8850289,15.029928 7.71286883,14.909416 C7.69054952,14.8937924 7.65967425,14.8715883 7.62084991,14.8429501 L7.48113653,14.7378798 L7.29720389,14.594608 C7.17047455,14.4940944 7.03576956,14.3836394 6.89452579,14.2635822 C6.29050433,13.7501639 5.6868177,13.1645879 5.12229724,12.5153894 C3.48800545,10.6359538 2.4996,8.60972263 2.4996,6.4998 C2.4996,3.46265763 4.96245763,0.9998 7.9996,0.9998 Z M7.9996,1.9998 C5.51474237,1.9998 3.4996,4.01494237 3.4996,6.4998 C3.4996,8.32737737 4.38619455,10.1448962 5.87690276,11.8592106 C6.4061323,12.4678246 6.97432067,13.0189673 7.54217421,13.5016428 C7.68743916,13.625118 7.81841511,13.7323361 7.93200763,13.82249 L7.93200763,13.82249 L7.999,13.875 L8.18646476,13.726678 L8.45702579,13.5016428 C9.02487933,13.0189673 9.5930677,12.4678246 10.1222972,11.8592106 C11.6130055,10.1448962 12.4996,8.32737737 12.4996,6.4998 C12.4996,4.01458151 10.4850968,1.9998 7.9996,1.9998 Z M7.9996,3.9998 C9.37974237,3.9998 10.4996,5.11965763 10.4996,6.4998 C10.4996,7.88063573 9.38004915,8.9998 7.9996,8.9998 C6.61915085,8.9998 5.4996,7.88063573 5.4996,6.4998 C5.4996,5.11965763 6.61945763,3.9998 7.9996,3.9998 Z M7.9996,4.9998 C7.17174237,4.9998 6.4996,5.67194237 6.4996,6.4998 C6.4996,7.32827366 7.1713583,7.9998 7.9996,7.9998 C8.8278417,7.9998 9.4996,7.32827366 9.4996,6.4998 C9.4996,5.67194237 8.82745763,4.9998 7.9996,4.9998 Z"/>
  </g>
</svg>
