<svg id="Raw" xmlns="http://www.w3.org/2000/svg" viewBox="0 0 256 256">
  <rect width="256" height="256" fill="none"/>
  <path d="M165.1036,200H122.8964a8,8,0,0,0-5.12148,1.85423L72,240V200H48a8,8,0,0,1-8-8V48a8,8,0,0,1,8-8H208a8,8,0,0,1,8,8V156.253a8,8,0,0,1-2.87852,6.14577l-42.89641,35.747A8,8,0,0,1,165.1036,200Z" opacity="0.2"/>
  <path d="M165.1036,200H122.8964a8,8,0,0,0-5.12148,1.85423L72,240V200H48a8,8,0,0,1-8-8V48a8,8,0,0,1,8-8H208a8,8,0,0,1,8,8V156.253a8,8,0,0,1-2.87852,6.14577l-42.89641,35.747A8,8,0,0,1,165.1036,200Z" fill="none" stroke="#000" stroke-linecap="round" stroke-linejoin="round" stroke-width="16"/>
  <line x1="168" y1="88.00002" x2="168" y2="136.00002" fill="none" stroke="#000" stroke-linecap="round" stroke-linejoin="round" stroke-width="16"/>
  <line x1="120" y1="88.00002" x2="120" y2="136.00002" fill="none" stroke="#000" stroke-linecap="round" stroke-linejoin="round" stroke-width="16"/>
</svg>
