<svg id="Layer_1" data-name="Layer 1" xmlns="http://www.w3.org/2000/svg" viewBox="0 0 256 256">
  <path d="M41.43066,112.12891,128,127.86865l86.56934-15.73974,7.21777-1.31238L201.3252,35.79A16.03362,16.03362,0,0,0,185.88965,24H70.11035A16.03362,16.03362,0,0,0,54.6748,35.79L34.21289,110.81653ZM96,80h64a8,8,0,0,1,0,16H96a8,8,0,0,1,0-16Z"/>
  <path d="M217.43066,127.87109,136,142.6767V216h19.99976l21.59985,28.7998a8.00019,8.00019,0,0,0,12.80078-9.5996L176.00024,216h9.88941a16.03394,16.03394,0,0,0,15.43555-11.791l21.06591-77.2398Z"/>
  <path d="M120,142.6767,38.56934,127.87109l-4.96045-.90191L54.6748,204.209A16.03394,16.03394,0,0,0,70.11035,216h9.88941L65.59961,235.2002a8.00019,8.00019,0,0,0,12.80078,9.5996L100.00024,216H120Z"/>
</svg>
