<svg id="Raw" xmlns="http://www.w3.org/2000/svg" viewBox="0 0 256 256">
  <rect width="256" height="256" fill="none"/>
  <path d="M136,80v43.38116l37.56934,21.69062a8,8,0,1,1-8,13.85644l-41.56934-24c-.064-.03692-.12109-.0805-.18359-.11889-.13575-.08362-.271-.16779-.40088-.2591-.10352-.07232-.20215-.14892-.30127-.22534-.10205-.0788-.20362-.15765-.30127-.24115-.11182-.09479-.21778-.19342-.32276-.29333-.0791-.07532-.15771-.15064-.23388-.22913-.10694-.11017-.2085-.22351-.30811-.339-.06933-.08026-.13769-.16083-.2041-.24377-.0918-.1156-.1792-.23352-.26416-.35352-.06738-.09473-.1333-.19019-.19629-.2879-.07226-.11194-.14062-.22547-.207-.34058-.06592-.11438-.12988-.22986-.19043-.34778-.05322-.10418-.10352-.20941-.15185-.31561-.061-.13287-.11915-.26685-.17334-.4035-.03907-.09986-.0752-.20063-.11036-.30194-.0498-.14252-.09668-.28589-.13818-.432-.03027-.10687-.05664-.21454-.083-.32257-.0332-.13928-.06543-.27881-.09131-.42084-.02392-.12842-.0415-.25757-.05908-.38714-.0166-.12226-.0332-.244-.04394-.368-.01416-.16015-.01953-.3208-.02442-.48187C120.00879,128.14313,120,128.07269,120,128V80a8,8,0,0,1,16,0Zm59.88184-19.88232a96.10782,96.10782,0,0,0-135.76416,0L51.833,68.4021l-14.34278-14.343A7.99981,7.99981,0,0,0,23.8335,59.71582v40a7.99977,7.99977,0,0,0,8,8h40a7.99981,7.99981,0,0,0,5.65673-13.65674L63.147,79.71576l8.28467-8.28461a80.00025,80.00025,0,1,1,0,113.13721,8.00035,8.00035,0,0,0-11.314,11.31445A96.0001,96.0001,0,0,0,195.88184,60.11768Z"/>
</svg>
