<svg id="Layer_1" data-name="Layer 1" xmlns="http://www.w3.org/2000/svg" viewBox="0 0 256 256">
  <rect x="0.00049" width="255.99951" height="256" fill="none"/>
  <path d="M198.12305,28.53186a15.95339,15.95339,0,0,0-17.4375,3.46826L114.34473,98.34143l-.002.00195L16.001,196.68616a15.95542,15.95542,0,0,0-4.69092,11.65869q.01319.58374.06933,1.168a16.06842,16.06842,0,0,0,8.02735,12.40771q.50536.28712,1.031.53662a16.00569,16.00569,0,0,0,6.87574,1.543H192a16.018,16.018,0,0,0,16-16V43.3136A15.95272,15.95272,0,0,0,198.12305,28.53186ZM192,208.00012l-64-.002V107.318l64-63.99756Z"/>
</svg>
