<svg id="Raw" xmlns="http://www.w3.org/2000/svg" viewBox="0 0 256 256">
  <rect width="256" height="256" fill="none"/>
  <g>
    <path d="M239.91406,182.89087c-.021-.15259-.03955-.30566-.06933-.457-.02491-.12525-.05957-.24634-.09034-.36939-.03271-.13037-.06152-.26123-.10058-.39013-.03662-.12073-.082-.23706-.124-.35523-.04542-.12866-.08838-.25781-.14063-.38428-.04492-.10791-.09766-.21118-.147-.31665-.06153-.13195-.12061-.26464-.18994-.39379-.05176-.09693-.11133-.18873-.167-.28309-.07666-.13024-.15088-.26147-.23584-.38806-.0664-.09887-.14062-.19116-.21093-.28686-.084-.11438-.16407-.23084-.25537-.34156-.11622-.14111-.2417-.27368-.36719-.40649-.0542-.05762-.10205-.11914-.15869-.17554l-24-24a8.00053,8.00053,0,0,0-11.31446,11.31446l10.34375,10.343-40.56933.00074L96.90234,70.7002A16.03,16.03,0,0,0,83.88281,64H32a8,8,0,0,0,0,16l51.88281-.001L159.09766,185.2998A16.03,16.03,0,0,0,172.11719,192H212.686l-10.34327,10.34277a8.00053,8.00053,0,0,0,11.31446,11.31446l24-24c.05664-.0564.10449-.11792.15869-.17554.12549-.13281.251-.26538.36719-.40649.0913-.11072.17138-.22718.25537-.34156.07031-.0957.14453-.188.21093-.28686.085-.12659.15918-.25782.23584-.38806.05567-.09436.11524-.18616.167-.28309.06933-.12915.12841-.26184.18994-.39379.04931-.10547.10205-.20874.147-.31665.05225-.12647.09521-.25562.14063-.38428.042-.11817.0874-.2345.124-.35523.03906-.1289.06787-.25976.10058-.39013.03077-.12305.06543-.24414.09034-.36939.02978-.15137.04834-.30444.06933-.457.01465-.106.03516-.21.0459-.31714a8.02276,8.02276,0,0,0,0-1.584C239.94922,183.10083,239.92871,182.99683,239.91406,182.89087Z"/>
    <path d="M143.01172,106.98242a7.99822,7.99822,0,0,0,11.16015-1.85937L172.11719,80H212.686L202.34277,90.34277a8.00053,8.00053,0,0,0,11.31446,11.31446l24-24c.05664-.0564.10449-.11792.15869-.17554.12549-.13281.251-.26538.36719-.40649.0913-.11072.17138-.22718.25537-.34156.07031-.0957.14453-.188.21093-.28686.085-.12659.15918-.25782.23584-.38806.05567-.09436.11524-.18616.167-.28309.06933-.12915.12841-.26184.18994-.39379.04931-.10547.10205-.20874.147-.31665.05225-.12647.09521-.25562.14063-.38428.042-.11817.0874-.2345.124-.35523.03906-.1289.06787-.25976.10058-.39013.03077-.12305.06543-.24414.09034-.36939.02978-.15137.04834-.30444.06933-.457.01465-.106.03516-.21.0459-.31714a8.02276,8.02276,0,0,0,0-1.584c-.01074-.10718-.03125-.21118-.0459-.31714-.021-.15259-.03955-.30566-.06933-.457-.02491-.12525-.05957-.24634-.09034-.36939-.03271-.13037-.06152-.26123-.10058-.39013-.03662-.12073-.082-.23706-.124-.35523-.04542-.12866-.08838-.25781-.14063-.38428-.04492-.10791-.09766-.21118-.147-.31665-.06153-.132-.12061-.26464-.18994-.39379-.05176-.09693-.11133-.18873-.167-.28309-.07666-.13024-.15088-.26147-.23584-.38806-.0664-.09887-.14062-.19116-.21093-.28686-.084-.11438-.16407-.23084-.25537-.34156-.11622-.14111-.2417-.27368-.36719-.40649-.0542-.05762-.10205-.11914-.15869-.17554l-24-24a8.00053,8.00053,0,0,0-11.31446,11.31446L212.686,64H172.11719a16.03166,16.03166,0,0,0-13.01953,6.69922L141.15234,95.82227A8.00057,8.00057,0,0,0,143.01172,106.98242Z"/>
    <path d="M112.98828,149.01758a7.99913,7.99913,0,0,0-11.16016,1.85937L83.88281,176H32a8,8,0,0,0,0,16H83.88281a16.03166,16.03166,0,0,0,13.01953-6.69922l17.94532-25.12305A8.00057,8.00057,0,0,0,112.98828,149.01758Z"/>
  </g>
</svg>
