<svg id="Layer_1" data-name="Layer 1" xmlns="http://www.w3.org/2000/svg" viewBox="0 0 256 256">
  <path d="M176,144H16v40a8,8,0,0,0,8,8H44a24,24,0,0,1,48,0h72a23.99048,23.99048,0,0,1,11.99813-20.78815Z" opacity="0.2"/>
  <path d="M212,192a24.00631,24.00631,0,0,0-36.00187-20.78815L176,120h64v64a8,8,0,0,1-8,8H212" opacity="0.2"/>
  <path d="M240,120H176V80h42.58374a8,8,0,0,1,7.42781,5.02887Z" fill="none" stroke="#000" stroke-linecap="round" stroke-linejoin="round" stroke-width="16"/>
  <line x1="16" y1="144" x2="176" y2="144" fill="none" stroke="#000" stroke-linecap="round" stroke-linejoin="round" stroke-width="16"/>
  <circle cx="188" cy="192" r="24" fill="none" stroke="#000" stroke-miterlimit="10" stroke-width="16"/>
  <circle cx="68" cy="192" r="24" fill="none" stroke="#000" stroke-miterlimit="10" stroke-width="16"/>
  <line x1="164" y1="192" x2="92" y2="192" fill="none" stroke="#000" stroke-linecap="round" stroke-linejoin="round" stroke-width="16"/>
  <path d="M44,192H24a8,8,0,0,1-8-8V72a8,8,0,0,1,8-8H176V171.21508" fill="none" stroke="#000" stroke-linecap="round" stroke-linejoin="round" stroke-width="16"/>
  <path d="M176,171.21508V120h64v64a8,8,0,0,1-8,8H212" fill="none" stroke="#000" stroke-linecap="round" stroke-linejoin="round" stroke-width="16"/>
</svg>
