<svg id="Layer_1" data-name="Layer 1" xmlns="http://www.w3.org/2000/svg" viewBox="0 0 256 256">
  <path d="M183.99975,112H245.416l-11.9768-29.94238A15.92368,15.92368,0,0,0,218.58374,72h-34.584Z"/>
  <path d="M183.99975,144a8.00039,8.00039,0,0,1-8,8h-168v32a16.01833,16.01833,0,0,0,16,16h13.0127a32.00444,32.00444,0,0,0,61.97461,0h58.02539a32.00444,32.00444,0,0,0,61.97461,0h13.01269a16.01833,16.01833,0,0,0,16-16V128h-64Zm-116,64a16,16,0,1,1,16-16A16.01833,16.01833,0,0,1,67.99975,208Zm136-16a16,16,0,1,1-16-16A16.01833,16.01833,0,0,1,203.99975,192Z"/>
  <path d="M167.99975,120V56h-144a16.01833,16.01833,0,0,0-16,16v64h160Z"/>
</svg>
