<svg id="Raw" xmlns="http://www.w3.org/2000/svg" viewBox="0 0 256 256">
  <rect width="256" height="256" fill="none"/>
  <path d="M247.99682,119.94092c-.00073-.084-.00952-.168-.01269-.252-.00855-.22216-.02271-.44287-.04907-.66015-.01148-.09424-.02808-.188-.04322-.28223-.03393-.21631-.07568-.4292-.12695-.63965-.02051-.08447-.0415-.16845-.06494-.25293q-.10035-.36108-.23364-.708c-.0149-.03858-.02344-.07862-.03882-.11719l-.04956-.12354-.01075-.02734-13.928-34.82031A15.92368,15.92368,0,0,0,218.58374,72h-34.584V64a8.00039,8.00039,0,0,0-8-8h-152a16.01833,16.01833,0,0,0-16,16V184a16.01833,16.01833,0,0,0,16,16h13.0127a32.00444,32.00444,0,0,0,61.97461,0h58.02539a32.00444,32.00444,0,0,0,61.97461,0h13.01269a16.01833,16.01833,0,0,0,16-16V120C247.99975,119.98,247.99682,119.96094,247.99682,119.94092ZM183.99975,88h34.584l9.59961,24h-44.1836Zm-160-16h144v64h-144Zm44,136a16,16,0,1,1,16-16A16.01833,16.01833,0,0,1,67.99975,208Zm120,0a16,16,0,1,1,16-16A16.01833,16.01833,0,0,1,187.99975,208Z"/>
</svg>
