<svg id="Raw" xmlns="http://www.w3.org/2000/svg" viewBox="0 0 256 256">
  <rect width="256" height="256" fill="none"/>
  <path d="M207.99463,39.99512h-160a16.018,16.018,0,0,0-16,16v58.667c0,89.458,75.82617,119.125,91.02588,124.16406a15.48947,15.48947,0,0,0,9.94775,0c15.2002-5.03906,91.02637-34.70605,91.02637-124.16406v-58.667A16.018,16.018,0,0,0,207.99463,39.99512Zm-80.00244,183.623C115.27393,219.38965,55.67285,196.00488,48.67383,128H128V55.99512h79.99463v58.667A130.11069,130.11069,0,0,1,207.31592,128H128v95.61548Z"/>
</svg>
