<svg id="Raw" xmlns="http://www.w3.org/2000/svg" viewBox="0 0 256 256">
  <rect width="256" height="256" fill="none"/>
  <path d="M48,48h80a0,0,0,0,1,0,0v80a0,0,0,0,1,0,0H40a0,0,0,0,1,0,0V56A8,8,0,0,1,48,48Z" opacity="0.2"/>
  <path d="M215.37082,128.00012c-7.03543,73.66468-71.46406,98.77141-84.92,103.23262A7.75437,7.75437,0,0,1,128,231.64358V128h87.37Z" opacity="0.2"/>
  <path d="M39.99463,114.66215V55.99548a8,8,0,0,1,8-8h160a8,8,0,0,1,8,8v58.66667c0,84.01533-71.306,111.85016-85.5438,116.57059a7.54755,7.54755,0,0,1-4.9124,0C111.30065,226.51231,39.99463,198.67748,39.99463,114.66215Z" fill="none" stroke="#000" stroke-linecap="round" stroke-linejoin="round" stroke-width="16"/>
  <line x1="40.62051" y1="128" x2="215.36996" y2="128" fill="none" stroke="#000" stroke-linecap="round" stroke-linejoin="round" stroke-width="16"/>
  <line x1="128" y1="48" x2="128" y2="231.64356" fill="none" stroke="#000" stroke-linecap="round" stroke-linejoin="round" stroke-width="16"/>
</svg>
