<svg id="Raw" xmlns="http://www.w3.org/2000/svg" viewBox="0 0 256 256">
  <rect width="256" height="256" fill="none"/>
  <path d="M240,108a28,28,0,1,1-28-28A28.03146,28.03146,0,0,1,240,108ZM72,108a28,28,0,1,0-28,28A28.03146,28.03146,0,0,0,72,108ZM92,88A28,28,0,1,0,64,60,28.03146,28.03146,0,0,0,92,88Zm72,0a28,28,0,1,0-28-28A28.03146,28.03146,0,0,0,164,88Zm23.0918,60.84473a35.3317,35.3317,0,0,1-16.8418-21.124,43.99839,43.99839,0,0,0-84.5-.00439,35.2806,35.2806,0,0,1-16.7998,21.105,40.00718,40.00718,0,0,0,34.57226,72.05176,64.08634,64.08634,0,0,1,48.86524-.03711,40.0067,40.0067,0,0,0,34.7041-71.99121Z"/>
</svg>
