<svg xmlns="http://www.w3.org/2000/svg" width="16" height="16" viewBox="0 0 16 16">
  <g fill="none" fill-rule="evenodd">
    <polygon points="0 16 15.999 16 15.999 0 0 0"/>
    <path fill="#000" fill-rule="nonzero" d="M2.6246,3.4998 C2.6246,2.46469322 3.46449322,1.6248 4.4996,1.6248 L4.4996,1.6248 L12.9996,1.6248 C13.2067068,1.6248 13.3746,1.79269322 13.3746,1.9998 L13.3746,1.9998 L13.3746,12.4998 C13.3746,12.7069068 13.2067068,12.8748 12.9996,12.8748 L12.9996,12.8748 L4.4996,12.8748 C3.87870678,12.8748 3.3746,13.3789068 3.3746,13.9998 L3.3746,13.9998 L3.374,14.124 L11.9996,14.1248 C12.1808184,14.1248 12.332014,14.2533432 12.3669813,14.4242244 L12.3746,14.4998 C12.3746,14.6810184 12.2460568,14.832214 12.0751756,14.8671813 L11.9996,14.8748 L2.9996,14.8748 C2.81838157,14.8748 2.66718602,14.7462568 2.63221867,14.5753756 L2.6246,14.4998 Z M12.624,2.374 L4.4996,2.3748 C3.87870678,2.3748 3.3746,2.87890678 3.3746,3.4998 L3.3746,3.4998 L3.374,12.501 L3.43725327,12.4548263 C3.70152449,12.2727064 4.01477415,12.1566199 4.3531252,12.1304439 L4.3531252,12.1304439 L4.4996,12.1248 L12.624,12.124 L12.624,2.374 Z"/>
  </g>
</svg>
