<svg xmlns="http://www.w3.org/2000/svg" width="16" height="16" viewBox="0 0 16 16">
  <g fill="none" fill-rule="evenodd">
    <polygon points="0 16 16 16 16 0 0 0"/>
    <path fill="#000" fill-rule="nonzero" d="M2.5,3.5 C2.5,2.39556369 3.39515137,1.5 4.5,1.5 L4.5,1.5 L13,1.5 C13.2761424,1.5 13.5,1.72385763 13.5,2 L13.5,2 L13.5,12.5 C13.5,12.7761424 13.2761424,13 13,13 L13,13 L4.5,13 C3.94753924,13 3.5,13.4477454 3.5,14 L3.5,14 L12,14 C12.2454599,14 12.4496084,14.1768752 12.4919443,14.4101244 L12.5,14.5 C12.5,14.7454599 12.3231248,14.9496084 12.0898756,14.9919443 L12,15 L3,15 C2.75454011,15 2.55039163,14.8231248 2.50805567,14.5898756 L2.5,14.5 Z M12.5,2.5 L4.5,2.5 C3.94753924,2.5 3.5,2.94774538 3.5,3.5 L3.5,3.5 L3.5,12.268 L3.53114108,12.2498796 C3.77714375,12.1134113 4.05496597,12.0273036 4.35070297,12.0054865 L4.35070297,12.0054865 L4.5,12 L12.5,12 L12.5,2.5 Z"/>
  </g>
</svg>
