<svg xmlns="http://www.w3.org/2000/svg" width="16" height="16" viewBox="0 0 16 16">
  <g fill="none" fill-rule="evenodd">
    <polygon points="0 16 15.999 16 15.999 0 0 0"/>
    <path fill="#000" fill-rule="nonzero" d="M2.7496,3.4998 C2.7496,2.53372881 3.53352881,1.7498 4.4996,1.7498 L4.4996,1.7498 L12.9996,1.7498 C13.1376712,1.7498 13.2496,1.86172881 13.2496,1.9998 L13.2496,1.9998 L13.2496,12.4998 C13.2496,12.6378712 13.1376712,12.7498 12.9996,12.7498 L12.9996,12.7498 L4.4996,12.7498 C3.80967119,12.7498 3.2496,13.3098712 3.2496,13.9998 L3.2496,13.9998 L3.249,14.249 L11.9996,14.2498 C12.1179467,14.2498 12.2170868,14.3320334 12.2429973,14.4424773 L12.2496,14.4998 C12.2496,14.6181467 12.1673666,14.7172868 12.0569227,14.7431973 L11.9996,14.7498 L2.9996,14.7498 C2.88125327,14.7498 2.78211318,14.6675666 2.75620268,14.5571227 L2.7496,14.4998 Z M12.749,2.249 L4.4996,2.2498 C3.80967119,2.2498 3.2496,2.80987119 3.2496,3.4998 L3.2496,3.4998 L3.249,12.776 L3.37370139,12.6603154 C3.64378224,12.4330284 3.98350432,12.2858791 4.35613061,12.2556042 L4.35613061,12.2556042 L4.4996,12.2498 L12.749,12.249 L12.749,2.249 Z"/>
  </g>
</svg>
