<svg xmlns="http://www.w3.org/2000/svg" width="16" height="16" viewBox="0 0 16 16">
  <g fill="none" fill-rule="evenodd">
    <polygon points="0 16 15.999 16 15.999 0 0 0"/>
    <path fill="#000" d="M12.9996,1.4998 L4.4996,1.4998 C3.3966,1.4998 2.4996,2.3968 2.4996,3.4998 L2.4996,13.9998 L2.4996,14.4998 C2.4996,14.7758 2.7236,14.9998 2.9996,14.9998 L11.9996,14.9998 C12.2756,14.9998 12.4996,14.7758 12.4996,14.4998 C12.4996,14.2238 12.2756,13.9998 11.9996,13.9998 L3.4996,13.9998 C3.4996,13.4488 3.9476,12.9998 4.4996,12.9998 L12.9996,12.9998 C13.2756,12.9998 13.4996,12.7758 13.4996,12.4998 L13.4996,1.9998 C13.4996,1.7238 13.2756,1.4998 12.9996,1.4998"/>
  </g>
</svg>
