<svg xmlns="http://www.w3.org/2000/svg" width="16" height="16" viewBox="0 0 16 16">
  <g fill="none" fill-rule="evenodd">
    <polygon points="0 16 15.999 16 15.999 0 0 0"/>
    <path fill="#000" fill-rule="nonzero" d="M2.2496,3.4998 C2.2496,2.25758644 3.25738644,1.2498 4.4996,1.2498 L4.4996,1.2498 L12.9996,1.2498 C13.4138136,1.2498 13.7496,1.58558644 13.7496,1.9998 L13.7496,1.9998 L13.7496,12.4998 C13.7496,12.9140136 13.4138136,13.2498 12.9996,13.2498 L12.9996,13.2498 L4.4996,13.2498 C4.1738931,13.2498 3.89624925,13.4581131 3.79280732,13.7486005 L11.9996,13.7498 C12.3792958,13.7498 12.693091,14.0319539 12.7427534,14.3980294 L12.7496,14.4998 C12.7496,14.8794958 12.4674461,15.193291 12.1013706,15.2429534 L11.9996,15.2498 L2.9996,15.2498 C2.61990423,15.2498 2.30610904,14.9676461 2.25644662,14.6015706 L2.2496,14.4998 Z M12.249,2.749 L4.4996,2.7498 C4.08581356,2.7498 3.7496,3.08601356 3.7496,3.4998 L3.7496,3.4998 L3.749,11.878 L3.94942524,11.8176106 C4.07748435,11.7854013 4.2098963,11.7641751 4.34560022,11.7549929 L4.34560022,11.7549929 L4.4996,11.7498 L12.249,11.749 L12.249,2.749 Z"/>
  </g>
</svg>
