<svg xmlns="http://www.w3.org/2000/svg" width="16" height="16" viewBox="0 0 16 16">
  <g fill="none" fill-rule="evenodd">
    <polygon points="0 16 15.999 16 15.999 0 0 0"/>
    <path fill="#000" d="M2.9996,13.9998 C2.9996,13.1718 3.6716,12.4998 4.4996,12.4998 L12.9996,12.4998 L12.9996,1.9998 L4.4996,1.9998 C3.6716,1.9998 2.9996,2.6718 2.9996,3.4998 L2.9996,13.9998 Z" opacity=".2"/>
    <path fill="#000" fill-rule="nonzero" d="M2.4996,3.4998 C2.4996,2.39565763 3.39545763,1.4998 4.4996,1.4998 L4.4996,1.4998 L12.9996,1.4998 C13.2757424,1.4998 13.4996,1.72365763 13.4996,1.9998 L13.4996,1.9998 L13.4996,12.4998 C13.4996,12.7759424 13.2757424,12.9998 12.9996,12.9998 L12.9996,12.9998 L4.4996,12.9998 C3.94774237,12.9998 3.4996,13.4479424 3.4996,13.9998 L3.4996,13.9988 L11.9996,13.9998 C12.2450599,13.9998 12.4492084,14.1766752 12.4915443,14.4099244 L12.4996,14.4998 C12.4996,14.7452599 12.3227248,14.9494084 12.0894756,14.9917443 L11.9996,14.9998 L2.9996,14.9998 C2.75414011,14.9998 2.54999163,14.8229248 2.50765567,14.5896756 L2.4996,14.4998 Z M12.499,2.499 L4.4996,2.4998 C3.94774237,2.4998 3.4996,2.94794237 3.4996,3.4998 L3.4996,3.4998 L3.499,12.268 L3.53105448,12.2497405 C3.77705117,12.1132455 4.05481251,12.0271122 4.35039072,12.0052883 L4.35039072,12.0052883 L4.4996,11.9998 L12.499,11.999 L12.499,2.499 Z"/>
  </g>
</svg>
