<svg id="Raw" xmlns="http://www.w3.org/2000/svg" viewBox="0 0 256 256">
  <rect width="256" height="256" fill="none"/>
  <path d="M208,40H48a8,8,0,0,0-8,8V208a8,8,0,0,0,8,8H208a8,8,0,0,0,8-8V48A8,8,0,0,0,208,40ZM57.78418,215.99976A72.0276,72.0276,0,0,1,128,160a40,40,0,1,1,40-40,40.00006,40.00006,0,0,1-40,40,72.02755,72.02755,0,0,1,70.21582,55.99976Z" opacity="0.2"/>
  <circle cx="128" cy="120" r="40" fill="none" stroke="#000" stroke-linecap="round" stroke-linejoin="round" stroke-width="16"/>
  <rect x="40" y="40" width="176" height="176" rx="8" stroke-width="16" stroke="#000" stroke-linecap="round" stroke-linejoin="round" fill="none"/>
  <path d="M57.78418,215.99979a72.02025,72.02025,0,0,1,140.43164,0" fill="none" stroke="#000" stroke-linecap="round" stroke-linejoin="round" stroke-width="16"/>
</svg>
