<svg id="Layer_1" data-name="Layer 1" xmlns="http://www.w3.org/2000/svg" viewBox="0 0 256 256">
  <circle cx="128" cy="120" r="44"/>
  <path d="M208,32H48A16.01833,16.01833,0,0,0,32,48V208a16.01833,16.01833,0,0,0,16,16H208a16.01833,16.01833,0,0,0,16-16V48A16.01833,16.01833,0,0,0,208,32Zm0,176h-3.67322a80.44452,80.44452,0,0,0-26.069-38.24561,79.23073,79.23073,0,0,0-8.98218-6.26953,59.83684,59.83684,0,0,1-82.55126,0,79.23073,79.23073,0,0,0-8.98218,6.26953A80.44452,80.44452,0,0,0,51.67322,208H48V48H208l.01025,159.99951Z"/>
</svg>
