<svg id="Layer_1" data-name="Layer 1" xmlns="http://www.w3.org/2000/svg" viewBox="0 0 256.00098 256.00098">
  <path d="M80.00049,144.00048v40a8,8,0,0,0,8,8h96.41709l39.58291,32v-128a8,8,0,0,0-8-8h-40v48a8,8,0,0,1-8,8Z" opacity="0.2"/>
  <path d="M71.5834,144.00049l-39.58291,32v-128a8,8,0,0,1,8-8h128a8,8,0,0,1,8,8v88a8,8,0,0,1-8,8Z" fill="none" stroke="#000" stroke-linecap="round" stroke-linejoin="round" stroke-width="16"/>
  <path d="M80.00049,144.00048v40a8,8,0,0,0,8,8h96.41709l39.58291,32v-128a8,8,0,0,0-8-8h-40" fill="none" stroke="#000" stroke-linecap="round" stroke-linejoin="round" stroke-width="16"/>
</svg>
