<svg id="Raw" xmlns="http://www.w3.org/2000/svg" viewBox="0 0 256 256">
  <rect width="256" height="256" fill="none"/>
  <path d="M228.68652,88A15.89427,15.89427,0,0,0,224,76.68652L179.31348,31.999A16.02162,16.02162,0,0,0,156.68555,32l-120,120.00049a15.953,15.953,0,0,0-3.56836,5.4458,7.95719,7.95719,0,0,0-.27149.75976A16.00722,16.00722,0,0,0,32,163.31348V208a16.01833,16.01833,0,0,0,16,16H92.68652a16.00666,16.00666,0,0,0,5.15869-.86377c.23829-.07324.47388-.15674.70582-.25244A15.94661,15.94661,0,0,0,104,219.31348l83.666-83.666,3.4746,13.89844-36.79785,36.79736a8.00018,8.00018,0,0,0,11.31446,11.31348l40-40a8.00081,8.00081,0,0,0,2.10351-7.59717l-6.90136-27.60547L223.999,99.31445A15.895,15.895,0,0,0,228.68652,88ZM192,108.68555,147.314,64,168,43.31348,212.68555,88Z"/>
</svg>
