<svg xmlns="http://www.w3.org/2000/svg" width="16" height="16" viewBox="0 0 16 16">
  <g fill="none" fill-rule="evenodd">
    <polygon points="0 16 15.999 16 15.999 0 0 0"/>
    <path fill="#000" fill-rule="nonzero" d="M9.88143496,2.08863496 C10.2227687,1.74730123 10.7756826,1.74730123 11.118086,2.08795766 L11.118086,2.08795766 L13.9124423,4.88131399 C14.2530988,5.22371737 14.2530988,5.77763132 13.911765,6.11896504 L13.911765,6.11896504 L12.4146,7.61554994 L12.8634034,9.40884914 C12.8889616,9.51108165 12.8701094,9.61804504 12.8138572,9.70443012 L12.764765,9.76496504 L10.264765,12.264965 C10.1183184,12.4114117 9.88088157,12.4114117 9.73443496,12.264965 C9.60890929,12.1394394 9.59097705,11.9470637 9.68063824,11.8024381 L9.73443496,11.734635 L12.084,9.384 L11.7966,8.23354994 L6.41176504,13.618965 C6.381211,13.6495191 6.3486489,13.6775567 6.31438698,13.7029572 C6.30096497,13.7246059 6.28414768,13.7455824 6.26476504,13.764965 C6.17114382,13.8585863 6.04033613,13.8923568 5.91988752,13.8662766 L5.90778347,13.867259 L5.90778347,13.867259 L5.7926,13.8748 L2.9996,13.8748 C2.51726369,13.8748 2.1246,13.4826779 2.1246,12.9998 L2.1246,12.9998 L2.1246,10.2078 C2.1246,10.163581 2.12794758,10.1197244 2.13450097,10.076561 C2.10742241,9.95760349 2.14133676,9.82773316 2.23443496,9.73463496 L2.29955718,9.68305783 C2.32442534,9.64988011 2.35175832,9.6183116 2.38143496,9.58863496 L2.38143496,9.58863496 L8.2298011,3.73934955 C8.23132907,3.73776783 8.23287369,3.73619622 8.23443496,3.73463496 L8.2386,3.73054994 Z M2.8746,10.9055499 L2.8746,12.9998 C2.8746,13.0682324 2.9312457,13.1248 2.9996,13.1248 L2.9996,13.1248 L5.0936,13.1245499 L2.8746,10.9055499 Z M8.4996,4.53054994 L3.0306,10.0005499 L5.9996,12.9695499 L11.4696,7.50054994 L8.4996,4.53054994 Z M10.589114,2.61964234 C10.5395174,2.57029877 10.4604313,2.57029877 10.411765,2.61896504 L10.411765,2.61896504 L9.0306,4.00054994 L11.9996,6.96954994 L13.381435,5.58863496 C13.4179347,5.55213525 13.4270596,5.49796192 13.4088298,5.45253941 L13.3814824,5.41101252 Z"/>
  </g>
</svg>
