<svg id="Raw" xmlns="http://www.w3.org/2000/svg" viewBox="0 0 256 256">
  <rect width="256" height="256" fill="none"/>
  <path d="M92.68629,216H48a8,8,0,0,1-8-8V163.31371a8,8,0,0,1,2.34315-5.65686l120-120a8,8,0,0,1,11.3137,0l44.6863,44.6863a8,8,0,0,1,0,11.3137l-120,120A8,8,0,0,1,92.68629,216Z" fill="none" stroke="#000" stroke-linecap="round" stroke-linejoin="round" stroke-width="8"/>
  <line x1="136" y1="64" x2="192" y2="120" fill="none" stroke="#000" stroke-linecap="round" stroke-linejoin="round" stroke-width="8"/>
  <polyline points="160 192 200 152 192 120" fill="none" stroke="#000" stroke-linecap="round" stroke-linejoin="round" stroke-width="8"/>
  <line x1="40.50826" y1="160.50826" x2="95.49177" y2="215.49177" fill="none" stroke="#000" stroke-linecap="round" stroke-linejoin="round" stroke-width="8"/>
</svg>
