<svg xmlns="http://www.w3.org/2000/svg" width="16" height="16" viewBox="0 0 16 16">
  <g fill="none" fill-rule="evenodd">
    <polygon points="0 16 15.999 16 15.999 0 0 0"/>
    <path fill="#000" d="M11.9996,7.4998 L8.4996,3.9998 L10.1456,2.3538 C10.3416,2.1588 10.6576,2.1588 10.8536,2.3538 L13.6456,5.1458 C13.8416,5.3418 13.8416,5.6588 13.6456,5.8538 L11.9996,7.4998 Z" opacity=".2"/>
    <path fill="#000" fill-rule="nonzero" d="M9.79304661,2.00024661 C10.1831582,1.61013498 10.8150435,1.61013498 11.206248,1.99934354 L11.206248,1.99934354 L14.0010565,4.79315199 C14.390265,5.1843565 14.390265,5.81724176 14.0001534,6.20735339 L14.0001534,6.20735339 L12.5536,7.6525499 L12.9846713,9.37853219 C13.0201686,9.52052178 12.991415,9.66935582 12.9089752,9.78689233 L12.8531534,9.85335339 L10.3531534,12.3533534 C10.1578912,12.5486155 9.84130876,12.5486155 9.64604661,12.3533534 C9.47248026,12.179787 9.45319511,11.9103626 9.58819116,11.7154945 L9.64604661,11.6462466 L11.945,9.347 L11.7276,8.4785499 L6.50015339,13.7073534 C6.47074844,13.7367583 6.43971644,13.7641244 6.40726852,13.7893691 C6.39132673,13.8118175 6.37327703,13.8332298 6.35315339,13.8533534 C6.23511794,13.9713888 6.07274997,14.0180722 5.91964726,13.9934034 L5.7926,13.9998 L2.9996,13.9998 C2.44826669,13.9998 1.9996,13.5517522 1.9996,12.9998 L1.9996,12.9998 L1.9996,10.2078 C1.9996,10.1648715 2.00236046,10.1222421 2.00778172,10.0801437 C1.98121496,9.92704301 2.02786834,9.76442488 2.14604661,9.64624661 C2.16802787,9.62426534 2.1915466,9.60475858 2.21625662,9.58772631 L2.29304661,9.50024661 L8.14044152,3.65194014 C8.14229166,3.65003112 8.14416002,3.6481332 8.14604661,3.64624661 L8.1516,3.6405499 Z M2.9996,11.2065499 L2.9996,12.9998 L4.7926,12.9995499 L2.9996,11.2065499 Z M8.4996,4.7065499 L3.2066,9.9995499 L5.9996,12.7925499 L11.2926,7.4995499 L8.4996,4.7065499 Z M10.5001099,2.70741669 L9.2066,3.9995499 L11.9996,6.7925499 L13.2930466,5.50024661 L10.5001099,2.70741669 Z"/>
  </g>
</svg>
