<svg xmlns="http://www.w3.org/2000/svg" width="16" height="16" viewBox="0 0 16 16">
  <g fill="none" fill-rule="evenodd">
    <polygon points="0 16 15.999 16 15.999 0 0 0"/>
    <path fill="#000" d="M11.9996,6.7932 L9.2066,4.0002 L10.4996,2.7072 L13.2926,5.5002 L11.9996,6.7932 Z M13.9996,4.7932 L11.2066,2.0002 C10.8156,1.6102 10.1836,1.6102 9.7926,2.0002 L8.1476,3.6452 C8.1466,3.6462 8.1456,3.6462 8.1456,3.6462 C8.1456,3.6472 8.1456,3.6472 8.1456,3.6472 L2.2926,9.5002 C2.2676,9.5252 2.2566,9.5602 2.2336,9.5882 C2.2046,9.6072 2.1716,9.6202 2.1456,9.6462 C2.0206,9.7712 1.9846,9.9432 2.0206,10.1042 C2.0166,10.1392 1.9996,10.1712 1.9996,10.2072 L1.9996,13.0002 C1.9996,13.5512 2.4476,14.0002 2.9996,14.0002 L5.7926,14.0002 C5.8286,14.0002 5.8596,13.9832 5.8956,13.9802 C5.9306,13.9872 5.9646,14.0002 5.9996,14.0002 C6.1276,14.0002 6.2556,13.9512 6.3536,13.8532 C6.3786,13.8282 6.3926,13.7962 6.4106,13.7672 C6.4386,13.7442 6.4746,13.7332 6.4996,13.7072 L11.7286,8.4782 L11.9456,9.3462 L9.6456,11.6462 C9.4506,11.8412 9.4506,12.1582 9.6456,12.3532 C9.7436,12.4512 9.8716,12.5002 9.9996,12.5002 C10.1276,12.5002 10.2556,12.4512 10.3536,12.3532 L12.8536,9.8532 C12.9776,9.7292 13.0266,9.5492 12.9846,9.3782 L12.5536,7.6532 L13.9996,6.2072 C14.3896,5.8172 14.3896,5.1832 13.9996,4.7932 L13.9996,4.7932 Z"/>
  </g>
</svg>
