<svg xmlns="http://www.w3.org/2000/svg" width="16" height="16" viewBox="0 0 16 16">
  <g fill="none" fill-rule="evenodd">
    <polygon points="0 16 15.999 16 15.999 0 0 0"/>
    <path fill="#000" fill-rule="nonzero" d="M9.9698233,2.1770233 C10.2623791,1.88446749 10.7363218,1.88446749 11.029924,2.17657177 L11.029924,2.17657177 L13.8238282,4.969476 C14.1159325,5.26307825 14.1159325,5.73802088 13.8233767,6.0305767 L13.8233767,6.0305767 L12.2766,7.57654997 L12.7421356,9.43916609 C12.7581095,9.50306141 12.7480616,9.56972873 12.715843,9.6252653 L12.6763767,9.6765767 L10.1763767,12.1765767 C10.0787456,12.2742078 9.92045438,12.2742078 9.8228233,12.1765767 C9.74146408,12.0952175 9.72790421,11.9717331 9.78214369,11.8763322 L9.8228233,11.8230233 L12.223,9.422 L11.8636,7.98954997 L6.3233767,13.5305767 C6.29155866,13.5623947 6.25719933,13.5910281 6.22077027,13.616291 C6.20977616,13.6375296 6.19481812,13.6581353 6.1763767,13.6765767 C6.10803494,13.7449184 6.00996971,13.765421 5.92379387,13.7380843 L5.91087243,13.7405164 L5.91087243,13.7405164 L5.7926,13.7498 L2.9996,13.7498 C2.5862607,13.7498 2.2496,13.4136037 2.2496,12.9998 L2.2496,12.9998 L2.2496,10.2078 C2.2496,10.1627649 2.25365138,10.1181681 2.26155125,10.0744843 C2.23397903,9.98943029 2.25448155,9.89136506 2.3228233,9.8230233 C2.34180712,9.80403948 2.36308442,9.78874696 2.38576329,9.77714574 C2.41027642,9.74205844 2.43852935,9.70831726 2.4698233,9.6770233 L2.4698233,9.6770233 L8.31918546,3.82673605 C8.32038262,3.82548903 8.32159524,3.82425137 8.3228233,3.8230233 L8.3266,3.81954997 Z M2.7486,10.60255 L2.7496,12.9998 C2.7496,13.1373067 2.8622487,13.2498 2.9996,13.2498 L2.9996,13.2498 L5.3956,13.24955 L2.7486,10.60255 Z M8.4996,4.35354997 L2.8536,10.00055 L5.9996,13.14655 L11.6466,7.50054997 L8.4996,4.35354997 Z M10.6236623,2.49023626 C10.5278762,2.4358393 10.4045802,2.44937321 10.3233767,2.5305767 L10.3233767,2.5305767 L8.8536,4.00054997 L11.9996,7.14654997 L13.4698233,5.6770233 C13.5510268,5.59581982 13.5645607,5.4718294 13.5104434,5.37609206 L13.469855,5.32260834 L10.676855,2.53060834 Z"/>
  </g>
</svg>
