<svg xmlns="http://www.w3.org/2000/svg" width="16" height="16" viewBox="0 0 16 16">
  <g fill="none" fill-rule="evenodd">
    <polygon points="0 16 15.999 16 15.999 0 0 0"/>
    <path fill="#000" fill-rule="nonzero" d="M9.61626991,1.82346991 C10.1039374,1.33580246 10.8937653,1.33580246 11.382572,1.82211531 L11.382572,1.82211531 L14.1782847,4.61682799 C14.6645975,5.10563475 14.6645975,5.89646263 14.1769301,6.38413009 L14.1769301,6.38413009 L12.8295743,7.73054982 L13.2272069,9.31789828 C13.2819743,9.53696794 13.2347793,9.76689932 13.1028665,9.94543402 L13.0299301,10.0301301 L10.5299301,12.5301301 C10.2370369,12.8230233 9.76216313,12.8230233 9.46926991,12.5301301 C9.20300335,12.2638635 9.1787973,11.8471998 9.39665176,11.5535883 L9.46926991,11.4694699 L11.668,9.27 L11.5925743,8.96754982 L6.67693009,13.8841301 C6.64844584,13.9126143 6.61874055,13.9395685 6.58793765,13.9649446 C6.57027762,13.9873597 6.55085103,14.0092091 6.52993009,14.0301301 C6.36160065,14.1984595 6.13316403,14.2700479 5.91370894,14.2448952 L5.7926,14.2498 L2.9996,14.2498 C2.31027269,14.2498 1.7496,13.6899006 1.7496,12.9998 L1.7496,12.9998 L1.7496,10.2078 C1.7496,10.1684389 1.7514564,10.129279 1.7551198,10.0904351 C1.72815495,9.87008211 1.79952498,9.63921485 1.96926991,9.46946991 L2.03757429,9.41054982 L2.11626991,9.32346991 L7.96274081,3.47607871 C7.96490076,3.47386568 7.96707713,3.4716627 7.96926991,3.46946991 L7.97457429,3.46354982 Z M3.24857429,11.8095498 L3.249,12.749 L4.18757429,12.7485498 L3.24857429,11.8095498 Z M8.49957429,5.06054982 L3.56057429,9.99954982 L5.99957429,12.4385498 L10.9385743,7.49954982 L8.49957429,5.06054982 Z M10.5,3.06 L9.56057429,3.99954982 L11.9995743,6.43854982 L12.939,5.5 L10.5,3.06 Z"/>
  </g>
</svg>
