<svg xmlns="http://www.w3.org/2000/svg" width="16" height="16" viewBox="0 0 16 16">
  <g fill="none" fill-rule="evenodd">
    <polygon points="0 16 16 16 16 0 0 0"/>
    <path fill="#000" fill-rule="nonzero" d="M9.79254354,2.00135199 C10.1828603,1.60903357 10.8161403,1.60903357 11.2075534,2.00044661 L11.2075534,2.00044661 L14.0014565,4.79335199 C14.3905145,5.18440521 14.3905145,5.81559479 14.0005534,6.20755339 L14.0005534,6.20755339 L12.554,7.6529999 L12.9850713,9.37873219 C13.0205686,9.52072178 12.991815,9.66955582 12.9093752,9.78709233 L12.8535534,9.85355339 L10.3535534,12.3535534 C10.1582912,12.5488155 9.84170876,12.5488155 9.64644661,12.3535534 C9.47288026,12.179987 9.45359511,11.9105626 9.58859116,11.7156945 L9.64644661,11.6464466 L11.945,9.347 L11.728,8.4789999 L6.4986577,13.709439 C6.47053118,13.7372663 6.44093018,13.7632777 6.41003817,13.7873927 C6.39341433,13.8100073 6.37462032,13.8324865 6.35355339,13.8535534 C6.23551794,13.9715888 6.07314997,14.0182722 5.92004726,13.9936034 L5.793,14 L2.5,14 C2.22385763,14 2,13.7761424 2,13.5 L2,13.5 L2,10.2069999 C2,10.1642929 2.00273254,10.121876 2.00809305,10.0799908 C1.98152386,9.92756083 2.02815288,9.76474034 2.14644661,9.64644661 L2.2156945,9.58859116 L2.2156945,9.58859116 L2.29344661,9.50044661 L8.14084152,3.65214014 C8.14269166,3.65023112 8.14456002,3.6483332 8.14644661,3.64644661 L8.152,3.6409999 Z M3,11.2069999 L3,13 L4.793,12.9999999 L3,11.2069999 Z M8.5,4.7069999 L3.207,9.9999999 L6,12.7929999 L11.293,7.4999999 L8.5,4.7069999 Z M10.5005534,2.70755339 L9.207,3.9999999 L12,6.7929999 L13.2933708,5.50012109 L10.5005534,2.70755339 Z"/>
  </g>
</svg>
