<svg id="Raw" xmlns="http://www.w3.org/2000/svg" viewBox="0 0 256 256">
  <rect width="256" height="256" fill="none"/>
  <path d="M120,48a32,32,0,1,1,32,32A32.03667,32.03667,0,0,1,120,48Zm88,88c-28.49561,0-41.65088-14.13086-55.57861-29.09277-3.52686-3.78809-7.17383-7.70606-10.99366-11.2334-37.2207-34.374-96.57617,24.16113-99.085,26.66894a8.00019,8.00019,0,0,0,11.31055,11.31739A165.05558,165.05558,0,0,1,84.21191,110.501c14.32227-8.15454,26.27442-11.08594,35.71534-8.79737l-17.69483,40.698-.02441.05567L64.66309,228.81055a8.00018,8.00018,0,1,0,14.67382,6.3789l33.59327-77.26538L144,180.11719V232a8,8,0,0,0,16,0V176a8.00054,8.00054,0,0,0-3.3501-6.50977L119.45312,142.9209,133.6084,110.364c2.33789,2.33814,4.67285,4.83619,7.10205,7.44556C154.89111,133.042,172.53906,152,208,152a8,8,0,0,0,0-16Z"/>
</svg>
