<svg id="Layer_1" data-name="Layer 1" xmlns="http://www.w3.org/2000/svg" viewBox="0 0 256.00098 256.00098">
  <circle cx="128.00195" cy="128.00049" r="56" fill="none" stroke="#000" stroke-linecap="round" stroke-linejoin="round" stroke-width="8"/>
  <path d="M55.79,178.92871l-1.1969,18.5649a8.114,8.114,0,0,0,2.47713,6.44109,100.59225,100.59225,0,0,0,40.63508,23.46042,8.11363,8.11363,0,0,0,6.81671-1.07505l15.47879-10.31856,16,0,15.47922,10.319a8.114,8.114,0,0,0,6.81672,1.07529,100.5925,100.5925,0,0,0,40.63486-23.4608,8.11369,8.11369,0,0,0,2.47733-6.441l-1.19674-18.56431,8-13.85642,16.67613-8.24591a8.114,8.114,0,0,0,4.33958-5.36581,100.59251,100.59251,0,0,0-.00022-46.92121,8.11366,8.11366,0,0,0-4.33938-5.36592l-16.67553-8.24575-8-13.85644,1.1969-18.5649a8.114,8.114,0,0,0-2.47713-6.4411,100.59255,100.59255,0,0,0-40.63508-23.46042,8.11364,8.11364,0,0,0-6.81671,1.07506L136.00208,39.99947l-16,0-15.47922-10.319a8.114,8.114,0,0,0-6.81672-1.07528A100.5925,100.5925,0,0,0,57.07124,52.066a8.11365,8.11365,0,0,0-2.47733,6.441l1.19674,18.56431-8,13.85643-16.67613,8.2459a8.114,8.114,0,0,0-4.33958,5.36581,100.59255,100.59255,0,0,0,.00022,46.92122,8.11362,8.11362,0,0,0,4.33938,5.36591L47.79,165.07227Z" fill="none" stroke="#000" stroke-linecap="round" stroke-linejoin="round" stroke-width="8"/>
</svg>
