<svg id="Raw" xmlns="http://www.w3.org/2000/svg" viewBox="0 0 256.00098 256.00098">
  <rect width="256" height="256" fill="none"/>
  <path d="M230.39551,109.76147a8.02782,8.02782,0,0,0-4.0044-5.60522L203.69775,91.55859h0a83.925,83.925,0,0,0-6.28759-10.90991l.437-25.96728a8.00126,8.00126,0,0,0-2.83594-6.25562,103.89316,103.89316,0,0,0-31.606-18.21777,8.02614,8.02614,0,0,0-6.85644.66528L134.292,44.22754h0a83.8907,83.8907,0,0,0-12.59179-.01l.02294.01392-22.293-13.376a8.00112,8.00112,0,0,0-6.83545-.67188,103.89444,103.89444,0,0,0-31.58008,18.2627A8.0265,8.0265,0,0,0,58.1626,54.7168l.437,25.95215h0a83.90687,83.90687,0,0,0-6.30469,10.8999L29.58984,104.1731a8.03308,8.03308,0,0,0-4.00732,5.61938,103.89,103.89,0,0,0,.03174,36.44605,8.02781,8.02781,0,0,0,4.00439,5.60522L52.3125,164.44141H52.312a83.92506,83.92506,0,0,0,6.2876,10.90991l.00049-.02661-.4375,25.99389a8.00126,8.00126,0,0,0,2.83594,6.25562,103.89311,103.89311,0,0,0,31.606,18.21777,8.026,8.026,0,0,0,6.85645-.66528l22.25683-13.35425h0a83.89083,83.89083,0,0,0,12.5918.01l-.023-.01392,22.293,13.376a8.00112,8.00112,0,0,0,6.83545.67188,103.89468,103.89468,0,0,0,31.58008-18.2627,8.02653,8.02653,0,0,0,2.85205-6.27051l-.437-25.95215h0a83.85174,83.85174,0,0,0,6.30468-10.8999l22.70508-12.60425a8.03312,8.03312,0,0,0,4.00733-5.61938A103.89047,103.89047,0,0,0,230.39551,109.76147ZM128.00488,176a48,48,0,1,1,48-48A47.99988,47.99988,0,0,1,128.00488,176Z" opacity="0.2"/>
  <path d="M52.29475,91.56894a83.91125,83.91125,0,0,1,6.30466-10.9001l0,0L58.1626,54.71694a8.02666,8.02666,0,0,1,2.852-6.27063A103.88918,103.88918,0,0,1,92.59485,30.18373a8.00115,8.00115,0,0,1,6.83547.67167l22.2927,13.376-.023-.01381a83.91075,83.91075,0,0,1,12.5921.00995v.00005l22.2566-13.3543a8.02664,8.02664,0,0,1,6.85653-.66537,103.88924,103.88924,0,0,1,31.606,18.218,8.00114,8.00114,0,0,1,2.836,6.25552l-.43756,25.994.00046-.02682a83.91052,83.91052,0,0,1,6.28743,10.91l0,0L226.391,104.15631a8.02663,8.02663,0,0,1,4.00449,5.60524,103.88977,103.88977,0,0,1,.03192,36.44593,8.03463,8.03463,0,0,1-4.00724,5.61943l-22.72861,12.61716.02346-.013a83.9124,83.9124,0,0,1-6.30466,10.9001l0,0,.43686,25.95193a8.02667,8.02667,0,0,1-2.852,6.27063,103.88913,103.88913,0,0,1-31.58021,18.26258,8.00115,8.00115,0,0,1-6.83547-.67167l-22.29271-13.376.023.01381a83.91061,83.91061,0,0,1-12.59209-.01v-.00005L99.46106,225.12674a8.02664,8.02664,0,0,1-6.85654.66538,103.88937,103.88937,0,0,1-31.606-18.218,8.00118,8.00118,0,0,1-2.836-6.25553l.43757-25.994-.00046.02682a83.91174,83.91174,0,0,1-6.28744-10.91005l.00005,0L29.61877,151.84369a8.02666,8.02666,0,0,1-4.0045-5.60525,103.89013,103.89013,0,0,1-.03192-36.44591,8.03467,8.03467,0,0,1,4.00725-5.61944L52.31821,91.55593Z" fill="none" stroke="#000" stroke-linecap="round" stroke-linejoin="round" stroke-width="16"/>
  <circle cx="128.00488" cy="128" r="48" fill="none" stroke="#000" stroke-linecap="round" stroke-linejoin="round" stroke-width="16"/>
</svg>
