<svg id="Raw" xmlns="http://www.w3.org/2000/svg" viewBox="0 0 256.00098 256.00098">
  <rect width="256" height="256" fill="none"/>
  <circle cx="128" cy="128" r="44" fill="none" stroke="#000" stroke-linecap="round" stroke-linejoin="round" stroke-width="24"/>
  <path d="M52.2928,91.56894a83.9101,83.9101,0,0,1,6.30466-10.9001l0,0-.43686-25.95193a8.0267,8.0267,0,0,1,2.852-6.27063A103.88918,103.88918,0,0,1,92.5929,30.18373a8.00115,8.00115,0,0,1,6.83547.67167l22.2927,13.376-.023-.01381a83.91075,83.91075,0,0,1,12.5921.00995v.00005l22.25659-13.3543a8.02665,8.02665,0,0,1,6.85653-.66537,103.88929,103.88929,0,0,1,31.606,18.218,8.00114,8.00114,0,0,1,2.836,6.25552l-.43756,25.994.00046-.02682a83.91167,83.91167,0,0,1,6.28743,10.91l0,0L226.389,104.15631a8.02664,8.02664,0,0,1,4.0045,5.60524,103.89,103.89,0,0,1,.03192,36.44593,8.03466,8.03466,0,0,1-4.00724,5.61943l-22.72861,12.61716.02345-.013a83.9101,83.9101,0,0,1-6.30466,10.9001l0,0,.43686,25.95193a8.0267,8.0267,0,0,1-2.852,6.27063A103.88918,103.88918,0,0,1,163.413,225.81627a8.00115,8.00115,0,0,1-6.83547-.67167l-22.2927-13.376.023.01381a83.91075,83.91075,0,0,1-12.5921-.01v-.00005L99.45911,225.12674a8.02664,8.02664,0,0,1-6.85654.66538,103.88937,103.88937,0,0,1-31.606-18.218,8.00115,8.00115,0,0,1-2.836-6.25553l.43756-25.994-.00046.02682a83.91167,83.91167,0,0,1-6.28743-10.91005l.00005,0L29.61682,151.84369a8.02666,8.02666,0,0,1-4.0045-5.60525,103.88989,103.88989,0,0,1-.03192-36.44591,8.03463,8.03463,0,0,1,4.00724-5.61944L52.31625,91.55593Z" fill="none" stroke="#000" stroke-linecap="round" stroke-linejoin="round" stroke-width="24"/>
</svg>
