<svg id="Layer_1" data-name="Layer 1" xmlns="http://www.w3.org/2000/svg" viewBox="0 0 256.00098 256.00098">
  <circle cx="128.00293" cy="128.00049" r="56" fill="none" stroke="#000" stroke-linecap="round" stroke-linejoin="round" stroke-width="12"/>
  <path d="M55.791,178.92871l-1.1969,18.5649a8.11392,8.11392,0,0,0,2.47713,6.44109,100.59225,100.59225,0,0,0,40.63508,23.46042,8.11362,8.11362,0,0,0,6.8167-1.07505l15.4788-10.31856,16,0,15.47923,10.319a8.11394,8.11394,0,0,0,6.81671,1.07529,100.59233,100.59233,0,0,0,40.63486-23.4608,8.11362,8.11362,0,0,0,2.47733-6.441l-1.19673-18.56431,8-13.85642,16.67612-8.24591a8.114,8.114,0,0,0,4.33958-5.36581,100.59233,100.59233,0,0,0-.00021-46.92121,8.11366,8.11366,0,0,0-4.33938-5.36592l-16.67553-8.24575-8-13.85644,1.1969-18.5649a8.114,8.114,0,0,0-2.47714-6.4411,100.5926,100.5926,0,0,0-40.63507-23.46042,8.11364,8.11364,0,0,0-6.81671,1.07506l-15.4788,10.31856-16,0-15.47922-10.319a8.114,8.114,0,0,0-6.81672-1.07528A100.59233,100.59233,0,0,0,57.07222,52.066a8.11361,8.11361,0,0,0-2.47733,6.441l1.19674,18.56431-8,13.85643-16.67612,8.2459a8.114,8.114,0,0,0-4.33958,5.36581,100.59237,100.59237,0,0,0,.00021,46.92122,8.11362,8.11362,0,0,0,4.33938,5.36591L47.791,165.07227Z" fill="none" stroke="#000" stroke-linecap="round" stroke-linejoin="round" stroke-width="12"/>
</svg>
