<svg id="Raw" xmlns="http://www.w3.org/2000/svg" viewBox="0 0 256.00098 256.00098">
  <rect width="256" height="256" fill="none"/>
  <circle cx="128.00195" cy="128" r="48" fill="none" stroke="#000" stroke-linecap="round" stroke-linejoin="round" stroke-width="12"/>
  <path d="M52.29182,91.56894a83.91125,83.91125,0,0,1,6.30466-10.9001l0,0-.43685-25.95193a8.02666,8.02666,0,0,1,2.852-6.27063A103.88918,103.88918,0,0,1,92.59192,30.18373a8.00115,8.00115,0,0,1,6.83547.67167l22.2927,13.376-.023-.01381a83.91061,83.91061,0,0,1,12.59209.00995v.00005l22.2566-13.3543a8.02664,8.02664,0,0,1,6.85653-.66537,103.88924,103.88924,0,0,1,31.606,18.218,8.00114,8.00114,0,0,1,2.836,6.25552l-.43756,25.994.00046-.02682a83.91052,83.91052,0,0,1,6.28743,10.91l0,0,22.69346,12.59763a8.02663,8.02663,0,0,1,4.00449,5.60524,103.88977,103.88977,0,0,1,.03192,36.44593,8.03463,8.03463,0,0,1-4.00724,5.61943l-22.72861,12.61716.02346-.013a83.9124,83.9124,0,0,1-6.30466,10.9001l-.00005,0,.43686,25.95193a8.02667,8.02667,0,0,1-2.852,6.27063A103.88913,103.88913,0,0,1,163.412,225.81627a8.00115,8.00115,0,0,1-6.83547-.67167l-22.29271-13.376.023.01381a83.91061,83.91061,0,0,1-12.59209-.01v-.00005L99.45813,225.12674a8.02664,8.02664,0,0,1-6.85654.66538,103.88937,103.88937,0,0,1-31.606-18.218,8.00121,8.00121,0,0,1-2.836-6.25553l.43757-25.994-.00046.02682a83.91174,83.91174,0,0,1-6.28744-10.91005l0,0L29.61584,151.84369a8.02666,8.02666,0,0,1-4.0045-5.60525,103.89013,103.89013,0,0,1-.03192-36.44591,8.03467,8.03467,0,0,1,4.00725-5.61944L52.31528,91.55593Z" fill="none" stroke="#000" stroke-linecap="round" stroke-linejoin="round" stroke-width="12"/>
</svg>
