<svg id="Raw" xmlns="http://www.w3.org/2000/svg" viewBox="0 0 256.00098 256.00098">
  <rect width="256" height="256" fill="none"/>
  <path d="M229.23193,104.54053a8.11523,8.11523,0,0,0-4.33935-5.36621L208.2168,90.92871l-8-13.85644,1.19677-18.565a8.11228,8.11228,0,0,0-2.477-6.44091A100.58443,100.58443,0,0,0,158.30176,28.606a8.11334,8.11334,0,0,0-6.8169,1.075l-15.479,10.3186h-16l-15.479-10.31909a8.1135,8.1135,0,0,0-6.8169-1.0752A100.59248,100.59248,0,0,0,57.0752,52.06592a8.11427,8.11427,0,0,0-2.47754,6.44092l1.19677,18.56445-8,13.85644L31.11816,99.17358a8.11442,8.11442,0,0,0-4.33935,5.36573,100.58745,100.58745,0,0,0,.00049,46.92114,8.1132,8.1132,0,0,0,4.33886,5.36621L47.794,165.07227l8,13.85644-1.19678,18.56494a8.11393,8.11393,0,0,0,2.477,6.44092A100.58191,100.58191,0,0,0,97.70947,227.395a8.11256,8.11256,0,0,0,6.81641-1.075l15.479-10.31861h16l15.479,10.3191a8.11344,8.11344,0,0,0,6.81689,1.07519,100.59274,100.59274,0,0,0,40.63477-23.46069,8.11435,8.11435,0,0,0,2.47754-6.44092l-1.19678-18.56445,8-13.85645,16.67627-8.24585a8.113,8.113,0,0,0,4.33935-5.36572,100.59609,100.59609,0,0,0,0-46.92114Zm-101.22607,79.46a56,56,0,1,1,56-56A56.00011,56.00011,0,0,1,128.00586,184.00049Z" opacity="0.2"/>
  <circle cx="128.00586" cy="128.00049" r="56" fill="none" stroke="#000" stroke-linecap="round" stroke-linejoin="round" stroke-width="16"/>
  <path d="M55.794,178.92871,54.597,197.49361a8.114,8.114,0,0,0,2.47714,6.44109,100.59225,100.59225,0,0,0,40.63508,23.46042,8.11362,8.11362,0,0,0,6.8167-1.07505l15.4788-10.31856,16,0,15.47923,10.319a8.11394,8.11394,0,0,0,6.81671,1.07529,100.59233,100.59233,0,0,0,40.63486-23.4608,8.11362,8.11362,0,0,0,2.47733-6.441l-1.19674-18.56431,8-13.85642,16.67612-8.24591a8.114,8.114,0,0,0,4.33958-5.36581,100.59233,100.59233,0,0,0-.00021-46.92121,8.11366,8.11366,0,0,0-4.33938-5.36592L208.2168,90.92871l-8-13.85644,1.1969-18.5649a8.114,8.114,0,0,0-2.47714-6.4411,100.5926,100.5926,0,0,0-40.63507-23.46042,8.11364,8.11364,0,0,0-6.81671,1.07506L136.006,39.99947l-16,0-15.47922-10.319A8.114,8.114,0,0,0,97.71,28.60517,100.59233,100.59233,0,0,0,57.07515,52.066a8.11361,8.11361,0,0,0-2.47733,6.441l1.19674,18.56431-8,13.85643L31.1184,99.17357a8.114,8.114,0,0,0-4.33958,5.36581A100.59237,100.59237,0,0,0,26.779,151.4606a8.11362,8.11362,0,0,0,4.33938,5.36591L47.794,165.07227Z" fill="none" stroke="#000" stroke-miterlimit="10" stroke-width="16"/>
</svg>
