<svg id="Raw" xmlns="http://www.w3.org/2000/svg" viewBox="0 0 256.00098 256.00098">
  <rect width="256" height="256" fill="none"/>
  <path d="M237.46191,104.26611a8.00135,8.00135,0,0,0-3.93554-5.29687L209.75049,85.77051c-1.31592-2.55078-2.75391-5.04639-4.29981-7.46094l.458-27.2124a8.00049,8.00049,0,0,0-2.62158-6.05811A111.13811,111.13811,0,0,0,162.17773,21.3418a8.00131,8.00131,0,0,0-6.55468.75927l-23.31836,13.9917c-2.86865-.13672-5.75-.13916-8.61133-.00683L100.35547,22.08252a8.003,8.003,0,0,0-6.55762-.75879A111.15557,111.15557,0,0,0,52.7207,45.07715a8.00055,8.00055,0,0,0-2.61963,6.05664l.45752,27.18994c-1.55078,2.41455-2.99365,4.90869-4.31152,7.4541l-23.7959,13.21a8.0003,8.0003,0,0,0-3.93555,5.29932,111.13522,111.13522,0,0,0,.03223,47.45068,8.00135,8.00135,0,0,0,3.93555,5.29688L46.25928,170.2334c1.31592,2.55078,2.7539,5.04639,4.2998,7.46094l-.458,27.2124a8.00053,8.00053,0,0,0,2.62159,6.0581A111.13809,111.13809,0,0,0,93.832,234.66211a8.00177,8.00177,0,0,0,6.55469-.75928l23.31836-13.9917c2.86816.13623,5.749.13867,8.61133.00684l23.33789,14.00342a8.00237,8.00237,0,0,0,6.55761.75879,111.15549,111.15549,0,0,0,41.07715-23.75342,8.00052,8.00052,0,0,0,2.61963-6.05664l-.45752-27.18994c1.55078-2.41455,2.99365-4.9087,4.31153-7.45411l23.79589-13.21a8.0002,8.0002,0,0,0,3.93555-5.29931A111.13527,111.13527,0,0,0,237.46191,104.26611ZM172.0049,128.002a44,44,0,1,1-44-44A44.04972,44.04972,0,0,1,172.0049,128.002Z"/>
</svg>
