<svg id="Layer_1" data-name="Layer 1" xmlns="http://www.w3.org/2000/svg" viewBox="0 0 256.00098 256.00098">
  <path d="M237.01953,102.71436a16.0391,16.0391,0,0,0-8.582-10.71143l-14.50488-7.17188-5.57715-9.66113,1.041-16.14844a16.03889,16.03889,0,0,0-4.98486-12.7871,108.58051,108.58051,0,0,0-43.79736-25.28663,16.04445,16.04445,0,0,0-13.56787,2.07666L133.583,31.99951H122.42676L108.96387,23.0249A16.03516,16.03516,0,0,0,95.396,20.94678,108.5825,108.5825,0,0,0,51.59912,46.23291a16.037,16.037,0,0,0-4.98584,12.78857L47.6543,75.169l-5.57813,9.66113L27.57129,92.00244a16.03826,16.03826,0,0,0-8.582,10.71094,108.5845,108.5845,0,0,0,0,50.57324,16.03912,16.03912,0,0,0,8.582,10.71143l14.50488,7.17187,5.57715,9.66113-1.041,16.14844a16.03892,16.03892,0,0,0,4.98487,12.78711,108.58047,108.58047,0,0,0,43.79736,25.28662,16.03514,16.03514,0,0,0,13.56787-2.07666l13.46338-8.9751H133.582l13.46289,8.97461a16.20761,16.20761,0,0,0,8.99707,2.75342,15.79613,15.79613,0,0,0,4.5708-.67529,108.5825,108.5825,0,0,0,43.79688-25.28613,16.037,16.037,0,0,0,4.98584-12.78858l-1.041-16.14746,5.57813-9.66113,14.50488-7.17236a16.0383,16.0383,0,0,0,8.582-10.71094,108.5845,108.5845,0,0,0,0-50.57324Zm-61.01465,25.28613a48,48,0,1,1-48-48A48.05437,48.05437,0,0,1,176.00488,128.00049Z"/>
</svg>
