<svg id="Raw" xmlns="http://www.w3.org/2000/svg" viewBox="0 0 256.00098 256.00098">
  <rect width="256" height="256" fill="none"/>
  <path d="M238.26562,108.35476A15.96155,15.96155,0,0,0,230.269,97.16189L209.74561,85.76883c-1.315-2.5503-2.75342-5.0459-4.29981-7.46094l.395-23.4917a15.93081,15.93081,0,0,0-5.68213-12.50977,111.53059,111.53059,0,0,0-34.03808-19.62158,15.96193,15.96193,0,0,0-13.69288,1.32862L132.2998,36.09109c-2.86816-.13623-5.749-.13916-8.61132-.00683L103.542,23.99637a15.92639,15.92639,0,0,0-13.67578-1.33448A111.52894,111.52894,0,0,0,55.854,42.32986a15.96061,15.96061,0,0,0-5.69482,12.522l.39453,23.47022c-1.55127,2.415-2.99365,4.90869-4.31152,7.45459L25.70117,97.179a15.96884,15.96884,0,0,0-8.00049,11.21436,111.54254,111.54254,0,0,0,.0337,39.25244A15.96155,15.96155,0,0,0,25.731,158.83865l20.52343,11.39307c1.31495,2.55029,2.75342,5.0459,4.29981,7.46094l-.395,23.49169a15.93079,15.93079,0,0,0,5.68213,12.50977A111.53059,111.53059,0,0,0,89.87939,233.3157a15.95994,15.95994,0,0,0,13.69288-1.32861l20.12793-12.07764c2.86816.13672,5.749.13867,8.61132.00684L152.458,232.00418a15.92909,15.92909,0,0,0,13.67578,1.33447,111.52853,111.52853,0,0,0,34.01221-19.668,15.9606,15.9606,0,0,0,5.69482-12.522l-.39453-23.47021c1.55127-2.415,2.99365-4.9087,4.31152-7.45459l20.541-11.40235a15.971,15.971,0,0,0,8.00049-11.21435A111.5426,111.5426,0,0,0,238.26562,108.35476Zm-66.26953,19.64551a44,44,0,1,1-44-44A44.04972,44.04972,0,0,1,171.99609,128.00027Z"/>
</svg>
