<svg id="Raw" xmlns="http://www.w3.org/2000/svg" viewBox="0 0 256.00098 256.00098">
  <rect width="256" height="256" fill="none"/>
  <circle cx="128.00098" cy="128.00195" r="48" fill="none" stroke="#000" stroke-linecap="round" stroke-linejoin="round" stroke-width="16"/>
  <path d="M197.40626,80.65057a83.91174,83.91174,0,0,1,6.28744,10.91L229.64,105.964a103.88962,103.88962,0,0,1,.03183,44.05764L203.71112,164.433a83.912,83.912,0,0,1-6.30466,10.90011l.49943,29.67182a103.88959,103.88959,0,0,1-38.13912,22.05638l-25.46093-15.27692a83.91075,83.91075,0,0,1-12.5921-.01L96.2669,227.04288a103.88979,103.88979,0,0,1-38.171-22.00126l.49974-29.68828a83.91052,83.91052,0,0,1-6.28743-10.91005L26.362,150.0399a103.88962,103.88962,0,0,1-.03182-44.05764L52.29083,91.5709a83.9124,83.9124,0,0,1,6.30466-10.9001L58.09606,50.999A103.88973,103.88973,0,0,1,96.23518,28.94259l25.46094,15.27693a83.91075,83.91075,0,0,1,12.5921.00995L159.73505,28.961a103.88943,103.88943,0,0,1,38.171,22.00126Z" fill="none" stroke="#000" stroke-linecap="round" stroke-linejoin="round" stroke-width="16"/>
</svg>
