<svg id="Layer_1" data-name="Layer 1" xmlns="http://www.w3.org/2000/svg" viewBox="0 0 256.00098 256.00098">
  <rect width="256" height="256" fill="none"/>
  <path d="M149.66907,195.88358l-14.80961,24.68269a8,8,0,0,1-13.71989,0l-14.80964-24.68272a8,8,0,0,0-6.85994-3.884H39.99951a8,8,0,0,1-8-8V56a8,8,0,0,1,8-8h176a8,8,0,0,1,8,8V184a8,8,0,0,1-8,8l-59.47039-.00041A8,8,0,0,0,149.66907,195.88358Z" opacity="0.2"/>
  <line x1="96.00049" y1="103.99951" x2="160.00049" y2="103.99951" fill="none" stroke="#000" stroke-linecap="round" stroke-linejoin="round" stroke-width="16"/>
  <line x1="96.00049" y1="135.99951" x2="160.00049" y2="135.99951" fill="none" stroke="#000" stroke-linecap="round" stroke-linejoin="round" stroke-width="16"/>
  <path d="M149.66907,195.88358l-14.80961,24.68269a8,8,0,0,1-13.71989,0l-14.80964-24.68272a8,8,0,0,0-6.85994-3.884H39.99951a8,8,0,0,1-8-8V56a8,8,0,0,1,8-8h176a8,8,0,0,1,8,8V184a8,8,0,0,1-8,8l-59.47039-.00041A8,8,0,0,0,149.66907,195.88358Z" fill="none" stroke="#000" stroke-linecap="round" stroke-linejoin="round" stroke-width="16"/>
</svg>
