<svg id="Raw" xmlns="http://www.w3.org/2000/svg" viewBox="0 0 256 256">
  <rect width="256" height="256" fill="none"/>
  <path d="M59.99512,49.37646A103.57046,103.57046,0,0,1,120,24.30469V120H95.69531A103.84891,103.84891,0,0,0,59.99512,49.37646ZM48.71558,60.77637A103.54348,103.54348,0,0,0,24.30469,120H79.63257A87.91116,87.91116,0,0,0,48.71558,60.77637Zm147.2893-11.39991A103.57046,103.57046,0,0,0,136,24.30469V120h24.30469A103.84891,103.84891,0,0,1,196.00488,49.37646ZM231.69531,120a103.54348,103.54348,0,0,0-24.41089-59.22363A87.91116,87.91116,0,0,0,176.36743,120ZM24.30469,136a103.54348,103.54348,0,0,0,24.41089,59.22363A87.91116,87.91116,0,0,0,79.63257,136Zm182.97973,59.22363A103.54348,103.54348,0,0,0,231.69531,136H176.36743A87.91116,87.91116,0,0,0,207.28442,195.22363ZM59.99512,206.62354A103.57046,103.57046,0,0,0,120,231.69531V136H95.69531A103.84891,103.84891,0,0,1,59.99512,206.62354ZM160.30469,136H136v95.69531a103.57046,103.57046,0,0,0,60.00488-25.07177A103.84891,103.84891,0,0,1,160.30469,136Z"/>
</svg>
