<svg id="Raw" xmlns="http://www.w3.org/2000/svg" viewBox="0 0 256 256">
  <rect width="256" height="256" fill="none"/>
  <path d="M60.05889,195.90664a96,96,0,0,1-.11775-135.64655l0,0a95.69768,95.69768,0,0,1,28,67.76427,95.69771,95.69771,0,0,1-27.99925,67.76355Z" opacity="0.2"/>
  <path d="M196.05884,195.90664a96,96,0,0,1-.11776-135.64655l0,0a96,96,0,0,1,.00073,135.52782Z" opacity="0.2"/>
  <circle cx="128" cy="128" r="96" fill="none" stroke="#000" stroke-linecap="round" stroke-linejoin="round" stroke-width="16"/>
  <path d="M60,60.23573A95.69771,95.69771,0,0,1,88,128a95.69767,95.69767,0,0,1-27.99925,67.76354" fill="none" stroke="#000" stroke-linecap="round" stroke-linejoin="round" stroke-width="16"/>
  <path d="M196,60.23573a96,96,0,0,0-.00072,135.52781" fill="none" stroke="#000" stroke-linecap="round" stroke-linejoin="round" stroke-width="16"/>
  <line x1="32" y1="128" x2="224" y2="128" fill="none" stroke="#000" stroke-linecap="round" stroke-linejoin="round" stroke-width="16"/>
  <line x1="128" y1="32" x2="128" y2="224" fill="none" stroke="#000" stroke-linecap="round" stroke-linejoin="round" stroke-width="16"/>
</svg>
