<svg id="Raw" xmlns="http://www.w3.org/2000/svg" viewBox="0 0 256 256">
  <rect width="256" height="256" fill="none"/>
  <path d="M231.25586,31.73635a15.9634,15.9634,0,0,0-16.29-2.76758L30.40869,101.47365a15.99988,15.99988,0,0,0,2.7124,30.58106L80,141.43069V199.9844a15.99415,15.99415,0,0,0,27.31348,11.31347L133.25684,185.355l39.376,34.65088a15.86863,15.86863,0,0,0,10.51709,4.00293,16.15674,16.15674,0,0,0,4.96338-.78711,15.86491,15.86491,0,0,0,10.68457-11.65332L236.41162,47.43557A15.96073,15.96073,0,0,0,231.25586,31.73635ZM183.20215,207.99416,100.81006,135.4883l118.64453-85.687Z"/>
</svg>
