<svg id="Raw" xmlns="http://www.w3.org/2000/svg" viewBox="0 0 256 256">
  <rect width="256" height="256" fill="none"/>
  <path d="M211.2002,79.3916a8.00051,8.00051,0,0,0-3.77051,10.667,88.0876,88.0876,0,1,1-23.13037-29.67187l-22.769,22.76855a55.99686,55.99686,0,0,0-73.1333,84.438l.0044.00488.00537.00489a56.00035,56.00035,0,0,0,95.50244-42.79737,8.0002,8.0002,0,1,0-15.97461.90821,40.01415,40.01415,0,0,1-61.99805,35.66357l23.94922-23.94922,37.71289-37.7124.00489-.00537,62.05371-62.05371a8.00036,8.00036,0,0,0-11.31446-11.314L195.667,49.01855a104.00214,104.00214,0,0,0-141.206,152.52051A104.01636,104.01636,0,0,0,221.86719,83.16211,7.99983,7.99983,0,0,0,211.2002,79.3916Z"/>
</svg>
