<svg id="Raw" xmlns="http://www.w3.org/2000/svg" viewBox="0 0 256 256">
  <rect width="256" height="256" fill="none"/>
  <path d="M208,32H48A16.01833,16.01833,0,0,0,32,48V208a16.01833,16.01833,0,0,0,16,16H208a16.01833,16.01833,0,0,0,16-16V48A16.01833,16.01833,0,0,0,208,32ZM96,176.00094a8,8,0,0,1-16,0v-64a8,8,0,0,1,16,0Zm-8-84a12,12,0,1,1,12-12A12,12,0,0,1,88,92.00094Zm96,84a8,8,0,0,1-16,0v-36a20,20,0,1,0-40,0v36a8,8,0,0,1-16,0v-64a7.99729,7.99729,0,0,1,15.79492-1.77856A35.98123,35.98123,0,0,1,184,140.00094Z"/>
</svg>
