<svg id="Raw" xmlns="http://www.w3.org/2000/svg" viewBox="0 0 256 256">
  <rect width="256" height="256" fill="none"/>
  <path d="M212,28H44A16.01817,16.01817,0,0,0,28,44V212a16.01833,16.01833,0,0,0,16,16H212a16.01833,16.01833,0,0,0,16-16V44A16.01817,16.01817,0,0,0,212,28ZM96,176.001a8,8,0,1,1-16,0v-64a8,8,0,0,1,16,0ZM88,92a12,12,0,1,1,12-12A12,12,0,0,1,88,92Zm96,84.001a8,8,0,1,1-16,0v-36a20,20,0,0,0-40,0v36a8,8,0,1,1-16,0v-64a7.99729,7.99729,0,0,1,15.79492-1.77857A35.98125,35.98125,0,0,1,184,140.001Z"/>
</svg>
