<svg id="Layer_1" data-name="Layer 1" xmlns="http://www.w3.org/2000/svg" viewBox="0 0 256 256">
  <rect width="256" height="256" fill="none"/>
  <path d="M47.99414,200V56.32988a8.09741,8.09741,0,0,1,8.3548-8.1155A160.01517,160.01517,0,0,1,207.77976,199.6452,8.09741,8.09741,0,0,1,199.66426,208H55.99414A8,8,0,0,1,47.99414,200Z" opacity="0.2"/>
  <path d="M47.99414,200V56.32988a8.09741,8.09741,0,0,1,8.3548-8.1155A160.01517,160.01517,0,0,1,207.77976,199.6452,8.09741,8.09741,0,0,1,199.66426,208H55.99414A8,8,0,0,1,47.99414,200Z" fill="none" stroke="#000" stroke-linecap="round" stroke-linejoin="round" stroke-width="16"/>
</svg>
