<svg id="Raw" xmlns="http://www.w3.org/2000/svg" viewBox="0 0 256 256">
  <rect width="256" height="256" fill="none"/>
  <path d="M215.51465,39.51465H40.48535a16.99025,16.99025,0,0,0-16.9707,16.9707v143.0293a16.99025,16.99025,0,0,0,16.9707,16.9707h175.0293a16.99025,16.99025,0,0,0,16.9707-16.9707V56.48535A16.99025,16.99025,0,0,0,215.51465,39.51465Zm-94.51758,94.73242-40,32a7.99979,7.99979,0,1,1-9.99414-12.49414L103.19336,128,71.00293,102.24707a7.99979,7.99979,0,1,1,9.99414-12.49414l40,32a7.99943,7.99943,0,0,1,0,12.49414ZM179.99414,168h-40a8,8,0,0,1,0-16h40a8,8,0,1,1,0,16Z"/>
</svg>
