<svg id="Raw" xmlns="http://www.w3.org/2000/svg" viewBox="0 0 256 256">
  <rect width="256" height="256" fill="none"/>
  <path d="M208,48H48A24.0275,24.0275,0,0,0,24,72V184a24.0275,24.0275,0,0,0,24,24H208a24.0275,24.0275,0,0,0,24-24V72A24.0275,24.0275,0,0,0,208,48Zm-56.47949,76.80762a24.00866,24.00866,0,0,1-47.041.001A16.03939,16.03939,0,0,0,88.80957,112H40V96H216v16H167.19043A16.0395,16.0395,0,0,0,151.52051,124.80762ZM48,64H208a8.00917,8.00917,0,0,1,8,8v8H40V72A8.00917,8.00917,0,0,1,48,64Z"/>
</svg>
