<svg xmlns="http://www.w3.org/2000/svg" width="16" height="16" viewBox="0 0 16 16">
  <g fill="none" fill-rule="evenodd">
    <polygon points="0 16 15.999 16 15.999 0 0 0"/>
    <path fill="#000" d="M11.9996,6.7927 L9.2066,4.0007 L10.4996,2.7077 L13.2926,5.5007 L11.9996,6.7927 Z M13.9996,4.7927 L11.2066,2.0007 C10.8156,1.6107 10.1836,1.6107 9.7926,2.0007 L8.1476,3.6457 C8.1466,3.6457 8.1456,3.6457 8.1456,3.6467 C8.1456,3.6467 8.1456,3.6467 8.1456,3.6477 L2.2926,9.5007 C2.1946,9.5977 2.1226,9.7127 2.0726,9.8367 C2.0456,9.9017 2.0316,9.9697 2.0326,10.0387 C2.0226,10.0947 1.9996,10.1477 1.9996,10.2077 L1.9996,12.9997 C1.9996,13.5507 2.4476,13.9997 2.9996,13.9997 L5.9996,13.9997 L13.4996,13.9997 C13.7756,13.9997 13.9996,13.7757 13.9996,13.4997 C13.9996,13.2237 13.7756,12.9997 13.4996,12.9997 L7.2066,12.9997 L13.9996,6.2077 C14.3896,5.8167 14.3896,5.1827 13.9996,4.7927 L13.9996,4.7927 Z"/>
  </g>
</svg>
