<svg xmlns="http://www.w3.org/2000/svg" width="16" height="16" viewBox="0 0 16 16">
  <g fill="none" fill-rule="evenodd">
    <polygon points="0 16 15.999 16 15.999 0 0 0"/>
    <path fill="#000" fill-rule="nonzero" d="M2.9996,14.2498 C2.31027269,14.2498 1.7496,13.6899006 1.7496,12.9998 L1.7496,12.9998 L1.7496,10.2078 C1.7496,10.0639259 1.77440407,9.92271459 1.82177102,9.789544 C1.83061639,9.76307215 1.84133715,9.73655903 1.85363178,9.71060586 C1.91484861,9.56798988 2.00323972,9.43669746 2.11526991,9.32346991 L2.11526991,9.32346991 L7.96459622,3.47418429 C7.96614574,3.47260767 7.96770364,3.47103619 7.96926991,3.46946991 L7.9736,3.46455 L9.61662799,1.82211531 C10.0726358,1.36843404 10.7901552,1.33818862 11.2810312,1.73137906 L11.382572,1.82211531 L14.1759301,4.61546991 C14.6650497,5.10458948 14.6650497,5.89750949 14.1759301,6.38413009 L14.1759301,6.38413009 L7.8106,12.74855 L13.4996,12.7498 C13.8792958,12.7498 14.193091,13.0319539 14.2427534,13.3980294 L14.2496,13.4998 C14.2496,13.8794958 13.9674461,14.193291 13.6013706,14.2429534 L13.4996,14.2498 Z M3.2486,11.80955 L3.249,12.749 L4.1876,12.74855 L3.2486,11.80955 Z M8.4986,5.05955 L3.5596,9.99855 L5.9986,12.43855 L10.9386,7.49955 L8.4986,5.05955 Z M10.499,3.06 L9.5596,3.99855 L11.9996,6.43855 L12.939,5.5 L10.499,3.06 Z"/>
  </g>
</svg>
