<svg xmlns="http://www.w3.org/2000/svg" width="16" height="16" viewBox="0 0 16 16">
  <g fill="none" fill-rule="evenodd">
    <polygon points="0 16 15.999 16 15.999 0 0 0"/>
    <path fill="#000" fill-rule="nonzero" d="M2.9996,13.8748 C2.51726369,13.8748 2.1246,13.4826779 2.1246,12.9998 L2.1246,12.9998 L2.1246,10.2078 C2.1246,10.109713 2.14107457,10.0133627 2.17254043,9.9222742 C2.17523697,9.91445919 2.1780892,9.90610403 2.18124441,9.89783804 C2.22498565,9.78302348 2.2922744,9.67773938 2.38043496,9.58863496 L2.38043496,9.58863496 L9.88111399,2.08795766 C10.2234039,1.74741411 10.7757961,1.74741411 11.118086,2.08795766 L11.118086,2.08795766 L13.910765,4.88063496 C14.2533248,5.22319474 14.2533248,5.77815474 13.910765,6.11896504 L13.910765,6.11896504 L6.9056,13.12355 L13.4996,13.1248 C13.6808184,13.1248 13.832014,13.2533432 13.8669813,13.4242244 L13.8746,13.4998 C13.8746,13.6810184 13.7460568,13.832214 13.5751756,13.8671813 L13.4996,13.8748 Z M2.8746,10.90555 L2.8746,12.9998 C2.8746,13.0682324 2.9312457,13.1248 2.9996,13.1248 L2.9996,13.1248 L5.0926,13.12355 L2.8746,10.90555 Z M8.4986,4.52955 L3.0296,9.99955 L5.9986,12.96855 L11.4686,7.49955 L8.4986,4.52955 Z M10.589114,2.61964234 C10.5394039,2.57018589 10.4597961,2.57018589 10.410765,2.61896504 L10.410765,2.61896504 L9.0296,3.99955 L11.9986,6.96855 L13.381114,5.58795766 C13.4054383,5.56370146 13.4176474,5.53181336 13.4175812,5.49980928 L13.4082557,5.45265567 L13.380435,5.41096504 Z"/>
  </g>
</svg>
