<svg xmlns="http://www.w3.org/2000/svg" width="16" height="16" viewBox="0 0 16 16">
  <g fill="none" fill-rule="evenodd">
    <polygon points="0 16 15.999 16 15.999 0 0 0"/>
    <path fill="#000" fill-rule="nonzero" d="M2.9996,13.7498 C2.5862607,13.7498 2.2496,13.4136037 2.2496,12.9998 L2.2496,12.9998 L2.2496,10.2078 C2.2496,10.0093082 2.32832208,9.81903021 2.4688233,9.6770233 L2.4688233,9.6770233 L9.969276,2.17657177 C10.2628026,1.88454274 10.7363974,1.88454274 11.029924,2.17657177 L11.029924,2.17657177 L13.8223767,4.9690233 C14.1160832,5.26272983 14.1160832,5.73836983 13.8223767,6.0305767 L13.8223767,6.0305767 L6.6036,13.24855 L13.4996,13.2498 C13.6179467,13.2498 13.7170868,13.3320334 13.7429973,13.4424773 L13.7496,13.4998 C13.7496,13.6181467 13.6673666,13.7172868 13.5569227,13.7431973 L13.4996,13.7498 Z M2.7496,10.60355 L2.7496,12.9998 C2.7496,13.1373067 2.8622487,13.2498 2.9996,13.2498 L2.9996,13.2498 L5.3946,13.24855 L2.7496,10.60355 Z M8.4996,4.35355 L2.8526,9.99955 L5.9986,13.14555 L11.6456,7.49955 L8.4996,4.35355 Z M10.677276,2.53102823 C10.5788026,2.43305726 10.4203974,2.43305726 10.3223767,2.5305767 L10.3223767,2.5305767 L8.8526,3.99955 L11.9986,7.14555 L13.469276,5.67657177 C13.5345032,5.61167737 13.5562456,5.51966368 13.5343691,5.43640772 L13.509781,5.3761684 L13.4688233,5.3225767 Z"/>
  </g>
</svg>
