<svg xmlns="http://www.w3.org/2000/svg" width="16" height="16" viewBox="0 0 16 16">
  <g fill="none" fill-rule="evenodd">
    <polygon points="0 16 16 16 16 0 0 0"/>
    <path fill="#000" fill-rule="nonzero" d="M3,14 C2.44785763,14 2,13.5521424 2,13 L2,13 L2,10.207 C2,9.94175455 2.10542137,9.68747185 2.29244661,9.50044661 L2.29244661,9.50044661 L9.79244661,2.00044661 C10.1837088,1.60918446 10.8162912,1.60918446 11.2075534,2.00044661 L11.2075534,2.00044661 L13.9995534,4.79244661 C14.3908155,5.18370876 14.3908155,5.81629124 13.9995534,6.20755339 L13.9995534,6.20755339 L7.206,13 L13.5,13 C13.7454599,13 13.9496084,13.1768752 13.9919443,13.4101244 L14,13.5 C14,13.7454599 13.8231248,13.9496084 13.5898756,13.9919443 L13.5,14 Z M3,11.207 L3,13 L4.793,13 L3,11.207 Z M8.5,4.707 L3.207,10 L5.999,12.793 L11.293,7.5 L8.5,4.707 Z M10.4995534,2.70755339 L9.207,4 L12,6.793 L13.293,5.5 L10.4995534,2.70755339 Z"/>
  </g>
</svg>
