<svg xmlns="http://www.w3.org/2000/svg" width="16" height="16" viewBox="0 0 16 16">
  <g fill="none" fill-rule="evenodd">
    <polygon points="0 16 15.999 16 15.999 0 0 0"/>
    <path fill="#000" d="M11.9996,7.4998 L8.4996,3.9998 L10.1456,2.3538 C10.3416,2.1588 10.6576,2.1588 10.8536,2.3538 L13.6456,5.1458 C13.8416,5.3418 13.8416,5.6588 13.6456,5.8538 L11.9996,7.4998 Z" opacity=".1"/>
    <path fill="#000" fill-rule="nonzero" d="M2.9996,13.9998 C2.44826669,13.9998 1.9996,13.5517522 1.9996,12.9998 L1.9996,12.9998 L1.9996,10.2078 C1.9996,10.1052832 2.01534472,10.0044388 2.04554995,9.908331 C2.04952267,9.89835559 2.05254008,9.88786052 2.05590732,9.877454 C2.10493521,9.7373411 2.18502283,9.60841539 2.29204661,9.50024661 L2.29204661,9.50024661 L9.79295199,1.99934354 C10.1840052,1.61028549 10.8151948,1.61028549 11.206248,1.99934354 L11.206248,1.99934354 L13.9991534,4.79224661 C14.3905664,5.18365965 14.3905664,5.81793966 13.9991534,6.20735339 L13.9991534,6.20735339 L7.2066,12.99855 L13.4996,12.9998 C13.7450599,12.9998 13.9492084,13.1766752 13.9915443,13.4099244 L13.9996,13.4998 C13.9996,13.7452599 13.8227248,13.9494084 13.5894756,13.9917443 L13.4996,13.9998 Z M2.9996,11.20655 L2.9996,12.9998 L4.7916,12.99855 L2.9996,11.20655 Z M8.4996,4.70655 L3.2066,9.99955 L5.9996,12.79255 L11.2926,7.49955 L8.4996,4.70655 Z M10.5000466,2.70735339 L9.2066,3.99955 L11.9996,6.79255 L13.292952,5.49934354 L10.5000466,2.70735339 Z"/>
  </g>
</svg>
