<svg id="Layer_1" data-name="Layer 1" xmlns="http://www.w3.org/2000/svg" viewBox="0 0 256 256">
  <path d="M192,120,136,64l26.34315-26.34315a8,8,0,0,1,11.3137,0l44.6863,44.6863a8,8,0,0,1,0,11.3137Z" opacity="0.2"/>
  <path d="M96,216H48a8,8,0,0,1-8-8V163.31371a8,8,0,0,1,2.34315-5.65686l120-120a8,8,0,0,1,11.3137,0l44.6863,44.6863a8,8,0,0,1,0,11.3137Z" fill="none" stroke="#000" stroke-linecap="round" stroke-linejoin="round" stroke-width="16"/>
  <line x1="136" y1="64" x2="192" y2="120" fill="none" stroke="#000" stroke-linecap="round" stroke-linejoin="round" stroke-width="16"/>
  <polyline points="216 216 96 216 40.509 160.509" fill="none" stroke="#000" stroke-linecap="round" stroke-linejoin="round" stroke-width="16"/>
</svg>
