<svg id="Raw" xmlns="http://www.w3.org/2000/svg" viewBox="0 0 256 256">
  <rect width="256" height="256" fill="none"/>
  <path d="M224,136.041c2.53906,0,5.07721.125,7.6087.34277a103.89367,103.89367,0,0,1-95.22107,95.2793A87.855,87.855,0,0,1,224,136.041Zm-73.53906,14.41992A103.31914,103.31914,0,0,1,224,120q3.85537,0,7.66394.27734a103.91077,103.91077,0,0,0-96-96,103.79931,103.79931,0,0,1-30.12488,81.26172A103.31914,103.31914,0,0,1,32,136q-3.85546,0-7.66394-.27734a103.91077,103.91077,0,0,0,96,96A103.79931,103.79931,0,0,1,150.46094,150.46094ZM94.22559,94.22559a87.83528,87.83528,0,0,0,25.38678-69.88868,103.89355,103.89355,0,0,0-95.221,95.2793A87.83194,87.83194,0,0,0,94.22559,94.22559Z"/>
</svg>
