<svg id="Layer_1" data-name="Layer 1" xmlns="http://www.w3.org/2000/svg" viewBox="0 0 256 256">
  <rect width="256" height="256" fill="none"/>
  <path d="M188,84a27.83152,27.83152,0,0,0-12,2.707V52a27.992,27.992,0,0,0-41.35791-24.60278A27.99792,27.99792,0,0,0,80,36V50.707A27.991,27.991,0,0,0,40,76v76a88,88,0,0,0,176,0V112A28.03146,28.03146,0,0,0,188,84Zm12,68a72,72,0,0,1-144,0V76a12,12,0,0,1,24,0v36a8,8,0,0,0,16,0V36a12,12,0,0,1,24,0v68a8,8,0,0,0,16,0V52a12,12,0,0,1,24,0v72.6665A48.07871,48.07871,0,0,0,120,172a8,8,0,0,0,16,0,32.03635,32.03635,0,0,1,32-32,8.00008,8.00008,0,0,0,8-8V112a12,12,0,0,1,24,0Z"/>
</svg>
