<svg id="Raw" xmlns="http://www.w3.org/2000/svg" viewBox="0 0 256 256">
  <rect width="256" height="256" fill="none"/>
  <line x1="48" y1="40" x2="208" y2="216" fill="none" stroke="#000" stroke-linecap="round" stroke-linejoin="round" stroke-width="12"/>
  <path d="M91.42886,87.7719A39.8604,39.8604,0,0,0,88,104" fill="none" stroke="#000" stroke-linecap="round" stroke-linejoin="round" stroke-width="12"/>
  <path d="M86.97786,35.304A80.01863,80.01863,0,0,1,208,104" fill="none" stroke="#000" stroke-linecap="round" stroke-linejoin="round" stroke-width="12"/>
  <path d="M161.93948,216.0039A44.00107,44.00107,0,0,1,84,188c0-41.49014-36-28-36-84A79.63961,79.63961,0,0,1,63.34376,56.87833" fill="none" stroke="#000" stroke-linecap="round" stroke-linejoin="round" stroke-width="12"/>
  <path d="M163.07477,119.00866A23.8953,23.8953,0,0,0,168,104a40.02881,40.02881,0,0,0-52.976-37.8483" fill="none" stroke="#000" stroke-linecap="round" stroke-linejoin="round" stroke-width="12"/>
  <path d="M166.89165,170.78091A20.01341,20.01341,0,0,1,140,152a24.94024,24.94024,0,0,1,1.58781-9.05283" fill="none" stroke="#000" stroke-linecap="round" stroke-linejoin="round" stroke-width="12"/>
</svg>
