<svg id="Raw" xmlns="http://www.w3.org/2000/svg" viewBox="0 0 256 256">
  <rect width="256" height="256" fill="none"/>
  <path d="M213.91943,210.61816a8.00024,8.00024,0,0,1-11.83886,10.76368L164.1604,179.66943A27.8785,27.8785,0,0,1,132,152a34.92369,34.92369,0,0,1,.68823-6.94971L95.9668,104.65674A7.99677,7.99677,0,0,1,80,104a47.77032,47.77032,0,0,1,2.22388-14.46045L64.5011,70.04443A71.47341,71.47341,0,0,0,56,104c0,26.69629,8.53418,34.9248,17.56982,43.63672C82.2085,155.9668,92,165.4082,92,188a36.001,36.001,0,0,0,63.77148,22.90918,8,8,0,1,1,12.33594,10.18945A52.00105,52.00105,0,0,1,76,188c0-15.793-5.67773-21.26758-13.53613-28.84473C52.45557,149.50488,40,137.49512,40,104a87.3043,87.3043,0,0,1,13.206-46.37988L42.08057,45.38184A8.00024,8.00024,0,1,1,53.91943,34.61816L69.2439,51.4751l.04455.04883L97.25708,82.28955l.02832.03125L172.736,165.31641l.01026.01123ZM91.08594,42.169A72.01834,72.01834,0,0,1,200,104a8,8,0,0,0,16,0A88.01954,88.01954,0,0,0,82.87012,28.43848,8.0004,8.0004,0,0,0,91.08594,42.169Zm67.186,83.23828a8.00079,8.00079,0,0,0,11.20069-1.59571A31.86061,31.86061,0,0,0,176,104a48.02849,48.02849,0,0,0-63.56982-45.416,7.99955,7.99955,0,1,0,5.1875,15.13477A32.03087,32.03087,0,0,1,160,104a15.97942,15.97942,0,0,1-3.32324,10.20605A8.00086,8.00086,0,0,0,158.272,125.40723Z"/>
</svg>
