<svg xmlns="http://www.w3.org/2000/svg" width="16" height="16" viewBox="0 0 16 16">
  <g fill="none" fill-rule="evenodd">
    <polygon points="0 16 16 16 16 0 0 0"/>
    <path fill="#000" d="M14,8 C14,11.313 11.313,14 8,14 C4.687,14 2,11.313 2,8 C2,4.687 4.687,2 8,2 C11.313,2 14,4.687 14,8" opacity=".2"/>
    <path fill="#000" d="M8,1.5 C11.5891424,1.5 14.5,4.41085763 14.5,8 C14.5,11.5891424 11.5891424,14.5 8,14.5 C4.41085763,14.5 1.5,11.5891424 1.5,8 C1.5,4.41085763 4.41085763,1.5 8,1.5 Z M8,2.5 C4.96314237,2.5 2.5,4.96314237 2.5,8 C2.5,11.0368576 4.96314237,13.5 8,13.5 C11.0368576,13.5 13.5,11.0368576 13.5,8 C13.5,4.96314237 11.0368576,2.5 8,2.5 Z M10.5,9.5 C10.7761424,9.5 11,9.72385763 11,10 C11,10.2454599 10.8231248,10.4496084 10.5898756,10.4919443 L10.5,10.5 L5.5,10.5 C5.22385763,10.5 5,10.2761424 5,10 C5,9.75454011 5.17687516,9.55039163 5.41012437,9.50805567 L5.5,9.5 L10.5,9.5 Z M5.75,6 C6.164,6 6.5,6.336 6.5,6.75 C6.5,7.164 6.164,7.5 5.75,7.5 C5.336,7.5 5,7.164 5,6.75 C5,6.336 5.336,6 5.75,6 Z M10.25,6 C10.664,6 11,6.336 11,6.75 C11,7.164 10.664,7.5 10.25,7.5 C9.836,7.5 9.5,7.164 9.5,6.75 C9.5,6.336 9.836,6 10.25,6 Z"/>
  </g>
</svg>
