<svg xmlns="http://www.w3.org/2000/svg" width="16" height="16" viewBox="0 0 16 16">
  <g fill="none" fill-rule="evenodd">
    <polygon points="0 16 16 16 16 0 0 0"/>
    <path fill="#000" d="M8,1.75 C11.4510712,1.75 14.25,4.54892881 14.25,8 C14.25,11.4510712 11.4510712,14.25 8,14.25 C4.54892881,14.25 1.75,11.4510712 1.75,8 C1.75,4.54892881 4.54892881,1.75 8,1.75 Z M8,2.25 C4.82507119,2.25 2.25,4.82507119 2.25,8 C2.25,11.1749288 4.82507119,13.75 8,13.75 C11.1749288,13.75 13.75,11.1749288 13.75,8 C13.75,4.82507119 11.1749288,2.25 8,2.25 Z M10.5,9.75 C10.6380712,9.75 10.75,9.86192881 10.75,10 C10.75,10.1183467 10.6677666,10.2174868 10.5573227,10.2433973 L10.5,10.25 L5.5,10.25 C5.36192881,10.25 5.25,10.1380712 5.25,10 C5.25,9.88165327 5.33223341,9.78251318 5.44267729,9.75660268 L5.5,9.75 L10.5,9.75 Z M5.75,6.375 C5.957,6.375 6.125,6.543 6.125,6.75 C6.125,6.957 5.957,7.125 5.75,7.125 C5.543,7.125 5.375,6.957 5.375,6.75 C5.375,6.543 5.543,6.375 5.75,6.375 Z M10.25,6.375 C10.457,6.375 10.625,6.543 10.625,6.75 C10.625,6.957 10.457,7.125 10.25,7.125 C10.043,7.125 9.875,6.957 9.875,6.75 C9.875,6.543 10.043,6.375 10.25,6.375 Z"/>
  </g>
</svg>
