<svg xmlns="http://www.w3.org/2000/svg" width="16" height="16" viewBox="0 0 16 16">
  <g fill="none" fill-rule="evenodd">
    <polygon points="0 16 16 16 16 0 0 0"/>
    <path fill="#000" d="M10.25,7.5 C9.836,7.5 9.5,7.164 9.5,6.75 C9.5,6.336 9.836,6 10.25,6 C10.664,6 11,6.336 11,6.75 C11,7.164 10.664,7.5 10.25,7.5 M10.5,10.5 L5.5,10.5 C5.224,10.5 5,10.276 5,10 C5,9.724 5.224,9.5 5.5,9.5 L10.5,9.5 C10.776,9.5 11,9.724 11,10 C11,10.276 10.776,10.5 10.5,10.5 M5.75,6 C6.164,6 6.5,6.336 6.5,6.75 C6.5,7.164 6.164,7.5 5.75,7.5 C5.336,7.5 5,7.164 5,6.75 C5,6.336 5.336,6 5.75,6 M8,1.5 C4.416,1.5 1.5,4.416 1.5,8 C1.5,11.584 4.416,14.5 8,14.5 C11.584,14.5 14.5,11.584 14.5,8 C14.5,4.416 11.584,1.5 8,1.5"/>
  </g>
</svg>
