<svg xmlns="http://www.w3.org/2000/svg" width="16" height="16" viewBox="0 0 16 16">
  <g fill="none" fill-rule="evenodd">
    <polygon points="0 16 16 16 16 0 0 0"/>
    <path fill="#000" d="M8,1.625 C11.5201068,1.625 14.375,4.47989322 14.375,8 C14.375,11.5201068 11.5201068,14.375 8,14.375 C4.47989322,14.375 1.625,11.5201068 1.625,8 C1.625,4.47989322 4.47989322,1.625 8,1.625 Z M8,2.375 C4.89410678,2.375 2.375,4.89410678 2.375,8 C2.375,11.1058932 4.89410678,13.625 8,13.625 C11.1058932,13.625 13.625,11.1058932 13.625,8 C13.625,4.89410678 11.1058932,2.375 8,2.375 Z M10.5,9.625 C10.7071068,9.625 10.875,9.79289322 10.875,10 C10.875,10.1812184 10.7464568,10.332414 10.5755756,10.3673813 L10.5,10.375 L5.5,10.375 C5.29289322,10.375 5.125,10.2071068 5.125,10 C5.125,9.81878157 5.25354325,9.66758602 5.42442442,9.63261867 L5.5,9.625 L10.5,9.625 Z M5.7505,6.188 C6.0605,6.188 6.3125,6.439 6.3125,6.75 C6.3125,7.061 6.0605,7.312 5.7505,7.312 C5.4395,7.312 5.1875,7.061 5.1875,6.75 C5.1875,6.439 5.4395,6.188 5.7505,6.188 Z M10.2505,6.188 C10.5605,6.188 10.8125,6.439 10.8125,6.75 C10.8125,7.061 10.5605,7.312 10.2505,7.312 C9.9395,7.312 9.6875,7.061 9.6875,6.75 C9.6875,6.439 9.9395,6.188 10.2505,6.188 Z"/>
  </g>
</svg>
