<svg xmlns="http://www.w3.org/2000/svg" width="16" height="16" viewBox="0 0 16 16">
  <g fill="none" fill-rule="evenodd">
    <polygon points="0 16 16 16 16 0 0 0"/>
    <path fill="#000" d="M8,1.25 C11.7272136,1.25 14.75,4.27278644 14.75,8 C14.75,11.7272136 11.7272136,14.75 8,14.75 C4.27278644,14.75 1.25,11.7272136 1.25,8 C1.25,4.27278644 4.27278644,1.25 8,1.25 Z M8,2.75 C5.10121356,2.75 2.75,5.10121356 2.75,8 C2.75,10.8987864 5.10121356,13.25 8,13.25 C10.8987864,13.25 13.25,10.8987864 13.25,8 C13.25,5.10121356 10.8987864,2.75 8,2.75 Z M10.5,9.25 C10.9142136,9.25 11.25,9.58578644 11.25,10 C11.25,10.3796958 10.9678461,10.693491 10.6017706,10.7431534 L10.5,10.75 L5.5,10.75 C5.08578644,10.75 4.75,10.4142136 4.75,10 C4.75,9.62030423 5.03215388,9.30650904 5.39822944,9.25684662 L5.5,9.25 L10.5,9.25 Z M5.75,5.625 C6.371,5.625 6.875,6.129 6.875,6.75 C6.875,7.371 6.371,7.875 5.75,7.875 C5.129,7.875 4.625,7.371 4.625,6.75 C4.625,6.129 5.129,5.625 5.75,5.625 Z M10.25,5.625 C10.871,5.625 11.375,6.129 11.375,6.75 C11.375,7.371 10.871,7.875 10.25,7.875 C9.629,7.875 9.125,7.371 9.125,6.75 C9.125,6.129 9.629,5.625 10.25,5.625 Z"/>
  </g>
</svg>
