<svg id="Raw" xmlns="http://www.w3.org/2000/svg" viewBox="0 0 256 256">
  <rect width="256" height="256" fill="none"/>
  <circle cx="136" cy="112" r="32" fill="none" stroke="#000" stroke-linecap="round" stroke-linejoin="round" stroke-width="16"/>
  <path d="M208,32H64a8,8,0,0,0-8,8V216a8,8,0,0,0,8,8H208a8,8,0,0,0,8-8V40A8,8,0,0,0,208,32ZM136,144a32,32,0,1,1,32-32A32,32,0,0,1,136,144Z" opacity="0.2"/>
  <line x1="32" y1="108.00005" x2="56" y2="108.00005" fill="none" stroke="#000" stroke-linecap="round" stroke-linejoin="round" stroke-width="16"/>
  <line x1="32" y1="68.00005" x2="56" y2="68.00005" fill="none" stroke="#000" stroke-linecap="round" stroke-linejoin="round" stroke-width="16"/>
  <line x1="32" y1="148.00005" x2="56" y2="148.00005" fill="none" stroke="#000" stroke-linecap="round" stroke-linejoin="round" stroke-width="16"/>
  <line x1="32" y1="188.00005" x2="56" y2="188.00005" fill="none" stroke="#000" stroke-linecap="round" stroke-linejoin="round" stroke-width="16"/>
  <path d="M87.99717,167.99792a60.00878,60.00878,0,0,1,96.004-.00225" fill="none" stroke="#000" stroke-linecap="round" stroke-linejoin="round" stroke-width="16"/>
  <rect x="40" y="48" width="192" height="160" rx="8" transform="translate(264 -8) rotate(90)" stroke-width="16" stroke="#000" stroke-linecap="round" stroke-linejoin="round" fill="none"/>
</svg>
