<svg id="Layer_1" data-name="Layer 1" xmlns="http://www.w3.org/2000/svg" viewBox="0 0 256.00098 256.00098">
  <rect width="256.00098" height="256.00098" transform="translate(256.00098 256.00098) rotate(180)" fill="none"/>
  <path d="M227.30859,204.68787l-35.03613-35.05078c18.51856-27.082,21.3916-63.36915,3.92676-93.62891a87.95128,87.95128,0,1,0-32.20313,120.19531c2.02735-1.17187,3.67578-2.71484,5.57325-4.01953l35.11425,35.12891a15.99829,15.99829,0,0,0,22.625-22.625ZM151.9668,127.98865h-24v24a8,8,0,0,1-16,0v-24h-24a8,8,0,0,1,0-16h24v-24a8,8,0,0,1,16,0v24h24a8,8,0,1,1,0,16Z"/>
</svg>
