<svg id="Layer_1" data-name="Layer 1" xmlns="http://www.w3.org/2000/svg" viewBox="0 0 256 256">
  <path d="M240.00526,60.66136A127.734,127.734,0,0,1,207.91934,92.591l-.0001-.00015A128.04082,128.04082,0,0,1,17.97784,199.99759l.0065-.01172a127.3714,127.3714,0,0,0,70.01685-22.14062l-.00076.00111A128.2051,128.2051,0,0,1,36.64049,37.72648l-.00039.00025A127.98517,127.98517,0,0,0,128.82832,95.1112l-.0028.00058a40.009,40.009,0,0,1,74.03809-27.81035l.00013.00442a128.63506,128.63506,0,0,0,37.14152-6.64449" fill="none" stroke="#000" stroke-linecap="round" stroke-linejoin="round" stroke-width="24"/>
  <rect width="256" height="256" fill="none"/>
</svg>
