<svg id="Raw" xmlns="http://www.w3.org/2000/svg" viewBox="0 0 256 256">
  <rect width="256" height="256" fill="none"/>
  <path d="M235.80371,136.84473,160.21582,99.05078,160.1123,48a32,32,0,0,0-64-.01611l-.10253,51.06689L20.42188,136.84473A7.99967,7.99967,0,0,0,16,144v24a8.00012,8.00012,0,0,0,9.56934,7.84473L96,161.7583V188.686L82.34277,202.34326A8.00035,8.00035,0,0,0,80,208v24a8.00012,8.00012,0,0,0,9.56934,7.84473L128,232.1582l38.43066,7.68653A8.00012,8.00012,0,0,0,176,232V208a8.00119,8.00119,0,0,0-2.30273-5.6167l-13.47168-13.66357V161.7583l70.43066,14.08643A8.00013,8.00013,0,0,0,240.22559,168V144A7.99969,7.99969,0,0,0,235.80371,136.84473Z"/>
</svg>
