<svg id="Raw" xmlns="http://www.w3.org/2000/svg" viewBox="0 0 256 256">
  <rect width="256" height="256" fill="none"/>
  <path d="M240.22559,136v32a8.00013,8.00013,0,0,1-9.56934,7.84473L160.22559,161.7583v26.96143l13.47168,13.66357A8.00119,8.00119,0,0,1,176,208v24a7.99947,7.99947,0,0,1-10.9707,7.42773L128,224.61621,90.9707,239.42773A7.99953,7.99953,0,0,1,80,232V208a8.00035,8.00035,0,0,1,2.34277-5.65674L96,188.686V161.7583L25.56934,175.84473A8.00012,8.00012,0,0,1,16,168V136a7.99967,7.99967,0,0,1,4.42188-7.15527L96.01172,91.0498l.10058-43.06835a32,32,0,0,1,64,.01855l.10157,43.0498,75.58984,37.79493A7.99969,7.99969,0,0,1,240.22559,136Z"/>
</svg>
