<svg id="Raw" xmlns="http://www.w3.org/2000/svg" viewBox="0 0 256 256">
  <rect width="256" height="256" fill="none"/>
  <g>
    <path d="M136,64a8.00039,8.00039,0,0,0-8,8V184a8,8,0,0,0,16,0V72A8.00039,8.00039,0,0,0,136,64Z"/>
    <path d="M228,64H180a8.00039,8.00039,0,0,0-8,8V184a8,8,0,0,0,16,0V136h28a8,8,0,0,0,0-16H188V80h40a8,8,0,0,0,0-16Z"/>
    <path d="M96,120H72a8,8,0,0,0,0,16H88v16a24,24,0,0,1-48,0V104a24.00492,24.00492,0,0,1,47.24512-6.00586,7.99961,7.99961,0,1,0,15.49414-3.98828A40.00446,40.00446,0,0,0,24,104v48a40,40,0,0,0,80,0V128A8.00039,8.00039,0,0,0,96,120Z"/>
  </g>
</svg>
