<svg id="Layer_1" data-name="Layer 1" xmlns="http://www.w3.org/2000/svg" viewBox="0 0 256 256">
  <path d="M215.99414,87.98316h-40a8.00008,8.00008,0,0,0-8,8v32h24a8,8,0,1,1,0,16h-24v24h24a8,8,0,1,1,0,16h-24v40a8.00009,8.00009,0,0,0,8,8h48a8.00009,8.00009,0,0,0,8-8v-120A16.01833,16.01833,0,0,0,215.99414,87.98316Z"/>
  <path d="M135.99414,23.98316h-96a16.01833,16.01833,0,0,0-16,16v184a8.00009,8.00009,0,0,0,8,8h112a8.00009,8.00009,0,0,0,8-8v-184A16.01833,16.01833,0,0,0,135.99414,23.98316Zm-72,40h32a8,8,0,1,1,0,16h-32a8,8,0,0,1,0-16Zm32,136h-32a8,8,0,0,1,0-16h32a8,8,0,1,1,0,16Zm16-40h-32a8,8,0,0,1,0-16h32a8,8,0,1,1,0,16Z"/>
</svg>
