<svg id="Layer_1" data-name="Layer 1" xmlns="http://www.w3.org/2000/svg" viewBox="0 0 256 256">
  <rect x="0.00049" width="255.99951" height="256" fill="none"/>
  <path d="M143.99414,223.98316v-184a8,8,0,0,0-8-8h-96a8,8,0,0,0-8,8v184" opacity="0.2"/>
  <path d="M143.99414,223.98316v-184a8,8,0,0,0-8-8h-96a8,8,0,0,0-8,8v184" fill="none" stroke="#000" stroke-linecap="round" stroke-linejoin="round" stroke-width="16"/>
  <path d="M223.99414,223.98316v-120a8,8,0,0,0-8-8h-72" fill="none" stroke="#000" stroke-linecap="round" stroke-linejoin="round" stroke-width="16"/>
  <line x1="63.99414" y1="71.98316" x2="95.99414" y2="71.98316" fill="none" stroke="#000" stroke-linecap="round" stroke-linejoin="round" stroke-width="16"/>
  <line x1="79.99414" y1="151.98316" x2="111.99414" y2="151.98316" fill="none" stroke="#000" stroke-linecap="round" stroke-linejoin="round" stroke-width="16"/>
  <line x1="63.99414" y1="191.98316" x2="95.99414" y2="191.98316" fill="none" stroke="#000" stroke-linecap="round" stroke-linejoin="round" stroke-width="16"/>
  <line x1="175.99414" y1="175.98316" x2="191.99414" y2="175.98316" fill="none" stroke="#000" stroke-linecap="round" stroke-linejoin="round" stroke-width="16"/>
  <line x1="175.99414" y1="135.98316" x2="191.99414" y2="135.98316" fill="none" stroke="#000" stroke-linecap="round" stroke-linejoin="round" stroke-width="16"/>
</svg>
