<svg id="Raw" xmlns="http://www.w3.org/2000/svg" viewBox="0 0 256 256">
  <rect width="256" height="256" fill="none"/>
  <g>
    <path d="M240,207.98316h-8.00586v-104a16.01833,16.01833,0,0,0-16-16h-64v-48a16.01833,16.01833,0,0,0-16-16h-96a16.01833,16.01833,0,0,0-16,16v168H16a8,8,0,0,0,0,16H240a8,8,0,0,0,0-16Zm-120.00586-72a8.00009,8.00009,0,0,1-8,8h-32a8,8,0,0,1,0-16h32A8.00008,8.00008,0,0,1,119.99414,135.98316Zm-56-72h32a8,8,0,1,1,0,16h-32a8,8,0,0,1,0-16Zm0,104h32a8,8,0,1,1,0,16h-32a8,8,0,0,1,0-16Zm88-64h64v104h-64Z"/>
    <path d="M191.99414,167.98316h-16a8,8,0,0,0,0,16h16a8,8,0,1,0,0-16Z"/>
    <path d="M175.99414,143.98316h16a8,8,0,1,0,0-16h-16a8,8,0,0,0,0,16Z"/>
  </g>
</svg>
