<svg id="Layer_1" data-name="Layer 1" xmlns="http://www.w3.org/2000/svg" viewBox="0 0 256 256">
  <rect x="-0.11255" width="256" height="256" fill="none"/>
  <g opacity="0.2">
    <path d="M127.88742,230.81054a7.99524,7.99524,0,0,1-3.93643-1.03549l-84-47.47826a8,8,0,0,1-4.06354-6.96451V80.66772a7.99474,7.99474,0,0,1,1.102-4.05194l.00063.00037L128.94915,128l-1.0617,102.81036Z"/>
  </g>
  <line x1="128.94915" y1="128" x2="127.88745" y2="230.81036" fill="none" stroke="#000" stroke-linecap="round" stroke-linejoin="round" stroke-width="16"/>
  <path d="M219.88745,175.33228V80.66772a8,8,0,0,0-4.06354-6.9645l-84-47.47826a8,8,0,0,0-7.87292,0l-84,47.47826a8,8,0,0,0-4.06354,6.9645v94.66456a8,8,0,0,0,4.06354,6.96451l84,47.47826a8,8,0,0,0,7.87292,0l84-47.47826A8,8,0,0,0,219.88745,175.33228Z" fill="none" stroke="#000" stroke-linecap="round" stroke-linejoin="round" stroke-width="16"/>
  <polyline points="218.792 76.627 128.949 128 36.99 76.616" fill="none" stroke="#000" stroke-linecap="round" stroke-linejoin="round" stroke-width="16"/>
  <polyline points="177.022 148.511 177.022 100.511 84.243 48.669" fill="none" stroke="#000" stroke-linecap="round" stroke-linejoin="round" stroke-width="16"/>
</svg>
