<svg id="Raw" xmlns="http://www.w3.org/2000/svg" viewBox="0 0 256 256">
  <rect width="256" height="256" fill="none"/>
  <path d="M224,177.32122V78.67878a8,8,0,0,0-4.07791-6.9726l-88-49.5a8,8,0,0,0-7.84418,0l-88,49.5A8,8,0,0,0,32,78.67878v98.64244a8,8,0,0,0,4.07791,6.9726l88,49.5a8,8,0,0,0,7.84418,0l88-49.5A8,8,0,0,0,224,177.32122Z" fill="none" stroke="#000" stroke-linecap="round" stroke-linejoin="round" stroke-width="12"/>
  <polyline points="177.022 152.511 177.022 100.511 80 47" fill="none" stroke="#000" stroke-linecap="round" stroke-linejoin="round" stroke-width="12"/>
  <polyline points="222.897 74.627 128.949 128 33.108 74.617" fill="none" stroke="#000" stroke-linecap="round" stroke-linejoin="round" stroke-width="12"/>
  <line x1="128.94915" y1="128" x2="128.01036" y2="234.82131" fill="none" stroke="#000" stroke-linecap="round" stroke-linejoin="round" stroke-width="12"/>
</svg>
