<svg id="Layer_1" data-name="Layer 1" xmlns="http://www.w3.org/2000/svg" viewBox="0 0 256 256">
  <rect width="256" height="256" fill="none"/>
  <line x1="128.94915" y1="128" x2="127.88745" y2="230.81036" fill="none" stroke="#000" stroke-linecap="round" stroke-linejoin="round" stroke-width="8"/>
  <path d="M219.88745,175.33228V80.66772a8,8,0,0,0-4.06354-6.9645l-84-47.47826a8,8,0,0,0-7.87292,0l-84,47.47826a8,8,0,0,0-4.06354,6.9645v94.66456a8,8,0,0,0,4.06354,6.96451l84,47.47826a8,8,0,0,0,7.87292,0l84-47.47826A8,8,0,0,0,219.88745,175.33228Z" fill="none" stroke="#000" stroke-linecap="round" stroke-linejoin="round" stroke-width="8"/>
  <polyline points="218.792 76.627 128.949 128 36.99 76.616" fill="none" stroke="#000" stroke-linecap="round" stroke-linejoin="round" stroke-width="8"/>
  <polyline points="177.022 148.511 177.022 100.511 84.243 48.669" fill="none" stroke="#000" stroke-linecap="round" stroke-linejoin="round" stroke-width="8"/>
</svg>
