<svg id="Layer_1" data-name="Layer 1" xmlns="http://www.w3.org/2000/svg" viewBox="0 0 256 256">
  <path d="M128,128,33.06273,72.61993l.00014-.00946A7.99487,7.99487,0,0,0,32,76.595V179.405a8,8,0,0,0,3.969,6.91023l88,51.33333A7.99461,7.99461,0,0,0,128,238.73837l0-.00306V128" opacity="0.2"/>
  <path d="M224,179.405V76.595a8,8,0,0,0-3.969-6.91023l-88-51.33333a8,8,0,0,0-8.06194,0l-88,51.33333A8,8,0,0,0,32,76.595V179.405a8,8,0,0,0,3.969,6.91023l88,51.33333a8,8,0,0,0,8.06194,0l88-51.33333A8,8,0,0,0,224,179.405Z" fill="none" stroke="#000" stroke-linecap="round" stroke-linejoin="round" stroke-width="16"/>
  <line x1="176" y1="100" x2="80" y2="44" fill="none" stroke="#000" stroke-linecap="round" stroke-linejoin="round" stroke-width="16"/>
  <line x1="128" y1="128" x2="128" y2="238.73531" fill="none" stroke="#000" stroke-linecap="round" stroke-linejoin="round" stroke-width="16"/>
  <polyline points="222.938 72.619 128 128 33.063 72.62" fill="none" stroke="#000" stroke-linecap="round" stroke-linejoin="round" stroke-width="16"/>
  <line x1="176" y1="152" x2="176" y2="100" fill="none" stroke="#000" stroke-linecap="round" stroke-linejoin="round" stroke-width="16"/>
</svg>
