<svg id="Raw" xmlns="http://www.w3.org/2000/svg" viewBox="0 0 256 256">
  <rect width="256" height="256" fill="none"/>
  <path d="M224,128a7.99977,7.99977,0,0,1-8,8H180.28784C188.071,143.907,192,153.26367,192,164c0,30.6167-26.31787,52-64,52-28.25928,0-53.51562-15.33447-61.41943-37.29053a8.00013,8.00013,0,0,1,15.05468-5.41894C87.2959,189.0166,106.36182,200,128,200c23.89209,0,48-11.13135,48-36,0-7.45044-2.60071-18.385-24.61145-28H40a8,8,0,0,1,0-16H152.95728c.03759-.00049.075,0,.11267,0H216A7.99977,7.99977,0,0,1,224,128ZM86.00781,104.00439a8.00453,8.00453,0,0,0,7.43946-10.9375A24.60019,24.60019,0,0,1,92,84c0-15.43945,16.14941-28,36-28,18.17725,0,33.90381,11.0127,35.80371,25.07129a7.99979,7.99979,0,0,0,15.85547-2.14258C176.66064,56.73584,154.45215,40,128,40,99.32715,40,76,59.73828,76,84a40.124,40.124,0,0,0,2.56348,14.938A8.00176,8.00176,0,0,0,86.00781,104.00439Z"/>
</svg>
