<svg id="Raw" xmlns="http://www.w3.org/2000/svg" viewBox="0 0 256 256">
  <rect width="256" height="256" fill="none"/>
  <path d="M208,32H48A16.02085,16.02085,0,0,0,32,48V208a16.02085,16.02085,0,0,0,16,16H208a16.02085,16.02085,0,0,0,16-16V48A16.02085,16.02085,0,0,0,208,32ZM149.46094,173.45313a35.99631,35.99631,0,0,1-50.91406,0,7.99915,7.99915,0,0,1,11.3125-11.3125,20.45749,20.45749,0,0,0,28.28906,0A20,20,0,0,0,124,128a8.001,8.001,0,0,1-6.55469-12.58594l19.1875-27.42187H104a8,8,0,0,1,0-16h48a8.001,8.001,0,0,1,6.55469,12.58594l-21.02344,30.03906a36.023,36.023,0,0,1,11.92969,58.83594Z"/>
</svg>
