<svg id="Raw" xmlns="http://www.w3.org/2000/svg" viewBox="0 0 256 256">
  <rect width="256" height="256" fill="none"/>
  <path d="M246.41211,55.87061a7.99856,7.99856,0,0,0-8.95459-2.793,120.50746,120.50746,0,0,1-30.34131,6.01465,48.00284,48.00284,0,0,0-87.11963,26.51123A119.68665,119.68665,0,0,1,43.3457,33.36279a8.00016,8.00016,0,0,0-14.41455,2.22657A136.21055,136.21055,0,0,0,73.793,177.19482a119.46448,119.46448,0,0,1-55.93018,14.792,8.00707,8.00707,0,0,0-3.76709,15.00586A136.02811,136.02811,0,0,0,215.71631,96.85742a135.60493,135.60493,0,0,0,30.84228-31.60791A7.99891,7.99891,0,0,0,246.41211,55.87061Z"/>
</svg>
