<svg id="Raw" xmlns="http://www.w3.org/2000/svg" viewBox="0 0 256 256">
  <rect width="256" height="256" fill="none"/>
  <path d="M245.65723,77.65674l-30.16407,30.16455C209.4707,177.70215,150.53809,232,80,232c-14.52441,0-26.49414-2.30273-35.57764-6.84473-7.33056-3.665-10.33349-7.59912-11.07861-8.71777a8,8,0,0,1,3.84717-11.92822c.25732-.09717,23.84814-9.15772,39.09521-26.40869a109.574,109.574,0,0,1-24.72656-24.355c-13.708-18.60352-28.206-50.91114-19.43066-99.17676a8.00023,8.00023,0,0,1,13.52832-4.22559c.35254.35156,33.64209,33.1709,74.3374,43.772L120,87.99609a48.31863,48.31863,0,0,1,48.6084-47.99267,48.11329,48.11329,0,0,1,40.96875,23.99609L240,64a8.0001,8.0001,0,0,1,5.65723,13.65674Z"/>
</svg>
