<svg id="Raw" xmlns="http://www.w3.org/2000/svg" viewBox="0 0 256 256">
  <rect width="256" height="256" fill="none"/>
  <g opacity="0.2">
    <path d="M48,200s40-8,48-32c0,0-64-24-48-112,0,0,32,40,80,48V88.00288a40.00668,40.00668,0,0,1,76.67148-16.00327L240,72l-32,32c0,56-40,112-112,112C64,216,48,200,48,200Z"/>
  </g>
  <path d="M48,200s40-8,48-32c0,0-64-24-48-112,0,0,32,40,80,48V88.00288a40.00668,40.00668,0,0,1,76.67148-16.00327L240,72l-32,32c0,56-40,112-112,112C64,216,48,200,48,200Z" fill="none" stroke="#000" stroke-linecap="round" stroke-linejoin="round" stroke-width="16"/>
</svg>
