<svg id="Raw" xmlns="http://www.w3.org/2000/svg" viewBox="0 0 256 256">
  <rect width="256" height="256" fill="none"/>
  <path d="M168,224a8.00008,8.00008,0,0,1-8,8H96a8,8,0,0,1,0-16h64A8.00008,8.00008,0,0,1,168,224ZM232,64V176a24.0275,24.0275,0,0,1-24,24H48a24.0275,24.0275,0,0,1-24-24V64A24.02734,24.02734,0,0,1,48,40H208A24.02734,24.02734,0,0,1,232,64Zm-68,56a8.00014,8.00014,0,0,0-3.70508-6.74927l-44-28A7.99989,7.99989,0,0,0,104,92v56a7.99991,7.99991,0,0,0,12.29492,6.74927l44-28A8.00014,8.00014,0,0,0,164,120Z"/>
</svg>
