<svg id="Raw" xmlns="http://www.w3.org/2000/svg" viewBox="0 0 256 256">
  <rect width="256" height="256" fill="none"/>
  <path d="M168,224.00024a8.00039,8.00039,0,0,1-8,8H96a8,8,0,1,1,0-16h64A8.0004,8.0004,0,0,1,168,224.00024Zm64-160v112a24.0275,24.0275,0,0,1-24,24H48a24.0275,24.0275,0,0,1-24-24v-112a24.0275,24.0275,0,0,1,24-24H208A24.0275,24.0275,0,0,1,232,64.00024ZM168,120a8.02148,8.02148,0,0,0-3.5625-6.65625l-48-32A7.99612,7.99612,0,0,0,104,88v64a7.99975,7.99975,0,0,0,12.4375,6.65625l48-32A8.02151,8.02151,0,0,0,168,120Z"/>
</svg>
