<svg id="Raw" xmlns="http://www.w3.org/2000/svg" viewBox="0 0 256 256">
  <rect width="256" height="256" fill="none"/>
  <path d="M213.65723,42.34326a53.25535,53.25535,0,0,0-75.31446,0l-96,96a53.255,53.255,0,0,0,75.31446,75.31348l96-96A53.31558,53.31558,0,0,0,213.65723,42.34326Zm-11.31446,64L160,148.68628,107.31348,96l42.34375-42.34326a37.25465,37.25465,0,0,1,52.68554,52.68652Zm-12.10351-23.416a7.99946,7.99946,0,0,1-.19629,11.312l-24.416,23.584a7.99966,7.99966,0,1,1-11.11523-11.50781l24.416-23.584A7.99843,7.99843,0,0,1,190.23926,82.92725Z"/>
</svg>
