<svg id="Layer_1" data-name="Layer 1" xmlns="http://www.w3.org/2000/svg" viewBox="0 0 256 256">
  <path d="M46.99609,112.38574A24.01793,24.01793,0,0,1,69.76562,96H216V88a16.01583,16.01583,0,0,0-16-16H130.65625L102.92187,51.19531A16.08488,16.08488,0,0,0,93.32812,48H40A16.01582,16.01582,0,0,0,24,64V181.38477Z"/>
  <path d="M239.20312,118.64062A16.03432,16.03432,0,0,0,226.23437,112H77.17187a18.83411,18.83411,0,0,0-17.90625,12.90625l-26.85937,80.5625A8.01014,8.01014,0,0,0,40,216H208a8.01572,8.01572,0,0,0,7.59375-5.46875l25.82812-77.46875v-.01562A16.06312,16.06312,0,0,0,239.20312,118.64062Zm-5.3789,11.88868h0l.0039.00195Z"/>
</svg>
