<svg id="Layer_1" data-name="Layer 1" xmlns="http://www.w3.org/2000/svg" viewBox="0 0 256 256">
  <rect width="256" height="256" fill="none"/>
  <g>
    <path d="M52.11426,169.00684l71.99316-40a8.00221,8.00221,0,0,1,7.77,0l72.00733,40L208,171.293V40a16.01583,16.01583,0,0,0-16-16H64A16.01583,16.01583,0,0,0,48,40V171.293Z"/>
    <path d="M196.11523,182.99316l-68.12207-37.84179L59.88574,182.99316,48,189.59717V224a7.99583,7.99583,0,0,0,11.89062,6.99219L128,193.14844l68.10938,37.84375A7.99583,7.99583,0,0,0,208,224V189.59521Z"/>
  </g>
</svg>
