<svg id="Layer_1" data-name="Layer 1" xmlns="http://www.w3.org/2000/svg" viewBox="0 0 256 256">
  <rect x="0.00049" width="255.99951" height="256" fill="none"/>
  <g>
    <path d="M215.99951,163.99353H194.8291a27.99567,27.99567,0,0,0-53.65918,0H39.99951a8,8,0,0,0,0,16H141.16992a27.99567,27.99567,0,0,0,53.65918,0h21.17041a8,8,0,0,0,0-16Z"/>
    <path d="M39.999,91.99255l37.1709.001a27.99567,27.99567,0,0,0,53.65918,0l85.17041-.001a8,8,0,0,0,0-16l-85.17041.001a27.99567,27.99567,0,0,0-53.65918,0L40,75.99255h-.00049a8,8,0,0,0-.00049,16Z"/>
  </g>
</svg>
