<svg id="Layer_1" data-name="Layer 1" xmlns="http://www.w3.org/2000/svg" viewBox="0 0 256 256">
  <rect x="0.00488" width="256" height="256" fill="none"/>
  <rect width="256" height="256" fill="none"/>
  <path d="M160,39.99805a88.01077,88.01077,0,0,0-11.30957.81152c-1.02344.13281-2.03418.29883-3.0459.46582a87.047,87.047,0,0,0-8.8623,1.93262c-.69532.19043-1.40918.333-2.09766.541a87.1629,87.1629,0,0,0-10.09082,3.749c-.80371.35547-1.57617.76465-2.36719,1.14257q-3.85839,1.84425-7.502,4.042c-.81445.49121-1.64063.96484-2.4375,1.48242a88.58343,88.58343,0,0,0-8.53613,6.2334c-.41211.34375-.78418.73144-1.19043,1.082a88.95685,88.95685,0,0,0-6.583,6.333q-1.05909,1.12645-2.08106,2.28808a88.48441,88.48441,0,0,0-5.73535,7.2461c-.292.41308-.624.79687-.90918,1.21484A89.4815,89.4815,0,0,0,72,127.99805a8,8,0,0,1-16,0,103.347,103.347,0,0,1,7.7168-39.16211C32.36328,92.94824,8,119.54492,8,151.99805a64.06831,64.06831,0,0,0,64,64h56V147.31348l-20.28418,20.28418a7.99984,7.99984,0,1,1-11.31348-11.31348l33.937-33.937a7.95651,7.95651,0,0,1,.592-.5354c.08374-.06885.17224-.12818.258-.19312.12256-.09253.24317-.18725.3711-.273.10717-.07153.2185-.1333.32837-.19922.11377-.06836.22534-.13964.34277-.20263.11352-.06055.23022-.11182.34582-.16651.12073-.05737.23987-.11767.3639-.16894.11157-.04614.22583-.08325.33911-.124.13281-.04834.26416-.09888.40014-.14014.1128-.03394.22718-.0586.34107-.08765.13867-.0354.27612-.074.4176-.1018.12976-.02588.26087-.04053.3916-.05982.12744-.0188.25305-.04272.38233-.05518.23205-.02294.465-.03271.69812-.0354.02978-.00024.05871-.00439.08862-.00439s.05884.00415.08862.00439c.23316.00269.46607.01246.69812.0354.12928.01246.25489.03638.38233.05518.13073.01929.26184.03394.3916.05982.14148.02783.27893.0664.4176.1018.11389.029.22827.05371.34107.08765.136.04126.26733.0918.40014.14014.11328.04077.22754.07788.33911.124.124.05127.24317.11157.3639.16894.1156.05469.2323.106.34582.16651.11743.063.229.13427.34277.20263.10987.06592.2212.12769.32837.19922.12793.0857.24854.18042.3711.273.08581.06494.17431.12427.258.19312a7.95651,7.95651,0,0,1,.592.5354l33.937,33.937a7.99984,7.99984,0,1,1-11.31348,11.31348L144,147.31348v68.68457h16a88,88,0,0,0,0-176Z"/>
</svg>
