<svg id="Layer_1" data-name="Layer 1" xmlns="http://www.w3.org/2000/svg" viewBox="0 0 256 256">
  <path d="M166.794,89.20569A167.544,167.544,0,0,0,56.76562,40.22522a15.84867,15.84867,0,0,0-11.70947,4.36719A16.26655,16.26655,0,0,0,40,56.32971V199.99963a16.01833,16.01833,0,0,0,16,16H199.66992a16.26536,16.26536,0,0,0,11.73779-5.05664,15.903,15.903,0,0,0,4.36719-11.709A167.55129,167.55129,0,0,0,166.794,89.20569Zm32.876,110.79394-80.1217.006A71.96886,71.96886,0,0,0,56,136.45215V56.32971a.218.218,0,0,1,.05908-.12012A152.016,152.016,0,0,1,199.79,199.94006.21241.21241,0,0,1,199.66992,199.99963Z"/>
</svg>
