<svg id="Layer_1" data-name="Layer 1" xmlns="http://www.w3.org/2000/svg" viewBox="0 0 256 256">
  <g opacity="0.2">
    <path d="M112,208H56a8,8,0,0,1-8-8V144a64,64,0,0,1,64,64"/>
  </g>
  <g>
    <path d="M48,200V56.32988a8.09741,8.09741,0,0,1,8.3548-8.1155A160.01519,160.01519,0,0,1,207.78562,199.6452,8.09741,8.09741,0,0,1,199.67012,208H56A8,8,0,0,1,48,200Z" fill="none" stroke="#000" stroke-linecap="round" stroke-linejoin="round" stroke-width="16"/>
    <path d="M48,144a64,64,0,0,1,64,64" fill="none" stroke="#000" stroke-linecap="round" stroke-linejoin="round" stroke-width="16"/>
  </g>
  <path d="M112,208H56a8,8,0,0,1-8-8V144a64,64,0,0,1,64,64" fill="none" stroke="#000" stroke-linecap="round" stroke-linejoin="round" stroke-width="16"/>
</svg>
