<svg id="Layer_1" data-name="Layer 1" xmlns="http://www.w3.org/2000/svg" viewBox="0 0 256 256">
  <path d="M230.67334,66.74561C228.708,54.36768,217.3916,43.55127,204.86816,42.1167a709.54987,709.54987,0,0,0-153.77832.00439c-12.47851,1.42969-23.79492,12.24512-25.7705,24.66944a404.54889,404.54889,0,0,0,.00732,122.46533c1.96777,12.37842,13.28467,23.19385,25.80518,24.62744A708.4668,708.4668,0,0,0,128,218.06055a708.4668,708.4668,0,0,0,76.86816-4.17725l.041-.00439c12.48047-1.42823,23.79736-12.24414,25.77148-24.66944A404.53923,404.53923,0,0,0,230.67334,66.74561ZM164.4375,134.65625l-48,32A8,8,0,0,1,104,160V96a8,8,0,0,1,12.4375-6.65625l48,32a7.99959,7.99959,0,0,1,0,13.3125Z"/>
  <rect width="256" height="256" fill="none"/>
</svg>
