<svg id="Raw" xmlns="http://www.w3.org/2000/svg" viewBox="0 0 256 256">
  <rect width="256" height="256" fill="none"/>
  <path d="M168,76a12,12,0,1,1-12-12A12,12,0,0,1,168,76Zm37.708,83.49292c-20.42774,25.95142-53.21875,40.1106-97.51758,42.12524L87.374,251.10205A7.99987,7.99987,0,0,1,80.00293,256c-.16016,0-.32129-.00488-.48242-.01416a8.0008,8.0008,0,0,1-7.21289-5.78809l-14.7793-51.72949L5.79785,183.6543a8.00035,8.00035,0,0,1-.89941-15.06543l49.46094-20.80152c2.02539-44.28955,16.19042-77.074,42.14355-97.49829,41.11816-32.35791,99.376-22.94629,116.251-19.29A16.03051,16.03051,0,0,1,225.001,43.24487C228.65723,60.12231,238.07031,118.3811,205.708,159.49292Zm3.65625-112.85986C194.2168,43.35449,142.02148,34.82642,106.39844,62.8623a78.69585,78.69585,0,0,0-10.38086,9.83619A40.03964,40.03964,0,0,0,136,112a8.00024,8.00024,0,0,1,8,8,40.039,40.039,0,0,0,39.29077,39.98193,78.64492,78.64492,0,0,0,9.845-10.38549C221.17383,113.978,212.64551,61.78223,209.36426,46.63306Z"/>
</svg>
