<svg id="Layer_1" data-name="Layer 1" xmlns="http://www.w3.org/2000/svg" viewBox="0 0 256 256">
  <rect width="256" height="256" fill="none"/>
  <path d="M224,48H32A16.01833,16.01833,0,0,0,16,64V96.73633c-.00049.03906-.00586.07715-.00586.11621s.00537.07715.00586.11621V192a16.01833,16.01833,0,0,0,16,16H224a16.01833,16.01833,0,0,0,16-16V64A16.01833,16.01833,0,0,0,224,48ZM135.99414,176h-16a8,8,0,0,1,0-16h16a8,8,0,1,1,0,16Zm64,0h-32a8,8,0,0,1,0-16h32a8,8,0,1,1,0,16ZM32,88.85254V64H224l.002,24.85254Z"/>
</svg>
