<svg id="Raw" xmlns="http://www.w3.org/2000/svg" viewBox="0 0 256 256">
  <rect width="256" height="256" fill="none"/>
  <polygon points="164 128 108 92 108 164 164 128" fill="none" stroke="#000" stroke-linecap="round" stroke-linejoin="round" stroke-width="24"/>
  <path d="M24,128c0,29.75546,3.07414,47.21382,5.41108,56.18664a15.91682,15.91682,0,0,0,9.63282,10.89441C72.52083,207.94575,128,207.5925,128,207.5925s55.47857.35324,88.9558-12.51137a15.91684,15.91684,0,0,0,9.6329-10.89432C228.92572,175.214,232,157.75554,232,128s-3.07415-47.21382-5.41108-56.18664A15.91682,15.91682,0,0,0,216.9561,60.919C183.47917,48.05425,128,48.4075,128,48.4075s-55.47857-.35324-88.9558,12.51137a15.91684,15.91684,0,0,0-9.6329,10.89432C27.07427,80.786,24,98.24446,24,128Z" fill="none" stroke="#000" stroke-linecap="round" stroke-linejoin="round" stroke-width="24"/>
</svg>
