<svg id="Raw" xmlns="http://www.w3.org/2000/svg" viewBox="0 0 256 256">
  <rect width="256" height="256" fill="none"/>
  <path d="M234.33057,69.79736a23.96369,23.96369,0,0,0-14.50489-16.34619C185.55615,40.28223,130.97949,40.39209,128,40.40771c-2.978-.02392-57.55518-.126-91.8252,13.04346A23.96415,23.96415,0,0,0,21.66992,69.79639C19.083,79.72705,16,97.88574,16,128c0,30.11377,3.083,48.27246,5.66943,58.20264a23.96369,23.96369,0,0,0,14.50489,16.34619c32.80615,12.60693,84.22168,13.04541,91.167,13.04541.6206.00049.69678.00049,1.31738,0,6.95069-.00049,58.36231-.43945,91.16651-13.04541a23.96415,23.96415,0,0,0,14.50488-16.34522C236.917,176.273,240,158.11426,240,128,240,97.88623,236.917,79.72754,234.33057,69.79736Zm-72.11182,61.53076-48,32A3.99967,3.99967,0,0,1,108,160V96a3.99968,3.99968,0,0,1,6.21875-3.32813l48,32a3.99979,3.99979,0,0,1,0,6.65625Z"/>
</svg>
