<svg id="Layer_1" data-name="Layer 1" xmlns="http://www.w3.org/2000/svg" viewBox="0 0 256 256">
  <polygon points="100.411 122.963 109.843 149.375 137.433 154.411 155.589 133.037 146.157 106.625 118.567 101.589 100.411 122.963"/>
  <path d="M135.53369,29.30957l32.0166,89.64648L205.0415,74.82031l6.949-8.18066a105.42536,105.42536,0,0,0-10.45142-12.17871A103.23864,103.23864,0,0,0,133.6936,24.15723Z"/>
  <path d="M212.57568,168.12988l10.5979,1.93457a104.54213,104.54213,0,0,0-2.36108-89.09521l-3.57666,4.21045-61.62769,72.5498Z"/>
  <path d="M46.29834,72.12988l93.64478,17.09619L120.46631,34.69043l-3.60645-10.09766A103.20948,103.20948,0,0,0,54.46094,54.46094,104.96141,104.96141,0,0,0,40.887,71.14209Z"/>
  <path d="M209.70166,183.87012l-70.51709-12.874-.04553-.0083-23.08216-4.21386,19.47681,54.53564,3.60645,10.09766a103.20948,103.20948,0,0,0,62.39892-29.86817,104.96141,104.96141,0,0,0,13.574-16.68115Z"/>
  <path d="M120.46631,226.69043,88.44971,137.044,50.9585,181.17969l-6.949,8.18066a105.42452,105.42452,0,0,0,10.45142,12.17871,103.23864,103.23864,0,0,0,67.84546,30.30371Z"/>
  <path d="M43.42432,87.87012l-10.5979-1.93457a104.54213,104.54213,0,0,0,2.36108,89.09521l3.57666-4.21045,61.62769-72.5498Z"/>
</svg>
