<svg id="Layer_1" data-name="Layer 1" xmlns="http://www.w3.org/2000/svg" viewBox="0 0 256 256">
  <circle cx="128" cy="128" r="96" fill="none" stroke="#000" stroke-linecap="round" stroke-linejoin="round" stroke-width="16"/>
  <line x1="128" y1="32" x2="164.6771" y2="134.69588" fill="none" stroke="#000" stroke-linecap="round" stroke-linejoin="round" stroke-width="16"/>
  <line x1="44.86156" y1="80" x2="152.13735" y2="99.58464" fill="none" stroke="#000" stroke-linecap="round" stroke-linejoin="round" stroke-width="16"/>
  <line x1="44.86156" y1="176" x2="115.46025" y2="92.88876" fill="none" stroke="#000" stroke-linecap="round" stroke-linejoin="round" stroke-width="16"/>
  <line x1="128" y1="224" x2="91.3229" y2="121.30412" fill="none" stroke="#000" stroke-linecap="round" stroke-linejoin="round" stroke-width="16"/>
  <line x1="211.13844" y1="176" x2="103.86265" y2="156.41536" fill="none" stroke="#000" stroke-linecap="round" stroke-linejoin="round" stroke-width="16"/>
  <line x1="211.13844" y1="80" x2="140.53975" y2="163.11124" fill="none" stroke="#000" stroke-linecap="round" stroke-linejoin="round" stroke-width="16"/>
  <path d="M195.88226,60.11768a96.00006,96.00006,0,1,0,0,135.76464A96.00019,96.00019,0,0,0,195.88226,60.11768ZM164.67712,134.6958l-24.13733,28.41553h-.00006l-36.67706-6.6958-.00006-.00049L91.32294,121.3042h0l24.13733-28.41553h.00006l36.67706,6.6958h0l12.53973,35.11133Z" opacity="0.2"/>
</svg>
