<svg id="Layer_1" data-name="Layer 1" xmlns="http://www.w3.org/2000/svg" viewBox="0 0 256 256">
  <rect width="256" height="256" fill="none"/>
  <g>
    <polygon points="118.567 101.588 100.41 122.964 109.843 149.375 137.433 154.412 155.59 133.036 146.157 106.625 118.567 101.588"/>
    <path d="M201.53906,54.46094A103.99994,103.99994,0,1,0,54.46094,201.53906,103.99994,103.99994,0,1,0,201.53906,54.46094Zm-5.895,110.57812a8.00024,8.00024,0,1,1-2.874,15.74024l-53.58752-9.78321-.04084-.00781-23.08484-4.21435,13.6883,38.32666a7.99969,7.99969,0,1,1-15.06739,5.38086L88.44983,137.044,62.10156,168.0625a8.00028,8.00028,0,1,1-12.19433-10.35937L100.392,98.27051,60.356,90.96094A8.00024,8.00024,0,0,1,63.23,75.2207l76.7132,14.00537-13.6883-38.32666a7.99969,7.99969,0,1,1,15.06739-5.38086l26.2279,73.4375L193.89844,87.9375a8.00029,8.00029,0,1,1,12.19433,10.35938L155.608,157.72949Z"/>
  </g>
</svg>
