<svg id="Raw" xmlns="http://www.w3.org/2000/svg" viewBox="0 0 256 256">
  <rect width="256" height="256" fill="none"/>
  <path d="M224.9707,23.0293c-21.30468,0-45.23242,11.74316-71.11914,34.90234-18.04687,16.146-33.54394,34.64258-44.27978,48.69922A59.99965,59.99965,0,0,0,32,164c0,31.21094-16.23926,45.12109-17.041,45.78809A8,8,0,0,0,20,224H92a60.00007,60.00007,0,0,0,57.36914-77.57227c14.05664-10.73535,32.55371-26.23193,48.7002-44.28027C221.22852,76.26172,232.9707,52.334,232.9707,31.0293A8.00039,8.00039,0,0,0,224.9707,23.0293ZM124.44189,113.56689c2.8628-3.66259,6.29053-7.91308,10.1753-12.49218a76.22114,76.22114,0,0,1,20.3081,20.3081c-4.5791,3.88477-8.82959,7.3125-12.49267,10.1753A60.4544,60.4544,0,0,0,124.44189,113.56689Zm42.54883-2.86718a92.19891,92.19891,0,0,0-21.69043-21.69043c19.60987-21.18408,45.98389-44.37354,70.79834-49.10791C211.36426,64.71631,188.1748,91.08984,166.99072,110.69971Z"/>
</svg>
