<svg id="Layer_1" data-name="Layer 1" xmlns="http://www.w3.org/2000/svg" viewBox="0 0 256 256">
  <g>
    <path d="M178.91064,128.001a7.99984,7.99984,0,1,0,11.31446,11.3125L210.023,119.51465a51.99928,51.99928,0,1,0-73.53711-73.53906L116.686,65.77441a7.99984,7.99984,0,0,0,11.3125,11.31446l19.80078-19.79981a35.99961,35.99961,0,1,1,50.91015,50.91211Z"/>
    <path d="M128.00049,178.91113l-19.80078,19.79981a35.99961,35.99961,0,1,1-50.91016-50.91211L77.08838,127.999a7.99983,7.99983,0,0,0-11.31445-11.3125L45.97607,136.48535a51.99928,51.99928,0,1,0,73.53711,73.53906L139.313,190.22559a7.99984,7.99984,0,0,0-11.3125-11.31446Z"/>
    <path d="M94.05811,79.43164a8.0004,8.0004,0,0,0,8-8V48.80371a8,8,0,1,0-16,0V71.43164A8.00039,8.00039,0,0,0,94.05811,79.43164Z"/>
    <path d="M48.80322,102.05859H71.43115a8,8,0,0,0,0-16H48.80322a8,8,0,1,0,0,16Z"/>
    <path d="M207.1958,153.94141H184.56787a8,8,0,0,0,0,16H207.1958a8,8,0,0,0,0-16Z"/>
    <path d="M161.94092,176.56836a8.00039,8.00039,0,0,0-8,8v22.62793a8,8,0,0,0,16,0V184.56836A8.00039,8.00039,0,0,0,161.94092,176.56836Z"/>
  </g>
</svg>
