<svg id="Layer_1" data-name="Layer 1" xmlns="http://www.w3.org/2000/svg" viewBox="0 0 256 256">
  <path d="M234.9834,69.3291A16.01892,16.01892,0,0,0,223.06152,64h-45.7749c-3.98047-22.6709-24.562-40-49.29248-40s-45.312,17.3291-49.29248,40H32.93848A16.00031,16.00031,0,0,0,17.03613,81.7666L31.25781,209.76709A15.98372,15.98372,0,0,0,47.16016,224H208.83984a15.98375,15.98375,0,0,0,15.90235-14.2334l14.22168-128A16.01871,16.01871,0,0,0,234.9834,69.3291ZM127.99414,40c15.814,0,29.14014,10.21387,32.92383,24H95.07031C98.854,50.21387,112.18018,40,127.99414,40Z"/>
</svg>
