<svg id="Layer_1" data-name="Layer 1" xmlns="http://www.w3.org/2000/svg" viewBox="0 0 256 256">
  <path d="M234.9834,69.3291A16.01892,16.01892,0,0,0,223.06152,64H175.3208a47.99073,47.99073,0,0,0-94.6416,0H32.93848A16.00031,16.00031,0,0,0,17.03613,81.7666L31.25781,209.76709A15.98372,15.98372,0,0,0,47.16016,224H208.83984a15.98375,15.98375,0,0,0,15.90235-14.2334l14.22168-128A16.01871,16.01871,0,0,0,234.9834,69.3291ZM128,40a32.05773,32.05773,0,0,1,30.9873,24H97.0127A32.05773,32.05773,0,0,1,128,40Z"/>
</svg>
