<svg id="Layer_1" data-name="Layer 1" xmlns="http://www.w3.org/2000/svg" viewBox="0 0 256 256">
  <path d="M172.01807,47.74023h-.02344L84.00439,48A59.86832,59.86832,0,0,0,24.90625,97.58887c-.0127.07226-.02441.14551-.03516.21777L8.57715,181.60547c-.00879.0459-.01709.0918-.02539.13769A36.00238,36.00238,0,0,0,69.45752,213.457q.21753-.2168.416-.44726l40.729-45.02442,61.41553-.24512a60,60,0,0,0,0-120ZM104,116H96v8a8,8,0,0,1-16,0v-8H72a8,8,0,0,1,0-16h8V92a8,8,0,0,1,16,0v8h8a8,8,0,0,1,0,16Zm80,0H152a8,8,0,0,1,0-16h32a8,8,0,0,1,0,16Z"/>
  <path d="M247.45752,181.74316c-.00781-.04394-.01563-.08789-.02441-.13086l-3.98047-20.55468a8.00025,8.00025,0,0,0-13.90821-3.709,75.43474,75.43474,0,0,1-52.48974,26.22754,7.999,7.999,0,0,0-5.41944,13.33594l14.48877,16.083q.20289.2373.42774.46191a36.00125,36.00125,0,0,0,60.90576-31.71387Z"/>
</svg>
