<svg id="Raw" xmlns="http://www.w3.org/2000/svg" viewBox="0 0 256 256">
  <rect width="256" height="256" fill="none"/>
  <path d="M188,80a27.82885,27.82885,0,0,0-13.35791,3.39716A27.97426,27.97426,0,0,0,128,72.43066,27.9817,27.9817,0,0,0,80,92v16H68a28.03146,28.03146,0,0,0-28,28v16a88,88,0,0,0,176,0V108A28.03146,28.03146,0,0,0,188,80Zm12,72a72,72,0,0,1-144,0V136a12.01343,12.01343,0,0,1,12-12H80v24a8,8,0,0,0,16,0V92a12,12,0,0,1,24,0v32a8,8,0,0,0,16,0V92a12,12,0,0,1,24,0v32a8,8,0,0,0,16,0V108a12,12,0,0,1,24,0Z"/>
</svg>
