<svg id="Layer_1" data-name="Layer 1" xmlns="http://www.w3.org/2000/svg" viewBox="0 0 256 256">
  <path d="M128,136a8.00024,8.00024,0,0,1-8-8V24a8,8,0,0,1,16,0V128A8.00024,8.00024,0,0,1,128,136Z"/>
  <path d="M176,80a7.97661,7.97661,0,0,1-5.65674-2.34277L128,35.31348,85.65674,77.65723A8.00018,8.00018,0,0,1,74.34326,66.34277l48-48a8.00182,8.00182,0,0,1,11.31348,0l48,48A8,8,0,0,1,176,80Z"/>
  <path d="M224,120H152v8a24,24,0,0,1-48,0v-8H32a16.01833,16.01833,0,0,0-16,16v64a16.01833,16.01833,0,0,0,16,16H224a16.01833,16.01833,0,0,0,16-16V136A16.01833,16.01833,0,0,0,224,120Zm-35.99951,60a12,12,0,1,1,12-12A12,12,0,0,1,188.00049,180Z"/>
</svg>
