<svg id="Raw" xmlns="http://www.w3.org/2000/svg" viewBox="0 0 256 256">
  <rect width="256" height="256" fill="none"/>
  <g opacity="0.2">
    <path d="M36.67036,173.04838,60.85763,35.87558a8,8,0,0,1,9.26764-6.48928l55.14924,9.7243a8,8,0,0,1,6.48927,9.26765L107.453,186.25133a36.00022,36.00022,0,0,1-41.01188,29.317C46.4984,212.4439,33.16509,192.92775,36.67036,173.04838Z"/>
  </g>
  <circle cx="72" cy="179.99977" r="4" fill="none" stroke="#000" stroke-linecap="round" stroke-linejoin="round" stroke-width="16"/>
  <path d="M36.67036,173.04838,60.85763,35.87558a8,8,0,0,1,9.26764-6.48928l55.14924,9.7243a8,8,0,0,1,6.48927,9.26765L107.453,186.25133a36.00022,36.00022,0,0,1-41.01188,29.317C46.4984,212.4439,33.16509,192.92775,36.67036,173.04838Z" fill="none" stroke="#000" stroke-linecap="round" stroke-linejoin="round" stroke-width="16"/>
  <path d="M118.28071,124.84457,191.244,98.2881a8,8,0,0,1,10.2537,4.78138l19.15313,52.62278a8,8,0,0,1-4.78138,10.25371l-131.557,47.88282" fill="none" stroke="#000" stroke-linecap="round" stroke-linejoin="round" stroke-width="16"/>
  <path d="M219.99977,162.53273v45.467a8,8,0,0,1-8,8h-140" fill="none" stroke="#000" stroke-linecap="round" stroke-linejoin="round" stroke-width="16"/>
</svg>
