<svg id="Raw" xmlns="http://www.w3.org/2000/svg" viewBox="0 0 256 256">
  <rect width="256" height="256" fill="none"/>
  <path d="M138.34277,205.65674a8.00182,8.00182,0,0,1,0-11.31348L196.68652,136H40a8,8,0,0,1,0-16H196.68652L138.34277,61.65674a8.00018,8.00018,0,1,1,11.31446-11.31348l72,72c.02612.02588.0476.05469.07324.08106.158.16211.31128.32861.45508.50341.08032.09766.15039.20118.22534.30176.08105.1084.16528.21485.241.32764.07788.11621.1455.2373.21679.35693.06226.10449.12793.20655.18579.31446.06421.12011.1189.24414.17676.36669.054.11426.11084.22657.15942.34327.04883.11816.08838.23925.13135.35937.04541.126.09375.251.13282.37988.03613.11963.06274.24122.09326.36231.0332.13184.07031.26269.09692.397.02759.13965.04419.28028.06421.42041.01685.11817.03931.23389.051.353.02587.26269.03979.52588.03979.78955s-.01392.52686-.03979.78955c-.01172.11914-.03418.23486-.051.353-.02.14013-.03662.28076-.06421.42041-.02661.13428-.06372.26514-.09692.397-.03052.12109-.05713.24268-.09326.36231-.03907.1289-.08741.2539-.13282.37988-.043.12012-.08252.24121-.13135.35937-.04858.1167-.10546.229-.15942.34327-.05786.12255-.11255.24658-.17676.36669-.05786.10791-.12353.21-.18579.31446-.07129.11963-.13891.24072-.21679.35693-.07569.11279-.15992.21924-.241.32764-.075.10058-.145.2041-.22534.30176-.14624.17822-.30225.34765-.46338.51269-.02271.023-.04175.04883-.06494.07178l-72,72A8.00034,8.00034,0,0,1,138.34277,205.65674Z"/>
</svg>
