<svg id="Raw" xmlns="http://www.w3.org/2000/svg" viewBox="0 0 256 256">
  <rect width="256" height="256" fill="none"/>
  <line x1="128" y1="24.00002" x2="128" y2="189.44779" fill="none" stroke="#000" stroke-linecap="round" stroke-linejoin="round" stroke-width="24"/>
  <path d="M220.16021,116.58462l8.71741-7.25565c5.94268-4.9462,2.87542-14.80876-4.75965-15.30428l-11.54749-.74944" fill="none" stroke="#000" stroke-linecap="round" stroke-linejoin="round" stroke-width="24"/>
  <path d="M173.021,216.46145l9.82554,6.22506c6.44693,4.08451,14.45124-1.99032,12.53819-9.51579l-2.774-10.91217" fill="none" stroke="#000" stroke-linecap="round" stroke-linejoin="round" stroke-width="24"/>
  <path d="M182.00561,160.54069l-1.19285-4.69238a8.75742,8.75742,0,0,1,2.83756-8.87589l3.41259-2.84035" fill="none" stroke="#000" stroke-linecap="round" stroke-linejoin="round" stroke-width="24"/>
  <path d="M169.59525,90.48615l-4.54116-.29472a8.41836,8.41836,0,0,1-7.24792-5.3506L152.7071,72.00006,135.77783,29.36778a8.31887,8.31887,0,0,0-15.55566,0L98.19383,84.84083a8.41836,8.41836,0,0,1-7.24792,5.3506L31.882,94.02469c-7.63507.49552-10.70233,10.35808-4.75965,15.30428l45.2273,37.64345a8.75742,8.75742,0,0,1,2.83756,8.87589L61.6734,209.00846c-2.29566,9.03056,7.30952,16.32036,15.04583,11.41895l46.86971-29.69475a8.21431,8.21431,0,0,1,8.82212,0l4.24315,2.68829" fill="none" stroke="#000" stroke-linecap="round" stroke-linejoin="round" stroke-width="24"/>
</svg>
