<svg id="Raw" xmlns="http://www.w3.org/2000/svg" viewBox="0 0 256 256">
  <rect width="256" height="256" fill="none"/>
  <path d="M233.99609,115.47754l-8.71777,7.25586A7.99993,7.99993,0,0,1,215.042,110.43652l8.71778-7.25586a.645.645,0,0,0,.18652-.81054c-.11328-.34766-.23242-.35547-.34668-.36231l-11.54688-.749a8.00016,8.00016,0,0,1,1.03516-15.9668l11.54785.749A16.36187,16.36187,0,0,1,239.16016,97.418,16.65646,16.65646,0,0,1,233.99609,115.47754Zm-60.93652,42.34277,3.31445,13.03516a7.99972,7.99972,0,0,0,15.50586-3.94336l-3.31347-13.0332a.77056.77056,0,0,1,.20117-.75684l10.03222-8.34961a8.00006,8.00006,0,0,0-10.23437-12.29883l-10.03223,8.34961A16.81494,16.81494,0,0,0,173.05957,157.82031ZM186.17383,91.5625a8.00082,8.00082,0,0,0-7.46485-8.50195L165.57227,82.208a.453.453,0,0,1-.33008-.32031L143.21289,26.416a16.31771,16.31771,0,0,0-30.42578-.001L90.75781,81.88965a.45394.45394,0,0,1-.3291.31836L31.36328,86.041A16.36063,16.36063,0,0,0,16.83984,97.418a16.65646,16.65646,0,0,0,5.16407,18.05957l45.22851,37.64453a.77256.77256,0,0,1,.20215.75586L53.9209,207.03711a18.3696,18.3696,0,0,0,6.999,19.5166A17.79837,17.79837,0,0,0,81,227.18555l46.87012-29.69532a.23765.23765,0,0,1,.12939-.042h.00244a.24439.24439,0,0,1,.12793.042l11.5166,7.29688a7.99982,7.99982,0,1,0,8.5625-13.51563l-11.5166-7.29687c-.22656-.14356-.46-.273-.69238-.4043V51.60425L150.37109,87.792A16.49953,16.49953,0,0,0,164.53516,98.1748l13.13672.85254A8.00533,8.00533,0,0,0,186.17383,91.5625Zm14.18945,108.72461a7.99972,7.99972,0,0,0-15.50586,3.94336l2.77442,10.91113a.64731.64731,0,0,1-.05274.59473.82311.82311,0,0,1-.30566.2666.61873.61873,0,0,1-.14551-.07422l-9.82617-6.22461a7.99982,7.99982,0,0,0-8.5625,13.51563l9.82519,6.22461a16.16285,16.16285,0,0,0,18.23047-.57227,16.63644,16.63644,0,0,0,6.34278-17.67285Z"/>
</svg>
