<svg id="Raw" xmlns="http://www.w3.org/2000/svg" viewBox="0 0 256 256">
  <rect width="256" height="256" fill="none"/>
  <path d="M238.62793,78.62695A31.90289,31.90289,0,0,1,216,87.98438a32.23919,32.23919,0,0,1-7.64124-.91846l-26.629,49.45312c.30212.27979.60412.55957.8977.853a32.00038,32.00038,0,1,1-50.1958,6.37354l-20.17749-20.17774a32.157,32.157,0,0,1-23.89526,3.49805L61.72974,176.519c.30212.27979.60412.55957.8977.853a32.00038,32.00038,0,1,1-45.25537.001l.00049-.001a32.0127,32.0127,0,0,1,30.269-8.43848l26.62866-49.45214c-.302-.28028-.60412-.56006-.8977-.85352a32.03718,32.03718,0,0,1-.00049-45.25488l.00049-.001a32.00216,32.00216,0,0,1,50.1958,38.88232l20.177,20.17725a32.12466,32.12466,0,0,1,23.89624-3.498L194.27026,79.481c-.30212-.27979-.60412-.55957-.8977-.853a32.03718,32.03718,0,0,1-.00049-45.25488l.00049-.001a32.00021,32.00021,0,0,1,45.25537,45.25488Z"/>
</svg>
