<svg id="Raw" xmlns="http://www.w3.org/2000/svg" viewBox="0 0 256 256">
  <rect width="256" height="256" fill="none"/>
  <line x1="40" y1="112" x2="216" y2="112" fill="none" stroke="#000" stroke-linecap="round" stroke-linejoin="round" stroke-width="16"/>
  <path d="M102.776,152H56a16,16,0,0,1-16-16V64A32,32,0,0,1,72,32H216V136a16,16,0,0,1-16,16H153.2241a8,8,0,0,0-7.9196,9.13137L152,208a24,24,0,0,1-48,0l6.69555-46.86862A8,8,0,0,0,102.776,152Z" fill="none" stroke="#000" stroke-linecap="round" stroke-linejoin="round" stroke-width="16"/>
  <line x1="184" y1="32" x2="184" y2="80" fill="none" stroke="#000" stroke-linecap="round" stroke-linejoin="round" stroke-width="16"/>
</svg>
