<svg id="Raw" xmlns="http://www.w3.org/2000/svg" viewBox="0 0 256 256">
  <rect width="256" height="256" fill="none"/>
  <path d="M216,112v32a8,8,0,0,1-8,8H48a8,8,0,0,1-8-8V112Z" opacity="0.2"/>
  <path d="M112,152l-8,56a24,24,0,0,0,48,0l-8-56Z" opacity="0.2"/>
  <path d="M72,32H208a8,8,0,0,1,8,8V144a8,8,0,0,1-8,8H48a8,8,0,0,1-8-8V64A32,32,0,0,1,72,32Z" fill="none" stroke="#000" stroke-linecap="round" stroke-linejoin="round" stroke-width="16"/>
  <path d="M112,152l-8,56a24,24,0,0,0,48,0l-8-56" fill="none" stroke="#000" stroke-linecap="round" stroke-linejoin="round" stroke-width="16"/>
  <line x1="40" y1="112" x2="216" y2="112" fill="none" stroke="#000" stroke-linecap="round" stroke-linejoin="round" stroke-width="16"/>
  <line x1="168" y1="32" x2="168" y2="72" fill="none" stroke="#000" stroke-linecap="round" stroke-linejoin="round" stroke-width="16"/>
</svg>
