<svg id="Raw" xmlns="http://www.w3.org/2000/svg" viewBox="0 0 256 256">
  <rect width="256" height="256" fill="none"/>
  <path d="M104,40a7.99977,7.99977,0,0,1,8-8h32a8,8,0,0,1,0,16H112A7.99977,7.99977,0,0,1,104,40Zm40,168H112a8,8,0,0,0,0,16h32a8,8,0,0,0,0-16ZM208,32H184a8,8,0,0,0,0,16h24V71.99951a8,8,0,0,0,16,0V48A16.01833,16.01833,0,0,0,208,32Zm8,71.99951a7.99977,7.99977,0,0,0-8,8v32a8,8,0,0,0,16,0v-32A7.99977,7.99977,0,0,0,216,103.99951Zm-176,48a7.99977,7.99977,0,0,0,8-8v-32a8,8,0,1,0-16,0v32A7.99977,7.99977,0,0,0,40,151.99951ZM72,208H48V184a8,8,0,0,0-16,0v24a16.01833,16.01833,0,0,0,16,16H72a8,8,0,0,0,0-16ZM53.91943,34.61865a7.99991,7.99991,0,1,0-11.83886,10.7627l160,176.00049a8.00024,8.00024,0,1,0,11.83886-10.76368Z"/>
</svg>
