<svg id="Layer_1" data-name="Layer 1" xmlns="http://www.w3.org/2000/svg" viewBox="0 0 256 256">
  <rect width="256" height="256" fill="none"/>
  <path d="M216,120H147.31348l48.56884-48.56885a7.99983,7.99983,0,0,0-11.31347-11.31347L136,108.68652V40a8,8,0,0,0-16,0v68.68652L71.43115,60.11768A7.99983,7.99983,0,0,0,60.11768,71.43115L108.68652,120H40a8,8,0,0,0,0,16h68.68652L60.11768,184.56885a7.99983,7.99983,0,1,0,11.31347,11.31347L120,147.31348V216a8,8,0,0,0,16,0V147.31348l48.56885,48.56884a7.99983,7.99983,0,0,0,11.31347-11.31347L147.31348,136H216a8,8,0,0,0,0-16Z"/>
</svg>
