<svg id="Raw" xmlns="http://www.w3.org/2000/svg" viewBox="0 0 256 256">
  <rect width="256" height="256" fill="none"/>
  <path d="M128,76a44,44,0,1,1-44,44A44,44,0,0,1,128,76Zm103.17676-2a7.99671,7.99671,0,0,1-10.92822,2.92822l-4.66822-2.69531A24.0036,24.0036,0,0,1,208,78.624V84a8,8,0,0,1-16,0V78.624a24.0036,24.0036,0,0,1-7.58032-4.39111l-4.66822,2.69531a8,8,0,0,1-8-13.85644l4.65687-2.68872a23.72829,23.72829,0,0,1,0-8.76612l-4.65687-2.68872a8,8,0,0,1,8-13.85644l4.66822,2.69531A24.0036,24.0036,0,0,1,192,33.376V28a8,8,0,0,1,16,0v5.376a24.0036,24.0036,0,0,1,7.58032,4.39111l4.66822-2.69531a8,8,0,1,1,8,13.85644l-4.65687,2.68872a23.72829,23.72829,0,0,1,0,8.76612l4.65687,2.68872A8.00037,8.00037,0,0,1,231.17676,74ZM200,64a8,8,0,1,0-8-8A8.00917,8.00917,0,0,0,200,64Zm22.37012,44.5564a7.99991,7.99991,0,0,0-6.99512,8.89209A89.40475,89.40475,0,0,1,216,128a87.63852,87.63852,0,0,1-22.24194,58.41064,79.70677,79.70677,0,0,0-24.431-22.97485,59.83657,59.83657,0,0,1-82.65418-.00024A79.7048,79.7048,0,0,0,62.2417,186.41016,87.9498,87.9498,0,0,1,128,40c2.72656,0,5.477.126,8.1748.37427a8.00012,8.00012,0,0,0,1.4668-15.93286C134.4585,24.14844,131.21436,24,128,24A103.95123,103.95123,0,0,0,57.81982,204.68091a7.93384,7.93384,0,0,0,1.32544,1.18921,103.78418,103.78418,0,0,0,137.71155-.002,7.935,7.935,0,0,0,1.31983-1.18383A103.74663,103.74663,0,0,0,232,128a105.40092,105.40092,0,0,0-.73828-12.44849A8,8,0,0,0,222.37012,108.5564Z"/>
</svg>
