<svg id="Raw" xmlns="http://www.w3.org/2000/svg" viewBox="0 0 256 256">
  <rect width="256" height="256" fill="none"/>
  <path d="M205.30634,71.08008A15.965,15.965,0,0,1,184.92,50.6936,96.001,96.001,0,0,0,63.79883,199.375v-.001A71.99731,71.99731,0,0,1,128,160a40,40,0,1,1,40-40,40.0001,40.0001,0,0,1-40,40,71.99731,71.99731,0,0,1,64.20117,39.374A96.002,96.002,0,0,0,205.30634,71.08008Z" opacity="0.2"/>
  <circle cx="128" cy="120" r="40" fill="none" stroke="#000" stroke-miterlimit="10" stroke-width="16"/>
  <path d="M63.79905,199.37405a72.02812,72.02812,0,0,1,128.40177-.00026" fill="none" stroke="#000" stroke-linecap="round" stroke-linejoin="round" stroke-width="16"/>
  <path d="M222.67244,111.99863a95.90075,95.90075,0,1,1-78.6712-78.67109" fill="none" stroke="#000" stroke-linecap="round" stroke-linejoin="round" stroke-width="16"/>
  <circle cx="200" cy="56" r="16" fill="none" stroke="#000" stroke-linecap="round" stroke-linejoin="round" stroke-width="16"/>
  <line x1="200" y1="40" x2="200" y2="28" fill="none" stroke="#000" stroke-linecap="round" stroke-linejoin="round" stroke-width="16"/>
  <line x1="186.14359" y1="48" x2="175.75129" y2="42" fill="none" stroke="#000" stroke-linecap="round" stroke-linejoin="round" stroke-width="16"/>
  <line x1="186.14359" y1="64" x2="175.75129" y2="70" fill="none" stroke="#000" stroke-linecap="round" stroke-linejoin="round" stroke-width="16"/>
  <line x1="200" y1="72" x2="200" y2="84" fill="none" stroke="#000" stroke-linecap="round" stroke-linejoin="round" stroke-width="16"/>
  <line x1="213.85641" y1="64" x2="224.24871" y2="70" fill="none" stroke="#000" stroke-linecap="round" stroke-linejoin="round" stroke-width="16"/>
  <line x1="213.85641" y1="48" x2="224.24871" y2="42" fill="none" stroke="#000" stroke-linecap="round" stroke-linejoin="round" stroke-width="16"/>
</svg>
