<svg id="Raw" xmlns="http://www.w3.org/2000/svg" viewBox="0 0 256 256">
  <rect width="256" height="256" fill="none"/>
  <path d="M213.91992,210.61865a8.00027,8.00027,0,0,1-11.83984,10.7627l-26.42334-29.06543c-2.45459,14.17285-9.88623,26.21582-15.37451,33.51123a15.96882,15.96882,0,0,1-11.64649,6.33056q-.5625.03955-1.124.03956a16.0039,16.0039,0,0,1-11.31934-4.69141L88,179.314,53.65723,213.65674a8.00018,8.00018,0,0,1-11.31446-11.31348L76.686,168,28.2959,119.60986a16.01339,16.01339,0,0,1,1.2832-23.78613c16.17676-13.05029,31.90967-16.16064,43.96-15.8374l-31.459-34.605a8.00027,8.00027,0,0,1,11.83984-10.7627ZM232,84.68652,171.31348,23.999A16.02162,16.02162,0,0,0,148.68555,24L110.71,61.97607a8.00034,8.00034,0,0,0-.26269,11.03809l68.57128,75.42871a8.00133,8.00133,0,0,0,5.7295,2.61621c.06347.00147.12695.00244.19043.00244a8.00139,8.00139,0,0,0,5.65722-2.34326L231.999,107.31445A15.99888,15.99888,0,0,0,232,84.68652Z"/>
</svg>
