<svg id="Layer_1" data-name="Layer 1" xmlns="http://www.w3.org/2000/svg" viewBox="0 0 256 256">
  <rect width="256" height="256" fill="none"/>
  <g>
    <path d="M185.92285,155.71582a7.99995,7.99995,0,0,0,13.87256-6.18555L188.68066,38.40771A15.94952,15.94952,0,0,0,172.76025,24H83.97412a8.00035,8.00035,0,0,0-5.9126,13.38965Z"/>
    <path d="M228.4209,226.62012l-35.99317-39.61133a8.0598,8.0598,0,0,0-.67822-.74707L39.4209,18.62012A8,8,0,0,0,27.5791,29.37988L64.19189,69.67383l-7.59082,75.8916a.32987.32987,0,0,1-.01416.06934,55.69488,55.69488,0,0,0-23.44433,35.0625A16.02766,16.02766,0,0,0,48.80371,200H120v40a8,8,0,0,0,16,0V200h46.61377l33.96533,37.37988a8,8,0,0,0,11.8418-10.75976Z"/>
  </g>
</svg>
