<svg id="Raw" xmlns="http://www.w3.org/2000/svg" viewBox="0 0 256 256">
  <rect width="256" height="256" fill="none"/>
  <line x1="88" y1="168" x2="48" y2="208" fill="none" stroke="#000" stroke-linecap="round" stroke-linejoin="round" stroke-width="12"/>
  <line x1="48" y1="40" x2="208" y2="216" fill="none" stroke="#000" stroke-linecap="round" stroke-linejoin="round" stroke-width="12"/>
  <path d="M93.71428,90.28572,92,92S64.256,78.128,34.60125,102.05044a8.01406,8.01406,0,0,0-.64838,11.90243L141.84933,221.84933a7.99324,7.99324,0,0,0,12.04036-.83167c7.60268-10.10523,19.13532-29.87219,12.71834-50.549" fill="none" stroke="#000" stroke-linecap="round" stroke-linejoin="round" stroke-width="12"/>
  <path d="M184.9386,143.0614l41.40455-41.40455a8,8,0,0,0,0-11.3137l-60.6863-60.6863a8,8,0,0,0-11.3137,0l-37.976,37.976" fill="none" stroke="#000" stroke-linecap="round" stroke-linejoin="round" stroke-width="12"/>
</svg>
