<svg id="Raw" xmlns="http://www.w3.org/2000/svg" viewBox="0 0 256 256">
  <rect width="256" height="256" fill="none"/>
  <g>
    <circle cx="128" cy="128" r="68"/>
    <path d="M128,44a8.00008,8.00008,0,0,0,8-8V16a8,8,0,0,0-16,0V36A8.00008,8.00008,0,0,0,128,44Z"/>
    <path d="M57.28955,68.603A7.99984,7.99984,0,1,0,68.603,57.28955L54.46094,43.14746A7.99984,7.99984,0,1,0,43.14746,54.46094Z"/>
    <path d="M44,128a8.00008,8.00008,0,0,0-8-8H16a8,8,0,0,0,0,16H36A8.00008,8.00008,0,0,0,44,128Z"/>
    <path d="M57.28955,187.397,43.14746,201.53906a7.99984,7.99984,0,1,0,11.31348,11.31348L68.603,198.71045A7.99984,7.99984,0,1,0,57.28955,187.397Z"/>
    <path d="M128,212a8.00008,8.00008,0,0,0-8,8v20a8,8,0,0,0,16,0V220A8.00008,8.00008,0,0,0,128,212Z"/>
    <path d="M198.71045,187.397A7.99984,7.99984,0,1,0,187.397,198.71045l14.14209,14.14209a7.99984,7.99984,0,1,0,11.31348-11.31348Z"/>
    <path d="M240,120H220a8,8,0,0,0,0,16h20a8,8,0,0,0,0-16Z"/>
    <path d="M193.05371,70.94629a7.97507,7.97507,0,0,0,5.65674-2.34326l14.14209-14.14209a7.99984,7.99984,0,1,0-11.31348-11.31348L187.397,57.28955a7.99976,7.99976,0,0,0,5.65674,13.65674Z"/>
  </g>
</svg>
