<svg id="Layer_1" data-name="Layer 1" xmlns="http://www.w3.org/2000/svg" viewBox="0 0 256 256">
  <rect width="256" height="256" fill="none"/>
  <path d="M176.00244,32v96l-32.00732-24-31.99268,24V32H72A23.99994,23.99994,0,0,0,48,56V224a23.99994,23.99994,0,0,1,24-24H208V32Z" opacity="0.2"/>
  <path d="M48,224a24,24,0,0,1,24-24H208V32H72A24,24,0,0,0,48,56Z" fill="none" stroke="#000" stroke-linecap="round" stroke-linejoin="round" stroke-width="16"/>
  <polyline points="48 224 48 232 192 232" fill="none" stroke="#000" stroke-linecap="round" stroke-linejoin="round" stroke-width="16"/>
  <polyline points="176.002 32 176.002 128 143.995 104 112.002 128 112.002 32" fill="none" stroke="#000" stroke-linecap="round" stroke-linejoin="round" stroke-width="16"/>
</svg>
