<svg id="Raw" xmlns="http://www.w3.org/2000/svg" viewBox="0 0 256 256">
  <rect width="256" height="256" fill="none"/>
  <path d="M176.00244,32v96l-32.00732-24-31.99268,24V32h-40a23.99994,23.99994,0,0,0-24,24V216a23.99994,23.99994,0,0,1,24-24h136V32Z" opacity="0.2"/>
  <polyline points="48.002 216 48.002 224 192.002 224" fill="none" stroke="#000" stroke-linecap="round" stroke-linejoin="round" stroke-width="16"/>
  <polyline points="176.002 32 176.002 128 143.995 104 112.002 128 112.002 32" fill="none" stroke="#000" stroke-linecap="round" stroke-linejoin="round" stroke-width="16"/>
  <path d="M48.00244,216a24,24,0,0,1,24-24h136V32h-136a24,24,0,0,0-24,24Z" fill="none" stroke="#000" stroke-linecap="round" stroke-linejoin="round" stroke-width="16"/>
</svg>
