<svg id="Raw" xmlns="http://www.w3.org/2000/svg" viewBox="0 0 256 256">
  <rect width="256" height="256" fill="none"/>
  <path d="M224,216a8.00008,8.00008,0,0,1-8,8H72a8,8,0,0,1,0-16H216A8.00008,8.00008,0,0,1,224,216ZM208,100H153.75977L110.94824,53.29688A3.99911,3.99911,0,0,0,108,52H91.09961A12.00015,12.00015,0,0,0,79.71484,67.79492L90.4502,100H65.87305L47.07324,77.43945A4.001,4.001,0,0,0,44,76H26.752A11.99986,11.99986,0,0,0,15.25879,91.44824l14.06836,46.89649A35.77737,35.77737,0,0,0,63.80859,164H240a4.0002,4.0002,0,0,0,4-4V136A36.04061,36.04061,0,0,0,208,100Z"/>
</svg>
