<svg id="Layer_1" data-name="Layer 1" xmlns="http://www.w3.org/2000/svg" viewBox="0 0 256 256">
  <rect width="256" height="256" fill="none"/>
  <path d="M220.03125,69.68457l-88-51.333a7.99878,7.99878,0,0,0-8.06152,0l-88,51.333A8.00059,8.00059,0,0,0,32,76.59473V179.40527a8.00059,8.00059,0,0,0,3.96973,6.91016l88,51.333a7.99878,7.99878,0,0,0,8.06152,0l88-51.333A7.99968,7.99968,0,0,0,224,179.40527V76.59473A7.99968,7.99968,0,0,0,220.03125,69.68457ZM128,168a40,40,0,1,1,40-40A40.0001,40.0001,0,0,1,128,168Z" opacity="0.2"/>
  <path d="M224,179.405V76.595a8,8,0,0,0-3.969-6.91023l-88-51.33333a8,8,0,0,0-8.06194,0l-88,51.33333A8,8,0,0,0,32,76.595V179.405a8,8,0,0,0,3.969,6.91023l88,51.33333a8,8,0,0,0,8.06194,0l88-51.33333A8,8,0,0,0,224,179.405Z" fill="none" stroke="#000" stroke-linecap="round" stroke-linejoin="round" stroke-width="16"/>
  <circle cx="128" cy="128" r="40" fill="none" stroke="#000" stroke-linecap="round" stroke-linejoin="round" stroke-width="16"/>
</svg>
