<svg id="Layer_1" data-name="Layer 1" xmlns="http://www.w3.org/2000/svg" viewBox="0 0 256 256">
  <rect width="256" height="256" fill="none"/>
  <path d="M224.062,62.77441l-88-51.333a16.02491,16.02491,0,0,0-16.124,0L31.9375,62.7749A16.05337,16.05337,0,0,0,24,76.59473V179.40527a16.05419,16.05419,0,0,0,7.938,13.82032l88,51.333a16.02408,16.02408,0,0,0,16.124,0L224.0625,193.2251A16.05337,16.05337,0,0,0,232,179.40527V76.59473A16.05419,16.05419,0,0,0,224.062,62.77441ZM160,128a32,32,0,1,1-32-32A32.03635,32.03635,0,0,1,160,128Z"/>
</svg>
