<svg id="Layer_1" data-name="Layer 1" xmlns="http://www.w3.org/2000/svg" viewBox="0 0 256 256">
  <path d="M247.47729,185.47021a7.99737,7.99737,0,0,0-10.12012-5.05957l-17.417,5.80567-28.89746-57.79395A7.99979,7.99979,0,0,0,183.88745,124h-80V104h56a8,8,0,0,0,0-16h-56V62.629a24,24,0,1,0-16,0V89.81421a71.99395,71.99395,0,1,0,87.86133,74.678,7.99953,7.99953,0,1,0-15.96875-.98438,56.001,56.001,0,1,1-71.89258-57.16644V132a8.00008,8.00008,0,0,0,8,8h83.05566l29.78906,59.57764a7.9934,7.9934,0,0,0,9.68555,4.01172l24-8A8.00045,8.00045,0,0,0,247.47729,185.47021Z"/>
</svg>
